G04 Layer_Color=255*
%FSLAX25Y25*%
%MOIN*%
G70*
G01*
G75*
%ADD10R,0.01575X0.02756*%
%ADD11R,0.10236X0.04331*%
%ADD12O,0.01181X0.06890*%
%ADD13O,0.06890X0.01181*%
%ADD14R,0.04331X0.05512*%
%ADD15R,0.05512X0.04331*%
%ADD16R,0.04724X0.05512*%
%ADD18C,0.04724*%
%ADD19C,0.07000*%
%ADD20C,0.05512*%
%ADD21C,0.06693*%
%ADD22R,0.06693X0.06693*%
%ADD23C,0.05906*%
%ADD24R,0.05906X0.05906*%
%ADD25C,0.06200*%
%ADD26C,0.06500*%
%ADD27R,0.06500X0.06500*%
%ADD28R,0.05906X0.05906*%
%ADD29O,0.07874X0.03937*%
%ADD30O,0.07874X0.03937*%
G04:AMPARAMS|DCode=31|XSize=40mil|YSize=40mil|CornerRadius=10mil|HoleSize=0mil|Usage=FLASHONLY|Rotation=270.000|XOffset=0mil|YOffset=0mil|HoleType=Round|Shape=RoundedRectangle|*
%AMROUNDEDRECTD31*
21,1,0.04000,0.02000,0,0,270.0*
21,1,0.02000,0.04000,0,0,270.0*
1,1,0.02000,-0.01000,-0.01000*
1,1,0.02000,-0.01000,0.01000*
1,1,0.02000,0.01000,0.01000*
1,1,0.02000,0.01000,-0.01000*
%
%ADD31ROUNDEDRECTD31*%
%ADD32C,0.04000*%
D10*
X422059Y157965D02*
D03*
X416941D02*
D03*
X416941Y166035D02*
D03*
X419500D02*
D03*
X422059D02*
D03*
D11*
X438000Y112685D02*
D03*
Y123315D02*
D03*
X409500Y111685D02*
D03*
Y122315D02*
D03*
X121500Y198315D02*
D03*
Y187685D02*
D03*
D12*
X196122Y231323D02*
D03*
X194153D02*
D03*
X192185D02*
D03*
X190217D02*
D03*
X188248D02*
D03*
X186279D02*
D03*
X184311D02*
D03*
X182343D02*
D03*
X180374D02*
D03*
X178405D02*
D03*
X176437D02*
D03*
X174469D02*
D03*
X172500D02*
D03*
X170531D02*
D03*
X168563D02*
D03*
X166595D02*
D03*
X164626D02*
D03*
X162657D02*
D03*
X160689D02*
D03*
X158721D02*
D03*
X156752D02*
D03*
X154783D02*
D03*
X152815D02*
D03*
X150847D02*
D03*
X148878D02*
D03*
Y171677D02*
D03*
X150847D02*
D03*
X152815D02*
D03*
X154783D02*
D03*
X156752D02*
D03*
X158721D02*
D03*
X160689D02*
D03*
X162657D02*
D03*
X164626D02*
D03*
X166595D02*
D03*
X168563D02*
D03*
X170531D02*
D03*
X172500D02*
D03*
X174469D02*
D03*
X176437D02*
D03*
X178405D02*
D03*
X180374D02*
D03*
X182343D02*
D03*
X184311D02*
D03*
X186279D02*
D03*
X188248D02*
D03*
X190217D02*
D03*
X192185D02*
D03*
X194153D02*
D03*
X196122D02*
D03*
D13*
X142677Y225122D02*
D03*
Y223153D02*
D03*
Y221185D02*
D03*
Y219216D02*
D03*
Y217248D02*
D03*
Y215280D02*
D03*
Y213311D02*
D03*
Y211343D02*
D03*
Y209374D02*
D03*
Y207405D02*
D03*
Y205437D02*
D03*
Y203468D02*
D03*
Y201500D02*
D03*
Y199531D02*
D03*
Y197563D02*
D03*
Y195595D02*
D03*
Y193626D02*
D03*
Y191657D02*
D03*
Y189689D02*
D03*
Y187721D02*
D03*
Y185752D02*
D03*
Y183783D02*
D03*
Y181815D02*
D03*
Y179847D02*
D03*
Y177878D02*
D03*
X202323D02*
D03*
Y179847D02*
D03*
Y181815D02*
D03*
Y183783D02*
D03*
Y185752D02*
D03*
Y187721D02*
D03*
Y189689D02*
D03*
Y191657D02*
D03*
Y193626D02*
D03*
Y195595D02*
D03*
Y197563D02*
D03*
Y199531D02*
D03*
Y201500D02*
D03*
Y203468D02*
D03*
Y205437D02*
D03*
Y207405D02*
D03*
Y209374D02*
D03*
Y211343D02*
D03*
Y213311D02*
D03*
Y215280D02*
D03*
Y217248D02*
D03*
Y219216D02*
D03*
Y221185D02*
D03*
Y223153D02*
D03*
Y225122D02*
D03*
D14*
X191905Y253000D02*
D03*
X186000D02*
D03*
X119299Y170500D02*
D03*
X125205D02*
D03*
X187094Y153500D02*
D03*
X193000D02*
D03*
D15*
X222500Y194047D02*
D03*
Y199953D02*
D03*
X140000Y252547D02*
D03*
Y258453D02*
D03*
X153000D02*
D03*
Y252547D02*
D03*
D16*
X176043Y252500D02*
D03*
X168957D02*
D03*
D18*
X382000Y184500D02*
D03*
X352000D02*
D03*
X349500Y148500D02*
D03*
X379500D02*
D03*
X379000Y294000D02*
D03*
X349000D02*
D03*
X381500Y209000D02*
D03*
X351500D02*
D03*
D19*
X442500Y93000D02*
D03*
X432500D02*
D03*
X412000Y93500D02*
D03*
X402000D02*
D03*
D20*
X270000D02*
D03*
X320000D02*
D03*
X333500Y93000D02*
D03*
X383500D02*
D03*
X352000Y166500D02*
D03*
X382000D02*
D03*
X338000Y135500D02*
D03*
Y105500D02*
D03*
X405000Y142500D02*
D03*
X435000D02*
D03*
X342500Y272000D02*
D03*
X372500D02*
D03*
D21*
X272000Y189000D02*
D03*
Y179000D02*
D03*
D22*
Y169000D02*
D03*
D23*
X302500Y201433D02*
D03*
X319500D02*
D03*
X309500Y138000D02*
D03*
X299500D02*
D03*
X319500Y115500D02*
D03*
X309500Y125500D02*
D03*
Y115500D02*
D03*
X299500Y125500D02*
D03*
Y115500D02*
D03*
X252000Y285000D02*
D03*
X365000Y250000D02*
D03*
X375500Y227000D02*
D03*
X248000Y115500D02*
D03*
X258000D02*
D03*
X268000D02*
D03*
X289000Y280500D02*
D03*
Y290500D02*
D03*
X299000Y280500D02*
D03*
Y290500D02*
D03*
X309000Y280500D02*
D03*
Y290500D02*
D03*
X319000Y280500D02*
D03*
X130000Y115000D02*
D03*
X140000D02*
D03*
X150000D02*
D03*
X160000D02*
D03*
X170000D02*
D03*
X180000D02*
D03*
X190000D02*
D03*
X200000D02*
D03*
X210000D02*
D03*
X220000D02*
D03*
X130000Y125000D02*
D03*
X140000D02*
D03*
X150000D02*
D03*
X160000D02*
D03*
X170000D02*
D03*
X180000D02*
D03*
X190000D02*
D03*
X200000D02*
D03*
X210000D02*
D03*
X333500Y227500D02*
D03*
Y237500D02*
D03*
Y247500D02*
D03*
X303500Y217500D02*
D03*
Y227500D02*
D03*
Y237500D02*
D03*
Y247500D02*
D03*
X130000Y285000D02*
D03*
X140000D02*
D03*
X150000D02*
D03*
X160000D02*
D03*
X170000D02*
D03*
X180000D02*
D03*
X190000D02*
D03*
X200000D02*
D03*
X210000D02*
D03*
X220000D02*
D03*
X130000Y295000D02*
D03*
X140000D02*
D03*
X150000D02*
D03*
X160000D02*
D03*
X170000D02*
D03*
X180000D02*
D03*
X190000D02*
D03*
X200000D02*
D03*
X210000D02*
D03*
D24*
X302500Y155567D02*
D03*
X319500D02*
D03*
X252000Y295000D02*
D03*
D25*
X272500Y137500D02*
D03*
D26*
X262500D02*
D03*
D27*
X252500D02*
D03*
D28*
X319500Y138000D02*
D03*
Y125500D02*
D03*
X375000Y250000D02*
D03*
X365500Y227000D02*
D03*
X278000Y115500D02*
D03*
X319000Y290500D02*
D03*
X220000Y125000D02*
D03*
X333500Y217500D02*
D03*
X220000Y295000D02*
D03*
D29*
X354000Y109500D02*
D03*
Y119500D02*
D03*
X377000Y109500D02*
D03*
Y119500D02*
D03*
D30*
X354000Y114500D02*
D03*
X377000D02*
D03*
D31*
X495791Y283500D02*
D03*
D32*
X487917D02*
D03*
X480043D02*
D03*
X472169D02*
D03*
X464295D02*
D03*
X456421D02*
D03*
X448547D02*
D03*
X440673D02*
D03*
X432799D02*
D03*
X424925D02*
D03*
Y196886D02*
D03*
X432799D02*
D03*
X440673D02*
D03*
X448547D02*
D03*
X456421D02*
D03*
X464295D02*
D03*
X472169D02*
D03*
X480043D02*
D03*
X487917D02*
D03*
X495791D02*
D03*
M02*
