M48
;Layer_Color=9474304
;FILE_FORMAT=2:5
INCH,LZ
;TYPE=PLATED
T1F00S00C0.01500
T2F00S00C0.02500
T3F00S00C0.02756
T4F00S00C0.03346
T5F00S00C0.03543
T6F00S00C0.03940
T7F00S00C0.04331
T8F00S00C0.05000
%
T01
X015Y01405
X01575Y01545
X0328Y0137
X03645Y01505
X03635Y0184
X033Y01825
X03035Y0191
X0291Y01685
X02285Y01565
X02225Y0186
X0211Y01995
X0251Y0206
X0231Y02505
X0253Y0271
X0264Y02665
X028Y02625
X0176Y026
X01715Y0267
X0176969Y02435
X0182343Y02445
X01895Y0241
X0187185Y0160315
X0181Y0161
X0166595Y016
X0153Y01595
X0152815Y0241
T02
X0472169Y0196886
X0480043
X0487917
X0495791
Y02835
X0487917
X0480043
X0472169
X0464295
X0456421
X0448547
X0440673
X0432799
X0424925
Y0196886
X0432799
X0440673
X0448547
X0456421
X0464295
T03
X03495Y01485
X03795
X0382Y01845
X03815Y0209
X03515
X0352Y01845
X0349Y0294
X0379
T04
X027Y00935
X032
X03335Y0093
X0338Y01055
Y01355
X0405Y01425
X0435
X03835Y0093
X0382Y01665
X0352
X03425Y0272
X03725
T05
X013Y0115
X014
X015
Y0125
X014
X013
X016
Y0115
X017
X018
X019
X02
X021
X022
Y0125
X021
X02
X019
X018
X017
X0248Y01155
X0258
X0268
X0278
X02995
X03095
Y01255
X02995
Y0138
X03095
X03025Y0155567
X03195
Y0138
Y01255
Y01155
X0354Y01145
Y01095
Y01195
X0377
Y01145
Y01095
X03755Y0227
X03655
X0365Y025
X0375
X03335Y02475
Y02375
Y02275
Y02175
X03195Y0201433
X0319Y02805
Y02905
X0309
X0299
X0289
Y02805
X0299
X0309
X03035Y02475
Y02375
Y02275
Y02175
X03025Y0201433
X0252Y0285
Y0295
X022
Y0285
X021
X02
X019
X018
X017
X016
Y0295
X017
X018
X019
X02
X021
X015
Y0285
X014
X013
Y0295
X014
T06
X02525Y01375
X02625
X02725
T07
X0272Y0169
Y0179
Y0189
T08
X0402Y00935
X0412
X04325Y0093
X04425
M30
