G04 Layer_Physical_Order=2*
G04 Layer_Color=16711680*
%FSLAX25Y25*%
%MOIN*%
G70*
G01*
G75*
%ADD17C,0.01000*%
%ADD18C,0.04724*%
%ADD19C,0.07000*%
%ADD20C,0.05512*%
%ADD21C,0.06693*%
%ADD22R,0.06693X0.06693*%
%ADD23C,0.05906*%
%ADD24R,0.05906X0.05906*%
%ADD25C,0.06200*%
%ADD26C,0.06500*%
%ADD27R,0.06500X0.06500*%
%ADD28R,0.05906X0.05906*%
%ADD29O,0.07874X0.03937*%
%ADD30O,0.07874X0.03937*%
G04:AMPARAMS|DCode=31|XSize=40mil|YSize=40mil|CornerRadius=10mil|HoleSize=0mil|Usage=FLASHONLY|Rotation=270.000|XOffset=0mil|YOffset=0mil|HoleType=Round|Shape=RoundedRectangle|*
%AMROUNDEDRECTD31*
21,1,0.04000,0.02000,0,0,270.0*
21,1,0.02000,0.04000,0,0,270.0*
1,1,0.02000,-0.01000,-0.01000*
1,1,0.02000,-0.01000,0.01000*
1,1,0.02000,0.01000,0.01000*
1,1,0.02000,0.01000,-0.01000*
%
%ADD31ROUNDEDRECTD31*%
%ADD32C,0.04000*%
%ADD33C,0.03000*%
G36*
X502674Y87826D02*
X101326D01*
Y91500D01*
Y100000D01*
Y311175D01*
X502674D01*
Y87826D01*
D02*
G37*
%LPC*%
G36*
X349500Y297325D02*
Y294500D01*
X352325D01*
X352276Y294878D01*
X351937Y295696D01*
X351398Y296398D01*
X350696Y296937D01*
X349878Y297276D01*
X349500Y297325D01*
D02*
G37*
G36*
X348500D02*
X348122Y297276D01*
X347304Y296937D01*
X346602Y296398D01*
X346063Y295696D01*
X345724Y294878D01*
X345675Y294500D01*
X348500D01*
Y297325D01*
D02*
G37*
G36*
X255753Y298753D02*
X248247D01*
Y291247D01*
X255753D01*
Y298753D01*
D02*
G37*
G36*
X223753D02*
X216247D01*
Y291247D01*
X223753D01*
Y298753D01*
D02*
G37*
G36*
X210000Y298785D02*
X209020Y298656D01*
X208107Y298278D01*
X207324Y297676D01*
X206722Y296893D01*
X206344Y295980D01*
X206215Y295000D01*
X206344Y294020D01*
X206722Y293107D01*
X207324Y292323D01*
X208107Y291722D01*
X209020Y291344D01*
X210000Y291215D01*
X210980Y291344D01*
X211893Y291722D01*
X212677Y292323D01*
X213278Y293107D01*
X213656Y294020D01*
X213785Y295000D01*
X213656Y295980D01*
X213278Y296893D01*
X212677Y297676D01*
X211893Y298278D01*
X210980Y298656D01*
X210000Y298785D01*
D02*
G37*
G36*
X200000D02*
X199020Y298656D01*
X198107Y298278D01*
X197324Y297676D01*
X196722Y296893D01*
X196344Y295980D01*
X196215Y295000D01*
X196344Y294020D01*
X196722Y293107D01*
X197324Y292323D01*
X198107Y291722D01*
X199020Y291344D01*
X200000Y291215D01*
X200980Y291344D01*
X201893Y291722D01*
X202677Y292323D01*
X203278Y293107D01*
X203656Y294020D01*
X203785Y295000D01*
X203656Y295980D01*
X203278Y296893D01*
X202677Y297676D01*
X201893Y298278D01*
X200980Y298656D01*
X200000Y298785D01*
D02*
G37*
G36*
X190000D02*
X189020Y298656D01*
X188107Y298278D01*
X187323Y297676D01*
X186722Y296893D01*
X186344Y295980D01*
X186215Y295000D01*
X186344Y294020D01*
X186722Y293107D01*
X187323Y292323D01*
X188107Y291722D01*
X189020Y291344D01*
X190000Y291215D01*
X190980Y291344D01*
X191893Y291722D01*
X192676Y292323D01*
X193278Y293107D01*
X193656Y294020D01*
X193785Y295000D01*
X193656Y295980D01*
X193278Y296893D01*
X192676Y297676D01*
X191893Y298278D01*
X190980Y298656D01*
X190000Y298785D01*
D02*
G37*
G36*
X180000D02*
X179020Y298656D01*
X178107Y298278D01*
X177323Y297676D01*
X176722Y296893D01*
X176344Y295980D01*
X176215Y295000D01*
X176344Y294020D01*
X176722Y293107D01*
X177323Y292323D01*
X178107Y291722D01*
X179020Y291344D01*
X180000Y291215D01*
X180980Y291344D01*
X181893Y291722D01*
X182676Y292323D01*
X183278Y293107D01*
X183656Y294020D01*
X183785Y295000D01*
X183656Y295980D01*
X183278Y296893D01*
X182676Y297676D01*
X181893Y298278D01*
X180980Y298656D01*
X180000Y298785D01*
D02*
G37*
G36*
X170000D02*
X169020Y298656D01*
X168107Y298278D01*
X167324Y297676D01*
X166722Y296893D01*
X166344Y295980D01*
X166215Y295000D01*
X166344Y294020D01*
X166722Y293107D01*
X167324Y292323D01*
X168107Y291722D01*
X169020Y291344D01*
X170000Y291215D01*
X170980Y291344D01*
X171893Y291722D01*
X172677Y292323D01*
X173278Y293107D01*
X173656Y294020D01*
X173785Y295000D01*
X173656Y295980D01*
X173278Y296893D01*
X172677Y297676D01*
X171893Y298278D01*
X170980Y298656D01*
X170000Y298785D01*
D02*
G37*
G36*
X140000D02*
X139020Y298656D01*
X138107Y298278D01*
X137323Y297676D01*
X136722Y296893D01*
X136344Y295980D01*
X136215Y295000D01*
X136344Y294020D01*
X136722Y293107D01*
X137323Y292323D01*
X138107Y291722D01*
X139020Y291344D01*
X140000Y291215D01*
X140980Y291344D01*
X141893Y291722D01*
X142676Y292323D01*
X143278Y293107D01*
X143656Y294020D01*
X143785Y295000D01*
X143656Y295980D01*
X143278Y296893D01*
X142676Y297676D01*
X141893Y298278D01*
X140980Y298656D01*
X140000Y298785D01*
D02*
G37*
G36*
X130000D02*
X129020Y298656D01*
X128107Y298278D01*
X127323Y297676D01*
X126722Y296893D01*
X126344Y295980D01*
X126215Y295000D01*
X126344Y294020D01*
X126722Y293107D01*
X127323Y292323D01*
X128107Y291722D01*
X129020Y291344D01*
X130000Y291215D01*
X130980Y291344D01*
X131893Y291722D01*
X132676Y292323D01*
X133278Y293107D01*
X133656Y294020D01*
X133785Y295000D01*
X133656Y295980D01*
X133278Y296893D01*
X132676Y297676D01*
X131893Y298278D01*
X130980Y298656D01*
X130000Y298785D01*
D02*
G37*
G36*
X379000Y297189D02*
X378174Y297081D01*
X377405Y296762D01*
X376745Y296255D01*
X376238Y295595D01*
X375919Y294826D01*
X375811Y294000D01*
X375919Y293175D01*
X376238Y292405D01*
X376745Y291745D01*
X377405Y291238D01*
X378174Y290919D01*
X379000Y290810D01*
X379825Y290919D01*
X380595Y291238D01*
X381255Y291745D01*
X381762Y292405D01*
X382081Y293175D01*
X382189Y294000D01*
X382081Y294826D01*
X381762Y295595D01*
X381255Y296255D01*
X380595Y296762D01*
X379825Y297081D01*
X379000Y297189D01*
D02*
G37*
G36*
X352325Y293500D02*
X349500D01*
Y290675D01*
X349878Y290724D01*
X350696Y291063D01*
X351398Y291602D01*
X351937Y292304D01*
X352276Y293122D01*
X352325Y293500D01*
D02*
G37*
G36*
X348500D02*
X345675D01*
X345724Y293122D01*
X346063Y292304D01*
X346602Y291602D01*
X347304Y291063D01*
X348122Y290724D01*
X348500Y290675D01*
Y293500D01*
D02*
G37*
G36*
X160000Y298785D02*
X159020Y298656D01*
X158107Y298278D01*
X157324Y297676D01*
X156722Y296893D01*
X156344Y295980D01*
X156215Y295000D01*
X156344Y294020D01*
X156722Y293107D01*
X157324Y292323D01*
X158107Y291722D01*
X159020Y291344D01*
X160000Y291215D01*
X160980Y291344D01*
X161547Y291579D01*
X163674Y289451D01*
Y287197D01*
X163174Y287027D01*
X162677Y287677D01*
X161893Y288278D01*
X160980Y288656D01*
X160000Y288785D01*
X159020Y288656D01*
X158107Y288278D01*
X157324Y287677D01*
X156825Y287027D01*
X156325Y287197D01*
Y290000D01*
X156225Y290507D01*
X155937Y290937D01*
X153421Y293453D01*
X153656Y294020D01*
X153785Y295000D01*
X153656Y295980D01*
X153278Y296893D01*
X152676Y297676D01*
X151893Y298278D01*
X150980Y298656D01*
X150000Y298785D01*
X149020Y298656D01*
X148107Y298278D01*
X147324Y297676D01*
X146722Y296893D01*
X146344Y295980D01*
X146215Y295000D01*
X146344Y294020D01*
X146722Y293107D01*
X147324Y292323D01*
X148107Y291722D01*
X149020Y291344D01*
X150000Y291215D01*
X150980Y291344D01*
X151547Y291579D01*
X153674Y289451D01*
Y287197D01*
X153174Y287027D01*
X152676Y287677D01*
X151893Y288278D01*
X150980Y288656D01*
X150000Y288785D01*
X149020Y288656D01*
X148107Y288278D01*
X147324Y287677D01*
X146722Y286893D01*
X146344Y285980D01*
X146215Y285000D01*
X146344Y284020D01*
X146722Y283107D01*
X147324Y282324D01*
X148107Y281722D01*
X149020Y281344D01*
X150000Y281215D01*
X150980Y281344D01*
X151893Y281722D01*
X152676Y282324D01*
X153174Y282973D01*
X153674Y282803D01*
Y279500D01*
X153775Y278993D01*
X154063Y278563D01*
X157175Y275451D01*
Y168095D01*
X157275Y167587D01*
X157563Y167157D01*
X164328Y160392D01*
X164249Y160000D01*
X164428Y159103D01*
X164936Y158342D01*
X165697Y157833D01*
X166595Y157655D01*
X167492Y157833D01*
X168253Y158342D01*
X168761Y159103D01*
X168939Y160000D01*
X168761Y160897D01*
X168253Y161658D01*
X167492Y162167D01*
X166595Y162345D01*
X166202Y162267D01*
X159826Y168643D01*
Y276000D01*
X159725Y276507D01*
X159437Y276937D01*
X156325Y280049D01*
Y282803D01*
X156825Y282973D01*
X157324Y282324D01*
X158107Y281722D01*
X159020Y281344D01*
X160000Y281215D01*
X160980Y281344D01*
X161893Y281722D01*
X162677Y282324D01*
X163174Y282973D01*
X163674Y282803D01*
Y281500D01*
X163775Y280993D01*
X164063Y280563D01*
X185675Y258951D01*
Y243500D01*
X185775Y242993D01*
X186063Y242563D01*
X187233Y241392D01*
X187155Y241000D01*
X187333Y240103D01*
X187842Y239342D01*
X188603Y238833D01*
X189500Y238655D01*
X190397Y238833D01*
X191158Y239342D01*
X191667Y240103D01*
X191845Y241000D01*
X191667Y241897D01*
X191158Y242658D01*
X190397Y243167D01*
X189500Y243345D01*
X189108Y243267D01*
X188326Y244049D01*
Y259500D01*
X188225Y260007D01*
X187937Y260437D01*
X166325Y282049D01*
Y282803D01*
X166825Y282973D01*
X167324Y282324D01*
X168107Y281722D01*
X169020Y281344D01*
X170000Y281215D01*
X170980Y281344D01*
X171893Y281722D01*
X172677Y282324D01*
X173278Y283107D01*
X173656Y284020D01*
X173785Y285000D01*
X173656Y285980D01*
X173278Y286893D01*
X172677Y287677D01*
X171893Y288278D01*
X170980Y288656D01*
X170000Y288785D01*
X169020Y288656D01*
X168107Y288278D01*
X167324Y287677D01*
X166825Y287027D01*
X166325Y287197D01*
Y290000D01*
X166225Y290507D01*
X165937Y290937D01*
X163421Y293453D01*
X163656Y294020D01*
X163785Y295000D01*
X163656Y295980D01*
X163278Y296893D01*
X162677Y297676D01*
X161893Y298278D01*
X160980Y298656D01*
X160000Y298785D01*
D02*
G37*
G36*
X322753Y294253D02*
X315247D01*
Y286747D01*
X322753D01*
Y294253D01*
D02*
G37*
G36*
X304000Y296826D02*
X283000D01*
X282493Y296725D01*
X282063Y296437D01*
X273063Y287437D01*
X272775Y287007D01*
X272674Y286500D01*
Y215549D01*
X244451Y187326D01*
X224380D01*
X224158Y187658D01*
X223397Y188167D01*
X222500Y188345D01*
X221603Y188167D01*
X220842Y187658D01*
X220333Y186897D01*
X220155Y186000D01*
X220333Y185103D01*
X220842Y184342D01*
X221603Y183833D01*
X222500Y183655D01*
X223397Y183833D01*
X224158Y184342D01*
X224380Y184675D01*
X245000D01*
X245507Y184775D01*
X245937Y185063D01*
X274937Y214063D01*
X275225Y214493D01*
X275325Y215000D01*
Y285951D01*
X283549Y294175D01*
X286474D01*
X286644Y293674D01*
X286181Y293319D01*
X285547Y292493D01*
X285149Y291532D01*
X285079Y291000D01*
X289000D01*
X292921D01*
X292851Y291532D01*
X292453Y292493D01*
X291819Y293319D01*
X291356Y293674D01*
X291526Y294175D01*
X296803D01*
X296973Y293674D01*
X296323Y293177D01*
X295722Y292393D01*
X295344Y291480D01*
X295215Y290500D01*
X295344Y289520D01*
X295722Y288607D01*
X296323Y287824D01*
X297107Y287222D01*
X298020Y286844D01*
X299000Y286715D01*
X299980Y286844D01*
X300893Y287222D01*
X301677Y287824D01*
X302278Y288607D01*
X302656Y289520D01*
X302785Y290500D01*
X302656Y291480D01*
X302278Y292393D01*
X301677Y293177D01*
X301027Y293674D01*
X301197Y294175D01*
X303451D01*
X305579Y292047D01*
X305344Y291480D01*
X305215Y290500D01*
X305344Y289520D01*
X305722Y288607D01*
X306324Y287824D01*
X307107Y287222D01*
X308020Y286844D01*
X309000Y286715D01*
X309980Y286844D01*
X310893Y287222D01*
X311677Y287824D01*
X312278Y288607D01*
X312656Y289520D01*
X312785Y290500D01*
X312656Y291480D01*
X312278Y292393D01*
X311677Y293177D01*
X310893Y293778D01*
X309980Y294156D01*
X309000Y294285D01*
X308020Y294156D01*
X307453Y293921D01*
X304937Y296437D01*
X304507Y296725D01*
X304000Y296826D01*
D02*
G37*
G36*
X292921Y290000D02*
X289500D01*
Y286579D01*
X290032Y286649D01*
X290993Y287047D01*
X291819Y287681D01*
X292453Y288507D01*
X292851Y289468D01*
X292921Y290000D01*
D02*
G37*
G36*
X288500D02*
X285079D01*
X285149Y289468D01*
X285547Y288507D01*
X286181Y287681D01*
X287007Y287047D01*
X287968Y286649D01*
X288500Y286579D01*
Y290000D01*
D02*
G37*
G36*
X210500Y288921D02*
Y285500D01*
X213921D01*
X213851Y286032D01*
X213453Y286993D01*
X212819Y287819D01*
X211993Y288453D01*
X211032Y288851D01*
X210500Y288921D01*
D02*
G37*
G36*
X209500D02*
X208968Y288851D01*
X208007Y288453D01*
X207181Y287819D01*
X206547Y286993D01*
X206149Y286032D01*
X206079Y285500D01*
X209500D01*
Y288921D01*
D02*
G37*
G36*
X446000Y303326D02*
X281000D01*
X280493Y303225D01*
X280063Y302937D01*
X267563Y290437D01*
X267275Y290007D01*
X267175Y289500D01*
Y271549D01*
X264392Y268767D01*
X264000Y268845D01*
X263103Y268667D01*
X262342Y268158D01*
X261833Y267397D01*
X261655Y266500D01*
X261833Y265603D01*
X262342Y264842D01*
X263103Y264333D01*
X264000Y264155D01*
X264897Y264333D01*
X265658Y264842D01*
X266167Y265603D01*
X266345Y266500D01*
X266267Y266893D01*
X269437Y270063D01*
X269725Y270493D01*
X269826Y271000D01*
Y288951D01*
X281549Y300675D01*
X445451D01*
X459675Y286451D01*
Y284071D01*
X459174Y284038D01*
X459149Y284231D01*
X458867Y284912D01*
X458418Y285497D01*
X457833Y285946D01*
X457152Y286228D01*
X456421Y286324D01*
X455690Y286228D01*
X455009Y285946D01*
X454424Y285497D01*
X453975Y284912D01*
X453693Y284231D01*
X453597Y283500D01*
X453693Y282769D01*
X453975Y282088D01*
X454424Y281503D01*
X455009Y281054D01*
X455690Y280772D01*
X456421Y280676D01*
X457152Y280772D01*
X457833Y281054D01*
X458418Y281503D01*
X458867Y282088D01*
X459149Y282769D01*
X459174Y282962D01*
X459675Y282929D01*
Y280000D01*
X459775Y279493D01*
X460063Y279063D01*
X463563Y275563D01*
X463993Y275275D01*
X464500Y275174D01*
X480917D01*
X481425Y275275D01*
X481855Y275563D01*
X487100Y280808D01*
X487186Y280772D01*
X487917Y280676D01*
X488648Y280772D01*
X489329Y281054D01*
X489914Y281503D01*
X490363Y282088D01*
X490645Y282769D01*
X490741Y283500D01*
X490645Y284231D01*
X490363Y284912D01*
X489914Y285497D01*
X489329Y285946D01*
X488648Y286228D01*
X487917Y286324D01*
X487186Y286228D01*
X486505Y285946D01*
X485920Y285497D01*
X485471Y284912D01*
X485189Y284231D01*
X485093Y283500D01*
X485189Y282769D01*
X485225Y282682D01*
X480368Y277825D01*
X465049D01*
X462415Y280460D01*
X462449Y280778D01*
X462672Y280920D01*
X462940Y281031D01*
X463564Y280772D01*
X464295Y280676D01*
X465026Y280772D01*
X465707Y281054D01*
X466292Y281503D01*
X466741Y282088D01*
X467023Y282769D01*
X467119Y283500D01*
X467023Y284231D01*
X466741Y284912D01*
X466292Y285497D01*
X465707Y285946D01*
X465026Y286228D01*
X464295Y286324D01*
X463564Y286228D01*
X462883Y285946D01*
X462774Y285862D01*
X462325Y286083D01*
Y287000D01*
X462225Y287507D01*
X461937Y287937D01*
X446937Y302937D01*
X446507Y303225D01*
X446000Y303326D01*
D02*
G37*
G36*
X425425Y286460D02*
Y284000D01*
X427885D01*
X427848Y284283D01*
X427546Y285013D01*
X427065Y285640D01*
X426438Y286121D01*
X425708Y286423D01*
X425425Y286460D01*
D02*
G37*
G36*
X424425D02*
X424142Y286423D01*
X423412Y286121D01*
X422786Y285640D01*
X422305Y285013D01*
X422002Y284283D01*
X421965Y284000D01*
X424425D01*
Y286460D01*
D02*
G37*
G36*
X252000Y288785D02*
X251020Y288656D01*
X250107Y288278D01*
X249324Y287677D01*
X248722Y286893D01*
X248344Y285980D01*
X248215Y285000D01*
X248344Y284020D01*
X248579Y283453D01*
X210063Y244937D01*
X209775Y244507D01*
X209675Y244000D01*
Y201380D01*
X209342Y201158D01*
X208833Y200397D01*
X208655Y199500D01*
X208833Y198603D01*
X209342Y197842D01*
X210103Y197333D01*
X211000Y197155D01*
X211897Y197333D01*
X212658Y197842D01*
X213167Y198603D01*
X213345Y199500D01*
X213167Y200397D01*
X212658Y201158D01*
X212326Y201380D01*
Y243451D01*
X250453Y281579D01*
X251020Y281344D01*
X252000Y281215D01*
X252980Y281344D01*
X253893Y281722D01*
X254677Y282324D01*
X255278Y283107D01*
X255656Y284020D01*
X255785Y285000D01*
X255656Y285980D01*
X255278Y286893D01*
X254677Y287677D01*
X253893Y288278D01*
X252980Y288656D01*
X252000Y288785D01*
D02*
G37*
G36*
X220000D02*
X219020Y288656D01*
X218107Y288278D01*
X217323Y287677D01*
X216722Y286893D01*
X216344Y285980D01*
X216215Y285000D01*
X216344Y284020D01*
X216722Y283107D01*
X217323Y282324D01*
X218107Y281722D01*
X219020Y281344D01*
X220000Y281215D01*
X220980Y281344D01*
X221893Y281722D01*
X222676Y282324D01*
X223278Y283107D01*
X223656Y284020D01*
X223785Y285000D01*
X223656Y285980D01*
X223278Y286893D01*
X222676Y287677D01*
X221893Y288278D01*
X220980Y288656D01*
X220000Y288785D01*
D02*
G37*
G36*
X180000D02*
X179020Y288656D01*
X178107Y288278D01*
X177323Y287677D01*
X176722Y286893D01*
X176344Y285980D01*
X176215Y285000D01*
X176344Y284020D01*
X176722Y283107D01*
X177323Y282324D01*
X178107Y281722D01*
X179020Y281344D01*
X180000Y281215D01*
X180980Y281344D01*
X181893Y281722D01*
X182676Y282324D01*
X183278Y283107D01*
X183656Y284020D01*
X183785Y285000D01*
X183656Y285980D01*
X183278Y286893D01*
X182676Y287677D01*
X181893Y288278D01*
X180980Y288656D01*
X180000Y288785D01*
D02*
G37*
G36*
X140000D02*
X139020Y288656D01*
X138107Y288278D01*
X137323Y287677D01*
X136722Y286893D01*
X136344Y285980D01*
X136215Y285000D01*
X136344Y284020D01*
X136722Y283107D01*
X137323Y282324D01*
X138107Y281722D01*
X139020Y281344D01*
X140000Y281215D01*
X140980Y281344D01*
X141893Y281722D01*
X142676Y282324D01*
X143278Y283107D01*
X143656Y284020D01*
X143785Y285000D01*
X143656Y285980D01*
X143278Y286893D01*
X142676Y287677D01*
X141893Y288278D01*
X140980Y288656D01*
X140000Y288785D01*
D02*
G37*
G36*
X130000D02*
X129020Y288656D01*
X128107Y288278D01*
X127323Y287677D01*
X126722Y286893D01*
X126344Y285980D01*
X126215Y285000D01*
X126344Y284020D01*
X126722Y283107D01*
X127323Y282324D01*
X128107Y281722D01*
X129020Y281344D01*
X130000Y281215D01*
X130980Y281344D01*
X131893Y281722D01*
X132676Y282324D01*
X133278Y283107D01*
X133656Y284020D01*
X133785Y285000D01*
X133656Y285980D01*
X133278Y286893D01*
X132676Y287677D01*
X131893Y288278D01*
X130980Y288656D01*
X130000Y288785D01*
D02*
G37*
G36*
X213921Y284500D02*
X210500D01*
Y281079D01*
X211032Y281149D01*
X211993Y281547D01*
X212819Y282181D01*
X213453Y283007D01*
X213851Y283968D01*
X213921Y284500D01*
D02*
G37*
G36*
X209500D02*
X206079D01*
X206149Y283968D01*
X206547Y283007D01*
X207181Y282181D01*
X208007Y281547D01*
X208968Y281149D01*
X209500Y281079D01*
Y284500D01*
D02*
G37*
G36*
X456043Y308825D02*
X273000D01*
X272493Y308725D01*
X272063Y308437D01*
X261563Y297937D01*
X261275Y297507D01*
X261175Y297000D01*
Y281049D01*
X253393Y273267D01*
X253000Y273345D01*
X252103Y273167D01*
X251342Y272658D01*
X250833Y271897D01*
X250655Y271000D01*
X250833Y270103D01*
X251342Y269342D01*
X252103Y268833D01*
X253000Y268655D01*
X253897Y268833D01*
X254658Y269342D01*
X255167Y270103D01*
X255345Y271000D01*
X255267Y271392D01*
X263437Y279563D01*
X263725Y279993D01*
X263825Y280500D01*
Y296451D01*
X273549Y306174D01*
X455494D01*
X477351Y284318D01*
X477315Y284231D01*
X477219Y283500D01*
X477315Y282769D01*
X477598Y282088D01*
X478046Y281503D01*
X478631Y281054D01*
X479312Y280772D01*
X480043Y280676D01*
X480774Y280772D01*
X481455Y281054D01*
X482040Y281503D01*
X482489Y282088D01*
X482771Y282769D01*
X482867Y283500D01*
X482771Y284231D01*
X482489Y284912D01*
X482040Y285497D01*
X481455Y285946D01*
X480774Y286228D01*
X480043Y286324D01*
X479312Y286228D01*
X479226Y286192D01*
X456981Y308437D01*
X456551Y308725D01*
X456043Y308825D01*
D02*
G37*
G36*
X472169Y286324D02*
X471438Y286228D01*
X470757Y285946D01*
X470172Y285497D01*
X469724Y284912D01*
X469441Y284231D01*
X469345Y283500D01*
X469441Y282769D01*
X469724Y282088D01*
X470172Y281503D01*
X470757Y281054D01*
X471438Y280772D01*
X472169Y280676D01*
X472900Y280772D01*
X473581Y281054D01*
X474166Y281503D01*
X474615Y282088D01*
X474897Y282769D01*
X474994Y283500D01*
X474897Y284231D01*
X474615Y284912D01*
X474166Y285497D01*
X473581Y285946D01*
X472900Y286228D01*
X472169Y286324D01*
D02*
G37*
G36*
X448547D02*
X447816Y286228D01*
X447135Y285946D01*
X446550Y285497D01*
X446102Y284912D01*
X445819Y284231D01*
X445723Y283500D01*
X445819Y282769D01*
X446102Y282088D01*
X446550Y281503D01*
X447135Y281054D01*
X447816Y280772D01*
X448547Y280676D01*
X449278Y280772D01*
X449959Y281054D01*
X450544Y281503D01*
X450993Y282088D01*
X451275Y282769D01*
X451371Y283500D01*
X451275Y284231D01*
X450993Y284912D01*
X450544Y285497D01*
X449959Y285946D01*
X449278Y286228D01*
X448547Y286324D01*
D02*
G37*
G36*
X440673D02*
X439942Y286228D01*
X439261Y285946D01*
X438676Y285497D01*
X438227Y284912D01*
X437945Y284231D01*
X437849Y283500D01*
X437945Y282769D01*
X438227Y282088D01*
X438676Y281503D01*
X439261Y281054D01*
X439942Y280772D01*
X440673Y280676D01*
X441404Y280772D01*
X442085Y281054D01*
X442670Y281503D01*
X443119Y282088D01*
X443401Y282769D01*
X443497Y283500D01*
X443401Y284231D01*
X443119Y284912D01*
X442670Y285497D01*
X442085Y285946D01*
X441404Y286228D01*
X440673Y286324D01*
D02*
G37*
G36*
X432799D02*
X432068Y286228D01*
X431387Y285946D01*
X430802Y285497D01*
X430353Y284912D01*
X430071Y284231D01*
X429975Y283500D01*
X430071Y282769D01*
X430353Y282088D01*
X430802Y281503D01*
X431387Y281054D01*
X432068Y280772D01*
X432799Y280676D01*
X433530Y280772D01*
X434211Y281054D01*
X434796Y281503D01*
X435245Y282088D01*
X435527Y282769D01*
X435623Y283500D01*
X435527Y284231D01*
X435245Y284912D01*
X434796Y285497D01*
X434211Y285946D01*
X433530Y286228D01*
X432799Y286324D01*
D02*
G37*
G36*
X496791Y286335D02*
X494791D01*
X494089Y286196D01*
X493494Y285798D01*
X493096Y285202D01*
X492956Y284500D01*
Y282500D01*
X493096Y281798D01*
X493494Y281202D01*
X494089Y280804D01*
X494791Y280665D01*
X496791D01*
X497494Y280804D01*
X498089Y281202D01*
X498487Y281798D01*
X498627Y282500D01*
Y284500D01*
X498487Y285202D01*
X498089Y285798D01*
X497494Y286196D01*
X496791Y286335D01*
D02*
G37*
G36*
X427885Y283000D02*
X425425D01*
Y280540D01*
X425708Y280577D01*
X426438Y280879D01*
X427065Y281360D01*
X427546Y281987D01*
X427848Y282717D01*
X427885Y283000D01*
D02*
G37*
G36*
X424425D02*
X421965D01*
X422002Y282717D01*
X422305Y281987D01*
X422786Y281360D01*
X423412Y280879D01*
X424142Y280577D01*
X424425Y280540D01*
Y283000D01*
D02*
G37*
G36*
X319000Y284285D02*
X318020Y284156D01*
X317107Y283778D01*
X316323Y283176D01*
X315722Y282393D01*
X315344Y281480D01*
X315215Y280500D01*
X315344Y279520D01*
X315579Y278953D01*
X300451Y263825D01*
X281880D01*
X281658Y264158D01*
X280897Y264667D01*
X280000Y264845D01*
X279103Y264667D01*
X278342Y264158D01*
X277833Y263397D01*
X277655Y262500D01*
X277833Y261603D01*
X278342Y260842D01*
X279103Y260333D01*
X280000Y260155D01*
X280897Y260333D01*
X281658Y260842D01*
X281880Y261175D01*
X301000D01*
X301507Y261275D01*
X301937Y261563D01*
X317453Y277079D01*
X318020Y276844D01*
X319000Y276715D01*
X319980Y276844D01*
X320893Y277222D01*
X321676Y277823D01*
X322278Y278607D01*
X322656Y279520D01*
X322785Y280500D01*
X322656Y281480D01*
X322278Y282393D01*
X321676Y283176D01*
X320893Y283778D01*
X319980Y284156D01*
X319000Y284285D01*
D02*
G37*
G36*
X309000D02*
X308020Y284156D01*
X307107Y283778D01*
X306324Y283176D01*
X305722Y282393D01*
X305344Y281480D01*
X305215Y280500D01*
X305344Y279520D01*
X305722Y278607D01*
X306324Y277823D01*
X307107Y277222D01*
X308020Y276844D01*
X309000Y276715D01*
X309980Y276844D01*
X310893Y277222D01*
X311677Y277823D01*
X312278Y278607D01*
X312656Y279520D01*
X312785Y280500D01*
X312656Y281480D01*
X312278Y282393D01*
X311677Y283176D01*
X310893Y283778D01*
X309980Y284156D01*
X309000Y284285D01*
D02*
G37*
G36*
X299000D02*
X298020Y284156D01*
X297107Y283778D01*
X296323Y283176D01*
X295722Y282393D01*
X295344Y281480D01*
X295215Y280500D01*
X295344Y279520D01*
X295722Y278607D01*
X296323Y277823D01*
X297107Y277222D01*
X298020Y276844D01*
X299000Y276715D01*
X299980Y276844D01*
X300893Y277222D01*
X301677Y277823D01*
X302278Y278607D01*
X302656Y279520D01*
X302785Y280500D01*
X302656Y281480D01*
X302278Y282393D01*
X301677Y283176D01*
X300893Y283778D01*
X299980Y284156D01*
X299000Y284285D01*
D02*
G37*
G36*
X289000D02*
X288020Y284156D01*
X287107Y283778D01*
X286323Y283176D01*
X285722Y282393D01*
X285344Y281480D01*
X285215Y280500D01*
X285344Y279520D01*
X285722Y278607D01*
X286323Y277823D01*
X287107Y277222D01*
X288020Y276844D01*
X289000Y276715D01*
X289980Y276844D01*
X290893Y277222D01*
X291676Y277823D01*
X292278Y278607D01*
X292656Y279520D01*
X292785Y280500D01*
X292656Y281480D01*
X292278Y282393D01*
X291676Y283176D01*
X290893Y283778D01*
X289980Y284156D01*
X289000Y284285D01*
D02*
G37*
G36*
X373000Y275723D02*
Y272500D01*
X376222D01*
X376159Y272980D01*
X375781Y273894D01*
X375179Y274679D01*
X374394Y275281D01*
X373481Y275659D01*
X373000Y275723D01*
D02*
G37*
G36*
X372000D02*
X371519Y275659D01*
X370606Y275281D01*
X369821Y274679D01*
X369219Y273894D01*
X368841Y272980D01*
X368777Y272500D01*
X372000D01*
Y275723D01*
D02*
G37*
G36*
X342500Y275587D02*
X341572Y275464D01*
X340707Y275106D01*
X339964Y274536D01*
X339394Y273793D01*
X339200Y273325D01*
X328000D01*
X327493Y273225D01*
X327063Y272937D01*
X305047Y250921D01*
X304480Y251156D01*
X303500Y251285D01*
X302520Y251156D01*
X301607Y250778D01*
X300823Y250177D01*
X300222Y249393D01*
X299844Y248480D01*
X299715Y247500D01*
X299844Y246520D01*
X300222Y245607D01*
X300823Y244824D01*
X301607Y244222D01*
X302520Y243844D01*
X303500Y243715D01*
X304480Y243844D01*
X305393Y244222D01*
X306176Y244824D01*
X306778Y245607D01*
X307013Y246175D01*
X312451D01*
X322063Y236563D01*
X322493Y236275D01*
X323000Y236175D01*
X329987D01*
X330222Y235607D01*
X330823Y234823D01*
X331607Y234222D01*
X332520Y233844D01*
X333500Y233715D01*
X334480Y233844D01*
X335393Y234222D01*
X336176Y234823D01*
X336778Y235607D01*
X337013Y236175D01*
X339451D01*
X345175Y230451D01*
Y217049D01*
X337063Y208937D01*
X336775Y208507D01*
X336674Y208000D01*
Y138800D01*
X336207Y138606D01*
X335464Y138036D01*
X334894Y137293D01*
X334536Y136428D01*
X334413Y135500D01*
X334536Y134572D01*
X334894Y133707D01*
X335464Y132964D01*
X336207Y132394D01*
X337072Y132036D01*
X338000Y131913D01*
X338928Y132036D01*
X339793Y132394D01*
X340536Y132964D01*
X341106Y133707D01*
X341464Y134572D01*
X341587Y135500D01*
X341464Y136428D01*
X341106Y137293D01*
X340536Y138036D01*
X339793Y138606D01*
X339325Y138800D01*
Y207451D01*
X347437Y215563D01*
X347725Y215993D01*
X347826Y216500D01*
Y231000D01*
X347725Y231507D01*
X347437Y231937D01*
X340937Y238437D01*
X340507Y238725D01*
X340000Y238825D01*
X337013D01*
X336778Y239393D01*
X336176Y240177D01*
X335393Y240778D01*
X334480Y241156D01*
X333500Y241285D01*
X332520Y241156D01*
X331607Y240778D01*
X330823Y240177D01*
X330222Y239393D01*
X329987Y238825D01*
X323549D01*
X313937Y248437D01*
X313507Y248725D01*
X313000Y248826D01*
X307407D01*
X307200Y249325D01*
X328549Y270674D01*
X339200D01*
X339394Y270207D01*
X339964Y269464D01*
X340707Y268894D01*
X341572Y268536D01*
X342500Y268413D01*
X343428Y268536D01*
X344293Y268894D01*
X345036Y269464D01*
X345606Y270207D01*
X345964Y271072D01*
X346087Y272000D01*
X345964Y272928D01*
X345606Y273793D01*
X345036Y274536D01*
X344293Y275106D01*
X343428Y275464D01*
X342500Y275587D01*
D02*
G37*
G36*
X376222Y271500D02*
X373000D01*
Y268278D01*
X373481Y268341D01*
X374394Y268719D01*
X375179Y269321D01*
X375781Y270106D01*
X376159Y271020D01*
X376222Y271500D01*
D02*
G37*
G36*
X372000D02*
X368777D01*
X368841Y271020D01*
X369219Y270106D01*
X369821Y269321D01*
X370606Y268719D01*
X371519Y268341D01*
X372000Y268278D01*
Y271500D01*
D02*
G37*
G36*
X334000Y251421D02*
Y248000D01*
X337421D01*
X337351Y248532D01*
X336953Y249493D01*
X336319Y250319D01*
X335493Y250953D01*
X334532Y251351D01*
X334000Y251421D01*
D02*
G37*
G36*
X333000D02*
X332468Y251351D01*
X331507Y250953D01*
X330681Y250319D01*
X330047Y249493D01*
X329649Y248532D01*
X329579Y248000D01*
X333000D01*
Y251421D01*
D02*
G37*
G36*
X378753Y253753D02*
X371247D01*
Y246247D01*
X378753D01*
Y253753D01*
D02*
G37*
G36*
X365000Y253785D02*
X364020Y253656D01*
X363107Y253278D01*
X362323Y252677D01*
X361722Y251893D01*
X361344Y250980D01*
X361215Y250000D01*
X361344Y249020D01*
X361579Y248453D01*
X356063Y242937D01*
X355775Y242507D01*
X355675Y242000D01*
Y185721D01*
X355174Y185622D01*
X354937Y186196D01*
X354398Y186898D01*
X353696Y187437D01*
X352878Y187776D01*
X352500Y187825D01*
Y184500D01*
Y181175D01*
X352878Y181224D01*
X353696Y181563D01*
X354398Y182102D01*
X354937Y182804D01*
X355174Y183378D01*
X355675Y183279D01*
Y168228D01*
X355174Y168128D01*
X355106Y168293D01*
X354536Y169036D01*
X353793Y169606D01*
X352928Y169964D01*
X352000Y170087D01*
X351072Y169964D01*
X350207Y169606D01*
X349464Y169036D01*
X348894Y168293D01*
X348536Y167428D01*
X348413Y166500D01*
X348536Y165572D01*
X348894Y164707D01*
X349464Y163964D01*
X350207Y163394D01*
X351072Y163036D01*
X352000Y162913D01*
X352928Y163036D01*
X353793Y163394D01*
X354536Y163964D01*
X355106Y164707D01*
X355174Y164872D01*
X355675Y164772D01*
Y139049D01*
X345951Y129325D01*
X337549D01*
X330267Y136608D01*
X330345Y137000D01*
X330167Y137897D01*
X329658Y138658D01*
X328897Y139167D01*
X328000Y139345D01*
X327103Y139167D01*
X326342Y138658D01*
X325833Y137897D01*
X325655Y137000D01*
X325833Y136103D01*
X326342Y135342D01*
X327103Y134833D01*
X328000Y134655D01*
X328393Y134733D01*
X336063Y127063D01*
X336493Y126775D01*
X337000Y126674D01*
X346500D01*
X347007Y126775D01*
X347437Y127063D01*
X357937Y137563D01*
X358225Y137993D01*
X358326Y138500D01*
Y241451D01*
X363453Y246579D01*
X364020Y246344D01*
X365000Y246215D01*
X365980Y246344D01*
X366893Y246722D01*
X367676Y247323D01*
X368278Y248107D01*
X368656Y249020D01*
X368785Y250000D01*
X368656Y250980D01*
X368278Y251893D01*
X367676Y252677D01*
X366893Y253278D01*
X365980Y253656D01*
X365000Y253785D01*
D02*
G37*
G36*
X337421Y247000D02*
X334000D01*
Y243579D01*
X334532Y243649D01*
X335493Y244047D01*
X336319Y244681D01*
X336953Y245507D01*
X337351Y246468D01*
X337421Y247000D01*
D02*
G37*
G36*
X333000D02*
X329579D01*
X329649Y246468D01*
X330047Y245507D01*
X330681Y244681D01*
X331507Y244047D01*
X332468Y243649D01*
X333000Y243579D01*
Y247000D01*
D02*
G37*
G36*
X152815Y243345D02*
X151918Y243167D01*
X151157Y242658D01*
X150648Y241897D01*
X150470Y241000D01*
X150548Y240608D01*
X144063Y234122D01*
X143775Y233692D01*
X143675Y233185D01*
Y127197D01*
X143175Y127027D01*
X142676Y127676D01*
X141893Y128278D01*
X140980Y128656D01*
X140000Y128785D01*
X139020Y128656D01*
X138107Y128278D01*
X137323Y127676D01*
X136722Y126893D01*
X136344Y125980D01*
X136215Y125000D01*
X136344Y124020D01*
X136722Y123107D01*
X137323Y122324D01*
X138107Y121722D01*
X139020Y121344D01*
X140000Y121215D01*
X140980Y121344D01*
X141893Y121722D01*
X142676Y122324D01*
X143175Y122973D01*
X143675Y122803D01*
Y117197D01*
X143175Y117027D01*
X142676Y117676D01*
X141893Y118278D01*
X140980Y118656D01*
X140000Y118785D01*
X139020Y118656D01*
X138107Y118278D01*
X137323Y117676D01*
X136722Y116893D01*
X136344Y115980D01*
X136215Y115000D01*
X136344Y114020D01*
X136722Y113107D01*
X137323Y112323D01*
X138107Y111722D01*
X139020Y111344D01*
X140000Y111215D01*
X140980Y111344D01*
X141893Y111722D01*
X142676Y112323D01*
X143250Y113071D01*
X143404Y113080D01*
X143774Y112999D01*
X143775Y112993D01*
X144063Y112563D01*
X147563Y109063D01*
X147993Y108775D01*
X148500Y108675D01*
X212500D01*
X213007Y108775D01*
X213437Y109063D01*
X215937Y111563D01*
X216225Y111993D01*
X216321Y112480D01*
X216379Y112515D01*
X216826Y112644D01*
X217181Y112181D01*
X218007Y111547D01*
X218968Y111149D01*
X219500Y111079D01*
Y115000D01*
Y118921D01*
X218968Y118851D01*
X218007Y118453D01*
X217181Y117819D01*
X216826Y117356D01*
X216325Y117526D01*
Y119451D01*
X218122Y121247D01*
X223753D01*
Y128753D01*
X216247D01*
Y123122D01*
X214063Y120937D01*
X213775Y120507D01*
X213674Y120000D01*
Y117197D01*
X213175Y117027D01*
X212677Y117676D01*
X211893Y118278D01*
X210980Y118656D01*
X210000Y118785D01*
X209020Y118656D01*
X208107Y118278D01*
X207324Y117676D01*
X206722Y116893D01*
X206344Y115980D01*
X206215Y115000D01*
X206344Y114020D01*
X206722Y113107D01*
X207324Y112323D01*
X207973Y111826D01*
X207803Y111326D01*
X202197D01*
X202027Y111826D01*
X202677Y112323D01*
X203278Y113107D01*
X203656Y114020D01*
X203785Y115000D01*
X203656Y115980D01*
X203278Y116893D01*
X202677Y117676D01*
X201893Y118278D01*
X200980Y118656D01*
X200000Y118785D01*
X199020Y118656D01*
X198107Y118278D01*
X197324Y117676D01*
X196722Y116893D01*
X196344Y115980D01*
X196215Y115000D01*
X196344Y114020D01*
X196722Y113107D01*
X197324Y112323D01*
X197973Y111826D01*
X197803Y111326D01*
X192197D01*
X192027Y111826D01*
X192676Y112323D01*
X193278Y113107D01*
X193656Y114020D01*
X193785Y115000D01*
X193656Y115980D01*
X193278Y116893D01*
X192676Y117676D01*
X191893Y118278D01*
X190980Y118656D01*
X190000Y118785D01*
X189020Y118656D01*
X188107Y118278D01*
X187323Y117676D01*
X186722Y116893D01*
X186344Y115980D01*
X186215Y115000D01*
X186344Y114020D01*
X186722Y113107D01*
X187323Y112323D01*
X187973Y111826D01*
X187803Y111326D01*
X182197D01*
X182027Y111826D01*
X182676Y112323D01*
X183278Y113107D01*
X183656Y114020D01*
X183785Y115000D01*
X183656Y115980D01*
X183278Y116893D01*
X182676Y117676D01*
X181893Y118278D01*
X180980Y118656D01*
X180000Y118785D01*
X179020Y118656D01*
X178107Y118278D01*
X177323Y117676D01*
X176722Y116893D01*
X176344Y115980D01*
X176215Y115000D01*
X176344Y114020D01*
X176722Y113107D01*
X177323Y112323D01*
X177973Y111826D01*
X177803Y111326D01*
X172197D01*
X172027Y111826D01*
X172677Y112323D01*
X173278Y113107D01*
X173656Y114020D01*
X173785Y115000D01*
X173656Y115980D01*
X173278Y116893D01*
X172677Y117676D01*
X171893Y118278D01*
X170980Y118656D01*
X170000Y118785D01*
X169020Y118656D01*
X168107Y118278D01*
X167324Y117676D01*
X166722Y116893D01*
X166344Y115980D01*
X166215Y115000D01*
X166344Y114020D01*
X166722Y113107D01*
X167324Y112323D01*
X167973Y111826D01*
X167803Y111326D01*
X162197D01*
X162027Y111826D01*
X162677Y112323D01*
X163278Y113107D01*
X163656Y114020D01*
X163785Y115000D01*
X163656Y115980D01*
X163278Y116893D01*
X162677Y117676D01*
X161893Y118278D01*
X160980Y118656D01*
X160000Y118785D01*
X159020Y118656D01*
X158107Y118278D01*
X157324Y117676D01*
X156722Y116893D01*
X156344Y115980D01*
X156215Y115000D01*
X156344Y114020D01*
X156722Y113107D01*
X157324Y112323D01*
X157973Y111826D01*
X157803Y111326D01*
X152197D01*
X152027Y111826D01*
X152676Y112323D01*
X153278Y113107D01*
X153656Y114020D01*
X153785Y115000D01*
X153656Y115980D01*
X153278Y116893D01*
X152676Y117676D01*
X151893Y118278D01*
X150980Y118656D01*
X150000Y118785D01*
X149020Y118656D01*
X148107Y118278D01*
X147324Y117676D01*
X146826Y117027D01*
X146326Y117197D01*
Y122803D01*
X146826Y122973D01*
X147324Y122324D01*
X148107Y121722D01*
X149020Y121344D01*
X150000Y121215D01*
X150980Y121344D01*
X151893Y121722D01*
X152676Y122324D01*
X153278Y123107D01*
X153656Y124020D01*
X153785Y125000D01*
X153656Y125980D01*
X153278Y126893D01*
X152676Y127676D01*
X151893Y128278D01*
X150980Y128656D01*
X150000Y128785D01*
X149020Y128656D01*
X148107Y128278D01*
X147324Y127676D01*
X146826Y127027D01*
X146326Y127197D01*
Y232636D01*
X152422Y238733D01*
X152815Y238655D01*
X153712Y238833D01*
X154473Y239342D01*
X154982Y240103D01*
X155160Y241000D01*
X154982Y241897D01*
X154473Y242658D01*
X153712Y243167D01*
X152815Y243345D01*
D02*
G37*
G36*
X303500Y241285D02*
X302520Y241156D01*
X301607Y240778D01*
X300823Y240177D01*
X300222Y239393D01*
X299844Y238480D01*
X299715Y237500D01*
X299844Y236520D01*
X300222Y235607D01*
X300823Y234823D01*
X301607Y234222D01*
X302520Y233844D01*
X303500Y233715D01*
X304480Y233844D01*
X305393Y234222D01*
X306176Y234823D01*
X306778Y235607D01*
X307156Y236520D01*
X307285Y237500D01*
X307156Y238480D01*
X306778Y239393D01*
X306176Y240177D01*
X305393Y240778D01*
X304480Y241156D01*
X303500Y241285D01*
D02*
G37*
G36*
X369453Y230953D02*
X366000D01*
Y227500D01*
X369453D01*
Y230953D01*
D02*
G37*
G36*
X365000D02*
X361547D01*
Y227500D01*
X365000D01*
Y230953D01*
D02*
G37*
G36*
X333500Y231285D02*
X332520Y231156D01*
X331607Y230778D01*
X330823Y230176D01*
X330222Y229393D01*
X329987Y228825D01*
X323500D01*
X322993Y228725D01*
X322563Y228437D01*
X310563Y216437D01*
X310275Y216007D01*
X310174Y215500D01*
Y186549D01*
X294063Y170437D01*
X293775Y170007D01*
X293674Y169500D01*
Y169407D01*
X293175Y169357D01*
X293167Y169397D01*
X292658Y170158D01*
X291897Y170667D01*
X291000Y170845D01*
X290103Y170667D01*
X289342Y170158D01*
X288833Y169397D01*
X288655Y168500D01*
X288833Y167603D01*
X289342Y166842D01*
X289674Y166620D01*
Y124000D01*
X289775Y123493D01*
X290063Y123063D01*
X296079Y117047D01*
X295844Y116480D01*
X295715Y115500D01*
X295844Y114520D01*
X296222Y113607D01*
X296824Y112823D01*
X297607Y112222D01*
X298520Y111844D01*
X299500Y111715D01*
X300480Y111844D01*
X301393Y112222D01*
X302176Y112823D01*
X302778Y113607D01*
X303156Y114520D01*
X303285Y115500D01*
X303156Y116480D01*
X302778Y117393D01*
X302176Y118176D01*
X301393Y118778D01*
X300480Y119156D01*
X299500Y119285D01*
X298520Y119156D01*
X297953Y118921D01*
X292325Y124549D01*
Y166620D01*
X292658Y166842D01*
X293167Y167603D01*
X293175Y167643D01*
X293674Y167593D01*
Y142500D01*
X293775Y141993D01*
X294063Y141563D01*
X296079Y139547D01*
X295844Y138980D01*
X295715Y138000D01*
X295844Y137020D01*
X296222Y136107D01*
X296824Y135324D01*
X297607Y134722D01*
X298520Y134344D01*
X299500Y134215D01*
X300480Y134344D01*
X301047Y134579D01*
X305063Y130563D01*
X305493Y130275D01*
X306000Y130175D01*
X322951D01*
X323458Y129668D01*
X323166Y129253D01*
X322789Y129253D01*
X315747D01*
Y121747D01*
X323253D01*
Y128761D01*
X323253Y129166D01*
X323668Y129458D01*
X330063Y123063D01*
X330493Y122775D01*
X331000Y122675D01*
X351212D01*
X351309Y122197D01*
X350635Y121918D01*
X350057Y121475D01*
X349613Y120896D01*
X349334Y120223D01*
X349239Y119500D01*
X349334Y118777D01*
X349613Y118104D01*
X350057Y117525D01*
X350331Y117315D01*
Y116685D01*
X350057Y116474D01*
X349613Y115896D01*
X349334Y115223D01*
X349239Y114500D01*
X349334Y113777D01*
X349613Y113104D01*
X350057Y112525D01*
X350331Y112315D01*
Y111685D01*
X350057Y111475D01*
X349613Y110896D01*
X349334Y110223D01*
X349239Y109500D01*
X349334Y108777D01*
X349613Y108104D01*
X350057Y107526D01*
X350635Y107082D01*
X351309Y106803D01*
X352031Y106708D01*
X355968D01*
X356691Y106803D01*
X357365Y107082D01*
X357943Y107526D01*
X358387Y108104D01*
X358666Y108777D01*
X358761Y109500D01*
X358666Y110223D01*
X358387Y110896D01*
X357943Y111475D01*
X357669Y111685D01*
Y112315D01*
X357943Y112525D01*
X358387Y113104D01*
X358666Y113777D01*
X358761Y114500D01*
X358666Y115223D01*
X358387Y115896D01*
X357943Y116474D01*
X357669Y116685D01*
Y117315D01*
X357943Y117525D01*
X358387Y118104D01*
X358666Y118777D01*
X358761Y119500D01*
X358666Y120223D01*
X358387Y120896D01*
X357943Y121475D01*
X357365Y121918D01*
X356691Y122197D01*
X356788Y122675D01*
X371951D01*
X373063Y121563D01*
X373057Y121475D01*
X372613Y120896D01*
X372334Y120223D01*
X372239Y119500D01*
X372334Y118777D01*
X372613Y118104D01*
X373057Y117525D01*
X373331Y117315D01*
Y116685D01*
X373057Y116474D01*
X372613Y115896D01*
X372334Y115223D01*
X372239Y114500D01*
X372334Y113777D01*
X372613Y113104D01*
X373057Y112525D01*
X373331Y112315D01*
Y111685D01*
X373057Y111475D01*
X372613Y110896D01*
X372334Y110223D01*
X372239Y109500D01*
X372334Y108777D01*
X372613Y108104D01*
X373057Y107526D01*
X373635Y107082D01*
X374309Y106803D01*
X375031Y106708D01*
X378969D01*
X379691Y106803D01*
X380365Y107082D01*
X380943Y107526D01*
X381387Y108104D01*
X381666Y108777D01*
X381761Y109500D01*
X381666Y110223D01*
X381387Y110896D01*
X380943Y111475D01*
X380669Y111685D01*
Y112315D01*
X380943Y112525D01*
X381387Y113104D01*
X381416Y113174D01*
X385000D01*
X385507Y113275D01*
X385937Y113563D01*
X391937Y119563D01*
X392225Y119993D01*
X392325Y120500D01*
Y128000D01*
X392325Y128000D01*
X392225Y128507D01*
X391937Y128937D01*
X369437Y151437D01*
X369007Y151725D01*
X368500Y151825D01*
X366381D01*
X366158Y152158D01*
X365397Y152667D01*
X364500Y152845D01*
X363603Y152667D01*
X362842Y152158D01*
X362333Y151397D01*
X362155Y150500D01*
X362333Y149603D01*
X362842Y148842D01*
X363603Y148333D01*
X364500Y148155D01*
X365397Y148333D01*
X366158Y148842D01*
X366381Y149174D01*
X367951D01*
X389674Y127451D01*
Y121049D01*
X384451Y115825D01*
X381416D01*
X381387Y115896D01*
X380943Y116474D01*
X380669Y116685D01*
Y117315D01*
X380943Y117525D01*
X381387Y118104D01*
X381666Y118777D01*
X381761Y119500D01*
X381666Y120223D01*
X381387Y120896D01*
X380943Y121475D01*
X380365Y121918D01*
X379691Y122197D01*
X378969Y122292D01*
X376082D01*
X373437Y124937D01*
X373007Y125225D01*
X372500Y125326D01*
X331549D01*
X324437Y132437D01*
X324007Y132725D01*
X323500Y132826D01*
X306549D01*
X302921Y136453D01*
X303156Y137020D01*
X303285Y138000D01*
X303156Y138980D01*
X302778Y139893D01*
X302176Y140676D01*
X301393Y141278D01*
X300480Y141656D01*
X299500Y141785D01*
X298520Y141656D01*
X297953Y141421D01*
X296325Y143049D01*
Y168951D01*
X312437Y185063D01*
X312725Y185493D01*
X312825Y186000D01*
Y214951D01*
X324049Y226174D01*
X329987D01*
X330222Y225607D01*
X330823Y224823D01*
X331607Y224222D01*
X332520Y223844D01*
X333500Y223715D01*
X334480Y223844D01*
X335393Y224222D01*
X336176Y224823D01*
X336778Y225607D01*
X337156Y226520D01*
X337285Y227500D01*
X337156Y228480D01*
X336778Y229393D01*
X336176Y230176D01*
X335393Y230778D01*
X334480Y231156D01*
X333500Y231285D01*
D02*
G37*
G36*
X303500D02*
X302520Y231156D01*
X301607Y230778D01*
X300823Y230176D01*
X300222Y229393D01*
X299844Y228480D01*
X299715Y227500D01*
X299844Y226520D01*
X300222Y225607D01*
X300823Y224823D01*
X301607Y224222D01*
X302520Y223844D01*
X303500Y223715D01*
X304480Y223844D01*
X305393Y224222D01*
X306176Y224823D01*
X306778Y225607D01*
X307156Y226520D01*
X307285Y227500D01*
X307156Y228480D01*
X306778Y229393D01*
X306176Y230176D01*
X305393Y230778D01*
X304480Y231156D01*
X303500Y231285D01*
D02*
G37*
G36*
X375500Y230785D02*
X374520Y230656D01*
X373607Y230278D01*
X372824Y229677D01*
X372222Y228893D01*
X371844Y227980D01*
X371715Y227000D01*
X371844Y226020D01*
X372222Y225107D01*
X372824Y224324D01*
X373607Y223722D01*
X374520Y223344D01*
X375500Y223215D01*
X376480Y223344D01*
X377393Y223722D01*
X378176Y224324D01*
X378778Y225107D01*
X379156Y226020D01*
X379285Y227000D01*
X379156Y227980D01*
X378778Y228893D01*
X378176Y229677D01*
X377393Y230278D01*
X376480Y230656D01*
X375500Y230785D01*
D02*
G37*
G36*
X369453Y226500D02*
X366000D01*
Y223047D01*
X369453D01*
Y226500D01*
D02*
G37*
G36*
X365000D02*
X361547D01*
Y223047D01*
X365000D01*
Y226500D01*
D02*
G37*
G36*
X303500Y221285D02*
X302520Y221156D01*
X301607Y220778D01*
X300823Y220177D01*
X300222Y219393D01*
X299987Y218826D01*
X288500D01*
X287993Y218725D01*
X287563Y218437D01*
X257063Y187937D01*
X256775Y187507D01*
X256675Y187000D01*
Y141750D01*
X253000D01*
Y137500D01*
Y133250D01*
X256750D01*
Y134168D01*
X257250Y134376D01*
X274247Y117378D01*
Y111747D01*
X279878D01*
X287063Y104563D01*
X287493Y104275D01*
X288000Y104174D01*
X334093D01*
X334300Y103674D01*
X332563Y101937D01*
X332275Y101507D01*
X332174Y101000D01*
Y96300D01*
X331707Y96106D01*
X330964Y95536D01*
X330394Y94793D01*
X330036Y93928D01*
X329913Y93000D01*
X330036Y92072D01*
X330394Y91207D01*
X330964Y90464D01*
X331707Y89894D01*
X332572Y89536D01*
X333500Y89413D01*
X334428Y89536D01*
X335293Y89894D01*
X336036Y90464D01*
X336606Y91207D01*
X336964Y92072D01*
X337087Y93000D01*
X336964Y93928D01*
X336606Y94793D01*
X336036Y95536D01*
X335293Y96106D01*
X334825Y96300D01*
Y100451D01*
X336604Y102229D01*
X337072Y102036D01*
X338000Y101913D01*
X338928Y102036D01*
X339793Y102394D01*
X340536Y102964D01*
X341106Y103707D01*
X341464Y104572D01*
X341587Y105500D01*
X341464Y106428D01*
X341106Y107293D01*
X340536Y108036D01*
X339793Y108606D01*
X338928Y108964D01*
X338000Y109087D01*
X337072Y108964D01*
X336207Y108606D01*
X335464Y108036D01*
X334894Y107293D01*
X334700Y106825D01*
X288549D01*
X281753Y113622D01*
Y119253D01*
X276122D01*
X262415Y132960D01*
X262647Y133434D01*
X263557Y133554D01*
X264543Y133962D01*
X265388Y134611D01*
X266038Y135458D01*
X266446Y136443D01*
X266585Y137500D01*
X266446Y138557D01*
X266038Y139542D01*
X265388Y140389D01*
X264543Y141038D01*
X263557Y141446D01*
X262500Y141585D01*
X261443Y141446D01*
X260457Y141038D01*
X259825Y140553D01*
X259326Y140799D01*
Y186451D01*
X289049Y216175D01*
X299987D01*
X300222Y215607D01*
X300823Y214824D01*
X301607Y214222D01*
X302520Y213844D01*
X303500Y213715D01*
X304480Y213844D01*
X305393Y214222D01*
X306176Y214824D01*
X306778Y215607D01*
X307156Y216520D01*
X307285Y217500D01*
X307156Y218480D01*
X306778Y219393D01*
X306176Y220177D01*
X305393Y220778D01*
X304480Y221156D01*
X303500Y221285D01*
D02*
G37*
G36*
X352000Y212325D02*
Y209500D01*
X354825D01*
X354776Y209878D01*
X354437Y210696D01*
X353898Y211398D01*
X353196Y211937D01*
X352378Y212276D01*
X352000Y212325D01*
D02*
G37*
G36*
X351000D02*
X350622Y212276D01*
X349804Y211937D01*
X349102Y211398D01*
X348563Y210696D01*
X348224Y209878D01*
X348175Y209500D01*
X351000D01*
Y212325D01*
D02*
G37*
G36*
X381500Y212190D02*
X380675Y212081D01*
X379905Y211762D01*
X379245Y211255D01*
X378738Y210595D01*
X378419Y209825D01*
X378310Y209000D01*
X378419Y208174D01*
X378531Y207905D01*
X362563Y191937D01*
X362275Y191507D01*
X362175Y191000D01*
Y185880D01*
X361842Y185658D01*
X361333Y184897D01*
X361155Y184000D01*
X361333Y183103D01*
X361842Y182342D01*
X362603Y181833D01*
X363500Y181655D01*
X364397Y181833D01*
X365158Y182342D01*
X365667Y183103D01*
X365845Y184000D01*
X365667Y184897D01*
X365158Y185658D01*
X364826Y185880D01*
Y190451D01*
X380405Y206031D01*
X380675Y205919D01*
X381500Y205810D01*
X382326Y205919D01*
X383095Y206238D01*
X383755Y206745D01*
X384262Y207405D01*
X384581Y208174D01*
X384689Y209000D01*
X384581Y209825D01*
X384262Y210595D01*
X383755Y211255D01*
X383095Y211762D01*
X382326Y212081D01*
X381500Y212190D01*
D02*
G37*
G36*
X354825Y208500D02*
X352000D01*
Y205675D01*
X352378Y205724D01*
X353196Y206063D01*
X353898Y206602D01*
X354437Y207304D01*
X354776Y208122D01*
X354825Y208500D01*
D02*
G37*
G36*
X351000D02*
X348175D01*
X348224Y208122D01*
X348563Y207304D01*
X349102Y206602D01*
X349804Y206063D01*
X350622Y205724D01*
X351000Y205675D01*
Y208500D01*
D02*
G37*
G36*
X231000Y252845D02*
X230103Y252667D01*
X229342Y252158D01*
X228833Y251397D01*
X228655Y250500D01*
X228833Y249603D01*
X229342Y248842D01*
X229675Y248620D01*
Y226000D01*
X229775Y225493D01*
X230063Y225063D01*
X248733Y206393D01*
X248655Y206000D01*
X248833Y205103D01*
X249342Y204342D01*
X250103Y203833D01*
X251000Y203655D01*
X251897Y203833D01*
X252658Y204342D01*
X253167Y205103D01*
X253345Y206000D01*
X253167Y206897D01*
X252658Y207658D01*
X251897Y208167D01*
X251000Y208345D01*
X250607Y208267D01*
X232326Y226549D01*
Y248620D01*
X232658Y248842D01*
X233167Y249603D01*
X233345Y250500D01*
X233167Y251397D01*
X232658Y252158D01*
X231897Y252667D01*
X231000Y252845D01*
D02*
G37*
G36*
X319500Y205218D02*
X318520Y205089D01*
X317607Y204711D01*
X316824Y204110D01*
X316222Y203326D01*
X315844Y202413D01*
X315715Y201433D01*
X315844Y200453D01*
X316222Y199540D01*
X316824Y198757D01*
X317607Y198155D01*
X318520Y197777D01*
X319500Y197648D01*
X320480Y197777D01*
X321393Y198155D01*
X322177Y198757D01*
X322778Y199540D01*
X323156Y200453D01*
X323285Y201433D01*
X323156Y202413D01*
X322778Y203326D01*
X322177Y204110D01*
X321393Y204711D01*
X320480Y205089D01*
X319500Y205218D01*
D02*
G37*
G36*
X302500D02*
X301520Y205089D01*
X300607Y204711D01*
X299823Y204110D01*
X299222Y203326D01*
X298844Y202413D01*
X298715Y201433D01*
X298844Y200453D01*
X299222Y199540D01*
X299823Y198757D01*
X300607Y198155D01*
X301520Y197777D01*
X302500Y197648D01*
X303480Y197777D01*
X304393Y198155D01*
X305176Y198757D01*
X305778Y199540D01*
X306156Y200453D01*
X306285Y201433D01*
X306156Y202413D01*
X305778Y203326D01*
X305176Y204110D01*
X304393Y204711D01*
X303480Y205089D01*
X302500Y205218D01*
D02*
G37*
G36*
X495791Y199710D02*
X495060Y199614D01*
X494379Y199332D01*
X493794Y198883D01*
X493346Y198298D01*
X493063Y197617D01*
X492967Y196886D01*
X493063Y196155D01*
X493346Y195474D01*
X493794Y194889D01*
X494379Y194440D01*
X495060Y194158D01*
X495791Y194062D01*
X496522Y194158D01*
X497203Y194440D01*
X497788Y194889D01*
X498237Y195474D01*
X498519Y196155D01*
X498616Y196886D01*
X498519Y197617D01*
X498237Y198298D01*
X497788Y198883D01*
X497203Y199332D01*
X496522Y199614D01*
X495791Y199710D01*
D02*
G37*
G36*
X487917D02*
X487186Y199614D01*
X486505Y199332D01*
X485920Y198883D01*
X485471Y198298D01*
X485189Y197617D01*
X485093Y196886D01*
X485189Y196155D01*
X485471Y195474D01*
X485920Y194889D01*
X486505Y194440D01*
X487186Y194158D01*
X487917Y194062D01*
X488648Y194158D01*
X489329Y194440D01*
X489914Y194889D01*
X490363Y195474D01*
X490645Y196155D01*
X490741Y196886D01*
X490645Y197617D01*
X490363Y198298D01*
X489914Y198883D01*
X489329Y199332D01*
X488648Y199614D01*
X487917Y199710D01*
D02*
G37*
G36*
X480043D02*
X479312Y199614D01*
X478631Y199332D01*
X478046Y198883D01*
X477598Y198298D01*
X477315Y197617D01*
X477219Y196886D01*
X477315Y196155D01*
X477598Y195474D01*
X478046Y194889D01*
X478631Y194440D01*
X479312Y194158D01*
X480043Y194062D01*
X480774Y194158D01*
X481455Y194440D01*
X482040Y194889D01*
X482489Y195474D01*
X482771Y196155D01*
X482867Y196886D01*
X482771Y197617D01*
X482489Y198298D01*
X482040Y198883D01*
X481455Y199332D01*
X480774Y199614D01*
X480043Y199710D01*
D02*
G37*
G36*
X472169D02*
X471438Y199614D01*
X470757Y199332D01*
X470172Y198883D01*
X469724Y198298D01*
X469441Y197617D01*
X469345Y196886D01*
X469441Y196155D01*
X469724Y195474D01*
X470172Y194889D01*
X470757Y194440D01*
X471438Y194158D01*
X472169Y194062D01*
X472900Y194158D01*
X473581Y194440D01*
X474166Y194889D01*
X474615Y195474D01*
X474897Y196155D01*
X474994Y196886D01*
X474897Y197617D01*
X474615Y198298D01*
X474166Y198883D01*
X473581Y199332D01*
X472900Y199614D01*
X472169Y199710D01*
D02*
G37*
G36*
X464295D02*
X463564Y199614D01*
X462883Y199332D01*
X462298Y198883D01*
X461849Y198298D01*
X461567Y197617D01*
X461471Y196886D01*
X461567Y196155D01*
X461849Y195474D01*
X462298Y194889D01*
X462883Y194440D01*
X463564Y194158D01*
X464295Y194062D01*
X465026Y194158D01*
X465707Y194440D01*
X466292Y194889D01*
X466741Y195474D01*
X467023Y196155D01*
X467119Y196886D01*
X467023Y197617D01*
X466741Y198298D01*
X466292Y198883D01*
X465707Y199332D01*
X465026Y199614D01*
X464295Y199710D01*
D02*
G37*
G36*
X456421D02*
X455690Y199614D01*
X455009Y199332D01*
X454424Y198883D01*
X453975Y198298D01*
X453693Y197617D01*
X453597Y196886D01*
X453693Y196155D01*
X453975Y195474D01*
X454424Y194889D01*
X455009Y194440D01*
X455690Y194158D01*
X456421Y194062D01*
X457152Y194158D01*
X457833Y194440D01*
X458418Y194889D01*
X458867Y195474D01*
X459149Y196155D01*
X459245Y196886D01*
X459149Y197617D01*
X458867Y198298D01*
X458418Y198883D01*
X457833Y199332D01*
X457152Y199614D01*
X456421Y199710D01*
D02*
G37*
G36*
X448547D02*
X447816Y199614D01*
X447135Y199332D01*
X446550Y198883D01*
X446102Y198298D01*
X445819Y197617D01*
X445723Y196886D01*
X445819Y196155D01*
X446102Y195474D01*
X446550Y194889D01*
X447135Y194440D01*
X447816Y194158D01*
X448547Y194062D01*
X449278Y194158D01*
X449959Y194440D01*
X450544Y194889D01*
X450993Y195474D01*
X451275Y196155D01*
X451371Y196886D01*
X451275Y197617D01*
X450993Y198298D01*
X450544Y198883D01*
X449959Y199332D01*
X449278Y199614D01*
X448547Y199710D01*
D02*
G37*
G36*
X440673D02*
X439942Y199614D01*
X439261Y199332D01*
X438676Y198883D01*
X438227Y198298D01*
X437945Y197617D01*
X437849Y196886D01*
X437945Y196155D01*
X438227Y195474D01*
X438676Y194889D01*
X439261Y194440D01*
X439942Y194158D01*
X440673Y194062D01*
X441404Y194158D01*
X442085Y194440D01*
X442670Y194889D01*
X443119Y195474D01*
X443401Y196155D01*
X443497Y196886D01*
X443401Y197617D01*
X443119Y198298D01*
X442670Y198883D01*
X442085Y199332D01*
X441404Y199614D01*
X440673Y199710D01*
D02*
G37*
G36*
X432799D02*
X432068Y199614D01*
X431387Y199332D01*
X430802Y198883D01*
X430353Y198298D01*
X430071Y197617D01*
X429975Y196886D01*
X430071Y196155D01*
X430353Y195474D01*
X430802Y194889D01*
X431387Y194440D01*
X432068Y194158D01*
X432799Y194062D01*
X433530Y194158D01*
X434211Y194440D01*
X434796Y194889D01*
X435245Y195474D01*
X435527Y196155D01*
X435623Y196886D01*
X435527Y197617D01*
X435245Y198298D01*
X434796Y198883D01*
X434211Y199332D01*
X433530Y199614D01*
X432799Y199710D01*
D02*
G37*
G36*
X424925D02*
X424194Y199614D01*
X423513Y199332D01*
X422928Y198883D01*
X422479Y198298D01*
X422197Y197617D01*
X422101Y196886D01*
X422197Y196155D01*
X422479Y195474D01*
X422928Y194889D01*
X423513Y194440D01*
X424194Y194158D01*
X424925Y194062D01*
X425656Y194158D01*
X426337Y194440D01*
X426922Y194889D01*
X427371Y195474D01*
X427653Y196155D01*
X427749Y196886D01*
X427653Y197617D01*
X427371Y198298D01*
X426922Y198883D01*
X426337Y199332D01*
X425656Y199614D01*
X424925Y199710D01*
D02*
G37*
G36*
X303500Y193345D02*
X302603Y193167D01*
X301842Y192658D01*
X301333Y191897D01*
X301155Y191000D01*
X301233Y190608D01*
X290951Y180325D01*
X275939D01*
X275622Y181091D01*
X274957Y181957D01*
X274091Y182622D01*
X273082Y183040D01*
X272000Y183182D01*
X270918Y183040D01*
X269909Y182622D01*
X269043Y181957D01*
X268378Y181091D01*
X267960Y180082D01*
X267818Y179000D01*
X267960Y177918D01*
X268378Y176909D01*
X269043Y176043D01*
X269909Y175378D01*
X270918Y174960D01*
X272000Y174818D01*
X273082Y174960D01*
X274091Y175378D01*
X274957Y176043D01*
X275622Y176909D01*
X275939Y177674D01*
X291500D01*
X292007Y177775D01*
X292437Y178063D01*
X303108Y188733D01*
X303500Y188655D01*
X304397Y188833D01*
X305158Y189342D01*
X305667Y190103D01*
X305845Y191000D01*
X305667Y191897D01*
X305158Y192658D01*
X304397Y193167D01*
X303500Y193345D01*
D02*
G37*
G36*
X351500Y187825D02*
X351122Y187776D01*
X350304Y187437D01*
X349602Y186898D01*
X349063Y186196D01*
X348724Y185378D01*
X348675Y185000D01*
X351500D01*
Y187825D01*
D02*
G37*
G36*
X272000Y193182D02*
X270918Y193040D01*
X269909Y192622D01*
X269043Y191957D01*
X268378Y191091D01*
X267960Y190082D01*
X267818Y189000D01*
X267960Y187918D01*
X268378Y186909D01*
X269043Y186043D01*
X269909Y185378D01*
X270918Y184960D01*
X272000Y184818D01*
X273082Y184960D01*
X274091Y185378D01*
X274957Y186043D01*
X275622Y186909D01*
X276040Y187918D01*
X276182Y189000D01*
X276040Y190082D01*
X275622Y191091D01*
X274957Y191957D01*
X274091Y192622D01*
X273082Y193040D01*
X272000Y193182D01*
D02*
G37*
G36*
X382000Y187689D02*
X381174Y187581D01*
X380405Y187262D01*
X379745Y186755D01*
X379238Y186095D01*
X378919Y185326D01*
X378811Y184500D01*
X378919Y183675D01*
X379238Y182905D01*
X379745Y182245D01*
X380405Y181738D01*
X381174Y181419D01*
X382000Y181310D01*
X382825Y181419D01*
X383595Y181738D01*
X384255Y182245D01*
X384762Y182905D01*
X385081Y183675D01*
X385190Y184500D01*
X385081Y185326D01*
X384762Y186095D01*
X384255Y186755D01*
X383595Y187262D01*
X382825Y187581D01*
X382000Y187689D01*
D02*
G37*
G36*
X351500Y184000D02*
X348675D01*
X348724Y183622D01*
X349063Y182804D01*
X349602Y182102D01*
X350304Y181563D01*
X351122Y181224D01*
X351500Y181175D01*
Y184000D01*
D02*
G37*
G36*
X337253Y221253D02*
X329747D01*
Y215622D01*
X329063Y214937D01*
X328775Y214507D01*
X328675Y214000D01*
Y184380D01*
X328342Y184158D01*
X327833Y183397D01*
X327655Y182500D01*
X327833Y181603D01*
X328342Y180842D01*
X329103Y180333D01*
X330000Y180155D01*
X330897Y180333D01*
X331658Y180842D01*
X332167Y181603D01*
X332345Y182500D01*
X332167Y183397D01*
X331658Y184158D01*
X331326Y184380D01*
Y213451D01*
X331622Y213747D01*
X337253D01*
Y221253D01*
D02*
G37*
G36*
X276346Y173346D02*
X272500D01*
Y169500D01*
X276346D01*
Y173346D01*
D02*
G37*
G36*
X271500D02*
X267653D01*
Y169500D01*
X271500D01*
Y173346D01*
D02*
G37*
G36*
X276346Y168500D02*
X272500D01*
Y164654D01*
X276346D01*
Y168500D01*
D02*
G37*
G36*
X271500D02*
X267653D01*
Y164654D01*
X271500D01*
Y168500D01*
D02*
G37*
G36*
X382000Y170087D02*
X381072Y169964D01*
X380207Y169606D01*
X379464Y169036D01*
X378894Y168293D01*
X378536Y167428D01*
X378413Y166500D01*
X378536Y165572D01*
X378894Y164707D01*
X379464Y163964D01*
X380207Y163394D01*
X381072Y163036D01*
X382000Y162913D01*
X382928Y163036D01*
X383793Y163394D01*
X384536Y163964D01*
X385106Y164707D01*
X385464Y165572D01*
X385587Y166500D01*
X385464Y167428D01*
X385106Y168293D01*
X384536Y169036D01*
X383793Y169606D01*
X382928Y169964D01*
X382000Y170087D01*
D02*
G37*
G36*
X190000Y288785D02*
X189020Y288656D01*
X188107Y288278D01*
X187323Y287677D01*
X186722Y286893D01*
X186344Y285980D01*
X186215Y285000D01*
X186344Y284020D01*
X186722Y283107D01*
X187323Y282324D01*
X188107Y281722D01*
X189020Y281344D01*
X190000Y281215D01*
X190980Y281344D01*
X191547Y281579D01*
X194675Y278451D01*
Y164549D01*
X189940Y159815D01*
X189480Y160061D01*
X189530Y160315D01*
X189352Y161212D01*
X188843Y161973D01*
X188083Y162481D01*
X187185Y162660D01*
X186288Y162481D01*
X185527Y161973D01*
X185019Y161212D01*
X184840Y160315D01*
X184918Y159923D01*
X182321Y157325D01*
X179049D01*
X172826Y163549D01*
Y265120D01*
X173158Y265342D01*
X173667Y266103D01*
X173845Y267000D01*
X173667Y267897D01*
X173158Y268658D01*
X172397Y269167D01*
X171500Y269345D01*
X170603Y269167D01*
X169842Y268658D01*
X169333Y267897D01*
X169155Y267000D01*
X169333Y266103D01*
X169842Y265342D01*
X170175Y265120D01*
Y163000D01*
X170275Y162493D01*
X170563Y162063D01*
X177563Y155063D01*
X177993Y154775D01*
X178500Y154674D01*
X182870D01*
X183377Y154775D01*
X183807Y155063D01*
X186793Y158048D01*
X187185Y157970D01*
X187439Y158020D01*
X187685Y157560D01*
X183451Y153325D01*
X160549D01*
X159767Y154107D01*
X159845Y154500D01*
X159667Y155397D01*
X159158Y156158D01*
X158397Y156667D01*
X157500Y156845D01*
X156603Y156667D01*
X155842Y156158D01*
X155333Y155397D01*
X155155Y154500D01*
X155333Y153603D01*
X155842Y152842D01*
X156603Y152333D01*
X157500Y152155D01*
X157893Y152233D01*
X159063Y151063D01*
X159493Y150775D01*
X160000Y150674D01*
X184000D01*
X184507Y150775D01*
X184937Y151063D01*
X196937Y163063D01*
X197225Y163493D01*
X197326Y164000D01*
Y279000D01*
X197225Y279507D01*
X196937Y279937D01*
X193421Y283453D01*
X193656Y284020D01*
X193785Y285000D01*
X193656Y285980D01*
X193278Y286893D01*
X192676Y287677D01*
X191893Y288278D01*
X190980Y288656D01*
X190000Y288785D01*
D02*
G37*
G36*
X176000Y262345D02*
X175103Y262167D01*
X174342Y261658D01*
X173833Y260897D01*
X173655Y260000D01*
X173833Y259103D01*
X174342Y258342D01*
X175103Y257833D01*
X175643Y257726D01*
Y245380D01*
X175310Y245158D01*
X174802Y244397D01*
X174623Y243500D01*
X174802Y242603D01*
X175310Y241842D01*
X176071Y241333D01*
X176969Y241155D01*
X177866Y241333D01*
X178627Y241842D01*
X179135Y242603D01*
X179174Y242801D01*
X179674Y242752D01*
Y162881D01*
X179342Y162658D01*
X178833Y161897D01*
X178655Y161000D01*
X178833Y160103D01*
X179342Y159342D01*
X180103Y158833D01*
X181000Y158655D01*
X181897Y158833D01*
X182658Y159342D01*
X183167Y160103D01*
X183345Y161000D01*
X183167Y161897D01*
X182658Y162658D01*
X182325Y162881D01*
Y242141D01*
X182343Y242155D01*
X183240Y242333D01*
X184001Y242842D01*
X184509Y243603D01*
X184688Y244500D01*
X184509Y245397D01*
X184001Y246158D01*
X183240Y246667D01*
X182343Y246845D01*
X181445Y246667D01*
X180684Y246158D01*
X180176Y245397D01*
X179998Y244500D01*
X180076Y244108D01*
X180063Y244095D01*
X179787Y243682D01*
X179708Y243670D01*
X179273Y243703D01*
X179135Y244397D01*
X178627Y245158D01*
X178294Y245380D01*
Y259032D01*
X178223Y259387D01*
X178345Y260000D01*
X178167Y260897D01*
X177658Y261658D01*
X176897Y262167D01*
X176000Y262345D01*
D02*
G37*
G36*
X228500Y158845D02*
X227603Y158667D01*
X226842Y158158D01*
X226333Y157397D01*
X226155Y156500D01*
X226233Y156107D01*
X211951Y141825D01*
X151881D01*
X151658Y142158D01*
X150897Y142667D01*
X150000Y142845D01*
X149103Y142667D01*
X148342Y142158D01*
X147833Y141397D01*
X147655Y140500D01*
X147833Y139603D01*
X148342Y138842D01*
X149103Y138333D01*
X150000Y138155D01*
X150897Y138333D01*
X151658Y138842D01*
X151881Y139174D01*
X212500D01*
X213007Y139275D01*
X213437Y139563D01*
X228108Y154233D01*
X228500Y154155D01*
X229397Y154333D01*
X230158Y154842D01*
X230667Y155603D01*
X230845Y156500D01*
X230667Y157397D01*
X230158Y158158D01*
X229397Y158667D01*
X228500Y158845D01*
D02*
G37*
G36*
X306253Y159320D02*
X298747D01*
Y151814D01*
X306253D01*
Y159320D01*
D02*
G37*
G36*
X200000Y288785D02*
X199020Y288656D01*
X198107Y288278D01*
X197324Y287677D01*
X196722Y286893D01*
X196344Y285980D01*
X196215Y285000D01*
X196344Y284020D01*
X196722Y283107D01*
X197324Y282324D01*
X198107Y281722D01*
X198674Y281487D01*
X198674Y164049D01*
X183951Y149326D01*
X157049D01*
X154325Y152049D01*
Y157620D01*
X154658Y157842D01*
X155167Y158603D01*
X155345Y159500D01*
X155167Y160397D01*
X154658Y161158D01*
X153897Y161667D01*
X153000Y161845D01*
X152103Y161667D01*
X151342Y161158D01*
X150833Y160397D01*
X150655Y159500D01*
X150833Y158603D01*
X151342Y157842D01*
X151674Y157620D01*
Y151500D01*
X151775Y150993D01*
X152063Y150563D01*
X155563Y147063D01*
X155993Y146775D01*
X156500Y146675D01*
X184500D01*
X185007Y146775D01*
X185437Y147063D01*
X200937Y162563D01*
X201225Y162993D01*
X201325Y163500D01*
X201325Y281487D01*
X201893Y281722D01*
X202677Y282324D01*
X203278Y283107D01*
X203656Y284020D01*
X203785Y285000D01*
X203656Y285980D01*
X203278Y286893D01*
X202677Y287677D01*
X201893Y288278D01*
X200980Y288656D01*
X200000Y288785D01*
D02*
G37*
G36*
X380000Y151825D02*
Y149000D01*
X382825D01*
X382776Y149378D01*
X382437Y150196D01*
X381898Y150898D01*
X381196Y151437D01*
X380378Y151776D01*
X380000Y151825D01*
D02*
G37*
G36*
X379000D02*
X378622Y151776D01*
X377804Y151437D01*
X377102Y150898D01*
X376563Y150196D01*
X376224Y149378D01*
X376175Y149000D01*
X379000D01*
Y151825D01*
D02*
G37*
G36*
X349500Y151690D02*
X348675Y151581D01*
X347905Y151262D01*
X347245Y150755D01*
X346738Y150095D01*
X346419Y149326D01*
X346310Y148500D01*
X346419Y147675D01*
X346738Y146905D01*
X347245Y146245D01*
X347905Y145738D01*
X348675Y145419D01*
X349500Y145310D01*
X350325Y145419D01*
X351095Y145738D01*
X351755Y146245D01*
X352262Y146905D01*
X352581Y147675D01*
X352690Y148500D01*
X352581Y149326D01*
X352262Y150095D01*
X351755Y150755D01*
X351095Y151262D01*
X350325Y151581D01*
X349500Y151690D01*
D02*
G37*
G36*
X379000Y148000D02*
X376175D01*
X376224Y147622D01*
X376563Y146804D01*
X377102Y146102D01*
X377804Y145563D01*
X378622Y145224D01*
X379000Y145175D01*
Y148000D01*
D02*
G37*
G36*
X435000Y146087D02*
X434072Y145964D01*
X433207Y145606D01*
X432464Y145036D01*
X431894Y144293D01*
X431536Y143428D01*
X431413Y142500D01*
X431536Y141572D01*
X431894Y140707D01*
X432464Y139964D01*
X433207Y139394D01*
X434072Y139036D01*
X435000Y138913D01*
X435928Y139036D01*
X436793Y139394D01*
X437536Y139964D01*
X438106Y140707D01*
X438464Y141572D01*
X438587Y142500D01*
X438464Y143428D01*
X438106Y144293D01*
X437536Y145036D01*
X436793Y145606D01*
X435928Y145964D01*
X435000Y146087D01*
D02*
G37*
G36*
X405000D02*
X404072Y145964D01*
X403207Y145606D01*
X402464Y145036D01*
X401894Y144293D01*
X401536Y143428D01*
X401413Y142500D01*
X401536Y141572D01*
X401894Y140707D01*
X402464Y139964D01*
X403207Y139394D01*
X404072Y139036D01*
X405000Y138913D01*
X405928Y139036D01*
X406793Y139394D01*
X407536Y139964D01*
X408106Y140707D01*
X408464Y141572D01*
X408587Y142500D01*
X408464Y143428D01*
X408106Y144293D01*
X407536Y145036D01*
X406793Y145606D01*
X405928Y145964D01*
X405000Y146087D01*
D02*
G37*
G36*
X252000Y141750D02*
X248250D01*
Y138000D01*
X252000D01*
Y141750D01*
D02*
G37*
G36*
X323253Y159320D02*
X315747D01*
Y151814D01*
X318175D01*
Y141753D01*
X315747D01*
Y134247D01*
X323253D01*
Y141753D01*
X320826D01*
Y151814D01*
X323253D01*
Y159320D01*
D02*
G37*
G36*
X309500Y141785D02*
X308520Y141656D01*
X307607Y141278D01*
X306823Y140676D01*
X306222Y139893D01*
X305844Y138980D01*
X305715Y138000D01*
X305844Y137020D01*
X306222Y136107D01*
X306823Y135324D01*
X307607Y134722D01*
X308520Y134344D01*
X309500Y134215D01*
X310480Y134344D01*
X311393Y134722D01*
X312176Y135324D01*
X312778Y136107D01*
X313156Y137020D01*
X313285Y138000D01*
X313156Y138980D01*
X312778Y139893D01*
X312176Y140676D01*
X311393Y141278D01*
X310480Y141656D01*
X309500Y141785D01*
D02*
G37*
G36*
X252000Y137000D02*
X248250D01*
Y133250D01*
X252000D01*
Y137000D01*
D02*
G37*
G36*
X309500Y129285D02*
X308520Y129156D01*
X307607Y128778D01*
X306823Y128176D01*
X306222Y127393D01*
X305844Y126480D01*
X305715Y125500D01*
X305844Y124520D01*
X306222Y123607D01*
X306823Y122824D01*
X307607Y122222D01*
X308520Y121844D01*
X309500Y121715D01*
X310480Y121844D01*
X311393Y122222D01*
X312176Y122824D01*
X312778Y123607D01*
X313156Y124520D01*
X313285Y125500D01*
X313156Y126480D01*
X312778Y127393D01*
X312176Y128176D01*
X311393Y128778D01*
X310480Y129156D01*
X309500Y129285D01*
D02*
G37*
G36*
X299500D02*
X298520Y129156D01*
X297607Y128778D01*
X296824Y128176D01*
X296222Y127393D01*
X295844Y126480D01*
X295715Y125500D01*
X295844Y124520D01*
X296222Y123607D01*
X296824Y122824D01*
X297607Y122222D01*
X298520Y121844D01*
X299500Y121715D01*
X300480Y121844D01*
X301393Y122222D01*
X302176Y122824D01*
X302778Y123607D01*
X303156Y124520D01*
X303285Y125500D01*
X303156Y126480D01*
X302778Y127393D01*
X302176Y128176D01*
X301393Y128778D01*
X300480Y129156D01*
X299500Y129285D01*
D02*
G37*
G36*
X210000Y128785D02*
X209020Y128656D01*
X208107Y128278D01*
X207324Y127676D01*
X206722Y126893D01*
X206344Y125980D01*
X206215Y125000D01*
X206344Y124020D01*
X206722Y123107D01*
X207324Y122324D01*
X208107Y121722D01*
X209020Y121344D01*
X210000Y121215D01*
X210980Y121344D01*
X211893Y121722D01*
X212677Y122324D01*
X213278Y123107D01*
X213656Y124020D01*
X213785Y125000D01*
X213656Y125980D01*
X213278Y126893D01*
X212677Y127676D01*
X211893Y128278D01*
X210980Y128656D01*
X210000Y128785D01*
D02*
G37*
G36*
X200000D02*
X199020Y128656D01*
X198107Y128278D01*
X197324Y127676D01*
X196722Y126893D01*
X196344Y125980D01*
X196215Y125000D01*
X196344Y124020D01*
X196722Y123107D01*
X197324Y122324D01*
X198107Y121722D01*
X199020Y121344D01*
X200000Y121215D01*
X200980Y121344D01*
X201893Y121722D01*
X202677Y122324D01*
X203278Y123107D01*
X203656Y124020D01*
X203785Y125000D01*
X203656Y125980D01*
X203278Y126893D01*
X202677Y127676D01*
X201893Y128278D01*
X200980Y128656D01*
X200000Y128785D01*
D02*
G37*
G36*
X190000D02*
X189020Y128656D01*
X188107Y128278D01*
X187323Y127676D01*
X186722Y126893D01*
X186344Y125980D01*
X186215Y125000D01*
X186344Y124020D01*
X186722Y123107D01*
X187323Y122324D01*
X188107Y121722D01*
X189020Y121344D01*
X190000Y121215D01*
X190980Y121344D01*
X191893Y121722D01*
X192676Y122324D01*
X193278Y123107D01*
X193656Y124020D01*
X193785Y125000D01*
X193656Y125980D01*
X193278Y126893D01*
X192676Y127676D01*
X191893Y128278D01*
X190980Y128656D01*
X190000Y128785D01*
D02*
G37*
G36*
X180000D02*
X179020Y128656D01*
X178107Y128278D01*
X177323Y127676D01*
X176722Y126893D01*
X176344Y125980D01*
X176215Y125000D01*
X176344Y124020D01*
X176722Y123107D01*
X177323Y122324D01*
X178107Y121722D01*
X179020Y121344D01*
X180000Y121215D01*
X180980Y121344D01*
X181893Y121722D01*
X182676Y122324D01*
X183278Y123107D01*
X183656Y124020D01*
X183785Y125000D01*
X183656Y125980D01*
X183278Y126893D01*
X182676Y127676D01*
X181893Y128278D01*
X180980Y128656D01*
X180000Y128785D01*
D02*
G37*
G36*
X170000D02*
X169020Y128656D01*
X168107Y128278D01*
X167324Y127676D01*
X166722Y126893D01*
X166344Y125980D01*
X166215Y125000D01*
X166344Y124020D01*
X166722Y123107D01*
X167324Y122324D01*
X168107Y121722D01*
X169020Y121344D01*
X170000Y121215D01*
X170980Y121344D01*
X171893Y121722D01*
X172677Y122324D01*
X173278Y123107D01*
X173656Y124020D01*
X173785Y125000D01*
X173656Y125980D01*
X173278Y126893D01*
X172677Y127676D01*
X171893Y128278D01*
X170980Y128656D01*
X170000Y128785D01*
D02*
G37*
G36*
X160000D02*
X159020Y128656D01*
X158107Y128278D01*
X157324Y127676D01*
X156722Y126893D01*
X156344Y125980D01*
X156215Y125000D01*
X156344Y124020D01*
X156722Y123107D01*
X157324Y122324D01*
X158107Y121722D01*
X159020Y121344D01*
X160000Y121215D01*
X160980Y121344D01*
X161893Y121722D01*
X162677Y122324D01*
X163278Y123107D01*
X163656Y124020D01*
X163785Y125000D01*
X163656Y125980D01*
X163278Y126893D01*
X162677Y127676D01*
X161893Y128278D01*
X160980Y128656D01*
X160000Y128785D01*
D02*
G37*
G36*
X130000D02*
X129020Y128656D01*
X128107Y128278D01*
X127323Y127676D01*
X126722Y126893D01*
X126344Y125980D01*
X126215Y125000D01*
X126344Y124020D01*
X126722Y123107D01*
X127323Y122324D01*
X128107Y121722D01*
X129020Y121344D01*
X130000Y121215D01*
X130980Y121344D01*
X131893Y121722D01*
X132676Y122324D01*
X133278Y123107D01*
X133656Y124020D01*
X133785Y125000D01*
X133656Y125980D01*
X133278Y126893D01*
X132676Y127676D01*
X131893Y128278D01*
X130980Y128656D01*
X130000Y128785D01*
D02*
G37*
G36*
X248500Y119421D02*
Y116000D01*
X251921D01*
X251851Y116532D01*
X251453Y117493D01*
X250819Y118319D01*
X249993Y118953D01*
X249032Y119351D01*
X248500Y119421D01*
D02*
G37*
G36*
X247500D02*
X246968Y119351D01*
X246007Y118953D01*
X245181Y118319D01*
X244547Y117493D01*
X244149Y116532D01*
X244079Y116000D01*
X247500D01*
Y119421D01*
D02*
G37*
G36*
X220500Y118921D02*
Y115500D01*
X223921D01*
X223851Y116032D01*
X223453Y116993D01*
X222819Y117819D01*
X221993Y118453D01*
X221032Y118851D01*
X220500Y118921D01*
D02*
G37*
G36*
X319500Y119285D02*
X318520Y119156D01*
X317607Y118778D01*
X316824Y118176D01*
X316222Y117393D01*
X315844Y116480D01*
X315715Y115500D01*
X315844Y114520D01*
X316222Y113607D01*
X316824Y112823D01*
X317607Y112222D01*
X318520Y111844D01*
X319500Y111715D01*
X320480Y111844D01*
X321393Y112222D01*
X322177Y112823D01*
X322778Y113607D01*
X323156Y114520D01*
X323285Y115500D01*
X323156Y116480D01*
X322778Y117393D01*
X322177Y118176D01*
X321393Y118778D01*
X320480Y119156D01*
X319500Y119285D01*
D02*
G37*
G36*
X272500Y141434D02*
X271482Y141300D01*
X270533Y140907D01*
X269719Y140281D01*
X269093Y139467D01*
X268700Y138518D01*
X268566Y137500D01*
X268700Y136482D01*
X269093Y135533D01*
X269719Y134719D01*
X270533Y134093D01*
X271175Y133828D01*
Y132500D01*
X271275Y131993D01*
X271563Y131563D01*
X295063Y108063D01*
X295493Y107775D01*
X296000Y107675D01*
X303000D01*
X303507Y107775D01*
X303937Y108063D01*
X307953Y112079D01*
X308520Y111844D01*
X309500Y111715D01*
X310480Y111844D01*
X311393Y112222D01*
X312176Y112823D01*
X312778Y113607D01*
X313156Y114520D01*
X313285Y115500D01*
X313156Y116480D01*
X312778Y117393D01*
X312176Y118176D01*
X311393Y118778D01*
X310480Y119156D01*
X309500Y119285D01*
X308520Y119156D01*
X307607Y118778D01*
X306823Y118176D01*
X306222Y117393D01*
X305844Y116480D01*
X305715Y115500D01*
X305844Y114520D01*
X306079Y113953D01*
X302451Y110326D01*
X296549D01*
X273826Y133049D01*
Y133828D01*
X274467Y134093D01*
X275282Y134719D01*
X275907Y135533D01*
X276300Y136482D01*
X276434Y137500D01*
X276300Y138518D01*
X275907Y139467D01*
X275282Y140281D01*
X274467Y140907D01*
X273518Y141300D01*
X272500Y141434D01*
D02*
G37*
G36*
X268000Y119285D02*
X267020Y119156D01*
X266107Y118778D01*
X265323Y118176D01*
X264722Y117393D01*
X264344Y116480D01*
X264215Y115500D01*
X264344Y114520D01*
X264722Y113607D01*
X265323Y112823D01*
X266107Y112222D01*
X267020Y111844D01*
X268000Y111715D01*
X268980Y111844D01*
X269893Y112222D01*
X270676Y112823D01*
X271278Y113607D01*
X271656Y114520D01*
X271785Y115500D01*
X271656Y116480D01*
X271278Y117393D01*
X270676Y118176D01*
X269893Y118778D01*
X268980Y119156D01*
X268000Y119285D01*
D02*
G37*
G36*
X258000D02*
X257020Y119156D01*
X256107Y118778D01*
X255324Y118176D01*
X254722Y117393D01*
X254344Y116480D01*
X254215Y115500D01*
X254344Y114520D01*
X254722Y113607D01*
X255324Y112823D01*
X256107Y112222D01*
X257020Y111844D01*
X258000Y111715D01*
X258980Y111844D01*
X259893Y112222D01*
X260677Y112823D01*
X261278Y113607D01*
X261656Y114520D01*
X261785Y115500D01*
X261656Y116480D01*
X261278Y117393D01*
X260677Y118176D01*
X259893Y118778D01*
X258980Y119156D01*
X258000Y119285D01*
D02*
G37*
G36*
X251921Y115000D02*
X248500D01*
Y111579D01*
X249032Y111649D01*
X249993Y112047D01*
X250819Y112681D01*
X251453Y113507D01*
X251851Y114468D01*
X251921Y115000D01*
D02*
G37*
G36*
X247500D02*
X244079D01*
X244149Y114468D01*
X244547Y113507D01*
X245181Y112681D01*
X246007Y112047D01*
X246968Y111649D01*
X247500Y111579D01*
Y115000D01*
D02*
G37*
G36*
X130000Y118785D02*
X129020Y118656D01*
X128107Y118278D01*
X127323Y117676D01*
X126722Y116893D01*
X126344Y115980D01*
X126215Y115000D01*
X126344Y114020D01*
X126722Y113107D01*
X127323Y112323D01*
X128107Y111722D01*
X129020Y111344D01*
X130000Y111215D01*
X130980Y111344D01*
X131893Y111722D01*
X132676Y112323D01*
X133278Y113107D01*
X133656Y114020D01*
X133785Y115000D01*
X133656Y115980D01*
X133278Y116893D01*
X132676Y117676D01*
X131893Y118278D01*
X130980Y118656D01*
X130000Y118785D01*
D02*
G37*
G36*
X223921Y114500D02*
X220500D01*
Y111079D01*
X221032Y111149D01*
X221993Y111547D01*
X222819Y112181D01*
X223453Y113007D01*
X223851Y113968D01*
X223921Y114500D01*
D02*
G37*
G36*
X382825Y148000D02*
X380000D01*
Y145175D01*
X380378Y145224D01*
X380748Y145378D01*
X400674Y125451D01*
Y97822D01*
X399731Y97431D01*
X398791Y96709D01*
X398069Y95769D01*
X397616Y94675D01*
X397527Y94000D01*
X402000D01*
X406473D01*
X406384Y94675D01*
X405931Y95769D01*
X405209Y96709D01*
X404269Y97431D01*
X403326Y97822D01*
Y126000D01*
X403326Y126000D01*
X403225Y126507D01*
X402937Y126937D01*
X382622Y147252D01*
X382776Y147622D01*
X382825Y148000D01*
D02*
G37*
G36*
X320000Y97087D02*
X319072Y96964D01*
X318207Y96606D01*
X317464Y96036D01*
X316894Y95293D01*
X316536Y94428D01*
X316413Y93500D01*
X316536Y92572D01*
X316894Y91707D01*
X317464Y90964D01*
X318207Y90394D01*
X319072Y90036D01*
X320000Y89913D01*
X320928Y90036D01*
X321793Y90394D01*
X322536Y90964D01*
X323106Y91707D01*
X323464Y92572D01*
X323587Y93500D01*
X323464Y94428D01*
X323106Y95293D01*
X322536Y96036D01*
X321793Y96606D01*
X320928Y96964D01*
X320000Y97087D01*
D02*
G37*
G36*
X270000D02*
X269072Y96964D01*
X268207Y96606D01*
X267464Y96036D01*
X266894Y95293D01*
X266536Y94428D01*
X266413Y93500D01*
X266536Y92572D01*
X266894Y91707D01*
X267464Y90964D01*
X268207Y90394D01*
X269072Y90036D01*
X270000Y89913D01*
X270928Y90036D01*
X271793Y90394D01*
X272536Y90964D01*
X273106Y91707D01*
X273464Y92572D01*
X273587Y93500D01*
X273464Y94428D01*
X273106Y95293D01*
X272536Y96036D01*
X271793Y96606D01*
X270928Y96964D01*
X270000Y97087D01*
D02*
G37*
G36*
X383500Y96587D02*
X382572Y96464D01*
X381707Y96106D01*
X380964Y95536D01*
X380394Y94793D01*
X380036Y93928D01*
X379913Y93000D01*
X380036Y92072D01*
X380394Y91207D01*
X380964Y90464D01*
X381707Y89894D01*
X382572Y89536D01*
X383500Y89413D01*
X384428Y89536D01*
X385293Y89894D01*
X386036Y90464D01*
X386606Y91207D01*
X386964Y92072D01*
X387087Y93000D01*
X386964Y93928D01*
X386606Y94793D01*
X386036Y95536D01*
X385293Y96106D01*
X384428Y96464D01*
X383500Y96587D01*
D02*
G37*
G36*
X412000Y97837D02*
X410878Y97689D01*
X409831Y97256D01*
X408933Y96567D01*
X408244Y95669D01*
X407811Y94622D01*
X407663Y93500D01*
X407811Y92378D01*
X408244Y91331D01*
X408933Y90433D01*
X409831Y89744D01*
X410878Y89311D01*
X412000Y89163D01*
X413123Y89311D01*
X414169Y89744D01*
X415067Y90433D01*
X415756Y91331D01*
X416189Y92378D01*
X416337Y93500D01*
X416189Y94622D01*
X415756Y95669D01*
X415067Y96567D01*
X414169Y97256D01*
X413123Y97689D01*
X412000Y97837D01*
D02*
G37*
G36*
X406473Y93000D02*
X402500D01*
Y89027D01*
X403175Y89116D01*
X404269Y89569D01*
X405209Y90291D01*
X405931Y91231D01*
X406384Y92325D01*
X406473Y93000D01*
D02*
G37*
G36*
X401500D02*
X397527D01*
X397616Y92325D01*
X398069Y91231D01*
X398791Y90291D01*
X399731Y89569D01*
X400825Y89116D01*
X401500Y89027D01*
Y93000D01*
D02*
G37*
G36*
X442500Y97337D02*
X441377Y97189D01*
X440332Y96756D01*
X439433Y96067D01*
X438744Y95169D01*
X438311Y94122D01*
X438163Y93000D01*
X438311Y91878D01*
X438744Y90831D01*
X439433Y89933D01*
X440332Y89244D01*
X441377Y88811D01*
X442500Y88663D01*
X443622Y88811D01*
X444668Y89244D01*
X445567Y89933D01*
X446256Y90831D01*
X446689Y91878D01*
X446837Y93000D01*
X446689Y94122D01*
X446256Y95169D01*
X445567Y96067D01*
X444668Y96756D01*
X443622Y97189D01*
X442500Y97337D01*
D02*
G37*
G36*
X432500D02*
X431378Y97189D01*
X430332Y96756D01*
X429433Y96067D01*
X428744Y95169D01*
X428311Y94122D01*
X428163Y93000D01*
X428311Y91878D01*
X428744Y90831D01*
X429433Y89933D01*
X430332Y89244D01*
X431378Y88811D01*
X432500Y88663D01*
X433623Y88811D01*
X434668Y89244D01*
X435567Y89933D01*
X436256Y90831D01*
X436689Y91878D01*
X436837Y93000D01*
X436689Y94122D01*
X436256Y95169D01*
X435567Y96067D01*
X434668Y96756D01*
X433623Y97189D01*
X432500Y97337D01*
D02*
G37*
%LPD*%
D17*
X171500Y163000D02*
Y267000D01*
Y163000D02*
X178500Y156000D01*
X182870D01*
X187185Y160315D01*
X184000Y152000D02*
X196000Y164000D01*
X160000Y152000D02*
X184000D01*
X157500Y154500D02*
X160000Y152000D01*
X330000Y214000D02*
X333500Y217500D01*
X330000Y182500D02*
Y214000D01*
X363500Y184000D02*
Y191000D01*
X381500Y209000D01*
X291500Y179000D02*
X303500Y191000D01*
X272000Y179000D02*
X291500D01*
X379500Y148500D02*
X402000Y126000D01*
Y93500D02*
Y126000D01*
X391000Y120500D02*
Y128000D01*
X368500Y150500D02*
X391000Y128000D01*
X364500Y150500D02*
X368500D01*
X385000Y114500D02*
X391000Y120500D01*
X377000Y114500D02*
X385000D01*
X323500Y227500D02*
X333500D01*
X311500Y215500D02*
X323500Y227500D01*
X311500Y186000D02*
Y215500D01*
X295000Y169500D02*
X311500Y186000D01*
X295000Y142500D02*
Y169500D01*
Y142500D02*
X299500Y138000D01*
X331000Y124000D02*
X372500D01*
X323500Y131500D02*
X331000Y124000D01*
X306000Y131500D02*
X323500D01*
X357000Y138500D02*
Y242000D01*
X346500Y128000D02*
X357000Y138500D01*
X337000Y128000D02*
X346500D01*
X357000Y242000D02*
X365000Y250000D01*
X328000Y137000D02*
X337000Y128000D01*
X372500Y124000D02*
X377000Y119500D01*
X291000Y124000D02*
Y168500D01*
Y124000D02*
X299500Y115500D01*
X333500Y237500D02*
X340000D01*
X346500Y231000D01*
Y216500D02*
Y231000D01*
X338000Y208000D02*
X346500Y216500D01*
X338000Y135500D02*
Y208000D01*
X319500Y138000D02*
Y155567D01*
X299500Y138000D02*
X306000Y131500D01*
X288500Y217500D02*
X303500D01*
X258000Y187000D02*
X288500Y217500D01*
X258000Y135500D02*
Y187000D01*
Y135500D02*
X278000Y115500D01*
X328000Y272000D02*
X342500D01*
X303500Y247500D02*
X328000Y272000D01*
X323000Y237500D02*
X333500D01*
X313000Y247500D02*
X323000Y237500D01*
X303500Y247500D02*
X313000D01*
X296000Y109000D02*
X303000D01*
X272500Y132500D02*
X296000Y109000D01*
X272500Y132500D02*
Y137500D01*
X303000Y109000D02*
X309500Y115500D01*
X231000Y226000D02*
X251000Y206000D01*
X231000Y226000D02*
Y250500D01*
X446000Y302000D02*
X461000Y287000D01*
X281000Y302000D02*
X446000D01*
X268500Y289500D02*
X281000Y302000D01*
X456043Y307500D02*
X480043Y283500D01*
X273000Y307500D02*
X456043D01*
X262500Y297000D02*
X273000Y307500D01*
X480917Y276500D02*
X487917Y283500D01*
X464500Y276500D02*
X480917D01*
X461000Y280000D02*
X464500Y276500D01*
X461000Y280000D02*
Y287000D01*
X268500Y271000D02*
Y289500D01*
X264000Y266500D02*
X268500Y271000D01*
X262500Y280500D02*
Y297000D01*
X253000Y271000D02*
X262500Y280500D01*
X211000Y244000D02*
X252000Y285000D01*
X211000Y199500D02*
Y244000D01*
X278000Y115500D02*
X288000Y105500D01*
X338000D01*
X333500Y101000D02*
X338000Y105500D01*
X333500Y93000D02*
Y101000D01*
X274000Y215000D02*
Y286500D01*
X245000Y186000D02*
X274000Y215000D01*
X222500Y186000D02*
X245000D01*
X280000Y262500D02*
X301000D01*
X319000Y280500D01*
X274000Y286500D02*
X283000Y295500D01*
X304000D01*
X309000Y290500D01*
X145000Y233185D02*
X152815Y241000D01*
X145000Y113500D02*
Y233185D01*
X150000Y295000D02*
X155000Y290000D01*
Y279500D02*
Y290000D01*
Y279500D02*
X158500Y276000D01*
Y168095D02*
Y276000D01*
X165000Y281500D02*
Y290000D01*
X160000Y295000D02*
X165000Y290000D01*
X158500Y168095D02*
X166595Y160000D01*
X215000Y120000D02*
X220000Y125000D01*
X215000Y112500D02*
Y120000D01*
X165000Y281500D02*
X187000Y259500D01*
Y243500D02*
Y259500D01*
Y243500D02*
X189500Y241000D01*
X176000Y260000D02*
X176969Y259032D01*
Y243500D02*
Y259032D01*
X181000Y243158D02*
X182343Y244500D01*
X181000Y161000D02*
Y243158D01*
X184500Y148000D02*
X200000Y163500D01*
X200000Y285000D02*
X200000Y163500D01*
X150000Y140500D02*
X212500D01*
X228500Y156500D01*
X153000Y151500D02*
Y159500D01*
Y151500D02*
X156500Y148000D01*
X184500D01*
X145000Y113500D02*
X148500Y110000D01*
X212500D01*
X215000Y112500D01*
X190000Y285000D02*
X196000Y279000D01*
Y164000D02*
Y279000D01*
D18*
X382000Y184500D02*
D03*
X352000D02*
D03*
X349500Y148500D02*
D03*
X379500D02*
D03*
X379000Y294000D02*
D03*
X349000D02*
D03*
X381500Y209000D02*
D03*
X351500D02*
D03*
D19*
X442500Y93000D02*
D03*
X432500D02*
D03*
X412000Y93500D02*
D03*
X402000D02*
D03*
D20*
X270000D02*
D03*
X320000D02*
D03*
X333500Y93000D02*
D03*
X383500D02*
D03*
X352000Y166500D02*
D03*
X382000D02*
D03*
X338000Y135500D02*
D03*
Y105500D02*
D03*
X405000Y142500D02*
D03*
X435000D02*
D03*
X342500Y272000D02*
D03*
X372500D02*
D03*
D21*
X272000Y189000D02*
D03*
Y179000D02*
D03*
D22*
Y169000D02*
D03*
D23*
X302500Y201433D02*
D03*
X319500D02*
D03*
X309500Y138000D02*
D03*
X299500D02*
D03*
X319500Y115500D02*
D03*
X309500Y125500D02*
D03*
Y115500D02*
D03*
X299500Y125500D02*
D03*
Y115500D02*
D03*
X252000Y285000D02*
D03*
X365000Y250000D02*
D03*
X375500Y227000D02*
D03*
X248000Y115500D02*
D03*
X258000D02*
D03*
X268000D02*
D03*
X289000Y280500D02*
D03*
Y290500D02*
D03*
X299000Y280500D02*
D03*
Y290500D02*
D03*
X309000Y280500D02*
D03*
Y290500D02*
D03*
X319000Y280500D02*
D03*
X130000Y115000D02*
D03*
X140000D02*
D03*
X150000D02*
D03*
X160000D02*
D03*
X170000D02*
D03*
X180000D02*
D03*
X190000D02*
D03*
X200000D02*
D03*
X210000D02*
D03*
X220000D02*
D03*
X130000Y125000D02*
D03*
X140000D02*
D03*
X150000D02*
D03*
X160000D02*
D03*
X170000D02*
D03*
X180000D02*
D03*
X190000D02*
D03*
X200000D02*
D03*
X210000D02*
D03*
X333500Y227500D02*
D03*
Y237500D02*
D03*
Y247500D02*
D03*
X303500Y217500D02*
D03*
Y227500D02*
D03*
Y237500D02*
D03*
Y247500D02*
D03*
X130000Y285000D02*
D03*
X140000D02*
D03*
X150000D02*
D03*
X160000D02*
D03*
X170000D02*
D03*
X180000D02*
D03*
X190000D02*
D03*
X200000D02*
D03*
X210000D02*
D03*
X220000D02*
D03*
X130000Y295000D02*
D03*
X140000D02*
D03*
X150000D02*
D03*
X160000D02*
D03*
X170000D02*
D03*
X180000D02*
D03*
X190000D02*
D03*
X200000D02*
D03*
X210000D02*
D03*
D24*
X302500Y155567D02*
D03*
X319500D02*
D03*
X252000Y295000D02*
D03*
D25*
X272500Y137500D02*
D03*
D26*
X262500D02*
D03*
D27*
X252500D02*
D03*
D28*
X319500Y138000D02*
D03*
Y125500D02*
D03*
X375000Y250000D02*
D03*
X365500Y227000D02*
D03*
X278000Y115500D02*
D03*
X319000Y290500D02*
D03*
X220000Y125000D02*
D03*
X333500Y217500D02*
D03*
X220000Y295000D02*
D03*
D29*
X354000Y109500D02*
D03*
Y119500D02*
D03*
X377000Y109500D02*
D03*
Y119500D02*
D03*
D30*
X354000Y114500D02*
D03*
X377000D02*
D03*
D31*
X495791Y283500D02*
D03*
D32*
X487917D02*
D03*
X480043D02*
D03*
X472169D02*
D03*
X464295D02*
D03*
X456421D02*
D03*
X448547D02*
D03*
X440673D02*
D03*
X432799D02*
D03*
X424925D02*
D03*
Y196886D02*
D03*
X432799D02*
D03*
X440673D02*
D03*
X448547D02*
D03*
X456421D02*
D03*
X464295D02*
D03*
X472169D02*
D03*
X480043D02*
D03*
X487917D02*
D03*
X495791D02*
D03*
D33*
X171500Y267000D02*
D03*
X187185Y160315D02*
D03*
X330000Y182500D02*
D03*
X363500Y184000D02*
D03*
X303500Y191000D02*
D03*
X364500Y150500D02*
D03*
X328000Y137000D02*
D03*
X291000Y168500D02*
D03*
X251000Y206000D02*
D03*
X231000Y250500D02*
D03*
X264000Y266500D02*
D03*
X253000Y271000D02*
D03*
X228500Y156500D02*
D03*
X211000Y199500D02*
D03*
X222500Y186000D02*
D03*
X280000Y262500D02*
D03*
X150000Y140500D02*
D03*
X166595Y160000D02*
D03*
X157500Y154500D02*
D03*
X153000Y159500D02*
D03*
X152815Y241000D02*
D03*
X182343Y244500D02*
D03*
X189500Y241000D02*
D03*
X176000Y260000D02*
D03*
X176969Y243500D02*
D03*
X181000Y161000D02*
D03*
M02*
