G04 Layer_Physical_Order=1*
G04 Layer_Color=255*
%FSLAX25Y25*%
%MOIN*%
G70*
G01*
G75*
%ADD10R,0.01575X0.02756*%
%ADD11R,0.10236X0.04331*%
%ADD12O,0.01181X0.06890*%
%ADD13O,0.06890X0.01181*%
%ADD14R,0.04331X0.05512*%
%ADD15R,0.05512X0.04331*%
%ADD16R,0.04724X0.05512*%
%ADD17C,0.01000*%
%ADD18C,0.04724*%
%ADD19C,0.07000*%
%ADD20C,0.05512*%
%ADD21C,0.06693*%
%ADD22R,0.06693X0.06693*%
%ADD23C,0.05906*%
%ADD24R,0.05906X0.05906*%
%ADD25C,0.06200*%
%ADD26C,0.06500*%
%ADD27R,0.06500X0.06500*%
%ADD28R,0.05906X0.05906*%
%ADD29O,0.07874X0.03937*%
%ADD30O,0.07874X0.03937*%
G04:AMPARAMS|DCode=31|XSize=40mil|YSize=40mil|CornerRadius=10mil|HoleSize=0mil|Usage=FLASHONLY|Rotation=270.000|XOffset=0mil|YOffset=0mil|HoleType=Round|Shape=RoundedRectangle|*
%AMROUNDEDRECTD31*
21,1,0.04000,0.02000,0,0,270.0*
21,1,0.02000,0.04000,0,0,270.0*
1,1,0.02000,-0.01000,-0.01000*
1,1,0.02000,-0.01000,0.01000*
1,1,0.02000,0.01000,0.01000*
1,1,0.02000,0.01000,-0.01000*
%
%ADD31ROUNDEDRECTD31*%
%ADD32C,0.04000*%
%ADD33C,0.03000*%
G36*
X502674Y87826D02*
X101326D01*
Y91500D01*
Y100000D01*
Y311175D01*
X502674D01*
Y87826D01*
D02*
G37*
%LPC*%
G36*
X349500Y297325D02*
Y294500D01*
X352325D01*
X352276Y294878D01*
X351937Y295696D01*
X351398Y296398D01*
X350696Y296937D01*
X349878Y297276D01*
X349500Y297325D01*
D02*
G37*
G36*
X348500D02*
X348122Y297276D01*
X347304Y296937D01*
X346602Y296398D01*
X346063Y295696D01*
X345724Y294878D01*
X345675Y294500D01*
X348500D01*
Y297325D01*
D02*
G37*
G36*
X210000Y298785D02*
X209020Y298656D01*
X208107Y298278D01*
X207324Y297676D01*
X206722Y296893D01*
X206344Y295980D01*
X206215Y295000D01*
X206344Y294020D01*
X206722Y293107D01*
X207324Y292323D01*
X208107Y291722D01*
X209020Y291344D01*
X210000Y291215D01*
X210980Y291344D01*
X211893Y291722D01*
X212677Y292323D01*
X213278Y293107D01*
X213656Y294020D01*
X213785Y295000D01*
X213656Y295980D01*
X213278Y296893D01*
X212677Y297676D01*
X211893Y298278D01*
X210980Y298656D01*
X210000Y298785D01*
D02*
G37*
G36*
X200000D02*
X199020Y298656D01*
X198107Y298278D01*
X197324Y297676D01*
X196722Y296893D01*
X196344Y295980D01*
X196215Y295000D01*
X196344Y294020D01*
X196722Y293107D01*
X197324Y292323D01*
X198107Y291722D01*
X199020Y291344D01*
X200000Y291215D01*
X200980Y291344D01*
X201893Y291722D01*
X202677Y292323D01*
X203278Y293107D01*
X203656Y294020D01*
X203785Y295000D01*
X203656Y295980D01*
X203278Y296893D01*
X202677Y297676D01*
X201893Y298278D01*
X200980Y298656D01*
X200000Y298785D01*
D02*
G37*
G36*
X190000D02*
X189020Y298656D01*
X188107Y298278D01*
X187323Y297676D01*
X186722Y296893D01*
X186344Y295980D01*
X186215Y295000D01*
X186344Y294020D01*
X186722Y293107D01*
X187323Y292323D01*
X188107Y291722D01*
X189020Y291344D01*
X190000Y291215D01*
X190980Y291344D01*
X191893Y291722D01*
X192676Y292323D01*
X193278Y293107D01*
X193656Y294020D01*
X193785Y295000D01*
X193656Y295980D01*
X193278Y296893D01*
X192676Y297676D01*
X191893Y298278D01*
X190980Y298656D01*
X190000Y298785D01*
D02*
G37*
G36*
X180000D02*
X179020Y298656D01*
X178107Y298278D01*
X177323Y297676D01*
X176722Y296893D01*
X176344Y295980D01*
X176215Y295000D01*
X176344Y294020D01*
X176722Y293107D01*
X177323Y292323D01*
X178107Y291722D01*
X179020Y291344D01*
X180000Y291215D01*
X180980Y291344D01*
X181893Y291722D01*
X182676Y292323D01*
X183278Y293107D01*
X183656Y294020D01*
X183785Y295000D01*
X183656Y295980D01*
X183278Y296893D01*
X182676Y297676D01*
X181893Y298278D01*
X180980Y298656D01*
X180000Y298785D01*
D02*
G37*
G36*
X170000D02*
X169020Y298656D01*
X168107Y298278D01*
X167324Y297676D01*
X166722Y296893D01*
X166344Y295980D01*
X166215Y295000D01*
X166344Y294020D01*
X166722Y293107D01*
X167324Y292323D01*
X168107Y291722D01*
X169020Y291344D01*
X170000Y291215D01*
X170980Y291344D01*
X171893Y291722D01*
X172677Y292323D01*
X173278Y293107D01*
X173656Y294020D01*
X173785Y295000D01*
X173656Y295980D01*
X173278Y296893D01*
X172677Y297676D01*
X171893Y298278D01*
X170980Y298656D01*
X170000Y298785D01*
D02*
G37*
G36*
X160000D02*
X159020Y298656D01*
X158107Y298278D01*
X157324Y297676D01*
X156722Y296893D01*
X156344Y295980D01*
X156215Y295000D01*
X156344Y294020D01*
X156722Y293107D01*
X157324Y292323D01*
X158107Y291722D01*
X159020Y291344D01*
X160000Y291215D01*
X160980Y291344D01*
X161893Y291722D01*
X162677Y292323D01*
X163278Y293107D01*
X163656Y294020D01*
X163785Y295000D01*
X163656Y295980D01*
X163278Y296893D01*
X162677Y297676D01*
X161893Y298278D01*
X160980Y298656D01*
X160000Y298785D01*
D02*
G37*
G36*
X150000D02*
X149020Y298656D01*
X148107Y298278D01*
X147324Y297676D01*
X146722Y296893D01*
X146344Y295980D01*
X146215Y295000D01*
X146344Y294020D01*
X146722Y293107D01*
X147324Y292323D01*
X148107Y291722D01*
X149020Y291344D01*
X150000Y291215D01*
X150980Y291344D01*
X151893Y291722D01*
X152676Y292323D01*
X153278Y293107D01*
X153656Y294020D01*
X153785Y295000D01*
X153656Y295980D01*
X153278Y296893D01*
X152676Y297676D01*
X151893Y298278D01*
X150980Y298656D01*
X150000Y298785D01*
D02*
G37*
G36*
X140000D02*
X139020Y298656D01*
X138107Y298278D01*
X137323Y297676D01*
X136722Y296893D01*
X136344Y295980D01*
X136215Y295000D01*
X136344Y294020D01*
X136722Y293107D01*
X137323Y292323D01*
X138107Y291722D01*
X139020Y291344D01*
X140000Y291215D01*
X140980Y291344D01*
X141893Y291722D01*
X142676Y292323D01*
X143278Y293107D01*
X143656Y294020D01*
X143785Y295000D01*
X143656Y295980D01*
X143278Y296893D01*
X142676Y297676D01*
X141893Y298278D01*
X140980Y298656D01*
X140000Y298785D01*
D02*
G37*
G36*
X130000D02*
X129020Y298656D01*
X128107Y298278D01*
X127323Y297676D01*
X126722Y296893D01*
X126344Y295980D01*
X126215Y295000D01*
X126344Y294020D01*
X126722Y293107D01*
X127323Y292323D01*
X128107Y291722D01*
X129020Y291344D01*
X130000Y291215D01*
X130980Y291344D01*
X131893Y291722D01*
X132676Y292323D01*
X133278Y293107D01*
X133656Y294020D01*
X133785Y295000D01*
X133656Y295980D01*
X133278Y296893D01*
X132676Y297676D01*
X131893Y298278D01*
X130980Y298656D01*
X130000Y298785D01*
D02*
G37*
G36*
X289500Y294421D02*
Y291000D01*
X292921D01*
X292851Y291532D01*
X292453Y292493D01*
X291819Y293319D01*
X290993Y293953D01*
X290032Y294351D01*
X289500Y294421D01*
D02*
G37*
G36*
X288500D02*
X287968Y294351D01*
X287007Y293953D01*
X286181Y293319D01*
X285547Y292493D01*
X285149Y291532D01*
X285079Y291000D01*
X288500D01*
Y294421D01*
D02*
G37*
G36*
X352325Y293500D02*
X349500D01*
Y290675D01*
X349878Y290724D01*
X350696Y291063D01*
X351398Y291602D01*
X351937Y292304D01*
X352276Y293122D01*
X352325Y293500D01*
D02*
G37*
G36*
X348500D02*
X345675D01*
X345724Y293122D01*
X346063Y292304D01*
X346602Y291602D01*
X347304Y291063D01*
X348122Y290724D01*
X348500Y290675D01*
Y293500D01*
D02*
G37*
G36*
X309000Y294285D02*
X308020Y294156D01*
X307107Y293778D01*
X306324Y293177D01*
X305722Y292393D01*
X305344Y291480D01*
X305215Y290500D01*
X305344Y289520D01*
X305722Y288607D01*
X306324Y287824D01*
X307107Y287222D01*
X308020Y286844D01*
X309000Y286715D01*
X309980Y286844D01*
X310893Y287222D01*
X311677Y287824D01*
X312278Y288607D01*
X312656Y289520D01*
X312785Y290500D01*
X312656Y291480D01*
X312278Y292393D01*
X311677Y293177D01*
X310893Y293778D01*
X309980Y294156D01*
X309000Y294285D01*
D02*
G37*
G36*
X299000D02*
X298020Y294156D01*
X297107Y293778D01*
X296323Y293177D01*
X295722Y292393D01*
X295344Y291480D01*
X295215Y290500D01*
X295344Y289520D01*
X295722Y288607D01*
X296323Y287824D01*
X297107Y287222D01*
X298020Y286844D01*
X299000Y286715D01*
X299980Y286844D01*
X300893Y287222D01*
X301677Y287824D01*
X302278Y288607D01*
X302656Y289520D01*
X302785Y290500D01*
X302656Y291480D01*
X302278Y292393D01*
X301677Y293177D01*
X300893Y293778D01*
X299980Y294156D01*
X299000Y294285D01*
D02*
G37*
G36*
X292921Y290000D02*
X289500D01*
Y286579D01*
X290032Y286649D01*
X290993Y287047D01*
X291819Y287681D01*
X292453Y288507D01*
X292851Y289468D01*
X292921Y290000D01*
D02*
G37*
G36*
X288500D02*
X285079D01*
X285149Y289468D01*
X285547Y288507D01*
X286181Y287681D01*
X287007Y287047D01*
X287968Y286649D01*
X288500Y286579D01*
Y290000D01*
D02*
G37*
G36*
X209500Y288921D02*
X208968Y288851D01*
X208007Y288453D01*
X207181Y287819D01*
X206547Y286993D01*
X206149Y286032D01*
X206079Y285500D01*
X209500D01*
Y288921D01*
D02*
G37*
G36*
X425425Y286460D02*
Y284000D01*
X427885D01*
X427848Y284283D01*
X427546Y285013D01*
X427065Y285640D01*
X426438Y286121D01*
X425708Y286423D01*
X425425Y286460D01*
D02*
G37*
G36*
X252000Y288785D02*
X251020Y288656D01*
X250107Y288278D01*
X249324Y287677D01*
X248722Y286893D01*
X248344Y285980D01*
X248215Y285000D01*
X248344Y284020D01*
X248722Y283107D01*
X249324Y282324D01*
X250107Y281722D01*
X251020Y281344D01*
X252000Y281215D01*
X252980Y281344D01*
X253893Y281722D01*
X254677Y282324D01*
X255278Y283107D01*
X255656Y284020D01*
X255785Y285000D01*
X255656Y285980D01*
X255278Y286893D01*
X254677Y287677D01*
X253893Y288278D01*
X252980Y288656D01*
X252000Y288785D01*
D02*
G37*
G36*
X200000D02*
X199020Y288656D01*
X198107Y288278D01*
X197324Y287677D01*
X196722Y286893D01*
X196344Y285980D01*
X196215Y285000D01*
X196344Y284020D01*
X196722Y283107D01*
X197324Y282324D01*
X198107Y281722D01*
X199020Y281344D01*
X200000Y281215D01*
X200980Y281344D01*
X201893Y281722D01*
X202677Y282324D01*
X203278Y283107D01*
X203656Y284020D01*
X203785Y285000D01*
X203656Y285980D01*
X203278Y286893D01*
X202677Y287677D01*
X201893Y288278D01*
X200980Y288656D01*
X200000Y288785D01*
D02*
G37*
G36*
X190000D02*
X189020Y288656D01*
X188107Y288278D01*
X187323Y287677D01*
X186722Y286893D01*
X186344Y285980D01*
X186215Y285000D01*
X186344Y284020D01*
X186722Y283107D01*
X187323Y282324D01*
X188107Y281722D01*
X189020Y281344D01*
X190000Y281215D01*
X190980Y281344D01*
X191893Y281722D01*
X192676Y282324D01*
X193278Y283107D01*
X193656Y284020D01*
X193785Y285000D01*
X193656Y285980D01*
X193278Y286893D01*
X192676Y287677D01*
X191893Y288278D01*
X190980Y288656D01*
X190000Y288785D01*
D02*
G37*
G36*
X180000D02*
X179020Y288656D01*
X178107Y288278D01*
X177323Y287677D01*
X176722Y286893D01*
X176344Y285980D01*
X176215Y285000D01*
X176344Y284020D01*
X176722Y283107D01*
X177323Y282324D01*
X178107Y281722D01*
X179020Y281344D01*
X180000Y281215D01*
X180980Y281344D01*
X181893Y281722D01*
X182676Y282324D01*
X183278Y283107D01*
X183656Y284020D01*
X183785Y285000D01*
X183656Y285980D01*
X183278Y286893D01*
X182676Y287677D01*
X181893Y288278D01*
X180980Y288656D01*
X180000Y288785D01*
D02*
G37*
G36*
X170000D02*
X169020Y288656D01*
X168107Y288278D01*
X167324Y287677D01*
X166722Y286893D01*
X166344Y285980D01*
X166215Y285000D01*
X166344Y284020D01*
X166722Y283107D01*
X167324Y282324D01*
X168107Y281722D01*
X169020Y281344D01*
X170000Y281215D01*
X170980Y281344D01*
X171893Y281722D01*
X172677Y282324D01*
X173278Y283107D01*
X173656Y284020D01*
X173785Y285000D01*
X173656Y285980D01*
X173278Y286893D01*
X172677Y287677D01*
X171893Y288278D01*
X170980Y288656D01*
X170000Y288785D01*
D02*
G37*
G36*
X160000D02*
X159020Y288656D01*
X158107Y288278D01*
X157324Y287677D01*
X156722Y286893D01*
X156344Y285980D01*
X156215Y285000D01*
X156344Y284020D01*
X156722Y283107D01*
X157324Y282324D01*
X158107Y281722D01*
X159020Y281344D01*
X160000Y281215D01*
X160980Y281344D01*
X161893Y281722D01*
X162677Y282324D01*
X163278Y283107D01*
X163656Y284020D01*
X163785Y285000D01*
X163656Y285980D01*
X163278Y286893D01*
X162677Y287677D01*
X161893Y288278D01*
X160980Y288656D01*
X160000Y288785D01*
D02*
G37*
G36*
X150000D02*
X149020Y288656D01*
X148107Y288278D01*
X147324Y287677D01*
X146722Y286893D01*
X146344Y285980D01*
X146215Y285000D01*
X146344Y284020D01*
X146722Y283107D01*
X147324Y282324D01*
X148107Y281722D01*
X149020Y281344D01*
X150000Y281215D01*
X150980Y281344D01*
X151893Y281722D01*
X152676Y282324D01*
X153278Y283107D01*
X153656Y284020D01*
X153785Y285000D01*
X153656Y285980D01*
X153278Y286893D01*
X152676Y287677D01*
X151893Y288278D01*
X150980Y288656D01*
X150000Y288785D01*
D02*
G37*
G36*
X140000D02*
X139020Y288656D01*
X138107Y288278D01*
X137323Y287677D01*
X136722Y286893D01*
X136344Y285980D01*
X136215Y285000D01*
X136344Y284020D01*
X136722Y283107D01*
X137323Y282324D01*
X138107Y281722D01*
X139020Y281344D01*
X140000Y281215D01*
X140980Y281344D01*
X141893Y281722D01*
X142676Y282324D01*
X143278Y283107D01*
X143656Y284020D01*
X143785Y285000D01*
X143656Y285980D01*
X143278Y286893D01*
X142676Y287677D01*
X141893Y288278D01*
X140980Y288656D01*
X140000Y288785D01*
D02*
G37*
G36*
X130000D02*
X129020Y288656D01*
X128107Y288278D01*
X127323Y287677D01*
X126722Y286893D01*
X126344Y285980D01*
X126215Y285000D01*
X126344Y284020D01*
X126722Y283107D01*
X127323Y282324D01*
X128107Y281722D01*
X129020Y281344D01*
X130000Y281215D01*
X130980Y281344D01*
X131893Y281722D01*
X132676Y282324D01*
X133278Y283107D01*
X133656Y284020D01*
X133785Y285000D01*
X133656Y285980D01*
X133278Y286893D01*
X132676Y287677D01*
X131893Y288278D01*
X130980Y288656D01*
X130000Y288785D01*
D02*
G37*
G36*
X209500Y284500D02*
X206079D01*
X206149Y283968D01*
X206547Y283007D01*
X207181Y282181D01*
X208007Y281547D01*
X208968Y281149D01*
X209500Y281079D01*
Y284500D01*
D02*
G37*
G36*
X487917Y286324D02*
X487186Y286228D01*
X486505Y285946D01*
X485920Y285497D01*
X485471Y284912D01*
X485189Y284231D01*
X485093Y283500D01*
X485189Y282769D01*
X485471Y282088D01*
X485920Y281503D01*
X486505Y281054D01*
X487186Y280772D01*
X487917Y280676D01*
X488648Y280772D01*
X489329Y281054D01*
X489914Y281503D01*
X490363Y282088D01*
X490645Y282769D01*
X490741Y283500D01*
X490645Y284231D01*
X490363Y284912D01*
X489914Y285497D01*
X489329Y285946D01*
X488648Y286228D01*
X487917Y286324D01*
D02*
G37*
G36*
X480043D02*
X479312Y286228D01*
X478631Y285946D01*
X478046Y285497D01*
X477598Y284912D01*
X477315Y284231D01*
X477219Y283500D01*
X477315Y282769D01*
X477598Y282088D01*
X478046Y281503D01*
X478631Y281054D01*
X479312Y280772D01*
X480043Y280676D01*
X480774Y280772D01*
X481455Y281054D01*
X482040Y281503D01*
X482489Y282088D01*
X482771Y282769D01*
X482867Y283500D01*
X482771Y284231D01*
X482489Y284912D01*
X482040Y285497D01*
X481455Y285946D01*
X480774Y286228D01*
X480043Y286324D01*
D02*
G37*
G36*
X472169D02*
X471438Y286228D01*
X470757Y285946D01*
X470172Y285497D01*
X469724Y284912D01*
X469441Y284231D01*
X469345Y283500D01*
X469441Y282769D01*
X469724Y282088D01*
X470172Y281503D01*
X470757Y281054D01*
X471438Y280772D01*
X472169Y280676D01*
X472900Y280772D01*
X473581Y281054D01*
X474166Y281503D01*
X474615Y282088D01*
X474897Y282769D01*
X474994Y283500D01*
X474897Y284231D01*
X474615Y284912D01*
X474166Y285497D01*
X473581Y285946D01*
X472900Y286228D01*
X472169Y286324D01*
D02*
G37*
G36*
X464295D02*
X463564Y286228D01*
X462883Y285946D01*
X462298Y285497D01*
X461849Y284912D01*
X461567Y284231D01*
X461471Y283500D01*
X461567Y282769D01*
X461849Y282088D01*
X462298Y281503D01*
X462883Y281054D01*
X463564Y280772D01*
X464295Y280676D01*
X465026Y280772D01*
X465707Y281054D01*
X466292Y281503D01*
X466741Y282088D01*
X467023Y282769D01*
X467119Y283500D01*
X467023Y284231D01*
X466741Y284912D01*
X466292Y285497D01*
X465707Y285946D01*
X465026Y286228D01*
X464295Y286324D01*
D02*
G37*
G36*
X456421D02*
X455690Y286228D01*
X455009Y285946D01*
X454424Y285497D01*
X453975Y284912D01*
X453693Y284231D01*
X453597Y283500D01*
X453693Y282769D01*
X453975Y282088D01*
X454424Y281503D01*
X455009Y281054D01*
X455690Y280772D01*
X456421Y280676D01*
X457152Y280772D01*
X457833Y281054D01*
X458418Y281503D01*
X458867Y282088D01*
X459149Y282769D01*
X459245Y283500D01*
X459149Y284231D01*
X458867Y284912D01*
X458418Y285497D01*
X457833Y285946D01*
X457152Y286228D01*
X456421Y286324D01*
D02*
G37*
G36*
X448547D02*
X447816Y286228D01*
X447135Y285946D01*
X446550Y285497D01*
X446102Y284912D01*
X445819Y284231D01*
X445723Y283500D01*
X445819Y282769D01*
X446102Y282088D01*
X446550Y281503D01*
X447135Y281054D01*
X447816Y280772D01*
X448547Y280676D01*
X449278Y280772D01*
X449959Y281054D01*
X450544Y281503D01*
X450993Y282088D01*
X451275Y282769D01*
X451371Y283500D01*
X451275Y284231D01*
X450993Y284912D01*
X450544Y285497D01*
X449959Y285946D01*
X449278Y286228D01*
X448547Y286324D01*
D02*
G37*
G36*
X440673D02*
X439942Y286228D01*
X439261Y285946D01*
X438676Y285497D01*
X438227Y284912D01*
X437945Y284231D01*
X437849Y283500D01*
X437945Y282769D01*
X438227Y282088D01*
X438676Y281503D01*
X439261Y281054D01*
X439942Y280772D01*
X440673Y280676D01*
X441404Y280772D01*
X442085Y281054D01*
X442670Y281503D01*
X443119Y282088D01*
X443401Y282769D01*
X443497Y283500D01*
X443401Y284231D01*
X443119Y284912D01*
X442670Y285497D01*
X442085Y285946D01*
X441404Y286228D01*
X440673Y286324D01*
D02*
G37*
G36*
X432799D02*
X432068Y286228D01*
X431387Y285946D01*
X430802Y285497D01*
X430353Y284912D01*
X430071Y284231D01*
X429975Y283500D01*
X430071Y282769D01*
X430353Y282088D01*
X430802Y281503D01*
X431387Y281054D01*
X432068Y280772D01*
X432799Y280676D01*
X433530Y280772D01*
X434211Y281054D01*
X434796Y281503D01*
X435245Y282088D01*
X435527Y282769D01*
X435623Y283500D01*
X435527Y284231D01*
X435245Y284912D01*
X434796Y285497D01*
X434211Y285946D01*
X433530Y286228D01*
X432799Y286324D01*
D02*
G37*
G36*
X369500Y304825D02*
X332000D01*
X331493Y304725D01*
X331063Y304437D01*
X320878Y294253D01*
X317122D01*
X311937Y299437D01*
X311507Y299725D01*
X311000Y299826D01*
X255500D01*
X254993Y299725D01*
X254563Y299437D01*
X253878Y298753D01*
X248247D01*
Y296325D01*
X223753D01*
Y298753D01*
X216247D01*
Y293122D01*
X214063Y290937D01*
X213775Y290507D01*
X213674Y290000D01*
Y287526D01*
X213175Y287356D01*
X212819Y287819D01*
X211993Y288453D01*
X211032Y288851D01*
X210500Y288921D01*
Y285000D01*
Y281079D01*
X211032Y281149D01*
X211993Y281547D01*
X212268Y281143D01*
X211451Y280326D01*
X207500D01*
X206993Y280225D01*
X206563Y279937D01*
X194951Y268325D01*
X173380D01*
X173158Y268658D01*
X172397Y269167D01*
X171500Y269345D01*
X170603Y269167D01*
X169842Y268658D01*
X169333Y267897D01*
X169155Y267000D01*
X169333Y266103D01*
X169842Y265342D01*
X170603Y264833D01*
X171500Y264655D01*
X172397Y264833D01*
X173158Y265342D01*
X173380Y265674D01*
X191647D01*
X191838Y265213D01*
X185063Y258437D01*
X184775Y258007D01*
X184675Y257500D01*
Y256556D01*
X183035D01*
Y251909D01*
X179998Y248873D01*
X179676D01*
X179206Y248944D01*
X179206Y249373D01*
Y256056D01*
X177369D01*
Y258148D01*
X177658Y258342D01*
X178167Y259103D01*
X178345Y260000D01*
X178167Y260897D01*
X177658Y261658D01*
X176897Y262167D01*
X176000Y262345D01*
X175103Y262167D01*
X174342Y261658D01*
X174119Y261326D01*
X158500D01*
X157993Y261225D01*
X157563Y260937D01*
X157018Y260392D01*
X156556Y260584D01*
Y261418D01*
X149444D01*
Y259778D01*
X143556D01*
Y261418D01*
X136444D01*
Y255713D01*
X136244D01*
Y253047D01*
X143756D01*
Y255713D01*
X143556D01*
Y257127D01*
X149444D01*
Y255713D01*
X149244D01*
Y253047D01*
X153000D01*
X156756D01*
Y255713D01*
X156556D01*
Y257127D01*
X156953D01*
X157460Y257228D01*
X157890Y257516D01*
X159049Y258675D01*
X174119D01*
X174342Y258342D01*
X174718Y258090D01*
Y256056D01*
X172881D01*
Y248944D01*
X173398D01*
X173550Y248614D01*
X173570Y248444D01*
X171563Y246437D01*
X171531Y246390D01*
X171034Y246341D01*
X170282Y247092D01*
Y248944D01*
X172119D01*
Y256056D01*
X165795D01*
Y248944D01*
X167631D01*
Y246543D01*
X167732Y246036D01*
X168019Y245606D01*
X169206Y244420D01*
Y236181D01*
X169063Y236063D01*
Y231323D01*
Y226946D01*
X169184Y226970D01*
X169710Y227322D01*
X169720Y227338D01*
X169989Y227159D01*
X170531Y227051D01*
X171074Y227159D01*
X171516Y227454D01*
X171957Y227159D01*
X172500Y227051D01*
X173043Y227159D01*
X173484Y227454D01*
X173926Y227159D01*
X174469Y227051D01*
X175011Y227159D01*
X175453Y227454D01*
X175894Y227159D01*
X176437Y227051D01*
X176980Y227159D01*
X177421Y227454D01*
X177863Y227159D01*
X178405Y227051D01*
X178948Y227159D01*
X179390Y227454D01*
X179831Y227159D01*
X180374Y227051D01*
X180917Y227159D01*
X181358Y227454D01*
X181800Y227159D01*
X182343Y227051D01*
X182885Y227159D01*
X183327Y227454D01*
X183768Y227159D01*
X184311Y227051D01*
X184854Y227159D01*
X185295Y227454D01*
X185737Y227159D01*
X186279Y227051D01*
X186822Y227159D01*
X187264Y227454D01*
X187706Y227159D01*
X188248Y227051D01*
X188791Y227159D01*
X189232Y227454D01*
X189674Y227159D01*
X190217Y227051D01*
X190759Y227159D01*
X191201Y227454D01*
X191642Y227159D01*
X192185Y227051D01*
X192728Y227159D01*
X193169Y227454D01*
X193611Y227159D01*
X194153Y227051D01*
X194696Y227159D01*
X195138Y227454D01*
X195580Y227159D01*
X196122Y227051D01*
X196665Y227159D01*
X197125Y227466D01*
X197432Y227926D01*
X197540Y228468D01*
Y234177D01*
X197432Y234720D01*
X197125Y235180D01*
X196665Y235487D01*
X196122Y235595D01*
X195580Y235487D01*
X195138Y235192D01*
X194696Y235487D01*
X194153Y235595D01*
X193611Y235487D01*
X193169Y235192D01*
X192728Y235487D01*
X192185Y235595D01*
X191642Y235487D01*
X191201Y235192D01*
X190759Y235487D01*
X190217Y235595D01*
X189674Y235487D01*
X189232Y235192D01*
X188791Y235487D01*
X188248Y235595D01*
X187706Y235487D01*
X187264Y235192D01*
X186822Y235487D01*
X186279Y235595D01*
X185737Y235487D01*
X185295Y235192D01*
X184854Y235487D01*
X184311Y235595D01*
X183768Y235487D01*
X183327Y235192D01*
X182885Y235487D01*
X182343Y235595D01*
X182200Y235566D01*
X181700Y235976D01*
Y236982D01*
X184392Y239674D01*
X187619D01*
X187842Y239342D01*
X188603Y238833D01*
X189500Y238655D01*
X190397Y238833D01*
X191158Y239342D01*
X191667Y240103D01*
X191845Y241000D01*
X191667Y241897D01*
X191158Y242658D01*
X190397Y243167D01*
X189500Y243345D01*
X188603Y243167D01*
X187842Y242658D01*
X187619Y242325D01*
X184128D01*
X183976Y242826D01*
X184001Y242842D01*
X184509Y243603D01*
X184688Y244500D01*
X184509Y245397D01*
X184001Y246158D01*
X183240Y246667D01*
X182413Y246831D01*
X182153Y247278D01*
X184319Y249444D01*
X188740D01*
Y249244D01*
X191405D01*
Y253000D01*
Y256756D01*
X188740D01*
Y256556D01*
X187579D01*
X187430Y257056D01*
X196437Y266063D01*
X208049Y277675D01*
X212000D01*
X212507Y277775D01*
X212937Y278063D01*
X215937Y281063D01*
X216225Y281493D01*
X216325Y282000D01*
Y282803D01*
X216826Y282973D01*
X217323Y282324D01*
X218107Y281722D01*
X218674Y281487D01*
Y261500D01*
X218775Y260993D01*
X219063Y260563D01*
X228733Y250892D01*
X228655Y250500D01*
X228833Y249603D01*
X229342Y248842D01*
X230103Y248333D01*
X231000Y248155D01*
X231897Y248333D01*
X232658Y248842D01*
X233167Y249603D01*
X233345Y250500D01*
X233167Y251397D01*
X232658Y252158D01*
X231897Y252667D01*
X231000Y252845D01*
X230608Y252767D01*
X221325Y262049D01*
Y281487D01*
X221893Y281722D01*
X222676Y282324D01*
X223278Y283107D01*
X223656Y284020D01*
X223785Y285000D01*
X223656Y285980D01*
X223278Y286893D01*
X222676Y287677D01*
X221893Y288278D01*
X220980Y288656D01*
X220000Y288785D01*
X219020Y288656D01*
X218107Y288278D01*
X217323Y287677D01*
X216826Y287027D01*
X216325Y287197D01*
Y289451D01*
X218122Y291247D01*
X223753D01*
Y293674D01*
X248247D01*
Y291247D01*
X255753D01*
Y296878D01*
X256049Y297175D01*
X310451D01*
X315247Y292378D01*
Y286747D01*
X322753D01*
Y292378D01*
X332549Y302174D01*
X368951D01*
X376031Y295095D01*
X375919Y294826D01*
X375811Y294000D01*
X375919Y293175D01*
X376238Y292405D01*
X376745Y291745D01*
X377405Y291238D01*
X378174Y290919D01*
X379000Y290810D01*
X379825Y290919D01*
X380595Y291238D01*
X381255Y291745D01*
X381762Y292405D01*
X382081Y293175D01*
X382189Y294000D01*
X382081Y294826D01*
X381969Y295095D01*
X388049Y301174D01*
X476242D01*
X492956Y284461D01*
Y282500D01*
X493096Y281798D01*
X493494Y281202D01*
X494089Y280804D01*
X494791Y280665D01*
X496791D01*
X497494Y280804D01*
X498089Y281202D01*
X498487Y281798D01*
X498627Y282500D01*
Y284500D01*
X498487Y285202D01*
X498089Y285798D01*
X497494Y286196D01*
X496791Y286335D01*
X494831D01*
X477729Y303437D01*
X477299Y303725D01*
X476791Y303825D01*
X387500D01*
X386993Y303725D01*
X386563Y303437D01*
X380095Y296969D01*
X379825Y297081D01*
X379000Y297189D01*
X378174Y297081D01*
X377905Y296969D01*
X370437Y304437D01*
X370007Y304725D01*
X369500Y304825D01*
D02*
G37*
G36*
X427885Y283000D02*
X425425D01*
Y280540D01*
X425708Y280577D01*
X426438Y280879D01*
X427065Y281360D01*
X427546Y281987D01*
X427848Y282717D01*
X427885Y283000D01*
D02*
G37*
G36*
X424425Y286460D02*
X424142Y286423D01*
X423412Y286121D01*
X422786Y285640D01*
X422305Y285013D01*
X422227Y284825D01*
X384000D01*
X383493Y284725D01*
X383063Y284437D01*
X374049Y275424D01*
X373481Y275659D01*
X373000Y275723D01*
Y272500D01*
X376222D01*
X376159Y272980D01*
X375924Y273549D01*
X384549Y282174D01*
X422227D01*
X422305Y281987D01*
X422786Y281360D01*
X423412Y280879D01*
X424142Y280577D01*
X424425Y280540D01*
Y283500D01*
Y286460D01*
D02*
G37*
G36*
X319000Y284285D02*
X318020Y284156D01*
X317107Y283778D01*
X316323Y283176D01*
X315722Y282393D01*
X315344Y281480D01*
X315215Y280500D01*
X315344Y279520D01*
X315722Y278607D01*
X316323Y277823D01*
X317107Y277222D01*
X318020Y276844D01*
X319000Y276715D01*
X319980Y276844D01*
X320893Y277222D01*
X321676Y277823D01*
X322278Y278607D01*
X322656Y279520D01*
X322785Y280500D01*
X322656Y281480D01*
X322278Y282393D01*
X321676Y283176D01*
X320893Y283778D01*
X319980Y284156D01*
X319000Y284285D01*
D02*
G37*
G36*
X372000Y275723D02*
X371519Y275659D01*
X370606Y275281D01*
X369821Y274679D01*
X369219Y273894D01*
X368841Y272980D01*
X368777Y272500D01*
X372000D01*
Y275723D01*
D02*
G37*
G36*
X342500Y275587D02*
X341572Y275464D01*
X340707Y275106D01*
X339964Y274536D01*
X339394Y273793D01*
X339036Y272928D01*
X338913Y272000D01*
X339036Y271072D01*
X339394Y270207D01*
X339964Y269464D01*
X340707Y268894D01*
X341572Y268536D01*
X342500Y268413D01*
X343428Y268536D01*
X344293Y268894D01*
X345036Y269464D01*
X345606Y270207D01*
X345964Y271072D01*
X346087Y272000D01*
X345964Y272928D01*
X345606Y273793D01*
X345036Y274536D01*
X344293Y275106D01*
X343428Y275464D01*
X342500Y275587D01*
D02*
G37*
G36*
X376222Y271500D02*
X373000D01*
Y268278D01*
X373481Y268341D01*
X374394Y268719D01*
X375179Y269321D01*
X375781Y270106D01*
X376159Y271020D01*
X376222Y271500D01*
D02*
G37*
G36*
X372000D02*
X368777D01*
X368841Y271020D01*
X369219Y270106D01*
X369821Y269321D01*
X370606Y268719D01*
X371519Y268341D01*
X372000Y268278D01*
Y271500D01*
D02*
G37*
G36*
X195071Y256756D02*
X192405D01*
Y253500D01*
X195071D01*
Y256756D01*
D02*
G37*
G36*
X156756Y252047D02*
X153500D01*
Y249382D01*
X156756D01*
Y252047D01*
D02*
G37*
G36*
X152500D02*
X149244D01*
Y249382D01*
X152500D01*
Y252047D01*
D02*
G37*
G36*
X143756Y252047D02*
X140500D01*
Y249382D01*
X143756D01*
Y252047D01*
D02*
G37*
G36*
X139500D02*
X136244D01*
Y249382D01*
X139500D01*
Y252047D01*
D02*
G37*
G36*
X195071Y252500D02*
X192405D01*
Y249244D01*
X195071D01*
Y252500D01*
D02*
G37*
G36*
X334000Y251421D02*
Y248000D01*
X337421D01*
X337351Y248532D01*
X336953Y249493D01*
X336319Y250319D01*
X335493Y250953D01*
X334532Y251351D01*
X334000Y251421D01*
D02*
G37*
G36*
X333000D02*
X332468Y251351D01*
X331507Y250953D01*
X330681Y250319D01*
X330047Y249493D01*
X329649Y248532D01*
X329579Y248000D01*
X333000D01*
Y251421D01*
D02*
G37*
G36*
X365000Y253785D02*
X364020Y253656D01*
X363107Y253278D01*
X362323Y252677D01*
X361722Y251893D01*
X361344Y250980D01*
X361215Y250000D01*
X361344Y249020D01*
X361722Y248107D01*
X362323Y247323D01*
X363107Y246722D01*
X364020Y246344D01*
X365000Y246215D01*
X365980Y246344D01*
X366893Y246722D01*
X367676Y247323D01*
X368278Y248107D01*
X368656Y249020D01*
X368785Y250000D01*
X368656Y250980D01*
X368278Y251893D01*
X367676Y252677D01*
X366893Y253278D01*
X365980Y253656D01*
X365000Y253785D01*
D02*
G37*
G36*
X303500Y251285D02*
X302520Y251156D01*
X301607Y250778D01*
X300823Y250177D01*
X300222Y249393D01*
X299844Y248480D01*
X299715Y247500D01*
X299844Y246520D01*
X300222Y245607D01*
X300823Y244824D01*
X301607Y244222D01*
X302520Y243844D01*
X303500Y243715D01*
X304480Y243844D01*
X305393Y244222D01*
X306176Y244824D01*
X306778Y245607D01*
X307156Y246520D01*
X307285Y247500D01*
X307156Y248480D01*
X306778Y249393D01*
X306176Y250177D01*
X305393Y250778D01*
X304480Y251156D01*
X303500Y251285D01*
D02*
G37*
G36*
X337421Y247000D02*
X334000D01*
Y243579D01*
X334532Y243649D01*
X335493Y244047D01*
X336319Y244681D01*
X336953Y245507D01*
X337351Y246468D01*
X337421Y247000D01*
D02*
G37*
G36*
X333000D02*
X329579D01*
X329649Y246468D01*
X330047Y245507D01*
X330681Y244681D01*
X331507Y244047D01*
X332468Y243649D01*
X333000Y243579D01*
Y247000D01*
D02*
G37*
G36*
X152815Y243345D02*
X151918Y243167D01*
X151157Y242658D01*
X150648Y241897D01*
X150470Y241000D01*
X150648Y240103D01*
X151157Y239342D01*
X151489Y239120D01*
Y235976D01*
X150989Y235566D01*
X150847Y235595D01*
X150304Y235487D01*
X149862Y235192D01*
X149420Y235487D01*
X148878Y235595D01*
X148335Y235487D01*
X147875Y235180D01*
X147568Y234720D01*
X147460Y234177D01*
Y228468D01*
X147568Y227926D01*
X147875Y227466D01*
X148335Y227159D01*
X148878Y227051D01*
X149420Y227159D01*
X149862Y227454D01*
X150304Y227159D01*
X150847Y227051D01*
X151389Y227159D01*
X151831Y227454D01*
X152272Y227159D01*
X152815Y227051D01*
X153358Y227159D01*
X153799Y227454D01*
X154241Y227159D01*
X154783Y227051D01*
X155326Y227159D01*
X155768Y227454D01*
X156209Y227159D01*
X156752Y227051D01*
X157294Y227159D01*
X157736Y227454D01*
X158178Y227159D01*
X158721Y227051D01*
X159263Y227159D01*
X159705Y227454D01*
X160146Y227159D01*
X160689Y227051D01*
X161232Y227159D01*
X161673Y227454D01*
X162115Y227159D01*
X162657Y227051D01*
X163200Y227159D01*
X163642Y227454D01*
X164083Y227159D01*
X164626Y227051D01*
X165168Y227159D01*
X165610Y227454D01*
X166052Y227159D01*
X166595Y227051D01*
X167137Y227159D01*
X167405Y227338D01*
X167416Y227322D01*
X167942Y226970D01*
X168063Y226946D01*
Y231323D01*
Y235699D01*
X167942Y235675D01*
X167416Y235324D01*
X167405Y235308D01*
X167137Y235487D01*
X166595Y235595D01*
X166052Y235487D01*
X165610Y235192D01*
X165168Y235487D01*
X164626Y235595D01*
X164083Y235487D01*
X163642Y235192D01*
X163200Y235487D01*
X162657Y235595D01*
X162115Y235487D01*
X161673Y235192D01*
X161232Y235487D01*
X160689Y235595D01*
X160146Y235487D01*
X159705Y235192D01*
X159263Y235487D01*
X158721Y235595D01*
X158178Y235487D01*
X157736Y235192D01*
X157294Y235487D01*
X156752Y235595D01*
X156209Y235487D01*
X155768Y235192D01*
X155326Y235487D01*
X154783Y235595D01*
X154640Y235566D01*
X154140Y235976D01*
Y239120D01*
X154473Y239342D01*
X154982Y240103D01*
X155160Y241000D01*
X154982Y241897D01*
X154473Y242658D01*
X153712Y243167D01*
X152815Y243345D01*
D02*
G37*
G36*
X333500Y241285D02*
X332520Y241156D01*
X331607Y240778D01*
X330823Y240177D01*
X330222Y239393D01*
X329844Y238480D01*
X329715Y237500D01*
X329844Y236520D01*
X330222Y235607D01*
X330823Y234823D01*
X331607Y234222D01*
X332520Y233844D01*
X333500Y233715D01*
X334480Y233844D01*
X335393Y234222D01*
X336176Y234823D01*
X336778Y235607D01*
X337156Y236520D01*
X337285Y237500D01*
X337156Y238480D01*
X336778Y239393D01*
X336176Y240177D01*
X335393Y240778D01*
X334480Y241156D01*
X333500Y241285D01*
D02*
G37*
G36*
X303500D02*
X302520Y241156D01*
X301607Y240778D01*
X300823Y240177D01*
X300222Y239393D01*
X299844Y238480D01*
X299715Y237500D01*
X299763Y237137D01*
X290063Y227437D01*
X289775Y227007D01*
X289674Y226500D01*
Y170380D01*
X289342Y170158D01*
X288833Y169397D01*
X288655Y168500D01*
X288833Y167603D01*
X289342Y166842D01*
X290103Y166333D01*
X291000Y166155D01*
X291897Y166333D01*
X292658Y166842D01*
X293167Y167603D01*
X293345Y168500D01*
X293167Y169397D01*
X292658Y170158D01*
X292325Y170380D01*
Y225951D01*
X301035Y234661D01*
X301607Y234222D01*
X302520Y233844D01*
X303500Y233715D01*
X304480Y233844D01*
X305393Y234222D01*
X306176Y234823D01*
X306778Y235607D01*
X307156Y236520D01*
X307285Y237500D01*
X307156Y238480D01*
X306778Y239393D01*
X306176Y240177D01*
X305393Y240778D01*
X304480Y241156D01*
X303500Y241285D01*
D02*
G37*
G36*
X369453Y230953D02*
X366000D01*
Y227500D01*
X369453D01*
Y230953D01*
D02*
G37*
G36*
X378753Y253753D02*
X371247D01*
Y246247D01*
X372219D01*
X372411Y245785D01*
X336951Y210326D01*
X317000D01*
X317000Y210326D01*
X316493Y210225D01*
X316063Y209937D01*
X308884Y202759D01*
X306013D01*
X305778Y203326D01*
X305176Y204110D01*
X304393Y204711D01*
X303480Y205089D01*
X302500Y205218D01*
X301520Y205089D01*
X300607Y204711D01*
X299823Y204110D01*
X299222Y203326D01*
X298844Y202413D01*
X298715Y201433D01*
X298844Y200453D01*
X299222Y199540D01*
X299823Y198757D01*
X300607Y198155D01*
X301520Y197777D01*
X302500Y197648D01*
X303480Y197777D01*
X304393Y198155D01*
X305176Y198757D01*
X305778Y199540D01*
X306013Y200108D01*
X309433D01*
X309940Y200208D01*
X310370Y200496D01*
X317549Y207675D01*
X337500D01*
X338007Y207775D01*
X338437Y208063D01*
X361047Y230673D01*
X361547Y230466D01*
Y227500D01*
X365000D01*
Y230953D01*
X362034D01*
X361827Y231453D01*
X375937Y245563D01*
X376225Y245993D01*
X376275Y246247D01*
X378753D01*
Y253753D01*
D02*
G37*
G36*
X333500Y231285D02*
X332520Y231156D01*
X331607Y230778D01*
X330823Y230176D01*
X330222Y229393D01*
X329844Y228480D01*
X329715Y227500D01*
X329844Y226520D01*
X330222Y225607D01*
X330823Y224823D01*
X331607Y224222D01*
X332520Y223844D01*
X333500Y223715D01*
X334480Y223844D01*
X335393Y224222D01*
X336176Y224823D01*
X336778Y225607D01*
X337156Y226520D01*
X337285Y227500D01*
X337156Y228480D01*
X336778Y229393D01*
X336176Y230176D01*
X335393Y230778D01*
X334480Y231156D01*
X333500Y231285D01*
D02*
G37*
G36*
X303500D02*
X302520Y231156D01*
X301607Y230778D01*
X300823Y230176D01*
X300222Y229393D01*
X299844Y228480D01*
X299715Y227500D01*
X299844Y226520D01*
X300079Y225953D01*
X294563Y220437D01*
X294275Y220007D01*
X294175Y219500D01*
Y199500D01*
X294275Y198993D01*
X294563Y198563D01*
X299563Y193563D01*
X299993Y193275D01*
X300500Y193175D01*
X301714D01*
X301866Y192675D01*
X301842Y192658D01*
X301333Y191897D01*
X301155Y191000D01*
X301333Y190103D01*
X301842Y189342D01*
X302603Y188833D01*
X303500Y188655D01*
X304397Y188833D01*
X305158Y189342D01*
X305381Y189674D01*
X334593D01*
X334800Y189174D01*
X330393Y184767D01*
X330000Y184845D01*
X329103Y184667D01*
X328342Y184158D01*
X327833Y183397D01*
X327655Y182500D01*
X327833Y181603D01*
X328342Y180842D01*
X329103Y180333D01*
X330000Y180155D01*
X330897Y180333D01*
X331658Y180842D01*
X332167Y181603D01*
X332345Y182500D01*
X332267Y182893D01*
X336549Y187174D01*
X349184D01*
X349431Y186674D01*
X349063Y186196D01*
X348724Y185378D01*
X348675Y185000D01*
X355325D01*
X355276Y185378D01*
X354937Y186196D01*
X354569Y186674D01*
X354816Y187174D01*
X367451D01*
X380675Y173951D01*
Y169800D01*
X380207Y169606D01*
X379464Y169036D01*
X378894Y168293D01*
X378536Y167428D01*
X378413Y166500D01*
X378536Y165572D01*
X378894Y164707D01*
X379464Y163964D01*
X380207Y163394D01*
X381072Y163036D01*
X382000Y162913D01*
X382928Y163036D01*
X383793Y163394D01*
X384536Y163964D01*
X385106Y164707D01*
X385464Y165572D01*
X385587Y166500D01*
X385464Y167428D01*
X385271Y167896D01*
X391049Y173674D01*
X414951D01*
X418175Y170451D01*
Y168413D01*
X417441D01*
Y166035D01*
Y163657D01*
X418728D01*
Y163857D01*
X423646D01*
Y168213D01*
X423385D01*
Y169451D01*
X425108Y171175D01*
X428951D01*
X433674Y166451D01*
Y145800D01*
X433207Y145606D01*
X432464Y145036D01*
X431894Y144293D01*
X431536Y143428D01*
X431413Y142500D01*
X431536Y141572D01*
X431894Y140707D01*
X432464Y139964D01*
X433207Y139394D01*
X434072Y139036D01*
X435000Y138913D01*
X435928Y139036D01*
X436793Y139394D01*
X437536Y139964D01*
X438106Y140707D01*
X438464Y141572D01*
X438587Y142500D01*
X438464Y143428D01*
X438106Y144293D01*
X437536Y145036D01*
X436793Y145606D01*
X436326Y145800D01*
Y167000D01*
X436225Y167507D01*
X435937Y167937D01*
X430437Y173437D01*
X430007Y173725D01*
X429500Y173826D01*
X425108D01*
X403496Y195437D01*
X403066Y195725D01*
X402559Y195826D01*
X301049D01*
X296826Y200049D01*
Y218951D01*
X301953Y224079D01*
X302520Y223844D01*
X303500Y223715D01*
X304480Y223844D01*
X305393Y224222D01*
X306176Y224823D01*
X306778Y225607D01*
X307156Y226520D01*
X307285Y227500D01*
X307156Y228480D01*
X306778Y229393D01*
X306176Y230176D01*
X305393Y230778D01*
X304480Y231156D01*
X303500Y231285D01*
D02*
G37*
G36*
X369453Y226500D02*
X366000D01*
Y223047D01*
X369453D01*
Y226500D01*
D02*
G37*
G36*
X365000D02*
X361547D01*
Y223047D01*
X365000D01*
Y226500D01*
D02*
G37*
G36*
X337253Y221253D02*
X329747D01*
Y213747D01*
X337253D01*
Y221253D01*
D02*
G37*
G36*
X303500Y221285D02*
X302520Y221156D01*
X301607Y220778D01*
X300823Y220177D01*
X300222Y219393D01*
X299844Y218480D01*
X299715Y217500D01*
X299844Y216520D01*
X300222Y215607D01*
X300823Y214824D01*
X301607Y214222D01*
X302520Y213844D01*
X303500Y213715D01*
X304480Y213844D01*
X305393Y214222D01*
X306176Y214824D01*
X306778Y215607D01*
X307156Y216520D01*
X307285Y217500D01*
X307156Y218480D01*
X306778Y219393D01*
X306176Y220177D01*
X305393Y220778D01*
X304480Y221156D01*
X303500Y221285D01*
D02*
G37*
G36*
X309000Y284285D02*
X308020Y284156D01*
X307107Y283778D01*
X306324Y283176D01*
X305722Y282393D01*
X305344Y281480D01*
X305215Y280500D01*
X305344Y279520D01*
X305722Y278607D01*
X306324Y277823D01*
X307107Y277222D01*
X307675Y276987D01*
Y270049D01*
X286498Y248873D01*
X277047D01*
X276540Y248772D01*
X276110Y248484D01*
X238325Y210700D01*
X237727D01*
X237536Y211161D01*
X299937Y273563D01*
X300225Y273993D01*
X300325Y274500D01*
Y276987D01*
X300893Y277222D01*
X301677Y277823D01*
X302278Y278607D01*
X302656Y279520D01*
X302785Y280500D01*
X302656Y281480D01*
X302278Y282393D01*
X301677Y283176D01*
X300893Y283778D01*
X299980Y284156D01*
X299000Y284285D01*
X298020Y284156D01*
X297107Y283778D01*
X296323Y283176D01*
X295722Y282393D01*
X295344Y281480D01*
X295215Y280500D01*
X295344Y279520D01*
X295722Y278607D01*
X296323Y277823D01*
X297107Y277222D01*
X297674Y276987D01*
Y275049D01*
X235294Y212668D01*
X232696D01*
X232504Y213130D01*
X279608Y260233D01*
X280000Y260155D01*
X280897Y260333D01*
X281658Y260842D01*
X282167Y261603D01*
X282345Y262500D01*
X282167Y263397D01*
X281658Y264158D01*
X280897Y264667D01*
X280000Y264845D01*
X279908Y264827D01*
X279662Y265288D01*
X289937Y275563D01*
X290225Y275993D01*
X290325Y276500D01*
Y276987D01*
X290893Y277222D01*
X291676Y277823D01*
X292278Y278607D01*
X292656Y279520D01*
X292785Y280500D01*
X292656Y281480D01*
X292278Y282393D01*
X291676Y283176D01*
X290893Y283778D01*
X289980Y284156D01*
X289000Y284285D01*
X288020Y284156D01*
X287107Y283778D01*
X286323Y283176D01*
X285722Y282393D01*
X285344Y281480D01*
X285215Y280500D01*
X285344Y279520D01*
X285722Y278607D01*
X286323Y277823D01*
X287107Y277222D01*
X287215Y277177D01*
X287313Y276687D01*
X227231Y216605D01*
X206976D01*
X206567Y217105D01*
X206595Y217248D01*
X206487Y217791D01*
X206192Y218232D01*
X206487Y218674D01*
X206595Y219216D01*
X206567Y219360D01*
X206976Y219860D01*
X225185D01*
X225692Y219960D01*
X226122Y220248D01*
X264937Y259063D01*
X265225Y259493D01*
X265325Y260000D01*
Y264619D01*
X265658Y264842D01*
X266167Y265603D01*
X266345Y266500D01*
X266167Y267397D01*
X265658Y268158D01*
X264897Y268667D01*
X264000Y268845D01*
X263103Y268667D01*
X262342Y268158D01*
X261833Y267397D01*
X261655Y266500D01*
X261833Y265603D01*
X262342Y264842D01*
X262674Y264619D01*
Y260549D01*
X224636Y222511D01*
X220349D01*
X220158Y222972D01*
X253937Y256752D01*
X254225Y257182D01*
X254326Y257689D01*
Y269120D01*
X254658Y269342D01*
X255167Y270103D01*
X255345Y271000D01*
X255167Y271897D01*
X254658Y272658D01*
X253897Y273167D01*
X253000Y273345D01*
X252103Y273167D01*
X251342Y272658D01*
X250833Y271897D01*
X250655Y271000D01*
X250833Y270103D01*
X251342Y269342D01*
X251675Y269120D01*
Y258238D01*
X217916Y224479D01*
X206976D01*
X206567Y224979D01*
X206595Y225122D01*
X206487Y225665D01*
X206180Y226125D01*
X205720Y226432D01*
X205177Y226540D01*
X199469D01*
X198926Y226432D01*
X198466Y226125D01*
X198159Y225665D01*
X198051Y225122D01*
X198159Y224580D01*
X198454Y224138D01*
X198159Y223696D01*
X198051Y223153D01*
X198159Y222611D01*
X198454Y222169D01*
X198159Y221728D01*
X198051Y221185D01*
X198159Y220642D01*
X198454Y220201D01*
X198159Y219759D01*
X198051Y219216D01*
X198159Y218674D01*
X198454Y218232D01*
X198159Y217791D01*
X198051Y217248D01*
X198159Y216705D01*
X198454Y216264D01*
X198159Y215822D01*
X198051Y215280D01*
X198159Y214737D01*
X198454Y214295D01*
X198159Y213854D01*
X198051Y213311D01*
X198159Y212769D01*
X198454Y212327D01*
X198159Y211885D01*
X198051Y211343D01*
X198159Y210800D01*
X198454Y210358D01*
X198159Y209917D01*
X198051Y209374D01*
X198159Y208831D01*
X198454Y208390D01*
X198159Y207948D01*
X198051Y207405D01*
X198159Y206863D01*
X198454Y206421D01*
X198159Y205980D01*
X198051Y205437D01*
X198159Y204894D01*
X198454Y204453D01*
X198159Y204011D01*
X198051Y203468D01*
X198159Y202926D01*
X198454Y202484D01*
X198159Y202043D01*
X198051Y201500D01*
X198159Y200957D01*
X198454Y200516D01*
X198159Y200074D01*
X198051Y199531D01*
X198159Y198989D01*
X198454Y198547D01*
X198159Y198106D01*
X198051Y197563D01*
X198159Y197020D01*
X198454Y196579D01*
X198159Y196137D01*
X198051Y195595D01*
X198159Y195052D01*
X198338Y194783D01*
X198322Y194773D01*
X197970Y194247D01*
X197946Y194126D01*
X202323D01*
X206699D01*
X206675Y194247D01*
X206324Y194773D01*
X206308Y194783D01*
X206487Y195052D01*
X206595Y195595D01*
X206487Y196137D01*
X206192Y196579D01*
X206487Y197020D01*
X206595Y197563D01*
X206567Y197706D01*
X206976Y198206D01*
X209098D01*
X209342Y197842D01*
X210103Y197333D01*
X211000Y197155D01*
X211897Y197333D01*
X212658Y197842D01*
X212902Y198206D01*
X218944D01*
Y197213D01*
X218744D01*
Y194547D01*
X226256D01*
Y197115D01*
X226678Y197400D01*
X227222Y196856D01*
Y158412D01*
X226842Y158158D01*
X226333Y157397D01*
X226155Y156500D01*
X226333Y155603D01*
X226842Y154842D01*
X227603Y154333D01*
X228500Y154155D01*
X229397Y154333D01*
X230158Y154842D01*
X230667Y155603D01*
X230845Y156500D01*
X230667Y157397D01*
X230158Y158158D01*
X229873Y158349D01*
Y197406D01*
X229772Y197913D01*
X229485Y198343D01*
X226937Y200890D01*
X226507Y201177D01*
X226056Y201267D01*
Y202918D01*
X218944D01*
Y200857D01*
X212860D01*
X212658Y201158D01*
X211897Y201667D01*
X211000Y201845D01*
X210103Y201667D01*
X209342Y201158D01*
X209140Y200857D01*
X206976D01*
X206567Y201357D01*
X206595Y201500D01*
X206487Y202043D01*
X206192Y202484D01*
X206487Y202926D01*
X206595Y203468D01*
X206487Y204011D01*
X206192Y204453D01*
X206487Y204894D01*
X206595Y205437D01*
X206487Y205980D01*
X206192Y206421D01*
X206487Y206863D01*
X206595Y207405D01*
X206567Y207548D01*
X206976Y208049D01*
X238874D01*
X239381Y208149D01*
X239811Y208437D01*
X277596Y246222D01*
X287047D01*
X287555Y246323D01*
X287984Y246610D01*
X309937Y268563D01*
X310225Y268993D01*
X310326Y269500D01*
Y276987D01*
X310893Y277222D01*
X311677Y277823D01*
X312278Y278607D01*
X312656Y279520D01*
X312785Y280500D01*
X312656Y281480D01*
X312278Y282393D01*
X311677Y283176D01*
X310893Y283778D01*
X309980Y284156D01*
X309000Y284285D01*
D02*
G37*
G36*
X352000Y212325D02*
Y209500D01*
X354825D01*
X354776Y209878D01*
X354437Y210696D01*
X353898Y211398D01*
X353196Y211937D01*
X352378Y212276D01*
X352000Y212325D01*
D02*
G37*
G36*
X351000D02*
X350622Y212276D01*
X349804Y211937D01*
X349102Y211398D01*
X348563Y210696D01*
X348224Y209878D01*
X348175Y209500D01*
X351000D01*
Y212325D01*
D02*
G37*
G36*
X381500Y212190D02*
X380675Y212081D01*
X379905Y211762D01*
X379245Y211255D01*
X378738Y210595D01*
X378419Y209825D01*
X378310Y209000D01*
X378419Y208174D01*
X378738Y207405D01*
X379245Y206745D01*
X379905Y206238D01*
X380675Y205919D01*
X381500Y205810D01*
X382326Y205919D01*
X383095Y206238D01*
X383755Y206745D01*
X384262Y207405D01*
X384581Y208174D01*
X384689Y209000D01*
X384581Y209825D01*
X384262Y210595D01*
X383755Y211255D01*
X383095Y211762D01*
X382326Y212081D01*
X381500Y212190D01*
D02*
G37*
G36*
X354825Y208500D02*
X352000D01*
Y205675D01*
X352378Y205724D01*
X353196Y206063D01*
X353898Y206602D01*
X354437Y207304D01*
X354776Y208122D01*
X354825Y208500D01*
D02*
G37*
G36*
X351000D02*
X348175D01*
X348224Y208122D01*
X348563Y207304D01*
X349102Y206602D01*
X349804Y206063D01*
X350622Y205724D01*
X351000Y205675D01*
Y208500D01*
D02*
G37*
G36*
X145531Y226540D02*
X139823D01*
X139280Y226432D01*
X138820Y226125D01*
X138513Y225665D01*
X138405Y225122D01*
X138513Y224580D01*
X138808Y224138D01*
X138513Y223696D01*
X138405Y223153D01*
X138513Y222611D01*
X138808Y222169D01*
X138513Y221728D01*
X138405Y221185D01*
X138513Y220642D01*
X138808Y220201D01*
X138513Y219759D01*
X138405Y219216D01*
X138513Y218674D01*
X138808Y218232D01*
X138513Y217791D01*
X138405Y217248D01*
X138513Y216705D01*
X138808Y216264D01*
X138513Y215822D01*
X138405Y215280D01*
X138513Y214737D01*
X138808Y214295D01*
X138513Y213854D01*
X138405Y213311D01*
X138513Y212769D01*
X138808Y212327D01*
X138513Y211885D01*
X138405Y211343D01*
X138513Y210800D01*
X138808Y210358D01*
X138513Y209917D01*
X138405Y209374D01*
X138513Y208831D01*
X138808Y208390D01*
X138513Y207948D01*
X138405Y207405D01*
X138513Y206863D01*
X138808Y206421D01*
X138513Y205980D01*
X138405Y205437D01*
X138434Y205294D01*
X138024Y204794D01*
X135954D01*
X128811Y211937D01*
X128381Y212225D01*
X127874Y212326D01*
X109095D01*
X108587Y212225D01*
X108157Y211937D01*
X104063Y207843D01*
X103775Y207413D01*
X103674Y206906D01*
Y127500D01*
X103775Y126993D01*
X104063Y126563D01*
X122063Y108563D01*
X122493Y108275D01*
X123000Y108175D01*
X132000D01*
X132507Y108275D01*
X132937Y108563D01*
X135937Y111563D01*
X136225Y111993D01*
X136326Y112500D01*
Y112803D01*
X136826Y112973D01*
X137323Y112323D01*
X138107Y111722D01*
X139020Y111344D01*
X140000Y111215D01*
X140980Y111344D01*
X141893Y111722D01*
X142676Y112323D01*
X143278Y113107D01*
X143656Y114020D01*
X143785Y115000D01*
X143656Y115980D01*
X143278Y116893D01*
X142676Y117676D01*
X141893Y118278D01*
X140980Y118656D01*
X140000Y118785D01*
X139020Y118656D01*
X138107Y118278D01*
X137323Y117676D01*
X136826Y117027D01*
X136326Y117197D01*
Y119451D01*
X138453Y121579D01*
X139020Y121344D01*
X140000Y121215D01*
X140980Y121344D01*
X141893Y121722D01*
X142676Y122324D01*
X143278Y123107D01*
X143656Y124020D01*
X143785Y125000D01*
X143656Y125980D01*
X143278Y126893D01*
X142676Y127676D01*
X141893Y128278D01*
X140980Y128656D01*
X140000Y128785D01*
X139020Y128656D01*
X138107Y128278D01*
X137323Y127676D01*
X136722Y126893D01*
X136344Y125980D01*
X136215Y125000D01*
X136344Y124020D01*
X136579Y123453D01*
X134063Y120937D01*
X133775Y120507D01*
X133675Y120000D01*
Y117197D01*
X133175Y117027D01*
X132676Y117676D01*
X131893Y118278D01*
X130980Y118656D01*
X130000Y118785D01*
X129020Y118656D01*
X128453Y118421D01*
X110101Y136774D01*
Y202726D01*
X113454Y206080D01*
X114625D01*
X114776Y205580D01*
X114563Y205437D01*
X111563Y202437D01*
X111275Y202007D01*
X111174Y201500D01*
Y142500D01*
X111275Y141993D01*
X111563Y141563D01*
X126579Y126547D01*
X126344Y125980D01*
X126215Y125000D01*
X126344Y124020D01*
X126722Y123107D01*
X127323Y122324D01*
X128107Y121722D01*
X129020Y121344D01*
X130000Y121215D01*
X130980Y121344D01*
X131893Y121722D01*
X132676Y122324D01*
X133278Y123107D01*
X133656Y124020D01*
X133785Y125000D01*
X133656Y125980D01*
X133278Y126893D01*
X132676Y127676D01*
X131893Y128278D01*
X130980Y128656D01*
X130000Y128785D01*
X129020Y128656D01*
X128453Y128421D01*
X113826Y143049D01*
Y200951D01*
X116049Y203174D01*
X126451D01*
X127664Y201961D01*
X127438Y201480D01*
X127193Y201480D01*
X122000D01*
Y198315D01*
Y195150D01*
X127618D01*
Y196238D01*
X138024D01*
X138434Y195738D01*
X138405Y195595D01*
X138513Y195052D01*
X138808Y194610D01*
X138513Y194168D01*
X138405Y193626D01*
X138513Y193083D01*
X138692Y192815D01*
X138676Y192804D01*
X138325Y192278D01*
X138301Y192157D01*
X142677D01*
X147054D01*
X147030Y192278D01*
X146678Y192804D01*
X146662Y192815D01*
X146841Y193083D01*
X146949Y193626D01*
X146841Y194168D01*
X146546Y194610D01*
X146841Y195052D01*
X146949Y195595D01*
X146841Y196137D01*
X146662Y196405D01*
X146678Y196416D01*
X147030Y196942D01*
X147054Y197063D01*
X142677D01*
Y198063D01*
X147054D01*
X147030Y198184D01*
X146678Y198710D01*
X146662Y198721D01*
X146841Y198989D01*
X146949Y199531D01*
X146841Y200074D01*
X146546Y200516D01*
X146841Y200957D01*
X146949Y201500D01*
X146841Y202043D01*
X146546Y202484D01*
X146841Y202926D01*
X146949Y203468D01*
X146841Y204011D01*
X146546Y204453D01*
X146841Y204894D01*
X146949Y205437D01*
X146841Y205980D01*
X146546Y206421D01*
X146841Y206863D01*
X146949Y207405D01*
X146841Y207948D01*
X146546Y208390D01*
X146841Y208831D01*
X146949Y209374D01*
X146841Y209917D01*
X146546Y210358D01*
X146841Y210800D01*
X146949Y211343D01*
X146841Y211885D01*
X146546Y212327D01*
X146841Y212769D01*
X146949Y213311D01*
X146841Y213854D01*
X146546Y214295D01*
X146841Y214737D01*
X146949Y215280D01*
X146841Y215822D01*
X146546Y216264D01*
X146841Y216705D01*
X146949Y217248D01*
X146841Y217791D01*
X146546Y218232D01*
X146841Y218674D01*
X146949Y219216D01*
X146841Y219759D01*
X146546Y220201D01*
X146841Y220642D01*
X146949Y221185D01*
X146841Y221728D01*
X146546Y222169D01*
X146841Y222611D01*
X146949Y223153D01*
X146841Y223696D01*
X146546Y224138D01*
X146841Y224580D01*
X146949Y225122D01*
X146841Y225665D01*
X146534Y226125D01*
X146074Y226432D01*
X145531Y226540D01*
D02*
G37*
G36*
X375500Y230785D02*
X374520Y230656D01*
X373607Y230278D01*
X372824Y229677D01*
X372222Y228893D01*
X371844Y227980D01*
X371715Y227000D01*
X371844Y226020D01*
X372222Y225107D01*
X372824Y224324D01*
X373607Y223722D01*
X374174Y223487D01*
Y222549D01*
X354384Y202759D01*
X323013D01*
X322778Y203326D01*
X322177Y204110D01*
X321393Y204711D01*
X320480Y205089D01*
X319500Y205218D01*
X318520Y205089D01*
X317607Y204711D01*
X316824Y204110D01*
X316222Y203326D01*
X315844Y202413D01*
X315715Y201433D01*
X315844Y200453D01*
X316222Y199540D01*
X316824Y198757D01*
X317607Y198155D01*
X318520Y197777D01*
X319500Y197648D01*
X320480Y197777D01*
X321393Y198155D01*
X322177Y198757D01*
X322778Y199540D01*
X323013Y200108D01*
X354933D01*
X355440Y200208D01*
X355870Y200496D01*
X376437Y221063D01*
X376725Y221493D01*
X376825Y222000D01*
Y223487D01*
X377393Y223722D01*
X378176Y224324D01*
X378778Y225107D01*
X379156Y226020D01*
X379285Y227000D01*
X379156Y227980D01*
X378778Y228893D01*
X378176Y229677D01*
X377393Y230278D01*
X376480Y230656D01*
X375500Y230785D01*
D02*
G37*
G36*
X121000Y201480D02*
X115382D01*
Y198815D01*
X121000D01*
Y201480D01*
D02*
G37*
G36*
Y197815D02*
X115382D01*
Y195150D01*
X121000D01*
Y197815D01*
D02*
G37*
G36*
X495791Y199710D02*
X495060Y199614D01*
X494379Y199332D01*
X493794Y198883D01*
X493346Y198298D01*
X493063Y197617D01*
X492967Y196886D01*
X493063Y196155D01*
X493346Y195474D01*
X493794Y194889D01*
X494379Y194440D01*
X495060Y194158D01*
X495791Y194062D01*
X496522Y194158D01*
X497203Y194440D01*
X497788Y194889D01*
X498237Y195474D01*
X498519Y196155D01*
X498616Y196886D01*
X498519Y197617D01*
X498237Y198298D01*
X497788Y198883D01*
X497203Y199332D01*
X496522Y199614D01*
X495791Y199710D01*
D02*
G37*
G36*
X487917D02*
X487186Y199614D01*
X486505Y199332D01*
X485920Y198883D01*
X485471Y198298D01*
X485189Y197617D01*
X485093Y196886D01*
X485189Y196155D01*
X485471Y195474D01*
X485920Y194889D01*
X486505Y194440D01*
X487186Y194158D01*
X487917Y194062D01*
X488648Y194158D01*
X489329Y194440D01*
X489914Y194889D01*
X490363Y195474D01*
X490645Y196155D01*
X490741Y196886D01*
X490645Y197617D01*
X490363Y198298D01*
X489914Y198883D01*
X489329Y199332D01*
X488648Y199614D01*
X487917Y199710D01*
D02*
G37*
G36*
X480043D02*
X479312Y199614D01*
X478631Y199332D01*
X478046Y198883D01*
X477598Y198298D01*
X477315Y197617D01*
X477219Y196886D01*
X477315Y196155D01*
X477598Y195474D01*
X478046Y194889D01*
X478631Y194440D01*
X479312Y194158D01*
X480043Y194062D01*
X480774Y194158D01*
X481455Y194440D01*
X482040Y194889D01*
X482489Y195474D01*
X482771Y196155D01*
X482867Y196886D01*
X482771Y197617D01*
X482489Y198298D01*
X482040Y198883D01*
X481455Y199332D01*
X480774Y199614D01*
X480043Y199710D01*
D02*
G37*
G36*
X472169D02*
X471438Y199614D01*
X470757Y199332D01*
X470172Y198883D01*
X469724Y198298D01*
X469441Y197617D01*
X469345Y196886D01*
X469441Y196155D01*
X469724Y195474D01*
X470172Y194889D01*
X470757Y194440D01*
X471438Y194158D01*
X472169Y194062D01*
X472900Y194158D01*
X473581Y194440D01*
X474166Y194889D01*
X474615Y195474D01*
X474897Y196155D01*
X474994Y196886D01*
X474897Y197617D01*
X474615Y198298D01*
X474166Y198883D01*
X473581Y199332D01*
X472900Y199614D01*
X472169Y199710D01*
D02*
G37*
G36*
X464295D02*
X463564Y199614D01*
X462883Y199332D01*
X462298Y198883D01*
X461849Y198298D01*
X461567Y197617D01*
X461471Y196886D01*
X461567Y196155D01*
X461849Y195474D01*
X462298Y194889D01*
X462883Y194440D01*
X463564Y194158D01*
X464295Y194062D01*
X465026Y194158D01*
X465707Y194440D01*
X466292Y194889D01*
X466741Y195474D01*
X467023Y196155D01*
X467119Y196886D01*
X467023Y197617D01*
X466741Y198298D01*
X466292Y198883D01*
X465707Y199332D01*
X465026Y199614D01*
X464295Y199710D01*
D02*
G37*
G36*
X456421D02*
X455690Y199614D01*
X455009Y199332D01*
X454424Y198883D01*
X453975Y198298D01*
X453693Y197617D01*
X453597Y196886D01*
X453693Y196155D01*
X453975Y195474D01*
X454424Y194889D01*
X455009Y194440D01*
X455690Y194158D01*
X456421Y194062D01*
X457152Y194158D01*
X457833Y194440D01*
X458418Y194889D01*
X458867Y195474D01*
X459149Y196155D01*
X459245Y196886D01*
X459149Y197617D01*
X458867Y198298D01*
X458418Y198883D01*
X457833Y199332D01*
X457152Y199614D01*
X456421Y199710D01*
D02*
G37*
G36*
X448547D02*
X447816Y199614D01*
X447135Y199332D01*
X446550Y198883D01*
X446102Y198298D01*
X445819Y197617D01*
X445723Y196886D01*
X445819Y196155D01*
X446102Y195474D01*
X446550Y194889D01*
X447135Y194440D01*
X447816Y194158D01*
X448547Y194062D01*
X449278Y194158D01*
X449959Y194440D01*
X450544Y194889D01*
X450993Y195474D01*
X451275Y196155D01*
X451371Y196886D01*
X451275Y197617D01*
X450993Y198298D01*
X450544Y198883D01*
X449959Y199332D01*
X449278Y199614D01*
X448547Y199710D01*
D02*
G37*
G36*
X440673D02*
X439942Y199614D01*
X439261Y199332D01*
X438676Y198883D01*
X438227Y198298D01*
X437945Y197617D01*
X437849Y196886D01*
X437945Y196155D01*
X438227Y195474D01*
X438676Y194889D01*
X439261Y194440D01*
X439942Y194158D01*
X440673Y194062D01*
X441404Y194158D01*
X442085Y194440D01*
X442670Y194889D01*
X443119Y195474D01*
X443401Y196155D01*
X443497Y196886D01*
X443401Y197617D01*
X443119Y198298D01*
X442670Y198883D01*
X442085Y199332D01*
X441404Y199614D01*
X440673Y199710D01*
D02*
G37*
G36*
X432799D02*
X432068Y199614D01*
X431387Y199332D01*
X430802Y198883D01*
X430353Y198298D01*
X430071Y197617D01*
X429975Y196886D01*
X430071Y196155D01*
X430353Y195474D01*
X430802Y194889D01*
X431387Y194440D01*
X432068Y194158D01*
X432799Y194062D01*
X433530Y194158D01*
X434211Y194440D01*
X434796Y194889D01*
X435245Y195474D01*
X435527Y196155D01*
X435623Y196886D01*
X435527Y197617D01*
X435245Y198298D01*
X434796Y198883D01*
X434211Y199332D01*
X433530Y199614D01*
X432799Y199710D01*
D02*
G37*
G36*
X424925D02*
X424194Y199614D01*
X423513Y199332D01*
X422928Y198883D01*
X422479Y198298D01*
X422197Y197617D01*
X422101Y196886D01*
X422197Y196155D01*
X422479Y195474D01*
X422928Y194889D01*
X423513Y194440D01*
X424194Y194158D01*
X424925Y194062D01*
X425656Y194158D01*
X426337Y194440D01*
X426922Y194889D01*
X427371Y195474D01*
X427653Y196155D01*
X427749Y196886D01*
X427653Y197617D01*
X427371Y198298D01*
X426922Y198883D01*
X426337Y199332D01*
X425656Y199614D01*
X424925Y199710D01*
D02*
G37*
G36*
X226256Y193547D02*
X223000D01*
Y190882D01*
X226256D01*
Y193547D01*
D02*
G37*
G36*
X222000D02*
X218744D01*
Y190882D01*
X222000D01*
Y193547D01*
D02*
G37*
G36*
X147054Y191157D02*
X142677D01*
X137937D01*
X137819Y191014D01*
X131004D01*
X130497Y190913D01*
X130067Y190626D01*
X128451Y189011D01*
X127418D01*
Y190650D01*
X115582D01*
Y184720D01*
X127418D01*
Y186360D01*
X129000D01*
X129507Y186460D01*
X129937Y186748D01*
X131553Y188364D01*
X133836D01*
X134027Y187902D01*
X132563Y186437D01*
X132275Y186007D01*
X132175Y185500D01*
Y174049D01*
X129951Y171826D01*
X128170D01*
Y174056D01*
X122465D01*
Y174256D01*
X119799D01*
Y170500D01*
Y166744D01*
X122465D01*
Y166944D01*
X123879D01*
Y165295D01*
X123980Y164788D01*
X124267Y164358D01*
X147733Y140893D01*
X147655Y140500D01*
X147833Y139603D01*
X148342Y138842D01*
X149103Y138333D01*
X150000Y138155D01*
X150897Y138333D01*
X151658Y138842D01*
X152167Y139603D01*
X152345Y140500D01*
X152167Y141397D01*
X151658Y142158D01*
X150897Y142667D01*
X150000Y142845D01*
X149608Y142767D01*
X126530Y165844D01*
Y166944D01*
X128170D01*
Y169175D01*
X130500D01*
X131007Y169275D01*
X131437Y169563D01*
X134437Y172563D01*
X134725Y172993D01*
X134826Y173500D01*
Y184951D01*
X136269Y186395D01*
X138024D01*
X138434Y185895D01*
X138405Y185752D01*
X138513Y185209D01*
X138808Y184768D01*
X138513Y184326D01*
X138405Y183783D01*
X138513Y183241D01*
X138808Y182799D01*
X138513Y182358D01*
X138405Y181815D01*
X138513Y181272D01*
X138808Y180831D01*
X138513Y180389D01*
X138405Y179847D01*
X138513Y179304D01*
X138808Y178862D01*
X138513Y178420D01*
X138405Y177878D01*
X138513Y177335D01*
X138820Y176875D01*
X139280Y176568D01*
X139823Y176460D01*
X145531D01*
X146074Y176568D01*
X146534Y176875D01*
X146841Y177335D01*
X146949Y177878D01*
X146841Y178420D01*
X146546Y178862D01*
X146841Y179304D01*
X146949Y179847D01*
X146841Y180389D01*
X146546Y180831D01*
X146841Y181272D01*
X146949Y181815D01*
X146841Y182358D01*
X146546Y182799D01*
X146841Y183241D01*
X146949Y183783D01*
X146841Y184326D01*
X146546Y184768D01*
X146841Y185209D01*
X146949Y185752D01*
X146841Y186294D01*
X146546Y186736D01*
X146841Y187178D01*
X146949Y187721D01*
X146841Y188263D01*
X146546Y188705D01*
X146841Y189146D01*
X146949Y189689D01*
X146841Y190232D01*
X146662Y190500D01*
X146678Y190511D01*
X147030Y191037D01*
X147054Y191157D01*
D02*
G37*
G36*
X206699Y193126D02*
X202323D01*
X197946D01*
X197970Y193005D01*
X198322Y192479D01*
X198338Y192468D01*
X198159Y192200D01*
X198051Y191657D01*
X198159Y191115D01*
X198338Y190847D01*
X198322Y190836D01*
X197970Y190310D01*
X197946Y190189D01*
X202042D01*
X202094Y190155D01*
X202323Y190109D01*
Y189189D01*
X197946D01*
X197970Y189068D01*
X198322Y188542D01*
X198338Y188531D01*
X198159Y188263D01*
X198051Y187721D01*
X198159Y187178D01*
X198454Y186736D01*
X198159Y186294D01*
X198051Y185752D01*
X198159Y185209D01*
X198454Y184768D01*
X198159Y184326D01*
X198051Y183783D01*
X198159Y183241D01*
X198454Y182799D01*
X198159Y182358D01*
X198051Y181815D01*
X198159Y181272D01*
X198454Y180831D01*
X198159Y180389D01*
X198051Y179847D01*
X198159Y179304D01*
X198454Y178862D01*
X198159Y178420D01*
X198051Y177878D01*
X198159Y177335D01*
X198466Y176875D01*
X198926Y176568D01*
X199469Y176460D01*
X205177D01*
X205720Y176568D01*
X206180Y176875D01*
X206487Y177335D01*
X206595Y177878D01*
X206487Y178420D01*
X206192Y178862D01*
X206487Y179304D01*
X206595Y179847D01*
X206487Y180389D01*
X206192Y180831D01*
X206487Y181272D01*
X206595Y181815D01*
X206487Y182358D01*
X206192Y182799D01*
X206487Y183241D01*
X206595Y183783D01*
X206487Y184326D01*
X206192Y184768D01*
X206487Y185209D01*
X206595Y185752D01*
X206487Y186294D01*
X206192Y186736D01*
X206487Y187178D01*
X206595Y187721D01*
X206506Y188170D01*
X206773Y188397D01*
X206918Y188464D01*
X210320Y185063D01*
X210750Y184775D01*
X211257Y184675D01*
X220620D01*
X220842Y184342D01*
X221603Y183833D01*
X222500Y183655D01*
X223397Y183833D01*
X224158Y184342D01*
X224667Y185103D01*
X224845Y186000D01*
X224667Y186897D01*
X224158Y187658D01*
X223397Y188167D01*
X222500Y188345D01*
X221603Y188167D01*
X220842Y187658D01*
X220620Y187326D01*
X211806D01*
X206815Y192317D01*
X206400Y192594D01*
X206675Y193005D01*
X206699Y193126D01*
D02*
G37*
G36*
X272000Y193182D02*
X270918Y193040D01*
X269909Y192622D01*
X269043Y191957D01*
X268378Y191091D01*
X267960Y190082D01*
X267818Y189000D01*
X267960Y187918D01*
X268378Y186909D01*
X269043Y186043D01*
X269909Y185378D01*
X270918Y184960D01*
X272000Y184818D01*
X273082Y184960D01*
X274091Y185378D01*
X274957Y186043D01*
X275622Y186909D01*
X275939Y187674D01*
X277451D01*
X282675Y182451D01*
Y162000D01*
Y149549D01*
X274160Y141034D01*
X273518Y141300D01*
X272500Y141434D01*
X271482Y141300D01*
X270533Y140907D01*
X269719Y140281D01*
X269093Y139467D01*
X268700Y138518D01*
X268566Y137500D01*
X268700Y136482D01*
X269093Y135533D01*
X269719Y134719D01*
X270533Y134093D01*
X271482Y133700D01*
X272500Y133566D01*
X273518Y133700D01*
X274467Y134093D01*
X275282Y134719D01*
X275907Y135533D01*
X276300Y136482D01*
X276434Y137500D01*
X276300Y138518D01*
X276034Y139159D01*
X284937Y148063D01*
X285225Y148493D01*
X285326Y149000D01*
Y160675D01*
X335451D01*
X346531Y149595D01*
X346419Y149326D01*
X346310Y148500D01*
X346419Y147675D01*
X346738Y146905D01*
X347245Y146245D01*
X347905Y145738D01*
X348675Y145419D01*
X349500Y145310D01*
X350325Y145419D01*
X351095Y145738D01*
X351755Y146245D01*
X352262Y146905D01*
X352581Y147675D01*
X352690Y148500D01*
X352581Y149326D01*
X352262Y150095D01*
X351755Y150755D01*
X351095Y151262D01*
X350325Y151581D01*
X349500Y151690D01*
X348675Y151581D01*
X348405Y151469D01*
X337875Y162000D01*
X347049Y171175D01*
X352000D01*
X352507Y171275D01*
X352937Y171563D01*
X363107Y181733D01*
X363500Y181655D01*
X364397Y181833D01*
X365158Y182342D01*
X365667Y183103D01*
X365845Y184000D01*
X365667Y184897D01*
X365158Y185658D01*
X364397Y186167D01*
X363500Y186345D01*
X362603Y186167D01*
X361842Y185658D01*
X361333Y184897D01*
X361155Y184000D01*
X361233Y183607D01*
X351451Y173826D01*
X346500D01*
X345993Y173725D01*
X345563Y173437D01*
X335451Y163326D01*
X285326D01*
Y183000D01*
X285225Y183507D01*
X284937Y183937D01*
X278937Y189937D01*
X278507Y190225D01*
X278000Y190325D01*
X275939D01*
X275622Y191091D01*
X274957Y191957D01*
X274091Y192622D01*
X273082Y193040D01*
X272000Y193182D01*
D02*
G37*
G36*
X355325Y184000D02*
X352500D01*
Y181175D01*
X352878Y181224D01*
X353696Y181563D01*
X354398Y182102D01*
X354937Y182804D01*
X355276Y183622D01*
X355325Y184000D01*
D02*
G37*
G36*
X351500D02*
X348675D01*
X348724Y183622D01*
X349063Y182804D01*
X349602Y182102D01*
X350304Y181563D01*
X351122Y181224D01*
X351500Y181175D01*
Y184000D01*
D02*
G37*
G36*
X189716Y176054D02*
X189596Y176030D01*
X189070Y175678D01*
X189059Y175662D01*
X188791Y175841D01*
X188248Y175949D01*
X187706Y175841D01*
X187264Y175546D01*
X186822Y175841D01*
X186279Y175949D01*
X185737Y175841D01*
X185295Y175546D01*
X184854Y175841D01*
X184311Y175949D01*
X183768Y175841D01*
X183327Y175546D01*
X182885Y175841D01*
X182343Y175949D01*
X181800Y175841D01*
X181358Y175546D01*
X180917Y175841D01*
X180374Y175949D01*
X179831Y175841D01*
X179390Y175546D01*
X178948Y175841D01*
X178405Y175949D01*
X177863Y175841D01*
X177421Y175546D01*
X176980Y175841D01*
X176437Y175949D01*
X175894Y175841D01*
X175453Y175546D01*
X175011Y175841D01*
X174469Y175949D01*
X173926Y175841D01*
X173484Y175546D01*
X173043Y175841D01*
X172500Y175949D01*
X171957Y175841D01*
X171516Y175546D01*
X171074Y175841D01*
X170531Y175949D01*
X169989Y175841D01*
X169547Y175546D01*
X169106Y175841D01*
X168563Y175949D01*
X168020Y175841D01*
X167579Y175546D01*
X167137Y175841D01*
X166595Y175949D01*
X166052Y175841D01*
X165610Y175546D01*
X165168Y175841D01*
X164626Y175949D01*
X164083Y175841D01*
X163642Y175546D01*
X163200Y175841D01*
X162657Y175949D01*
X162115Y175841D01*
X161673Y175546D01*
X161232Y175841D01*
X160689Y175949D01*
X160146Y175841D01*
X159705Y175546D01*
X159263Y175841D01*
X158721Y175949D01*
X158178Y175841D01*
X157736Y175546D01*
X157294Y175841D01*
X156752Y175949D01*
X156209Y175841D01*
X155768Y175546D01*
X155326Y175841D01*
X154783Y175949D01*
X154241Y175841D01*
X153799Y175546D01*
X153358Y175841D01*
X152815Y175949D01*
X152272Y175841D01*
X151831Y175546D01*
X151389Y175841D01*
X150847Y175949D01*
X150304Y175841D01*
X149862Y175546D01*
X149420Y175841D01*
X148878Y175949D01*
X148335Y175841D01*
X147875Y175534D01*
X147568Y175074D01*
X147460Y174531D01*
Y168823D01*
X147568Y168280D01*
X147875Y167820D01*
X148335Y167513D01*
X148878Y167405D01*
X149420Y167513D01*
X149862Y167808D01*
X150304Y167513D01*
X150847Y167405D01*
X151389Y167513D01*
X151831Y167808D01*
X152272Y167513D01*
X152815Y167405D01*
X153358Y167513D01*
X153799Y167808D01*
X154241Y167513D01*
X154783Y167405D01*
X154927Y167434D01*
X155427Y167025D01*
Y163801D01*
X153393Y161767D01*
X153000Y161845D01*
X152103Y161667D01*
X151342Y161158D01*
X150833Y160397D01*
X150655Y159500D01*
X150833Y158603D01*
X151342Y157842D01*
X152103Y157333D01*
X153000Y157155D01*
X153897Y157333D01*
X154658Y157842D01*
X155167Y158603D01*
X155345Y159500D01*
X155267Y159892D01*
X156933Y161559D01*
X157395Y161367D01*
Y156824D01*
X156603Y156667D01*
X155842Y156158D01*
X155333Y155397D01*
X155155Y154500D01*
X155333Y153603D01*
X155842Y152842D01*
X156603Y152333D01*
X157500Y152155D01*
X158397Y152333D01*
X159158Y152842D01*
X159667Y153603D01*
X159845Y154500D01*
X159759Y154934D01*
X159945Y155213D01*
X160046Y155720D01*
X160046Y155720D01*
Y167025D01*
X160546Y167434D01*
X160689Y167405D01*
X161232Y167513D01*
X161673Y167808D01*
X162115Y167513D01*
X162657Y167405D01*
X163200Y167513D01*
X163642Y167808D01*
X164083Y167513D01*
X164626Y167405D01*
X165168Y167513D01*
X165610Y167808D01*
X166052Y167513D01*
X166595Y167405D01*
X166737Y167434D01*
X167237Y167025D01*
Y162655D01*
X166828Y162299D01*
X166595Y162345D01*
X165697Y162167D01*
X164936Y161658D01*
X164428Y160897D01*
X164249Y160000D01*
X164428Y159103D01*
X164936Y158342D01*
X165697Y157833D01*
X166595Y157655D01*
X167492Y157833D01*
X168253Y158342D01*
X168761Y159103D01*
X168939Y160000D01*
X168861Y160392D01*
X169500Y161031D01*
X169788Y161461D01*
X169888Y161969D01*
Y167025D01*
X170388Y167434D01*
X170531Y167405D01*
X171074Y167513D01*
X171516Y167808D01*
X171957Y167513D01*
X172500Y167405D01*
X172865Y167105D01*
Y158740D01*
X153563Y139437D01*
X153275Y139007D01*
X153174Y138500D01*
Y127805D01*
X152701Y127645D01*
X152676Y127676D01*
X151893Y128278D01*
X150980Y128656D01*
X150000Y128785D01*
X149020Y128656D01*
X148107Y128278D01*
X147324Y127676D01*
X146722Y126893D01*
X146344Y125980D01*
X146215Y125000D01*
X146344Y124020D01*
X146722Y123107D01*
X147324Y122324D01*
X148107Y121722D01*
X149020Y121344D01*
X150000Y121215D01*
X150980Y121344D01*
X151893Y121722D01*
X152676Y122324D01*
X152701Y122355D01*
X153174Y122195D01*
Y120049D01*
X151547Y118421D01*
X150980Y118656D01*
X150000Y118785D01*
X149020Y118656D01*
X148107Y118278D01*
X147324Y117676D01*
X146722Y116893D01*
X146344Y115980D01*
X146215Y115000D01*
X146344Y114020D01*
X146722Y113107D01*
X147324Y112323D01*
X148107Y111722D01*
X149020Y111344D01*
X150000Y111215D01*
X150980Y111344D01*
X151893Y111722D01*
X152676Y112323D01*
X153278Y113107D01*
X153656Y114020D01*
X153785Y115000D01*
X153656Y115980D01*
X153421Y116547D01*
X155437Y118563D01*
X155725Y118993D01*
X155825Y119500D01*
Y124127D01*
X156325Y124160D01*
X156344Y124020D01*
X156722Y123107D01*
X157324Y122324D01*
X158107Y121722D01*
X159020Y121344D01*
X160000Y121215D01*
X160980Y121344D01*
X161893Y121722D01*
X162677Y122324D01*
X163278Y123107D01*
X163656Y124020D01*
X163785Y125000D01*
X163656Y125980D01*
X163278Y126893D01*
X162677Y127676D01*
X161893Y128278D01*
X160980Y128656D01*
X160000Y128785D01*
X159020Y128656D01*
X158107Y128278D01*
X157324Y127676D01*
X156722Y126893D01*
X156344Y125980D01*
X156325Y125840D01*
X155825Y125873D01*
Y137951D01*
X175128Y157253D01*
X175415Y157683D01*
X175516Y158191D01*
Y167210D01*
X176016Y167489D01*
X176437Y167405D01*
X176980Y167513D01*
X177421Y167808D01*
X177863Y167513D01*
X178405Y167405D01*
X178948Y167513D01*
X179390Y167808D01*
X179831Y167513D01*
X180374Y167405D01*
X180917Y167513D01*
X181358Y167808D01*
X181800Y167513D01*
X182343Y167405D01*
X182885Y167513D01*
X183327Y167808D01*
X183768Y167513D01*
X184311Y167405D01*
X184854Y167513D01*
X185295Y167808D01*
X185737Y167513D01*
X186279Y167405D01*
X186822Y167513D01*
X187264Y167808D01*
X187706Y167513D01*
X188248Y167405D01*
X188791Y167513D01*
X189059Y167692D01*
X189070Y167676D01*
X189596Y167325D01*
X189716Y167301D01*
Y171677D01*
Y176054D01*
D02*
G37*
G36*
X251000Y208345D02*
X250103Y208167D01*
X249342Y207658D01*
X248833Y206897D01*
X248655Y206000D01*
X248833Y205103D01*
X249342Y204342D01*
X249675Y204119D01*
Y188000D01*
X249775Y187493D01*
X250063Y187063D01*
X259063Y178063D01*
X259493Y177775D01*
X260000Y177674D01*
X268061D01*
X268378Y176909D01*
X269043Y176043D01*
X269909Y175378D01*
X270918Y174960D01*
X272000Y174818D01*
X273082Y174960D01*
X274091Y175378D01*
X274957Y176043D01*
X275622Y176909D01*
X276040Y177918D01*
X276182Y179000D01*
X276040Y180082D01*
X275622Y181091D01*
X274957Y181957D01*
X274091Y182622D01*
X273082Y183040D01*
X272000Y183182D01*
X270918Y183040D01*
X269909Y182622D01*
X269043Y181957D01*
X268378Y181091D01*
X268061Y180325D01*
X260549D01*
X252326Y188549D01*
Y204119D01*
X252658Y204342D01*
X253167Y205103D01*
X253345Y206000D01*
X253167Y206897D01*
X252658Y207658D01*
X251897Y208167D01*
X251000Y208345D01*
D02*
G37*
G36*
X118799Y174256D02*
X116134D01*
Y171000D01*
X118799D01*
Y174256D01*
D02*
G37*
G36*
X276346Y173346D02*
X272500D01*
Y169500D01*
X276346D01*
Y173346D01*
D02*
G37*
G36*
X271500D02*
X267653D01*
Y169500D01*
X271500D01*
Y173346D01*
D02*
G37*
G36*
X190717Y176054D02*
Y171677D01*
Y166937D01*
X190860Y166819D01*
Y161640D01*
X189066D01*
X188843Y161973D01*
X188083Y162481D01*
X187185Y162660D01*
X186288Y162481D01*
X185527Y161973D01*
X185019Y161212D01*
X184840Y160315D01*
X185019Y159417D01*
X185527Y158657D01*
X186288Y158148D01*
X187185Y157970D01*
X188083Y158148D01*
X188843Y158657D01*
X189066Y158990D01*
X191636D01*
X191674Y158951D01*
Y157056D01*
X190260D01*
Y157256D01*
X187594D01*
Y153500D01*
Y149744D01*
X190260D01*
Y149944D01*
X191674D01*
Y149500D01*
X191775Y148993D01*
X192063Y148563D01*
X196563Y144063D01*
X196993Y143775D01*
X197500Y143675D01*
X254451D01*
X255914Y142212D01*
X255722Y141750D01*
X253000D01*
Y138000D01*
X256750D01*
Y140722D01*
X257212Y140914D01*
X258851Y139274D01*
X258554Y138557D01*
X258415Y137500D01*
X258554Y136443D01*
X258962Y135458D01*
X259612Y134611D01*
X260457Y133962D01*
X261443Y133554D01*
X262500Y133415D01*
X263557Y133554D01*
X264543Y133962D01*
X265388Y134611D01*
X266038Y135458D01*
X266446Y136443D01*
X266585Y137500D01*
X266446Y138557D01*
X266038Y139542D01*
X265388Y140389D01*
X264543Y141038D01*
X263557Y141446D01*
X262500Y141585D01*
X261443Y141446D01*
X260726Y141149D01*
X255937Y145937D01*
X255507Y146225D01*
X255000Y146326D01*
X198049D01*
X194892Y149482D01*
X195084Y149944D01*
X195965D01*
Y157056D01*
X194325D01*
Y159500D01*
X194225Y160007D01*
X193937Y160437D01*
X193510Y160864D01*
Y167025D01*
X194010Y167434D01*
X194153Y167405D01*
X194696Y167513D01*
X195138Y167808D01*
X195580Y167513D01*
X196122Y167405D01*
X196665Y167513D01*
X197125Y167820D01*
X197432Y168280D01*
X197540Y168823D01*
Y174531D01*
X197432Y175074D01*
X197125Y175534D01*
X196665Y175841D01*
X196122Y175949D01*
X195580Y175841D01*
X195138Y175546D01*
X194696Y175841D01*
X194153Y175949D01*
X193611Y175841D01*
X193169Y175546D01*
X192728Y175841D01*
X192185Y175949D01*
X191642Y175841D01*
X191374Y175662D01*
X191363Y175678D01*
X190837Y176030D01*
X190717Y176054D01*
D02*
G37*
G36*
X118799Y170000D02*
X116134D01*
Y166744D01*
X118799D01*
Y170000D01*
D02*
G37*
G36*
X276346Y168500D02*
X272500D01*
Y164654D01*
X276346D01*
Y168500D01*
D02*
G37*
G36*
X271500D02*
X267653D01*
Y164654D01*
X271500D01*
Y168500D01*
D02*
G37*
G36*
X416441Y168413D02*
X415154D01*
Y167361D01*
X397035D01*
X396528Y167260D01*
X396098Y166973D01*
X380748Y151622D01*
X380378Y151776D01*
X380000Y151825D01*
Y149000D01*
X382825D01*
X382776Y149378D01*
X382622Y149748D01*
X397585Y164710D01*
X415154D01*
Y163657D01*
X416441D01*
Y166035D01*
Y168413D01*
D02*
G37*
G36*
X423646Y160143D02*
X420472D01*
Y155787D01*
X423646D01*
Y160143D01*
D02*
G37*
G36*
X186594Y157256D02*
X183929D01*
Y154000D01*
X186594D01*
Y157256D01*
D02*
G37*
G36*
X323253Y159320D02*
X315747D01*
Y151814D01*
X323253D01*
Y159320D01*
D02*
G37*
G36*
X186594Y153000D02*
X183929D01*
Y149744D01*
X186594D01*
Y153000D01*
D02*
G37*
G36*
X379000Y151825D02*
X378622Y151776D01*
X377804Y151437D01*
X377102Y150898D01*
X376563Y150196D01*
X376224Y149378D01*
X376175Y149000D01*
X379000D01*
Y151825D01*
D02*
G37*
G36*
X352000Y170087D02*
X351072Y169964D01*
X350207Y169606D01*
X349464Y169036D01*
X348894Y168293D01*
X348536Y167428D01*
X348413Y166500D01*
X348536Y165572D01*
X348894Y164707D01*
X349464Y163964D01*
X350207Y163394D01*
X350675Y163200D01*
Y163000D01*
X350775Y162493D01*
X351063Y162063D01*
X362233Y150892D01*
X362155Y150500D01*
X362333Y149603D01*
X362842Y148842D01*
X363603Y148333D01*
X364500Y148155D01*
X365397Y148333D01*
X366158Y148842D01*
X366667Y149603D01*
X366845Y150500D01*
X366667Y151397D01*
X366158Y152158D01*
X365397Y152667D01*
X364500Y152845D01*
X364107Y152767D01*
X353924Y162951D01*
X354016Y163565D01*
X354536Y163964D01*
X355106Y164707D01*
X355464Y165572D01*
X355587Y166500D01*
X355464Y167428D01*
X355106Y168293D01*
X354536Y169036D01*
X353793Y169606D01*
X352928Y169964D01*
X352000Y170087D01*
D02*
G37*
G36*
X382825Y148000D02*
X380000D01*
Y145175D01*
X380378Y145224D01*
X381196Y145563D01*
X381898Y146102D01*
X382437Y146804D01*
X382776Y147622D01*
X382825Y148000D01*
D02*
G37*
G36*
X379000D02*
X376175D01*
X376224Y147622D01*
X376563Y146804D01*
X377102Y146102D01*
X377804Y145563D01*
X378622Y145224D01*
X379000Y145175D01*
Y148000D01*
D02*
G37*
G36*
X405000Y146087D02*
X404072Y145964D01*
X403207Y145606D01*
X402464Y145036D01*
X401894Y144293D01*
X401700Y143825D01*
X390000D01*
X389493Y143725D01*
X389063Y143437D01*
X361451Y115825D01*
X358416D01*
X358387Y115896D01*
X357943Y116474D01*
X357669Y116685D01*
Y117315D01*
X357943Y117525D01*
X358387Y118104D01*
X358666Y118777D01*
X358761Y119500D01*
X358666Y120223D01*
X358387Y120896D01*
X357943Y121475D01*
X357365Y121918D01*
X356691Y122197D01*
X355968Y122292D01*
X352031D01*
X351309Y122197D01*
X350635Y121918D01*
X350057Y121475D01*
X349613Y120896D01*
X349584Y120826D01*
X341000D01*
X340493Y120725D01*
X340063Y120437D01*
X328951Y109326D01*
X307549D01*
X302921Y113953D01*
X303156Y114520D01*
X303285Y115500D01*
X303156Y116480D01*
X302778Y117393D01*
X302176Y118176D01*
X301393Y118778D01*
X300480Y119156D01*
X299500Y119285D01*
X298520Y119156D01*
X297607Y118778D01*
X296824Y118176D01*
X296222Y117393D01*
X295844Y116480D01*
X295715Y115500D01*
X295844Y114520D01*
X296222Y113607D01*
X296824Y112823D01*
X297607Y112222D01*
X298520Y111844D01*
X299500Y111715D01*
X300480Y111844D01*
X301047Y112079D01*
X306063Y107063D01*
X306493Y106775D01*
X307000Y106675D01*
X329500D01*
X330007Y106775D01*
X330437Y107063D01*
X341549Y118175D01*
X349584D01*
X349613Y118104D01*
X350057Y117525D01*
X350331Y117315D01*
Y116685D01*
X350057Y116474D01*
X349613Y115896D01*
X349334Y115223D01*
X349239Y114500D01*
X349334Y113777D01*
X349613Y113104D01*
X350057Y112525D01*
X350331Y112315D01*
Y111685D01*
X350057Y111475D01*
X349613Y110896D01*
X349334Y110223D01*
X349239Y109500D01*
X349334Y108777D01*
X349613Y108104D01*
X350057Y107526D01*
X350635Y107082D01*
X351309Y106803D01*
X352031Y106708D01*
X352675D01*
Y102549D01*
X350451Y100326D01*
X325500D01*
X324993Y100225D01*
X324563Y99937D01*
X321396Y96771D01*
X320928Y96964D01*
X320000Y97087D01*
X319072Y96964D01*
X318207Y96606D01*
X317464Y96036D01*
X316894Y95293D01*
X316536Y94428D01*
X316413Y93500D01*
X316536Y92572D01*
X316894Y91707D01*
X317464Y90964D01*
X318207Y90394D01*
X319072Y90036D01*
X320000Y89913D01*
X320928Y90036D01*
X321793Y90394D01*
X322536Y90964D01*
X323106Y91707D01*
X323464Y92572D01*
X323587Y93500D01*
X323464Y94428D01*
X323271Y94896D01*
X326049Y97675D01*
X351000D01*
X351507Y97775D01*
X351937Y98063D01*
X354937Y101063D01*
X355225Y101493D01*
X355326Y102000D01*
Y106708D01*
X355968D01*
X356691Y106803D01*
X357365Y107082D01*
X357943Y107526D01*
X358387Y108104D01*
X358666Y108777D01*
X358761Y109500D01*
X358666Y110223D01*
X358387Y110896D01*
X357943Y111475D01*
X357669Y111685D01*
Y112315D01*
X357943Y112525D01*
X358387Y113104D01*
X358416Y113174D01*
X362000D01*
X362507Y113275D01*
X362937Y113563D01*
X390549Y141174D01*
X401700D01*
X401894Y140707D01*
X402464Y139964D01*
X403207Y139394D01*
X404072Y139036D01*
X405000Y138913D01*
X405928Y139036D01*
X406793Y139394D01*
X407536Y139964D01*
X408106Y140707D01*
X408464Y141572D01*
X408587Y142500D01*
X408464Y143428D01*
X408106Y144293D01*
X407536Y145036D01*
X406793Y145606D01*
X405928Y145964D01*
X405000Y146087D01*
D02*
G37*
G36*
X252000Y141750D02*
X248250D01*
Y138000D01*
X252000D01*
Y141750D01*
D02*
G37*
G36*
X306253Y159320D02*
X298747D01*
Y151814D01*
X304378D01*
X308630Y147563D01*
X309060Y147275D01*
X309567Y147175D01*
X323451D01*
X330675Y139951D01*
Y137907D01*
X330174Y137857D01*
X330167Y137897D01*
X329658Y138658D01*
X328897Y139167D01*
X328000Y139345D01*
X327103Y139167D01*
X326342Y138658D01*
X325833Y137897D01*
X325655Y137000D01*
X325833Y136103D01*
X326342Y135342D01*
X326675Y135119D01*
Y134549D01*
X321378Y129253D01*
X315747D01*
Y121747D01*
X322761D01*
X322915Y121747D01*
X323314Y121309D01*
X323309Y121184D01*
X321047Y118921D01*
X320480Y119156D01*
X319500Y119285D01*
X318520Y119156D01*
X317607Y118778D01*
X316824Y118176D01*
X316222Y117393D01*
X315844Y116480D01*
X315715Y115500D01*
X315844Y114520D01*
X316222Y113607D01*
X316824Y112823D01*
X317607Y112222D01*
X318520Y111844D01*
X319500Y111715D01*
X320480Y111844D01*
X321393Y112222D01*
X322177Y112823D01*
X322778Y113607D01*
X323156Y114520D01*
X323285Y115500D01*
X323156Y116480D01*
X322921Y117047D01*
X332937Y127063D01*
X333225Y127493D01*
X333326Y128000D01*
Y140500D01*
X333225Y141007D01*
X332937Y141437D01*
X324937Y149437D01*
X324507Y149725D01*
X324000Y149826D01*
X310116D01*
X306253Y153689D01*
Y159320D01*
D02*
G37*
G36*
X323253Y141753D02*
X315747D01*
Y134247D01*
X323253D01*
Y141753D01*
D02*
G37*
G36*
X299500Y141785D02*
X298520Y141656D01*
X297607Y141278D01*
X296824Y140676D01*
X296222Y139893D01*
X295844Y138980D01*
X295715Y138000D01*
X295844Y137020D01*
X296222Y136107D01*
X296824Y135324D01*
X297607Y134722D01*
X298520Y134344D01*
X299500Y134215D01*
X300480Y134344D01*
X301393Y134722D01*
X302176Y135324D01*
X302778Y136107D01*
X303156Y137020D01*
X303285Y138000D01*
X303156Y138980D01*
X302778Y139893D01*
X302176Y140676D01*
X301393Y141278D01*
X300480Y141656D01*
X299500Y141785D01*
D02*
G37*
G36*
X256750Y137000D02*
X253000D01*
Y133250D01*
X256750D01*
Y137000D01*
D02*
G37*
G36*
X252000D02*
X248250D01*
Y133250D01*
X252000D01*
Y137000D01*
D02*
G37*
G36*
X338000Y139087D02*
X337072Y138964D01*
X336207Y138606D01*
X335464Y138036D01*
X334894Y137293D01*
X334536Y136428D01*
X334413Y135500D01*
X334536Y134572D01*
X334894Y133707D01*
X335464Y132964D01*
X336207Y132394D01*
X337072Y132036D01*
X338000Y131913D01*
X338928Y132036D01*
X339793Y132394D01*
X340536Y132964D01*
X341106Y133707D01*
X341464Y134572D01*
X341587Y135500D01*
X341464Y136428D01*
X341106Y137293D01*
X340536Y138036D01*
X339793Y138606D01*
X338928Y138964D01*
X338000Y139087D01*
D02*
G37*
G36*
X181000Y163345D02*
X180103Y163167D01*
X179342Y162658D01*
X178833Y161897D01*
X178655Y161000D01*
X178833Y160103D01*
X179342Y159342D01*
X179674Y159119D01*
Y141049D01*
X174063Y135437D01*
X173775Y135007D01*
X173674Y134500D01*
Y127197D01*
X173175Y127027D01*
X172677Y127676D01*
X171893Y128278D01*
X170980Y128656D01*
X170000Y128785D01*
X169020Y128656D01*
X168107Y128278D01*
X167324Y127676D01*
X166722Y126893D01*
X166344Y125980D01*
X166215Y125000D01*
X166344Y124020D01*
X166722Y123107D01*
X167324Y122324D01*
X168107Y121722D01*
X169020Y121344D01*
X170000Y121215D01*
X170980Y121344D01*
X171893Y121722D01*
X172677Y122324D01*
X173175Y122973D01*
X173674Y122803D01*
Y120549D01*
X171547Y118421D01*
X170980Y118656D01*
X170000Y118785D01*
X169020Y118656D01*
X168107Y118278D01*
X167324Y117676D01*
X166722Y116893D01*
X166344Y115980D01*
X166215Y115000D01*
X166344Y114020D01*
X166722Y113107D01*
X167324Y112323D01*
X168107Y111722D01*
X169020Y111344D01*
X170000Y111215D01*
X170980Y111344D01*
X171893Y111722D01*
X172677Y112323D01*
X173278Y113107D01*
X173656Y114020D01*
X173785Y115000D01*
X173656Y115980D01*
X173421Y116547D01*
X175937Y119063D01*
X176225Y119493D01*
X176326Y120000D01*
Y122803D01*
X176825Y122973D01*
X177323Y122324D01*
X178107Y121722D01*
X179020Y121344D01*
X180000Y121215D01*
X180980Y121344D01*
X181893Y121722D01*
X182676Y122324D01*
X183278Y123107D01*
X183656Y124020D01*
X183785Y125000D01*
X183656Y125980D01*
X183278Y126893D01*
X182676Y127676D01*
X181893Y128278D01*
X180980Y128656D01*
X180000Y128785D01*
X179020Y128656D01*
X178107Y128278D01*
X177323Y127676D01*
X176825Y127027D01*
X176326Y127197D01*
Y133951D01*
X181937Y139563D01*
X182225Y139993D01*
X182325Y140500D01*
Y159119D01*
X182658Y159342D01*
X183167Y160103D01*
X183345Y161000D01*
X183167Y161897D01*
X182658Y162658D01*
X181897Y163167D01*
X181000Y163345D01*
D02*
G37*
G36*
X418528Y160143D02*
X415353D01*
Y155787D01*
X415616D01*
Y125874D01*
X415628Y125812D01*
X415376Y125423D01*
Y125423D01*
X415376Y125423D01*
X415376D01*
X415224Y125280D01*
X415097Y125280D01*
X403582D01*
Y119350D01*
X415418D01*
Y120990D01*
X419951D01*
X420734Y120207D01*
Y103441D01*
X420834Y102934D01*
X421122Y102504D01*
X428660Y94966D01*
X428311Y94122D01*
X428163Y93000D01*
X428311Y91878D01*
X428744Y90831D01*
X429433Y89933D01*
X430332Y89244D01*
X431378Y88811D01*
X432500Y88663D01*
X433623Y88811D01*
X434668Y89244D01*
X435567Y89933D01*
X436256Y90831D01*
X436689Y91878D01*
X436837Y93000D01*
X436689Y94122D01*
X436256Y95169D01*
X435567Y96067D01*
X434668Y96756D01*
X433623Y97189D01*
X432500Y97337D01*
X431378Y97189D01*
X430534Y96840D01*
X423385Y103990D01*
Y120756D01*
X423284Y121263D01*
X422996Y121693D01*
X421437Y123252D01*
X418266Y126423D01*
Y155787D01*
X418528D01*
Y160143D01*
D02*
G37*
G36*
X309500Y141785D02*
X308520Y141656D01*
X307607Y141278D01*
X306823Y140676D01*
X306222Y139893D01*
X305844Y138980D01*
X305715Y138000D01*
X305844Y137020D01*
X306222Y136107D01*
X306823Y135324D01*
X307607Y134722D01*
X308174Y134487D01*
Y129013D01*
X307607Y128778D01*
X306823Y128176D01*
X306222Y127393D01*
X305844Y126480D01*
X305715Y125500D01*
X305844Y124520D01*
X306222Y123607D01*
X306823Y122824D01*
X307607Y122222D01*
X308520Y121844D01*
X309500Y121715D01*
X310480Y121844D01*
X311393Y122222D01*
X312176Y122824D01*
X312778Y123607D01*
X313156Y124520D01*
X313285Y125500D01*
X313156Y126480D01*
X312778Y127393D01*
X312176Y128176D01*
X311393Y128778D01*
X310825Y129013D01*
Y134487D01*
X311393Y134722D01*
X312176Y135324D01*
X312778Y136107D01*
X313156Y137020D01*
X313285Y138000D01*
X313156Y138980D01*
X312778Y139893D01*
X312176Y140676D01*
X311393Y141278D01*
X310480Y141656D01*
X309500Y141785D01*
D02*
G37*
G36*
X299500Y129285D02*
X298520Y129156D01*
X297607Y128778D01*
X296824Y128176D01*
X296222Y127393D01*
X295987Y126825D01*
X268000D01*
X267493Y126725D01*
X267063Y126437D01*
X259547Y118921D01*
X258980Y119156D01*
X258000Y119285D01*
X257020Y119156D01*
X256107Y118778D01*
X255324Y118176D01*
X254722Y117393D01*
X254344Y116480D01*
X254215Y115500D01*
X254344Y114520D01*
X254722Y113607D01*
X255324Y112823D01*
X256107Y112222D01*
X257020Y111844D01*
X258000Y111715D01*
X258980Y111844D01*
X259893Y112222D01*
X260677Y112823D01*
X261278Y113607D01*
X261656Y114520D01*
X261785Y115500D01*
X261656Y116480D01*
X261421Y117047D01*
X268549Y124174D01*
X295987D01*
X296222Y123607D01*
X296824Y122824D01*
X297607Y122222D01*
X298520Y121844D01*
X299500Y121715D01*
X300480Y121844D01*
X301393Y122222D01*
X302176Y122824D01*
X302778Y123607D01*
X303156Y124520D01*
X303285Y125500D01*
X303156Y126480D01*
X302778Y127393D01*
X302176Y128176D01*
X301393Y128778D01*
X300480Y129156D01*
X299500Y129285D01*
D02*
G37*
G36*
X223753Y128753D02*
X216247D01*
Y121247D01*
X223753D01*
Y128753D01*
D02*
G37*
G36*
X210000Y128785D02*
X209020Y128656D01*
X208107Y128278D01*
X207324Y127676D01*
X206722Y126893D01*
X206344Y125980D01*
X206215Y125000D01*
X206344Y124020D01*
X206722Y123107D01*
X207324Y122324D01*
X208107Y121722D01*
X209020Y121344D01*
X210000Y121215D01*
X210980Y121344D01*
X211893Y121722D01*
X212677Y122324D01*
X213278Y123107D01*
X213656Y124020D01*
X213785Y125000D01*
X213656Y125980D01*
X213278Y126893D01*
X212677Y127676D01*
X211893Y128278D01*
X210980Y128656D01*
X210000Y128785D01*
D02*
G37*
G36*
X200000D02*
X199020Y128656D01*
X198107Y128278D01*
X197324Y127676D01*
X196722Y126893D01*
X196344Y125980D01*
X196215Y125000D01*
X196344Y124020D01*
X196722Y123107D01*
X197324Y122324D01*
X198107Y121722D01*
X199020Y121344D01*
X200000Y121215D01*
X200980Y121344D01*
X201893Y121722D01*
X202677Y122324D01*
X203278Y123107D01*
X203656Y124020D01*
X203785Y125000D01*
X203656Y125980D01*
X203278Y126893D01*
X202677Y127676D01*
X201893Y128278D01*
X200980Y128656D01*
X200000Y128785D01*
D02*
G37*
G36*
X190000D02*
X189020Y128656D01*
X188107Y128278D01*
X187323Y127676D01*
X186722Y126893D01*
X186344Y125980D01*
X186215Y125000D01*
X186344Y124020D01*
X186722Y123107D01*
X187323Y122324D01*
X188107Y121722D01*
X189020Y121344D01*
X190000Y121215D01*
X190980Y121344D01*
X191893Y121722D01*
X192676Y122324D01*
X193278Y123107D01*
X193656Y124020D01*
X193785Y125000D01*
X193656Y125980D01*
X193278Y126893D01*
X192676Y127676D01*
X191893Y128278D01*
X190980Y128656D01*
X190000Y128785D01*
D02*
G37*
G36*
X443918Y126280D02*
X432082D01*
Y120350D01*
X443918D01*
Y126280D01*
D02*
G37*
G36*
X248500Y119421D02*
Y116000D01*
X251921D01*
X251851Y116532D01*
X251453Y117493D01*
X250819Y118319D01*
X249993Y118953D01*
X249032Y119351D01*
X248500Y119421D01*
D02*
G37*
G36*
X247500D02*
X246968Y119351D01*
X246007Y118953D01*
X245181Y118319D01*
X244547Y117493D01*
X244149Y116532D01*
X244079Y116000D01*
X247500D01*
Y119421D01*
D02*
G37*
G36*
X220500Y118921D02*
Y115500D01*
X223921D01*
X223851Y116032D01*
X223453Y116993D01*
X222819Y117819D01*
X221993Y118453D01*
X221032Y118851D01*
X220500Y118921D01*
D02*
G37*
G36*
X219500D02*
X218968Y118851D01*
X218007Y118453D01*
X217181Y117819D01*
X216547Y116993D01*
X216149Y116032D01*
X216079Y115500D01*
X219500D01*
Y118921D01*
D02*
G37*
G36*
X281753Y119253D02*
X274247D01*
Y111747D01*
X281753D01*
Y119253D01*
D02*
G37*
G36*
X309500Y119285D02*
X308520Y119156D01*
X307607Y118778D01*
X306823Y118176D01*
X306222Y117393D01*
X305844Y116480D01*
X305715Y115500D01*
X305844Y114520D01*
X306222Y113607D01*
X306823Y112823D01*
X307607Y112222D01*
X308520Y111844D01*
X309500Y111715D01*
X310480Y111844D01*
X311393Y112222D01*
X312176Y112823D01*
X312778Y113607D01*
X313156Y114520D01*
X313285Y115500D01*
X313156Y116480D01*
X312778Y117393D01*
X312176Y118176D01*
X311393Y118778D01*
X310480Y119156D01*
X309500Y119285D01*
D02*
G37*
G36*
X251921Y115000D02*
X248500D01*
Y111579D01*
X249032Y111649D01*
X249993Y112047D01*
X250819Y112681D01*
X251453Y113507D01*
X251851Y114468D01*
X251921Y115000D01*
D02*
G37*
G36*
X247500D02*
X244079D01*
X244149Y114468D01*
X244547Y113507D01*
X245181Y112681D01*
X246007Y112047D01*
X246968Y111649D01*
X247500Y111579D01*
Y115000D01*
D02*
G37*
G36*
X210000Y118785D02*
X209020Y118656D01*
X208107Y118278D01*
X207324Y117676D01*
X206722Y116893D01*
X206344Y115980D01*
X206215Y115000D01*
X206344Y114020D01*
X206722Y113107D01*
X207324Y112323D01*
X208107Y111722D01*
X209020Y111344D01*
X210000Y111215D01*
X210980Y111344D01*
X211893Y111722D01*
X212677Y112323D01*
X213278Y113107D01*
X213656Y114020D01*
X213785Y115000D01*
X213656Y115980D01*
X213278Y116893D01*
X212677Y117676D01*
X211893Y118278D01*
X210980Y118656D01*
X210000Y118785D01*
D02*
G37*
G36*
X200000D02*
X199020Y118656D01*
X198107Y118278D01*
X197324Y117676D01*
X196722Y116893D01*
X196344Y115980D01*
X196215Y115000D01*
X196344Y114020D01*
X196722Y113107D01*
X197324Y112323D01*
X198107Y111722D01*
X199020Y111344D01*
X200000Y111215D01*
X200980Y111344D01*
X201893Y111722D01*
X202677Y112323D01*
X203278Y113107D01*
X203656Y114020D01*
X203785Y115000D01*
X203656Y115980D01*
X203278Y116893D01*
X202677Y117676D01*
X201893Y118278D01*
X200980Y118656D01*
X200000Y118785D01*
D02*
G37*
G36*
X190000D02*
X189020Y118656D01*
X188107Y118278D01*
X187323Y117676D01*
X186722Y116893D01*
X186344Y115980D01*
X186215Y115000D01*
X186344Y114020D01*
X186722Y113107D01*
X187323Y112323D01*
X188107Y111722D01*
X189020Y111344D01*
X190000Y111215D01*
X190980Y111344D01*
X191893Y111722D01*
X192676Y112323D01*
X193278Y113107D01*
X193656Y114020D01*
X193785Y115000D01*
X193656Y115980D01*
X193278Y116893D01*
X192676Y117676D01*
X191893Y118278D01*
X190980Y118656D01*
X190000Y118785D01*
D02*
G37*
G36*
X180000D02*
X179020Y118656D01*
X178107Y118278D01*
X177323Y117676D01*
X176722Y116893D01*
X176344Y115980D01*
X176215Y115000D01*
X176344Y114020D01*
X176722Y113107D01*
X177323Y112323D01*
X178107Y111722D01*
X179020Y111344D01*
X180000Y111215D01*
X180980Y111344D01*
X181893Y111722D01*
X182676Y112323D01*
X183278Y113107D01*
X183656Y114020D01*
X183785Y115000D01*
X183656Y115980D01*
X183278Y116893D01*
X182676Y117676D01*
X181893Y118278D01*
X180980Y118656D01*
X180000Y118785D01*
D02*
G37*
G36*
X160000D02*
X159020Y118656D01*
X158107Y118278D01*
X157324Y117676D01*
X156722Y116893D01*
X156344Y115980D01*
X156215Y115000D01*
X156344Y114020D01*
X156722Y113107D01*
X157324Y112323D01*
X158107Y111722D01*
X159020Y111344D01*
X160000Y111215D01*
X160980Y111344D01*
X161893Y111722D01*
X162677Y112323D01*
X163278Y113107D01*
X163656Y114020D01*
X163785Y115000D01*
X163656Y115980D01*
X163278Y116893D01*
X162677Y117676D01*
X161893Y118278D01*
X160980Y118656D01*
X160000Y118785D01*
D02*
G37*
G36*
X223921Y114500D02*
X220500D01*
Y111079D01*
X221032Y111149D01*
X221993Y111547D01*
X222819Y112181D01*
X223453Y113007D01*
X223851Y113968D01*
X223921Y114500D01*
D02*
G37*
G36*
X219500D02*
X216079D01*
X216149Y113968D01*
X216547Y113007D01*
X217181Y112181D01*
X218007Y111547D01*
X218968Y111149D01*
X219500Y111079D01*
Y114500D01*
D02*
G37*
G36*
X338000Y109087D02*
X337072Y108964D01*
X336207Y108606D01*
X335464Y108036D01*
X334894Y107293D01*
X334536Y106428D01*
X334413Y105500D01*
X334536Y104572D01*
X334894Y103707D01*
X335464Y102964D01*
X336207Y102394D01*
X337072Y102036D01*
X338000Y101913D01*
X338928Y102036D01*
X339793Y102394D01*
X340536Y102964D01*
X341106Y103707D01*
X341464Y104572D01*
X341587Y105500D01*
X341464Y106428D01*
X341106Y107293D01*
X340536Y108036D01*
X339793Y108606D01*
X338928Y108964D01*
X338000Y109087D01*
D02*
G37*
G36*
X402500Y97973D02*
Y94000D01*
X406473D01*
X406384Y94675D01*
X405931Y95769D01*
X405209Y96709D01*
X404269Y97431D01*
X403175Y97884D01*
X402500Y97973D01*
D02*
G37*
G36*
X401500D02*
X400825Y97884D01*
X399731Y97431D01*
X398791Y96709D01*
X398069Y95769D01*
X397616Y94675D01*
X397527Y94000D01*
X401500D01*
Y97973D01*
D02*
G37*
G36*
X268000Y119285D02*
X267020Y119156D01*
X266107Y118778D01*
X265323Y118176D01*
X264722Y117393D01*
X264344Y116480D01*
X264215Y115500D01*
X264344Y114520D01*
X264722Y113607D01*
X265323Y112823D01*
X266107Y112222D01*
X266674Y111987D01*
Y95500D01*
X266774Y95003D01*
X266536Y94428D01*
X266413Y93500D01*
X266536Y92572D01*
X266894Y91707D01*
X267464Y90964D01*
X268207Y90394D01*
X269072Y90036D01*
X270000Y89913D01*
X270928Y90036D01*
X271793Y90394D01*
X272536Y90964D01*
X273106Y91707D01*
X273464Y92572D01*
X273587Y93500D01*
X273464Y94428D01*
X273106Y95293D01*
X272536Y96036D01*
X271793Y96606D01*
X270928Y96964D01*
X270000Y97087D01*
X269701Y97047D01*
X269325Y97377D01*
Y111987D01*
X269893Y112222D01*
X270676Y112823D01*
X271278Y113607D01*
X271656Y114520D01*
X271785Y115500D01*
X271656Y116480D01*
X271278Y117393D01*
X270676Y118176D01*
X269893Y118778D01*
X268980Y119156D01*
X268000Y119285D01*
D02*
G37*
G36*
X378969Y122292D02*
X375031D01*
X374309Y122197D01*
X373635Y121918D01*
X373057Y121475D01*
X372613Y120896D01*
X372334Y120223D01*
X372239Y119500D01*
X372334Y118777D01*
X372613Y118104D01*
X373057Y117525D01*
X373331Y117315D01*
Y116685D01*
X373057Y116474D01*
X372613Y115896D01*
X372334Y115223D01*
X372239Y114500D01*
X372334Y113777D01*
X372613Y113104D01*
X373057Y112525D01*
X373331Y112315D01*
Y111685D01*
X373057Y111475D01*
X372613Y110896D01*
X372334Y110223D01*
X372239Y109500D01*
X372334Y108777D01*
X372613Y108104D01*
X373057Y107526D01*
X373635Y107082D01*
X374309Y106803D01*
X375031Y106708D01*
X377918D01*
X382174Y102451D01*
Y96300D01*
X381707Y96106D01*
X380964Y95536D01*
X380394Y94793D01*
X380036Y93928D01*
X379913Y93000D01*
X380036Y92072D01*
X380394Y91207D01*
X380964Y90464D01*
X381707Y89894D01*
X382572Y89536D01*
X383500Y89413D01*
X384428Y89536D01*
X385293Y89894D01*
X386036Y90464D01*
X386606Y91207D01*
X386964Y92072D01*
X387087Y93000D01*
X386964Y93928D01*
X386606Y94793D01*
X386036Y95536D01*
X385293Y96106D01*
X384825Y96300D01*
Y103000D01*
X384725Y103507D01*
X384437Y103937D01*
X380937Y107437D01*
X380943Y107526D01*
X381387Y108104D01*
X381666Y108777D01*
X381761Y109500D01*
X381666Y110223D01*
X381387Y110896D01*
X380943Y111475D01*
X380669Y111685D01*
Y112315D01*
X380943Y112525D01*
X381387Y113104D01*
X381666Y113777D01*
X381761Y114500D01*
X381666Y115223D01*
X381387Y115896D01*
X380943Y116474D01*
X380669Y116685D01*
Y117315D01*
X380943Y117525D01*
X381387Y118104D01*
X381666Y118777D01*
X381761Y119500D01*
X381666Y120223D01*
X381387Y120896D01*
X380943Y121475D01*
X380365Y121918D01*
X379691Y122197D01*
X378969Y122292D01*
D02*
G37*
G36*
X333500Y96587D02*
X332572Y96464D01*
X331707Y96106D01*
X330964Y95536D01*
X330394Y94793D01*
X330036Y93928D01*
X329913Y93000D01*
X330036Y92072D01*
X330394Y91207D01*
X330964Y90464D01*
X331707Y89894D01*
X332572Y89536D01*
X333500Y89413D01*
X334428Y89536D01*
X335293Y89894D01*
X336036Y90464D01*
X336606Y91207D01*
X336964Y92072D01*
X337087Y93000D01*
X336964Y93928D01*
X336606Y94793D01*
X336036Y95536D01*
X335293Y96106D01*
X334428Y96464D01*
X333500Y96587D01*
D02*
G37*
G36*
X415418Y114650D02*
X403582D01*
Y108720D01*
X410591D01*
X410674Y108636D01*
Y97605D01*
X409831Y97256D01*
X408933Y96567D01*
X408244Y95669D01*
X407811Y94622D01*
X407663Y93500D01*
X407811Y92378D01*
X408244Y91331D01*
X408933Y90433D01*
X409831Y89744D01*
X410878Y89311D01*
X412000Y89163D01*
X413123Y89311D01*
X414169Y89744D01*
X415067Y90433D01*
X415756Y91331D01*
X416189Y92378D01*
X416337Y93500D01*
X416189Y94622D01*
X415756Y95669D01*
X415067Y96567D01*
X414169Y97256D01*
X413326Y97605D01*
Y108720D01*
X415418D01*
Y114650D01*
D02*
G37*
G36*
X406473Y93000D02*
X402500D01*
Y89027D01*
X403175Y89116D01*
X404269Y89569D01*
X405209Y90291D01*
X405931Y91231D01*
X406384Y92325D01*
X406473Y93000D01*
D02*
G37*
G36*
X401500D02*
X397527D01*
X397616Y92325D01*
X398069Y91231D01*
X398791Y90291D01*
X399731Y89569D01*
X400825Y89116D01*
X401500Y89027D01*
Y93000D01*
D02*
G37*
G36*
X443918Y115650D02*
X432082D01*
Y109720D01*
X439091D01*
X441175Y107636D01*
Y97105D01*
X440332Y96756D01*
X439433Y96067D01*
X438744Y95169D01*
X438311Y94122D01*
X438163Y93000D01*
X438311Y91878D01*
X438744Y90831D01*
X439433Y89933D01*
X440332Y89244D01*
X441377Y88811D01*
X442500Y88663D01*
X443622Y88811D01*
X444668Y89244D01*
X445567Y89933D01*
X446256Y90831D01*
X446689Y91878D01*
X446837Y93000D01*
X446689Y94122D01*
X446256Y95169D01*
X445567Y96067D01*
X444668Y96756D01*
X443825Y97105D01*
Y108185D01*
X443825Y108185D01*
X443725Y108692D01*
X443437Y109122D01*
X443302Y109258D01*
X443493Y109720D01*
X443918D01*
Y115650D01*
D02*
G37*
%LPD*%
G36*
X422685Y172500D02*
X421310Y171126D01*
X420768Y171290D01*
X420725Y171507D01*
X420437Y171937D01*
X416437Y175937D01*
X416007Y176225D01*
X415500Y176326D01*
X390500D01*
X389993Y176225D01*
X389563Y175937D01*
X383825Y170200D01*
X383326Y170407D01*
Y174500D01*
X383225Y175007D01*
X382937Y175437D01*
X369200Y189174D01*
X369407Y189674D01*
X374951D01*
X379031Y185595D01*
X378919Y185326D01*
X378811Y184500D01*
X378919Y183675D01*
X379238Y182905D01*
X379745Y182245D01*
X380405Y181738D01*
X381174Y181419D01*
X382000Y181310D01*
X382825Y181419D01*
X383595Y181738D01*
X384255Y182245D01*
X384762Y182905D01*
X385081Y183675D01*
X385190Y184500D01*
X385081Y185326D01*
X384762Y186095D01*
X384255Y186755D01*
X383595Y187262D01*
X382825Y187581D01*
X382000Y187689D01*
X381174Y187581D01*
X380905Y187469D01*
X376437Y191937D01*
X376007Y192225D01*
X375500Y192325D01*
X305445D01*
X305151Y192730D01*
X305286Y193175D01*
X402010D01*
X422685Y172500D01*
D02*
G37*
G36*
X277673Y262592D02*
X277655Y262500D01*
X277733Y262107D01*
X230262Y214636D01*
X229664D01*
X229473Y215098D01*
X277212Y262838D01*
X277673Y262592D01*
D02*
G37*
G36*
X127799Y209200D02*
X127627Y208806D01*
X127561Y208731D01*
X112906D01*
X112398Y208630D01*
X111968Y208343D01*
X107838Y204213D01*
X107551Y203783D01*
X107450Y203275D01*
Y136225D01*
X107551Y135717D01*
X107838Y135287D01*
X126579Y116547D01*
X126344Y115980D01*
X126215Y115000D01*
X126344Y114020D01*
X126722Y113107D01*
X127323Y112323D01*
X128107Y111722D01*
X129020Y111344D01*
X129160Y111326D01*
X129127Y110826D01*
X123549D01*
X106325Y128049D01*
Y206357D01*
X109643Y209675D01*
X127325D01*
X127799Y209200D01*
D02*
G37*
G36*
X330675Y136093D02*
Y128549D01*
X323816Y121691D01*
X323692Y121686D01*
X323253Y122085D01*
X323253Y122211D01*
Y127378D01*
X328937Y133063D01*
X329225Y133493D01*
X329326Y134000D01*
Y135119D01*
X329658Y135342D01*
X330167Y136103D01*
X330174Y136143D01*
X330675Y136093D01*
D02*
G37*
D10*
X422059Y157965D02*
D03*
X416941D02*
D03*
X416941Y166035D02*
D03*
X419500D02*
D03*
X422059D02*
D03*
D11*
X438000Y112685D02*
D03*
Y123315D02*
D03*
X409500Y111685D02*
D03*
Y122315D02*
D03*
X121500Y198315D02*
D03*
Y187685D02*
D03*
D12*
X196122Y231323D02*
D03*
X194153D02*
D03*
X192185D02*
D03*
X190217D02*
D03*
X188248D02*
D03*
X186279D02*
D03*
X184311D02*
D03*
X182343D02*
D03*
X180374D02*
D03*
X178405D02*
D03*
X176437D02*
D03*
X174469D02*
D03*
X172500D02*
D03*
X170531D02*
D03*
X168563D02*
D03*
X166595D02*
D03*
X164626D02*
D03*
X162657D02*
D03*
X160689D02*
D03*
X158721D02*
D03*
X156752D02*
D03*
X154783D02*
D03*
X152815D02*
D03*
X150847D02*
D03*
X148878D02*
D03*
Y171677D02*
D03*
X150847D02*
D03*
X152815D02*
D03*
X154783D02*
D03*
X156752D02*
D03*
X158721D02*
D03*
X160689D02*
D03*
X162657D02*
D03*
X164626D02*
D03*
X166595D02*
D03*
X168563D02*
D03*
X170531D02*
D03*
X172500D02*
D03*
X174469D02*
D03*
X176437D02*
D03*
X178405D02*
D03*
X180374D02*
D03*
X182343D02*
D03*
X184311D02*
D03*
X186279D02*
D03*
X188248D02*
D03*
X190217D02*
D03*
X192185D02*
D03*
X194153D02*
D03*
X196122D02*
D03*
D13*
X142677Y225122D02*
D03*
Y223153D02*
D03*
Y221185D02*
D03*
Y219216D02*
D03*
Y217248D02*
D03*
Y215280D02*
D03*
Y213311D02*
D03*
Y211343D02*
D03*
Y209374D02*
D03*
Y207405D02*
D03*
Y205437D02*
D03*
Y203468D02*
D03*
Y201500D02*
D03*
Y199531D02*
D03*
Y197563D02*
D03*
Y195595D02*
D03*
Y193626D02*
D03*
Y191657D02*
D03*
Y189689D02*
D03*
Y187721D02*
D03*
Y185752D02*
D03*
Y183783D02*
D03*
Y181815D02*
D03*
Y179847D02*
D03*
Y177878D02*
D03*
X202323D02*
D03*
Y179847D02*
D03*
Y181815D02*
D03*
Y183783D02*
D03*
Y185752D02*
D03*
Y187721D02*
D03*
Y189689D02*
D03*
Y191657D02*
D03*
Y193626D02*
D03*
Y195595D02*
D03*
Y197563D02*
D03*
Y199531D02*
D03*
Y201500D02*
D03*
Y203468D02*
D03*
Y205437D02*
D03*
Y207405D02*
D03*
Y209374D02*
D03*
Y211343D02*
D03*
Y213311D02*
D03*
Y215280D02*
D03*
Y217248D02*
D03*
Y219216D02*
D03*
Y221185D02*
D03*
Y223153D02*
D03*
Y225122D02*
D03*
D14*
X191905Y253000D02*
D03*
X186000D02*
D03*
X119299Y170500D02*
D03*
X125205D02*
D03*
X187094Y153500D02*
D03*
X193000D02*
D03*
D15*
X222500Y194047D02*
D03*
Y199953D02*
D03*
X140000Y252547D02*
D03*
Y258453D02*
D03*
X153000D02*
D03*
Y252547D02*
D03*
D16*
X176043Y252500D02*
D03*
X168957D02*
D03*
D17*
X176000Y260000D02*
X176043Y259957D01*
Y252500D02*
Y259957D01*
X195500Y267000D02*
X207500Y279000D01*
X186000Y257500D02*
X195500Y267000D01*
X171500D02*
X195500D01*
X187185Y160315D02*
X192185D01*
X220000Y295000D02*
X252000D01*
X375000Y246500D02*
Y250000D01*
X337500Y209000D02*
X375000Y246500D01*
X317000Y209000D02*
X337500D01*
X309433Y201433D02*
X317000Y209000D01*
X302500Y201433D02*
X309433D01*
X375500Y222000D02*
Y227000D01*
X354933Y201433D02*
X375500Y222000D01*
X319500Y201433D02*
X354933D01*
X330000Y182500D02*
X336000Y188500D01*
X368000D01*
X382000Y174500D01*
Y166500D02*
Y174500D01*
X336000Y162000D02*
X346500Y172500D01*
X352000D01*
X363500Y184000D01*
X402559Y194500D02*
X424559Y172500D01*
X300500Y194500D02*
X402559D01*
X295500Y199500D02*
X300500Y194500D01*
X295500Y199500D02*
Y219500D01*
X303500Y227500D01*
X375500Y191000D02*
X382000Y184500D01*
X303500Y191000D02*
X375500D01*
X352000Y163000D02*
Y166500D01*
Y163000D02*
X364500Y150500D01*
X302000Y237500D02*
X303500D01*
X291000Y226500D02*
X302000Y237500D01*
X332000Y128000D02*
Y140500D01*
X319500Y115500D02*
X332000Y128000D01*
X324000Y148500D02*
X332000Y140500D01*
X328000Y134000D02*
Y137000D01*
X319500Y125500D02*
X328000Y134000D01*
X302500Y155567D02*
X309567Y148500D01*
X324000D01*
X284000Y162000D02*
Y183000D01*
Y149000D02*
Y162000D01*
X336000D01*
X349500Y148500D01*
X291000Y168500D02*
Y226500D01*
X382000Y166500D02*
X390500Y175000D01*
X415500D01*
X419500Y171000D01*
Y166035D02*
Y171000D01*
X379500Y148500D02*
X397035Y166035D01*
X416941D01*
X416941Y125874D02*
X420500Y122315D01*
X416941Y125874D02*
Y157965D01*
X422059Y166035D02*
Y170000D01*
X424559Y172500D01*
X429500D01*
X435000Y167000D01*
Y142500D02*
Y167000D01*
X409500Y122315D02*
X420500D01*
X422059Y120756D01*
Y103441D02*
Y120756D01*
Y103441D02*
X432500Y93000D01*
X438000Y112685D02*
X442500Y108185D01*
Y93000D02*
Y108185D01*
X409500Y111685D02*
X412000Y109185D01*
Y93500D02*
Y109185D01*
X390000Y142500D02*
X405000D01*
X362000Y114500D02*
X390000Y142500D01*
X354000Y114500D02*
X362000D01*
X377000Y109500D02*
X383500Y103000D01*
Y93000D02*
Y103000D01*
X320000Y93500D02*
X325500Y99000D01*
X351000D01*
X354000Y102000D01*
Y109500D01*
X341000Y119500D02*
X354000D01*
X329500Y108000D02*
X341000Y119500D01*
X307000Y108000D02*
X329500D01*
X299500Y115500D02*
X307000Y108000D01*
X309500Y125500D02*
Y138000D01*
X272500Y137500D02*
X284000Y149000D01*
X278000Y189000D02*
X284000Y183000D01*
X272000Y189000D02*
X278000D01*
X260000Y179000D02*
X272000D01*
X251000Y188000D02*
X260000Y179000D01*
X251000Y188000D02*
Y206000D01*
X220000Y261500D02*
X231000Y250500D01*
X220000Y261500D02*
Y285000D01*
X264000Y260000D02*
Y266500D01*
X225185Y221185D02*
X264000Y260000D01*
X202323Y221185D02*
X225185D01*
X253000Y257689D02*
Y271000D01*
X218465Y223153D02*
X253000Y257689D01*
X202323Y223153D02*
X218465D01*
X372500Y272000D02*
X384000Y283500D01*
X424925D01*
X476791Y302500D02*
X495791Y283500D01*
X387500Y302500D02*
X476791D01*
X379000Y294000D02*
X387500Y302500D01*
X369500Y303500D02*
X379000Y294000D01*
X332000Y303500D02*
X369500D01*
X319000Y290500D02*
X332000Y303500D01*
X202323Y199531D02*
X222079D01*
X222500Y199953D02*
X226000D01*
X228547Y156547D02*
Y197406D01*
X226000Y199953D02*
X228547Y197406D01*
X252000Y295000D02*
X255500Y298500D01*
X311000D01*
X319000Y290500D01*
X268000Y95500D02*
Y115500D01*
Y95500D02*
X270000Y93500D01*
X268000Y125500D02*
X299500D01*
X258000Y115500D02*
X268000Y125500D01*
X255000Y145000D02*
X262500Y137500D01*
X197500Y145000D02*
X255000D01*
X193000Y149500D02*
X197500Y145000D01*
X193000Y149500D02*
Y153500D01*
Y159500D01*
X192185Y160315D02*
X193000Y159500D01*
X192185Y160315D02*
Y171677D01*
X212000Y279000D02*
X215000Y282000D01*
X207500Y279000D02*
X212000D01*
X186000Y253000D02*
Y257500D01*
X215000Y290000D02*
X220000Y295000D01*
X215000Y282000D02*
Y290000D01*
X180547Y247547D02*
X186000Y253000D01*
X174547Y247547D02*
X180547D01*
X172500Y245500D02*
X174547Y247547D01*
X172500Y231323D02*
Y245500D01*
X228500Y156500D02*
X228547Y156547D01*
X202323Y215280D02*
X227780D01*
X202323Y213311D02*
X230811D01*
X227780Y215280D02*
X289000Y276500D01*
X230811Y213311D02*
X280000Y262500D01*
X202323Y211343D02*
X235842D01*
X202323Y209374D02*
X238874D01*
X289000Y276500D02*
Y280500D01*
X235842Y211343D02*
X299000Y274500D01*
X238874Y209374D02*
X277047Y247547D01*
X205877Y191379D02*
X211257Y186000D01*
X222500D01*
X202601Y191379D02*
X205877D01*
X202323Y191657D02*
X202601Y191379D01*
X299000Y274500D02*
Y280500D01*
X277047Y247547D02*
X287047D01*
X309000Y269500D02*
Y280500D01*
X287047Y247547D02*
X309000Y269500D01*
X125205Y165295D02*
Y170500D01*
Y165295D02*
X150000Y140500D01*
X166595Y160000D02*
X168563Y161969D01*
Y171677D01*
X174191Y158191D02*
Y171399D01*
X154500Y138500D02*
X174191Y158191D01*
X154500Y119500D02*
Y138500D01*
X157500Y154500D02*
X158721Y155720D01*
Y171677D01*
X153000Y159500D02*
X156752Y163252D01*
Y171677D01*
X170000Y115000D02*
X175000Y120000D01*
Y134500D01*
X152815Y231323D02*
Y241000D01*
X135000Y120000D02*
X140000Y125000D01*
X135000Y112500D02*
Y120000D01*
X105000Y127500D02*
Y206906D01*
X109095Y211000D01*
X127874D01*
X135406Y203468D01*
X142677D01*
X112906Y207405D02*
X127594D01*
X133500Y201500D01*
X142677D01*
X112500Y142500D02*
X130000Y125000D01*
X112500Y142500D02*
Y201500D01*
X115500Y204500D01*
X127000D01*
X131968Y199531D01*
X142677D01*
X178405Y240563D02*
X182343Y244500D01*
X178405Y231323D02*
Y240563D01*
X183843Y241000D02*
X189500D01*
X180374Y237531D02*
X183843Y241000D01*
X180374Y231323D02*
Y237531D01*
X158500Y260000D02*
X176000D01*
X156953Y258453D02*
X158500Y260000D01*
X153000Y258453D02*
X156953D01*
X140000D02*
X153000D01*
X174469Y241000D02*
X176969Y243500D01*
X174469Y231323D02*
Y241000D01*
X170531Y231323D02*
Y244969D01*
X168957Y246543D02*
X170531Y244969D01*
X168957Y246543D02*
Y252500D01*
X222500Y193904D02*
Y194047D01*
X222079Y199531D02*
X222500Y199953D01*
X150000Y115000D02*
X154500Y119500D01*
X174191Y171399D02*
X174469Y171677D01*
X125205Y170500D02*
X130500D01*
X133500Y173500D01*
Y185500D01*
X135721Y187721D01*
X142677D01*
X121500Y187685D02*
X129000D01*
X131004Y189689D01*
X142677D01*
X121500Y198315D02*
X122252Y197563D01*
X142677D01*
X175000Y134500D02*
X181000Y140500D01*
Y161000D01*
X105000Y127500D02*
X123000Y109500D01*
X132000D01*
X135000Y112500D01*
X108775Y136225D02*
X130000Y115000D01*
X108775Y136225D02*
Y203275D01*
X112906Y207405D01*
D18*
X382000Y184500D02*
D03*
X352000D02*
D03*
X349500Y148500D02*
D03*
X379500D02*
D03*
X379000Y294000D02*
D03*
X349000D02*
D03*
X381500Y209000D02*
D03*
X351500D02*
D03*
D19*
X442500Y93000D02*
D03*
X432500D02*
D03*
X412000Y93500D02*
D03*
X402000D02*
D03*
D20*
X270000D02*
D03*
X320000D02*
D03*
X333500Y93000D02*
D03*
X383500D02*
D03*
X352000Y166500D02*
D03*
X382000D02*
D03*
X338000Y135500D02*
D03*
Y105500D02*
D03*
X405000Y142500D02*
D03*
X435000D02*
D03*
X342500Y272000D02*
D03*
X372500D02*
D03*
D21*
X272000Y189000D02*
D03*
Y179000D02*
D03*
D22*
Y169000D02*
D03*
D23*
X302500Y201433D02*
D03*
X319500D02*
D03*
X309500Y138000D02*
D03*
X299500D02*
D03*
X319500Y115500D02*
D03*
X309500Y125500D02*
D03*
Y115500D02*
D03*
X299500Y125500D02*
D03*
Y115500D02*
D03*
X252000Y285000D02*
D03*
X365000Y250000D02*
D03*
X375500Y227000D02*
D03*
X248000Y115500D02*
D03*
X258000D02*
D03*
X268000D02*
D03*
X289000Y280500D02*
D03*
Y290500D02*
D03*
X299000Y280500D02*
D03*
Y290500D02*
D03*
X309000Y280500D02*
D03*
Y290500D02*
D03*
X319000Y280500D02*
D03*
X130000Y115000D02*
D03*
X140000D02*
D03*
X150000D02*
D03*
X160000D02*
D03*
X170000D02*
D03*
X180000D02*
D03*
X190000D02*
D03*
X200000D02*
D03*
X210000D02*
D03*
X220000D02*
D03*
X130000Y125000D02*
D03*
X140000D02*
D03*
X150000D02*
D03*
X160000D02*
D03*
X170000D02*
D03*
X180000D02*
D03*
X190000D02*
D03*
X200000D02*
D03*
X210000D02*
D03*
X333500Y227500D02*
D03*
Y237500D02*
D03*
Y247500D02*
D03*
X303500Y217500D02*
D03*
Y227500D02*
D03*
Y237500D02*
D03*
Y247500D02*
D03*
X130000Y285000D02*
D03*
X140000D02*
D03*
X150000D02*
D03*
X160000D02*
D03*
X170000D02*
D03*
X180000D02*
D03*
X190000D02*
D03*
X200000D02*
D03*
X210000D02*
D03*
X220000D02*
D03*
X130000Y295000D02*
D03*
X140000D02*
D03*
X150000D02*
D03*
X160000D02*
D03*
X170000D02*
D03*
X180000D02*
D03*
X190000D02*
D03*
X200000D02*
D03*
X210000D02*
D03*
D24*
X302500Y155567D02*
D03*
X319500D02*
D03*
X252000Y295000D02*
D03*
D25*
X272500Y137500D02*
D03*
D26*
X262500D02*
D03*
D27*
X252500D02*
D03*
D28*
X319500Y138000D02*
D03*
Y125500D02*
D03*
X375000Y250000D02*
D03*
X365500Y227000D02*
D03*
X278000Y115500D02*
D03*
X319000Y290500D02*
D03*
X220000Y125000D02*
D03*
X333500Y217500D02*
D03*
X220000Y295000D02*
D03*
D29*
X354000Y109500D02*
D03*
Y119500D02*
D03*
X377000Y109500D02*
D03*
Y119500D02*
D03*
D30*
X354000Y114500D02*
D03*
X377000D02*
D03*
D31*
X495791Y283500D02*
D03*
D32*
X487917D02*
D03*
X480043D02*
D03*
X472169D02*
D03*
X464295D02*
D03*
X456421D02*
D03*
X448547D02*
D03*
X440673D02*
D03*
X432799D02*
D03*
X424925D02*
D03*
Y196886D02*
D03*
X432799D02*
D03*
X440673D02*
D03*
X448547D02*
D03*
X456421D02*
D03*
X464295D02*
D03*
X472169D02*
D03*
X480043D02*
D03*
X487917D02*
D03*
X495791D02*
D03*
D33*
X171500Y267000D02*
D03*
X187185Y160315D02*
D03*
X330000Y182500D02*
D03*
X363500Y184000D02*
D03*
X303500Y191000D02*
D03*
X364500Y150500D02*
D03*
X328000Y137000D02*
D03*
X291000Y168500D02*
D03*
X251000Y206000D02*
D03*
X231000Y250500D02*
D03*
X264000Y266500D02*
D03*
X253000Y271000D02*
D03*
X228500Y156500D02*
D03*
X211000Y199500D02*
D03*
X222500Y186000D02*
D03*
X280000Y262500D02*
D03*
X150000Y140500D02*
D03*
X166595Y160000D02*
D03*
X157500Y154500D02*
D03*
X153000Y159500D02*
D03*
X152815Y241000D02*
D03*
X182343Y244500D02*
D03*
X189500Y241000D02*
D03*
X176000Y260000D02*
D03*
X176969Y243500D02*
D03*
X181000Y161000D02*
D03*
M02*
