G04 Layer_Color=8421504*
%FSLAX25Y25*%
%MOIN*%
G70*
G01*
G75*
%ADD10R,0.01575X0.02756*%
%ADD11R,0.10236X0.04331*%
%ADD12O,0.01181X0.06890*%
%ADD13O,0.06890X0.01181*%
%ADD14R,0.04331X0.05512*%
%ADD15R,0.05512X0.04331*%
%ADD16R,0.04724X0.05512*%
D10*
X422059Y157965D02*
D03*
X416941D02*
D03*
X416941Y166035D02*
D03*
X419500D02*
D03*
X422059D02*
D03*
D11*
X438000Y112685D02*
D03*
Y123315D02*
D03*
X409500Y111685D02*
D03*
Y122315D02*
D03*
X121500Y198315D02*
D03*
Y187685D02*
D03*
D12*
X196122Y231323D02*
D03*
X194153D02*
D03*
X192185D02*
D03*
X190217D02*
D03*
X188248D02*
D03*
X186279D02*
D03*
X184311D02*
D03*
X182343D02*
D03*
X180374D02*
D03*
X178405D02*
D03*
X176437D02*
D03*
X174469D02*
D03*
X172500D02*
D03*
X170531D02*
D03*
X168563D02*
D03*
X166595D02*
D03*
X164626D02*
D03*
X162657D02*
D03*
X160689D02*
D03*
X158721D02*
D03*
X156752D02*
D03*
X154783D02*
D03*
X152815D02*
D03*
X150847D02*
D03*
X148878D02*
D03*
Y171677D02*
D03*
X150847D02*
D03*
X152815D02*
D03*
X154783D02*
D03*
X156752D02*
D03*
X158721D02*
D03*
X160689D02*
D03*
X162657D02*
D03*
X164626D02*
D03*
X166595D02*
D03*
X168563D02*
D03*
X170531D02*
D03*
X172500D02*
D03*
X174469D02*
D03*
X176437D02*
D03*
X178405D02*
D03*
X180374D02*
D03*
X182343D02*
D03*
X184311D02*
D03*
X186279D02*
D03*
X188248D02*
D03*
X190217D02*
D03*
X192185D02*
D03*
X194153D02*
D03*
X196122D02*
D03*
D13*
X142677Y225122D02*
D03*
Y223153D02*
D03*
Y221185D02*
D03*
Y219216D02*
D03*
Y217248D02*
D03*
Y215280D02*
D03*
Y213311D02*
D03*
Y211343D02*
D03*
Y209374D02*
D03*
Y207405D02*
D03*
Y205437D02*
D03*
Y203468D02*
D03*
Y201500D02*
D03*
Y199531D02*
D03*
Y197563D02*
D03*
Y195595D02*
D03*
Y193626D02*
D03*
Y191657D02*
D03*
Y189689D02*
D03*
Y187721D02*
D03*
Y185752D02*
D03*
Y183783D02*
D03*
Y181815D02*
D03*
Y179847D02*
D03*
Y177878D02*
D03*
X202323D02*
D03*
Y179847D02*
D03*
Y181815D02*
D03*
Y183783D02*
D03*
Y185752D02*
D03*
Y187721D02*
D03*
Y189689D02*
D03*
Y191657D02*
D03*
Y193626D02*
D03*
Y195595D02*
D03*
Y197563D02*
D03*
Y199531D02*
D03*
Y201500D02*
D03*
Y203468D02*
D03*
Y205437D02*
D03*
Y207405D02*
D03*
Y209374D02*
D03*
Y211343D02*
D03*
Y213311D02*
D03*
Y215280D02*
D03*
Y217248D02*
D03*
Y219216D02*
D03*
Y221185D02*
D03*
Y223153D02*
D03*
Y225122D02*
D03*
D14*
X191905Y253000D02*
D03*
X186000D02*
D03*
X119299Y170500D02*
D03*
X125205D02*
D03*
X187094Y153500D02*
D03*
X193000D02*
D03*
D15*
X222500Y194047D02*
D03*
Y199953D02*
D03*
X140000Y252547D02*
D03*
Y258453D02*
D03*
X153000D02*
D03*
Y252547D02*
D03*
D16*
X176043Y252500D02*
D03*
X168957D02*
D03*
M02*
