G04 Layer_Color=32896*
%FSLAX25Y25*%
%MOIN*%
G70*
G01*
G75*
%ADD17C,0.01000*%
%ADD35C,0.00984*%
%ADD36C,0.00787*%
D17*
X242500Y130000D02*
X282500D01*
X242500Y127500D02*
Y144500D01*
Y145000D02*
X282500D01*
Y127500D02*
Y144500D01*
X242500Y127500D02*
X282500D01*
X283524Y209898D02*
Y204900D01*
X282525Y203900D01*
X280525D01*
X279526Y204900D01*
Y209898D01*
X273528D02*
X275527Y208898D01*
X277526Y206899D01*
Y204900D01*
X276527Y203900D01*
X274527D01*
X273528Y204900D01*
Y205899D01*
X274527Y206899D01*
X277526D01*
X303390Y213790D02*
X307388D01*
Y210791D01*
X305389D01*
X307388D01*
Y207792D01*
X297391D02*
X301390D01*
X297391Y211791D01*
Y212790D01*
X298391Y213790D01*
X300391D01*
X301390Y212790D01*
X320401Y213790D02*
X324400D01*
Y210791D01*
X322401D01*
X324400D01*
Y207792D01*
X318402D02*
X316403D01*
X317402D01*
Y213790D01*
X318402Y212790D01*
X340400Y141700D02*
Y147698D01*
X337401D01*
X336401Y146698D01*
Y144699D01*
X337401Y143699D01*
X340400D01*
X338401D02*
X336401Y141700D01*
X334402Y146698D02*
X333402Y147698D01*
X331403D01*
X330403Y146698D01*
Y145699D01*
X331403Y144699D01*
X332403D01*
X331403D01*
X330403Y143699D01*
Y142700D01*
X331403Y141700D01*
X333402D01*
X334402Y142700D01*
X282000Y154498D02*
Y149500D01*
X281000Y148500D01*
X279001D01*
X278001Y149500D01*
Y154498D01*
X273003Y148500D02*
Y154498D01*
X276002Y151499D01*
X272003D01*
D35*
X272492Y155575D02*
G03*
X272492Y155575I-492J0D01*
G01*
D36*
X281449Y158134D02*
Y199866D01*
X283417Y158134D02*
Y199866D01*
X265307Y158134D02*
Y199866D01*
X283417D01*
X265307Y158134D02*
X283417D01*
X296988Y168067D02*
Y188933D01*
X308012Y168067D02*
Y188933D01*
X296988Y168067D02*
X308012D01*
X296988Y188933D02*
X308012D01*
X313988Y168067D02*
Y188933D01*
X325012Y168067D02*
Y188933D01*
X313988Y168067D02*
X325012D01*
X313988Y188933D02*
X325012D01*
X338000Y130500D02*
X341000D01*
Y110500D02*
Y130500D01*
X335000Y110500D02*
X341000D01*
X335000D02*
Y130500D01*
X338000D01*
Y109600D02*
Y110500D01*
Y130500D02*
Y131400D01*
M02*
