G04 Layer_Color=32768*
%FSLAX25Y25*%
%MOIN*%
G70*
G01*
G75*
%ADD63C,0.00394*%
%ADD64C,0.00197*%
D63*
X272000Y177032D02*
Y180968D01*
X270031Y179000D02*
X273969D01*
X417531Y162000D02*
X421468D01*
X419500Y160031D02*
Y163969D01*
X414185Y155602D02*
Y168398D01*
X424815Y155602D02*
Y168398D01*
X414185Y155602D02*
X424815D01*
X414185Y168398D02*
X424815D01*
X432488Y110126D02*
X443512D01*
X432488Y125874D02*
X443512D01*
X432488Y110126D02*
Y125874D01*
X443512Y110126D02*
Y125874D01*
X438000Y116032D02*
Y119968D01*
X436031Y118000D02*
X439968D01*
X403988Y109126D02*
X415012D01*
X403988Y124874D02*
X415012D01*
X403988Y109126D02*
Y124874D01*
X415012Y109126D02*
Y124874D01*
X409500Y115032D02*
Y118968D01*
X407531Y117000D02*
X411469D01*
X352031Y114500D02*
X355968D01*
X354000Y112531D02*
Y116469D01*
X138248Y235752D02*
X206752D01*
X138248Y167248D02*
X206752D01*
Y235752D01*
X138248Y167248D02*
Y235752D01*
X172500Y199531D02*
Y203468D01*
X170531Y201500D02*
X174469D01*
X188953Y251031D02*
Y254969D01*
X186984Y253000D02*
X190921D01*
X183441Y249850D02*
X194465D01*
X183441Y256150D02*
X194465D01*
Y249850D02*
Y256150D01*
X183441Y249850D02*
Y256150D01*
X122252Y168532D02*
Y172468D01*
X120283Y170500D02*
X124221D01*
X116740Y173650D02*
X127764D01*
X116740Y167350D02*
X127764D01*
X116740D02*
Y173650D01*
X127764Y167350D02*
Y173650D01*
X220532Y197000D02*
X224468D01*
X222500Y195031D02*
Y198969D01*
X219350Y191488D02*
Y202512D01*
X225650Y191488D02*
Y202512D01*
X219350Y191488D02*
X225650D01*
X219350Y202512D02*
X225650D01*
X179390Y248760D02*
Y256240D01*
X165610Y248760D02*
Y256240D01*
Y248760D02*
X179390D01*
X165610Y256240D02*
X179390D01*
X170531Y252500D02*
X174469D01*
X172500Y250532D02*
Y254468D01*
X138031Y255500D02*
X141969D01*
X140000Y253532D02*
Y257469D01*
X136850Y249988D02*
Y261012D01*
X143150Y249988D02*
Y261012D01*
X136850Y249988D02*
X143150D01*
X136850Y261012D02*
X143150D01*
X151031Y255500D02*
X154969D01*
X153000Y253532D02*
Y257469D01*
X156150Y249988D02*
Y261012D01*
X149850Y249988D02*
Y261012D01*
X156150D01*
X149850Y249988D02*
X156150D01*
X115988Y200874D02*
X127012D01*
X115988Y185126D02*
X127012D01*
Y200874D01*
X115988Y185126D02*
Y200874D01*
X121500Y191032D02*
Y194968D01*
X119532Y193000D02*
X123468D01*
X316531Y232500D02*
X320468D01*
X318500Y230532D02*
Y234469D01*
X375031Y114500D02*
X378969D01*
X377000Y112531D02*
Y116469D01*
X190047Y151532D02*
Y155468D01*
X188079Y153500D02*
X192016D01*
X184535Y156650D02*
X195559D01*
X184535Y150350D02*
X195559D01*
X184535D02*
Y156650D01*
X195559Y150350D02*
Y156650D01*
D64*
X264323Y200752D02*
X284402D01*
X264323Y157248D02*
X284402D01*
Y200752D01*
X264323Y157248D02*
Y200752D01*
M02*
