G04 Layer_Color=65535*
%FSLAX25Y25*%
%MOIN*%
G70*
G01*
G75*
%ADD17C,0.01000*%
%ADD34C,0.00500*%
%ADD35C,0.00984*%
%ADD36C,0.00787*%
%ADD37C,0.02362*%
%ADD38C,0.00800*%
%ADD39C,0.00591*%
%ADD40C,0.00700*%
D17*
X412791Y187516D02*
Y292870D01*
X391815D02*
X495791D01*
X391815Y187516D02*
Y292870D01*
X521500Y217398D02*
Y262988D01*
X495791Y187516D02*
X521500Y217398D01*
X495791Y187516D02*
X495807D01*
X391815D02*
X495791D01*
Y292870D02*
X521500Y262988D01*
X329499Y196656D02*
X328499Y197655D01*
X326500D01*
X325500Y196656D01*
Y192657D01*
X326500Y191657D01*
X328499D01*
X329499Y192657D01*
X331498Y191657D02*
X333497D01*
X332498D01*
Y197655D01*
X331498Y196656D01*
X336496D02*
X337496Y197655D01*
X339495D01*
X340495Y196656D01*
Y192657D01*
X339495Y191657D01*
X337496D01*
X336496Y192657D01*
Y196656D01*
X421500Y116498D02*
Y110500D01*
X424499D01*
X425499Y111500D01*
Y115498D01*
X424499Y116498D01*
X421500D01*
X427498Y110500D02*
X429497D01*
X428498D01*
Y116498D01*
X427498Y115498D01*
X390000Y117498D02*
Y111500D01*
X392999D01*
X393999Y112500D01*
Y116498D01*
X392999Y117498D01*
X390000D01*
X399997Y111500D02*
X395998D01*
X399997Y115499D01*
Y116498D01*
X398997Y117498D01*
X396998D01*
X395998Y116498D01*
X268000Y99500D02*
Y105498D01*
X270999D01*
X271999Y104498D01*
Y102499D01*
X270999Y101499D01*
X268000D01*
X269999D02*
X271999Y99500D01*
X273998Y105498D02*
X277997D01*
Y104498D01*
X273998Y100500D01*
Y99500D01*
X322000Y100000D02*
Y105998D01*
X324999D01*
X325999Y104998D01*
Y102999D01*
X324999Y101999D01*
X322000D01*
X323999D02*
X325999Y100000D01*
X331997D02*
X327998D01*
X331997Y103999D01*
Y104998D01*
X330997Y105998D01*
X328998D01*
X327998Y104998D01*
X332499Y156998D02*
X331499Y157998D01*
X329500D01*
X328500Y156998D01*
Y153000D01*
X329500Y152000D01*
X331499D01*
X332499Y153000D01*
X334498Y156998D02*
X335498Y157998D01*
X337497D01*
X338497Y156998D01*
Y155999D01*
X337497Y154999D01*
X336497D01*
X337497D01*
X338497Y153999D01*
Y153000D01*
X337497Y152000D01*
X335498D01*
X334498Y153000D01*
X336500Y167000D02*
Y172998D01*
X339499D01*
X340499Y171998D01*
Y169999D01*
X339499Y168999D01*
X336500D01*
X338499D02*
X340499Y167000D01*
X346497Y172998D02*
X342498D01*
Y169999D01*
X344497Y170999D01*
X345497D01*
X346497Y169999D01*
Y168000D01*
X345497Y167000D01*
X343498D01*
X342498Y168000D01*
X287500Y144500D02*
Y150498D01*
X290499D01*
X291499Y149498D01*
Y147499D01*
X290499Y146499D01*
X287500D01*
X296497Y144500D02*
Y150498D01*
X293498Y147499D01*
X297497D01*
X330000Y118500D02*
Y124498D01*
X332999D01*
X333999Y123498D01*
Y121499D01*
X332999Y120499D01*
X330000D01*
X335998Y123498D02*
X336998Y124498D01*
X338997D01*
X339997Y123498D01*
Y122499D01*
X338997Y121499D01*
X337997D01*
X338997D01*
X339997Y120499D01*
Y119500D01*
X338997Y118500D01*
X336998D01*
X335998Y119500D01*
X247600Y303400D02*
Y309398D01*
X250599D01*
X251599Y308398D01*
Y306399D01*
X250599Y305399D01*
X247600D01*
X257597Y309398D02*
X253598D01*
Y306399D01*
X255597Y307399D01*
X256597D01*
X257597Y306399D01*
Y304400D01*
X256597Y303400D01*
X254598D01*
X253598Y304400D01*
X346099Y309898D02*
X345099Y310898D01*
X343100D01*
X342100Y309898D01*
Y305900D01*
X343100Y304900D01*
X345099D01*
X346099Y305900D01*
X352097Y304900D02*
X348098D01*
X352097Y308899D01*
Y309898D01*
X351097Y310898D01*
X349098D01*
X348098Y309898D01*
X348599Y224898D02*
X347599Y225898D01*
X345600D01*
X344600Y224898D01*
Y220900D01*
X345600Y219900D01*
X347599D01*
X348599Y220900D01*
X350598Y219900D02*
X352597D01*
X351598D01*
Y225898D01*
X350598Y224898D01*
X360600Y264398D02*
Y258400D01*
X363599D01*
X364599Y259400D01*
Y260399D01*
X363599Y261399D01*
X360600D01*
X363599D01*
X364599Y262399D01*
Y263398D01*
X363599Y264398D01*
X360600D01*
X366598D02*
X370597D01*
X368597D01*
Y258400D01*
X376595D02*
X372596D01*
X376595Y262399D01*
Y263398D01*
X375595Y264398D01*
X373596D01*
X372596Y263398D01*
X356500Y241398D02*
Y235400D01*
X359499D01*
X360499Y236400D01*
Y237399D01*
X359499Y238399D01*
X356500D01*
X359499D01*
X360499Y239399D01*
Y240398D01*
X359499Y241398D01*
X356500D01*
X362498D02*
X366497D01*
X364497D01*
Y235400D01*
X368496D02*
X370496D01*
X369496D01*
Y241398D01*
X368496Y240398D01*
X415000Y177598D02*
Y172600D01*
X416000Y171600D01*
X417999D01*
X418999Y172600D01*
Y177598D01*
X424997D02*
X420998D01*
Y174599D01*
X422997Y175599D01*
X423997D01*
X424997Y174599D01*
Y172600D01*
X423997Y171600D01*
X421998D01*
X420998Y172600D01*
X433300Y129100D02*
Y135098D01*
X436299D01*
X437299Y134098D01*
Y132099D01*
X436299Y131099D01*
X433300D01*
X435299D02*
X437299Y129100D01*
X443297Y135098D02*
X441297Y134098D01*
X439298Y132099D01*
Y130100D01*
X440298Y129100D01*
X442297D01*
X443297Y130100D01*
Y131099D01*
X442297Y132099D01*
X439298D01*
X404800Y128100D02*
Y134098D01*
X407799D01*
X408799Y133098D01*
Y131099D01*
X407799Y130099D01*
X404800D01*
X406799D02*
X408799Y128100D01*
X410798Y133098D02*
X411798Y134098D01*
X413797D01*
X414797Y133098D01*
Y132099D01*
X413797Y131099D01*
X414797Y130099D01*
Y129100D01*
X413797Y128100D01*
X411798D01*
X410798Y129100D01*
Y130099D01*
X411798Y131099D01*
X410798Y132099D01*
Y133098D01*
X411798Y131099D02*
X413797D01*
X402800Y148900D02*
Y154898D01*
X405799D01*
X406799Y153898D01*
Y151899D01*
X405799Y150899D01*
X402800D01*
X404799D02*
X406799Y148900D01*
X408798Y149900D02*
X409798Y148900D01*
X411797D01*
X412797Y149900D01*
Y153898D01*
X411797Y154898D01*
X409798D01*
X408798Y153898D01*
Y152899D01*
X409798Y151899D01*
X412797D01*
X352699Y130600D02*
Y134598D01*
X351699Y135598D01*
X349700D01*
X348700Y134598D01*
Y130600D01*
X349700Y129600D01*
X351699D01*
X350699Y131599D02*
X352699Y129600D01*
X351699D02*
X352699Y130600D01*
X358697Y129600D02*
X354698D01*
X358697Y133599D01*
Y134598D01*
X357697Y135598D01*
X355698D01*
X354698Y134598D01*
X392300Y302398D02*
Y297400D01*
X393300Y296400D01*
X395299D01*
X396299Y297400D01*
Y302398D01*
X398298Y301398D02*
X399298Y302398D01*
X401297D01*
X402297Y301398D01*
Y300399D01*
X401297Y299399D01*
X400297D01*
X401297D01*
X402297Y298399D01*
Y297400D01*
X401297Y296400D01*
X399298D01*
X398298Y297400D01*
X139100Y244898D02*
Y239900D01*
X140100Y238900D01*
X142099D01*
X143099Y239900D01*
Y244898D01*
X149097Y238900D02*
X145098D01*
X149097Y242899D01*
Y243898D01*
X148097Y244898D01*
X146098D01*
X145098Y243898D01*
X301100Y262198D02*
Y257200D01*
X302100Y256200D01*
X304099D01*
X305099Y257200D01*
Y262198D01*
X307098Y256200D02*
X309097D01*
X308098D01*
Y262198D01*
X307098Y261198D01*
X340300Y278400D02*
Y284398D01*
X343299D01*
X344299Y283398D01*
Y281399D01*
X343299Y280399D01*
X340300D01*
X342299D02*
X344299Y278400D01*
X349297D02*
Y284398D01*
X346298Y281399D01*
X350297D01*
X116800Y204100D02*
Y210098D01*
X119799D01*
X120799Y209098D01*
Y207099D01*
X119799Y206099D01*
X116800D01*
X118799D02*
X120799Y204100D01*
X122798D02*
X124797D01*
X123798D01*
Y210098D01*
X122798Y209098D01*
X375699Y130600D02*
Y134598D01*
X374699Y135598D01*
X372700D01*
X371700Y134598D01*
Y130600D01*
X372700Y129600D01*
X374699D01*
X373699Y131599D02*
X375699Y129600D01*
X374699D02*
X375699Y130600D01*
X377698Y129600D02*
X379697D01*
X378698D01*
Y135598D01*
X377698Y134598D01*
X115900Y134400D02*
Y140398D01*
X118899D01*
X119899Y139398D01*
Y137399D01*
X118899Y136399D01*
X115900D01*
X121898Y133400D02*
X125897D01*
X131895Y140398D02*
X129895D01*
X130895D01*
Y135400D01*
X129895Y134400D01*
X128896D01*
X127896Y135400D01*
X137893Y134400D02*
X133894D01*
X137893Y138399D01*
Y139398D01*
X136893Y140398D01*
X134894D01*
X133894Y139398D01*
X115900Y304400D02*
Y310398D01*
X118899D01*
X119899Y309398D01*
Y307399D01*
X118899Y306399D01*
X115900D01*
X121898Y303400D02*
X125897D01*
X131895Y310398D02*
X129895D01*
X130895D01*
Y305400D01*
X129895Y304400D01*
X128896D01*
X127896Y305400D01*
X133894Y304400D02*
X135893D01*
X134894D01*
Y310398D01*
X133894Y309398D01*
X243600Y123900D02*
Y129898D01*
X246599D01*
X247599Y128898D01*
Y126899D01*
X246599Y125899D01*
X243600D01*
X253597Y123900D02*
X249598D01*
X253597Y127899D01*
Y128898D01*
X252597Y129898D01*
X250598D01*
X249598Y128898D01*
X279900Y298900D02*
Y304898D01*
X282899D01*
X283899Y303898D01*
Y301899D01*
X282899Y300899D01*
X279900D01*
X285898Y298900D02*
X287897D01*
X286898D01*
Y304898D01*
X285898Y303898D01*
X166400Y265398D02*
Y259400D01*
X170399D01*
X172398D02*
X174397D01*
X173398D01*
Y265398D01*
X172398Y264398D01*
X141699Y269198D02*
X140699Y270198D01*
X138700D01*
X137700Y269198D01*
Y265200D01*
X138700Y264200D01*
X140699D01*
X141699Y265200D01*
X143698D02*
X144698Y264200D01*
X146697D01*
X147697Y265200D01*
Y269198D01*
X146697Y270198D01*
X144698D01*
X143698Y269198D01*
Y268199D01*
X144698Y267199D01*
X147697D01*
X154699Y269198D02*
X153699Y270198D01*
X151700D01*
X150700Y269198D01*
Y265200D01*
X151700Y264200D01*
X153699D01*
X154699Y265200D01*
X156698Y269198D02*
X157698Y270198D01*
X159697D01*
X160697Y269198D01*
Y268199D01*
X159697Y267199D01*
X160697Y266199D01*
Y265200D01*
X159697Y264200D01*
X157698D01*
X156698Y265200D01*
Y266199D01*
X157698Y267199D01*
X156698Y268199D01*
Y269198D01*
X157698Y267199D02*
X159697D01*
X188251Y264298D02*
X187252Y265298D01*
X185252D01*
X184253Y264298D01*
Y260300D01*
X185252Y259300D01*
X187252D01*
X188251Y260300D01*
X190251Y265298D02*
X194249D01*
Y264298D01*
X190251Y260300D01*
Y259300D01*
X190999Y147498D02*
X189999Y148498D01*
X188000D01*
X187000Y147498D01*
Y143500D01*
X188000Y142500D01*
X189999D01*
X190999Y143500D01*
X196997Y148498D02*
X194997Y147498D01*
X192998Y145499D01*
Y143500D01*
X193998Y142500D01*
X195997D01*
X196997Y143500D01*
Y144499D01*
X195997Y145499D01*
X192998D01*
X121551Y181798D02*
X120551Y182798D01*
X118552D01*
X117552Y181798D01*
Y177800D01*
X118552Y176800D01*
X120551D01*
X121551Y177800D01*
X127549Y182798D02*
X123550D01*
Y179799D01*
X125549Y180799D01*
X126549D01*
X127549Y179799D01*
Y177800D01*
X126549Y176800D01*
X124550D01*
X123550Y177800D01*
X224199Y210683D02*
X223199Y211683D01*
X221200D01*
X220200Y210683D01*
Y206685D01*
X221200Y205685D01*
X223199D01*
X224199Y206685D01*
X229197Y205685D02*
Y211683D01*
X226198Y208684D01*
X230197D01*
D34*
X428000Y62500D02*
G03*
X447000Y62500I9500J0D01*
G01*
X397500Y63000D02*
G03*
X416500Y63000I9500J0D01*
G01*
X425500Y72500D02*
Y108000D01*
Y72500D02*
X449500D01*
Y108000D01*
X428000Y62500D02*
Y72500D01*
X447000Y62500D02*
Y72500D01*
X425500Y108000D02*
X430000D01*
Y98000D02*
Y108000D01*
Y98000D02*
X445000D01*
Y108000D01*
X449500D01*
X395000Y73000D02*
Y108500D01*
Y73000D02*
X419000D01*
Y108500D01*
X397500Y63000D02*
Y73000D01*
X416500Y63000D02*
Y73000D01*
X395000Y108500D02*
X399500D01*
Y98500D02*
Y108500D01*
Y98500D02*
X414500D01*
Y108500D01*
X419000D01*
D35*
X425504Y166035D02*
G03*
X425504Y166035I-492J0D01*
G01*
X349177Y125642D02*
G03*
X349177Y125642I-492J0D01*
G01*
X199370Y231323D02*
G03*
X199370Y231323I-492J0D01*
G01*
X333992Y212382D02*
G03*
X333992Y212382I-492J0D01*
G01*
X372177Y125642D02*
G03*
X372177Y125642I-492J0D01*
G01*
D36*
X348095Y106705D02*
G03*
X348095Y122295I5906J7795D01*
G01*
X321000Y212224D02*
G03*
X316000Y212224I-2500J0D01*
G01*
X371094Y106705D02*
G03*
X371094Y122295I5906J7795D01*
G01*
X389500Y177000D02*
Y192000D01*
X344500Y177000D02*
X389500D01*
X344500D02*
Y192000D01*
X389500D01*
X274000Y93500D02*
X280000D01*
X310000D02*
X316000D01*
X280000Y88500D02*
Y98500D01*
X310000D01*
Y88500D02*
Y98500D01*
X280000Y88500D02*
X310000D01*
X337500Y93000D02*
X343500D01*
X373500D02*
X379500D01*
X343500Y88000D02*
Y98000D01*
X373500D01*
Y88000D02*
Y98000D01*
X343500Y88000D02*
X373500D01*
X342000Y141000D02*
Y156000D01*
X387000D01*
Y141000D02*
Y156000D01*
X342000Y141000D02*
X387000D01*
X357000Y163500D02*
Y166500D01*
Y163500D02*
X377000D01*
Y169500D01*
X357000D02*
X377000D01*
X357000Y166500D02*
Y169500D01*
X377000Y166500D02*
X377900D01*
X356100D02*
X357000D01*
X294500Y143000D02*
X324500D01*
X294500Y133000D02*
Y143000D01*
Y133000D02*
X324500D01*
Y143000D01*
X294500Y110500D02*
Y130500D01*
X324500Y110500D02*
Y130500D01*
X294500Y110500D02*
X324500D01*
X294500Y130500D02*
X324500D01*
X294500D02*
X313667D01*
X247000Y280000D02*
X257000D01*
X247000D02*
Y300000D01*
X257000D01*
Y280000D02*
Y300000D01*
X386500Y286500D02*
Y301500D01*
X341500Y286500D02*
X386500D01*
X341500D02*
Y301500D01*
X386500D01*
X389000Y201500D02*
Y216500D01*
X344000Y201500D02*
X389000D01*
X344000D02*
Y216500D01*
X389000D01*
X360000Y245000D02*
X380000D01*
Y255000D01*
X360000D02*
X380000D01*
X360000Y245000D02*
Y255000D01*
X360500Y232000D02*
X380500D01*
X360500Y222000D02*
Y232000D01*
Y222000D02*
X380500D01*
Y232000D01*
X415169Y160819D02*
X423831D01*
X415169Y163181D02*
X423831D01*
X415169Y160819D02*
Y163181D01*
X423831Y160819D02*
Y163181D01*
X433276Y116425D02*
Y119575D01*
X442724Y116425D02*
Y119575D01*
X404776Y115425D02*
Y118575D01*
X414224Y115425D02*
Y118575D01*
X410000Y139500D02*
Y142500D01*
Y139500D02*
X430000D01*
Y145500D01*
X410000D02*
X430000D01*
X410000Y142500D02*
Y145500D01*
X430000Y142500D02*
X430900D01*
X409100D02*
X410000D01*
X348095Y106705D02*
Y122295D01*
X283000Y110500D02*
Y120500D01*
X243000Y110500D02*
X283000D01*
X243000Y120500D02*
X283000D01*
X243000Y110500D02*
Y120500D01*
X147697Y226303D02*
X197303D01*
X147697Y176697D02*
X197303D01*
Y226303D01*
X147697Y176697D02*
Y226303D01*
X172500Y250138D02*
Y254862D01*
X284000Y295500D02*
X324000D01*
X284000Y275500D02*
X324000D01*
Y295500D01*
X284000Y275500D02*
Y295500D01*
X126224Y191425D02*
Y194575D01*
X116776Y191425D02*
Y194575D01*
X125000Y110000D02*
X225000D01*
Y130000D01*
X125000D02*
X225000D01*
X125000Y110000D02*
Y130000D01*
X328933Y212224D02*
Y252776D01*
X308067Y212224D02*
Y252776D01*
X321000Y212224D02*
X328933D01*
X308067D02*
X316000D01*
X308067Y252776D02*
X328933D01*
X371094Y106705D02*
Y122295D01*
X347500Y269000D02*
Y272000D01*
Y269000D02*
X367500D01*
Y275000D01*
X347500D02*
X367500D01*
X347500Y272000D02*
Y275000D01*
X367500Y272000D02*
X368400D01*
X346600D02*
X347500D01*
X125000Y280000D02*
X225000D01*
Y300000D01*
X125000D02*
X225000D01*
X125000Y280000D02*
Y300000D01*
D37*
X194547Y222366D02*
G03*
X194547Y222366I-1181J0D01*
G01*
X326177Y216161D02*
G03*
X326177Y216161I-1181J0D01*
G01*
D38*
X290168Y112502D02*
X291834Y113335D01*
X293500Y115001D01*
Y116667D01*
X292667Y117500D01*
X291001D01*
X290168Y116667D01*
Y115834D01*
X291001Y115001D01*
X293500D01*
X290168Y122502D02*
X293500D01*
Y125001D01*
X291834Y124168D01*
X291001D01*
X290168Y125001D01*
Y126667D01*
X291001Y127500D01*
X292667D01*
X293500Y126667D01*
X326168Y117500D02*
X329500D01*
X326168Y114168D01*
Y113335D01*
X327001Y112502D01*
X328667D01*
X329500Y113335D01*
X327500Y127500D02*
X325834D01*
X326667D01*
Y122502D01*
X327500Y123335D01*
X325668Y282500D02*
X329000D01*
X325668Y279168D01*
Y278335D01*
X326501Y277502D01*
X328167D01*
X329000Y278335D01*
X327000Y292500D02*
X325334D01*
X326167D01*
Y287502D01*
X327000Y288335D01*
X283000Y287502D02*
X279668D01*
Y288335D01*
X283000Y291667D01*
Y292500D01*
Y278335D02*
X282167Y277502D01*
X280501D01*
X279668Y278335D01*
Y279168D01*
X280501Y280001D01*
X279668Y280834D01*
Y281667D01*
X280501Y282500D01*
X282167D01*
X283000Y281667D01*
Y280834D01*
X282167Y280001D01*
X283000Y279168D01*
Y278335D01*
X282167Y280001D02*
X280501D01*
X120668Y117000D02*
X124000D01*
X120668Y113668D01*
Y112835D01*
X121501Y112002D01*
X123167D01*
X124000Y112835D01*
X119002D02*
X118169Y112002D01*
X116502D01*
X115669Y112835D01*
Y116167D01*
X116502Y117000D01*
X118169D01*
X119002Y116167D01*
Y112835D01*
X124000Y127000D02*
X122334D01*
X123167D01*
Y122002D01*
X124000Y122835D01*
X119835D02*
X119002Y122002D01*
X117335D01*
X116502Y122835D01*
Y126167D01*
X117335Y127000D01*
X119002D01*
X119835Y126167D01*
Y122835D01*
X228000Y117000D02*
X226334D01*
X227167D01*
Y112002D01*
X228000Y112835D01*
X232000Y117000D02*
X230334D01*
X231167D01*
Y112002D01*
X232000Y112835D01*
X228000Y129000D02*
X226334D01*
X227167D01*
Y124002D01*
X228000Y124835D01*
X120668Y287000D02*
X124000D01*
X120668Y283668D01*
Y282835D01*
X121501Y282002D01*
X123167D01*
X124000Y282835D01*
X119002D02*
X118169Y282002D01*
X116502D01*
X115669Y282835D01*
Y286167D01*
X116502Y287000D01*
X118169D01*
X119002Y286167D01*
Y282835D01*
X124000Y297000D02*
X122334D01*
X123167D01*
Y292002D01*
X124000Y292835D01*
X119835D02*
X119002Y292002D01*
X117335D01*
X116502Y292835D01*
Y296167D01*
X117335Y297000D01*
X119002D01*
X119835Y296167D01*
Y292835D01*
X228000Y287000D02*
X226334D01*
X227167D01*
Y282002D01*
X228000Y282835D01*
X232000Y287000D02*
X230334D01*
X231167D01*
Y282002D01*
X232000Y282835D01*
X228000Y299000D02*
X226334D01*
X227167D01*
Y294002D01*
X228000Y294835D01*
D39*
X384449Y250009D02*
X381431D01*
X382940Y248500D02*
Y251517D01*
X356051Y226991D02*
X359069D01*
X357560Y228500D02*
Y225483D01*
D40*
X418790Y246500D02*
X414791Y243834D01*
X418790D02*
X414791Y246500D01*
X418790Y242501D02*
X414791D01*
Y240502D01*
X415458Y239836D01*
X416124D01*
X416791Y240502D01*
Y242501D01*
Y240502D01*
X417457Y239836D01*
X418124D01*
X418790Y240502D01*
Y242501D01*
Y235837D02*
Y238503D01*
X414791D01*
Y235837D01*
X416791Y238503D02*
Y237170D01*
X418790Y231838D02*
Y234504D01*
X414791D01*
Y231838D01*
X416791Y234504D02*
Y233171D01*
X398790Y254000D02*
X394791Y251334D01*
X398790D02*
X394791Y254000D01*
X398790Y250001D02*
X394791D01*
Y248002D01*
X395458Y247336D01*
X396124D01*
X396791Y248002D01*
Y250001D01*
Y248002D01*
X397457Y247336D01*
X398124D01*
X398790Y248002D01*
Y250001D01*
Y243337D02*
Y246003D01*
X394791D01*
Y243337D01*
X396791Y246003D02*
Y244670D01*
X398790Y239338D02*
Y242004D01*
X394791D01*
Y239338D01*
X396791Y242004D02*
Y240671D01*
X394125Y238005D02*
Y235339D01*
X394791Y234006D02*
X398790D01*
Y232007D01*
X398124Y231341D01*
X396791D01*
X396124Y232007D01*
Y234006D01*
X394791Y230008D02*
X398790D01*
Y228008D01*
X398124Y227342D01*
X396791D01*
X396124Y228008D01*
Y230008D01*
Y228675D02*
X394791Y227342D01*
X398790Y224010D02*
Y225343D01*
X398124Y226009D01*
X395458D01*
X394791Y225343D01*
Y224010D01*
X395458Y223343D01*
X398124D01*
X398790Y224010D01*
X493291Y289500D02*
Y288167D01*
Y288834D01*
X497290D01*
X496624Y289500D01*
X416791Y291000D02*
Y289667D01*
Y290334D01*
X420790D01*
X420124Y291000D01*
Y287668D02*
X420790Y287001D01*
Y285668D01*
X420124Y285002D01*
X417458D01*
X416791Y285668D01*
Y287001D01*
X417458Y287668D01*
X420124D01*
X416291Y194500D02*
Y193167D01*
Y193833D01*
X420290D01*
X419624Y194500D01*
X416291Y191168D02*
Y189835D01*
Y190501D01*
X420290D01*
X419624Y191168D01*
X492291Y191334D02*
Y194000D01*
X494957Y191334D01*
X495624D01*
X496290Y192001D01*
Y193333D01*
X495624Y194000D01*
Y190001D02*
X496290Y189335D01*
Y188002D01*
X495624Y187336D01*
X492958D01*
X492291Y188002D01*
Y189335D01*
X492958Y190001D01*
X495624D01*
M02*
