G04 Layer_Color=16711935*
%FSLAX25Y25*%
%MOIN*%
G70*
G01*
G75*
%ADD34C,0.00500*%
%ADD63C,0.00394*%
D34*
X192756Y232917D02*
G03*
X192717Y232957I-39J-0D01*
G01*
X191732D02*
G03*
X191693Y232917I-0J-39D01*
G01*
X203996Y208803D02*
G03*
X204035Y208843I-0J39D01*
G01*
Y209827D02*
G03*
X203996Y209866I-39J0D01*
G01*
Y187150D02*
G03*
X204035Y187189I0J39D01*
G01*
Y188173D02*
G03*
X203996Y188213I-39J0D01*
G01*
X152323Y170004D02*
G03*
X152362Y169965I39J0D01*
G01*
X153347D02*
G03*
X153386Y170004I-0J39D01*
G01*
X164134D02*
G03*
X164173Y169965I39J-0D01*
G01*
X165157D02*
G03*
X165197Y170004I-0J39D01*
G01*
X185787D02*
G03*
X185827Y169965I39J0D01*
G01*
X186811D02*
G03*
X186850Y170004I0J39D01*
G01*
X141083Y194118D02*
G03*
X141043Y194079I0J-39D01*
G01*
Y193095D02*
G03*
X141083Y193055I39J0D01*
G01*
Y215772D02*
G03*
X141043Y215732I0J-39D01*
G01*
Y214748D02*
G03*
X141083Y214709I39J0D01*
G01*
X159291Y232917D02*
G03*
X159252Y232957I-39J0D01*
G01*
X158268D02*
G03*
X158228Y232917I-0J-39D01*
G01*
X180945D02*
G03*
X180905Y232957I-39J-0D01*
G01*
X179921D02*
G03*
X179882Y232917I-0J-39D01*
G01*
X203996Y220614D02*
G03*
X204035Y220654I-0J39D01*
G01*
Y221638D02*
G03*
X203996Y221677I-39J0D01*
G01*
Y198961D02*
G03*
X204035Y199000I-0J39D01*
G01*
Y199984D02*
G03*
X203996Y200024I-39J0D01*
G01*
Y177307D02*
G03*
X204035Y177347I-0J39D01*
G01*
Y178331D02*
G03*
X203996Y178370I-39J0D01*
G01*
X141083Y182307D02*
G03*
X141043Y182268I-0J-39D01*
G01*
Y181283D02*
G03*
X141083Y181244I39J0D01*
G01*
X175945Y170004D02*
G03*
X175984Y169965I39J0D01*
G01*
X176969D02*
G03*
X177008Y170004I0J39D01*
G01*
X141083Y203961D02*
G03*
X141043Y203921I0J-39D01*
G01*
Y202937D02*
G03*
X141083Y202898I39J0D01*
G01*
Y225614D02*
G03*
X141043Y225575I-0J-39D01*
G01*
Y224591D02*
G03*
X141083Y224551I39J0D01*
G01*
X169134Y232917D02*
G03*
X169095Y232957I-39J-0D01*
G01*
X168110D02*
G03*
X168071Y232917I0J-39D01*
G01*
X190787D02*
G03*
X190748Y232957I-39J-0D01*
G01*
X189764D02*
G03*
X189724Y232917I-0J-39D01*
G01*
X203996Y210772D02*
G03*
X204035Y210811I-0J39D01*
G01*
Y211795D02*
G03*
X203996Y211835I-39J0D01*
G01*
Y189118D02*
G03*
X204035Y189157I0J39D01*
G01*
Y190142D02*
G03*
X203996Y190181I-39J0D01*
G01*
X154291Y170004D02*
G03*
X154331Y169965I39J0D01*
G01*
X155315D02*
G03*
X155354Y170004I-0J39D01*
G01*
X166102D02*
G03*
X166142Y169965I39J-0D01*
G01*
X167126D02*
G03*
X167165Y170004I0J39D01*
G01*
X187756D02*
G03*
X187795Y169965I39J0D01*
G01*
X188779D02*
G03*
X188819Y170004I0J39D01*
G01*
X141083Y192150D02*
G03*
X141043Y192110I0J-39D01*
G01*
Y191126D02*
G03*
X141083Y191087I39J0D01*
G01*
Y213803D02*
G03*
X141043Y213764I0J-39D01*
G01*
Y212780D02*
G03*
X141083Y212740I39J0D01*
G01*
X157323Y232917D02*
G03*
X157283Y232957I-39J0D01*
G01*
X156299D02*
G03*
X156260Y232917I-0J-39D01*
G01*
X178976D02*
G03*
X178937Y232957I-39J-0D01*
G01*
X177953D02*
G03*
X177913Y232917I-0J-39D01*
G01*
X203996Y222583D02*
G03*
X204035Y222622I-0J39D01*
G01*
Y223606D02*
G03*
X203996Y223646I-39J0D01*
G01*
Y200929D02*
G03*
X204035Y200969I-0J39D01*
G01*
Y201953D02*
G03*
X203996Y201992I-39J0D01*
G01*
Y179276D02*
G03*
X204035Y179315I-0J39D01*
G01*
Y180299D02*
G03*
X203996Y180339I-39J0D01*
G01*
X141083D02*
G03*
X141043Y180299I-0J-39D01*
G01*
Y179315D02*
G03*
X141083Y179276I39J0D01*
G01*
X177913Y170004D02*
G03*
X177953Y169965I39J0D01*
G01*
X178937D02*
G03*
X178976Y170004I0J39D01*
G01*
X141083Y201992D02*
G03*
X141043Y201953I0J-39D01*
G01*
Y200969D02*
G03*
X141083Y200929I39J0D01*
G01*
Y223646D02*
G03*
X141043Y223606I-0J-39D01*
G01*
Y222622D02*
G03*
X141083Y222583I39J0D01*
G01*
X167165Y232917D02*
G03*
X167126Y232957I-39J-0D01*
G01*
X166142D02*
G03*
X166102Y232917I0J-39D01*
G01*
X188819D02*
G03*
X188779Y232957I-39J-0D01*
G01*
X187795D02*
G03*
X187756Y232917I-0J-39D01*
G01*
X203996Y212740D02*
G03*
X204035Y212780I-0J39D01*
G01*
Y213764D02*
G03*
X203996Y213803I-39J0D01*
G01*
Y191087D02*
G03*
X204035Y191126I0J39D01*
G01*
Y192110D02*
G03*
X203996Y192150I-39J0D01*
G01*
X156260Y170004D02*
G03*
X156299Y169965I39J0D01*
G01*
X157283D02*
G03*
X157323Y170004I-0J39D01*
G01*
X168071D02*
G03*
X168110Y169965I39J-0D01*
G01*
X169095D02*
G03*
X169134Y170004I0J39D01*
G01*
X189724D02*
G03*
X189764Y169965I39J0D01*
G01*
X190748D02*
G03*
X190787Y170004I0J39D01*
G01*
X141083Y190181D02*
G03*
X141043Y190142I0J-39D01*
G01*
Y189157D02*
G03*
X141083Y189118I39J0D01*
G01*
Y211835D02*
G03*
X141043Y211795I0J-39D01*
G01*
Y210811D02*
G03*
X141083Y210772I39J0D01*
G01*
X155354Y232917D02*
G03*
X155315Y232957I-39J0D01*
G01*
X154331D02*
G03*
X154291Y232917I-0J-39D01*
G01*
X177008D02*
G03*
X176969Y232957I-39J-0D01*
G01*
X175984D02*
G03*
X175945Y232917I-0J-39D01*
G01*
X203996Y224551D02*
G03*
X204035Y224591I-0J39D01*
G01*
Y225575D02*
G03*
X203996Y225614I-39J0D01*
G01*
Y202898D02*
G03*
X204035Y202937I-0J39D01*
G01*
Y203921D02*
G03*
X203996Y203961I-39J0D01*
G01*
Y181244D02*
G03*
X204035Y181283I-0J39D01*
G01*
Y182268D02*
G03*
X203996Y182307I-39J0D01*
G01*
X141083Y178370D02*
G03*
X141043Y178331I-0J-39D01*
G01*
Y177347D02*
G03*
X141083Y177307I39J0D01*
G01*
X179882Y170004D02*
G03*
X179921Y169965I39J0D01*
G01*
X180905D02*
G03*
X180945Y170004I0J39D01*
G01*
X141083Y200024D02*
G03*
X141043Y199984I0J-39D01*
G01*
Y199000D02*
G03*
X141083Y198961I39J0D01*
G01*
X171102Y232917D02*
G03*
X171063Y232957I-39J-0D01*
G01*
X170079D02*
G03*
X170039Y232917I0J-39D01*
G01*
X141083Y221677D02*
G03*
X141043Y221638I0J-39D01*
G01*
Y220654D02*
G03*
X141083Y220614I39J0D01*
G01*
X165197Y232917D02*
G03*
X165157Y232957I-39J0D01*
G01*
X164173D02*
G03*
X164134Y232917I0J-39D01*
G01*
X186850D02*
G03*
X186811Y232957I-39J-0D01*
G01*
X185827D02*
G03*
X185787Y232917I-0J-39D01*
G01*
X203996Y214709D02*
G03*
X204035Y214748I-0J39D01*
G01*
Y215732D02*
G03*
X203996Y215772I-39J0D01*
G01*
Y193055D02*
G03*
X204035Y193095I0J39D01*
G01*
Y194079D02*
G03*
X203996Y194118I-39J0D01*
G01*
X158228Y170004D02*
G03*
X158268Y169965I39J0D01*
G01*
X159252D02*
G03*
X159291Y170004I-0J39D01*
G01*
X170039D02*
G03*
X170079Y169965I39J-0D01*
G01*
X171063D02*
G03*
X171102Y170004I0J39D01*
G01*
X191693D02*
G03*
X191732Y169965I39J0D01*
G01*
X192717D02*
G03*
X192756Y170004I0J39D01*
G01*
X141083Y188213D02*
G03*
X141043Y188173I0J-39D01*
G01*
Y187189D02*
G03*
X141083Y187150I39J0D01*
G01*
Y209866D02*
G03*
X141043Y209827I0J-39D01*
G01*
Y208843D02*
G03*
X141083Y208803I39J0D01*
G01*
X153386Y232917D02*
G03*
X153347Y232957I-39J0D01*
G01*
X152362D02*
G03*
X152323Y232917I-0J-39D01*
G01*
X175039D02*
G03*
X175000Y232957I-39J-0D01*
G01*
X174016D02*
G03*
X173976Y232917I0J-39D01*
G01*
X196693D02*
G03*
X196653Y232957I-39J-0D01*
G01*
X195669D02*
G03*
X195630Y232917I-0J-39D01*
G01*
X203996Y204866D02*
G03*
X204035Y204906I-0J39D01*
G01*
Y205890D02*
G03*
X203996Y205929I-39J0D01*
G01*
Y183213D02*
G03*
X204035Y183252I0J39D01*
G01*
Y184236D02*
G03*
X203996Y184276I-39J0D01*
G01*
X148386Y170004D02*
G03*
X148425Y169965I39J0D01*
G01*
X149409D02*
G03*
X149449Y170004I0J39D01*
G01*
X181850D02*
G03*
X181890Y169965I39J0D01*
G01*
X182874D02*
G03*
X182913Y170004I0J39D01*
G01*
X141083Y198055D02*
G03*
X141043Y198016I0J-39D01*
G01*
Y197031D02*
G03*
X141083Y196992I39J0D01*
G01*
Y219709D02*
G03*
X141043Y219669I0J-39D01*
G01*
Y218685D02*
G03*
X141083Y218646I39J0D01*
G01*
X163228Y232917D02*
G03*
X163189Y232957I-39J0D01*
G01*
X162205D02*
G03*
X162165Y232917I0J-39D01*
G01*
X184882D02*
G03*
X184843Y232957I-39J-0D01*
G01*
X183858D02*
G03*
X183819Y232917I-0J-39D01*
G01*
X203996Y216677D02*
G03*
X204035Y216717I-0J39D01*
G01*
Y217701D02*
G03*
X203996Y217740I-39J0D01*
G01*
Y195024D02*
G03*
X204035Y195063I0J39D01*
G01*
Y196047D02*
G03*
X203996Y196087I-39J0D01*
G01*
X160197Y170004D02*
G03*
X160236Y169965I39J0D01*
G01*
X161221D02*
G03*
X161260Y170004I-0J39D01*
G01*
X193661D02*
G03*
X193701Y169965I39J0D01*
G01*
X194685D02*
G03*
X194724Y170004I0J39D01*
G01*
X141083Y186244D02*
G03*
X141043Y186205I-0J-39D01*
G01*
Y185221D02*
G03*
X141083Y185181I39J0D01*
G01*
X172008Y170004D02*
G03*
X172047Y169965I39J-0D01*
G01*
X173031D02*
G03*
X173071Y170004I0J39D01*
G01*
X141083Y207898D02*
G03*
X141043Y207858I0J-39D01*
G01*
Y206874D02*
G03*
X141083Y206835I39J0D01*
G01*
X151417Y232917D02*
G03*
X151378Y232957I-39J0D01*
G01*
X150394D02*
G03*
X150354Y232917I-0J-39D01*
G01*
X173071D02*
G03*
X173031Y232957I-39J-0D01*
G01*
X172047D02*
G03*
X172008Y232917I0J-39D01*
G01*
X194724D02*
G03*
X194685Y232957I-39J-0D01*
G01*
X193701D02*
G03*
X193661Y232917I-0J-39D01*
G01*
X203996Y206835D02*
G03*
X204035Y206874I-0J39D01*
G01*
Y207858D02*
G03*
X203996Y207898I-39J0D01*
G01*
Y185181D02*
G03*
X204035Y185221I0J39D01*
G01*
Y186205D02*
G03*
X203996Y186244I-39J0D01*
G01*
X150354Y170004D02*
G03*
X150394Y169965I39J0D01*
G01*
X151378D02*
G03*
X151417Y170004I-0J39D01*
G01*
X162165D02*
G03*
X162205Y169965I39J-0D01*
G01*
X163189D02*
G03*
X163228Y170004I-0J39D01*
G01*
X183819D02*
G03*
X183858Y169965I39J0D01*
G01*
X184843D02*
G03*
X184882Y170004I0J39D01*
G01*
X141083Y196087D02*
G03*
X141043Y196047I0J-39D01*
G01*
Y195063D02*
G03*
X141083Y195024I39J0D01*
G01*
Y217740D02*
G03*
X141043Y217701I0J-39D01*
G01*
Y216717D02*
G03*
X141083Y216677I39J0D01*
G01*
X161260Y232917D02*
G03*
X161221Y232957I-39J0D01*
G01*
X160236D02*
G03*
X160197Y232917I-0J-39D01*
G01*
X182913D02*
G03*
X182874Y232957I-39J-0D01*
G01*
X181890D02*
G03*
X181850Y232917I-0J-39D01*
G01*
X203996Y218646D02*
G03*
X204035Y218685I-0J39D01*
G01*
Y219669D02*
G03*
X203996Y219709I-39J0D01*
G01*
Y196992D02*
G03*
X204035Y197031I0J39D01*
G01*
Y198016D02*
G03*
X203996Y198055I-39J0D01*
G01*
X195630Y170004D02*
G03*
X195669Y169965I39J0D01*
G01*
X196653D02*
G03*
X196693Y170004I0J39D01*
G01*
X141083Y184276D02*
G03*
X141043Y184236I-0J-39D01*
G01*
Y183252D02*
G03*
X141083Y183213I39J0D01*
G01*
X173976Y170004D02*
G03*
X174016Y169965I39J-0D01*
G01*
X175000D02*
G03*
X175039Y170004I0J39D01*
G01*
X141083Y205929D02*
G03*
X141043Y205890I0J-39D01*
G01*
Y204906D02*
G03*
X141083Y204866I39J0D01*
G01*
X149449Y232917D02*
G03*
X149409Y232957I-39J-0D01*
G01*
X148425D02*
G03*
X148386Y232917I-0J-39D01*
G01*
X194193Y221146D02*
G03*
X194193Y225083I0J1969D01*
G01*
D02*
G03*
X194193Y221146I0J-1969D01*
G01*
X191693Y230532D02*
Y231096D01*
Y229810D02*
Y230532D01*
Y229020D02*
Y229810D01*
X191732Y232957D02*
X192717D01*
X192756Y229810D02*
Y230532D01*
Y231487D02*
Y232917D01*
Y230532D02*
Y231096D01*
X191693D02*
Y231487D01*
Y232917D01*
X192756Y231096D02*
Y231487D01*
Y229020D02*
Y229810D01*
X201611Y209866D02*
X202174D01*
X200888D02*
X201611D01*
X200098D02*
X200888D01*
X204035Y208843D02*
Y209827D01*
X200888Y208803D02*
X201611D01*
X202566D02*
X203996D01*
X201611D02*
X202174D01*
Y209866D02*
X202566D01*
X203996D01*
X202174Y208803D02*
X202566D01*
X200098D02*
X200888D01*
X201611Y188213D02*
X202174D01*
X200888D02*
X201611D01*
X200098D02*
X200888D01*
X204035Y187189D02*
Y188173D01*
X200888Y187150D02*
X201611D01*
X202566D02*
X203996D01*
X201611D02*
X202174D01*
Y188213D02*
X202566D01*
X203996D01*
X202174Y187150D02*
X202566D01*
X200098D02*
X200888D01*
X153386Y171826D02*
Y172389D01*
Y173112D01*
Y173902D01*
X152362Y169965D02*
X153347D01*
X152323Y172389D02*
Y173112D01*
Y170004D02*
Y171434D01*
Y171826D02*
Y172389D01*
X153386Y171434D02*
Y171826D01*
Y170004D02*
Y171434D01*
X152323D02*
Y171826D01*
Y173112D02*
Y173902D01*
X165197Y171826D02*
Y172389D01*
Y173112D01*
Y173902D01*
X164173Y169965D02*
X165157D01*
X164134Y172389D02*
Y173112D01*
Y170004D02*
Y171434D01*
Y171826D02*
Y172389D01*
X165197Y171434D02*
Y171826D01*
Y170004D02*
Y171434D01*
X164134D02*
Y171826D01*
Y173112D02*
Y173902D01*
X186850Y171826D02*
Y172389D01*
Y173112D01*
Y173902D01*
X185827Y169965D02*
X186811D01*
X185787Y172389D02*
Y173112D01*
Y170004D02*
Y171434D01*
Y171826D02*
Y172389D01*
X186850Y171434D02*
Y171826D01*
Y170004D02*
Y171434D01*
X185787D02*
Y171826D01*
Y173112D02*
Y173902D01*
X142904Y193055D02*
X143468D01*
X144190D01*
X144980D01*
X141043Y193095D02*
Y194079D01*
X143468Y194118D02*
X144190D01*
X141083D02*
X142513D01*
X142904D02*
X143468D01*
X142513Y193055D02*
X142904D01*
X141083D02*
X142513D01*
Y194118D02*
X142904D01*
X144190D02*
X144980D01*
X142904Y214709D02*
X143468D01*
X144190D01*
X144980D01*
X141043Y214748D02*
Y215732D01*
X143468Y215772D02*
X144190D01*
X141083D02*
X142513D01*
X142904D02*
X143468D01*
X142513Y214709D02*
X142904D01*
X141083D02*
X142513D01*
Y215772D02*
X142904D01*
X144190D02*
X144980D01*
X158228Y230532D02*
Y231096D01*
Y229810D02*
Y230532D01*
Y229020D02*
Y229810D01*
X158268Y232957D02*
X159252D01*
X159291Y229810D02*
Y230532D01*
Y231487D02*
Y232917D01*
Y230532D02*
Y231096D01*
X158228D02*
Y231487D01*
Y232917D01*
X159291Y231096D02*
Y231487D01*
Y229020D02*
Y229810D01*
X179882Y230532D02*
Y231096D01*
Y229810D02*
Y230532D01*
Y229020D02*
Y229810D01*
X179921Y232957D02*
X180905D01*
X180945Y229810D02*
Y230532D01*
Y231487D02*
Y232917D01*
Y230532D02*
Y231096D01*
X179882D02*
Y231487D01*
Y232917D01*
X180945Y231096D02*
Y231487D01*
Y229020D02*
Y229810D01*
X201611Y221677D02*
X202174D01*
X200888D02*
X201611D01*
X200098D02*
X200888D01*
X204035Y220654D02*
Y221638D01*
X200888Y220614D02*
X201611D01*
X202566D02*
X203996D01*
X201611D02*
X202174D01*
Y221677D02*
X202566D01*
X203996D01*
X202174Y220614D02*
X202566D01*
X200098D02*
X200888D01*
X201611Y200024D02*
X202174D01*
X200888D02*
X201611D01*
X200098D02*
X200888D01*
X204035Y199000D02*
Y199984D01*
X200888Y198961D02*
X201611D01*
X202566D02*
X203996D01*
X201611D02*
X202174D01*
Y200024D02*
X202566D01*
X203996D01*
X202174Y198961D02*
X202566D01*
X200098D02*
X200888D01*
X201611Y178370D02*
X202174D01*
X200888D02*
X201611D01*
X200098D02*
X200888D01*
X204035Y177347D02*
Y178331D01*
X200888Y177307D02*
X201611D01*
X202566D02*
X203996D01*
X201611D02*
X202174D01*
Y178370D02*
X202566D01*
X203996D01*
X202174Y177307D02*
X202566D01*
X200098D02*
X200888D01*
X142904Y181244D02*
X143468D01*
X144190D01*
X144980D01*
X141043Y181283D02*
Y182268D01*
X143468Y182307D02*
X144190D01*
X141083D02*
X142513D01*
X142904D02*
X143468D01*
X142513Y181244D02*
X142904D01*
X141083D02*
X142513D01*
Y182307D02*
X142904D01*
X144190D02*
X144980D01*
X177008Y171826D02*
Y172389D01*
Y173112D01*
Y173902D01*
X175984Y169965D02*
X176969D01*
X175945Y172389D02*
Y173112D01*
Y170004D02*
Y171434D01*
Y171826D02*
Y172389D01*
X177008Y171434D02*
Y171826D01*
Y170004D02*
Y171434D01*
X175945D02*
Y171826D01*
Y173112D02*
Y173902D01*
X142904Y202898D02*
X143468D01*
X144190D01*
X144980D01*
X141043Y202937D02*
Y203921D01*
X143468Y203961D02*
X144190D01*
X141083D02*
X142513D01*
X142904D02*
X143468D01*
X142513Y202898D02*
X142904D01*
X141083D02*
X142513D01*
Y203961D02*
X142904D01*
X144190D02*
X144980D01*
X142904Y224551D02*
X143468D01*
X144190D01*
X144980D01*
X141043Y224591D02*
Y225575D01*
X143468Y225614D02*
X144190D01*
X141083D02*
X142513D01*
X142904D02*
X143468D01*
X142513Y224551D02*
X142904D01*
X141083D02*
X142513D01*
Y225614D02*
X142904D01*
X144190D02*
X144980D01*
X168071Y230532D02*
Y231096D01*
Y229810D02*
Y230532D01*
Y229020D02*
Y229810D01*
X168110Y232957D02*
X169095D01*
X169134Y229810D02*
Y230532D01*
Y231487D02*
Y232917D01*
Y230532D02*
Y231096D01*
X168071D02*
Y231487D01*
Y232917D01*
X169134Y231096D02*
Y231487D01*
Y229020D02*
Y229810D01*
X189724Y230532D02*
Y231096D01*
Y229810D02*
Y230532D01*
Y229020D02*
Y229810D01*
X189764Y232957D02*
X190748D01*
X190787Y229810D02*
Y230532D01*
Y231487D02*
Y232917D01*
Y230532D02*
Y231096D01*
X189724D02*
Y231487D01*
Y232917D01*
X190787Y231096D02*
Y231487D01*
Y229020D02*
Y229810D01*
X201611Y211835D02*
X202174D01*
X200888D02*
X201611D01*
X200098D02*
X200888D01*
X204035Y210811D02*
Y211795D01*
X200888Y210772D02*
X201611D01*
X202566D02*
X203996D01*
X201611D02*
X202174D01*
Y211835D02*
X202566D01*
X203996D01*
X202174Y210772D02*
X202566D01*
X200098D02*
X200888D01*
X201611Y190181D02*
X202174D01*
X200888D02*
X201611D01*
X200098D02*
X200888D01*
X204035Y189157D02*
Y190142D01*
X200888Y189118D02*
X201611D01*
X202566D02*
X203996D01*
X201611D02*
X202174D01*
Y190181D02*
X202566D01*
X203996D01*
X202174Y189118D02*
X202566D01*
X200098D02*
X200888D01*
X155354Y171826D02*
Y172389D01*
Y173112D01*
Y173902D01*
X154331Y169965D02*
X155315D01*
X154291Y172389D02*
Y173112D01*
Y170004D02*
Y171434D01*
Y171826D02*
Y172389D01*
X155354Y171434D02*
Y171826D01*
Y170004D02*
Y171434D01*
X154291D02*
Y171826D01*
Y173112D02*
Y173902D01*
X167165Y171826D02*
Y172389D01*
Y173112D01*
Y173902D01*
X166142Y169965D02*
X167126D01*
X166102Y172389D02*
Y173112D01*
Y170004D02*
Y171434D01*
Y171826D02*
Y172389D01*
X167165Y171434D02*
Y171826D01*
Y170004D02*
Y171434D01*
X166102D02*
Y171826D01*
Y173112D02*
Y173902D01*
X188819Y171826D02*
Y172389D01*
Y173112D01*
Y173902D01*
X187795Y169965D02*
X188779D01*
X187756Y172389D02*
Y173112D01*
Y170004D02*
Y171434D01*
Y171826D02*
Y172389D01*
X188819Y171434D02*
Y171826D01*
Y170004D02*
Y171434D01*
X187756D02*
Y171826D01*
Y173112D02*
Y173902D01*
X142904Y191087D02*
X143468D01*
X144190D01*
X144980D01*
X141043Y191126D02*
Y192110D01*
X143468Y192150D02*
X144190D01*
X141083D02*
X142513D01*
X142904D02*
X143468D01*
X142513Y191087D02*
X142904D01*
X141083D02*
X142513D01*
Y192150D02*
X142904D01*
X144190D02*
X144980D01*
X142904Y212740D02*
X143468D01*
X144190D01*
X144980D01*
X141043Y212780D02*
Y213764D01*
X143468Y213803D02*
X144190D01*
X141083D02*
X142513D01*
X142904D02*
X143468D01*
X142513Y212740D02*
X142904D01*
X141083D02*
X142513D01*
Y213803D02*
X142904D01*
X144190D02*
X144980D01*
X156260Y230532D02*
Y231096D01*
Y229810D02*
Y230532D01*
Y229020D02*
Y229810D01*
X156299Y232957D02*
X157283D01*
X157323Y229810D02*
Y230532D01*
Y231487D02*
Y232917D01*
Y230532D02*
Y231096D01*
X156260D02*
Y231487D01*
Y232917D01*
X157323Y231096D02*
Y231487D01*
Y229020D02*
Y229810D01*
X177913Y230532D02*
Y231096D01*
Y229810D02*
Y230532D01*
Y229020D02*
Y229810D01*
X177953Y232957D02*
X178937D01*
X178976Y229810D02*
Y230532D01*
Y231487D02*
Y232917D01*
Y230532D02*
Y231096D01*
X177913D02*
Y231487D01*
Y232917D01*
X178976Y231096D02*
Y231487D01*
Y229020D02*
Y229810D01*
X201611Y223646D02*
X202174D01*
X200888D02*
X201611D01*
X200098D02*
X200888D01*
X204035Y222622D02*
Y223606D01*
X200888Y222583D02*
X201611D01*
X202566D02*
X203996D01*
X201611D02*
X202174D01*
Y223646D02*
X202566D01*
X203996D01*
X202174Y222583D02*
X202566D01*
X200098D02*
X200888D01*
X201611Y201992D02*
X202174D01*
X200888D02*
X201611D01*
X200098D02*
X200888D01*
X204035Y200969D02*
Y201953D01*
X200888Y200929D02*
X201611D01*
X202566D02*
X203996D01*
X201611D02*
X202174D01*
Y201992D02*
X202566D01*
X203996D01*
X202174Y200929D02*
X202566D01*
X200098D02*
X200888D01*
X201611Y180339D02*
X202174D01*
X200888D02*
X201611D01*
X200098D02*
X200888D01*
X204035Y179315D02*
Y180299D01*
X200888Y179276D02*
X201611D01*
X202566D02*
X203996D01*
X201611D02*
X202174D01*
Y180339D02*
X202566D01*
X203996D01*
X202174Y179276D02*
X202566D01*
X200098D02*
X200888D01*
X142904D02*
X143468D01*
X144190D01*
X144980D01*
X141043Y179315D02*
Y180299D01*
X143468Y180339D02*
X144190D01*
X141083D02*
X142513D01*
X142904D02*
X143468D01*
X142513Y179276D02*
X142904D01*
X141083D02*
X142513D01*
Y180339D02*
X142904D01*
X144190D02*
X144980D01*
X178976Y171826D02*
Y172389D01*
Y173112D01*
Y173902D01*
X177953Y169965D02*
X178937D01*
X177913Y172389D02*
Y173112D01*
Y170004D02*
Y171434D01*
Y171826D02*
Y172389D01*
X178976Y171434D02*
Y171826D01*
Y170004D02*
Y171434D01*
X177913D02*
Y171826D01*
Y173112D02*
Y173902D01*
X142904Y200929D02*
X143468D01*
X144190D01*
X144980D01*
X141043Y200969D02*
Y201953D01*
X143468Y201992D02*
X144190D01*
X141083D02*
X142513D01*
X142904D02*
X143468D01*
X142513Y200929D02*
X142904D01*
X141083D02*
X142513D01*
Y201992D02*
X142904D01*
X144190D02*
X144980D01*
X142904Y222583D02*
X143468D01*
X144190D01*
X144980D01*
X141043Y222622D02*
Y223606D01*
X143468Y223646D02*
X144190D01*
X141083D02*
X142513D01*
X142904D02*
X143468D01*
X142513Y222583D02*
X142904D01*
X141083D02*
X142513D01*
Y223646D02*
X142904D01*
X144190D02*
X144980D01*
X166102Y230532D02*
Y231096D01*
Y229810D02*
Y230532D01*
Y229020D02*
Y229810D01*
X166142Y232957D02*
X167126D01*
X167165Y229810D02*
Y230532D01*
Y231487D02*
Y232917D01*
Y230532D02*
Y231096D01*
X166102D02*
Y231487D01*
Y232917D01*
X167165Y231096D02*
Y231487D01*
Y229020D02*
Y229810D01*
X187756Y230532D02*
Y231096D01*
Y229810D02*
Y230532D01*
Y229020D02*
Y229810D01*
X187795Y232957D02*
X188779D01*
X188819Y229810D02*
Y230532D01*
Y231487D02*
Y232917D01*
Y230532D02*
Y231096D01*
X187756D02*
Y231487D01*
Y232917D01*
X188819Y231096D02*
Y231487D01*
Y229020D02*
Y229810D01*
X201611Y213803D02*
X202174D01*
X200888D02*
X201611D01*
X200098D02*
X200888D01*
X204035Y212780D02*
Y213764D01*
X200888Y212740D02*
X201611D01*
X202566D02*
X203996D01*
X201611D02*
X202174D01*
Y213803D02*
X202566D01*
X203996D01*
X202174Y212740D02*
X202566D01*
X200098D02*
X200888D01*
X201611Y192150D02*
X202174D01*
X200888D02*
X201611D01*
X200098D02*
X200888D01*
X204035Y191126D02*
Y192110D01*
X200888Y191087D02*
X201611D01*
X202566D02*
X203996D01*
X201611D02*
X202174D01*
Y192150D02*
X202566D01*
X203996D01*
X202174Y191087D02*
X202566D01*
X200098D02*
X200888D01*
X157323Y171826D02*
Y172389D01*
Y173112D01*
Y173902D01*
X156299Y169965D02*
X157283D01*
X156260Y172389D02*
Y173112D01*
Y170004D02*
Y171434D01*
Y171826D02*
Y172389D01*
X157323Y171434D02*
Y171826D01*
Y170004D02*
Y171434D01*
X156260D02*
Y171826D01*
Y173112D02*
Y173902D01*
X169134Y171826D02*
Y172389D01*
Y173112D01*
Y173902D01*
X168110Y169965D02*
X169095D01*
X168071Y172389D02*
Y173112D01*
Y170004D02*
Y171434D01*
Y171826D02*
Y172389D01*
X169134Y171434D02*
Y171826D01*
Y170004D02*
Y171434D01*
X168071D02*
Y171826D01*
Y173112D02*
Y173902D01*
X190787Y171826D02*
Y172389D01*
Y173112D01*
Y173902D01*
X189764Y169965D02*
X190748D01*
X189724Y172389D02*
Y173112D01*
Y170004D02*
Y171434D01*
Y171826D02*
Y172389D01*
X190787Y171434D02*
Y171826D01*
Y170004D02*
Y171434D01*
X189724D02*
Y171826D01*
Y173112D02*
Y173902D01*
X142904Y189118D02*
X143468D01*
X144190D01*
X144980D01*
X141043Y189157D02*
Y190142D01*
X143468Y190181D02*
X144190D01*
X141083D02*
X142513D01*
X142904D02*
X143468D01*
X142513Y189118D02*
X142904D01*
X141083D02*
X142513D01*
Y190181D02*
X142904D01*
X144190D02*
X144980D01*
X142904Y210772D02*
X143468D01*
X144190D01*
X144980D01*
X141043Y210811D02*
Y211795D01*
X143468Y211835D02*
X144190D01*
X141083D02*
X142513D01*
X142904D02*
X143468D01*
X142513Y210772D02*
X142904D01*
X141083D02*
X142513D01*
Y211835D02*
X142904D01*
X144190D02*
X144980D01*
X154291Y230532D02*
Y231096D01*
Y229810D02*
Y230532D01*
Y229020D02*
Y229810D01*
X154331Y232957D02*
X155315D01*
X155354Y229810D02*
Y230532D01*
Y231487D02*
Y232917D01*
Y230532D02*
Y231096D01*
X154291D02*
Y231487D01*
Y232917D01*
X155354Y231096D02*
Y231487D01*
Y229020D02*
Y229810D01*
X175945Y230532D02*
Y231096D01*
Y229810D02*
Y230532D01*
Y229020D02*
Y229810D01*
X175984Y232957D02*
X176969D01*
X177008Y229810D02*
Y230532D01*
Y231487D02*
Y232917D01*
Y230532D02*
Y231096D01*
X175945D02*
Y231487D01*
Y232917D01*
X177008Y231096D02*
Y231487D01*
Y229020D02*
Y229810D01*
X201611Y225614D02*
X202174D01*
X200888D02*
X201611D01*
X200098D02*
X200888D01*
X204035Y224591D02*
Y225575D01*
X200888Y224551D02*
X201611D01*
X202566D02*
X203996D01*
X201611D02*
X202174D01*
Y225614D02*
X202566D01*
X203996D01*
X202174Y224551D02*
X202566D01*
X200098D02*
X200888D01*
X201611Y203961D02*
X202174D01*
X200888D02*
X201611D01*
X200098D02*
X200888D01*
X204035Y202937D02*
Y203921D01*
X200888Y202898D02*
X201611D01*
X202566D02*
X203996D01*
X201611D02*
X202174D01*
Y203961D02*
X202566D01*
X203996D01*
X202174Y202898D02*
X202566D01*
X200098D02*
X200888D01*
X201611Y182307D02*
X202174D01*
X200888D02*
X201611D01*
X200098D02*
X200888D01*
X204035Y181283D02*
Y182268D01*
X200888Y181244D02*
X201611D01*
X202566D02*
X203996D01*
X201611D02*
X202174D01*
Y182307D02*
X202566D01*
X203996D01*
X202174Y181244D02*
X202566D01*
X200098D02*
X200888D01*
X142904Y177307D02*
X143468D01*
X144190D01*
X144980D01*
X141043Y177347D02*
Y178331D01*
X143468Y178370D02*
X144190D01*
X141083D02*
X142513D01*
X142904D02*
X143468D01*
X142513Y177307D02*
X142904D01*
X141083D02*
X142513D01*
Y178370D02*
X142904D01*
X144190D02*
X144980D01*
X180945Y171826D02*
Y172389D01*
Y173112D01*
Y173902D01*
X179921Y169965D02*
X180905D01*
X179882Y172389D02*
Y173112D01*
Y170004D02*
Y171434D01*
Y171826D02*
Y172389D01*
X180945Y171434D02*
Y171826D01*
Y170004D02*
Y171434D01*
X179882D02*
Y171826D01*
Y173112D02*
Y173902D01*
X142904Y198961D02*
X143468D01*
X144190D01*
X144980D01*
X141043Y199000D02*
Y199984D01*
X143468Y200024D02*
X144190D01*
X141083D02*
X142513D01*
X142904D02*
X143468D01*
X142513Y198961D02*
X142904D01*
X141083D02*
X142513D01*
Y200024D02*
X142904D01*
X144190D02*
X144980D01*
X170039Y230532D02*
Y231096D01*
Y229810D02*
Y230532D01*
Y229020D02*
Y229810D01*
X170079Y232957D02*
X171063D01*
X171102Y229810D02*
Y230532D01*
Y231487D02*
Y232917D01*
Y230532D02*
Y231096D01*
X170039D02*
Y231487D01*
Y232917D01*
X171102Y231096D02*
Y231487D01*
Y229020D02*
Y229810D01*
X142904Y220614D02*
X143468D01*
X144190D01*
X144980D01*
X141043Y220654D02*
Y221638D01*
X143468Y221677D02*
X144190D01*
X141083D02*
X142513D01*
X142904D02*
X143468D01*
X142513Y220614D02*
X142904D01*
X141083D02*
X142513D01*
Y221677D02*
X142904D01*
X144190D02*
X144980D01*
X164134Y230532D02*
Y231096D01*
Y229810D02*
Y230532D01*
Y229020D02*
Y229810D01*
X164173Y232957D02*
X165157D01*
X165197Y229810D02*
Y230532D01*
Y231487D02*
Y232917D01*
Y230532D02*
Y231096D01*
X164134D02*
Y231487D01*
Y232917D01*
X165197Y231096D02*
Y231487D01*
Y229020D02*
Y229810D01*
X185787Y230532D02*
Y231096D01*
Y229810D02*
Y230532D01*
Y229020D02*
Y229810D01*
X185827Y232957D02*
X186811D01*
X186850Y229810D02*
Y230532D01*
Y231487D02*
Y232917D01*
Y230532D02*
Y231096D01*
X185787D02*
Y231487D01*
Y232917D01*
X186850Y231096D02*
Y231487D01*
Y229020D02*
Y229810D01*
X201611Y215772D02*
X202174D01*
X200888D02*
X201611D01*
X200098D02*
X200888D01*
X204035Y214748D02*
Y215732D01*
X200888Y214709D02*
X201611D01*
X202566D02*
X203996D01*
X201611D02*
X202174D01*
Y215772D02*
X202566D01*
X203996D01*
X202174Y214709D02*
X202566D01*
X200098D02*
X200888D01*
X201611Y194118D02*
X202174D01*
X200888D02*
X201611D01*
X200098D02*
X200888D01*
X204035Y193095D02*
Y194079D01*
X200888Y193055D02*
X201611D01*
X202566D02*
X203996D01*
X201611D02*
X202174D01*
Y194118D02*
X202566D01*
X203996D01*
X202174Y193055D02*
X202566D01*
X200098D02*
X200888D01*
X159291Y171826D02*
Y172389D01*
Y173112D01*
Y173902D01*
X158268Y169965D02*
X159252D01*
X158228Y172389D02*
Y173112D01*
Y170004D02*
Y171434D01*
Y171826D02*
Y172389D01*
X159291Y171434D02*
Y171826D01*
Y170004D02*
Y171434D01*
X158228D02*
Y171826D01*
Y173112D02*
Y173902D01*
X171102Y171826D02*
Y172389D01*
Y173112D01*
Y173902D01*
X170079Y169965D02*
X171063D01*
X170039Y172389D02*
Y173112D01*
Y170004D02*
Y171434D01*
Y171826D02*
Y172389D01*
X171102Y171434D02*
Y171826D01*
Y170004D02*
Y171434D01*
X170039D02*
Y171826D01*
Y173112D02*
Y173902D01*
X192756Y171826D02*
Y172389D01*
Y173112D01*
Y173902D01*
X191732Y169965D02*
X192717D01*
X191693Y172389D02*
Y173112D01*
Y170004D02*
Y171434D01*
Y171826D02*
Y172389D01*
X192756Y171434D02*
Y171826D01*
Y170004D02*
Y171434D01*
X191693D02*
Y171826D01*
Y173112D02*
Y173902D01*
X142904Y187150D02*
X143468D01*
X144190D01*
X144980D01*
X141043Y187189D02*
Y188173D01*
X143468Y188213D02*
X144190D01*
X141083D02*
X142513D01*
X142904D02*
X143468D01*
X142513Y187150D02*
X142904D01*
X141083D02*
X142513D01*
Y188213D02*
X142904D01*
X144190D02*
X144980D01*
X142904Y208803D02*
X143468D01*
X144190D01*
X144980D01*
X141043Y208843D02*
Y209827D01*
X143468Y209866D02*
X144190D01*
X141083D02*
X142513D01*
X142904D02*
X143468D01*
X142513Y208803D02*
X142904D01*
X141083D02*
X142513D01*
Y209866D02*
X142904D01*
X144190D02*
X144980D01*
X152323Y230532D02*
Y231096D01*
Y229810D02*
Y230532D01*
Y229020D02*
Y229810D01*
X152362Y232957D02*
X153347D01*
X153386Y229810D02*
Y230532D01*
Y231487D02*
Y232917D01*
Y230532D02*
Y231096D01*
X152323D02*
Y231487D01*
Y232917D01*
X153386Y231096D02*
Y231487D01*
Y229020D02*
Y229810D01*
X173976Y230532D02*
Y231096D01*
Y229810D02*
Y230532D01*
Y229020D02*
Y229810D01*
X174016Y232957D02*
X175000D01*
X175039Y229810D02*
Y230532D01*
Y231487D02*
Y232917D01*
Y230532D02*
Y231096D01*
X173976D02*
Y231487D01*
Y232917D01*
X175039Y231096D02*
Y231487D01*
Y229020D02*
Y229810D01*
X195630Y230532D02*
Y231096D01*
Y229810D02*
Y230532D01*
Y229020D02*
Y229810D01*
X195669Y232957D02*
X196653D01*
X196693Y229810D02*
Y230532D01*
Y231487D02*
Y232917D01*
Y230532D02*
Y231096D01*
X195630D02*
Y231487D01*
Y232917D01*
X196693Y231096D02*
Y231487D01*
Y229020D02*
Y229810D01*
X201611Y205929D02*
X202174D01*
X200888D02*
X201611D01*
X200098D02*
X200888D01*
X204035Y204906D02*
Y205890D01*
X200888Y204866D02*
X201611D01*
X202566D02*
X203996D01*
X201611D02*
X202174D01*
Y205929D02*
X202566D01*
X203996D01*
X202174Y204866D02*
X202566D01*
X200098D02*
X200888D01*
X201611Y184276D02*
X202174D01*
X200888D02*
X201611D01*
X200098D02*
X200888D01*
X204035Y183252D02*
Y184236D01*
X200888Y183213D02*
X201611D01*
X202566D02*
X203996D01*
X201611D02*
X202174D01*
Y184276D02*
X202566D01*
X203996D01*
X202174Y183213D02*
X202566D01*
X200098D02*
X200888D01*
X149449Y171826D02*
Y172389D01*
Y173112D01*
Y173902D01*
X148425Y169965D02*
X149409D01*
X148386Y172389D02*
Y173112D01*
Y170004D02*
Y171434D01*
Y171826D02*
Y172389D01*
X149449Y171434D02*
Y171826D01*
Y170004D02*
Y171434D01*
X148386D02*
Y171826D01*
Y173112D02*
Y173902D01*
X182913Y171826D02*
Y172389D01*
Y173112D01*
Y173902D01*
X181890Y169965D02*
X182874D01*
X181850Y172389D02*
Y173112D01*
Y170004D02*
Y171434D01*
Y171826D02*
Y172389D01*
X182913Y171434D02*
Y171826D01*
Y170004D02*
Y171434D01*
X181850D02*
Y171826D01*
Y173112D02*
Y173902D01*
X142904Y196992D02*
X143468D01*
X144190D01*
X144980D01*
X141043Y197031D02*
Y198016D01*
X143468Y198055D02*
X144190D01*
X141083D02*
X142513D01*
X142904D02*
X143468D01*
X142513Y196992D02*
X142904D01*
X141083D02*
X142513D01*
Y198055D02*
X142904D01*
X144190D02*
X144980D01*
X142904Y218646D02*
X143468D01*
X144190D01*
X144980D01*
X141043Y218685D02*
Y219669D01*
X143468Y219709D02*
X144190D01*
X141083D02*
X142513D01*
X142904D02*
X143468D01*
X142513Y218646D02*
X142904D01*
X141083D02*
X142513D01*
Y219709D02*
X142904D01*
X144190D02*
X144980D01*
X162165Y230532D02*
Y231096D01*
Y229810D02*
Y230532D01*
Y229020D02*
Y229810D01*
X162205Y232957D02*
X163189D01*
X163228Y229810D02*
Y230532D01*
Y231487D02*
Y232917D01*
Y230532D02*
Y231096D01*
X162165D02*
Y231487D01*
Y232917D01*
X163228Y231096D02*
Y231487D01*
Y229020D02*
Y229810D01*
X183819Y230532D02*
Y231096D01*
Y229810D02*
Y230532D01*
Y229020D02*
Y229810D01*
X183858Y232957D02*
X184843D01*
X184882Y229810D02*
Y230532D01*
Y231487D02*
Y232917D01*
Y230532D02*
Y231096D01*
X183819D02*
Y231487D01*
Y232917D01*
X184882Y231096D02*
Y231487D01*
Y229020D02*
Y229810D01*
X201611Y217740D02*
X202174D01*
X200888D02*
X201611D01*
X200098D02*
X200888D01*
X204035Y216717D02*
Y217701D01*
X200888Y216677D02*
X201611D01*
X202566D02*
X203996D01*
X201611D02*
X202174D01*
Y217740D02*
X202566D01*
X203996D01*
X202174Y216677D02*
X202566D01*
X200098D02*
X200888D01*
X201611Y196087D02*
X202174D01*
X200888D02*
X201611D01*
X200098D02*
X200888D01*
X204035Y195063D02*
Y196047D01*
X200888Y195024D02*
X201611D01*
X202566D02*
X203996D01*
X201611D02*
X202174D01*
Y196087D02*
X202566D01*
X203996D01*
X202174Y195024D02*
X202566D01*
X200098D02*
X200888D01*
X161260Y171826D02*
Y172389D01*
Y173112D01*
Y173902D01*
X160236Y169965D02*
X161221D01*
X160197Y172389D02*
Y173112D01*
Y170004D02*
Y171434D01*
Y171826D02*
Y172389D01*
X161260Y171434D02*
Y171826D01*
Y170004D02*
Y171434D01*
X160197D02*
Y171826D01*
Y173112D02*
Y173902D01*
X194724Y171826D02*
Y172389D01*
Y173112D01*
Y173902D01*
X193701Y169965D02*
X194685D01*
X193661Y172389D02*
Y173112D01*
Y170004D02*
Y171434D01*
Y171826D02*
Y172389D01*
X194724Y171434D02*
Y171826D01*
Y170004D02*
Y171434D01*
X193661D02*
Y171826D01*
Y173112D02*
Y173902D01*
X142904Y185181D02*
X143468D01*
X144190D01*
X144980D01*
X141043Y185221D02*
Y186205D01*
X143468Y186244D02*
X144190D01*
X141083D02*
X142513D01*
X142904D02*
X143468D01*
X142513Y185181D02*
X142904D01*
X141083D02*
X142513D01*
Y186244D02*
X142904D01*
X144190D02*
X144980D01*
X173071Y171826D02*
Y172389D01*
Y173112D01*
Y173902D01*
X172047Y169965D02*
X173031D01*
X172008Y172389D02*
Y173112D01*
Y170004D02*
Y171434D01*
Y171826D02*
Y172389D01*
X173071Y171434D02*
Y171826D01*
Y170004D02*
Y171434D01*
X172008D02*
Y171826D01*
Y173112D02*
Y173902D01*
X142904Y206835D02*
X143468D01*
X144190D01*
X144980D01*
X141043Y206874D02*
Y207858D01*
X143468Y207898D02*
X144190D01*
X141083D02*
X142513D01*
X142904D02*
X143468D01*
X142513Y206835D02*
X142904D01*
X141083D02*
X142513D01*
Y207898D02*
X142904D01*
X144190D02*
X144980D01*
X150354Y230532D02*
Y231096D01*
Y229810D02*
Y230532D01*
Y229020D02*
Y229810D01*
X150394Y232957D02*
X151378D01*
X151417Y229810D02*
Y230532D01*
Y231487D02*
Y232917D01*
Y230532D02*
Y231096D01*
X150354D02*
Y231487D01*
Y232917D01*
X151417Y231096D02*
Y231487D01*
Y229020D02*
Y229810D01*
X172008Y230532D02*
Y231096D01*
Y229810D02*
Y230532D01*
Y229020D02*
Y229810D01*
X172047Y232957D02*
X173031D01*
X173071Y229810D02*
Y230532D01*
Y231487D02*
Y232917D01*
Y230532D02*
Y231096D01*
X172008D02*
Y231487D01*
Y232917D01*
X173071Y231096D02*
Y231487D01*
Y229020D02*
Y229810D01*
X193661Y230532D02*
Y231096D01*
Y229810D02*
Y230532D01*
Y229020D02*
Y229810D01*
X193701Y232957D02*
X194685D01*
X194724Y229810D02*
Y230532D01*
Y231487D02*
Y232917D01*
Y230532D02*
Y231096D01*
X193661D02*
Y231487D01*
Y232917D01*
X194724Y231096D02*
Y231487D01*
Y229020D02*
Y229810D01*
X201611Y207898D02*
X202174D01*
X200888D02*
X201611D01*
X200098D02*
X200888D01*
X204035Y206874D02*
Y207858D01*
X200888Y206835D02*
X201611D01*
X202566D02*
X203996D01*
X201611D02*
X202174D01*
Y207898D02*
X202566D01*
X203996D01*
X202174Y206835D02*
X202566D01*
X200098D02*
X200888D01*
X201611Y186244D02*
X202174D01*
X200888D02*
X201611D01*
X200098D02*
X200888D01*
X204035Y185221D02*
Y186205D01*
X200888Y185181D02*
X201611D01*
X202566D02*
X203996D01*
X201611D02*
X202174D01*
Y186244D02*
X202566D01*
X203996D01*
X202174Y185181D02*
X202566D01*
X200098D02*
X200888D01*
X151417Y171826D02*
Y172389D01*
Y173112D01*
Y173902D01*
X150394Y169965D02*
X151378D01*
X150354Y172389D02*
Y173112D01*
Y170004D02*
Y171434D01*
Y171826D02*
Y172389D01*
X151417Y171434D02*
Y171826D01*
Y170004D02*
Y171434D01*
X150354D02*
Y171826D01*
Y173112D02*
Y173902D01*
X163228Y171826D02*
Y172389D01*
Y173112D01*
Y173902D01*
X162205Y169965D02*
X163189D01*
X162165Y172389D02*
Y173112D01*
Y170004D02*
Y171434D01*
Y171826D02*
Y172389D01*
X163228Y171434D02*
Y171826D01*
Y170004D02*
Y171434D01*
X162165D02*
Y171826D01*
Y173112D02*
Y173902D01*
X184882Y171826D02*
Y172389D01*
Y173112D01*
Y173902D01*
X183858Y169965D02*
X184843D01*
X183819Y172389D02*
Y173112D01*
Y170004D02*
Y171434D01*
Y171826D02*
Y172389D01*
X184882Y171434D02*
Y171826D01*
Y170004D02*
Y171434D01*
X183819D02*
Y171826D01*
Y173112D02*
Y173902D01*
X142904Y195024D02*
X143468D01*
X144190D01*
X144980D01*
X141043Y195063D02*
Y196047D01*
X143468Y196087D02*
X144190D01*
X141083D02*
X142513D01*
X142904D02*
X143468D01*
X142513Y195024D02*
X142904D01*
X141083D02*
X142513D01*
Y196087D02*
X142904D01*
X144190D02*
X144980D01*
X142904Y216677D02*
X143468D01*
X144190D01*
X144980D01*
X141043Y216717D02*
Y217701D01*
X143468Y217740D02*
X144190D01*
X141083D02*
X142513D01*
X142904D02*
X143468D01*
X142513Y216677D02*
X142904D01*
X141083D02*
X142513D01*
Y217740D02*
X142904D01*
X144190D02*
X144980D01*
X160197Y230532D02*
Y231096D01*
Y229810D02*
Y230532D01*
Y229020D02*
Y229810D01*
X160236Y232957D02*
X161221D01*
X161260Y229810D02*
Y230532D01*
Y231487D02*
Y232917D01*
Y230532D02*
Y231096D01*
X160197D02*
Y231487D01*
Y232917D01*
X161260Y231096D02*
Y231487D01*
Y229020D02*
Y229810D01*
X181850Y230532D02*
Y231096D01*
Y229810D02*
Y230532D01*
Y229020D02*
Y229810D01*
X181890Y232957D02*
X182874D01*
X182913Y229810D02*
Y230532D01*
Y231487D02*
Y232917D01*
Y230532D02*
Y231096D01*
X181850D02*
Y231487D01*
Y232917D01*
X182913Y231096D02*
Y231487D01*
Y229020D02*
Y229810D01*
X201611Y219709D02*
X202174D01*
X200888D02*
X201611D01*
X200098D02*
X200888D01*
X204035Y218685D02*
Y219669D01*
X200888Y218646D02*
X201611D01*
X202566D02*
X203996D01*
X201611D02*
X202174D01*
Y219709D02*
X202566D01*
X203996D01*
X202174Y218646D02*
X202566D01*
X200098D02*
X200888D01*
X201611Y198055D02*
X202174D01*
X200888D02*
X201611D01*
X200098D02*
X200888D01*
X204035Y197031D02*
Y198016D01*
X200888Y196992D02*
X201611D01*
X202566D02*
X203996D01*
X201611D02*
X202174D01*
Y198055D02*
X202566D01*
X203996D01*
X202174Y196992D02*
X202566D01*
X200098D02*
X200888D01*
X196693Y171826D02*
Y172389D01*
Y173112D01*
Y173902D01*
X195669Y169965D02*
X196653D01*
X195630Y172389D02*
Y173112D01*
Y170004D02*
Y171434D01*
Y171826D02*
Y172389D01*
X196693Y171434D02*
Y171826D01*
Y170004D02*
Y171434D01*
X195630D02*
Y171826D01*
Y173112D02*
Y173902D01*
X142904Y183213D02*
X143468D01*
X144190D01*
X144980D01*
X141043Y183252D02*
Y184236D01*
X143468Y184276D02*
X144190D01*
X141083D02*
X142513D01*
X142904D02*
X143468D01*
X142513Y183213D02*
X142904D01*
X141083D02*
X142513D01*
Y184276D02*
X142904D01*
X144190D02*
X144980D01*
X175039Y171826D02*
Y172389D01*
Y173112D01*
Y173902D01*
X174016Y169965D02*
X175000D01*
X173976Y172389D02*
Y173112D01*
Y170004D02*
Y171434D01*
Y171826D02*
Y172389D01*
X175039Y171434D02*
Y171826D01*
Y170004D02*
Y171434D01*
X173976D02*
Y171826D01*
Y173112D02*
Y173902D01*
X142904Y204866D02*
X143468D01*
X144190D01*
X144980D01*
X141043Y204906D02*
Y205890D01*
X143468Y205929D02*
X144190D01*
X141083D02*
X142513D01*
X142904D02*
X143468D01*
X142513Y204866D02*
X142904D01*
X141083D02*
X142513D01*
Y205929D02*
X142904D01*
X144190D02*
X144980D01*
X148386Y230532D02*
Y231096D01*
Y229810D02*
Y230532D01*
Y229020D02*
Y229810D01*
X148425Y232957D02*
X149409D01*
X149449Y229810D02*
Y230532D01*
Y231487D02*
Y232917D01*
Y230532D02*
Y231096D01*
X148386D02*
Y231487D01*
Y232917D01*
X149449Y231096D02*
Y231487D01*
Y229020D02*
Y229810D01*
X147193Y228429D02*
X197885D01*
Y174492D02*
X199508Y176115D01*
X146949Y229020D02*
X147193Y228429D01*
X144980Y175870D02*
X146949Y173902D01*
Y229020D02*
X198130D01*
X146949Y173902D02*
X198130D01*
X200098Y175870D01*
X145571Y226807D02*
X147193Y228429D01*
X145571Y176115D02*
Y226807D01*
Y176115D02*
X147193Y174492D01*
X144980Y227051D02*
X145571Y226807D01*
X198130Y229020D02*
X200098Y227051D01*
X197885Y228429D02*
X199508Y226807D01*
X144980Y175870D02*
X145571Y176115D01*
X197885Y228429D02*
X198130Y229020D01*
X144980Y175870D02*
Y227051D01*
X199508Y176115D02*
X200098Y175870D01*
Y227051D01*
X199508Y176115D02*
Y226807D01*
X146949Y173902D02*
X147193Y174492D01*
X199508Y226807D02*
X200098Y227051D01*
X147193Y174492D02*
X197885D01*
X144980Y227051D02*
X146949Y229020D01*
X197885Y174492D02*
X198130Y173902D01*
D63*
X348095Y106705D02*
G03*
X348095Y122295I5906J7795D01*
G01*
X331098Y215768D02*
G03*
X331098Y215768I-1969J0D01*
G01*
X371094Y106705D02*
G03*
X371094Y122295I5906J7795D01*
G01*
X278496Y158232D02*
Y199768D01*
X265307D02*
X283417D01*
X265307Y158232D02*
X283417D01*
Y199768D01*
X265307Y158232D02*
Y199768D01*
X415169Y159244D02*
Y164756D01*
X423831Y159244D02*
Y164756D01*
X415169Y159244D02*
X423831D01*
X415169Y164756D02*
X423831D01*
X432803Y111406D02*
X443197D01*
X432803Y124594D02*
X443197D01*
X432803Y111406D02*
Y124594D01*
X443197Y111406D02*
Y124594D01*
X404303Y110406D02*
X414697D01*
X404303Y123594D02*
X414697D01*
X404303Y110406D02*
Y123594D01*
X414697Y110406D02*
Y123594D01*
X348095Y106705D02*
Y122295D01*
X184622Y250146D02*
X193283D01*
X184622Y255854D02*
X193283D01*
Y250146D02*
Y255854D01*
X184622Y250146D02*
Y255854D01*
X117921Y173354D02*
X126583D01*
X117921Y167646D02*
X126583D01*
X117921D02*
Y173354D01*
X126583Y167646D02*
Y173354D01*
X219646Y192669D02*
Y201331D01*
X225354Y192669D02*
Y201331D01*
X219646Y192669D02*
X225354D01*
X219646Y201331D02*
X225354D01*
X176732Y249744D02*
Y255256D01*
X168268Y249744D02*
Y255256D01*
Y249744D02*
X176732D01*
X168268Y255256D02*
X176732D01*
X137146Y251169D02*
Y259831D01*
X142854Y251169D02*
Y259831D01*
X137146Y251169D02*
X142854D01*
X137146Y259831D02*
X142854D01*
X155854Y251169D02*
Y259831D01*
X150146Y251169D02*
Y259831D01*
X155854D01*
X150146Y251169D02*
X155854D01*
X116303Y199594D02*
X126697D01*
X116303Y186406D02*
X126697D01*
Y199594D01*
X116303Y186406D02*
Y199594D01*
X332673Y212224D02*
Y252776D01*
X304327Y212224D02*
Y252776D01*
Y212224D02*
X332673D01*
X304327Y252776D02*
X332673D01*
X371094Y106705D02*
Y122295D01*
X185716Y156354D02*
X194378D01*
X185716Y150646D02*
X194378D01*
X185716D02*
Y156354D01*
X194378Y150646D02*
Y156354D01*
M02*
