G04 Layer_Color=16711935*
%FSLAX25Y25*%
%MOIN*%
G70*
G01*
G75*
%ADD16C,0.07000*%
G04:AMPARAMS|DCode=37|XSize=47.37mil|YSize=47.37mil|CornerRadius=13.84mil|HoleSize=0mil|Usage=FLASHONLY|Rotation=90.000|XOffset=0mil|YOffset=0mil|HoleType=Round|Shape=RoundedRectangle|*
%AMROUNDEDRECTD37*
21,1,0.04737,0.01969,0,0,90.0*
21,1,0.01969,0.04737,0,0,90.0*
1,1,0.02769,0.00984,0.00984*
1,1,0.02769,0.00984,-0.00984*
1,1,0.02769,-0.00984,-0.00984*
1,1,0.02769,-0.00984,0.00984*
%
%ADD37ROUNDEDRECTD37*%
G04:AMPARAMS|DCode=38|XSize=114.3mil|YSize=114.3mil|CornerRadius=30.58mil|HoleSize=0mil|Usage=FLASHONLY|Rotation=90.000|XOffset=0mil|YOffset=0mil|HoleType=Round|Shape=RoundedRectangle|*
%AMROUNDEDRECTD38*
21,1,0.11430,0.05315,0,0,90.0*
21,1,0.05315,0.11430,0,0,90.0*
1,1,0.06115,0.02658,0.02658*
1,1,0.06115,0.02658,-0.02658*
1,1,0.06115,-0.02658,-0.02658*
1,1,0.06115,-0.02658,0.02658*
%
%ADD38ROUNDEDRECTD38*%
%ADD39C,0.11450*%
%ADD40R,0.05524X0.05524*%
%ADD41C,0.05524*%
%ADD42C,0.07800*%
%ADD43C,0.06706*%
%ADD44R,0.06706X0.06706*%
%ADD45C,0.07300*%
%ADD46R,0.07300X0.07300*%
%ADD47R,0.07800X0.07800*%
%ADD48R,0.06706X0.06706*%
%ADD49R,0.07099X0.07099*%
%ADD50C,0.07099*%
%ADD51C,0.06312*%
%ADD52C,0.05800*%
D16*
X197500Y116500D02*
D03*
X248000D02*
D03*
D37*
X132500Y126000D02*
D03*
Y132299D02*
D03*
Y119701D02*
D03*
X127776Y122850D02*
D03*
Y129150D02*
D03*
D38*
X112618Y111630D02*
D03*
Y140370D02*
D03*
D39*
X109000Y231500D02*
D03*
X155000D02*
D03*
X132000D02*
D03*
X118600Y239200D02*
D03*
X140400D02*
D03*
D40*
X191500Y247000D02*
D03*
X263000D02*
D03*
D41*
X221500D02*
D03*
X293000D02*
D03*
X192000Y145500D02*
D03*
X222000D02*
D03*
X243500D02*
D03*
X273500D02*
D03*
X130500Y193000D02*
D03*
Y163000D02*
D03*
X159500Y193000D02*
D03*
Y163000D02*
D03*
D42*
X447000Y248500D02*
D03*
Y238500D02*
D03*
X150764Y111811D02*
D03*
X170764D02*
D03*
X150764Y131811D02*
D03*
X160764D02*
D03*
D43*
X452000Y116000D02*
D03*
Y126000D02*
D03*
Y136000D02*
D03*
Y146000D02*
D03*
Y156000D02*
D03*
X442000Y116000D02*
D03*
Y126000D02*
D03*
Y136000D02*
D03*
Y146000D02*
D03*
X403000Y177500D02*
D03*
Y187500D02*
D03*
Y197500D02*
D03*
Y207500D02*
D03*
Y217500D02*
D03*
Y227500D02*
D03*
Y237500D02*
D03*
Y247500D02*
D03*
X393000Y177500D02*
D03*
Y187500D02*
D03*
Y197500D02*
D03*
Y207500D02*
D03*
Y217500D02*
D03*
Y227500D02*
D03*
Y237500D02*
D03*
X443500Y207500D02*
D03*
X466000Y137000D02*
D03*
X398500Y145500D02*
D03*
X388500D02*
D03*
X378500D02*
D03*
X408500Y115500D02*
D03*
X398500D02*
D03*
X388500D02*
D03*
X378500D02*
D03*
D44*
X442000Y156000D02*
D03*
X393000Y247500D02*
D03*
X466000Y147000D02*
D03*
X408500Y145500D02*
D03*
D45*
X207500Y116500D02*
D03*
X258000D02*
D03*
D46*
X217500D02*
D03*
X268000D02*
D03*
D47*
X170764Y131811D02*
D03*
D48*
X453500Y207500D02*
D03*
D49*
X217000Y176000D02*
D03*
X268500D02*
D03*
D50*
X207000D02*
D03*
X197000D02*
D03*
X258500D02*
D03*
X248500D02*
D03*
D51*
X220500Y207500D02*
D03*
X190500D02*
D03*
X298000Y114500D02*
D03*
Y144500D02*
D03*
X325000Y214500D02*
D03*
Y244500D02*
D03*
X246500Y206500D02*
D03*
X276500D02*
D03*
X323000Y114000D02*
D03*
Y144000D02*
D03*
X323500Y190000D02*
D03*
Y160000D02*
D03*
X435000Y176000D02*
D03*
X465000D02*
D03*
X291500Y190000D02*
D03*
Y160000D02*
D03*
X348000Y114500D02*
D03*
Y144500D02*
D03*
X349000Y214500D02*
D03*
Y244500D02*
D03*
X370000Y189500D02*
D03*
Y159500D02*
D03*
X347500Y190000D02*
D03*
Y160000D02*
D03*
D52*
X334500Y177500D02*
D03*
X311000Y158500D02*
D03*
X431500Y145500D02*
D03*
X431000Y167500D02*
D03*
X429500Y114500D02*
D03*
X313000Y203500D02*
D03*
X253500Y156500D02*
D03*
X414500Y201000D02*
D03*
M02*
