G04 Layer_Physical_Order=2*
G04 Layer_Color=16711680*
%FSLAX25Y25*%
%MOIN*%
G70*
G01*
G75*
%ADD10C,0.02000*%
G04:AMPARAMS|DCode=11|XSize=39.37mil|YSize=39.37mil|CornerRadius=9.84mil|HoleSize=0mil|Usage=FLASHONLY|Rotation=90.000|XOffset=0mil|YOffset=0mil|HoleType=Round|Shape=RoundedRectangle|*
%AMROUNDEDRECTD11*
21,1,0.03937,0.01969,0,0,90.0*
21,1,0.01969,0.03937,0,0,90.0*
1,1,0.01969,0.00984,0.00984*
1,1,0.01969,0.00984,-0.00984*
1,1,0.01969,-0.00984,-0.00984*
1,1,0.01969,-0.00984,0.00984*
%
%ADD11ROUNDEDRECTD11*%
G04:AMPARAMS|DCode=12|XSize=106.3mil|YSize=106.3mil|CornerRadius=26.58mil|HoleSize=0mil|Usage=FLASHONLY|Rotation=90.000|XOffset=0mil|YOffset=0mil|HoleType=Round|Shape=RoundedRectangle|*
%AMROUNDEDRECTD12*
21,1,0.10630,0.05315,0,0,90.0*
21,1,0.05315,0.10630,0,0,90.0*
1,1,0.05315,0.02658,0.02658*
1,1,0.05315,0.02658,-0.02658*
1,1,0.05315,-0.02658,-0.02658*
1,1,0.05315,-0.02658,0.02658*
%
%ADD12ROUNDEDRECTD12*%
%ADD13C,0.10650*%
%ADD14R,0.04724X0.04724*%
%ADD15C,0.04724*%
%ADD16C,0.07000*%
%ADD17C,0.05906*%
%ADD18R,0.05906X0.05906*%
%ADD19C,0.06200*%
%ADD20C,0.06500*%
%ADD21R,0.06500X0.06500*%
%ADD22R,0.07000X0.07000*%
%ADD23R,0.05906X0.05906*%
%ADD24R,0.06299X0.06299*%
%ADD25C,0.06299*%
%ADD26C,0.05512*%
%ADD27C,0.05000*%
G36*
X397355Y250941D02*
X396935Y250507D01*
X396281Y249740D01*
X396046Y249407D01*
X395872Y249108D01*
X395761Y248842D01*
X395710Y248609D01*
X395722Y248410D01*
X395794Y248244D01*
X395929Y248112D01*
X392612Y250429D01*
X392789Y250339D01*
X392990Y250301D01*
X393214Y250315D01*
X393461Y250380D01*
X393732Y250497D01*
X394027Y250665D01*
X394345Y250885D01*
X394687Y251157D01*
X395052Y251480D01*
X395441Y251855D01*
X397355Y250941D01*
D02*
G37*
G36*
X394810Y244539D02*
X394640Y244479D01*
X394490Y244379D01*
X394360Y244239D01*
X394250Y244059D01*
X394160Y243839D01*
X394090Y243579D01*
X394040Y243279D01*
X394010Y242939D01*
X394000Y242559D01*
X392000D01*
X391990Y242939D01*
X391960Y243279D01*
X391910Y243579D01*
X391840Y243839D01*
X391750Y244059D01*
X391640Y244239D01*
X391510Y244379D01*
X391360Y244479D01*
X391190Y244539D01*
X391000Y244559D01*
X395000D01*
X394810Y244539D01*
D02*
G37*
G36*
X394011Y241774D02*
X394043Y241506D01*
X394096Y241244D01*
X394171Y240989D01*
X394267Y240742D01*
X394384Y240501D01*
X394523Y240268D01*
X394683Y240041D01*
X394864Y239821D01*
X395067Y239609D01*
X390933D01*
X391136Y239821D01*
X391317Y240041D01*
X391477Y240268D01*
X391616Y240501D01*
X391733Y240742D01*
X391829Y240989D01*
X391904Y241244D01*
X391957Y241506D01*
X391989Y241774D01*
X392000Y242050D01*
X394000D01*
X394011Y241774D01*
D02*
G37*
G36*
X390891Y235433D02*
X390679Y235636D01*
X390459Y235817D01*
X390232Y235977D01*
X389999Y236116D01*
X389758Y236233D01*
X389510Y236329D01*
X389256Y236404D01*
X388994Y236457D01*
X388726Y236489D01*
X388450Y236500D01*
Y238500D01*
X388726Y238511D01*
X388994Y238543D01*
X389256Y238596D01*
X389510Y238671D01*
X389758Y238767D01*
X389999Y238884D01*
X390232Y239023D01*
X390459Y239183D01*
X390679Y239364D01*
X390891Y239567D01*
Y235433D01*
D02*
G37*
G36*
X323032Y212571D02*
X322845Y212747D01*
X322650Y212905D01*
X322447Y213045D01*
X322234Y213165D01*
X322013Y213268D01*
X321783Y213351D01*
X321545Y213416D01*
X321298Y213463D01*
X321043Y213491D01*
X320778Y213500D01*
Y215500D01*
X321043Y215509D01*
X321298Y215537D01*
X321545Y215584D01*
X321783Y215649D01*
X322013Y215732D01*
X322234Y215834D01*
X322447Y215955D01*
X322650Y216095D01*
X322845Y216253D01*
X323032Y216429D01*
Y212571D01*
D02*
G37*
G36*
X350753Y212345D02*
X350595Y212150D01*
X350455Y211947D01*
X350335Y211734D01*
X350232Y211513D01*
X350149Y211283D01*
X350084Y211045D01*
X350037Y210798D01*
X350009Y210543D01*
X350000Y210278D01*
X348000D01*
X347991Y210543D01*
X347963Y210798D01*
X347916Y211045D01*
X347851Y211283D01*
X347768Y211513D01*
X347666Y211734D01*
X347545Y211947D01*
X347405Y212150D01*
X347247Y212345D01*
X347071Y212532D01*
X350929D01*
X350753Y212345D01*
D02*
G37*
G36*
X326753D02*
X326595Y212150D01*
X326455Y211947D01*
X326335Y211734D01*
X326232Y211513D01*
X326149Y211283D01*
X326084Y211045D01*
X326037Y210798D01*
X326009Y210543D01*
X326000Y210278D01*
X324000D01*
X323991Y210543D01*
X323963Y210798D01*
X323916Y211045D01*
X323851Y211283D01*
X323768Y211513D01*
X323665Y211734D01*
X323545Y211947D01*
X323405Y212150D01*
X323247Y212345D01*
X323071Y212532D01*
X326929D01*
X326753Y212345D01*
D02*
G37*
G36*
X405321Y209364D02*
X405541Y209183D01*
X405768Y209023D01*
X406001Y208884D01*
X406242Y208767D01*
X406490Y208671D01*
X406744Y208596D01*
X407006Y208543D01*
X407274Y208511D01*
X407550Y208500D01*
Y206500D01*
X407274Y206489D01*
X407006Y206457D01*
X406744Y206404D01*
X406490Y206329D01*
X406242Y206233D01*
X406001Y206116D01*
X405768Y205977D01*
X405541Y205817D01*
X405321Y205636D01*
X405109Y205433D01*
Y209567D01*
X405321Y209364D01*
D02*
G37*
G36*
X453388Y204559D02*
X453232Y204672D01*
X453048Y204729D01*
X452836D01*
X452596Y204672D01*
X452327Y204559D01*
X452030Y204390D01*
X451705Y204163D01*
X451351Y203880D01*
X450559Y203145D01*
X449145Y204559D01*
X449541Y204969D01*
X450163Y205705D01*
X450389Y206030D01*
X450559Y206327D01*
X450672Y206596D01*
X450729Y206836D01*
Y207048D01*
X450672Y207232D01*
X450559Y207388D01*
X453388Y204559D01*
D02*
G37*
G36*
X220472Y204744D02*
X220216Y204737D01*
X219966Y204711D01*
X219724Y204665D01*
X219488Y204601D01*
X219259Y204517D01*
X219038Y204413D01*
X218823Y204291D01*
X218616Y204149D01*
X218415Y203988D01*
X218222Y203808D01*
X216808Y205222D01*
X216988Y205415D01*
X217149Y205616D01*
X217291Y205823D01*
X217413Y206038D01*
X217517Y206259D01*
X217601Y206488D01*
X217665Y206723D01*
X217711Y206966D01*
X217737Y207216D01*
X217744Y207472D01*
X220472Y204744D01*
D02*
G37*
G36*
X193263Y207216D02*
X193289Y206966D01*
X193335Y206723D01*
X193399Y206488D01*
X193483Y206259D01*
X193587Y206038D01*
X193709Y205823D01*
X193851Y205616D01*
X194012Y205415D01*
X194192Y205222D01*
X192778Y203808D01*
X192585Y203988D01*
X192384Y204149D01*
X192177Y204291D01*
X191962Y204413D01*
X191741Y204517D01*
X191512Y204601D01*
X191277Y204665D01*
X191034Y204711D01*
X190784Y204737D01*
X190528Y204744D01*
X193256Y207472D01*
X193263Y207216D01*
D02*
G37*
G36*
X443470Y204547D02*
X443177Y204540D01*
X442893Y204513D01*
X442620Y204466D01*
X442356Y204399D01*
X442103Y204312D01*
X441860Y204205D01*
X441628Y204078D01*
X441405Y203930D01*
X441192Y203763D01*
X440990Y203576D01*
X439576Y204990D01*
X439763Y205192D01*
X439930Y205405D01*
X440077Y205627D01*
X440205Y205860D01*
X440312Y206103D01*
X440399Y206357D01*
X440466Y206620D01*
X440513Y206893D01*
X440540Y207177D01*
X440547Y207470D01*
X443470Y204547D01*
D02*
G37*
G36*
X279263Y206216D02*
X279289Y205966D01*
X279335Y205724D01*
X279399Y205488D01*
X279483Y205259D01*
X279587Y205038D01*
X279709Y204823D01*
X279851Y204616D01*
X280012Y204415D01*
X280192Y204222D01*
X278778Y202808D01*
X278585Y202988D01*
X278384Y203149D01*
X278177Y203291D01*
X277962Y203413D01*
X277741Y203517D01*
X277512Y203601D01*
X277276Y203665D01*
X277034Y203711D01*
X276784Y203737D01*
X276528Y203744D01*
X279256Y206472D01*
X279263Y206216D01*
D02*
G37*
G36*
X249263D02*
X249289Y205966D01*
X249335Y205724D01*
X249399Y205488D01*
X249483Y205259D01*
X249587Y205038D01*
X249709Y204823D01*
X249851Y204616D01*
X250012Y204415D01*
X250192Y204222D01*
X248778Y202808D01*
X248585Y202988D01*
X248384Y203149D01*
X248177Y203291D01*
X247962Y203413D01*
X247741Y203517D01*
X247512Y203601D01*
X247276Y203665D01*
X247034Y203711D01*
X246784Y203737D01*
X246528Y203744D01*
X249256Y206472D01*
X249263Y206216D01*
D02*
G37*
G36*
X472451Y102549D02*
X457481D01*
X457290Y103011D01*
X468140Y113860D01*
X468620Y114487D01*
X468923Y115217D01*
X469026Y116000D01*
Y132322D01*
X469038Y132371D01*
X469045Y132565D01*
X469058Y132669D01*
X469077Y132764D01*
X469103Y132854D01*
X469137Y132941D01*
X469180Y133030D01*
X469235Y133122D01*
X469304Y133220D01*
X469390Y133324D01*
X469513Y133453D01*
X469532Y133468D01*
X470326Y134502D01*
X470825Y135707D01*
X470996Y137000D01*
X470825Y138293D01*
X470326Y139498D01*
X469532Y140532D01*
X468498Y141326D01*
X467964Y141547D01*
X468064Y142047D01*
X470953D01*
Y151953D01*
X461047D01*
Y142047D01*
X463936D01*
X464036Y141547D01*
X463502Y141326D01*
X462468Y140532D01*
X462453Y140513D01*
X462324Y140390D01*
X462220Y140304D01*
X462122Y140235D01*
X462073Y140206D01*
X457447Y144832D01*
X457421Y144875D01*
X457289Y145018D01*
X457224Y145100D01*
X457171Y145181D01*
X457126Y145262D01*
X457088Y145348D01*
X457056Y145441D01*
X457030Y145545D01*
X457009Y145663D01*
X456996Y145798D01*
X456992Y145975D01*
X456995Y146000D01*
X456825Y147293D01*
X456326Y148498D01*
X455532Y149532D01*
X454498Y150326D01*
X453524Y150729D01*
Y151271D01*
X454498Y151674D01*
X455532Y152468D01*
X456326Y153502D01*
X456825Y154707D01*
X456995Y156000D01*
X456825Y157293D01*
X456326Y158498D01*
X455532Y159532D01*
X454498Y160326D01*
X453293Y160825D01*
X452330Y160952D01*
X452193Y160988D01*
X451966Y161001D01*
X451823Y161019D01*
X451694Y161044D01*
X451580Y161076D01*
X451478Y161114D01*
X451383Y161157D01*
X451294Y161206D01*
X451208Y161264D01*
X451122Y161333D01*
X450979Y161466D01*
X450935Y161492D01*
X442788Y169640D01*
X442161Y170121D01*
X441431Y170423D01*
X440648Y170526D01*
X434906D01*
X434853Y170538D01*
X434669Y170544D01*
X434567Y170554D01*
X434484Y170567D01*
X434465Y170572D01*
X434360Y170686D01*
X434300Y170791D01*
X434612Y171254D01*
X435000Y171203D01*
X436241Y171367D01*
X437398Y171846D01*
X438392Y172608D01*
X439154Y173601D01*
X439634Y174759D01*
X439797Y176000D01*
X439634Y177242D01*
X439154Y178399D01*
X438392Y179392D01*
X437398Y180154D01*
X436241Y180633D01*
X435000Y180797D01*
X433758Y180633D01*
X432601Y180154D01*
X431608Y179392D01*
X430846Y178399D01*
X430367Y177242D01*
X430203Y176000D01*
X430367Y174759D01*
X430846Y173601D01*
X431608Y172608D01*
X431836Y172433D01*
X431638Y171955D01*
X431000Y172039D01*
X429825Y171884D01*
X428731Y171431D01*
X427791Y170709D01*
X427069Y169769D01*
X426616Y168675D01*
X426461Y167500D01*
X426616Y166325D01*
X427069Y165231D01*
X427791Y164291D01*
X428731Y163569D01*
X429825Y163116D01*
X431000Y162961D01*
X432175Y163116D01*
X433269Y163569D01*
X434137Y164235D01*
X434178Y164261D01*
X434265Y164341D01*
X434285Y164357D01*
X434307Y164372D01*
X434334Y164386D01*
X434370Y164401D01*
X434419Y164417D01*
X434484Y164433D01*
X434567Y164446D01*
X434669Y164456D01*
X434853Y164462D01*
X434906Y164474D01*
X439395D01*
X442454Y161415D01*
X442263Y160953D01*
X437047D01*
Y159040D01*
X437006Y159038D01*
X436950Y159026D01*
X430500D01*
X429717Y158923D01*
X428987Y158621D01*
X428360Y158140D01*
X428360Y158140D01*
X422860Y152640D01*
X422379Y152013D01*
X422077Y151283D01*
X421974Y150500D01*
Y142000D01*
X422077Y141217D01*
X422379Y140487D01*
X422860Y139860D01*
X428860Y133860D01*
X429487Y133379D01*
X430217Y133077D01*
X431000Y132974D01*
X434042D01*
X434233Y132512D01*
X420247Y118526D01*
X413178D01*
X413129Y118538D01*
X412935Y118545D01*
X412831Y118558D01*
X412736Y118577D01*
X412646Y118603D01*
X412559Y118637D01*
X412470Y118680D01*
X412378Y118735D01*
X412280Y118804D01*
X412176Y118890D01*
X412047Y119013D01*
X412032Y119032D01*
X410998Y119826D01*
X409793Y120325D01*
X408500Y120495D01*
X407207Y120325D01*
X406002Y119826D01*
X404968Y119032D01*
X404174Y117998D01*
X403771Y117024D01*
X403229D01*
X402826Y117998D01*
X402032Y119032D01*
X400998Y119826D01*
X399793Y120325D01*
X398500Y120495D01*
X397207Y120325D01*
X396002Y119826D01*
X394968Y119032D01*
X394953Y119013D01*
X394824Y118890D01*
X394720Y118804D01*
X394622Y118735D01*
X394530Y118680D01*
X394441Y118637D01*
X394354Y118603D01*
X394264Y118577D01*
X394169Y118558D01*
X394065Y118545D01*
X393871Y118538D01*
X393822Y118526D01*
X393178D01*
X393129Y118538D01*
X392935Y118545D01*
X392831Y118558D01*
X392736Y118577D01*
X392646Y118603D01*
X392559Y118637D01*
X392470Y118680D01*
X392378Y118735D01*
X392280Y118804D01*
X392176Y118890D01*
X392047Y119013D01*
X392032Y119032D01*
X390998Y119826D01*
X389793Y120325D01*
X388500Y120495D01*
X387207Y120325D01*
X386002Y119826D01*
X384968Y119032D01*
X384174Y117998D01*
X383771Y117024D01*
X383229D01*
X382826Y117998D01*
X382032Y119032D01*
X380998Y119826D01*
X379793Y120325D01*
X378500Y120495D01*
X378475Y120492D01*
X378298Y120496D01*
X378163Y120509D01*
X378045Y120530D01*
X377941Y120556D01*
X377848Y120588D01*
X377762Y120626D01*
X377681Y120671D01*
X377600Y120724D01*
X377518Y120789D01*
X377375Y120921D01*
X377332Y120947D01*
X353422Y144858D01*
X353389Y144908D01*
X353253Y145050D01*
X353003Y145341D01*
X352927Y145441D01*
X352723Y145746D01*
X352663Y145849D01*
X352500Y146172D01*
X352428Y146340D01*
X352322Y146494D01*
X352154Y146898D01*
X351392Y147892D01*
X350398Y148654D01*
X349241Y149134D01*
X348038Y149292D01*
X348028Y149294D01*
X348019Y149294D01*
X348000Y149297D01*
X347988Y149295D01*
X347850Y149299D01*
X347761Y149308D01*
X347683Y149323D01*
X347611Y149343D01*
X347543Y149368D01*
X347476Y149399D01*
X347406Y149439D01*
X347331Y149490D01*
X347251Y149555D01*
X347112Y149684D01*
X347068Y149712D01*
X337526Y159253D01*
Y173594D01*
X337538Y173647D01*
X337544Y173831D01*
X337554Y173933D01*
X337567Y174016D01*
X337583Y174081D01*
X337599Y174130D01*
X337614Y174166D01*
X337628Y174193D01*
X337643Y174215D01*
X337659Y174235D01*
X337739Y174322D01*
X337765Y174363D01*
X338431Y175231D01*
X338884Y176325D01*
X339039Y177500D01*
X338884Y178675D01*
X338431Y179769D01*
X338086Y180218D01*
X338333Y180718D01*
X385503D01*
X387553Y178668D01*
X387579Y178625D01*
X387711Y178482D01*
X387776Y178400D01*
X387829Y178319D01*
X387874Y178238D01*
X387912Y178152D01*
X387944Y178059D01*
X387970Y177955D01*
X387991Y177837D01*
X388003Y177702D01*
X388008Y177524D01*
X388004Y177500D01*
X388175Y176207D01*
X388674Y175002D01*
X389468Y173968D01*
X390502Y173174D01*
X391707Y172675D01*
X393000Y172504D01*
X393024Y172508D01*
X393202Y172503D01*
X393337Y172491D01*
X393455Y172470D01*
X393559Y172444D01*
X393652Y172412D01*
X393738Y172374D01*
X393819Y172329D01*
X393900Y172276D01*
X393983Y172211D01*
X394125Y172079D01*
X394168Y172053D01*
X399860Y166360D01*
X400487Y165879D01*
X401217Y165577D01*
X402000Y165474D01*
X414500D01*
X415283Y165577D01*
X416013Y165879D01*
X416640Y166360D01*
X451903Y201624D01*
X451947Y201651D01*
X452684Y202335D01*
X452925Y202528D01*
X452953Y202547D01*
X453251D01*
X453388Y202520D01*
X453524Y202547D01*
X453650D01*
X453706Y202545D01*
X453712Y202547D01*
X458453D01*
Y212453D01*
X448547D01*
Y209564D01*
X448047Y209464D01*
X447826Y209998D01*
X447032Y211032D01*
X445998Y211826D01*
X444793Y212325D01*
X443500Y212495D01*
X442207Y212325D01*
X441002Y211826D01*
X439968Y211032D01*
X439174Y209998D01*
X438675Y208793D01*
X438505Y207500D01*
X438508Y207475D01*
X438504Y207298D01*
X438491Y207163D01*
X438470Y207045D01*
X438444Y206941D01*
X438412Y206848D01*
X438374Y206762D01*
X438329Y206681D01*
X438276Y206600D01*
X438211Y206518D01*
X438079Y206375D01*
X438053Y206332D01*
X412247Y180526D01*
X407678D01*
X407629Y180538D01*
X407435Y180545D01*
X407331Y180558D01*
X407236Y180577D01*
X407146Y180603D01*
X407059Y180637D01*
X406970Y180680D01*
X406878Y180735D01*
X406780Y180804D01*
X406676Y180890D01*
X406547Y181013D01*
X406532Y181032D01*
X405498Y181826D01*
X404524Y182229D01*
Y182771D01*
X405498Y183174D01*
X406532Y183968D01*
X406547Y183987D01*
X406676Y184110D01*
X406780Y184196D01*
X406878Y184265D01*
X406970Y184320D01*
X407059Y184363D01*
X407146Y184397D01*
X407236Y184423D01*
X407331Y184442D01*
X407435Y184455D01*
X407629Y184462D01*
X407678Y184474D01*
X413000D01*
X413783Y184577D01*
X414513Y184880D01*
X415140Y185360D01*
X424640Y194860D01*
X425120Y195487D01*
X425423Y196217D01*
X425526Y197000D01*
Y205500D01*
X425526Y205500D01*
X425423Y206283D01*
X425120Y207013D01*
X424640Y207640D01*
X424640Y207640D01*
X414026Y218253D01*
Y255000D01*
X413923Y255783D01*
X413621Y256513D01*
X413140Y257140D01*
X412513Y257621D01*
X411783Y257923D01*
X411000Y258026D01*
X400000D01*
X399217Y257923D01*
X398487Y257621D01*
X397860Y257140D01*
X397860Y257140D01*
X394113Y253393D01*
X394077Y253371D01*
X394056Y253342D01*
X394026Y253323D01*
X393668Y252978D01*
X393376Y252720D01*
X393129Y252524D01*
X393026Y252453D01*
X392800D01*
X392767Y252462D01*
X392690Y252453D01*
X388047D01*
Y242547D01*
X389671D01*
X389881Y242246D01*
X389959Y242047D01*
X389955Y241935D01*
X389942Y241831D01*
X389923Y241736D01*
X389897Y241646D01*
X389863Y241559D01*
X389820Y241470D01*
X389765Y241378D01*
X389696Y241280D01*
X389610Y241176D01*
X389487Y241047D01*
X389468Y241032D01*
X389453Y241013D01*
X389324Y240890D01*
X389220Y240804D01*
X389122Y240735D01*
X389030Y240680D01*
X388941Y240637D01*
X388854Y240603D01*
X388764Y240577D01*
X388669Y240558D01*
X388565Y240545D01*
X388371Y240538D01*
X388322Y240526D01*
X358000D01*
X357217Y240423D01*
X356487Y240121D01*
X355860Y239640D01*
X344747Y228526D01*
X317000D01*
X316217Y228423D01*
X315487Y228120D01*
X314860Y227640D01*
X314860Y227640D01*
X298360Y211140D01*
X297880Y210513D01*
X297577Y209783D01*
X297474Y209000D01*
Y156253D01*
X295747Y154526D01*
X259753D01*
X258402Y155877D01*
X258373Y155924D01*
X258247Y156058D01*
X258181Y156137D01*
X258132Y156205D01*
X258097Y156262D01*
X258074Y156308D01*
X258060Y156344D01*
X258050Y156374D01*
X258045Y156399D01*
X258042Y156425D01*
X258038Y156543D01*
X258027Y156590D01*
X257884Y157675D01*
X257431Y158769D01*
X256709Y159709D01*
X255769Y160431D01*
X254675Y160884D01*
X253500Y161039D01*
X252325Y160884D01*
X251231Y160431D01*
X250291Y159709D01*
X249569Y158769D01*
X249116Y157675D01*
X248961Y156500D01*
X249116Y155325D01*
X249569Y154231D01*
X250291Y153291D01*
X251231Y152569D01*
X252325Y152116D01*
X253410Y151973D01*
X253457Y151962D01*
X253575Y151958D01*
X253601Y151955D01*
X253626Y151950D01*
X253656Y151941D01*
X253692Y151926D01*
X253738Y151903D01*
X253795Y151868D01*
X253863Y151819D01*
X253942Y151753D01*
X254076Y151627D01*
X254123Y151598D01*
X256360Y149360D01*
X256987Y148880D01*
X257717Y148577D01*
X258500Y148474D01*
X258500Y148474D01*
X269718D01*
X269940Y148026D01*
X269690Y147700D01*
X269250Y146639D01*
X269116Y145620D01*
X269100Y145554D01*
X269097Y145478D01*
X269097Y145478D01*
X269088Y145458D01*
X269069Y145422D01*
X269037Y145371D01*
X268988Y145304D01*
X268921Y145225D01*
X268797Y145094D01*
X268767Y145046D01*
X265860Y142140D01*
X265380Y141513D01*
X265077Y140783D01*
X264974Y140000D01*
Y121847D01*
X264962Y121791D01*
X264960Y121750D01*
X262750D01*
Y119755D01*
X262250Y119585D01*
X261744Y120244D01*
X260648Y121086D01*
X259370Y121615D01*
X258000Y121795D01*
X256629Y121615D01*
X255352Y121086D01*
X254256Y120244D01*
X253414Y119148D01*
X253169Y118555D01*
X252669D01*
X252455Y119072D01*
X251637Y120137D01*
X251610Y120158D01*
X251468Y120307D01*
X251361Y120435D01*
X251274Y120556D01*
X251205Y120669D01*
X251152Y120775D01*
X251111Y120876D01*
X251080Y120974D01*
X251059Y121075D01*
X251046Y121180D01*
X251037Y121378D01*
X251026Y121426D01*
Y141000D01*
X250923Y141783D01*
X250621Y142513D01*
X250140Y143140D01*
X248233Y145046D01*
X248203Y145094D01*
X248079Y145225D01*
X248012Y145304D01*
X247963Y145371D01*
X247931Y145422D01*
X247912Y145458D01*
X247903Y145478D01*
X247903Y145478D01*
X247900Y145554D01*
X247884Y145620D01*
X247750Y146639D01*
X247310Y147700D01*
X246685Y148515D01*
X246649Y148573D01*
X246598Y148628D01*
X246598Y148629D01*
X246590Y148649D01*
X246578Y148688D01*
X246565Y148748D01*
X246552Y148829D01*
X246543Y148933D01*
X246538Y149113D01*
X246526Y149168D01*
Y169747D01*
X247097Y170318D01*
X247139Y170344D01*
X247286Y170478D01*
X247371Y170544D01*
X247459Y170600D01*
X247554Y170650D01*
X247659Y170694D01*
X247778Y170733D01*
X247914Y170766D01*
X248071Y170791D01*
X248249Y170806D01*
X248463Y170811D01*
X248500Y170806D01*
X249844Y170983D01*
X251097Y171502D01*
X252173Y172327D01*
X252998Y173403D01*
X253250Y174011D01*
X253750D01*
X254002Y173403D01*
X254827Y172327D01*
X255903Y171502D01*
X257156Y170983D01*
X258500Y170806D01*
X259844Y170983D01*
X261097Y171502D01*
X262173Y172327D01*
X262850Y173210D01*
X263350Y173041D01*
Y170850D01*
X273650D01*
Y172960D01*
X273691Y172961D01*
X273747Y172974D01*
X279000D01*
X279783Y173077D01*
X280513Y173380D01*
X281140Y173860D01*
X291858Y184578D01*
X291909Y184611D01*
X292050Y184747D01*
X292340Y184997D01*
X292441Y185073D01*
X292746Y185277D01*
X292849Y185337D01*
X293173Y185500D01*
X293340Y185572D01*
X293494Y185678D01*
X293899Y185846D01*
X294892Y186608D01*
X295654Y187601D01*
X296133Y188759D01*
X296297Y190000D01*
X296133Y191242D01*
X295654Y192399D01*
X294892Y193392D01*
X293899Y194154D01*
X293494Y194322D01*
X293340Y194428D01*
X293173Y194500D01*
X292849Y194663D01*
X292746Y194723D01*
X292441Y194927D01*
X292340Y195003D01*
X292050Y195253D01*
X291909Y195389D01*
X291858Y195422D01*
X281712Y205568D01*
X281684Y205612D01*
X281555Y205751D01*
X281490Y205831D01*
X281439Y205906D01*
X281399Y205976D01*
X281368Y206043D01*
X281343Y206111D01*
X281323Y206183D01*
X281308Y206261D01*
X281299Y206350D01*
X281295Y206488D01*
X281297Y206500D01*
X281294Y206519D01*
X281294Y206528D01*
X281292Y206538D01*
X281134Y207741D01*
X280654Y208898D01*
X279892Y209892D01*
X278899Y210654D01*
X277742Y211134D01*
X276500Y211297D01*
X275258Y211134D01*
X274101Y210654D01*
X273108Y209892D01*
X272346Y208898D01*
X271866Y207741D01*
X271703Y206500D01*
X271866Y205258D01*
X272346Y204101D01*
X273108Y203108D01*
X274101Y202346D01*
X275258Y201867D01*
X276462Y201708D01*
X276472Y201706D01*
X276481Y201706D01*
X276500Y201703D01*
X276512Y201705D01*
X276649Y201701D01*
X276739Y201692D01*
X276817Y201677D01*
X276889Y201657D01*
X276957Y201632D01*
X277024Y201601D01*
X277094Y201561D01*
X277169Y201510D01*
X277249Y201445D01*
X277388Y201316D01*
X277432Y201289D01*
X286900Y191820D01*
X286926Y191778D01*
X286927Y191778D01*
X286928Y191777D01*
X287032Y191664D01*
X287027Y191628D01*
X286866Y191242D01*
X286703Y190000D01*
X286866Y188759D01*
X287027Y188372D01*
X287032Y188336D01*
X286928Y188223D01*
X286927Y188223D01*
X286926Y188222D01*
X286900Y188180D01*
X277747Y179026D01*
X273747D01*
X273691Y179039D01*
X273650Y179040D01*
Y181150D01*
X263350D01*
Y178959D01*
X262850Y178790D01*
X262173Y179673D01*
X262143Y179695D01*
X261995Y179850D01*
X261880Y179987D01*
X261787Y180115D01*
X261714Y180235D01*
X261657Y180347D01*
X261614Y180452D01*
X261582Y180554D01*
X261559Y180657D01*
X261546Y180763D01*
X261537Y180962D01*
X261526Y181009D01*
Y194500D01*
X261423Y195283D01*
X261121Y196013D01*
X260640Y196640D01*
X251712Y205568D01*
X251684Y205612D01*
X251555Y205751D01*
X251490Y205831D01*
X251439Y205906D01*
X251399Y205976D01*
X251368Y206043D01*
X251343Y206111D01*
X251323Y206183D01*
X251308Y206261D01*
X251299Y206350D01*
X251295Y206488D01*
X251297Y206500D01*
X251294Y206519D01*
X251294Y206528D01*
X251292Y206538D01*
X251133Y207741D01*
X250654Y208898D01*
X249892Y209892D01*
X248899Y210654D01*
X247742Y211134D01*
X246500Y211297D01*
X245258Y211134D01*
X244102Y210654D01*
X243108Y209892D01*
X242346Y208898D01*
X241866Y207741D01*
X241703Y206500D01*
X241866Y205258D01*
X242346Y204101D01*
X243108Y203108D01*
X244102Y202346D01*
X245258Y201867D01*
X246462Y201708D01*
X246472Y201706D01*
X246481Y201706D01*
X246500Y201703D01*
X246512Y201705D01*
X246650Y201701D01*
X246739Y201692D01*
X246817Y201677D01*
X246889Y201657D01*
X246957Y201632D01*
X247024Y201601D01*
X247094Y201561D01*
X247169Y201510D01*
X247249Y201445D01*
X247388Y201316D01*
X247432Y201289D01*
X255474Y193247D01*
Y181009D01*
X255463Y180962D01*
X255454Y180763D01*
X255441Y180657D01*
X255418Y180554D01*
X255386Y180452D01*
X255343Y180347D01*
X255286Y180235D01*
X255213Y180115D01*
X255120Y179987D01*
X255005Y179850D01*
X254857Y179695D01*
X254827Y179673D01*
X254002Y178597D01*
X253750Y177989D01*
X253250D01*
X252998Y178597D01*
X252173Y179673D01*
X251097Y180498D01*
X249844Y181017D01*
X248500Y181194D01*
X247156Y181017D01*
X245903Y180498D01*
X244827Y179673D01*
X244002Y178597D01*
X243483Y177344D01*
X243306Y176000D01*
X243311Y175963D01*
X243306Y175749D01*
X243291Y175571D01*
X243266Y175414D01*
X243233Y175278D01*
X243194Y175159D01*
X243150Y175054D01*
X243101Y174959D01*
X243044Y174871D01*
X242978Y174786D01*
X242844Y174639D01*
X242818Y174598D01*
X241360Y173140D01*
X240880Y172513D01*
X240577Y171783D01*
X240474Y171000D01*
Y149168D01*
X240462Y149113D01*
X240457Y148933D01*
X240448Y148829D01*
X240436Y148748D01*
X240422Y148688D01*
X240410Y148649D01*
X240402Y148629D01*
X240402Y148628D01*
X240351Y148573D01*
X240315Y148515D01*
X239690Y147700D01*
X239250Y146639D01*
X239100Y145500D01*
X239250Y144361D01*
X239690Y143300D01*
X240389Y142389D01*
X241300Y141690D01*
X242361Y141250D01*
X243380Y141116D01*
X243446Y141100D01*
X243521Y141097D01*
X243522Y141097D01*
X243542Y141088D01*
X243578Y141069D01*
X243629Y141037D01*
X243696Y140988D01*
X243775Y140921D01*
X243906Y140797D01*
X243954Y140767D01*
X244974Y139747D01*
Y121426D01*
X244963Y121378D01*
X244954Y121180D01*
X244941Y121075D01*
X244919Y120974D01*
X244889Y120875D01*
X244848Y120775D01*
X244795Y120669D01*
X244726Y120556D01*
X244639Y120435D01*
X244532Y120306D01*
X244390Y120158D01*
X244363Y120137D01*
X243545Y119072D01*
X243031Y117831D01*
X242856Y116500D01*
X242860Y116466D01*
X242856Y116261D01*
X242841Y116094D01*
X242817Y115947D01*
X242786Y115819D01*
X242749Y115706D01*
X242706Y115606D01*
X242658Y115514D01*
X242602Y115428D01*
X242537Y115344D01*
X242403Y115198D01*
X242377Y115156D01*
X236747Y109526D01*
X208753D01*
X207570Y110710D01*
X207749Y111238D01*
X208871Y111385D01*
X210148Y111914D01*
X211244Y112756D01*
X211750Y113415D01*
X212250Y113245D01*
Y111250D01*
X222750D01*
Y121750D01*
X220540D01*
X220538Y121791D01*
X220526Y121847D01*
Y139747D01*
X221546Y140767D01*
X221594Y140797D01*
X221725Y140921D01*
X221804Y140988D01*
X221871Y141037D01*
X221922Y141069D01*
X221958Y141088D01*
X221978Y141097D01*
X221978Y141097D01*
X222054Y141100D01*
X222120Y141116D01*
X223139Y141250D01*
X224200Y141690D01*
X225111Y142389D01*
X225810Y143300D01*
X226250Y144361D01*
X226400Y145500D01*
X226250Y146639D01*
X225810Y147700D01*
X225185Y148515D01*
X225149Y148573D01*
X225098Y148628D01*
X225098Y148629D01*
X225090Y148649D01*
X225078Y148688D01*
X225064Y148748D01*
X225052Y148829D01*
X225043Y148933D01*
X225038Y149113D01*
X225026Y149168D01*
Y171000D01*
X225026Y171000D01*
X224923Y171783D01*
X224621Y172513D01*
X224140Y173140D01*
X223073Y174206D01*
X223046Y174250D01*
X222362Y174987D01*
X222169Y175229D01*
X222150Y175256D01*
Y175554D01*
X222177Y175691D01*
X222150Y175828D01*
Y175953D01*
X222152Y176009D01*
X222150Y176015D01*
Y181150D01*
X220040D01*
X220039Y181191D01*
X220026Y181247D01*
Y202624D01*
X220043Y202632D01*
X220111Y202657D01*
X220183Y202677D01*
X220261Y202692D01*
X220351Y202701D01*
X220488Y202705D01*
X220500Y202703D01*
X220519Y202706D01*
X220528Y202706D01*
X220538Y202708D01*
X221742Y202867D01*
X222899Y203346D01*
X223892Y204108D01*
X224654Y205101D01*
X225133Y206259D01*
X225297Y207500D01*
X225133Y208741D01*
X224654Y209898D01*
X223892Y210892D01*
X222899Y211654D01*
X221742Y212134D01*
X220500Y212297D01*
X219258Y212134D01*
X218102Y211654D01*
X217108Y210892D01*
X216346Y209898D01*
X215866Y208741D01*
X215708Y207538D01*
X215706Y207528D01*
X215706Y207519D01*
X215703Y207500D01*
X215705Y207488D01*
X215701Y207350D01*
X215692Y207261D01*
X215677Y207183D01*
X215657Y207111D01*
X215632Y207043D01*
X215601Y206976D01*
X215561Y206906D01*
X215510Y206831D01*
X215445Y206751D01*
X215316Y206612D01*
X215288Y206568D01*
X214860Y206140D01*
X214380Y205513D01*
X214077Y204783D01*
X213974Y204000D01*
Y181247D01*
X213962Y181191D01*
X213960Y181150D01*
X211850D01*
Y178959D01*
X211350Y178790D01*
X210673Y179673D01*
X210643Y179695D01*
X210495Y179850D01*
X210380Y179987D01*
X210287Y180115D01*
X210214Y180235D01*
X210157Y180347D01*
X210114Y180452D01*
X210082Y180554D01*
X210059Y180657D01*
X210046Y180763D01*
X210037Y180962D01*
X210026Y181009D01*
Y191000D01*
X209923Y191783D01*
X209620Y192513D01*
X209140Y193140D01*
X209140Y193140D01*
X195712Y206568D01*
X195684Y206612D01*
X195555Y206751D01*
X195490Y206831D01*
X195439Y206906D01*
X195399Y206976D01*
X195368Y207043D01*
X195343Y207111D01*
X195323Y207183D01*
X195308Y207261D01*
X195299Y207350D01*
X195295Y207488D01*
X195297Y207500D01*
X195294Y207519D01*
X195294Y207528D01*
X195292Y207538D01*
X195133Y208741D01*
X194654Y209898D01*
X193892Y210892D01*
X192898Y211654D01*
X191742Y212134D01*
X190500Y212297D01*
X189259Y212134D01*
X188101Y211654D01*
X187108Y210892D01*
X186346Y209898D01*
X185866Y208741D01*
X185703Y207500D01*
X185866Y206259D01*
X186346Y205101D01*
X187108Y204108D01*
X188101Y203346D01*
X189259Y202867D01*
X190462Y202708D01*
X190472Y202706D01*
X190481Y202706D01*
X190500Y202703D01*
X190512Y202705D01*
X190649Y202701D01*
X190739Y202692D01*
X190817Y202677D01*
X190889Y202657D01*
X190957Y202632D01*
X191024Y202601D01*
X191094Y202561D01*
X191169Y202510D01*
X191249Y202445D01*
X191388Y202316D01*
X191432Y202289D01*
X203974Y189747D01*
Y181009D01*
X203963Y180962D01*
X203954Y180763D01*
X203941Y180657D01*
X203918Y180554D01*
X203886Y180452D01*
X203843Y180347D01*
X203786Y180235D01*
X203713Y180115D01*
X203620Y179987D01*
X203505Y179850D01*
X203357Y179695D01*
X203327Y179673D01*
X202502Y178597D01*
X202250Y177989D01*
X201750D01*
X201498Y178597D01*
X200673Y179673D01*
X199597Y180498D01*
X198344Y181017D01*
X197000Y181194D01*
X195656Y181017D01*
X194403Y180498D01*
X193327Y179673D01*
X192502Y178597D01*
X191983Y177344D01*
X191806Y176000D01*
X191811Y175963D01*
X191806Y175749D01*
X191791Y175571D01*
X191766Y175414D01*
X191733Y175278D01*
X191694Y175159D01*
X191650Y175054D01*
X191601Y174959D01*
X191544Y174871D01*
X191478Y174786D01*
X191344Y174639D01*
X191318Y174598D01*
X189860Y173140D01*
X189380Y172513D01*
X189077Y171783D01*
X188974Y171000D01*
Y149168D01*
X188962Y149113D01*
X188957Y148933D01*
X188948Y148829D01*
X188935Y148748D01*
X188922Y148688D01*
X188910Y148649D01*
X188902Y148629D01*
X188902Y148628D01*
X188851Y148573D01*
X188815Y148515D01*
X188190Y147700D01*
X187750Y146639D01*
X187600Y145500D01*
X187750Y144361D01*
X188190Y143300D01*
X188815Y142485D01*
X188851Y142427D01*
X188902Y142372D01*
X188902Y142371D01*
X188910Y142351D01*
X188922Y142312D01*
X188935Y142253D01*
X188948Y142171D01*
X188957Y142068D01*
X188962Y141887D01*
X188974Y141832D01*
Y122000D01*
X189077Y121217D01*
X189380Y120487D01*
X189860Y119860D01*
X191877Y117844D01*
X191903Y117802D01*
X192037Y117656D01*
X192102Y117572D01*
X192158Y117486D01*
X192206Y117394D01*
X192249Y117294D01*
X192286Y117182D01*
X192317Y117053D01*
X192341Y116906D01*
X192356Y116739D01*
X192360Y116534D01*
X192356Y116500D01*
X192531Y115169D01*
X193045Y113928D01*
X193863Y112863D01*
X194928Y112045D01*
X196169Y111531D01*
X197500Y111356D01*
X197534Y111360D01*
X197739Y111356D01*
X197906Y111341D01*
X198053Y111317D01*
X198181Y111286D01*
X198294Y111249D01*
X198394Y111206D01*
X198486Y111158D01*
X198572Y111102D01*
X198656Y111037D01*
X198802Y110903D01*
X198844Y110877D01*
X205360Y104360D01*
X205360Y104360D01*
X205987Y103879D01*
X206717Y103577D01*
X207500Y103474D01*
X207500Y103474D01*
X238000D01*
X238783Y103577D01*
X239513Y103879D01*
X240140Y104360D01*
X246656Y110877D01*
X246698Y110903D01*
X246844Y111037D01*
X246928Y111102D01*
X247014Y111158D01*
X247106Y111206D01*
X247206Y111249D01*
X247319Y111286D01*
X247447Y111317D01*
X247593Y111341D01*
X247761Y111356D01*
X247966Y111360D01*
X248000Y111356D01*
X249331Y111531D01*
X250572Y112045D01*
X251637Y112863D01*
X252455Y113928D01*
X252669Y114445D01*
X253169D01*
X253414Y113852D01*
X254256Y112756D01*
X255352Y111914D01*
X256629Y111385D01*
X256985Y111338D01*
X257104Y111289D01*
X257725Y111163D01*
X257919Y111109D01*
X258114Y111041D01*
X258287Y110969D01*
X258440Y110894D01*
X258574Y110817D01*
X258692Y110737D01*
X258795Y110655D01*
X258945Y110517D01*
X258988Y110490D01*
X263118Y106360D01*
X263744Y105879D01*
X264474Y105577D01*
X265257Y105474D01*
X265257Y105474D01*
X292000D01*
X292783Y105577D01*
X293513Y105879D01*
X294140Y106360D01*
X297068Y109289D01*
X297112Y109316D01*
X297251Y109445D01*
X297331Y109510D01*
X297406Y109561D01*
X297476Y109601D01*
X297543Y109632D01*
X297611Y109657D01*
X297683Y109677D01*
X297761Y109692D01*
X297850Y109701D01*
X297988Y109705D01*
X298000Y109703D01*
X298019Y109706D01*
X298028Y109706D01*
X298038Y109708D01*
X299241Y109866D01*
X300398Y110346D01*
X301392Y111108D01*
X302154Y112101D01*
X302634Y113259D01*
X302797Y114500D01*
X302634Y115742D01*
X302154Y116899D01*
X301392Y117892D01*
X300398Y118654D01*
X299241Y119133D01*
X298000Y119297D01*
X296759Y119133D01*
X295602Y118654D01*
X294608Y117892D01*
X293846Y116899D01*
X293367Y115742D01*
X293208Y114538D01*
X293206Y114528D01*
X293206Y114519D01*
X293203Y114500D01*
X293205Y114488D01*
X293201Y114350D01*
X293192Y114261D01*
X293177Y114183D01*
X293157Y114111D01*
X293132Y114043D01*
X293101Y113976D01*
X293061Y113906D01*
X293010Y113831D01*
X292945Y113751D01*
X292816Y113612D01*
X292789Y113568D01*
X290747Y111526D01*
X273250D01*
Y121750D01*
X271040D01*
X271039Y121791D01*
X271026Y121847D01*
Y138747D01*
X273046Y140767D01*
X273094Y140797D01*
X273225Y140921D01*
X273304Y140988D01*
X273371Y141037D01*
X273422Y141069D01*
X273458Y141088D01*
X273478Y141097D01*
X273479Y141097D01*
X273554Y141100D01*
X273620Y141116D01*
X274639Y141250D01*
X275700Y141690D01*
X276611Y142389D01*
X277310Y143300D01*
X277750Y144361D01*
X277900Y145500D01*
X277750Y146639D01*
X277310Y147700D01*
X277060Y148026D01*
X277282Y148474D01*
X294589D01*
X294750Y148001D01*
X294608Y147892D01*
X293846Y146898D01*
X293367Y145741D01*
X293203Y144500D01*
X293367Y143259D01*
X293846Y142102D01*
X294584Y141139D01*
X294590Y141130D01*
X294596Y141123D01*
X294608Y141108D01*
X294618Y141100D01*
X294712Y141001D01*
X294769Y140931D01*
X294814Y140865D01*
X294851Y140801D01*
X294881Y140735D01*
X294906Y140665D01*
X294928Y140587D01*
X294944Y140499D01*
X294955Y140396D01*
X294962Y140207D01*
X294974Y140156D01*
Y139000D01*
X295077Y138217D01*
X295379Y137487D01*
X295860Y136860D01*
X317789Y114932D01*
X317816Y114888D01*
X317945Y114749D01*
X318010Y114669D01*
X318061Y114594D01*
X318101Y114524D01*
X318132Y114457D01*
X318157Y114389D01*
X318177Y114317D01*
X318192Y114239D01*
X318201Y114149D01*
X318205Y114012D01*
X318203Y114000D01*
X318206Y113981D01*
X318206Y113972D01*
X318208Y113962D01*
X318367Y112759D01*
X318846Y111601D01*
X319608Y110608D01*
X320602Y109846D01*
X321759Y109367D01*
X323000Y109203D01*
X324241Y109367D01*
X325398Y109846D01*
X326392Y110608D01*
X327154Y111601D01*
X327634Y112759D01*
X327797Y114000D01*
X327634Y115242D01*
X327154Y116399D01*
X326392Y117392D01*
X325398Y118154D01*
X324241Y118633D01*
X323038Y118792D01*
X323028Y118794D01*
X323019Y118794D01*
X323000Y118797D01*
X322988Y118795D01*
X322850Y118799D01*
X322761Y118808D01*
X322683Y118823D01*
X322611Y118843D01*
X322543Y118868D01*
X322476Y118899D01*
X322406Y118939D01*
X322331Y118990D01*
X322251Y119055D01*
X322112Y119184D01*
X322068Y119211D01*
X301039Y140240D01*
X301045Y140396D01*
X301056Y140499D01*
X301073Y140588D01*
X301094Y140665D01*
X301119Y140735D01*
X301149Y140801D01*
X301186Y140865D01*
X301231Y140931D01*
X301288Y141001D01*
X301382Y141100D01*
X301392Y141108D01*
X301404Y141123D01*
X301410Y141130D01*
X301415Y141139D01*
X302154Y142102D01*
X302634Y143259D01*
X302792Y144462D01*
X302794Y144472D01*
X302794Y144481D01*
X302797Y144500D01*
X302795Y144512D01*
X302799Y144650D01*
X302808Y144739D01*
X302823Y144817D01*
X302843Y144889D01*
X302868Y144957D01*
X302899Y145024D01*
X302939Y145094D01*
X302990Y145169D01*
X303055Y145249D01*
X303184Y145388D01*
X303211Y145432D01*
X307140Y149360D01*
X307140Y149360D01*
X307474Y149796D01*
X307974Y149627D01*
Y140000D01*
X308077Y139217D01*
X308380Y138487D01*
X308860Y137860D01*
X343710Y103011D01*
X343518Y102549D01*
X102549D01*
Y229255D01*
X103049Y229329D01*
X103128Y229068D01*
X103716Y227969D01*
X104506Y227006D01*
X105469Y226216D01*
X106568Y225628D01*
X107760Y225267D01*
X108500Y225194D01*
Y231500D01*
Y237806D01*
X107760Y237734D01*
X106568Y237372D01*
X105469Y236785D01*
X104506Y235994D01*
X103716Y235031D01*
X103128Y233932D01*
X103049Y233671D01*
X102549Y233745D01*
Y262451D01*
X472451D01*
Y102549D01*
D02*
G37*
G36*
X443785Y202064D02*
X413247Y171526D01*
X403253D01*
X402715Y172064D01*
X402936Y172513D01*
X403000Y172504D01*
X404293Y172675D01*
X405498Y173174D01*
X406532Y173968D01*
X406547Y173987D01*
X406676Y174110D01*
X406780Y174196D01*
X406878Y174265D01*
X406970Y174320D01*
X407059Y174363D01*
X407146Y174397D01*
X407236Y174423D01*
X407331Y174442D01*
X407435Y174455D01*
X407629Y174462D01*
X407678Y174474D01*
X413500D01*
X414283Y174577D01*
X415013Y174880D01*
X415640Y175360D01*
X442332Y202053D01*
X442375Y202079D01*
X442518Y202211D01*
X442600Y202276D01*
X442681Y202329D01*
X442762Y202374D01*
X442848Y202412D01*
X442941Y202444D01*
X443045Y202470D01*
X443163Y202491D01*
X443298Y202503D01*
X443475Y202508D01*
X443500Y202504D01*
X443564Y202513D01*
X443785Y202064D01*
D02*
G37*
G36*
X408380Y215487D02*
X408860Y214860D01*
X419474Y204247D01*
Y201524D01*
X418974Y201492D01*
X418884Y202175D01*
X418431Y203269D01*
X417709Y204209D01*
X416769Y204931D01*
X415675Y205384D01*
X414590Y205527D01*
X414543Y205538D01*
X414425Y205542D01*
X414399Y205545D01*
X414374Y205551D01*
X414345Y205559D01*
X414308Y205574D01*
X414262Y205597D01*
X414206Y205632D01*
X414137Y205681D01*
X414058Y205747D01*
X413924Y205873D01*
X413877Y205902D01*
X410140Y209640D01*
X409513Y210121D01*
X408783Y210423D01*
X408000Y210526D01*
X407678D01*
X407629Y210538D01*
X407435Y210545D01*
X407331Y210558D01*
X407236Y210577D01*
X407146Y210603D01*
X407059Y210637D01*
X406970Y210680D01*
X406878Y210735D01*
X406780Y210804D01*
X406676Y210890D01*
X406547Y211013D01*
X406532Y211032D01*
X405498Y211826D01*
X404524Y212229D01*
Y212771D01*
X405498Y213174D01*
X406532Y213968D01*
X407326Y215002D01*
X407683Y215863D01*
X408224D01*
X408380Y215487D01*
D02*
G37*
G36*
X412708Y204217D02*
X412892Y204065D01*
X413079Y203931D01*
X413269Y203815D01*
X413463Y203717D01*
X413659Y203637D01*
X413859Y203575D01*
X414061Y203532D01*
X414266Y203507D01*
X414475Y203500D01*
X412000Y201025D01*
X411993Y201234D01*
X411968Y201439D01*
X411925Y201642D01*
X411863Y201841D01*
X411783Y202037D01*
X411686Y202231D01*
X411569Y202421D01*
X411435Y202608D01*
X411283Y202793D01*
X411112Y202974D01*
X412526Y204388D01*
X412708Y204217D01*
D02*
G37*
G36*
X314608Y201562D02*
X314480Y201399D01*
X314368Y201225D01*
X314270Y201041D01*
X314188Y200846D01*
X314120Y200640D01*
X314068Y200423D01*
X314030Y200196D01*
X314007Y199958D01*
X314000Y199709D01*
X312000D01*
X311993Y199958D01*
X311970Y200196D01*
X311932Y200423D01*
X311880Y200640D01*
X311812Y200846D01*
X311730Y201041D01*
X311632Y201225D01*
X311520Y201399D01*
X311392Y201562D01*
X311250Y201715D01*
X314750D01*
X314608Y201562D01*
D02*
G37*
G36*
X290677Y193744D02*
X291058Y193417D01*
X291255Y193267D01*
X291664Y192993D01*
X291875Y192870D01*
X292310Y192651D01*
X292535Y192554D01*
X288967Y191086D01*
X289044Y191300D01*
X289093Y191512D01*
X289111Y191723D01*
X289101Y191933D01*
X289062Y192141D01*
X288993Y192348D01*
X288895Y192553D01*
X288768Y192757D01*
X288611Y192959D01*
X288425Y193160D01*
X290494Y193920D01*
X290677Y193744D01*
D02*
G37*
G36*
X326000Y193965D02*
X326145Y190773D01*
X322953Y192701D01*
X323152Y192756D01*
X323330Y192835D01*
X323487Y192940D01*
X323623Y193069D01*
X323738Y193223D01*
X323833Y193401D01*
X323906Y193605D01*
X323958Y193833D01*
X323990Y194086D01*
X324000Y194364D01*
X326000Y193965D01*
D02*
G37*
G36*
X398674Y205002D02*
X399468Y203968D01*
X400502Y203174D01*
X401707Y202675D01*
X403000Y202504D01*
X404293Y202675D01*
X405498Y203174D01*
X406532Y203968D01*
X406547Y203987D01*
X406676Y204110D01*
X406780Y204196D01*
X406878Y204265D01*
X406927Y204294D01*
X409598Y201623D01*
X409627Y201576D01*
X409753Y201442D01*
X409819Y201363D01*
X409868Y201294D01*
X409903Y201238D01*
X409926Y201192D01*
X409940Y201155D01*
X409949Y201126D01*
X409955Y201101D01*
X409958Y201075D01*
X409962Y200957D01*
X409973Y200910D01*
X410116Y199825D01*
X410569Y198731D01*
X411291Y197791D01*
X412231Y197069D01*
X413325Y196616D01*
X414500Y196461D01*
X415675Y196616D01*
X416769Y197069D01*
X417709Y197791D01*
X418431Y198731D01*
X418884Y199825D01*
X418974Y200508D01*
X419474Y200476D01*
Y198253D01*
X411747Y190526D01*
X407678D01*
X407629Y190538D01*
X407435Y190545D01*
X407331Y190558D01*
X407236Y190577D01*
X407146Y190603D01*
X407059Y190637D01*
X406970Y190680D01*
X406878Y190735D01*
X406780Y190804D01*
X406676Y190890D01*
X406547Y191013D01*
X406532Y191032D01*
X405498Y191826D01*
X404293Y192325D01*
X403000Y192496D01*
X401707Y192325D01*
X400502Y191826D01*
X399468Y191032D01*
X398674Y189998D01*
X398271Y189024D01*
X397729D01*
X397326Y189998D01*
X396532Y191032D01*
X395498Y191826D01*
X394524Y192229D01*
Y192771D01*
X395498Y193174D01*
X396532Y193968D01*
X397326Y195002D01*
X397825Y196207D01*
X397995Y197500D01*
X397825Y198793D01*
X397326Y199998D01*
X396532Y201032D01*
X395498Y201826D01*
X394524Y202229D01*
Y202771D01*
X395498Y203174D01*
X396532Y203968D01*
X397326Y205002D01*
X397729Y205976D01*
X398271D01*
X398674Y205002D01*
D02*
G37*
G36*
X350000Y193965D02*
X350129Y191133D01*
X350267Y191010D01*
X350454Y190874D01*
X350655Y190760D01*
X350870Y190666D01*
X351098Y190594D01*
X351340Y190542D01*
X351595Y190510D01*
X351864Y190500D01*
X351466Y188500D01*
X351206Y188493D01*
X350952Y188470D01*
X350702Y188432D01*
X350457Y188379D01*
X350217Y188311D01*
X349981Y188228D01*
X349750Y188130D01*
X349524Y188017D01*
X349302Y187889D01*
X349085Y187746D01*
X349694Y191045D01*
X346953Y192701D01*
X347152Y192756D01*
X347330Y192835D01*
X347487Y192940D01*
X347623Y193069D01*
X347738Y193223D01*
X347832Y193401D01*
X347906Y193605D01*
X347958Y193833D01*
X347990Y194086D01*
X348000Y194364D01*
X350000Y193965D01*
D02*
G37*
G36*
X368032Y187571D02*
X367845Y187747D01*
X367650Y187905D01*
X367447Y188045D01*
X367234Y188165D01*
X367013Y188268D01*
X366783Y188351D01*
X366545Y188416D01*
X366298Y188463D01*
X366043Y188491D01*
X365778Y188500D01*
Y190500D01*
X366043Y190509D01*
X366298Y190537D01*
X366545Y190584D01*
X366783Y190649D01*
X367013Y190732D01*
X367234Y190834D01*
X367447Y190955D01*
X367650Y191095D01*
X367845Y191253D01*
X368032Y191429D01*
Y187571D01*
D02*
G37*
G36*
X320707Y211462D02*
X320896Y211455D01*
X320999Y211444D01*
X321088Y211427D01*
X321165Y211406D01*
X321235Y211381D01*
X321301Y211351D01*
X321365Y211314D01*
X321431Y211269D01*
X321501Y211212D01*
X321600Y211118D01*
X321608Y211108D01*
X321618Y211100D01*
X321712Y211001D01*
X321769Y210931D01*
X321814Y210865D01*
X321851Y210801D01*
X321881Y210735D01*
X321906Y210665D01*
X321927Y210588D01*
X321944Y210499D01*
X321955Y210396D01*
X321962Y210207D01*
X321974Y210156D01*
Y194516D01*
X321101Y194154D01*
X320108Y193392D01*
X319346Y192399D01*
X318866Y191242D01*
X318703Y190000D01*
X318866Y188759D01*
X319346Y187601D01*
X318937Y187342D01*
X316026Y190253D01*
Y199594D01*
X316038Y199647D01*
X316044Y199831D01*
X316054Y199933D01*
X316067Y200016D01*
X316083Y200081D01*
X316099Y200130D01*
X316114Y200166D01*
X316128Y200193D01*
X316143Y200215D01*
X316159Y200235D01*
X316239Y200322D01*
X316265Y200362D01*
X316931Y201231D01*
X317384Y202325D01*
X317539Y203500D01*
X317384Y204675D01*
X316931Y205769D01*
X316209Y206709D01*
X315269Y207431D01*
X314175Y207884D01*
X313000Y208039D01*
X311877Y207891D01*
X311838Y207930D01*
X311764Y208485D01*
X314753Y211474D01*
X320656D01*
X320707Y211462D01*
D02*
G37*
G36*
X388371Y234462D02*
X388565Y234455D01*
X388669Y234442D01*
X388764Y234423D01*
X388854Y234397D01*
X388941Y234363D01*
X389030Y234320D01*
X389122Y234265D01*
X389220Y234196D01*
X389324Y234110D01*
X389453Y233987D01*
X389468Y233968D01*
X390502Y233174D01*
X391476Y232771D01*
Y232229D01*
X390502Y231826D01*
X389468Y231032D01*
X388674Y229998D01*
X388175Y228793D01*
X388004Y227500D01*
X388175Y226207D01*
X388674Y225002D01*
X389468Y223968D01*
X390502Y223174D01*
X391476Y222771D01*
Y222229D01*
X390502Y221826D01*
X389468Y221032D01*
X388674Y219998D01*
X388175Y218793D01*
X388004Y217500D01*
X388175Y216207D01*
X388674Y215002D01*
X389468Y213968D01*
X390502Y213174D01*
X391476Y212771D01*
Y212229D01*
X390502Y211826D01*
X389468Y211032D01*
X388674Y209998D01*
X388175Y208793D01*
X388004Y207500D01*
X388175Y206207D01*
X388674Y205002D01*
X389468Y203968D01*
X390502Y203174D01*
X391476Y202771D01*
Y202229D01*
X390502Y201826D01*
X389468Y201032D01*
X388674Y199998D01*
X388175Y198793D01*
X388004Y197500D01*
X388175Y196207D01*
X388674Y195002D01*
X389468Y193968D01*
X390502Y193174D01*
X391476Y192771D01*
Y192229D01*
X390502Y191826D01*
X389468Y191032D01*
X388674Y189998D01*
X388175Y188793D01*
X388004Y187500D01*
X388082Y186911D01*
X387685Y186606D01*
X387539Y186667D01*
X386756Y186770D01*
X374476D01*
X374224Y187270D01*
X374634Y188259D01*
X374797Y189500D01*
X374634Y190742D01*
X374154Y191899D01*
X373392Y192892D01*
X372398Y193654D01*
X371241Y194133D01*
X370000Y194297D01*
X368759Y194133D01*
X367601Y193654D01*
X366639Y192915D01*
X366630Y192910D01*
X366623Y192904D01*
X366608Y192892D01*
X366600Y192882D01*
X366501Y192788D01*
X366431Y192731D01*
X366365Y192686D01*
X366301Y192649D01*
X366235Y192619D01*
X366165Y192594D01*
X366088Y192572D01*
X365999Y192556D01*
X365896Y192545D01*
X365707Y192538D01*
X365656Y192526D01*
X352107D01*
X352037Y194058D01*
X352026Y194104D01*
Y210156D01*
X352038Y210207D01*
X352045Y210396D01*
X352056Y210499D01*
X352073Y210588D01*
X352094Y210665D01*
X352119Y210735D01*
X352149Y210801D01*
X352186Y210865D01*
X352231Y210931D01*
X352288Y211001D01*
X352382Y211100D01*
X352392Y211108D01*
X352404Y211123D01*
X352410Y211130D01*
X352415Y211139D01*
X353154Y212102D01*
X353633Y213259D01*
X353797Y214500D01*
X353633Y215741D01*
X353154Y216898D01*
X352392Y217892D01*
X351398Y218654D01*
X350241Y219133D01*
X349000Y219297D01*
X347759Y219133D01*
X346602Y218654D01*
X345608Y217892D01*
X344846Y216898D01*
X344367Y215741D01*
X344203Y214500D01*
X344367Y213259D01*
X344846Y212102D01*
X345585Y211139D01*
X345590Y211130D01*
X345596Y211123D01*
X345608Y211108D01*
X345618Y211100D01*
X345712Y211001D01*
X345769Y210931D01*
X345814Y210865D01*
X345851Y210801D01*
X345881Y210735D01*
X345906Y210665D01*
X345928Y210588D01*
X345944Y210499D01*
X345955Y210396D01*
X345962Y210207D01*
X345974Y210156D01*
Y194516D01*
X345101Y194154D01*
X344108Y193392D01*
X343346Y192399D01*
X342866Y191242D01*
X342703Y190000D01*
X342866Y188759D01*
X343346Y187601D01*
X343640Y187218D01*
X343419Y186770D01*
X327581D01*
X327360Y187218D01*
X327654Y187601D01*
X328134Y188759D01*
X328297Y190000D01*
X328182Y190873D01*
X328037Y194058D01*
X328026Y194104D01*
Y210156D01*
X328038Y210207D01*
X328045Y210396D01*
X328056Y210499D01*
X328073Y210588D01*
X328094Y210665D01*
X328119Y210735D01*
X328149Y210801D01*
X328186Y210865D01*
X328231Y210931D01*
X328288Y211001D01*
X328382Y211100D01*
X328392Y211108D01*
X328404Y211123D01*
X328410Y211130D01*
X328415Y211139D01*
X329154Y212102D01*
X329633Y213259D01*
X329797Y214500D01*
X329633Y215741D01*
X329154Y216898D01*
X328392Y217892D01*
X327398Y218654D01*
X326241Y219133D01*
X325000Y219297D01*
X323759Y219133D01*
X322602Y218654D01*
X321639Y217916D01*
X321630Y217910D01*
X321623Y217904D01*
X321608Y217892D01*
X321600Y217882D01*
X321501Y217788D01*
X321431Y217731D01*
X321365Y217686D01*
X321301Y217649D01*
X321235Y217619D01*
X321165Y217594D01*
X321088Y217572D01*
X320999Y217556D01*
X320896Y217545D01*
X320707Y217538D01*
X320656Y217526D01*
X314012D01*
X313805Y218026D01*
X318253Y222474D01*
X346000D01*
X346783Y222577D01*
X347513Y222880D01*
X348140Y223360D01*
X359253Y234474D01*
X388322D01*
X388371Y234462D01*
D02*
G37*
G36*
X292535Y187446D02*
X292310Y187349D01*
X291875Y187130D01*
X291664Y187006D01*
X291255Y186733D01*
X291058Y186583D01*
X290677Y186257D01*
X290494Y186080D01*
X288425Y186840D01*
X288611Y187041D01*
X288768Y187243D01*
X288895Y187447D01*
X288993Y187652D01*
X289062Y187859D01*
X289101Y188067D01*
X289111Y188277D01*
X289093Y188488D01*
X289044Y188700D01*
X288967Y188914D01*
X292535Y187446D01*
D02*
G37*
G36*
X405321Y189364D02*
X405541Y189183D01*
X405768Y189023D01*
X406001Y188884D01*
X406242Y188767D01*
X406490Y188671D01*
X406744Y188596D01*
X407006Y188543D01*
X407274Y188511D01*
X407550Y188500D01*
Y186500D01*
X407274Y186489D01*
X407006Y186457D01*
X406744Y186404D01*
X406490Y186329D01*
X406242Y186233D01*
X406001Y186116D01*
X405768Y185977D01*
X405541Y185817D01*
X405321Y185636D01*
X405109Y185433D01*
Y189567D01*
X405321Y189364D01*
D02*
G37*
G36*
X218010Y180755D02*
X218040Y180413D01*
X218090Y180112D01*
X218160Y179850D01*
X218250Y179629D01*
X218360Y179447D01*
X218490Y179307D01*
X218640Y179206D01*
X218810Y179146D01*
X219000Y179126D01*
X215000D01*
X215190Y179146D01*
X215360Y179206D01*
X215510Y179307D01*
X215640Y179447D01*
X215750Y179629D01*
X215840Y179850D01*
X215910Y180112D01*
X215960Y180413D01*
X215990Y180755D01*
X216000Y181138D01*
X218000D01*
X218010Y180755D01*
D02*
G37*
G36*
X259512Y180590D02*
X259548Y180308D01*
X259608Y180033D01*
X259693Y179762D01*
X259801Y179497D01*
X259934Y179236D01*
X260090Y178982D01*
X260271Y178732D01*
X260476Y178488D01*
X260705Y178249D01*
X256295D01*
X256524Y178488D01*
X256729Y178732D01*
X256910Y178982D01*
X257066Y179236D01*
X257199Y179497D01*
X257307Y179762D01*
X257392Y180033D01*
X257452Y180308D01*
X257488Y180590D01*
X257500Y180876D01*
X259500D01*
X259512Y180590D01*
D02*
G37*
G36*
X208012D02*
X208048Y180308D01*
X208108Y180033D01*
X208193Y179762D01*
X208301Y179497D01*
X208434Y179236D01*
X208590Y178982D01*
X208771Y178732D01*
X208976Y178488D01*
X209205Y178249D01*
X204795D01*
X205024Y178488D01*
X205229Y178732D01*
X205410Y178982D01*
X205566Y179236D01*
X205699Y179497D01*
X205807Y179762D01*
X205892Y180033D01*
X205952Y180308D01*
X205988Y180590D01*
X206000Y180876D01*
X208000D01*
X208012Y180590D01*
D02*
G37*
G36*
X390692Y181237D02*
X390905Y181070D01*
X391127Y180922D01*
X391360Y180795D01*
X391603Y180688D01*
X391857Y180601D01*
X392120Y180534D01*
X392393Y180487D01*
X392677Y180460D01*
X392970Y180453D01*
X390047Y177530D01*
X390040Y177823D01*
X390013Y178107D01*
X389966Y178380D01*
X389899Y178644D01*
X389812Y178897D01*
X389705Y179140D01*
X389578Y179373D01*
X389430Y179595D01*
X389263Y179808D01*
X389076Y180010D01*
X390490Y181424D01*
X390692Y181237D01*
D02*
G37*
G36*
X405321Y179364D02*
X405541Y179183D01*
X405768Y179023D01*
X406001Y178884D01*
X406242Y178767D01*
X406490Y178671D01*
X406744Y178596D01*
X407006Y178543D01*
X407274Y178511D01*
X407550Y178500D01*
Y176500D01*
X407274Y176489D01*
X407006Y176457D01*
X406744Y176404D01*
X406490Y176329D01*
X406242Y176233D01*
X406001Y176116D01*
X405768Y175977D01*
X405541Y175817D01*
X405321Y175636D01*
X405109Y175433D01*
Y179567D01*
X405321Y179364D01*
D02*
G37*
G36*
X271646Y177810D02*
X271706Y177640D01*
X271807Y177490D01*
X271948Y177360D01*
X272129Y177250D01*
X272350Y177160D01*
X272611Y177090D01*
X272913Y177040D01*
X273255Y177010D01*
X273638Y177000D01*
Y175000D01*
X273255Y174990D01*
X272913Y174960D01*
X272611Y174910D01*
X272350Y174840D01*
X272129Y174750D01*
X271948Y174640D01*
X271807Y174510D01*
X271706Y174360D01*
X271646Y174190D01*
X271626Y174000D01*
Y178000D01*
X271646Y177810D01*
D02*
G37*
G36*
X336107Y175562D02*
X335980Y175399D01*
X335868Y175225D01*
X335770Y175041D01*
X335687Y174846D01*
X335620Y174640D01*
X335567Y174423D01*
X335530Y174196D01*
X335507Y173958D01*
X335500Y173709D01*
X333500D01*
X333492Y173958D01*
X333470Y174196D01*
X333433Y174423D01*
X333380Y174640D01*
X333313Y174846D01*
X333230Y175041D01*
X333133Y175225D01*
X333020Y175399D01*
X332892Y175562D01*
X332750Y175715D01*
X336250D01*
X336107Y175562D01*
D02*
G37*
G36*
X395960Y177177D02*
X395987Y176893D01*
X396034Y176620D01*
X396101Y176356D01*
X396188Y176103D01*
X396295Y175860D01*
X396423Y175628D01*
X396570Y175405D01*
X396737Y175192D01*
X396924Y174990D01*
X395510Y173576D01*
X395308Y173763D01*
X395095Y173930D01*
X394872Y174077D01*
X394640Y174205D01*
X394397Y174312D01*
X394144Y174399D01*
X393880Y174466D01*
X393607Y174513D01*
X393323Y174540D01*
X393029Y174547D01*
X395953Y177471D01*
X395960Y177177D01*
D02*
G37*
G36*
X248468Y172851D02*
X248138Y172844D01*
X247820Y172816D01*
X247516Y172767D01*
X247225Y172698D01*
X246948Y172608D01*
X246683Y172497D01*
X246432Y172365D01*
X246195Y172212D01*
X245970Y172039D01*
X245759Y171845D01*
X244345Y173259D01*
X244539Y173470D01*
X244712Y173695D01*
X244865Y173932D01*
X244997Y174183D01*
X245108Y174448D01*
X245198Y174725D01*
X245267Y175016D01*
X245316Y175320D01*
X245343Y175638D01*
X245351Y175969D01*
X248468Y172851D01*
D02*
G37*
G36*
X196968D02*
X196638Y172844D01*
X196320Y172816D01*
X196016Y172767D01*
X195725Y172698D01*
X195448Y172608D01*
X195183Y172497D01*
X194932Y172365D01*
X194695Y172212D01*
X194470Y172039D01*
X194259Y171845D01*
X192845Y173259D01*
X193039Y173470D01*
X193212Y173695D01*
X193365Y173932D01*
X193497Y174183D01*
X193607Y174448D01*
X193698Y174725D01*
X193767Y175016D01*
X193816Y175320D01*
X193843Y175638D01*
X193851Y175969D01*
X196968Y172851D01*
D02*
G37*
G36*
X220024Y175535D02*
X219968Y175351D01*
Y175139D01*
X220024Y174899D01*
X220138Y174630D01*
X220307Y174333D01*
X220534Y174008D01*
X220816Y173654D01*
X221552Y172862D01*
X220138Y171448D01*
X219727Y171844D01*
X218992Y172466D01*
X218667Y172693D01*
X218370Y172862D01*
X218101Y172976D01*
X217861Y173032D01*
X217649D01*
X217465Y172976D01*
X217309Y172862D01*
X220138Y175691D01*
X220024Y175535D01*
D02*
G37*
G36*
X202502Y173403D02*
X203327Y172327D01*
X204403Y171502D01*
X205656Y170983D01*
X207000Y170806D01*
X208344Y170983D01*
X209597Y171502D01*
X210673Y172327D01*
X211350Y173210D01*
X211850Y173041D01*
Y170850D01*
X216985D01*
X216991Y170848D01*
X217047Y170850D01*
X217173D01*
X217309Y170823D01*
X217446Y170850D01*
X217744D01*
X217748Y170847D01*
X218359Y170331D01*
X218721Y169981D01*
X218773Y169948D01*
X218974Y169747D01*
Y149168D01*
X218962Y149113D01*
X218957Y148933D01*
X218948Y148829D01*
X218935Y148748D01*
X218922Y148688D01*
X218910Y148649D01*
X218902Y148629D01*
X218902Y148628D01*
X218851Y148573D01*
X218815Y148515D01*
X218190Y147700D01*
X217750Y146639D01*
X217616Y145620D01*
X217600Y145554D01*
X217597Y145478D01*
X217597Y145478D01*
X217588Y145458D01*
X217569Y145422D01*
X217537Y145371D01*
X217488Y145304D01*
X217421Y145225D01*
X217297Y145094D01*
X217267Y145046D01*
X215360Y143140D01*
X214879Y142513D01*
X214577Y141783D01*
X214474Y141000D01*
Y121847D01*
X214461Y121791D01*
X214460Y121750D01*
X212250D01*
Y119755D01*
X211750Y119585D01*
X211244Y120244D01*
X210148Y121086D01*
X208871Y121615D01*
X207500Y121795D01*
X206130Y121615D01*
X204852Y121086D01*
X203756Y120244D01*
X202914Y119148D01*
X202669Y118555D01*
X202169D01*
X201955Y119072D01*
X201137Y120137D01*
X200072Y120955D01*
X198831Y121469D01*
X197500Y121644D01*
X197466Y121640D01*
X197261Y121644D01*
X197093Y121659D01*
X196947Y121683D01*
X196818Y121714D01*
X196706Y121751D01*
X196606Y121794D01*
X196514Y121842D01*
X196428Y121898D01*
X196344Y121963D01*
X196198Y122097D01*
X196156Y122123D01*
X195026Y123253D01*
Y141832D01*
X195038Y141887D01*
X195043Y142068D01*
X195052Y142171D01*
X195064Y142253D01*
X195078Y142312D01*
X195090Y142351D01*
X195098Y142371D01*
X195098Y142372D01*
X195149Y142427D01*
X195185Y142485D01*
X195810Y143300D01*
X196250Y144361D01*
X196400Y145500D01*
X196250Y146639D01*
X195810Y147700D01*
X195185Y148515D01*
X195149Y148573D01*
X195098Y148628D01*
X195098Y148629D01*
X195090Y148649D01*
X195078Y148688D01*
X195064Y148748D01*
X195052Y148829D01*
X195043Y148933D01*
X195038Y149113D01*
X195026Y149168D01*
Y169747D01*
X195598Y170318D01*
X195639Y170344D01*
X195786Y170478D01*
X195871Y170544D01*
X195959Y170600D01*
X196054Y170650D01*
X196159Y170694D01*
X196278Y170733D01*
X196414Y170766D01*
X196571Y170791D01*
X196748Y170806D01*
X196963Y170811D01*
X197000Y170806D01*
X198344Y170983D01*
X199597Y171502D01*
X200673Y172327D01*
X201498Y173403D01*
X201750Y174011D01*
X202250D01*
X202502Y173403D01*
D02*
G37*
G36*
X432938Y169107D02*
X433101Y168980D01*
X433275Y168868D01*
X433459Y168770D01*
X433654Y168687D01*
X433860Y168620D01*
X434077Y168568D01*
X434304Y168530D01*
X434543Y168508D01*
X434791Y168500D01*
Y166500D01*
X434543Y166492D01*
X434304Y166470D01*
X434077Y166432D01*
X433860Y166380D01*
X433654Y166313D01*
X433459Y166230D01*
X433275Y166132D01*
X433101Y166020D01*
X432938Y165893D01*
X432785Y165750D01*
Y169250D01*
X432938Y169107D01*
D02*
G37*
G36*
X449793Y159784D02*
X450005Y159616D01*
X450227Y159467D01*
X450460Y159337D01*
X450703Y159225D01*
X450956Y159133D01*
X451221Y159060D01*
X451495Y159005D01*
X451780Y158969D01*
X452075Y158952D01*
X449050Y156134D01*
X449053Y156426D01*
X449035Y156708D01*
X448995Y156979D01*
X448935Y157242D01*
X448853Y157494D01*
X448749Y157737D01*
X448625Y157969D01*
X448479Y158193D01*
X448313Y158406D01*
X448125Y158609D01*
X449592Y159970D01*
X449793Y159784D01*
D02*
G37*
G36*
X312608Y156562D02*
X312480Y156399D01*
X312368Y156225D01*
X312270Y156041D01*
X312188Y155846D01*
X312120Y155640D01*
X312068Y155423D01*
X312030Y155196D01*
X312007Y154957D01*
X312000Y154709D01*
X310000D01*
X309993Y154957D01*
X309970Y155196D01*
X309932Y155423D01*
X309880Y155640D01*
X309812Y155846D01*
X309730Y156041D01*
X309632Y156225D01*
X309520Y156399D01*
X309392Y156562D01*
X309250Y156715D01*
X312750D01*
X312608Y156562D01*
D02*
G37*
G36*
X439071Y154000D02*
X439051Y154190D01*
X438991Y154360D01*
X438890Y154510D01*
X438749Y154640D01*
X438568Y154750D01*
X438347Y154840D01*
X438085Y154910D01*
X437784Y154960D01*
X437441Y154990D01*
X437059Y155000D01*
Y157000D01*
X437441Y157010D01*
X437784Y157040D01*
X438085Y157090D01*
X438347Y157160D01*
X438568Y157250D01*
X438749Y157360D01*
X438890Y157490D01*
X438991Y157640D01*
X439051Y157810D01*
X439071Y158000D01*
Y154000D01*
D02*
G37*
G36*
X256007Y156266D02*
X256032Y156061D01*
X256075Y155859D01*
X256137Y155659D01*
X256217Y155463D01*
X256314Y155269D01*
X256431Y155079D01*
X256565Y154892D01*
X256717Y154708D01*
X256888Y154526D01*
X255474Y153112D01*
X255293Y153283D01*
X255108Y153435D01*
X254921Y153569D01*
X254731Y153685D01*
X254537Y153783D01*
X254341Y153863D01*
X254141Y153925D01*
X253939Y153968D01*
X253733Y153993D01*
X253525Y154000D01*
X256000Y156475D01*
X256007Y156266D01*
D02*
G37*
G36*
X437006Y152962D02*
X437047Y152960D01*
Y151047D01*
X439936D01*
X440036Y150547D01*
X439502Y150326D01*
X438468Y149532D01*
X438453Y149513D01*
X438324Y149390D01*
X438220Y149304D01*
X438122Y149235D01*
X438030Y149180D01*
X437941Y149137D01*
X437854Y149103D01*
X437764Y149077D01*
X437669Y149058D01*
X437565Y149045D01*
X437371Y149038D01*
X437322Y149026D01*
X435140D01*
X435096Y149037D01*
X434688Y149056D01*
X434590Y149068D01*
X434481Y149088D01*
X434384Y149111D01*
X434299Y149137D01*
X434223Y149166D01*
X434157Y149196D01*
X434096Y149228D01*
X433982Y149300D01*
X433899Y149331D01*
X433769Y149431D01*
X432675Y149884D01*
X431500Y150039D01*
X430325Y149884D01*
X429231Y149431D01*
X428894Y149172D01*
X428352Y149387D01*
X428326Y149546D01*
X431753Y152974D01*
X436950D01*
X437006Y152962D01*
D02*
G37*
G36*
X244507Y148817D02*
X244526Y148589D01*
X244559Y148372D01*
X244605Y148168D01*
X244663Y147975D01*
X244735Y147794D01*
X244820Y147624D01*
X244918Y147467D01*
X245029Y147321D01*
X245153Y147187D01*
X241846D01*
X241971Y147321D01*
X242082Y147467D01*
X242180Y147624D01*
X242265Y147794D01*
X242337Y147975D01*
X242395Y148168D01*
X242441Y148372D01*
X242474Y148589D01*
X242494Y148817D01*
X242500Y149057D01*
X244500D01*
X244507Y148817D01*
D02*
G37*
G36*
X223007D02*
X223026Y148589D01*
X223059Y148372D01*
X223105Y148168D01*
X223163Y147975D01*
X223235Y147794D01*
X223320Y147624D01*
X223418Y147467D01*
X223529Y147321D01*
X223654Y147187D01*
X220346D01*
X220471Y147321D01*
X220582Y147467D01*
X220680Y147624D01*
X220765Y147794D01*
X220837Y147975D01*
X220895Y148168D01*
X220941Y148372D01*
X220974Y148589D01*
X220993Y148817D01*
X221000Y149057D01*
X223000D01*
X223007Y148817D01*
D02*
G37*
G36*
X193007D02*
X193026Y148589D01*
X193059Y148372D01*
X193105Y148168D01*
X193163Y147975D01*
X193235Y147794D01*
X193320Y147624D01*
X193418Y147467D01*
X193529Y147321D01*
X193654Y147187D01*
X190347D01*
X190471Y147321D01*
X190582Y147467D01*
X190680Y147624D01*
X190765Y147794D01*
X190837Y147975D01*
X190895Y148168D01*
X190941Y148372D01*
X190974Y148589D01*
X190993Y148817D01*
X191000Y149057D01*
X193000D01*
X193007Y148817D01*
D02*
G37*
G36*
X345915Y148012D02*
X346116Y147851D01*
X346323Y147709D01*
X346538Y147587D01*
X346759Y147483D01*
X346988Y147399D01*
X347223Y147335D01*
X347466Y147289D01*
X347716Y147263D01*
X347972Y147256D01*
X345244Y144528D01*
X345237Y144784D01*
X345211Y145034D01*
X345165Y145276D01*
X345101Y145512D01*
X345017Y145741D01*
X344913Y145962D01*
X344791Y146177D01*
X344649Y146384D01*
X344488Y146585D01*
X344308Y146778D01*
X345722Y148192D01*
X345915Y148012D01*
D02*
G37*
G36*
X301692Y146778D02*
X301512Y146585D01*
X301351Y146384D01*
X301209Y146177D01*
X301087Y145962D01*
X300983Y145741D01*
X300899Y145512D01*
X300835Y145276D01*
X300789Y145034D01*
X300763Y144784D01*
X300756Y144528D01*
X298028Y147256D01*
X298284Y147263D01*
X298534Y147289D01*
X298777Y147335D01*
X299012Y147399D01*
X299241Y147483D01*
X299462Y147587D01*
X299677Y147709D01*
X299884Y147851D01*
X300085Y148012D01*
X300278Y148192D01*
X301692Y146778D01*
D02*
G37*
G36*
X433073Y147463D02*
X433254Y147366D01*
X433444Y147280D01*
X433642Y147206D01*
X433848Y147143D01*
X434062Y147091D01*
X434284Y147051D01*
X434515Y147023D01*
X435000Y147000D01*
X435450Y145000D01*
X435198Y144991D01*
X434961Y144966D01*
X434739Y144923D01*
X434532Y144863D01*
X434339Y144786D01*
X434162Y144691D01*
X433999Y144580D01*
X433851Y144451D01*
X433718Y144305D01*
X433599Y144142D01*
X432899Y147572D01*
X433073Y147463D01*
D02*
G37*
G36*
X439891Y143933D02*
X439679Y144136D01*
X439459Y144317D01*
X439232Y144477D01*
X438999Y144616D01*
X438758Y144733D01*
X438511Y144829D01*
X438256Y144904D01*
X437994Y144957D01*
X437726Y144989D01*
X437450Y145000D01*
Y147000D01*
X437726Y147011D01*
X437994Y147043D01*
X438256Y147096D01*
X438511Y147171D01*
X438758Y147267D01*
X438999Y147384D01*
X439232Y147523D01*
X439459Y147683D01*
X439679Y147864D01*
X439891Y148067D01*
Y143933D01*
D02*
G37*
G36*
X273476Y143138D02*
X273294Y143131D01*
X273112Y143106D01*
X272931Y143064D01*
X272752Y143005D01*
X272573Y142927D01*
X272395Y142833D01*
X272217Y142720D01*
X272041Y142590D01*
X271866Y142443D01*
X271692Y142277D01*
X270277Y143692D01*
X270443Y143866D01*
X270590Y144041D01*
X270720Y144218D01*
X270832Y144395D01*
X270927Y144573D01*
X271005Y144752D01*
X271064Y144931D01*
X271106Y145112D01*
X271131Y145294D01*
X271138Y145476D01*
X273476Y143138D01*
D02*
G37*
G36*
X245869Y145294D02*
X245894Y145112D01*
X245936Y144931D01*
X245995Y144752D01*
X246073Y144573D01*
X246167Y144395D01*
X246280Y144218D01*
X246410Y144041D01*
X246557Y143866D01*
X246723Y143692D01*
X245308Y142277D01*
X245134Y142443D01*
X244959Y142590D01*
X244782Y142720D01*
X244605Y142833D01*
X244427Y142927D01*
X244248Y143005D01*
X244069Y143064D01*
X243888Y143106D01*
X243706Y143131D01*
X243524Y143138D01*
X245862Y145476D01*
X245869Y145294D01*
D02*
G37*
G36*
X221976Y143138D02*
X221794Y143131D01*
X221612Y143106D01*
X221431Y143064D01*
X221252Y143005D01*
X221073Y142927D01*
X220895Y142833D01*
X220718Y142720D01*
X220541Y142590D01*
X220366Y142443D01*
X220192Y142277D01*
X218777Y143692D01*
X218943Y143866D01*
X219090Y144041D01*
X219220Y144218D01*
X219333Y144395D01*
X219427Y144573D01*
X219505Y144752D01*
X219564Y144931D01*
X219606Y145112D01*
X219631Y145294D01*
X219638Y145476D01*
X221976Y143138D01*
D02*
G37*
G36*
X454960Y145677D02*
X454987Y145393D01*
X455034Y145120D01*
X455101Y144857D01*
X455188Y144603D01*
X455295Y144360D01*
X455422Y144128D01*
X455570Y143905D01*
X455737Y143692D01*
X455924Y143490D01*
X454510Y142076D01*
X454308Y142263D01*
X454095Y142430D01*
X453872Y142578D01*
X453640Y142705D01*
X453397Y142812D01*
X453144Y142899D01*
X452880Y142966D01*
X452607Y143013D01*
X452323Y143040D01*
X452030Y143047D01*
X454953Y145970D01*
X454960Y145677D01*
D02*
G37*
G36*
X193529Y143679D02*
X193418Y143533D01*
X193320Y143376D01*
X193235Y143206D01*
X193163Y143025D01*
X193105Y142832D01*
X193059Y142628D01*
X193026Y142411D01*
X193007Y142183D01*
X193000Y141943D01*
X191000D01*
X190993Y142183D01*
X190974Y142411D01*
X190941Y142628D01*
X190895Y142832D01*
X190837Y143025D01*
X190765Y143206D01*
X190680Y143376D01*
X190582Y143533D01*
X190471Y143679D01*
X190347Y143813D01*
X193654D01*
X193529Y143679D01*
D02*
G37*
G36*
X350651Y145310D02*
X350870Y144875D01*
X350993Y144664D01*
X351267Y144255D01*
X351417Y144058D01*
X351744Y143677D01*
X351920Y143494D01*
X351160Y141425D01*
X350959Y141611D01*
X350757Y141768D01*
X350553Y141895D01*
X350348Y141993D01*
X350141Y142062D01*
X349933Y142101D01*
X349723Y142112D01*
X349512Y142093D01*
X349300Y142044D01*
X349086Y141967D01*
X350554Y145535D01*
X350651Y145310D01*
D02*
G37*
G36*
X437371Y142962D02*
X437565Y142955D01*
X437669Y142942D01*
X437764Y142923D01*
X437854Y142897D01*
X437941Y142863D01*
X438030Y142820D01*
X438122Y142765D01*
X438220Y142696D01*
X438324Y142610D01*
X438453Y142487D01*
X438468Y142468D01*
X439502Y141674D01*
X440476Y141271D01*
Y140729D01*
X439502Y140326D01*
X438468Y139532D01*
X438453Y139513D01*
X438324Y139390D01*
X438220Y139304D01*
X438122Y139235D01*
X438030Y139180D01*
X437941Y139137D01*
X437854Y139103D01*
X437764Y139077D01*
X437669Y139058D01*
X437565Y139045D01*
X437371Y139038D01*
X437322Y139026D01*
X432253D01*
X430720Y140560D01*
X430953Y141033D01*
X431500Y140961D01*
X432675Y141116D01*
X433769Y141569D01*
X434709Y142291D01*
X435117Y142822D01*
X435249Y142944D01*
X435250Y142945D01*
X435265Y142947D01*
X435343Y142956D01*
X435519Y142962D01*
X435571Y142974D01*
X437322D01*
X437371Y142962D01*
D02*
G37*
G36*
X299753Y142345D02*
X299595Y142150D01*
X299455Y141947D01*
X299335Y141734D01*
X299232Y141513D01*
X299149Y141284D01*
X299084Y141045D01*
X299037Y140798D01*
X299009Y140543D01*
X299000Y140278D01*
X297000D01*
X296991Y140543D01*
X296963Y140798D01*
X296916Y141045D01*
X296851Y141284D01*
X296768Y141513D01*
X296666Y141734D01*
X296545Y141947D01*
X296405Y142150D01*
X296247Y142345D01*
X296071Y142532D01*
X299929D01*
X299753Y142345D01*
D02*
G37*
G36*
X463891Y134933D02*
X463679Y135136D01*
X463459Y135317D01*
X463232Y135477D01*
X462999Y135616D01*
X462758Y135733D01*
X462510Y135829D01*
X462256Y135904D01*
X461994Y135957D01*
X461726Y135989D01*
X461450Y136000D01*
Y138000D01*
X461726Y138011D01*
X461994Y138043D01*
X462256Y138096D01*
X462510Y138171D01*
X462758Y138267D01*
X462999Y138384D01*
X463232Y138523D01*
X463459Y138683D01*
X463679Y138864D01*
X463891Y139067D01*
Y134933D01*
D02*
G37*
G36*
X467864Y134679D02*
X467683Y134459D01*
X467523Y134232D01*
X467384Y133999D01*
X467267Y133758D01*
X467171Y133510D01*
X467096Y133256D01*
X467043Y132994D01*
X467011Y132726D01*
X467000Y132450D01*
X465000D01*
X464989Y132726D01*
X464957Y132994D01*
X464904Y133256D01*
X464829Y133510D01*
X464733Y133758D01*
X464616Y133999D01*
X464477Y134232D01*
X464317Y134459D01*
X464136Y134679D01*
X463933Y134891D01*
X468067D01*
X467864Y134679D01*
D02*
G37*
G36*
X439891Y135126D02*
X441970Y133047D01*
X441677Y133040D01*
X441393Y133013D01*
X441120Y132966D01*
X440857Y132899D01*
X440603Y132812D01*
X440360Y132705D01*
X440128Y132578D01*
X439905Y132430D01*
X439692Y132263D01*
X439490Y132076D01*
X438076Y133490D01*
X438263Y133692D01*
X438430Y133905D01*
X438578Y134127D01*
X438705Y134360D01*
X438812Y134603D01*
X438842Y134692D01*
X438758Y134733D01*
X438511Y134829D01*
X438256Y134904D01*
X437994Y134957D01*
X437726Y134989D01*
X437450Y135000D01*
Y137000D01*
X437726Y137011D01*
X437994Y137043D01*
X438256Y137096D01*
X438511Y137171D01*
X438758Y137267D01*
X438999Y137384D01*
X439232Y137523D01*
X439459Y137683D01*
X439679Y137864D01*
X439891Y138067D01*
Y135126D01*
D02*
G37*
G36*
X441264Y123140D02*
X440996Y123197D01*
X440734Y123225D01*
X440478Y123226D01*
X440230Y123200D01*
X439988Y123146D01*
X439752Y123064D01*
X439523Y122955D01*
X439301Y122819D01*
X439086Y122654D01*
X438877Y122462D01*
X437837Y124251D01*
X438018Y124444D01*
X438188Y124648D01*
X438347Y124863D01*
X438493Y125089D01*
X438628Y125327D01*
X438751Y125575D01*
X438863Y125834D01*
X438962Y126105D01*
X439126Y126678D01*
X441264Y123140D01*
D02*
G37*
G36*
X269010Y121356D02*
X269040Y121014D01*
X269090Y120712D01*
X269160Y120450D01*
X269250Y120229D01*
X269360Y120048D01*
X269490Y119907D01*
X269640Y119807D01*
X269810Y119746D01*
X270000Y119726D01*
X266000D01*
X266190Y119746D01*
X266360Y119807D01*
X266510Y119907D01*
X266640Y120048D01*
X266750Y120229D01*
X266840Y120450D01*
X266910Y120712D01*
X266960Y121014D01*
X266990Y121356D01*
X267000Y121738D01*
X269000D01*
X269010Y121356D01*
D02*
G37*
G36*
X218510D02*
X218540Y121014D01*
X218590Y120712D01*
X218660Y120450D01*
X218750Y120229D01*
X218860Y120048D01*
X218990Y119907D01*
X219140Y119807D01*
X219310Y119746D01*
X219500Y119726D01*
X215500D01*
X215690Y119746D01*
X215860Y119807D01*
X216010Y119907D01*
X216140Y120048D01*
X216250Y120229D01*
X216340Y120450D01*
X216410Y120712D01*
X216460Y121014D01*
X216490Y121356D01*
X216500Y121738D01*
X218500D01*
X218510Y121356D01*
D02*
G37*
G36*
X249012Y121010D02*
X249047Y120732D01*
X249105Y120460D01*
X249187Y120193D01*
X249292Y119932D01*
X249421Y119677D01*
X249573Y119428D01*
X249749Y119184D01*
X249948Y118946D01*
X250170Y118714D01*
X245830D01*
X246052Y118946D01*
X246251Y119184D01*
X246427Y119428D01*
X246579Y119677D01*
X246708Y119932D01*
X246813Y120193D01*
X246895Y120460D01*
X246953Y120732D01*
X246988Y121010D01*
X247000Y121294D01*
X249000D01*
X249012Y121010D01*
D02*
G37*
G36*
X195026Y120405D02*
X195247Y120233D01*
X195482Y120082D01*
X195728Y119951D01*
X195987Y119841D01*
X196258Y119752D01*
X196542Y119683D01*
X196839Y119634D01*
X197148Y119607D01*
X197469Y119600D01*
X194400Y116531D01*
X194393Y116852D01*
X194366Y117161D01*
X194317Y117458D01*
X194248Y117742D01*
X194159Y118013D01*
X194049Y118272D01*
X193918Y118518D01*
X193767Y118753D01*
X193595Y118974D01*
X193403Y119183D01*
X194817Y120597D01*
X195026Y120405D01*
D02*
G37*
G36*
X376192Y119237D02*
X376405Y119070D01*
X376627Y118922D01*
X376860Y118795D01*
X377103Y118688D01*
X377357Y118601D01*
X377620Y118534D01*
X377893Y118487D01*
X378177Y118460D01*
X378470Y118453D01*
X375547Y115530D01*
X375540Y115823D01*
X375513Y116107D01*
X375466Y116380D01*
X375399Y116644D01*
X375312Y116897D01*
X375205Y117140D01*
X375078Y117373D01*
X374930Y117595D01*
X374763Y117808D01*
X374576Y118010D01*
X375990Y119424D01*
X376192Y119237D01*
D02*
G37*
G36*
X432888Y116474D02*
X432717Y116293D01*
X432565Y116108D01*
X432431Y115921D01*
X432314Y115731D01*
X432217Y115537D01*
X432137Y115341D01*
X432075Y115141D01*
X432032Y114939D01*
X432007Y114734D01*
X432000Y114525D01*
X429525Y117000D01*
X429734Y117007D01*
X429939Y117032D01*
X430141Y117075D01*
X430341Y117137D01*
X430537Y117217D01*
X430731Y117315D01*
X430921Y117431D01*
X431108Y117565D01*
X431292Y117717D01*
X431474Y117888D01*
X432888Y116474D01*
D02*
G37*
G36*
X320915Y117512D02*
X321116Y117351D01*
X321323Y117209D01*
X321538Y117087D01*
X321759Y116983D01*
X321988Y116899D01*
X322223Y116835D01*
X322466Y116789D01*
X322716Y116763D01*
X322972Y116756D01*
X320244Y114028D01*
X320237Y114284D01*
X320211Y114534D01*
X320165Y114777D01*
X320101Y115012D01*
X320017Y115241D01*
X319913Y115462D01*
X319791Y115677D01*
X319649Y115884D01*
X319488Y116085D01*
X319308Y116278D01*
X320722Y117692D01*
X320915Y117512D01*
D02*
G37*
G36*
X410821Y117364D02*
X411041Y117183D01*
X411268Y117023D01*
X411501Y116884D01*
X411742Y116767D01*
X411989Y116671D01*
X412244Y116596D01*
X412506Y116543D01*
X412774Y116511D01*
X413050Y116500D01*
Y114500D01*
X412774Y114489D01*
X412506Y114457D01*
X412244Y114404D01*
X411989Y114329D01*
X411742Y114233D01*
X411501Y114116D01*
X411268Y113977D01*
X411041Y113817D01*
X410821Y113636D01*
X410609Y113433D01*
Y117567D01*
X410821Y117364D01*
D02*
G37*
G36*
X396391Y113433D02*
X396179Y113636D01*
X395959Y113817D01*
X395732Y113977D01*
X395499Y114116D01*
X395258Y114233D01*
X395010Y114329D01*
X394756Y114404D01*
X394494Y114457D01*
X394226Y114489D01*
X393950Y114500D01*
Y116500D01*
X394226Y116511D01*
X394494Y116543D01*
X394756Y116596D01*
X395010Y116671D01*
X395258Y116767D01*
X395499Y116884D01*
X395732Y117023D01*
X395959Y117183D01*
X396179Y117364D01*
X396391Y117567D01*
Y113433D01*
D02*
G37*
G36*
X390821Y117364D02*
X391041Y117183D01*
X391268Y117023D01*
X391501Y116884D01*
X391742Y116767D01*
X391989Y116671D01*
X392244Y116596D01*
X392506Y116543D01*
X392774Y116511D01*
X393050Y116500D01*
Y114500D01*
X392774Y114489D01*
X392506Y114457D01*
X392244Y114404D01*
X391989Y114329D01*
X391742Y114233D01*
X391501Y114116D01*
X391268Y113977D01*
X391041Y113817D01*
X390821Y113636D01*
X390609Y113433D01*
Y117567D01*
X390821Y117364D01*
D02*
G37*
G36*
X247969Y113400D02*
X247648Y113393D01*
X247339Y113365D01*
X247042Y113317D01*
X246758Y113249D01*
X246487Y113159D01*
X246228Y113049D01*
X245982Y112918D01*
X245747Y112767D01*
X245526Y112595D01*
X245317Y112403D01*
X243903Y113817D01*
X244095Y114026D01*
X244267Y114248D01*
X244418Y114481D01*
X244549Y114728D01*
X244659Y114987D01*
X244748Y115258D01*
X244817Y115542D01*
X244865Y115839D01*
X244893Y116148D01*
X244900Y116469D01*
X247969Y113400D01*
D02*
G37*
G36*
X200607Y116148D02*
X200635Y115839D01*
X200683Y115542D01*
X200751Y115258D01*
X200841Y114987D01*
X200951Y114728D01*
X201082Y114481D01*
X201233Y114248D01*
X201405Y114026D01*
X201597Y113817D01*
X200183Y112403D01*
X199974Y112595D01*
X199752Y112767D01*
X199519Y112918D01*
X199272Y113049D01*
X199013Y113159D01*
X198742Y113249D01*
X198458Y113317D01*
X198161Y113365D01*
X197852Y113393D01*
X197531Y113400D01*
X200600Y116469D01*
X200607Y116148D01*
D02*
G37*
G36*
X441970Y113047D02*
X441677Y113040D01*
X441393Y113013D01*
X441120Y112966D01*
X440857Y112899D01*
X440603Y112812D01*
X440360Y112705D01*
X440128Y112577D01*
X439905Y112430D01*
X439692Y112263D01*
X439490Y112076D01*
X438076Y113490D01*
X438263Y113692D01*
X438430Y113905D01*
X438578Y114128D01*
X438705Y114360D01*
X438812Y114603D01*
X438899Y114857D01*
X438966Y115120D01*
X439013Y115393D01*
X439040Y115677D01*
X439047Y115971D01*
X441970Y113047D01*
D02*
G37*
G36*
X261157Y115613D02*
X261140Y115295D01*
X261150Y114989D01*
X261187Y114695D01*
X261252Y114413D01*
X261345Y114143D01*
X261464Y113885D01*
X261612Y113639D01*
X261786Y113405D01*
X261988Y113183D01*
X260330Y112013D01*
X260123Y112205D01*
X259899Y112382D01*
X259659Y112545D01*
X259401Y112694D01*
X259127Y112829D01*
X258837Y112949D01*
X258529Y113055D01*
X258205Y113147D01*
X257507Y113288D01*
X261202Y115943D01*
X261157Y115613D01*
D02*
G37*
G36*
X401460Y115177D02*
X401487Y114893D01*
X401534Y114620D01*
X401601Y114357D01*
X401688Y114103D01*
X401795Y113860D01*
X401923Y113628D01*
X402070Y113405D01*
X402237Y113192D01*
X402424Y112990D01*
X401010Y111576D01*
X400808Y111763D01*
X400595Y111930D01*
X400373Y112077D01*
X400140Y112205D01*
X399897Y112312D01*
X399643Y112399D01*
X399380Y112466D01*
X399107Y112513D01*
X398823Y112540D01*
X398530Y112547D01*
X401453Y115471D01*
X401460Y115177D01*
D02*
G37*
G36*
X458860Y134860D02*
X459487Y134379D01*
X460217Y134077D01*
X461000Y133974D01*
X461322D01*
X461371Y133962D01*
X461565Y133955D01*
X461669Y133942D01*
X461764Y133923D01*
X461854Y133897D01*
X461941Y133863D01*
X462030Y133820D01*
X462122Y133765D01*
X462220Y133696D01*
X462324Y133610D01*
X462453Y133487D01*
X462468Y133468D01*
X462487Y133453D01*
X462610Y133324D01*
X462696Y133220D01*
X462765Y133122D01*
X462820Y133030D01*
X462863Y132941D01*
X462897Y132854D01*
X462923Y132764D01*
X462942Y132669D01*
X462955Y132565D01*
X462962Y132371D01*
X462974Y132322D01*
Y117253D01*
X452747Y107026D01*
X437958D01*
X437767Y107488D01*
X440832Y110553D01*
X440875Y110579D01*
X441017Y110711D01*
X441100Y110776D01*
X441181Y110829D01*
X441262Y110874D01*
X441348Y110912D01*
X441441Y110944D01*
X441545Y110970D01*
X441663Y110991D01*
X441798Y111003D01*
X441975Y111008D01*
X442000Y111004D01*
X443293Y111175D01*
X444498Y111674D01*
X445532Y112468D01*
X446326Y113502D01*
X446729Y114476D01*
X447271D01*
X447674Y113502D01*
X448468Y112468D01*
X449502Y111674D01*
X450707Y111175D01*
X452000Y111004D01*
X453293Y111175D01*
X454498Y111674D01*
X455532Y112468D01*
X456326Y113502D01*
X456825Y114707D01*
X456995Y116000D01*
X456825Y117293D01*
X456326Y118498D01*
X455532Y119532D01*
X454498Y120326D01*
X453524Y120729D01*
Y121271D01*
X454498Y121674D01*
X455532Y122468D01*
X456326Y123502D01*
X456825Y124707D01*
X456995Y126000D01*
X456825Y127293D01*
X456326Y128498D01*
X455532Y129532D01*
X454498Y130326D01*
X453524Y130729D01*
Y131271D01*
X454498Y131674D01*
X455532Y132468D01*
X456326Y133502D01*
X456825Y134707D01*
X456995Y136000D01*
X456987Y136064D01*
X457436Y136285D01*
X458860Y134860D01*
D02*
G37*
G36*
X297972Y111744D02*
X297716Y111737D01*
X297466Y111711D01*
X297223Y111665D01*
X296988Y111601D01*
X296759Y111517D01*
X296538Y111413D01*
X296323Y111291D01*
X296116Y111149D01*
X295915Y110988D01*
X295722Y110808D01*
X294308Y112222D01*
X294488Y112415D01*
X294649Y112616D01*
X294791Y112823D01*
X294913Y113038D01*
X295017Y113259D01*
X295101Y113488D01*
X295165Y113724D01*
X295211Y113966D01*
X295237Y114216D01*
X295244Y114472D01*
X297972Y111744D01*
D02*
G37*
G36*
X308616Y202325D02*
X309069Y201231D01*
X309735Y200362D01*
X309761Y200322D01*
X309841Y200235D01*
X309858Y200215D01*
X309872Y200193D01*
X309886Y200166D01*
X309901Y200130D01*
X309917Y200081D01*
X309933Y200016D01*
X309946Y199933D01*
X309956Y199831D01*
X309962Y199647D01*
X309974Y199594D01*
Y189000D01*
X310077Y188217D01*
X310380Y187487D01*
X310860Y186860D01*
X316116Y181605D01*
X316743Y181124D01*
X317473Y180821D01*
X318256Y180718D01*
X330667D01*
X330914Y180218D01*
X330569Y179769D01*
X330116Y178675D01*
X329961Y177500D01*
X330116Y176325D01*
X330569Y175231D01*
X331235Y174363D01*
X331261Y174322D01*
X331341Y174235D01*
X331358Y174215D01*
X331372Y174193D01*
X331386Y174166D01*
X331401Y174130D01*
X331417Y174081D01*
X331433Y174016D01*
X331447Y173933D01*
X331456Y173831D01*
X331462Y173647D01*
X331474Y173594D01*
Y158000D01*
X331577Y157217D01*
X331879Y156487D01*
X332360Y155860D01*
X342789Y145432D01*
X342816Y145388D01*
X342945Y145249D01*
X343010Y145169D01*
X343061Y145094D01*
X343101Y145024D01*
X343132Y144957D01*
X343157Y144889D01*
X343177Y144817D01*
X343192Y144739D01*
X343201Y144650D01*
X343205Y144512D01*
X343203Y144500D01*
X343206Y144481D01*
X343206Y144472D01*
X343208Y144462D01*
X343367Y143259D01*
X343846Y142102D01*
X344608Y141108D01*
X345602Y140346D01*
X346759Y139866D01*
X348000Y139703D01*
X349241Y139866D01*
X349628Y140026D01*
X349664Y140032D01*
X349777Y139927D01*
X349778Y139927D01*
X349778Y139926D01*
X349820Y139900D01*
X373053Y116668D01*
X373079Y116625D01*
X373211Y116482D01*
X373276Y116400D01*
X373329Y116319D01*
X373374Y116238D01*
X373412Y116152D01*
X373444Y116059D01*
X373470Y115955D01*
X373491Y115837D01*
X373503Y115702D01*
X373508Y115524D01*
X373504Y115500D01*
X373675Y114207D01*
X374174Y113002D01*
X374968Y111968D01*
X376002Y111174D01*
X377207Y110675D01*
X378500Y110504D01*
X379793Y110675D01*
X380998Y111174D01*
X382032Y111968D01*
X382826Y113002D01*
X383229Y113976D01*
X383771D01*
X384174Y113002D01*
X384968Y111968D01*
X386002Y111174D01*
X387207Y110675D01*
X388500Y110504D01*
X389793Y110675D01*
X390998Y111174D01*
X392032Y111968D01*
X392047Y111987D01*
X392176Y112110D01*
X392280Y112196D01*
X392378Y112265D01*
X392470Y112320D01*
X392559Y112363D01*
X392646Y112397D01*
X392736Y112423D01*
X392831Y112442D01*
X392935Y112455D01*
X393129Y112462D01*
X393178Y112474D01*
X393822D01*
X393871Y112462D01*
X394065Y112455D01*
X394169Y112442D01*
X394264Y112423D01*
X394354Y112397D01*
X394441Y112363D01*
X394530Y112320D01*
X394622Y112265D01*
X394720Y112196D01*
X394824Y112110D01*
X394953Y111987D01*
X394968Y111968D01*
X396002Y111174D01*
X397207Y110675D01*
X398500Y110504D01*
X398524Y110508D01*
X398702Y110503D01*
X398837Y110491D01*
X398955Y110470D01*
X399059Y110444D01*
X399152Y110412D01*
X399238Y110374D01*
X399319Y110329D01*
X399400Y110276D01*
X399482Y110211D01*
X399625Y110079D01*
X399668Y110053D01*
X402233Y107488D01*
X402042Y107026D01*
X348253D01*
X345342Y109937D01*
X345602Y110346D01*
X346759Y109866D01*
X348000Y109703D01*
X349241Y109866D01*
X350398Y110346D01*
X351392Y111108D01*
X352154Y112101D01*
X352634Y113259D01*
X352797Y114500D01*
X352634Y115742D01*
X352154Y116899D01*
X351392Y117892D01*
X350398Y118654D01*
X349241Y119133D01*
X348000Y119297D01*
X346759Y119133D01*
X345602Y118654D01*
X344608Y117892D01*
X343846Y116899D01*
X343367Y115742D01*
X343203Y114500D01*
X343367Y113259D01*
X343846Y112101D01*
X343437Y111842D01*
X314026Y141253D01*
Y154594D01*
X314038Y154647D01*
X314044Y154831D01*
X314054Y154933D01*
X314067Y155016D01*
X314083Y155081D01*
X314099Y155130D01*
X314114Y155166D01*
X314128Y155193D01*
X314142Y155215D01*
X314159Y155235D01*
X314239Y155322D01*
X314265Y155362D01*
X314931Y156231D01*
X315384Y157325D01*
X315539Y158500D01*
X315384Y159675D01*
X314931Y160769D01*
X314209Y161709D01*
X313269Y162431D01*
X312175Y162884D01*
X311000Y163039D01*
X309825Y162884D01*
X308731Y162431D01*
X308474Y162234D01*
X308026Y162455D01*
Y202976D01*
X308526Y203008D01*
X308616Y202325D01*
D02*
G37*
%LPC*%
G36*
X228000Y256526D02*
X227217Y256423D01*
X226487Y256120D01*
X225860Y255640D01*
X221954Y251733D01*
X221906Y251703D01*
X221775Y251579D01*
X221696Y251512D01*
X221629Y251463D01*
X221578Y251431D01*
X221542Y251412D01*
X221522Y251403D01*
X221521Y251403D01*
X221446Y251400D01*
X221380Y251384D01*
X220361Y251250D01*
X219300Y250810D01*
X218389Y250111D01*
X217690Y249200D01*
X217250Y248139D01*
X217100Y247000D01*
X217250Y245861D01*
X217690Y244800D01*
X218389Y243889D01*
X219090Y243351D01*
X218920Y242851D01*
X195862D01*
Y251362D01*
X189440D01*
X189408Y251373D01*
X189275Y251364D01*
X189143Y251389D01*
X189009Y251362D01*
X187138D01*
Y250564D01*
X187106Y250564D01*
X187048Y250551D01*
X126925D01*
X126925Y250551D01*
X126142Y250448D01*
X125412Y250146D01*
X124785Y249665D01*
X122539Y247418D01*
X122511Y247402D01*
X122309Y247226D01*
X122165Y247130D01*
X121960Y247024D01*
X121689Y246917D01*
X121350Y246816D01*
X120943Y246726D01*
X120494Y246657D01*
X119309Y246570D01*
X118635Y246564D01*
X118613Y246559D01*
X118600Y246560D01*
X117164Y246419D01*
X115783Y246000D01*
X114511Y245320D01*
X113395Y244405D01*
X112480Y243289D01*
X111800Y242017D01*
X111381Y240636D01*
X111240Y239200D01*
X111366Y237914D01*
X111091Y237609D01*
X110931Y237524D01*
X110240Y237734D01*
X109500Y237806D01*
Y231500D01*
Y225194D01*
X110240Y225267D01*
X111432Y225628D01*
X112531Y226216D01*
X113494Y227006D01*
X114285Y227969D01*
X114872Y229068D01*
X115074Y229735D01*
X115574Y229661D01*
Y219400D01*
X115677Y218617D01*
X115980Y217887D01*
X116460Y217260D01*
X127474Y206247D01*
Y196668D01*
X127462Y196613D01*
X127457Y196432D01*
X127448Y196329D01*
X127436Y196247D01*
X127422Y196188D01*
X127410Y196149D01*
X127402Y196129D01*
X127402Y196128D01*
X127351Y196073D01*
X127315Y196015D01*
X126690Y195200D01*
X126250Y194139D01*
X126100Y193000D01*
X126250Y191861D01*
X126690Y190800D01*
X127389Y189889D01*
X128300Y189190D01*
X129361Y188750D01*
X130500Y188600D01*
X131639Y188750D01*
X132700Y189190D01*
X133611Y189889D01*
X134310Y190800D01*
X134750Y191861D01*
X134900Y193000D01*
X134750Y194139D01*
X134310Y195200D01*
X133685Y196015D01*
X133649Y196073D01*
X133598Y196128D01*
X133598Y196129D01*
X133590Y196149D01*
X133578Y196188D01*
X133564Y196247D01*
X133552Y196329D01*
X133543Y196432D01*
X133538Y196613D01*
X133526Y196668D01*
Y207500D01*
X133423Y208283D01*
X133121Y209013D01*
X132640Y209640D01*
X121626Y220653D01*
Y230604D01*
X121634Y230635D01*
X121653Y230902D01*
X121686Y231072D01*
X121757Y231291D01*
X121873Y231558D01*
X122041Y231870D01*
X122265Y232222D01*
X122533Y232588D01*
X123310Y233488D01*
X123782Y233968D01*
X123795Y233987D01*
X123805Y233995D01*
X124720Y235111D01*
X125400Y236383D01*
X125819Y237764D01*
X125958Y239170D01*
X125963Y239194D01*
X126002Y240554D01*
X126053Y241069D01*
X126126Y241543D01*
X126216Y241950D01*
X126317Y242289D01*
X126425Y242560D01*
X126530Y242765D01*
X126626Y242909D01*
X126802Y243111D01*
X126818Y243139D01*
X128178Y244499D01*
X134626D01*
X134863Y243999D01*
X134280Y243289D01*
X133600Y242017D01*
X133181Y240636D01*
X133040Y239200D01*
X133045Y239146D01*
X132691Y238792D01*
X132000Y238860D01*
X130564Y238719D01*
X129183Y238300D01*
X127911Y237620D01*
X126795Y236705D01*
X125880Y235589D01*
X125200Y234317D01*
X124781Y232936D01*
X124640Y231500D01*
X124781Y230064D01*
X125200Y228683D01*
X125880Y227411D01*
X126795Y226295D01*
X127911Y225380D01*
X129183Y224700D01*
X130564Y224281D01*
X132000Y224140D01*
X133436Y224281D01*
X134817Y224700D01*
X136089Y225380D01*
X137205Y226295D01*
X138120Y227411D01*
X138800Y228683D01*
X139219Y230064D01*
X139360Y231500D01*
X139355Y231554D01*
X139709Y231908D01*
X140400Y231840D01*
X141836Y231981D01*
X142072Y232053D01*
X142474Y231755D01*
Y207000D01*
X142577Y206217D01*
X142879Y205487D01*
X143360Y204860D01*
X154767Y193454D01*
X154797Y193406D01*
X154921Y193275D01*
X154988Y193196D01*
X155037Y193129D01*
X155069Y193078D01*
X155088Y193042D01*
X155097Y193022D01*
X155097Y193022D01*
X155100Y192946D01*
X155116Y192880D01*
X155250Y191861D01*
X155690Y190800D01*
X156389Y189889D01*
X157300Y189190D01*
X158361Y188750D01*
X159500Y188600D01*
X160639Y188750D01*
X161700Y189190D01*
X162611Y189889D01*
X163310Y190800D01*
X163750Y191861D01*
X163900Y193000D01*
X163750Y194139D01*
X163310Y195200D01*
X162611Y196111D01*
X161700Y196810D01*
X160639Y197250D01*
X159620Y197384D01*
X159554Y197400D01*
X159478Y197403D01*
X159478Y197403D01*
X159458Y197412D01*
X159422Y197431D01*
X159371Y197463D01*
X159304Y197512D01*
X159225Y197579D01*
X159094Y197703D01*
X159046Y197733D01*
X148526Y208253D01*
Y227054D01*
X149026Y227233D01*
X149795Y226295D01*
X150911Y225380D01*
X152183Y224700D01*
X153564Y224281D01*
X155000Y224140D01*
X156436Y224281D01*
X157817Y224700D01*
X159089Y225380D01*
X160205Y226295D01*
X161120Y227411D01*
X161800Y228683D01*
X162219Y230064D01*
X162360Y231500D01*
X162219Y232936D01*
X161800Y234317D01*
X161120Y235589D01*
X160537Y236299D01*
X160774Y236799D01*
X255825D01*
X256608Y236902D01*
X257338Y237205D01*
X257965Y237685D01*
X261994Y241714D01*
X262037Y241741D01*
X262774Y242426D01*
X263016Y242619D01*
X263043Y242638D01*
X263342D01*
X263478Y242611D01*
X263615Y242638D01*
X263740D01*
X263796Y242636D01*
X263802Y242638D01*
X267362D01*
Y250474D01*
X289594D01*
X289784Y249974D01*
X289190Y249200D01*
X288750Y248139D01*
X288600Y247000D01*
X288750Y245861D01*
X289190Y244800D01*
X289889Y243889D01*
X290800Y243190D01*
X291861Y242750D01*
X292880Y242616D01*
X292946Y242600D01*
X293021Y242597D01*
X293022Y242597D01*
X293042Y242588D01*
X293078Y242569D01*
X293129Y242537D01*
X293196Y242488D01*
X293275Y242421D01*
X293406Y242297D01*
X293454Y242267D01*
X300860Y234860D01*
X300860Y234860D01*
X301487Y234380D01*
X302217Y234077D01*
X303000Y233974D01*
X303000Y233974D01*
X341500D01*
X342283Y234077D01*
X343013Y234380D01*
X343640Y234860D01*
X348068Y239288D01*
X348112Y239316D01*
X348251Y239445D01*
X348331Y239510D01*
X348406Y239561D01*
X348476Y239601D01*
X348543Y239632D01*
X348611Y239657D01*
X348683Y239677D01*
X348761Y239692D01*
X348850Y239701D01*
X348988Y239705D01*
X349000Y239703D01*
X349019Y239706D01*
X349028Y239706D01*
X349038Y239708D01*
X350241Y239866D01*
X351398Y240346D01*
X352392Y241108D01*
X353154Y242102D01*
X353633Y243259D01*
X353797Y244500D01*
X353633Y245742D01*
X353154Y246899D01*
X352392Y247892D01*
X351398Y248654D01*
X350241Y249133D01*
X349000Y249297D01*
X347759Y249133D01*
X346602Y248654D01*
X345608Y247892D01*
X344846Y246899D01*
X344367Y245742D01*
X344208Y244538D01*
X344206Y244528D01*
X344206Y244519D01*
X344203Y244500D01*
X344205Y244488D01*
X344201Y244351D01*
X344192Y244261D01*
X344177Y244183D01*
X344157Y244111D01*
X344132Y244043D01*
X344101Y243976D01*
X344061Y243906D01*
X344010Y243831D01*
X343945Y243751D01*
X343816Y243612D01*
X343789Y243568D01*
X340247Y240026D01*
X327803D01*
X327633Y240526D01*
X328392Y241108D01*
X329154Y242102D01*
X329633Y243259D01*
X329797Y244500D01*
X329633Y245742D01*
X329154Y246899D01*
X328392Y247892D01*
X327398Y248654D01*
X326241Y249133D01*
X325038Y249292D01*
X325028Y249294D01*
X325019Y249294D01*
X325000Y249297D01*
X324988Y249295D01*
X324851Y249299D01*
X324761Y249308D01*
X324683Y249323D01*
X324611Y249343D01*
X324543Y249368D01*
X324476Y249399D01*
X324406Y249439D01*
X324331Y249490D01*
X324251Y249555D01*
X324112Y249684D01*
X324068Y249711D01*
X318140Y255640D01*
X317513Y256120D01*
X316783Y256423D01*
X316000Y256526D01*
X228000D01*
X228000Y256526D01*
D02*
G37*
G36*
X447000Y254047D02*
X445564Y253858D01*
X444226Y253304D01*
X443077Y252423D01*
X442196Y251274D01*
X441642Y249936D01*
X441453Y248500D01*
X441642Y247064D01*
X442196Y245726D01*
X443077Y244577D01*
X444226Y243696D01*
X445352Y243229D01*
Y242688D01*
X444731Y242431D01*
X443791Y241709D01*
X443069Y240769D01*
X442616Y239675D01*
X442527Y239000D01*
X447000D01*
X451473D01*
X451384Y239675D01*
X450931Y240769D01*
X450209Y241709D01*
X449269Y242431D01*
X448648Y242688D01*
Y243229D01*
X449774Y243696D01*
X450923Y244577D01*
X451804Y245726D01*
X452358Y247064D01*
X452548Y248500D01*
X452358Y249936D01*
X451804Y251274D01*
X450923Y252423D01*
X449774Y253304D01*
X448436Y253858D01*
X447000Y254047D01*
D02*
G37*
G36*
X451473Y238000D02*
X447500D01*
Y234027D01*
X448175Y234116D01*
X449269Y234569D01*
X450209Y235291D01*
X450931Y236231D01*
X451384Y237325D01*
X451473Y238000D01*
D02*
G37*
G36*
X446500D02*
X442527D01*
X442616Y237325D01*
X443069Y236231D01*
X443791Y235291D01*
X444731Y234569D01*
X445825Y234116D01*
X446500Y234027D01*
Y238000D01*
D02*
G37*
G36*
X465000Y180797D02*
X463759Y180633D01*
X462602Y180154D01*
X461608Y179392D01*
X460846Y178399D01*
X460366Y177242D01*
X460203Y176000D01*
X460366Y174759D01*
X460846Y173601D01*
X461608Y172608D01*
X462602Y171846D01*
X463759Y171367D01*
X465000Y171203D01*
X466242Y171367D01*
X467399Y171846D01*
X468392Y172608D01*
X469154Y173601D01*
X469633Y174759D01*
X469797Y176000D01*
X469633Y177242D01*
X469154Y178399D01*
X468392Y179392D01*
X467399Y180154D01*
X466242Y180633D01*
X465000Y180797D01*
D02*
G37*
G36*
X160000Y166325D02*
Y163500D01*
X162825D01*
X162776Y163878D01*
X162437Y164696D01*
X161898Y165398D01*
X161196Y165937D01*
X160378Y166276D01*
X160000Y166325D01*
D02*
G37*
G36*
X131000D02*
Y163500D01*
X133825D01*
X133776Y163878D01*
X133437Y164696D01*
X132898Y165398D01*
X132196Y165937D01*
X131378Y166276D01*
X131000Y166325D01*
D02*
G37*
G36*
X159000D02*
X158622Y166276D01*
X157804Y165937D01*
X157102Y165398D01*
X156563Y164696D01*
X156224Y163878D01*
X156175Y163500D01*
X159000D01*
Y166325D01*
D02*
G37*
G36*
X130000D02*
X129622Y166276D01*
X128804Y165937D01*
X128102Y165398D01*
X127563Y164696D01*
X127224Y163878D01*
X127175Y163500D01*
X130000D01*
Y166325D01*
D02*
G37*
G36*
X348000Y163723D02*
Y160500D01*
X351222D01*
X351159Y160980D01*
X350781Y161894D01*
X350179Y162679D01*
X349394Y163281D01*
X348481Y163659D01*
X348000Y163723D01*
D02*
G37*
G36*
X347000D02*
X346519Y163659D01*
X345606Y163281D01*
X344821Y162679D01*
X344219Y161894D01*
X343841Y160980D01*
X343777Y160500D01*
X347000D01*
Y163723D01*
D02*
G37*
G36*
X370500Y163223D02*
Y160000D01*
X373723D01*
X373659Y160480D01*
X373281Y161394D01*
X372679Y162179D01*
X371894Y162781D01*
X370981Y163159D01*
X370500Y163223D01*
D02*
G37*
G36*
X369500D02*
X369020Y163159D01*
X368106Y162781D01*
X367321Y162179D01*
X366719Y161394D01*
X366341Y160480D01*
X366278Y160000D01*
X369500D01*
Y163223D01*
D02*
G37*
G36*
X162825Y162500D02*
X160000D01*
Y159675D01*
X160378Y159724D01*
X161196Y160063D01*
X161898Y160602D01*
X162437Y161304D01*
X162776Y162122D01*
X162825Y162500D01*
D02*
G37*
G36*
X133825D02*
X131000D01*
Y159675D01*
X131378Y159724D01*
X132196Y160063D01*
X132898Y160602D01*
X133437Y161304D01*
X133776Y162122D01*
X133825Y162500D01*
D02*
G37*
G36*
X159000D02*
X156175D01*
X156224Y162122D01*
X156563Y161304D01*
X157102Y160602D01*
X157804Y160063D01*
X158622Y159724D01*
X159000Y159675D01*
Y162500D01*
D02*
G37*
G36*
X130000D02*
X127175D01*
X127224Y162122D01*
X127563Y161304D01*
X128102Y160602D01*
X128804Y160063D01*
X129622Y159724D01*
X130000Y159675D01*
Y162500D01*
D02*
G37*
G36*
X351222Y159500D02*
X348000D01*
Y156278D01*
X348481Y156341D01*
X349394Y156719D01*
X350179Y157321D01*
X350781Y158106D01*
X351159Y159019D01*
X351222Y159500D01*
D02*
G37*
G36*
X347000D02*
X343777D01*
X343841Y159019D01*
X344219Y158106D01*
X344821Y157321D01*
X345606Y156719D01*
X346519Y156341D01*
X347000Y156278D01*
Y159500D01*
D02*
G37*
G36*
X373723Y159000D02*
X370500D01*
Y155778D01*
X370981Y155841D01*
X371894Y156219D01*
X372679Y156821D01*
X373281Y157606D01*
X373659Y158519D01*
X373723Y159000D01*
D02*
G37*
G36*
X369500D02*
X366278D01*
X366341Y158519D01*
X366719Y157606D01*
X367321Y156821D01*
X368106Y156219D01*
X369020Y155841D01*
X369500Y155778D01*
Y159000D01*
D02*
G37*
G36*
X291500Y164797D02*
X290259Y164634D01*
X289102Y164154D01*
X288108Y163392D01*
X287346Y162399D01*
X286866Y161241D01*
X286703Y160000D01*
X286866Y158758D01*
X287346Y157601D01*
X288108Y156608D01*
X289102Y155846D01*
X290259Y155367D01*
X291500Y155203D01*
X292741Y155367D01*
X293899Y155846D01*
X294892Y156608D01*
X295654Y157601D01*
X296133Y158758D01*
X296297Y160000D01*
X296133Y161241D01*
X295654Y162399D01*
X294892Y163392D01*
X293899Y164154D01*
X292741Y164634D01*
X291500Y164797D01*
D02*
G37*
G36*
X398500Y150496D02*
X397207Y150325D01*
X396002Y149826D01*
X394968Y149032D01*
X394174Y147998D01*
X393771Y147024D01*
X393229D01*
X392826Y147998D01*
X392032Y149032D01*
X390998Y149826D01*
X389793Y150325D01*
X388500Y150496D01*
X387207Y150325D01*
X386002Y149826D01*
X384968Y149032D01*
X384174Y147998D01*
X383675Y146793D01*
X383505Y145500D01*
X383675Y144207D01*
X384174Y143002D01*
X384968Y141968D01*
X386002Y141174D01*
X387207Y140675D01*
X388500Y140505D01*
X389793Y140675D01*
X390998Y141174D01*
X392032Y141968D01*
X392826Y143002D01*
X393229Y143976D01*
X393771D01*
X394174Y143002D01*
X394968Y141968D01*
X396002Y141174D01*
X397207Y140675D01*
X398500Y140505D01*
X399793Y140675D01*
X400998Y141174D01*
X402032Y141968D01*
X402047Y141987D01*
X402176Y142110D01*
X402280Y142196D01*
X402378Y142265D01*
X402470Y142320D01*
X402559Y142363D01*
X402646Y142397D01*
X402736Y142423D01*
X402831Y142442D01*
X402935Y142455D01*
X403047Y142459D01*
X403246Y142381D01*
X403547Y142171D01*
Y140547D01*
X413453D01*
Y150453D01*
X403547D01*
Y148829D01*
X403246Y148619D01*
X403047Y148541D01*
X402935Y148545D01*
X402831Y148558D01*
X402736Y148577D01*
X402646Y148603D01*
X402559Y148637D01*
X402470Y148680D01*
X402378Y148735D01*
X402280Y148804D01*
X402176Y148890D01*
X402047Y149013D01*
X402032Y149032D01*
X400998Y149826D01*
X399793Y150325D01*
X398500Y150496D01*
D02*
G37*
G36*
X379000Y149421D02*
Y146000D01*
X382421D01*
X382351Y146532D01*
X381953Y147493D01*
X381319Y148319D01*
X380493Y148953D01*
X379532Y149351D01*
X379000Y149421D01*
D02*
G37*
G36*
X378000D02*
X377468Y149351D01*
X376507Y148953D01*
X375681Y148319D01*
X375047Y147493D01*
X374649Y146532D01*
X374579Y146000D01*
X378000D01*
Y149421D01*
D02*
G37*
G36*
X382421Y145000D02*
X379000D01*
Y141579D01*
X379532Y141649D01*
X380493Y142047D01*
X381319Y142681D01*
X381953Y143507D01*
X382351Y144468D01*
X382421Y145000D01*
D02*
G37*
G36*
X378000D02*
X374579D01*
X374649Y144468D01*
X375047Y143507D01*
X375681Y142681D01*
X376507Y142047D01*
X377468Y141649D01*
X378000Y141579D01*
Y145000D01*
D02*
G37*
G36*
X115276Y147725D02*
X109961D01*
X108745Y147565D01*
X107612Y147096D01*
X106639Y146349D01*
X105892Y145376D01*
X105423Y144243D01*
X105263Y143027D01*
Y137713D01*
X105423Y136497D01*
X105892Y135364D01*
X106639Y134391D01*
X107612Y133644D01*
X108745Y133175D01*
X109961Y133015D01*
X115276D01*
X116491Y133175D01*
X117624Y133644D01*
X118597Y134391D01*
X119344Y135364D01*
X119813Y136497D01*
X119973Y137713D01*
Y143027D01*
X119813Y144243D01*
X119344Y145376D01*
X118597Y146349D01*
X117624Y147096D01*
X116491Y147565D01*
X115276Y147725D01*
D02*
G37*
G36*
X151575Y144026D02*
X141201D01*
X140418Y143923D01*
X139688Y143621D01*
X139061Y143140D01*
X133132Y137210D01*
X133088Y137183D01*
X132351Y136499D01*
X132109Y136306D01*
X132092Y136293D01*
X131750D01*
X131647Y136314D01*
X131544Y136293D01*
X131516D01*
X131446Y136284D01*
X131329Y136289D01*
X131244Y136258D01*
X130737Y136191D01*
X130011Y135890D01*
X129387Y135412D01*
X128909Y134788D01*
X128608Y134063D01*
X128506Y133283D01*
Y133144D01*
X126791D01*
X126012Y133041D01*
X125286Y132741D01*
X124663Y132262D01*
X124185Y131639D01*
X123884Y130913D01*
X123781Y130134D01*
Y128165D01*
X123884Y127386D01*
X124185Y126660D01*
X124394Y126387D01*
X124639Y126000D01*
X124394Y125613D01*
X124185Y125340D01*
X123884Y124614D01*
X123781Y123835D01*
Y121866D01*
X123884Y121087D01*
X124185Y120361D01*
X124663Y119738D01*
X125286Y119259D01*
X126012Y118959D01*
X126791Y118856D01*
X128760D01*
X129259Y118922D01*
X129493Y118717D01*
X129647Y117942D01*
X130085Y117286D01*
X130742Y116847D01*
X131516Y116693D01*
X132000D01*
Y119701D01*
X132500D01*
Y120201D01*
X135507D01*
Y120685D01*
X135353Y121459D01*
X135061Y121897D01*
X135008Y122274D01*
X135169Y122547D01*
X135613Y122887D01*
X136091Y123511D01*
X136392Y124237D01*
X136494Y125016D01*
Y126984D01*
X136392Y127763D01*
X136091Y128489D01*
X135881Y128762D01*
X135636Y129150D01*
X135881Y129537D01*
X136091Y129810D01*
X136392Y130536D01*
X136459Y131043D01*
X136490Y131128D01*
X136485Y131246D01*
X136494Y131315D01*
Y131343D01*
X136515Y131446D01*
X136494Y131549D01*
Y131890D01*
X137007Y132496D01*
X137357Y132858D01*
X137390Y132910D01*
X142454Y137974D01*
X149994D01*
X150139Y137780D01*
X149914Y137247D01*
X149328Y137169D01*
X147990Y136615D01*
X146841Y135734D01*
X145960Y134585D01*
X145405Y133247D01*
X145216Y131811D01*
X145405Y130375D01*
X145960Y129037D01*
X146841Y127888D01*
X147990Y127007D01*
X149328Y126453D01*
X150764Y126263D01*
X152200Y126453D01*
X153537Y127007D01*
X154686Y127888D01*
X155471Y128911D01*
X155636Y128954D01*
X155891D01*
X156057Y128911D01*
X156841Y127888D01*
X157990Y127007D01*
X159328Y126453D01*
X160764Y126263D01*
X162200Y126453D01*
X163538Y127007D01*
X164686Y127888D01*
X164790Y128024D01*
X165264Y127863D01*
Y126311D01*
X176264D01*
Y137311D01*
X165264D01*
Y135759D01*
X164790Y135598D01*
X164686Y135734D01*
X163538Y136615D01*
X162200Y137169D01*
X160764Y137358D01*
X160705Y137351D01*
X160429Y137356D01*
X160177Y137375D01*
X159955Y137407D01*
X159762Y137448D01*
X159596Y137497D01*
X159455Y137552D01*
X159335Y137612D01*
X159232Y137675D01*
X159141Y137743D01*
X158986Y137883D01*
X158947Y137907D01*
X153714Y143140D01*
X153088Y143621D01*
X152358Y143923D01*
X151575Y144026D01*
D02*
G37*
G36*
X135507Y119201D02*
X133000D01*
Y116693D01*
X133484D01*
X134258Y116847D01*
X134915Y117286D01*
X135353Y117942D01*
X135507Y118717D01*
Y119201D01*
D02*
G37*
G36*
X170764Y117359D02*
X169328Y117169D01*
X167990Y116615D01*
X166841Y115734D01*
X165960Y114585D01*
X165405Y113247D01*
X165216Y111811D01*
X165405Y110375D01*
X165960Y109037D01*
X166841Y107888D01*
X167990Y107007D01*
X169328Y106453D01*
X170764Y106263D01*
X172200Y106453D01*
X173538Y107007D01*
X174686Y107888D01*
X175568Y109037D01*
X176122Y110375D01*
X176311Y111811D01*
X176122Y113247D01*
X175568Y114585D01*
X174686Y115734D01*
X173538Y116615D01*
X172200Y117169D01*
X170764Y117359D01*
D02*
G37*
G36*
X150764D02*
X149328Y117169D01*
X147990Y116615D01*
X146841Y115734D01*
X145960Y114585D01*
X145405Y113247D01*
X145216Y111811D01*
X145405Y110375D01*
X145960Y109037D01*
X146841Y107888D01*
X147990Y107007D01*
X149328Y106453D01*
X150764Y106263D01*
X152200Y106453D01*
X153537Y107007D01*
X154686Y107888D01*
X155568Y109037D01*
X156122Y110375D01*
X156311Y111811D01*
X156122Y113247D01*
X155568Y114585D01*
X154686Y115734D01*
X153537Y116615D01*
X152200Y117169D01*
X150764Y117359D01*
D02*
G37*
G36*
X115276Y118985D02*
X109961D01*
X108745Y118825D01*
X107612Y118356D01*
X106639Y117609D01*
X105892Y116636D01*
X105423Y115503D01*
X105263Y114287D01*
Y108973D01*
X105423Y107757D01*
X105892Y106624D01*
X106639Y105651D01*
X107612Y104904D01*
X108745Y104435D01*
X109961Y104275D01*
X115276D01*
X116491Y104435D01*
X117624Y104904D01*
X118597Y105651D01*
X119344Y106624D01*
X119813Y107757D01*
X119973Y108973D01*
Y114287D01*
X119813Y115503D01*
X119344Y116636D01*
X118597Y117609D01*
X117624Y118356D01*
X116491Y118825D01*
X115276Y118985D01*
D02*
G37*
%LPD*%
G36*
X224723Y248808D02*
X224557Y248634D01*
X224410Y248459D01*
X224280Y248283D01*
X224167Y248105D01*
X224073Y247927D01*
X223995Y247748D01*
X223936Y247569D01*
X223894Y247388D01*
X223869Y247206D01*
X223862Y247024D01*
X221524Y249362D01*
X221706Y249369D01*
X221888Y249394D01*
X222069Y249436D01*
X222248Y249495D01*
X222427Y249573D01*
X222605Y249668D01*
X222782Y249780D01*
X222959Y249910D01*
X223134Y250057D01*
X223308Y250223D01*
X224723Y248808D01*
D02*
G37*
G36*
X189162Y245525D02*
X189141Y245715D01*
X189080Y245885D01*
X188979Y246035D01*
X188838Y246165D01*
X188657Y246275D01*
X188436Y246365D01*
X188175Y246435D01*
X187873Y246485D01*
X187531Y246515D01*
X187150Y246525D01*
Y248525D01*
X187530Y248533D01*
X188170Y248599D01*
X188430Y248657D01*
X188650Y248731D01*
X188830Y248822D01*
X188970Y248929D01*
X189070Y249053D01*
X189130Y249193D01*
X189150Y249350D01*
X189162Y245525D01*
D02*
G37*
G36*
X263478Y244650D02*
X263323Y244763D01*
X263139Y244819D01*
X262927D01*
X262686Y244763D01*
X262418Y244650D01*
X262121Y244480D01*
X261795Y244254D01*
X261442Y243971D01*
X260650Y243236D01*
X259236Y244650D01*
X259632Y245060D01*
X260254Y245795D01*
X260480Y246121D01*
X260650Y246418D01*
X260763Y246686D01*
X260820Y246927D01*
Y247139D01*
X260763Y247323D01*
X260650Y247478D01*
X263478Y244650D01*
D02*
G37*
G36*
X322915Y248012D02*
X323116Y247851D01*
X323323Y247709D01*
X323538Y247587D01*
X323759Y247483D01*
X323988Y247399D01*
X324223Y247335D01*
X324466Y247289D01*
X324716Y247263D01*
X324972Y247256D01*
X322244Y244528D01*
X322237Y244784D01*
X322211Y245034D01*
X322165Y245276D01*
X322101Y245512D01*
X322017Y245741D01*
X321913Y245962D01*
X321791Y246177D01*
X321649Y246384D01*
X321488Y246585D01*
X321308Y246778D01*
X322722Y248192D01*
X322915Y248012D01*
D02*
G37*
G36*
X295369Y246794D02*
X295394Y246612D01*
X295436Y246431D01*
X295495Y246252D01*
X295573Y246073D01*
X295668Y245895D01*
X295780Y245718D01*
X295910Y245541D01*
X296057Y245366D01*
X296223Y245192D01*
X294808Y243777D01*
X294634Y243943D01*
X294459Y244090D01*
X294283Y244220D01*
X294105Y244333D01*
X293927Y244427D01*
X293748Y244505D01*
X293569Y244564D01*
X293388Y244606D01*
X293206Y244631D01*
X293024Y244638D01*
X295362Y246976D01*
X295369Y246794D01*
D02*
G37*
G36*
X258638Y247802D02*
X258636Y247796D01*
X258638Y247740D01*
Y247615D01*
X258611Y247478D01*
X258638Y247342D01*
Y247043D01*
X258635Y247039D01*
X258118Y246428D01*
X257769Y246066D01*
X257735Y246015D01*
X254572Y242851D01*
X224080D01*
X223910Y243351D01*
X224611Y243889D01*
X225310Y244800D01*
X225750Y245861D01*
X225884Y246880D01*
X225900Y246946D01*
X225903Y247022D01*
X225903Y247022D01*
X225912Y247042D01*
X225931Y247078D01*
X225963Y247129D01*
X226012Y247196D01*
X226079Y247275D01*
X226203Y247406D01*
X226233Y247454D01*
X229253Y250474D01*
X258638D01*
Y247802D01*
D02*
G37*
G36*
X187096Y244486D02*
X187138Y244485D01*
Y242851D01*
X148836D01*
X148804Y242860D01*
X148554Y242877D01*
X148376Y242910D01*
X148132Y242983D01*
X147826Y243102D01*
X147466Y243273D01*
X147096Y243476D01*
X146289Y244021D01*
X146435Y244499D01*
X187041D01*
X187096Y244486D01*
D02*
G37*
G36*
X348972Y241744D02*
X348716Y241737D01*
X348466Y241711D01*
X348223Y241665D01*
X347988Y241601D01*
X347759Y241517D01*
X347538Y241413D01*
X347323Y241291D01*
X347116Y241149D01*
X346915Y240988D01*
X346722Y240808D01*
X345308Y242222D01*
X345488Y242415D01*
X345649Y242616D01*
X345791Y242823D01*
X345913Y243038D01*
X346017Y243259D01*
X346101Y243488D01*
X346165Y243724D01*
X346211Y243966D01*
X346237Y244216D01*
X346244Y244472D01*
X348972Y241744D01*
D02*
G37*
G36*
X319789Y245432D02*
X319816Y245388D01*
X319945Y245249D01*
X320010Y245169D01*
X320061Y245094D01*
X320101Y245024D01*
X320132Y244957D01*
X320157Y244889D01*
X320177Y244817D01*
X320192Y244739D01*
X320201Y244650D01*
X320205Y244512D01*
X320203Y244500D01*
X320206Y244481D01*
X320206Y244472D01*
X320208Y244462D01*
X320367Y243259D01*
X320846Y242102D01*
X321608Y241108D01*
X322367Y240526D01*
X322197Y240026D01*
X304253D01*
X297733Y246546D01*
X297703Y246594D01*
X297579Y246725D01*
X297512Y246804D01*
X297463Y246871D01*
X297431Y246922D01*
X297412Y246958D01*
X297403Y246978D01*
X297403Y246978D01*
X297400Y247054D01*
X297384Y247120D01*
X297250Y248139D01*
X296810Y249200D01*
X296216Y249974D01*
X296406Y250474D01*
X314747D01*
X319789Y245432D01*
D02*
G37*
G36*
X125265Y244450D02*
X125003Y244150D01*
X124770Y243802D01*
X124565Y243404D01*
X124389Y242957D01*
X124241Y242462D01*
X124121Y241918D01*
X124029Y241325D01*
X123966Y240683D01*
X123925Y239253D01*
X118653Y244525D01*
X119393Y244531D01*
X120725Y244629D01*
X121318Y244721D01*
X121862Y244841D01*
X122357Y244989D01*
X122804Y245165D01*
X123202Y245370D01*
X123550Y245603D01*
X123851Y245865D01*
X125265Y244450D01*
D02*
G37*
G36*
X144352Y242869D02*
X146032Y241733D01*
X146538Y241456D01*
X147017Y241229D01*
X147470Y241052D01*
X147895Y240926D01*
X148294Y240850D01*
X148666Y240825D01*
X148907Y238825D01*
X148492Y238796D01*
X148073Y238710D01*
X147652Y238566D01*
X147228Y238364D01*
X146800Y238105D01*
X146369Y237788D01*
X145935Y237414D01*
X145498Y236982D01*
X145267Y236725D01*
X145264Y236583D01*
X145294Y236332D01*
X145359Y236080D01*
X145458Y235828D01*
X145593Y235574D01*
X145763Y235319D01*
X145967Y235064D01*
X146207Y234807D01*
X144793Y233393D01*
X144536Y233632D01*
X144281Y233837D01*
X144026Y234007D01*
X143772Y234141D01*
X143520Y234241D01*
X143268Y234306D01*
X143017Y234335D01*
X142768Y234330D01*
X142519Y234290D01*
X142271Y234215D01*
X144549Y236493D01*
X143739Y243348D01*
X144352Y242869D01*
D02*
G37*
G36*
X121809Y234870D02*
X120937Y233858D01*
X120582Y233374D01*
X120282Y232905D01*
X120036Y232450D01*
X119845Y232009D01*
X119709Y231583D01*
X119627Y231172D01*
X119600Y230775D01*
X117600D01*
X117573Y231172D01*
X117491Y231583D01*
X117355Y232009D01*
X117164Y232450D01*
X116918Y232905D01*
X116618Y233374D01*
X116263Y233858D01*
X115854Y234357D01*
X114873Y235397D01*
X122327D01*
X121809Y234870D01*
D02*
G37*
G36*
X131507Y196317D02*
X131526Y196089D01*
X131559Y195872D01*
X131605Y195668D01*
X131663Y195475D01*
X131735Y195294D01*
X131820Y195124D01*
X131918Y194967D01*
X132029Y194821D01*
X132153Y194687D01*
X128847D01*
X128971Y194821D01*
X129082Y194967D01*
X129180Y195124D01*
X129265Y195294D01*
X129337Y195475D01*
X129395Y195668D01*
X129441Y195872D01*
X129474Y196089D01*
X129493Y196317D01*
X129500Y196557D01*
X131500D01*
X131507Y196317D01*
D02*
G37*
G36*
X157866Y196057D02*
X158041Y195910D01*
X158218Y195780D01*
X158395Y195668D01*
X158573Y195573D01*
X158752Y195495D01*
X158931Y195436D01*
X159112Y195394D01*
X159294Y195369D01*
X159476Y195362D01*
X157138Y193024D01*
X157131Y193206D01*
X157106Y193388D01*
X157064Y193569D01*
X157005Y193748D01*
X156927Y193927D01*
X156833Y194105D01*
X156720Y194282D01*
X156590Y194459D01*
X156443Y194634D01*
X156277Y194808D01*
X157692Y196223D01*
X157866Y196057D01*
D02*
G37*
G36*
X405571Y143500D02*
X405551Y143690D01*
X405491Y143860D01*
X405390Y144010D01*
X405249Y144140D01*
X405068Y144250D01*
X404847Y144340D01*
X404585Y144410D01*
X404284Y144460D01*
X403941Y144490D01*
X403559Y144500D01*
Y146500D01*
X403941Y146510D01*
X404284Y146540D01*
X404585Y146590D01*
X404847Y146660D01*
X405068Y146750D01*
X405249Y146860D01*
X405390Y146990D01*
X405491Y147140D01*
X405551Y147310D01*
X405571Y147500D01*
Y143500D01*
D02*
G37*
G36*
X400821Y147364D02*
X401041Y147183D01*
X401268Y147023D01*
X401501Y146884D01*
X401742Y146767D01*
X401990Y146671D01*
X402244Y146596D01*
X402506Y146543D01*
X402774Y146511D01*
X403050Y146500D01*
Y144500D01*
X402774Y144489D01*
X402506Y144457D01*
X402244Y144404D01*
X401990Y144329D01*
X401742Y144233D01*
X401501Y144116D01*
X401268Y143977D01*
X401041Y143817D01*
X400821Y143636D01*
X400609Y143433D01*
Y147567D01*
X400821Y147364D01*
D02*
G37*
G36*
X135890Y134275D02*
X135494Y133865D01*
X134871Y133129D01*
X134645Y132804D01*
X134476Y132507D01*
X134362Y132238D01*
X134306Y131998D01*
Y131786D01*
X134362Y131602D01*
X134476Y131446D01*
X131647Y134275D01*
X131803Y134162D01*
X131986Y134105D01*
X132199D01*
X132439Y134162D01*
X132708Y134275D01*
X133005Y134444D01*
X133330Y134671D01*
X133684Y134954D01*
X134476Y135689D01*
X135890Y134275D01*
D02*
G37*
G36*
X157841Y136169D02*
X158086Y135985D01*
X158350Y135824D01*
X158633Y135684D01*
X158935Y135567D01*
X159256Y135471D01*
X159596Y135398D01*
X159955Y135347D01*
X160332Y135318D01*
X160729Y135311D01*
X157264Y131846D01*
X157257Y132243D01*
X157228Y132620D01*
X157177Y132979D01*
X157104Y133319D01*
X157008Y133640D01*
X156891Y133942D01*
X156751Y134225D01*
X156590Y134489D01*
X156406Y134734D01*
X156200Y134960D01*
X157614Y136375D01*
X157841Y136169D01*
D02*
G37*
%LPC*%
G36*
X403500Y201421D02*
Y198000D01*
X406921D01*
X406851Y198532D01*
X406453Y199493D01*
X405819Y200319D01*
X404993Y200953D01*
X404032Y201351D01*
X403500Y201421D01*
D02*
G37*
G36*
X402500D02*
X401968Y201351D01*
X401007Y200953D01*
X400181Y200319D01*
X399547Y199493D01*
X399149Y198532D01*
X399079Y198000D01*
X402500D01*
Y201421D01*
D02*
G37*
G36*
X406921Y197000D02*
X403500D01*
Y193579D01*
X404032Y193649D01*
X404993Y194047D01*
X405819Y194681D01*
X406453Y195507D01*
X406851Y196468D01*
X406921Y197000D01*
D02*
G37*
G36*
X402500D02*
X399079D01*
X399149Y196468D01*
X399547Y195507D01*
X400181Y194681D01*
X401007Y194047D01*
X401968Y193649D01*
X402500Y193579D01*
Y197000D01*
D02*
G37*
G36*
X324000Y163723D02*
Y160500D01*
X327222D01*
X327159Y160980D01*
X326781Y161894D01*
X326179Y162679D01*
X325394Y163281D01*
X324481Y163659D01*
X324000Y163723D01*
D02*
G37*
G36*
X323000D02*
X322519Y163659D01*
X321606Y163281D01*
X320821Y162679D01*
X320219Y161894D01*
X319841Y160980D01*
X319777Y160500D01*
X323000D01*
Y163723D01*
D02*
G37*
G36*
X327222Y159500D02*
X324000D01*
Y156278D01*
X324481Y156341D01*
X325394Y156719D01*
X326179Y157321D01*
X326781Y158106D01*
X327159Y159019D01*
X327222Y159500D01*
D02*
G37*
G36*
X323000D02*
X319777D01*
X319841Y159019D01*
X320219Y158106D01*
X320821Y157321D01*
X321606Y156719D01*
X322519Y156341D01*
X323000Y156278D01*
Y159500D01*
D02*
G37*
G36*
X323500Y147722D02*
Y144500D01*
X326723D01*
X326659Y144981D01*
X326281Y145894D01*
X325679Y146679D01*
X324894Y147281D01*
X323980Y147659D01*
X323500Y147722D01*
D02*
G37*
G36*
X322500D02*
X322020Y147659D01*
X321106Y147281D01*
X320321Y146679D01*
X319719Y145894D01*
X319341Y144981D01*
X319278Y144500D01*
X322500D01*
Y147722D01*
D02*
G37*
G36*
X326723Y143500D02*
X323500D01*
Y140278D01*
X323980Y140341D01*
X324894Y140719D01*
X325679Y141321D01*
X326281Y142106D01*
X326659Y143019D01*
X326723Y143500D01*
D02*
G37*
G36*
X322500D02*
X319278D01*
X319341Y143019D01*
X319719Y142106D01*
X320321Y141321D01*
X321106Y140719D01*
X322020Y140341D01*
X322500Y140278D01*
Y143500D01*
D02*
G37*
%LPD*%
D10*
X334500Y158000D02*
Y177500D01*
Y158000D02*
X348000Y144500D01*
X386756Y183744D02*
X393000Y177500D01*
X313000Y189000D02*
Y203500D01*
X318256Y183744D02*
X386756D01*
X313000Y189000D02*
X318256Y183744D01*
X348000Y144500D02*
X349500D01*
X378500Y115500D01*
X313500Y214500D02*
X325000D01*
X305000Y206000D02*
X313500Y214500D01*
X305000Y151500D02*
Y206000D01*
X298000Y144500D02*
X305000Y151500D01*
X311000Y140000D02*
X347000Y104000D01*
X311000Y140000D02*
Y158500D01*
X347000Y104000D02*
X454000D01*
X466000Y116000D01*
Y137000D01*
X452000Y146000D02*
X461000Y137000D01*
X466000D01*
X431500Y145500D02*
X432000Y146000D01*
X442000D01*
X430500Y156000D02*
X442000D01*
X425000Y150500D02*
X430500Y156000D01*
X425000Y142000D02*
Y150500D01*
Y142000D02*
X431000Y136000D01*
X442000D01*
X452000Y156000D02*
Y156148D01*
X440648Y167500D02*
X452000Y156148D01*
X431000Y167500D02*
X440648D01*
X429500Y114500D02*
X441000Y126000D01*
X442000D01*
X408500Y115500D02*
X421500D01*
X442000Y136000D01*
X434000Y108000D02*
X442000Y116000D01*
X406000Y108000D02*
X434000D01*
X398500Y115500D02*
X406000Y108000D01*
X243500Y145500D02*
Y171000D01*
X248500Y176000D01*
X253500Y156500D02*
X258500Y151500D01*
X297000D01*
X300500Y155000D01*
Y209000D01*
X317000Y225500D01*
X346000D01*
X358000Y237500D01*
X393000D01*
X414500Y168500D02*
X453500Y207500D01*
X402000Y168500D02*
X414500D01*
X393000Y177500D02*
X402000Y168500D01*
X403000Y177500D02*
X413500D01*
X443500Y207500D01*
X408000D02*
X414500Y201000D01*
X403000Y207500D02*
X408000D01*
X403000Y187500D02*
X413000D01*
X422500Y197000D01*
Y205500D01*
X411000Y217000D02*
X422500Y205500D01*
X411000Y217000D02*
Y255000D01*
X400000D02*
X411000D01*
X393000Y248000D02*
X400000Y255000D01*
X393000Y247500D02*
Y248000D01*
Y237500D02*
Y247500D01*
X407500Y146500D02*
X408500Y145500D01*
X388500Y115500D02*
X398500D01*
Y145500D02*
X408500D01*
X298000Y139000D02*
X323000Y114000D01*
X298000Y139000D02*
Y144500D01*
X292000Y108500D02*
X298000Y114500D01*
X265257Y108500D02*
X292000D01*
X258000Y115757D02*
X265257Y108500D01*
X258000Y115757D02*
Y116500D01*
X347500Y190000D02*
X349000Y191500D01*
X348000Y189500D02*
X370000D01*
X279000Y176000D02*
X291000Y188000D01*
X268500Y176000D02*
X279000D01*
X349000Y191500D02*
Y214500D01*
X323500Y190000D02*
X325000Y191500D01*
Y214500D01*
X341500Y237000D02*
X349000Y244500D01*
X303000Y237000D02*
X341500D01*
X293000Y247000D02*
X303000Y237000D01*
X316000Y253500D02*
X325000Y244500D01*
X228000Y253500D02*
X316000D01*
X221500Y247000D02*
X228000Y253500D01*
X291000Y188000D02*
Y192000D01*
X276500Y206500D02*
X291000Y192000D01*
X246500Y206500D02*
X258500Y194500D01*
Y176000D02*
Y194500D01*
X268000Y140000D02*
X273500Y145500D01*
X268000Y116500D02*
Y140000D01*
X243500Y145500D02*
X248000Y141000D01*
Y116500D02*
Y141000D01*
X238000Y106500D02*
X248000Y116500D01*
X207500Y106500D02*
X238000D01*
X197500Y116500D02*
X207500Y106500D01*
X217500Y141000D02*
X222000Y145500D01*
X217500Y116500D02*
Y141000D01*
X217000Y176000D02*
X222000Y171000D01*
Y145500D02*
Y171000D01*
X217000Y204000D02*
X220500Y207500D01*
X217000Y176000D02*
Y204000D01*
X190500Y207500D02*
X207000Y191000D01*
Y176000D02*
Y191000D01*
X192000Y171000D02*
X197000Y176000D01*
X192000Y145500D02*
Y171000D01*
Y122000D02*
X197500Y116500D01*
X192000Y122000D02*
Y145500D01*
X151575Y141000D02*
X160764Y131811D01*
X141201Y141000D02*
X151575D01*
X132500Y132299D02*
X141201Y141000D01*
X140400Y239825D02*
X255825D01*
X263000Y247000D01*
X140400Y239200D02*
Y239825D01*
X190975Y247525D02*
X191500Y247000D01*
X126925Y247525D02*
X190975D01*
X118600Y239200D02*
X126925Y247525D01*
X145500Y207000D02*
X159500Y193000D01*
X145500Y207000D02*
Y234100D01*
X140400Y239200D02*
X145500Y234100D01*
X130500Y193000D02*
Y207500D01*
X118600Y219400D02*
X130500Y207500D01*
X118600Y219400D02*
Y239200D01*
D11*
X132500Y126000D02*
D03*
Y132299D02*
D03*
Y119701D02*
D03*
X127776Y122850D02*
D03*
Y129150D02*
D03*
D12*
X112618Y111630D02*
D03*
Y140370D02*
D03*
D13*
X109000Y231500D02*
D03*
X155000D02*
D03*
X132000D02*
D03*
X118600Y239200D02*
D03*
X140400D02*
D03*
D14*
X191500Y247000D02*
D03*
X263000D02*
D03*
D15*
X221500D02*
D03*
X293000D02*
D03*
X192000Y145500D02*
D03*
X222000D02*
D03*
X243500D02*
D03*
X273500D02*
D03*
X130500Y193000D02*
D03*
Y163000D02*
D03*
X159500Y193000D02*
D03*
Y163000D02*
D03*
D16*
X447000Y248500D02*
D03*
Y238500D02*
D03*
X150764Y111811D02*
D03*
X170764D02*
D03*
X150764Y131811D02*
D03*
X160764D02*
D03*
D17*
X452000Y116000D02*
D03*
Y126000D02*
D03*
Y136000D02*
D03*
Y146000D02*
D03*
Y156000D02*
D03*
X442000Y116000D02*
D03*
Y126000D02*
D03*
Y136000D02*
D03*
Y146000D02*
D03*
X403000Y177500D02*
D03*
Y187500D02*
D03*
Y197500D02*
D03*
Y207500D02*
D03*
Y217500D02*
D03*
Y227500D02*
D03*
Y237500D02*
D03*
Y247500D02*
D03*
X393000Y177500D02*
D03*
Y187500D02*
D03*
Y197500D02*
D03*
Y207500D02*
D03*
Y217500D02*
D03*
Y227500D02*
D03*
Y237500D02*
D03*
X443500Y207500D02*
D03*
X466000Y137000D02*
D03*
X398500Y145500D02*
D03*
X388500D02*
D03*
X378500D02*
D03*
X408500Y115500D02*
D03*
X398500D02*
D03*
X388500D02*
D03*
X378500D02*
D03*
D18*
X442000Y156000D02*
D03*
X393000Y247500D02*
D03*
X466000Y147000D02*
D03*
X408500Y145500D02*
D03*
D19*
X197500Y116500D02*
D03*
X248000D02*
D03*
D20*
X207500D02*
D03*
X258000D02*
D03*
D21*
X217500D02*
D03*
X268000D02*
D03*
D22*
X170764Y131811D02*
D03*
D23*
X453500Y207500D02*
D03*
D24*
X217000Y176000D02*
D03*
X268500D02*
D03*
D25*
X207000D02*
D03*
X197000D02*
D03*
X258500D02*
D03*
X248500D02*
D03*
D26*
X220500Y207500D02*
D03*
X190500D02*
D03*
X298000Y114500D02*
D03*
Y144500D02*
D03*
X325000Y214500D02*
D03*
Y244500D02*
D03*
X246500Y206500D02*
D03*
X276500D02*
D03*
X323000Y114000D02*
D03*
Y144000D02*
D03*
X323500Y190000D02*
D03*
Y160000D02*
D03*
X435000Y176000D02*
D03*
X465000D02*
D03*
X291500Y190000D02*
D03*
Y160000D02*
D03*
X348000Y114500D02*
D03*
Y144500D02*
D03*
X349000Y214500D02*
D03*
Y244500D02*
D03*
X370000Y189500D02*
D03*
Y159500D02*
D03*
X347500Y190000D02*
D03*
Y160000D02*
D03*
D27*
X334500Y177500D02*
D03*
X311000Y158500D02*
D03*
X431500Y145500D02*
D03*
X431000Y167500D02*
D03*
X429500Y114500D02*
D03*
X313000Y203500D02*
D03*
X253500Y156500D02*
D03*
X414500Y201000D02*
D03*
M02*
