M48
;Layer_Color=9474304
;FILE_FORMAT=2:5
INCH,LZ
;TYPE=PLATED
T1F00S00C0.02756
T2F00S00C0.02800
T3F00S00C0.03346
T4F00S00C0.03543
T5F00S00C0.03937
T6F00S00C0.03940
T7F00S00C0.04500
T8F00S00C0.05000
T9F00S00C0.06650
T10F00S00C0.07874
%
T01
X0127776Y012285
Y012915
X01325Y0126
Y0132299
Y0119701
X0192Y01455
X0222
X02435
X02735
X0263Y0247
X0293
X02215
X01915
X01595Y0193
Y0163
X01305
Y0193
T02
X04295Y01145
X04315Y01455
X0431Y01675
X04145Y0201
X03345Y01775
X0313Y02035
X0311Y01585
X02535Y01565
T03
X0298Y01145
Y01445
X0323Y0144
X0348Y01445
Y01145
X0323Y0114
X03235Y016
X03475
X037Y01595
Y01895
X03475Y019
X03235
X0325Y02145
X0349
Y02445
X0325
X0435Y0176
X0465
X02915Y019
Y016
X02765Y02065
X02465
X02205Y02075
X01905
T04
X03785Y01155
X03885
X03985
X04085
Y01455
X03985
X03885
X03785
X0442Y0146
X0452
Y0136
Y0126
Y0116
X0442
Y0126
Y0136
Y0156
X0452
X0466Y0147
Y0137
X04535Y02075
X04435
X0403
Y01975
Y01875
Y01775
X0393
Y01875
Y01975
Y02075
Y02175
X0403
Y02275
Y02375
Y02475
X0393
Y02375
Y02275
T05
X0197Y0176
X0207
X0217
X02485
X02585
X02685
T06
X01975Y01165
X02075
X02175
X0248
X0258
X0268
T07
X0150764Y0111811
Y0131811
X0160764
X0170764
Y0111811
T08
X0447Y02385
Y02485
T09
X0109Y02315
X01186Y02392
X0132Y02315
X01404Y02392
X0155Y02315
T10
X0112618Y011163
Y014037
M30
