G04 Layer_Color=255*
%FSLAX25Y25*%
%MOIN*%
G70*
G01*
G75*
%ADD12R,0.05512X0.04331*%
%ADD13R,0.04331X0.05512*%
%ADD24C,0.05906*%
%ADD25R,0.05906X0.05906*%
%ADD26R,0.06000X0.10000*%
%ADD27O,0.06000X0.10000*%
%ADD28R,0.05906X0.05906*%
%ADD29C,0.04724*%
%ADD30C,0.04000*%
G04:AMPARAMS|DCode=31|XSize=40mil|YSize=40mil|CornerRadius=10mil|HoleSize=0mil|Usage=FLASHONLY|Rotation=270.000|XOffset=0mil|YOffset=0mil|HoleType=Round|Shape=RoundedRectangle|*
%AMROUNDEDRECTD31*
21,1,0.04000,0.02000,0,0,270.0*
21,1,0.02000,0.04000,0,0,270.0*
1,1,0.02000,-0.01000,-0.01000*
1,1,0.02000,-0.01000,0.01000*
1,1,0.02000,0.01000,0.01000*
1,1,0.02000,0.01000,-0.01000*
%
%ADD31ROUNDEDRECTD31*%
D12*
X199000Y60500D02*
D03*
Y66405D02*
D03*
X208000Y60500D02*
D03*
Y66405D02*
D03*
X202500Y155453D02*
D03*
Y149547D02*
D03*
X193500Y155453D02*
D03*
Y149547D02*
D03*
X203500Y40953D02*
D03*
Y35047D02*
D03*
X194500Y40953D02*
D03*
Y35047D02*
D03*
X222500Y40453D02*
D03*
Y34547D02*
D03*
X53435Y136138D02*
D03*
Y130232D02*
D03*
X77500Y88047D02*
D03*
Y93953D02*
D03*
D13*
X99547Y111500D02*
D03*
X105453D02*
D03*
D24*
X221500Y205500D02*
D03*
Y195500D02*
D03*
X211500Y205500D02*
D03*
Y195500D02*
D03*
X201500Y205500D02*
D03*
Y195500D02*
D03*
X191500Y205500D02*
D03*
Y15500D02*
D03*
Y25500D02*
D03*
X201500Y15500D02*
D03*
Y25500D02*
D03*
X211500Y15500D02*
D03*
Y25500D02*
D03*
X221500Y15500D02*
D03*
X296500Y195000D02*
D03*
Y185000D02*
D03*
Y175000D02*
D03*
Y165000D02*
D03*
Y155000D02*
D03*
X306500Y195000D02*
D03*
Y185000D02*
D03*
Y175000D02*
D03*
Y165000D02*
D03*
X296500Y114000D02*
D03*
Y104000D02*
D03*
Y94000D02*
D03*
Y84000D02*
D03*
Y74000D02*
D03*
Y64000D02*
D03*
Y54000D02*
D03*
Y44000D02*
D03*
X306500Y114000D02*
D03*
Y104000D02*
D03*
Y94000D02*
D03*
Y84000D02*
D03*
Y74000D02*
D03*
Y64000D02*
D03*
Y54000D02*
D03*
X106500Y25500D02*
D03*
X96500D02*
D03*
X86500D02*
D03*
X76500D02*
D03*
X66500D02*
D03*
X56500D02*
D03*
X46500D02*
D03*
X36500D02*
D03*
X26500D02*
D03*
X116500Y15500D02*
D03*
X106500D02*
D03*
X96500D02*
D03*
X86500D02*
D03*
X76500D02*
D03*
X66500D02*
D03*
X56500D02*
D03*
X46500D02*
D03*
X36500D02*
D03*
X26500D02*
D03*
X106500Y205500D02*
D03*
X96500D02*
D03*
X86500D02*
D03*
X76500D02*
D03*
X66500D02*
D03*
X56500D02*
D03*
X46500D02*
D03*
X36500D02*
D03*
X26500D02*
D03*
X116500Y195500D02*
D03*
X106500D02*
D03*
X96500D02*
D03*
X86500D02*
D03*
X76500D02*
D03*
X66500D02*
D03*
X56500D02*
D03*
X46500D02*
D03*
X36500D02*
D03*
X26500D02*
D03*
X286500Y16500D02*
D03*
X296500D02*
D03*
X276500D02*
D03*
X266500D02*
D03*
X256500D02*
D03*
X246500D02*
D03*
D25*
X191500Y195500D02*
D03*
X221500Y25500D02*
D03*
X116500D02*
D03*
Y205500D02*
D03*
X306500Y16500D02*
D03*
D26*
X422500Y189000D02*
D03*
D27*
Y159000D02*
D03*
X402500D02*
D03*
Y189000D02*
D03*
D28*
X306500Y155000D02*
D03*
Y44000D02*
D03*
D29*
X333500Y158000D02*
D03*
Y188000D02*
D03*
X355500Y188500D02*
D03*
Y158500D02*
D03*
X377047Y188500D02*
D03*
Y158500D02*
D03*
X253500Y201000D02*
D03*
X273500D02*
D03*
D30*
X424291Y27886D02*
D03*
X416417D02*
D03*
X408543D02*
D03*
X400669D02*
D03*
X392795D02*
D03*
X384921D02*
D03*
X377047D02*
D03*
X369173D02*
D03*
X361299D02*
D03*
X353425D02*
D03*
Y114500D02*
D03*
X361299D02*
D03*
X369173D02*
D03*
X377047D02*
D03*
X384921D02*
D03*
X392795D02*
D03*
X400669D02*
D03*
X408543D02*
D03*
X416417D02*
D03*
D31*
X424291D02*
D03*
M02*
