G04 Layer_Color=16711935*
%FSLAX25Y25*%
%MOIN*%
G70*
G01*
G75*
%ADD37C,0.00500*%
%ADD60C,0.00394*%
%ADD61C,0.00300*%
D37*
X79193Y137083D02*
G03*
X79193Y133146I0J-1969D01*
G01*
D02*
G03*
X79193Y137083I0J1969D01*
G01*
X33425Y144957D02*
G03*
X33386Y144917I-0J-39D01*
G01*
X34449D02*
G03*
X34409Y144957I-39J-0D01*
G01*
X26043Y116906D02*
G03*
X26083Y116866I39J0D01*
G01*
Y117929D02*
G03*
X26043Y117890I0J-39D01*
G01*
X60000Y81965D02*
G03*
X60039Y82004I0J39D01*
G01*
X58976D02*
G03*
X59016Y81965I39J-0D01*
G01*
X26043Y95252D02*
G03*
X26083Y95213I39J0D01*
G01*
Y96276D02*
G03*
X26043Y96236I-0J-39D01*
G01*
X81653Y81965D02*
G03*
X81693Y82004I0J39D01*
G01*
X80630D02*
G03*
X80669Y81965I39J0D01*
G01*
X89035Y110016D02*
G03*
X88996Y110055I-39J0D01*
G01*
Y108992D02*
G03*
X89035Y109031I0J39D01*
G01*
Y131669D02*
G03*
X88996Y131709I-39J0D01*
G01*
Y130646D02*
G03*
X89035Y130685I-0J39D01*
G01*
X66890Y144957D02*
G03*
X66850Y144917I-0J-39D01*
G01*
X67913D02*
G03*
X67874Y144957I-39J-0D01*
G01*
X45236D02*
G03*
X45197Y144917I-0J-39D01*
G01*
X46260D02*
G03*
X46220Y144957I-39J0D01*
G01*
X26043Y128717D02*
G03*
X26083Y128677I39J0D01*
G01*
Y129740D02*
G03*
X26043Y129701I0J-39D01*
G01*
Y107063D02*
G03*
X26083Y107024I39J0D01*
G01*
Y108087D02*
G03*
X26043Y108047I0J-39D01*
G01*
X69842Y81965D02*
G03*
X69882Y82004I0J39D01*
G01*
X68819D02*
G03*
X68858Y81965I39J0D01*
G01*
X48189D02*
G03*
X48228Y82004I-0J39D01*
G01*
X47165D02*
G03*
X47205Y81965I39J-0D01*
G01*
X36378D02*
G03*
X36417Y82004I-0J39D01*
G01*
X35354D02*
G03*
X35394Y81965I39J0D01*
G01*
X89035Y98205D02*
G03*
X88996Y98244I-39J0D01*
G01*
Y97181D02*
G03*
X89035Y97220I0J39D01*
G01*
Y119858D02*
G03*
X88996Y119898I-39J0D01*
G01*
Y118835D02*
G03*
X89035Y118874I-0J39D01*
G01*
X78701Y144957D02*
G03*
X78661Y144917I-0J-39D01*
G01*
X79724D02*
G03*
X79685Y144957I-39J-0D01*
G01*
X57047D02*
G03*
X57008Y144917I0J-39D01*
G01*
X58071D02*
G03*
X58031Y144957I-39J-0D01*
G01*
X35394D02*
G03*
X35354Y144917I-0J-39D01*
G01*
X36417D02*
G03*
X36378Y144957I-39J0D01*
G01*
X26043Y118874D02*
G03*
X26083Y118835I39J0D01*
G01*
Y119898D02*
G03*
X26043Y119858I0J-39D01*
G01*
X58031Y81965D02*
G03*
X58071Y82004I0J39D01*
G01*
X57008D02*
G03*
X57047Y81965I39J-0D01*
G01*
X26043Y97220D02*
G03*
X26083Y97181I39J0D01*
G01*
Y98244D02*
G03*
X26043Y98205I-0J-39D01*
G01*
X79685Y81965D02*
G03*
X79724Y82004I0J39D01*
G01*
X78661D02*
G03*
X78701Y81965I39J0D01*
G01*
X46220D02*
G03*
X46260Y82004I-0J39D01*
G01*
X45197D02*
G03*
X45236Y81965I39J0D01*
G01*
X89035Y108047D02*
G03*
X88996Y108087I-39J0D01*
G01*
Y107024D02*
G03*
X89035Y107063I0J39D01*
G01*
Y129701D02*
G03*
X88996Y129740I-39J0D01*
G01*
Y128677D02*
G03*
X89035Y128717I-0J39D01*
G01*
X68858Y144957D02*
G03*
X68819Y144917I-0J-39D01*
G01*
X69882D02*
G03*
X69842Y144957I-39J-0D01*
G01*
X47205D02*
G03*
X47165Y144917I0J-39D01*
G01*
X48228D02*
G03*
X48189Y144957I-39J0D01*
G01*
X26043Y130685D02*
G03*
X26083Y130646I39J0D01*
G01*
Y131709D02*
G03*
X26043Y131669I0J-39D01*
G01*
Y109031D02*
G03*
X26083Y108992I39J0D01*
G01*
Y110055D02*
G03*
X26043Y110016I0J-39D01*
G01*
X67874Y81965D02*
G03*
X67913Y82004I0J39D01*
G01*
X66850D02*
G03*
X66890Y81965I39J0D01*
G01*
X34409D02*
G03*
X34449Y82004I0J39D01*
G01*
X33386D02*
G03*
X33425Y81965I39J0D01*
G01*
X89035Y96236D02*
G03*
X88996Y96276I-39J0D01*
G01*
Y95213D02*
G03*
X89035Y95252I0J39D01*
G01*
Y117890D02*
G03*
X88996Y117929I-39J0D01*
G01*
Y116866D02*
G03*
X89035Y116906I-0J39D01*
G01*
X80669Y144957D02*
G03*
X80630Y144917I-0J-39D01*
G01*
X81693D02*
G03*
X81653Y144957I-39J-0D01*
G01*
X59016D02*
G03*
X58976Y144917I0J-39D01*
G01*
X60039D02*
G03*
X60000Y144957I-39J-0D01*
G01*
X37362D02*
G03*
X37323Y144917I-0J-39D01*
G01*
X38386D02*
G03*
X38346Y144957I-39J0D01*
G01*
X26043Y120843D02*
G03*
X26083Y120803I39J0D01*
G01*
Y121866D02*
G03*
X26043Y121827I0J-39D01*
G01*
Y99189D02*
G03*
X26083Y99150I39J0D01*
G01*
Y100213D02*
G03*
X26043Y100173I0J-39D01*
G01*
X77716Y81965D02*
G03*
X77756Y82004I0J39D01*
G01*
X76693D02*
G03*
X76732Y81965I39J0D01*
G01*
X56063D02*
G03*
X56102Y82004I0J39D01*
G01*
X55039D02*
G03*
X55079Y81965I39J-0D01*
G01*
X44252D02*
G03*
X44291Y82004I-0J39D01*
G01*
X43228D02*
G03*
X43268Y81965I39J0D01*
G01*
X89035Y106079D02*
G03*
X88996Y106118I-39J0D01*
G01*
Y105055D02*
G03*
X89035Y105095I0J39D01*
G01*
Y127732D02*
G03*
X88996Y127772I-39J0D01*
G01*
Y126709D02*
G03*
X89035Y126748I-0J39D01*
G01*
X70827Y144957D02*
G03*
X70787Y144917I-0J-39D01*
G01*
X71850D02*
G03*
X71811Y144957I-39J-0D01*
G01*
X49173D02*
G03*
X49134Y144917I0J-39D01*
G01*
X50197D02*
G03*
X50157Y144957I-39J0D01*
G01*
X26043Y132654D02*
G03*
X26083Y132614I39J0D01*
G01*
Y133677D02*
G03*
X26043Y133638I0J-39D01*
G01*
X55079Y144957D02*
G03*
X55039Y144917I0J-39D01*
G01*
X56102D02*
G03*
X56063Y144957I-39J-0D01*
G01*
X26043Y111000D02*
G03*
X26083Y110961I39J0D01*
G01*
Y112024D02*
G03*
X26043Y111984I0J-39D01*
G01*
X65905Y81965D02*
G03*
X65945Y82004I0J39D01*
G01*
X64882D02*
G03*
X64921Y81965I39J0D01*
G01*
X26043Y89346D02*
G03*
X26083Y89307I39J0D01*
G01*
Y90370D02*
G03*
X26043Y90331I-0J-39D01*
G01*
X89035Y94268D02*
G03*
X88996Y94307I-39J0D01*
G01*
Y93244D02*
G03*
X89035Y93283I-0J39D01*
G01*
Y115921D02*
G03*
X88996Y115961I-39J0D01*
G01*
Y114898D02*
G03*
X89035Y114937I-0J39D01*
G01*
Y137575D02*
G03*
X88996Y137614I-39J0D01*
G01*
Y136551D02*
G03*
X89035Y136591I-0J39D01*
G01*
X60984Y144957D02*
G03*
X60945Y144917I-0J-39D01*
G01*
X62008D02*
G03*
X61968Y144957I-39J-0D01*
G01*
X39331D02*
G03*
X39291Y144917I-0J-39D01*
G01*
X40354D02*
G03*
X40315Y144957I-39J0D01*
G01*
X26043Y122811D02*
G03*
X26083Y122772I39J0D01*
G01*
Y123835D02*
G03*
X26043Y123795I0J-39D01*
G01*
Y101157D02*
G03*
X26083Y101118I39J0D01*
G01*
Y102181D02*
G03*
X26043Y102142I0J-39D01*
G01*
X75748Y81965D02*
G03*
X75787Y82004I0J39D01*
G01*
X74724D02*
G03*
X74764Y81965I39J0D01*
G01*
X54094D02*
G03*
X54134Y82004I0J39D01*
G01*
X53071D02*
G03*
X53110Y81965I39J-0D01*
G01*
X42283D02*
G03*
X42323Y82004I-0J39D01*
G01*
X41260D02*
G03*
X41299Y81965I39J0D01*
G01*
X89035Y104110D02*
G03*
X88996Y104150I-39J0D01*
G01*
Y103087D02*
G03*
X89035Y103126I0J39D01*
G01*
Y125764D02*
G03*
X88996Y125803I-39J0D01*
G01*
Y124740D02*
G03*
X89035Y124780I-0J39D01*
G01*
X72795Y144957D02*
G03*
X72756Y144917I-0J-39D01*
G01*
X73819D02*
G03*
X73779Y144957I-39J-0D01*
G01*
X51142D02*
G03*
X51102Y144917I0J-39D01*
G01*
X52165D02*
G03*
X52126Y144957I-39J-0D01*
G01*
X26043Y134622D02*
G03*
X26083Y134583I39J0D01*
G01*
Y135646D02*
G03*
X26043Y135606I-0J-39D01*
G01*
Y112969D02*
G03*
X26083Y112929I39J0D01*
G01*
Y113992D02*
G03*
X26043Y113953I0J-39D01*
G01*
X63937Y81965D02*
G03*
X63976Y82004I0J39D01*
G01*
X62913D02*
G03*
X62953Y81965I39J0D01*
G01*
X26043Y91315D02*
G03*
X26083Y91276I39J0D01*
G01*
Y92339D02*
G03*
X26043Y92299I-0J-39D01*
G01*
X89035D02*
G03*
X88996Y92339I-39J0D01*
G01*
Y91276D02*
G03*
X89035Y91315I-0J39D01*
G01*
Y113953D02*
G03*
X88996Y113992I-39J0D01*
G01*
Y112929D02*
G03*
X89035Y112969I-0J39D01*
G01*
Y135606D02*
G03*
X88996Y135646I-39J0D01*
G01*
Y134583D02*
G03*
X89035Y134622I-0J39D01*
G01*
X62953Y144957D02*
G03*
X62913Y144917I-0J-39D01*
G01*
X63976D02*
G03*
X63937Y144957I-39J-0D01*
G01*
X41299D02*
G03*
X41260Y144917I-0J-39D01*
G01*
X42323D02*
G03*
X42283Y144957I-39J0D01*
G01*
X26043Y124780D02*
G03*
X26083Y124740I39J0D01*
G01*
Y125803D02*
G03*
X26043Y125764I0J-39D01*
G01*
Y103126D02*
G03*
X26083Y103087I39J0D01*
G01*
Y104150D02*
G03*
X26043Y104110I0J-39D01*
G01*
X73779Y81965D02*
G03*
X73819Y82004I0J39D01*
G01*
X72756D02*
G03*
X72795Y81965I39J0D01*
G01*
X52126D02*
G03*
X52165Y82004I0J39D01*
G01*
X51102D02*
G03*
X51142Y81965I39J-0D01*
G01*
X40315D02*
G03*
X40354Y82004I-0J39D01*
G01*
X39291D02*
G03*
X39331Y81965I39J0D01*
G01*
X89035Y102142D02*
G03*
X88996Y102181I-39J0D01*
G01*
Y101118D02*
G03*
X89035Y101157I0J39D01*
G01*
Y123795D02*
G03*
X88996Y123835I-39J0D01*
G01*
Y122772D02*
G03*
X89035Y122811I-0J39D01*
G01*
X74764Y144957D02*
G03*
X74724Y144917I-0J-39D01*
G01*
X75787D02*
G03*
X75748Y144957I-39J-0D01*
G01*
X53110D02*
G03*
X53071Y144917I0J-39D01*
G01*
X54134D02*
G03*
X54094Y144957I-39J-0D01*
G01*
X26043Y136591D02*
G03*
X26083Y136551I39J0D01*
G01*
Y137614D02*
G03*
X26043Y137575I-0J-39D01*
G01*
Y114937D02*
G03*
X26083Y114898I39J0D01*
G01*
Y115961D02*
G03*
X26043Y115921I0J-39D01*
G01*
X61968Y81965D02*
G03*
X62008Y82004I0J39D01*
G01*
X60945D02*
G03*
X60984Y81965I39J0D01*
G01*
X26043Y93283D02*
G03*
X26083Y93244I39J0D01*
G01*
Y94307D02*
G03*
X26043Y94268I-0J-39D01*
G01*
X89035Y90331D02*
G03*
X88996Y90370I-39J0D01*
G01*
Y89307D02*
G03*
X89035Y89346I-0J39D01*
G01*
Y111984D02*
G03*
X88996Y112024I-39J0D01*
G01*
Y110961D02*
G03*
X89035Y111000I-0J39D01*
G01*
Y133638D02*
G03*
X88996Y133677I-39J0D01*
G01*
Y132614D02*
G03*
X89035Y132654I-0J39D01*
G01*
X64921Y144957D02*
G03*
X64882Y144917I-0J-39D01*
G01*
X65945D02*
G03*
X65905Y144957I-39J-0D01*
G01*
X43268D02*
G03*
X43228Y144917I-0J-39D01*
G01*
X44291D02*
G03*
X44252Y144957I-39J0D01*
G01*
X26043Y126748D02*
G03*
X26083Y126709I39J0D01*
G01*
Y127772D02*
G03*
X26043Y127732I0J-39D01*
G01*
Y105095D02*
G03*
X26083Y105055I39J0D01*
G01*
Y106118D02*
G03*
X26043Y106079I0J-39D01*
G01*
X71811Y81965D02*
G03*
X71850Y82004I0J39D01*
G01*
X70787D02*
G03*
X70827Y81965I39J0D01*
G01*
X50157D02*
G03*
X50197Y82004I-0J39D01*
G01*
X49134D02*
G03*
X49173Y81965I39J-0D01*
G01*
X38346D02*
G03*
X38386Y82004I-0J39D01*
G01*
X37323D02*
G03*
X37362Y81965I39J0D01*
G01*
X89035Y100173D02*
G03*
X88996Y100213I-39J0D01*
G01*
Y99150D02*
G03*
X89035Y99189I0J39D01*
G01*
Y121827D02*
G03*
X88996Y121866I-39J0D01*
G01*
Y120803D02*
G03*
X89035Y120843I-0J39D01*
G01*
X76732Y144957D02*
G03*
X76693Y144917I-0J-39D01*
G01*
X77756D02*
G03*
X77716Y144957I-39J-0D01*
G01*
X82885Y86492D02*
X83130Y85902D01*
X29980Y139051D02*
X31949Y141020D01*
X32193Y86492D02*
X82885D01*
X84508Y138807D02*
X85098Y139051D01*
X31949Y85902D02*
X32193Y86492D01*
X84508Y88115D02*
Y138807D01*
X85098Y87870D02*
Y139051D01*
X84508Y88115D02*
X85098Y87870D01*
X29980D02*
Y139051D01*
X82885Y140429D02*
X83130Y141020D01*
X29980Y87870D02*
X30571Y88115D01*
X82885Y140429D02*
X84508Y138807D01*
X83130Y141020D02*
X85098Y139051D01*
X29980D02*
X30571Y138807D01*
Y88115D02*
X32193Y86492D01*
X30571Y88115D02*
Y138807D01*
X32193Y140429D01*
X83130Y85902D02*
X85098Y87870D01*
X31949Y85902D02*
X83130D01*
X31949Y141020D02*
X83130D01*
X29980Y87870D02*
X31949Y85902D01*
Y141020D02*
X32193Y140429D01*
X82885Y86492D02*
X84508Y88115D01*
X32193Y140429D02*
X82885D01*
X34449Y141020D02*
Y141810D01*
Y143096D02*
Y143487D01*
X33386D02*
Y144917D01*
Y143096D02*
Y143487D01*
X34449Y142532D02*
Y143096D01*
Y143487D02*
Y144917D01*
Y141810D02*
Y142532D01*
X33425Y144957D02*
X34409D01*
X33386Y141020D02*
Y141810D01*
Y142532D01*
Y143096D01*
X29190Y117929D02*
X29980D01*
X27513D02*
X27904D01*
X26083Y116866D02*
X27513D01*
X27904D01*
Y117929D02*
X28468D01*
X26083D02*
X27513D01*
X28468D02*
X29190D01*
X26043Y116906D02*
Y117890D01*
X29190Y116866D02*
X29980D01*
X28468D02*
X29190D01*
X27904D02*
X28468D01*
X58976Y85112D02*
Y85902D01*
Y83434D02*
Y83826D01*
X60039Y82004D02*
Y83434D01*
Y83826D01*
X58976D02*
Y84390D01*
Y82004D02*
Y83434D01*
Y84390D02*
Y85112D01*
X59016Y81965D02*
X60000D01*
X60039Y85112D02*
Y85902D01*
Y84390D02*
Y85112D01*
Y83826D02*
Y84390D01*
X29190Y96276D02*
X29980D01*
X27513D02*
X27904D01*
X26083Y95213D02*
X27513D01*
X27904D01*
Y96276D02*
X28468D01*
X26083D02*
X27513D01*
X28468D02*
X29190D01*
X26043Y95252D02*
Y96236D01*
X29190Y95213D02*
X29980D01*
X28468D02*
X29190D01*
X27904D02*
X28468D01*
X80630Y85112D02*
Y85902D01*
Y83434D02*
Y83826D01*
X81693Y82004D02*
Y83434D01*
Y83826D01*
X80630D02*
Y84390D01*
Y82004D02*
Y83434D01*
Y84390D02*
Y85112D01*
X80669Y81965D02*
X81653D01*
X81693Y85112D02*
Y85902D01*
Y84390D02*
Y85112D01*
Y83826D02*
Y84390D01*
X85098Y108992D02*
X85888D01*
X87174D02*
X87566D01*
Y110055D02*
X88996D01*
X87174D02*
X87566D01*
X86611Y108992D02*
X87174D01*
X87566D02*
X88996D01*
X85888D02*
X86611D01*
X89035Y109031D02*
Y110016D01*
X85098Y110055D02*
X85888D01*
X86611D01*
X87174D01*
X85098Y130646D02*
X85888D01*
X87174D02*
X87566D01*
Y131709D02*
X88996D01*
X87174D02*
X87566D01*
X86611Y130646D02*
X87174D01*
X87566D02*
X88996D01*
X85888D02*
X86611D01*
X89035Y130685D02*
Y131669D01*
X85098Y131709D02*
X85888D01*
X86611D01*
X87174D01*
X67913Y141020D02*
Y141810D01*
Y143096D02*
Y143487D01*
X66850D02*
Y144917D01*
Y143096D02*
Y143487D01*
X67913Y142532D02*
Y143096D01*
Y143487D02*
Y144917D01*
Y141810D02*
Y142532D01*
X66890Y144957D02*
X67874D01*
X66850Y141020D02*
Y141810D01*
Y142532D01*
Y143096D01*
X46260Y141020D02*
Y141810D01*
Y143096D02*
Y143487D01*
X45197D02*
Y144917D01*
Y143096D02*
Y143487D01*
X46260Y142532D02*
Y143096D01*
Y143487D02*
Y144917D01*
Y141810D02*
Y142532D01*
X45236Y144957D02*
X46220D01*
X45197Y141020D02*
Y141810D01*
Y142532D01*
Y143096D01*
X29190Y129740D02*
X29980D01*
X27513D02*
X27904D01*
X26083Y128677D02*
X27513D01*
X27904D01*
Y129740D02*
X28468D01*
X26083D02*
X27513D01*
X28468D02*
X29190D01*
X26043Y128717D02*
Y129701D01*
X29190Y128677D02*
X29980D01*
X28468D02*
X29190D01*
X27904D02*
X28468D01*
X29190Y108087D02*
X29980D01*
X27513D02*
X27904D01*
X26083Y107024D02*
X27513D01*
X27904D01*
Y108087D02*
X28468D01*
X26083D02*
X27513D01*
X28468D02*
X29190D01*
X26043Y107063D02*
Y108047D01*
X29190Y107024D02*
X29980D01*
X28468D02*
X29190D01*
X27904D02*
X28468D01*
X68819Y85112D02*
Y85902D01*
Y83434D02*
Y83826D01*
X69882Y82004D02*
Y83434D01*
Y83826D01*
X68819D02*
Y84390D01*
Y82004D02*
Y83434D01*
Y84390D02*
Y85112D01*
X68858Y81965D02*
X69842D01*
X69882Y85112D02*
Y85902D01*
Y84390D02*
Y85112D01*
Y83826D02*
Y84390D01*
X47165Y85112D02*
Y85902D01*
Y83434D02*
Y83826D01*
X48228Y82004D02*
Y83434D01*
Y83826D01*
X47165D02*
Y84390D01*
Y82004D02*
Y83434D01*
Y84390D02*
Y85112D01*
X47205Y81965D02*
X48189D01*
X48228Y85112D02*
Y85902D01*
Y84390D02*
Y85112D01*
Y83826D02*
Y84390D01*
X35354Y85112D02*
Y85902D01*
Y83434D02*
Y83826D01*
X36417Y82004D02*
Y83434D01*
Y83826D01*
X35354D02*
Y84390D01*
Y82004D02*
Y83434D01*
Y84390D02*
Y85112D01*
X35394Y81965D02*
X36378D01*
X36417Y85112D02*
Y85902D01*
Y84390D02*
Y85112D01*
Y83826D02*
Y84390D01*
X85098Y97181D02*
X85888D01*
X87174D02*
X87566D01*
Y98244D02*
X88996D01*
X87174D02*
X87566D01*
X86611Y97181D02*
X87174D01*
X87566D02*
X88996D01*
X85888D02*
X86611D01*
X89035Y97220D02*
Y98205D01*
X85098Y98244D02*
X85888D01*
X86611D01*
X87174D01*
X85098Y118835D02*
X85888D01*
X87174D02*
X87566D01*
Y119898D02*
X88996D01*
X87174D02*
X87566D01*
X86611Y118835D02*
X87174D01*
X87566D02*
X88996D01*
X85888D02*
X86611D01*
X89035Y118874D02*
Y119858D01*
X85098Y119898D02*
X85888D01*
X86611D01*
X87174D01*
X79724Y141020D02*
Y141810D01*
Y143096D02*
Y143487D01*
X78661D02*
Y144917D01*
Y143096D02*
Y143487D01*
X79724Y142532D02*
Y143096D01*
Y143487D02*
Y144917D01*
Y141810D02*
Y142532D01*
X78701Y144957D02*
X79685D01*
X78661Y141020D02*
Y141810D01*
Y142532D01*
Y143096D01*
X58071Y141020D02*
Y141810D01*
Y143096D02*
Y143487D01*
X57008D02*
Y144917D01*
Y143096D02*
Y143487D01*
X58071Y142532D02*
Y143096D01*
Y143487D02*
Y144917D01*
Y141810D02*
Y142532D01*
X57047Y144957D02*
X58031D01*
X57008Y141020D02*
Y141810D01*
Y142532D01*
Y143096D01*
X36417Y141020D02*
Y141810D01*
Y143096D02*
Y143487D01*
X35354D02*
Y144917D01*
Y143096D02*
Y143487D01*
X36417Y142532D02*
Y143096D01*
Y143487D02*
Y144917D01*
Y141810D02*
Y142532D01*
X35394Y144957D02*
X36378D01*
X35354Y141020D02*
Y141810D01*
Y142532D01*
Y143096D01*
X29190Y119898D02*
X29980D01*
X27513D02*
X27904D01*
X26083Y118835D02*
X27513D01*
X27904D01*
Y119898D02*
X28468D01*
X26083D02*
X27513D01*
X28468D02*
X29190D01*
X26043Y118874D02*
Y119858D01*
X29190Y118835D02*
X29980D01*
X28468D02*
X29190D01*
X27904D02*
X28468D01*
X57008Y85112D02*
Y85902D01*
Y83434D02*
Y83826D01*
X58071Y82004D02*
Y83434D01*
Y83826D01*
X57008D02*
Y84390D01*
Y82004D02*
Y83434D01*
Y84390D02*
Y85112D01*
X57047Y81965D02*
X58031D01*
X58071Y85112D02*
Y85902D01*
Y84390D02*
Y85112D01*
Y83826D02*
Y84390D01*
X29190Y98244D02*
X29980D01*
X27513D02*
X27904D01*
X26083Y97181D02*
X27513D01*
X27904D01*
Y98244D02*
X28468D01*
X26083D02*
X27513D01*
X28468D02*
X29190D01*
X26043Y97220D02*
Y98205D01*
X29190Y97181D02*
X29980D01*
X28468D02*
X29190D01*
X27904D02*
X28468D01*
X78661Y85112D02*
Y85902D01*
Y83434D02*
Y83826D01*
X79724Y82004D02*
Y83434D01*
Y83826D01*
X78661D02*
Y84390D01*
Y82004D02*
Y83434D01*
Y84390D02*
Y85112D01*
X78701Y81965D02*
X79685D01*
X79724Y85112D02*
Y85902D01*
Y84390D02*
Y85112D01*
Y83826D02*
Y84390D01*
X45197Y85112D02*
Y85902D01*
Y83434D02*
Y83826D01*
X46260Y82004D02*
Y83434D01*
Y83826D01*
X45197D02*
Y84390D01*
Y82004D02*
Y83434D01*
Y84390D02*
Y85112D01*
X45236Y81965D02*
X46220D01*
X46260Y85112D02*
Y85902D01*
Y84390D02*
Y85112D01*
Y83826D02*
Y84390D01*
X85098Y107024D02*
X85888D01*
X87174D02*
X87566D01*
Y108087D02*
X88996D01*
X87174D02*
X87566D01*
X86611Y107024D02*
X87174D01*
X87566D02*
X88996D01*
X85888D02*
X86611D01*
X89035Y107063D02*
Y108047D01*
X85098Y108087D02*
X85888D01*
X86611D01*
X87174D01*
X85098Y128677D02*
X85888D01*
X87174D02*
X87566D01*
Y129740D02*
X88996D01*
X87174D02*
X87566D01*
X86611Y128677D02*
X87174D01*
X87566D02*
X88996D01*
X85888D02*
X86611D01*
X89035Y128717D02*
Y129701D01*
X85098Y129740D02*
X85888D01*
X86611D01*
X87174D01*
X69882Y141020D02*
Y141810D01*
Y143096D02*
Y143487D01*
X68819D02*
Y144917D01*
Y143096D02*
Y143487D01*
X69882Y142532D02*
Y143096D01*
Y143487D02*
Y144917D01*
Y141810D02*
Y142532D01*
X68858Y144957D02*
X69842D01*
X68819Y141020D02*
Y141810D01*
Y142532D01*
Y143096D01*
X48228Y141020D02*
Y141810D01*
Y143096D02*
Y143487D01*
X47165D02*
Y144917D01*
Y143096D02*
Y143487D01*
X48228Y142532D02*
Y143096D01*
Y143487D02*
Y144917D01*
Y141810D02*
Y142532D01*
X47205Y144957D02*
X48189D01*
X47165Y141020D02*
Y141810D01*
Y142532D01*
Y143096D01*
X29190Y131709D02*
X29980D01*
X27513D02*
X27904D01*
X26083Y130646D02*
X27513D01*
X27904D01*
Y131709D02*
X28468D01*
X26083D02*
X27513D01*
X28468D02*
X29190D01*
X26043Y130685D02*
Y131669D01*
X29190Y130646D02*
X29980D01*
X28468D02*
X29190D01*
X27904D02*
X28468D01*
X29190Y110055D02*
X29980D01*
X27513D02*
X27904D01*
X26083Y108992D02*
X27513D01*
X27904D01*
Y110055D02*
X28468D01*
X26083D02*
X27513D01*
X28468D02*
X29190D01*
X26043Y109031D02*
Y110016D01*
X29190Y108992D02*
X29980D01*
X28468D02*
X29190D01*
X27904D02*
X28468D01*
X66850Y85112D02*
Y85902D01*
Y83434D02*
Y83826D01*
X67913Y82004D02*
Y83434D01*
Y83826D01*
X66850D02*
Y84390D01*
Y82004D02*
Y83434D01*
Y84390D02*
Y85112D01*
X66890Y81965D02*
X67874D01*
X67913Y85112D02*
Y85902D01*
Y84390D02*
Y85112D01*
Y83826D02*
Y84390D01*
X33386Y85112D02*
Y85902D01*
Y83434D02*
Y83826D01*
X34449Y82004D02*
Y83434D01*
Y83826D01*
X33386D02*
Y84390D01*
Y82004D02*
Y83434D01*
Y84390D02*
Y85112D01*
X33425Y81965D02*
X34409D01*
X34449Y85112D02*
Y85902D01*
Y84390D02*
Y85112D01*
Y83826D02*
Y84390D01*
X85098Y95213D02*
X85888D01*
X87174D02*
X87566D01*
Y96276D02*
X88996D01*
X87174D02*
X87566D01*
X86611Y95213D02*
X87174D01*
X87566D02*
X88996D01*
X85888D02*
X86611D01*
X89035Y95252D02*
Y96236D01*
X85098Y96276D02*
X85888D01*
X86611D01*
X87174D01*
X85098Y116866D02*
X85888D01*
X87174D02*
X87566D01*
Y117929D02*
X88996D01*
X87174D02*
X87566D01*
X86611Y116866D02*
X87174D01*
X87566D02*
X88996D01*
X85888D02*
X86611D01*
X89035Y116906D02*
Y117890D01*
X85098Y117929D02*
X85888D01*
X86611D01*
X87174D01*
X81693Y141020D02*
Y141810D01*
Y143096D02*
Y143487D01*
X80630D02*
Y144917D01*
Y143096D02*
Y143487D01*
X81693Y142532D02*
Y143096D01*
Y143487D02*
Y144917D01*
Y141810D02*
Y142532D01*
X80669Y144957D02*
X81653D01*
X80630Y141020D02*
Y141810D01*
Y142532D01*
Y143096D01*
X60039Y141020D02*
Y141810D01*
Y143096D02*
Y143487D01*
X58976D02*
Y144917D01*
Y143096D02*
Y143487D01*
X60039Y142532D02*
Y143096D01*
Y143487D02*
Y144917D01*
Y141810D02*
Y142532D01*
X59016Y144957D02*
X60000D01*
X58976Y141020D02*
Y141810D01*
Y142532D01*
Y143096D01*
X38386Y141020D02*
Y141810D01*
Y143096D02*
Y143487D01*
X37323D02*
Y144917D01*
Y143096D02*
Y143487D01*
X38386Y142532D02*
Y143096D01*
Y143487D02*
Y144917D01*
Y141810D02*
Y142532D01*
X37362Y144957D02*
X38346D01*
X37323Y141020D02*
Y141810D01*
Y142532D01*
Y143096D01*
X29190Y121866D02*
X29980D01*
X27513D02*
X27904D01*
X26083Y120803D02*
X27513D01*
X27904D01*
Y121866D02*
X28468D01*
X26083D02*
X27513D01*
X28468D02*
X29190D01*
X26043Y120843D02*
Y121827D01*
X29190Y120803D02*
X29980D01*
X28468D02*
X29190D01*
X27904D02*
X28468D01*
X29190Y100213D02*
X29980D01*
X27513D02*
X27904D01*
X26083Y99150D02*
X27513D01*
X27904D01*
Y100213D02*
X28468D01*
X26083D02*
X27513D01*
X28468D02*
X29190D01*
X26043Y99189D02*
Y100173D01*
X29190Y99150D02*
X29980D01*
X28468D02*
X29190D01*
X27904D02*
X28468D01*
X76693Y85112D02*
Y85902D01*
Y83434D02*
Y83826D01*
X77756Y82004D02*
Y83434D01*
Y83826D01*
X76693D02*
Y84390D01*
Y82004D02*
Y83434D01*
Y84390D02*
Y85112D01*
X76732Y81965D02*
X77716D01*
X77756Y85112D02*
Y85902D01*
Y84390D02*
Y85112D01*
Y83826D02*
Y84390D01*
X55039Y85112D02*
Y85902D01*
Y83434D02*
Y83826D01*
X56102Y82004D02*
Y83434D01*
Y83826D01*
X55039D02*
Y84390D01*
Y82004D02*
Y83434D01*
Y84390D02*
Y85112D01*
X55079Y81965D02*
X56063D01*
X56102Y85112D02*
Y85902D01*
Y84390D02*
Y85112D01*
Y83826D02*
Y84390D01*
X43228Y85112D02*
Y85902D01*
Y83434D02*
Y83826D01*
X44291Y82004D02*
Y83434D01*
Y83826D01*
X43228D02*
Y84390D01*
Y82004D02*
Y83434D01*
Y84390D02*
Y85112D01*
X43268Y81965D02*
X44252D01*
X44291Y85112D02*
Y85902D01*
Y84390D02*
Y85112D01*
Y83826D02*
Y84390D01*
X85098Y105055D02*
X85888D01*
X87174D02*
X87566D01*
Y106118D02*
X88996D01*
X87174D02*
X87566D01*
X86611Y105055D02*
X87174D01*
X87566D02*
X88996D01*
X85888D02*
X86611D01*
X89035Y105095D02*
Y106079D01*
X85098Y106118D02*
X85888D01*
X86611D01*
X87174D01*
X85098Y126709D02*
X85888D01*
X87174D02*
X87566D01*
Y127772D02*
X88996D01*
X87174D02*
X87566D01*
X86611Y126709D02*
X87174D01*
X87566D02*
X88996D01*
X85888D02*
X86611D01*
X89035Y126748D02*
Y127732D01*
X85098Y127772D02*
X85888D01*
X86611D01*
X87174D01*
X71850Y141020D02*
Y141810D01*
Y143096D02*
Y143487D01*
X70787D02*
Y144917D01*
Y143096D02*
Y143487D01*
X71850Y142532D02*
Y143096D01*
Y143487D02*
Y144917D01*
Y141810D02*
Y142532D01*
X70827Y144957D02*
X71811D01*
X70787Y141020D02*
Y141810D01*
Y142532D01*
Y143096D01*
X50197Y141020D02*
Y141810D01*
Y143096D02*
Y143487D01*
X49134D02*
Y144917D01*
Y143096D02*
Y143487D01*
X50197Y142532D02*
Y143096D01*
Y143487D02*
Y144917D01*
Y141810D02*
Y142532D01*
X49173Y144957D02*
X50157D01*
X49134Y141020D02*
Y141810D01*
Y142532D01*
Y143096D01*
X29190Y133677D02*
X29980D01*
X27513D02*
X27904D01*
X26083Y132614D02*
X27513D01*
X27904D01*
Y133677D02*
X28468D01*
X26083D02*
X27513D01*
X28468D02*
X29190D01*
X26043Y132654D02*
Y133638D01*
X29190Y132614D02*
X29980D01*
X28468D02*
X29190D01*
X27904D02*
X28468D01*
X56102Y141020D02*
Y141810D01*
Y143096D02*
Y143487D01*
X55039D02*
Y144917D01*
Y143096D02*
Y143487D01*
X56102Y142532D02*
Y143096D01*
Y143487D02*
Y144917D01*
Y141810D02*
Y142532D01*
X55079Y144957D02*
X56063D01*
X55039Y141020D02*
Y141810D01*
Y142532D01*
Y143096D01*
X29190Y112024D02*
X29980D01*
X27513D02*
X27904D01*
X26083Y110961D02*
X27513D01*
X27904D01*
Y112024D02*
X28468D01*
X26083D02*
X27513D01*
X28468D02*
X29190D01*
X26043Y111000D02*
Y111984D01*
X29190Y110961D02*
X29980D01*
X28468D02*
X29190D01*
X27904D02*
X28468D01*
X64882Y85112D02*
Y85902D01*
Y83434D02*
Y83826D01*
X65945Y82004D02*
Y83434D01*
Y83826D01*
X64882D02*
Y84390D01*
Y82004D02*
Y83434D01*
Y84390D02*
Y85112D01*
X64921Y81965D02*
X65905D01*
X65945Y85112D02*
Y85902D01*
Y84390D02*
Y85112D01*
Y83826D02*
Y84390D01*
X29190Y90370D02*
X29980D01*
X27513D02*
X27904D01*
X26083Y89307D02*
X27513D01*
X27904D01*
Y90370D02*
X28468D01*
X26083D02*
X27513D01*
X28468D02*
X29190D01*
X26043Y89346D02*
Y90331D01*
X29190Y89307D02*
X29980D01*
X28468D02*
X29190D01*
X27904D02*
X28468D01*
X85098Y93244D02*
X85888D01*
X87174D02*
X87566D01*
Y94307D02*
X88996D01*
X87174D02*
X87566D01*
X86611Y93244D02*
X87174D01*
X87566D02*
X88996D01*
X85888D02*
X86611D01*
X89035Y93283D02*
Y94268D01*
X85098Y94307D02*
X85888D01*
X86611D01*
X87174D01*
X85098Y114898D02*
X85888D01*
X87174D02*
X87566D01*
Y115961D02*
X88996D01*
X87174D02*
X87566D01*
X86611Y114898D02*
X87174D01*
X87566D02*
X88996D01*
X85888D02*
X86611D01*
X89035Y114937D02*
Y115921D01*
X85098Y115961D02*
X85888D01*
X86611D01*
X87174D01*
X85098Y136551D02*
X85888D01*
X87174D02*
X87566D01*
Y137614D02*
X88996D01*
X87174D02*
X87566D01*
X86611Y136551D02*
X87174D01*
X87566D02*
X88996D01*
X85888D02*
X86611D01*
X89035Y136591D02*
Y137575D01*
X85098Y137614D02*
X85888D01*
X86611D01*
X87174D01*
X62008Y141020D02*
Y141810D01*
Y143096D02*
Y143487D01*
X60945D02*
Y144917D01*
Y143096D02*
Y143487D01*
X62008Y142532D02*
Y143096D01*
Y143487D02*
Y144917D01*
Y141810D02*
Y142532D01*
X60984Y144957D02*
X61968D01*
X60945Y141020D02*
Y141810D01*
Y142532D01*
Y143096D01*
X40354Y141020D02*
Y141810D01*
Y143096D02*
Y143487D01*
X39291D02*
Y144917D01*
Y143096D02*
Y143487D01*
X40354Y142532D02*
Y143096D01*
Y143487D02*
Y144917D01*
Y141810D02*
Y142532D01*
X39331Y144957D02*
X40315D01*
X39291Y141020D02*
Y141810D01*
Y142532D01*
Y143096D01*
X29190Y123835D02*
X29980D01*
X27513D02*
X27904D01*
X26083Y122772D02*
X27513D01*
X27904D01*
Y123835D02*
X28468D01*
X26083D02*
X27513D01*
X28468D02*
X29190D01*
X26043Y122811D02*
Y123795D01*
X29190Y122772D02*
X29980D01*
X28468D02*
X29190D01*
X27904D02*
X28468D01*
X29190Y102181D02*
X29980D01*
X27513D02*
X27904D01*
X26083Y101118D02*
X27513D01*
X27904D01*
Y102181D02*
X28468D01*
X26083D02*
X27513D01*
X28468D02*
X29190D01*
X26043Y101157D02*
Y102142D01*
X29190Y101118D02*
X29980D01*
X28468D02*
X29190D01*
X27904D02*
X28468D01*
X74724Y85112D02*
Y85902D01*
Y83434D02*
Y83826D01*
X75787Y82004D02*
Y83434D01*
Y83826D01*
X74724D02*
Y84390D01*
Y82004D02*
Y83434D01*
Y84390D02*
Y85112D01*
X74764Y81965D02*
X75748D01*
X75787Y85112D02*
Y85902D01*
Y84390D02*
Y85112D01*
Y83826D02*
Y84390D01*
X53071Y85112D02*
Y85902D01*
Y83434D02*
Y83826D01*
X54134Y82004D02*
Y83434D01*
Y83826D01*
X53071D02*
Y84390D01*
Y82004D02*
Y83434D01*
Y84390D02*
Y85112D01*
X53110Y81965D02*
X54094D01*
X54134Y85112D02*
Y85902D01*
Y84390D02*
Y85112D01*
Y83826D02*
Y84390D01*
X41260Y85112D02*
Y85902D01*
Y83434D02*
Y83826D01*
X42323Y82004D02*
Y83434D01*
Y83826D01*
X41260D02*
Y84390D01*
Y82004D02*
Y83434D01*
Y84390D02*
Y85112D01*
X41299Y81965D02*
X42283D01*
X42323Y85112D02*
Y85902D01*
Y84390D02*
Y85112D01*
Y83826D02*
Y84390D01*
X85098Y103087D02*
X85888D01*
X87174D02*
X87566D01*
Y104150D02*
X88996D01*
X87174D02*
X87566D01*
X86611Y103087D02*
X87174D01*
X87566D02*
X88996D01*
X85888D02*
X86611D01*
X89035Y103126D02*
Y104110D01*
X85098Y104150D02*
X85888D01*
X86611D01*
X87174D01*
X85098Y124740D02*
X85888D01*
X87174D02*
X87566D01*
Y125803D02*
X88996D01*
X87174D02*
X87566D01*
X86611Y124740D02*
X87174D01*
X87566D02*
X88996D01*
X85888D02*
X86611D01*
X89035Y124780D02*
Y125764D01*
X85098Y125803D02*
X85888D01*
X86611D01*
X87174D01*
X73819Y141020D02*
Y141810D01*
Y143096D02*
Y143487D01*
X72756D02*
Y144917D01*
Y143096D02*
Y143487D01*
X73819Y142532D02*
Y143096D01*
Y143487D02*
Y144917D01*
Y141810D02*
Y142532D01*
X72795Y144957D02*
X73779D01*
X72756Y141020D02*
Y141810D01*
Y142532D01*
Y143096D01*
X52165Y141020D02*
Y141810D01*
Y143096D02*
Y143487D01*
X51102D02*
Y144917D01*
Y143096D02*
Y143487D01*
X52165Y142532D02*
Y143096D01*
Y143487D02*
Y144917D01*
Y141810D02*
Y142532D01*
X51142Y144957D02*
X52126D01*
X51102Y141020D02*
Y141810D01*
Y142532D01*
Y143096D01*
X29190Y135646D02*
X29980D01*
X27513D02*
X27904D01*
X26083Y134583D02*
X27513D01*
X27904D01*
Y135646D02*
X28468D01*
X26083D02*
X27513D01*
X28468D02*
X29190D01*
X26043Y134622D02*
Y135606D01*
X29190Y134583D02*
X29980D01*
X28468D02*
X29190D01*
X27904D02*
X28468D01*
X29190Y113992D02*
X29980D01*
X27513D02*
X27904D01*
X26083Y112929D02*
X27513D01*
X27904D01*
Y113992D02*
X28468D01*
X26083D02*
X27513D01*
X28468D02*
X29190D01*
X26043Y112969D02*
Y113953D01*
X29190Y112929D02*
X29980D01*
X28468D02*
X29190D01*
X27904D02*
X28468D01*
X62913Y85112D02*
Y85902D01*
Y83434D02*
Y83826D01*
X63976Y82004D02*
Y83434D01*
Y83826D01*
X62913D02*
Y84390D01*
Y82004D02*
Y83434D01*
Y84390D02*
Y85112D01*
X62953Y81965D02*
X63937D01*
X63976Y85112D02*
Y85902D01*
Y84390D02*
Y85112D01*
Y83826D02*
Y84390D01*
X29190Y92339D02*
X29980D01*
X27513D02*
X27904D01*
X26083Y91276D02*
X27513D01*
X27904D01*
Y92339D02*
X28468D01*
X26083D02*
X27513D01*
X28468D02*
X29190D01*
X26043Y91315D02*
Y92299D01*
X29190Y91276D02*
X29980D01*
X28468D02*
X29190D01*
X27904D02*
X28468D01*
X85098D02*
X85888D01*
X87174D02*
X87566D01*
Y92339D02*
X88996D01*
X87174D02*
X87566D01*
X86611Y91276D02*
X87174D01*
X87566D02*
X88996D01*
X85888D02*
X86611D01*
X89035Y91315D02*
Y92299D01*
X85098Y92339D02*
X85888D01*
X86611D01*
X87174D01*
X85098Y112929D02*
X85888D01*
X87174D02*
X87566D01*
Y113992D02*
X88996D01*
X87174D02*
X87566D01*
X86611Y112929D02*
X87174D01*
X87566D02*
X88996D01*
X85888D02*
X86611D01*
X89035Y112969D02*
Y113953D01*
X85098Y113992D02*
X85888D01*
X86611D01*
X87174D01*
X85098Y134583D02*
X85888D01*
X87174D02*
X87566D01*
Y135646D02*
X88996D01*
X87174D02*
X87566D01*
X86611Y134583D02*
X87174D01*
X87566D02*
X88996D01*
X85888D02*
X86611D01*
X89035Y134622D02*
Y135606D01*
X85098Y135646D02*
X85888D01*
X86611D01*
X87174D01*
X63976Y141020D02*
Y141810D01*
Y143096D02*
Y143487D01*
X62913D02*
Y144917D01*
Y143096D02*
Y143487D01*
X63976Y142532D02*
Y143096D01*
Y143487D02*
Y144917D01*
Y141810D02*
Y142532D01*
X62953Y144957D02*
X63937D01*
X62913Y141020D02*
Y141810D01*
Y142532D01*
Y143096D01*
X42323Y141020D02*
Y141810D01*
Y143096D02*
Y143487D01*
X41260D02*
Y144917D01*
Y143096D02*
Y143487D01*
X42323Y142532D02*
Y143096D01*
Y143487D02*
Y144917D01*
Y141810D02*
Y142532D01*
X41299Y144957D02*
X42283D01*
X41260Y141020D02*
Y141810D01*
Y142532D01*
Y143096D01*
X29190Y125803D02*
X29980D01*
X27513D02*
X27904D01*
X26083Y124740D02*
X27513D01*
X27904D01*
Y125803D02*
X28468D01*
X26083D02*
X27513D01*
X28468D02*
X29190D01*
X26043Y124780D02*
Y125764D01*
X29190Y124740D02*
X29980D01*
X28468D02*
X29190D01*
X27904D02*
X28468D01*
X29190Y104150D02*
X29980D01*
X27513D02*
X27904D01*
X26083Y103087D02*
X27513D01*
X27904D01*
Y104150D02*
X28468D01*
X26083D02*
X27513D01*
X28468D02*
X29190D01*
X26043Y103126D02*
Y104110D01*
X29190Y103087D02*
X29980D01*
X28468D02*
X29190D01*
X27904D02*
X28468D01*
X72756Y85112D02*
Y85902D01*
Y83434D02*
Y83826D01*
X73819Y82004D02*
Y83434D01*
Y83826D01*
X72756D02*
Y84390D01*
Y82004D02*
Y83434D01*
Y84390D02*
Y85112D01*
X72795Y81965D02*
X73779D01*
X73819Y85112D02*
Y85902D01*
Y84390D02*
Y85112D01*
Y83826D02*
Y84390D01*
X51102Y85112D02*
Y85902D01*
Y83434D02*
Y83826D01*
X52165Y82004D02*
Y83434D01*
Y83826D01*
X51102D02*
Y84390D01*
Y82004D02*
Y83434D01*
Y84390D02*
Y85112D01*
X51142Y81965D02*
X52126D01*
X52165Y85112D02*
Y85902D01*
Y84390D02*
Y85112D01*
Y83826D02*
Y84390D01*
X39291Y85112D02*
Y85902D01*
Y83434D02*
Y83826D01*
X40354Y82004D02*
Y83434D01*
Y83826D01*
X39291D02*
Y84390D01*
Y82004D02*
Y83434D01*
Y84390D02*
Y85112D01*
X39331Y81965D02*
X40315D01*
X40354Y85112D02*
Y85902D01*
Y84390D02*
Y85112D01*
Y83826D02*
Y84390D01*
X85098Y101118D02*
X85888D01*
X87174D02*
X87566D01*
Y102181D02*
X88996D01*
X87174D02*
X87566D01*
X86611Y101118D02*
X87174D01*
X87566D02*
X88996D01*
X85888D02*
X86611D01*
X89035Y101157D02*
Y102142D01*
X85098Y102181D02*
X85888D01*
X86611D01*
X87174D01*
X85098Y122772D02*
X85888D01*
X87174D02*
X87566D01*
Y123835D02*
X88996D01*
X87174D02*
X87566D01*
X86611Y122772D02*
X87174D01*
X87566D02*
X88996D01*
X85888D02*
X86611D01*
X89035Y122811D02*
Y123795D01*
X85098Y123835D02*
X85888D01*
X86611D01*
X87174D01*
X75787Y141020D02*
Y141810D01*
Y143096D02*
Y143487D01*
X74724D02*
Y144917D01*
Y143096D02*
Y143487D01*
X75787Y142532D02*
Y143096D01*
Y143487D02*
Y144917D01*
Y141810D02*
Y142532D01*
X74764Y144957D02*
X75748D01*
X74724Y141020D02*
Y141810D01*
Y142532D01*
Y143096D01*
X54134Y141020D02*
Y141810D01*
Y143096D02*
Y143487D01*
X53071D02*
Y144917D01*
Y143096D02*
Y143487D01*
X54134Y142532D02*
Y143096D01*
Y143487D02*
Y144917D01*
Y141810D02*
Y142532D01*
X53110Y144957D02*
X54094D01*
X53071Y141020D02*
Y141810D01*
Y142532D01*
Y143096D01*
X29190Y137614D02*
X29980D01*
X27513D02*
X27904D01*
X26083Y136551D02*
X27513D01*
X27904D01*
Y137614D02*
X28468D01*
X26083D02*
X27513D01*
X28468D02*
X29190D01*
X26043Y136591D02*
Y137575D01*
X29190Y136551D02*
X29980D01*
X28468D02*
X29190D01*
X27904D02*
X28468D01*
X29190Y115961D02*
X29980D01*
X27513D02*
X27904D01*
X26083Y114898D02*
X27513D01*
X27904D01*
Y115961D02*
X28468D01*
X26083D02*
X27513D01*
X28468D02*
X29190D01*
X26043Y114937D02*
Y115921D01*
X29190Y114898D02*
X29980D01*
X28468D02*
X29190D01*
X27904D02*
X28468D01*
X60945Y85112D02*
Y85902D01*
Y83434D02*
Y83826D01*
X62008Y82004D02*
Y83434D01*
Y83826D01*
X60945D02*
Y84390D01*
Y82004D02*
Y83434D01*
Y84390D02*
Y85112D01*
X60984Y81965D02*
X61968D01*
X62008Y85112D02*
Y85902D01*
Y84390D02*
Y85112D01*
Y83826D02*
Y84390D01*
X29190Y94307D02*
X29980D01*
X27513D02*
X27904D01*
X26083Y93244D02*
X27513D01*
X27904D01*
Y94307D02*
X28468D01*
X26083D02*
X27513D01*
X28468D02*
X29190D01*
X26043Y93283D02*
Y94268D01*
X29190Y93244D02*
X29980D01*
X28468D02*
X29190D01*
X27904D02*
X28468D01*
X85098Y89307D02*
X85888D01*
X87174D02*
X87566D01*
Y90370D02*
X88996D01*
X87174D02*
X87566D01*
X86611Y89307D02*
X87174D01*
X87566D02*
X88996D01*
X85888D02*
X86611D01*
X89035Y89346D02*
Y90331D01*
X85098Y90370D02*
X85888D01*
X86611D01*
X87174D01*
X85098Y110961D02*
X85888D01*
X87174D02*
X87566D01*
Y112024D02*
X88996D01*
X87174D02*
X87566D01*
X86611Y110961D02*
X87174D01*
X87566D02*
X88996D01*
X85888D02*
X86611D01*
X89035Y111000D02*
Y111984D01*
X85098Y112024D02*
X85888D01*
X86611D01*
X87174D01*
X85098Y132614D02*
X85888D01*
X87174D02*
X87566D01*
Y133677D02*
X88996D01*
X87174D02*
X87566D01*
X86611Y132614D02*
X87174D01*
X87566D02*
X88996D01*
X85888D02*
X86611D01*
X89035Y132654D02*
Y133638D01*
X85098Y133677D02*
X85888D01*
X86611D01*
X87174D01*
X65945Y141020D02*
Y141810D01*
Y143096D02*
Y143487D01*
X64882D02*
Y144917D01*
Y143096D02*
Y143487D01*
X65945Y142532D02*
Y143096D01*
Y143487D02*
Y144917D01*
Y141810D02*
Y142532D01*
X64921Y144957D02*
X65905D01*
X64882Y141020D02*
Y141810D01*
Y142532D01*
Y143096D01*
X44291Y141020D02*
Y141810D01*
Y143096D02*
Y143487D01*
X43228D02*
Y144917D01*
Y143096D02*
Y143487D01*
X44291Y142532D02*
Y143096D01*
Y143487D02*
Y144917D01*
Y141810D02*
Y142532D01*
X43268Y144957D02*
X44252D01*
X43228Y141020D02*
Y141810D01*
Y142532D01*
Y143096D01*
X29190Y127772D02*
X29980D01*
X27513D02*
X27904D01*
X26083Y126709D02*
X27513D01*
X27904D01*
Y127772D02*
X28468D01*
X26083D02*
X27513D01*
X28468D02*
X29190D01*
X26043Y126748D02*
Y127732D01*
X29190Y126709D02*
X29980D01*
X28468D02*
X29190D01*
X27904D02*
X28468D01*
X29190Y106118D02*
X29980D01*
X27513D02*
X27904D01*
X26083Y105055D02*
X27513D01*
X27904D01*
Y106118D02*
X28468D01*
X26083D02*
X27513D01*
X28468D02*
X29190D01*
X26043Y105095D02*
Y106079D01*
X29190Y105055D02*
X29980D01*
X28468D02*
X29190D01*
X27904D02*
X28468D01*
X70787Y85112D02*
Y85902D01*
Y83434D02*
Y83826D01*
X71850Y82004D02*
Y83434D01*
Y83826D01*
X70787D02*
Y84390D01*
Y82004D02*
Y83434D01*
Y84390D02*
Y85112D01*
X70827Y81965D02*
X71811D01*
X71850Y85112D02*
Y85902D01*
Y84390D02*
Y85112D01*
Y83826D02*
Y84390D01*
X49134Y85112D02*
Y85902D01*
Y83434D02*
Y83826D01*
X50197Y82004D02*
Y83434D01*
Y83826D01*
X49134D02*
Y84390D01*
Y82004D02*
Y83434D01*
Y84390D02*
Y85112D01*
X49173Y81965D02*
X50157D01*
X50197Y85112D02*
Y85902D01*
Y84390D02*
Y85112D01*
Y83826D02*
Y84390D01*
X37323Y85112D02*
Y85902D01*
Y83434D02*
Y83826D01*
X38386Y82004D02*
Y83434D01*
Y83826D01*
X37323D02*
Y84390D01*
Y82004D02*
Y83434D01*
Y84390D02*
Y85112D01*
X37362Y81965D02*
X38346D01*
X38386Y85112D02*
Y85902D01*
Y84390D02*
Y85112D01*
Y83826D02*
Y84390D01*
X85098Y99150D02*
X85888D01*
X87174D02*
X87566D01*
Y100213D02*
X88996D01*
X87174D02*
X87566D01*
X86611Y99150D02*
X87174D01*
X87566D02*
X88996D01*
X85888D02*
X86611D01*
X89035Y99189D02*
Y100173D01*
X85098Y100213D02*
X85888D01*
X86611D01*
X87174D01*
X85098Y120803D02*
X85888D01*
X87174D02*
X87566D01*
Y121866D02*
X88996D01*
X87174D02*
X87566D01*
X86611Y120803D02*
X87174D01*
X87566D02*
X88996D01*
X85888D02*
X86611D01*
X89035Y120843D02*
Y121827D01*
X85098Y121866D02*
X85888D01*
X86611D01*
X87174D01*
X77756Y141020D02*
Y141810D01*
Y143096D02*
Y143487D01*
X76693D02*
Y144917D01*
Y143096D02*
Y143487D01*
X77756Y142532D02*
Y143096D01*
Y143487D02*
Y144917D01*
Y141810D02*
Y142532D01*
X76732Y144957D02*
X77716D01*
X76693Y141020D02*
Y141810D01*
Y142532D01*
Y143096D01*
D60*
X270760Y129193D02*
G03*
X270760Y129193I-1181J0D01*
G01*
X196146Y59122D02*
X201854D01*
X196146Y67783D02*
X201854D01*
Y59122D02*
Y67783D01*
X196146Y59122D02*
Y67783D01*
X205146Y59122D02*
X210854D01*
X205146Y67783D02*
X210854D01*
Y59122D02*
Y67783D01*
X205146Y59122D02*
Y67783D01*
X199646Y156831D02*
X205354D01*
X199646Y148169D02*
X205354D01*
X199646D02*
Y156831D01*
X205354Y148169D02*
Y156831D01*
X190646D02*
X196354D01*
X190646Y148169D02*
X196354D01*
X190646D02*
Y156831D01*
X196354Y148169D02*
Y156831D01*
X98169Y108646D02*
Y114354D01*
X106831Y108646D02*
Y114354D01*
X98169Y108646D02*
X106831D01*
X98169Y114354D02*
X106831D01*
X242646Y103831D02*
X248354D01*
X242646Y95169D02*
X248354D01*
Y103831D01*
X242646Y95169D02*
Y103831D01*
X231169Y37646D02*
Y43354D01*
X239831Y37646D02*
Y43354D01*
X231169D02*
X239831D01*
X231169Y37646D02*
X239831D01*
X200646Y42331D02*
X206354D01*
X200646Y33669D02*
X206354D01*
X200646D02*
Y42331D01*
X206354Y33669D02*
Y42331D01*
X191646D02*
X197354D01*
X191646Y33669D02*
X197354D01*
X191646D02*
Y42331D01*
X197354Y33669D02*
Y42331D01*
X122831Y94146D02*
Y99854D01*
X114169Y94146D02*
Y99854D01*
Y94146D02*
X122831D01*
X114169Y99854D02*
X122831D01*
X120878Y103146D02*
Y108854D01*
X112216Y103146D02*
Y108854D01*
Y103146D02*
X120878D01*
X112216Y108854D02*
X120878D01*
X122831Y121146D02*
Y126854D01*
X114169Y121146D02*
Y126854D01*
Y121146D02*
X122831D01*
X114169Y126854D02*
X122831D01*
Y130146D02*
Y135854D01*
X114169Y130146D02*
Y135854D01*
Y130146D02*
X122831D01*
X114169Y135854D02*
X122831D01*
X121463Y139146D02*
Y144854D01*
X112801Y139146D02*
Y144854D01*
Y139146D02*
X121463D01*
X112801Y144854D02*
X121463D01*
X7803Y122406D02*
Y135594D01*
X18197Y122406D02*
Y135594D01*
X7803Y122406D02*
X18197D01*
X7803Y135594D02*
X18197D01*
X229169Y164146D02*
Y169854D01*
X237831Y164146D02*
Y169854D01*
X229169D02*
X237831D01*
X229169Y164146D02*
X237831D01*
X196646Y169169D02*
X202354D01*
X196646Y177831D02*
X202354D01*
X196646Y169169D02*
Y177831D01*
X202354Y169169D02*
Y177831D01*
X405905Y130347D02*
X419095D01*
X405905Y140740D02*
X419095D01*
Y130347D02*
Y140740D01*
X405905Y130347D02*
Y140740D01*
X12146Y96567D02*
X17854D01*
X12146Y87906D02*
X17854D01*
Y96567D01*
X12146Y87906D02*
Y96567D01*
X64232Y162244D02*
Y167756D01*
X55768Y162244D02*
Y167756D01*
Y162244D02*
X64232D01*
X55768Y167756D02*
X64232D01*
X33169Y153646D02*
X41831D01*
X33169Y159354D02*
X41831D01*
Y153646D02*
Y159354D01*
X33169Y153646D02*
Y159354D01*
X33169Y172854D02*
X41831D01*
X33169Y167146D02*
X41831D01*
X33169D02*
Y172854D01*
X41831Y167146D02*
Y172854D01*
X114169Y153854D02*
X122831D01*
X114169Y148146D02*
X122831D01*
X114169D02*
Y153854D01*
X122831Y148146D02*
Y153854D01*
X147169Y164146D02*
X155831D01*
X147169Y169854D02*
X155831D01*
Y164146D02*
Y169854D01*
X147169Y164146D02*
Y169854D01*
X123831Y52146D02*
Y57854D01*
X115169Y52146D02*
Y57854D01*
Y52146D02*
X123831D01*
X115169Y57854D02*
X123831D01*
Y65646D02*
Y71354D01*
X115169Y65646D02*
Y71354D01*
Y65646D02*
X123831D01*
X115169Y71354D02*
X123831D01*
X140831Y43146D02*
Y48854D01*
X132169Y43146D02*
Y48854D01*
Y43146D02*
X140831D01*
X132169Y48854D02*
X140831D01*
X157331Y43146D02*
Y48854D01*
X148669Y43146D02*
Y48854D01*
Y43146D02*
X157331D01*
X148669Y48854D02*
X157331D01*
X173331Y43146D02*
Y48854D01*
X164669Y43146D02*
Y48854D01*
Y43146D02*
X173331D01*
X164669Y48854D02*
X173331D01*
X120831Y112146D02*
Y117854D01*
X112169Y112146D02*
Y117854D01*
Y112146D02*
X120831D01*
X112169Y117854D02*
X120831D01*
X175146Y171169D02*
X180854D01*
X175146Y179831D02*
X180854D01*
X175146Y171169D02*
Y179831D01*
X180854Y171169D02*
Y179831D01*
X187646Y171169D02*
X193354D01*
X187646Y179831D02*
X193354D01*
X187646Y171169D02*
Y179831D01*
X193354Y171169D02*
Y179831D01*
X243646Y137331D02*
X249354D01*
X243646Y128669D02*
X249354D01*
Y137331D01*
X243646Y128669D02*
Y137331D01*
X251146Y137516D02*
X256854D01*
X251146Y128854D02*
X256854D01*
Y137516D01*
X251146Y128854D02*
Y137516D01*
X266331Y126831D02*
X282669D01*
X266331Y143169D02*
X282669D01*
X266331Y126831D02*
Y143169D01*
X282669Y126831D02*
Y143169D01*
X242646Y118331D02*
X248354D01*
X242646Y109669D02*
X248354D01*
Y118331D01*
X242646Y109669D02*
Y118331D01*
X252146Y103831D02*
X257854D01*
X252146Y95169D02*
X257854D01*
Y103831D01*
X252146Y95169D02*
Y103831D01*
X251646Y88193D02*
X257354D01*
X251646Y79532D02*
X257354D01*
Y88193D01*
X251646Y79532D02*
Y88193D01*
X261350Y88331D02*
X267059D01*
X261350Y79669D02*
X267059D01*
Y88331D01*
X261350Y79669D02*
Y88331D01*
X245646Y65331D02*
X251354D01*
X245646Y56669D02*
X251354D01*
Y65331D01*
X245646Y56669D02*
Y65331D01*
X255646D02*
X261354D01*
X255646Y56669D02*
X261354D01*
Y65331D01*
X255646Y56669D02*
Y65331D01*
X217169Y36929D02*
Y42638D01*
X225831Y36929D02*
Y42638D01*
X217169D02*
X225831D01*
X217169Y36929D02*
X225831D01*
X197169Y38646D02*
Y44354D01*
X205831Y38646D02*
Y44354D01*
X197169D02*
X205831D01*
X197169Y38646D02*
X205831D01*
X219646Y41831D02*
X225354D01*
X219646Y33169D02*
X225354D01*
X219646D02*
Y41831D01*
X225354Y33169D02*
Y41831D01*
X50581Y137516D02*
X56289D01*
X50581Y128854D02*
X56289D01*
X50581D02*
Y137516D01*
X56289Y128854D02*
Y137516D01*
X74646Y86669D02*
X80354D01*
X74646Y95331D02*
X80354D01*
Y86669D02*
Y95331D01*
X74646Y86669D02*
Y95331D01*
D61*
X187998Y113000D02*
X183833D01*
X183000Y112167D01*
Y110501D01*
X183833Y109668D01*
X187998D01*
X183000Y104669D02*
Y108002D01*
X186332Y104669D01*
X187165D01*
X187998Y105502D01*
Y107169D01*
X187165Y108002D01*
M02*
