G04 Layer_Color=32896*
%FSLAX25Y25*%
%MOIN*%
G70*
G01*
G75*
%ADD43C,0.00700*%
%ADD44C,0.00500*%
D43*
X256333Y118416D02*
X255749Y118999D01*
X254583D01*
X254000Y118416D01*
Y116083D01*
X254583Y115500D01*
X255749D01*
X256333Y116083D01*
X259248Y115500D02*
Y118999D01*
X257499Y117249D01*
X259831D01*
X262747Y115500D02*
Y118999D01*
X260998Y117249D01*
X263330D01*
X268333Y143916D02*
X267749Y144499D01*
X266583D01*
X266000Y143916D01*
Y141583D01*
X266583Y141000D01*
X267749D01*
X268333Y141583D01*
X271248Y141000D02*
Y144499D01*
X269499Y142749D01*
X271831D01*
X275330Y141000D02*
X272998D01*
X275330Y143333D01*
Y143916D01*
X274747Y144499D01*
X273581D01*
X272998Y143916D01*
X216333Y160416D02*
X215749Y160999D01*
X214583D01*
X214000Y160416D01*
Y158083D01*
X214583Y157500D01*
X215749D01*
X216333Y158083D01*
X219248Y157500D02*
Y160999D01*
X217499Y159249D01*
X219831D01*
X220998Y157500D02*
X222164D01*
X221581D01*
Y160999D01*
X220998Y160416D01*
X238833Y70416D02*
X238249Y70999D01*
X237083D01*
X236500Y70416D01*
Y68083D01*
X237083Y67500D01*
X238249D01*
X238833Y68083D01*
X239999Y70416D02*
X240582Y70999D01*
X241748D01*
X242331Y70416D01*
Y69833D01*
X241748Y69249D01*
X241165D01*
X241748D01*
X242331Y68666D01*
Y68083D01*
X241748Y67500D01*
X240582D01*
X239999Y68083D01*
X243498D02*
X244081Y67500D01*
X245247D01*
X245830Y68083D01*
Y70416D01*
X245247Y70999D01*
X244081D01*
X243498Y70416D01*
Y69833D01*
X244081Y69249D01*
X245830D01*
X279333Y81916D02*
X278749Y82499D01*
X277583D01*
X277000Y81916D01*
Y79583D01*
X277583Y79000D01*
X278749D01*
X279333Y79583D01*
X280499Y81916D02*
X281082Y82499D01*
X282248D01*
X282831Y81916D01*
Y81333D01*
X282248Y80749D01*
X281665D01*
X282248D01*
X282831Y80166D01*
Y79583D01*
X282248Y79000D01*
X281082D01*
X280499Y79583D01*
X283998Y82499D02*
X286330D01*
Y81916D01*
X283998Y79583D01*
Y79000D01*
X278333Y91416D02*
X277749Y91999D01*
X276583D01*
X276000Y91416D01*
Y89083D01*
X276583Y88500D01*
X277749D01*
X278333Y89083D01*
X279499Y91416D02*
X280082Y91999D01*
X281248D01*
X281831Y91416D01*
Y90833D01*
X281248Y90249D01*
X280665D01*
X281248D01*
X281831Y89666D01*
Y89083D01*
X281248Y88500D01*
X280082D01*
X279499Y89083D01*
X285330Y91999D02*
X284164Y91416D01*
X282998Y90249D01*
Y89083D01*
X283581Y88500D01*
X284747D01*
X285330Y89083D01*
Y89666D01*
X284747Y90249D01*
X282998D01*
X227333Y46416D02*
X226749Y46999D01*
X225583D01*
X225000Y46416D01*
Y44083D01*
X225583Y43500D01*
X226749D01*
X227333Y44083D01*
X228499Y46416D02*
X229082Y46999D01*
X230248D01*
X230831Y46416D01*
Y45833D01*
X230248Y45249D01*
X229665D01*
X230248D01*
X230831Y44666D01*
Y44083D01*
X230248Y43500D01*
X229082D01*
X228499Y44083D01*
X233747Y43500D02*
Y46999D01*
X231998Y45249D01*
X234330D01*
X250970Y15584D02*
X250387Y15001D01*
X249221D01*
X248638Y15584D01*
Y17917D01*
X249221Y18500D01*
X250387D01*
X250970Y17917D01*
X252137Y15584D02*
X252720Y15001D01*
X253886D01*
X254469Y15584D01*
Y16167D01*
X253886Y16751D01*
X253303D01*
X253886D01*
X254469Y17334D01*
Y17917D01*
X253886Y18500D01*
X252720D01*
X252137Y17917D01*
X255635Y15584D02*
X256219Y15001D01*
X257385D01*
X257968Y15584D01*
Y16167D01*
X257385Y16751D01*
X256802D01*
X257385D01*
X257968Y17334D01*
Y17917D01*
X257385Y18500D01*
X256219D01*
X255635Y17917D01*
X262333Y68084D02*
X261749Y67501D01*
X260583D01*
X260000Y68084D01*
Y70417D01*
X260583Y71000D01*
X261749D01*
X262333Y70417D01*
X263499Y68084D02*
X264082Y67501D01*
X265248D01*
X265831Y68084D01*
Y68667D01*
X265248Y69251D01*
X264665D01*
X265248D01*
X265831Y69834D01*
Y70417D01*
X265248Y71000D01*
X264082D01*
X263499Y70417D01*
X266998Y68084D02*
X267581Y67501D01*
X268747D01*
X269330Y68084D01*
Y70417D01*
X268747Y71000D01*
X267581D01*
X266998Y70417D01*
Y68084D01*
X215833Y70416D02*
X215249Y70999D01*
X214083D01*
X213500Y70416D01*
Y68083D01*
X214083Y67500D01*
X215249D01*
X215833Y68083D01*
X219331Y67500D02*
X216999D01*
X219331Y69833D01*
Y70416D01*
X218748Y70999D01*
X217582D01*
X216999Y70416D01*
X220498Y68083D02*
X221081Y67500D01*
X222247D01*
X222830Y68083D01*
Y70416D01*
X222247Y70999D01*
X221081D01*
X220498Y70416D01*
Y69833D01*
X221081Y69249D01*
X222830D01*
X250833Y70416D02*
X250249Y70999D01*
X249083D01*
X248500Y70416D01*
Y68083D01*
X249083Y67500D01*
X250249D01*
X250833Y68083D01*
X254331Y67500D02*
X251999D01*
X254331Y69833D01*
Y70416D01*
X253748Y70999D01*
X252582D01*
X251999Y70416D01*
X255498Y70999D02*
X257830D01*
Y70416D01*
X255498Y68083D01*
Y67500D01*
X225833Y160416D02*
X225249Y160999D01*
X224083D01*
X223500Y160416D01*
Y158083D01*
X224083Y157500D01*
X225249D01*
X225833Y158083D01*
X229331Y157500D02*
X226999D01*
X229331Y159833D01*
Y160416D01*
X228748Y160999D01*
X227582D01*
X226999Y160416D01*
X232830Y160999D02*
X230498D01*
Y159249D01*
X231664Y159833D01*
X232247D01*
X232830Y159249D01*
Y158083D01*
X232247Y157500D01*
X231081D01*
X230498Y158083D01*
X279333Y100416D02*
X278749Y100999D01*
X277583D01*
X277000Y100416D01*
Y98083D01*
X277583Y97500D01*
X278749D01*
X279333Y98083D01*
X282831Y97500D02*
X280499D01*
X282831Y99833D01*
Y100416D01*
X282248Y100999D01*
X281082D01*
X280499Y100416D01*
X285747Y97500D02*
Y100999D01*
X283998Y99249D01*
X286330D01*
X237333Y160416D02*
X236749Y160999D01*
X235583D01*
X235000Y160416D01*
Y158083D01*
X235583Y157500D01*
X236749D01*
X237333Y158083D01*
X238499Y157500D02*
X239665D01*
X239082D01*
Y160999D01*
X238499Y160416D01*
X241415D02*
X241998Y160999D01*
X243164D01*
X243747Y160416D01*
Y159833D01*
X243164Y159249D01*
X243747Y158666D01*
Y158083D01*
X243164Y157500D01*
X241998D01*
X241415Y158083D01*
Y158666D01*
X241998Y159249D01*
X241415Y159833D01*
Y160416D01*
X241998Y159249D02*
X243164D01*
X248333Y160416D02*
X247749Y160999D01*
X246583D01*
X246000Y160416D01*
Y158083D01*
X246583Y157500D01*
X247749D01*
X248333Y158083D01*
X249499Y157500D02*
X250665D01*
X250082D01*
Y160999D01*
X249499Y160416D01*
X254747Y160999D02*
X252415D01*
Y159249D01*
X253581Y159833D01*
X254164D01*
X254747Y159249D01*
Y158083D01*
X254164Y157500D01*
X252998D01*
X252415Y158083D01*
X227833Y70416D02*
X227249Y70999D01*
X226083D01*
X225500Y70416D01*
Y68083D01*
X226083Y67500D01*
X227249D01*
X227833Y68083D01*
X228999Y67500D02*
X230165D01*
X229582D01*
Y70999D01*
X228999Y70416D01*
X233664Y67500D02*
Y70999D01*
X231915Y69249D01*
X234247D01*
X279333Y109916D02*
X278749Y110499D01*
X277583D01*
X277000Y109916D01*
Y107583D01*
X277583Y107000D01*
X278749D01*
X279333Y107583D01*
X280499Y107000D02*
X281665D01*
X281082D01*
Y110499D01*
X280499Y109916D01*
X285747Y107000D02*
X283415D01*
X285747Y109333D01*
Y109916D01*
X285164Y110499D01*
X283998D01*
X283415Y109916D01*
X77333Y101416D02*
X76749Y101999D01*
X75583D01*
X75000Y101416D01*
Y99083D01*
X75583Y98500D01*
X76749D01*
X77333Y99083D01*
X78499Y101999D02*
X80831D01*
Y101416D01*
X78499Y99083D01*
Y98500D01*
X50333Y144916D02*
X49749Y145499D01*
X48583D01*
X48000Y144916D01*
Y142583D01*
X48583Y142000D01*
X49749D01*
X50333Y142583D01*
X53831Y145499D02*
X51499D01*
Y143749D01*
X52665Y144333D01*
X53248D01*
X53831Y143749D01*
Y142583D01*
X53248Y142000D01*
X52082D01*
X51499Y142583D01*
X88667Y119916D02*
X89251Y120499D01*
X90417D01*
X91000Y119916D01*
Y117583D01*
X90417Y117000D01*
X89251D01*
X88667Y117583D01*
X85752Y117000D02*
Y120499D01*
X87501Y118749D01*
X85169D01*
D44*
X165011Y117501D02*
X164511Y117001D01*
X163512D01*
X163012Y117501D01*
Y119500D01*
X163512Y120000D01*
X164511D01*
X165011Y119500D01*
X166011Y117501D02*
X166511Y117001D01*
X167510D01*
X168010Y117501D01*
Y118001D01*
X167510Y118500D01*
X167010D01*
X167510D01*
X168010Y119000D01*
Y119500D01*
X167510Y120000D01*
X166511D01*
X166011Y119500D01*
X169010Y117501D02*
X169510Y117001D01*
X170509D01*
X171009Y117501D01*
Y118001D01*
X170509Y118500D01*
X171009Y119000D01*
Y119500D01*
X170509Y120000D01*
X169510D01*
X169010Y119500D01*
Y119000D01*
X169510Y118500D01*
X169010Y118001D01*
Y117501D01*
X169510Y118500D02*
X170509D01*
M02*
