G04 Layer_Color=255*
%FSLAX25Y25*%
%MOIN*%
G70*
G01*
G75*
%ADD10O,0.06890X0.01181*%
%ADD11O,0.01181X0.06890*%
%ADD12R,0.05512X0.04331*%
%ADD13R,0.04331X0.05512*%
%ADD14R,0.86614X0.86614*%
%ADD15O,0.01181X0.05709*%
%ADD16O,0.05709X0.01181*%
%ADD17R,0.10236X0.04331*%
%ADD18R,0.04331X0.10236*%
%ADD19R,0.04724X0.05512*%
%ADD20R,0.00984X0.02362*%
%ADD21R,0.02362X0.00984*%
%ADD22R,0.11024X0.11024*%
%ADD24C,0.05906*%
%ADD25R,0.05906X0.05906*%
%ADD26R,0.06000X0.10000*%
%ADD27O,0.06000X0.10000*%
%ADD28R,0.05906X0.05906*%
%ADD29C,0.04724*%
%ADD30C,0.04000*%
G04:AMPARAMS|DCode=31|XSize=40mil|YSize=40mil|CornerRadius=10mil|HoleSize=0mil|Usage=FLASHONLY|Rotation=270.000|XOffset=0mil|YOffset=0mil|HoleType=Round|Shape=RoundedRectangle|*
%AMROUNDEDRECTD31*
21,1,0.04000,0.02000,0,0,270.0*
21,1,0.02000,0.04000,0,0,270.0*
1,1,0.02000,-0.01000,-0.01000*
1,1,0.02000,-0.01000,0.01000*
1,1,0.02000,0.01000,0.01000*
1,1,0.02000,0.01000,-0.01000*
%
%ADD31ROUNDEDRECTD31*%
D10*
X87323Y137122D02*
D03*
Y135153D02*
D03*
Y133185D02*
D03*
Y131217D02*
D03*
Y129248D02*
D03*
Y127279D02*
D03*
Y125311D02*
D03*
Y123343D02*
D03*
Y121374D02*
D03*
Y119405D02*
D03*
Y117437D02*
D03*
Y115469D02*
D03*
Y113500D02*
D03*
Y111531D02*
D03*
Y109563D02*
D03*
Y107595D02*
D03*
Y105626D02*
D03*
Y103657D02*
D03*
Y101689D02*
D03*
Y99721D02*
D03*
Y97752D02*
D03*
Y95784D02*
D03*
Y93815D02*
D03*
Y91847D02*
D03*
Y89878D02*
D03*
X27677D02*
D03*
Y91847D02*
D03*
Y93815D02*
D03*
Y95784D02*
D03*
Y97752D02*
D03*
Y99721D02*
D03*
Y101689D02*
D03*
Y103657D02*
D03*
Y105626D02*
D03*
Y107595D02*
D03*
Y109563D02*
D03*
Y111531D02*
D03*
Y113500D02*
D03*
Y115469D02*
D03*
Y117437D02*
D03*
Y119405D02*
D03*
Y121374D02*
D03*
Y123343D02*
D03*
Y125311D02*
D03*
Y127279D02*
D03*
Y129248D02*
D03*
Y131217D02*
D03*
Y133185D02*
D03*
Y135153D02*
D03*
Y137122D02*
D03*
D11*
X81122Y83677D02*
D03*
X79154D02*
D03*
X77185D02*
D03*
X75217D02*
D03*
X73248D02*
D03*
X71280D02*
D03*
X69311D02*
D03*
X67343D02*
D03*
X65374D02*
D03*
X63406D02*
D03*
X61437D02*
D03*
X59469D02*
D03*
X57500D02*
D03*
X55532D02*
D03*
X53563D02*
D03*
X51595D02*
D03*
X49626D02*
D03*
X47657D02*
D03*
X45689D02*
D03*
X43720D02*
D03*
X41752D02*
D03*
X39783D02*
D03*
X37815D02*
D03*
X35846D02*
D03*
X33878D02*
D03*
Y143323D02*
D03*
X35846D02*
D03*
X37815D02*
D03*
X39783D02*
D03*
X41752D02*
D03*
X43720D02*
D03*
X45689D02*
D03*
X47657D02*
D03*
X49626D02*
D03*
X51595D02*
D03*
X53563D02*
D03*
X55532D02*
D03*
X57500D02*
D03*
X59469D02*
D03*
X61437D02*
D03*
X63406D02*
D03*
X65374D02*
D03*
X67343D02*
D03*
X69311D02*
D03*
X71280D02*
D03*
X73248D02*
D03*
X75217D02*
D03*
X77185D02*
D03*
X79154D02*
D03*
X81122D02*
D03*
D12*
X245500Y102453D02*
D03*
Y96547D02*
D03*
X199500Y170547D02*
D03*
Y176453D02*
D03*
X15000Y95189D02*
D03*
Y89284D02*
D03*
X178000Y172547D02*
D03*
Y178453D02*
D03*
X190500Y172547D02*
D03*
Y178453D02*
D03*
X246500Y135953D02*
D03*
Y130047D02*
D03*
X254000Y136138D02*
D03*
Y130232D02*
D03*
X245500Y116953D02*
D03*
Y111047D02*
D03*
X255000Y102453D02*
D03*
Y96547D02*
D03*
X254500Y86815D02*
D03*
Y80910D02*
D03*
X264205Y86953D02*
D03*
Y81047D02*
D03*
X248500Y63953D02*
D03*
Y58047D02*
D03*
X258500Y63953D02*
D03*
Y58047D02*
D03*
D13*
X232547Y40500D02*
D03*
X238453D02*
D03*
X121453Y97000D02*
D03*
X115547D02*
D03*
X119500Y106000D02*
D03*
X113594D02*
D03*
X121453Y124000D02*
D03*
X115547D02*
D03*
X121453Y133000D02*
D03*
X115547D02*
D03*
X120085Y142000D02*
D03*
X114179D02*
D03*
X230547Y167000D02*
D03*
X236453D02*
D03*
X40453Y156500D02*
D03*
X34547D02*
D03*
X34547Y170000D02*
D03*
X40453D02*
D03*
X115547Y151000D02*
D03*
X121453D02*
D03*
X154453Y167000D02*
D03*
X148547D02*
D03*
X122453Y55000D02*
D03*
X116547D02*
D03*
X122453Y68500D02*
D03*
X116547D02*
D03*
X139453Y46000D02*
D03*
X133547D02*
D03*
X155953D02*
D03*
X150047D02*
D03*
X171953D02*
D03*
X166047D02*
D03*
X119453Y115000D02*
D03*
X113547D02*
D03*
X218547Y39783D02*
D03*
X224453D02*
D03*
X198547Y41500D02*
D03*
X204453D02*
D03*
D14*
X185000Y107000D02*
D03*
D15*
X227323Y157098D02*
D03*
X225354D02*
D03*
X223386D02*
D03*
X221417D02*
D03*
X219449D02*
D03*
X217480D02*
D03*
X215512D02*
D03*
X213543D02*
D03*
X211575D02*
D03*
X209606D02*
D03*
X207638D02*
D03*
X205669D02*
D03*
X203701D02*
D03*
X201732D02*
D03*
X199764D02*
D03*
X197795D02*
D03*
X195827D02*
D03*
X193858D02*
D03*
X191890D02*
D03*
X189921D02*
D03*
X187953D02*
D03*
X185984D02*
D03*
X184016D02*
D03*
X182047D02*
D03*
X180079D02*
D03*
X178110D02*
D03*
X176142D02*
D03*
X174173D02*
D03*
X172205D02*
D03*
X170236D02*
D03*
X168268D02*
D03*
X166299D02*
D03*
X164331D02*
D03*
X162362D02*
D03*
X160394D02*
D03*
X158425D02*
D03*
X156457D02*
D03*
X154488D02*
D03*
X152520D02*
D03*
X150551D02*
D03*
X148583D02*
D03*
X146614D02*
D03*
X144646D02*
D03*
X142677D02*
D03*
Y56902D02*
D03*
X144646D02*
D03*
X146614D02*
D03*
X148583D02*
D03*
X150551D02*
D03*
X152520D02*
D03*
X154488D02*
D03*
X156457D02*
D03*
X158425D02*
D03*
X160394D02*
D03*
X162362D02*
D03*
X164331D02*
D03*
X166299D02*
D03*
X168268D02*
D03*
X170236D02*
D03*
X172205D02*
D03*
X174173D02*
D03*
X176142D02*
D03*
X178110D02*
D03*
X180079D02*
D03*
X182047D02*
D03*
X184016D02*
D03*
X185984D02*
D03*
X187953D02*
D03*
X189921D02*
D03*
X191890D02*
D03*
X193858D02*
D03*
X195827D02*
D03*
X197795D02*
D03*
X199764D02*
D03*
X201732D02*
D03*
X203701D02*
D03*
X205669D02*
D03*
X207638D02*
D03*
X209606D02*
D03*
X211575D02*
D03*
X213543D02*
D03*
X215512D02*
D03*
X217480D02*
D03*
X219449D02*
D03*
X221417D02*
D03*
X223386D02*
D03*
X225354D02*
D03*
X227323D02*
D03*
D16*
X134902Y149323D02*
D03*
Y147354D02*
D03*
Y145386D02*
D03*
Y143417D02*
D03*
Y141449D02*
D03*
Y139480D02*
D03*
Y137512D02*
D03*
Y135543D02*
D03*
Y133575D02*
D03*
Y131606D02*
D03*
Y129638D02*
D03*
Y127669D02*
D03*
Y125701D02*
D03*
Y123732D02*
D03*
Y121764D02*
D03*
Y119795D02*
D03*
Y117827D02*
D03*
Y115858D02*
D03*
Y113890D02*
D03*
Y111921D02*
D03*
Y109953D02*
D03*
Y107984D02*
D03*
Y106016D02*
D03*
Y104047D02*
D03*
Y102079D02*
D03*
Y100110D02*
D03*
Y98142D02*
D03*
Y96173D02*
D03*
Y94205D02*
D03*
Y92236D02*
D03*
Y90268D02*
D03*
Y88299D02*
D03*
Y86331D02*
D03*
Y84362D02*
D03*
Y82394D02*
D03*
Y80425D02*
D03*
Y78457D02*
D03*
Y76488D02*
D03*
Y74520D02*
D03*
Y72551D02*
D03*
Y70583D02*
D03*
Y68614D02*
D03*
Y66646D02*
D03*
Y64677D02*
D03*
X235098D02*
D03*
Y66646D02*
D03*
Y68614D02*
D03*
Y70583D02*
D03*
Y72551D02*
D03*
Y74520D02*
D03*
Y76488D02*
D03*
Y78457D02*
D03*
Y80425D02*
D03*
Y82394D02*
D03*
Y84362D02*
D03*
Y86331D02*
D03*
Y88299D02*
D03*
Y90268D02*
D03*
Y92236D02*
D03*
Y94205D02*
D03*
Y96173D02*
D03*
Y98142D02*
D03*
Y100110D02*
D03*
Y102079D02*
D03*
Y104047D02*
D03*
Y106016D02*
D03*
Y107984D02*
D03*
Y109953D02*
D03*
Y111921D02*
D03*
Y113890D02*
D03*
Y115858D02*
D03*
Y117827D02*
D03*
Y119795D02*
D03*
Y121764D02*
D03*
Y123732D02*
D03*
Y125701D02*
D03*
Y127669D02*
D03*
Y129638D02*
D03*
Y131606D02*
D03*
Y133575D02*
D03*
Y135543D02*
D03*
Y137512D02*
D03*
Y139480D02*
D03*
Y141449D02*
D03*
Y143417D02*
D03*
Y145386D02*
D03*
Y147354D02*
D03*
Y149323D02*
D03*
D17*
X13000Y123685D02*
D03*
Y134315D02*
D03*
D18*
X417815Y135543D02*
D03*
X407185D02*
D03*
D19*
X63543Y165000D02*
D03*
X56457D02*
D03*
D20*
X269579Y127520D02*
D03*
X271547D02*
D03*
X273516D02*
D03*
X275484D02*
D03*
X277453D02*
D03*
X279421D02*
D03*
Y142480D02*
D03*
X277453D02*
D03*
X275484D02*
D03*
X273516D02*
D03*
X271547D02*
D03*
X269579D02*
D03*
D21*
X281980Y130079D02*
D03*
Y132047D02*
D03*
Y134016D02*
D03*
Y135984D02*
D03*
Y137953D02*
D03*
Y139921D02*
D03*
X267020D02*
D03*
Y137953D02*
D03*
Y135984D02*
D03*
Y134016D02*
D03*
Y132047D02*
D03*
X267000Y130000D02*
D03*
D22*
X274500Y135000D02*
D03*
D24*
X221500Y205500D02*
D03*
Y195500D02*
D03*
X211500Y205500D02*
D03*
Y195500D02*
D03*
X201500Y205500D02*
D03*
Y195500D02*
D03*
X191500Y205500D02*
D03*
Y15500D02*
D03*
Y25500D02*
D03*
X201500Y15500D02*
D03*
Y25500D02*
D03*
X211500Y15500D02*
D03*
Y25500D02*
D03*
X221500Y15500D02*
D03*
X296500Y195000D02*
D03*
Y185000D02*
D03*
Y175000D02*
D03*
Y165000D02*
D03*
Y155000D02*
D03*
X306500Y195000D02*
D03*
Y185000D02*
D03*
Y175000D02*
D03*
Y165000D02*
D03*
X296500Y114000D02*
D03*
Y104000D02*
D03*
Y94000D02*
D03*
Y84000D02*
D03*
Y74000D02*
D03*
Y64000D02*
D03*
Y54000D02*
D03*
Y44000D02*
D03*
X306500Y114000D02*
D03*
Y104000D02*
D03*
Y94000D02*
D03*
Y84000D02*
D03*
Y74000D02*
D03*
Y64000D02*
D03*
Y54000D02*
D03*
X106500Y25500D02*
D03*
X96500D02*
D03*
X86500D02*
D03*
X76500D02*
D03*
X66500D02*
D03*
X56500D02*
D03*
X46500D02*
D03*
X36500D02*
D03*
X26500D02*
D03*
X116500Y15500D02*
D03*
X106500D02*
D03*
X96500D02*
D03*
X86500D02*
D03*
X76500D02*
D03*
X66500D02*
D03*
X56500D02*
D03*
X46500D02*
D03*
X36500D02*
D03*
X26500D02*
D03*
X106500Y205500D02*
D03*
X96500D02*
D03*
X86500D02*
D03*
X76500D02*
D03*
X66500D02*
D03*
X56500D02*
D03*
X46500D02*
D03*
X36500D02*
D03*
X26500D02*
D03*
X116500Y195500D02*
D03*
X106500D02*
D03*
X96500D02*
D03*
X86500D02*
D03*
X76500D02*
D03*
X66500D02*
D03*
X56500D02*
D03*
X46500D02*
D03*
X36500D02*
D03*
X26500D02*
D03*
X286500Y16500D02*
D03*
X296500D02*
D03*
X276500D02*
D03*
X266500D02*
D03*
X256500D02*
D03*
X246500D02*
D03*
D25*
X191500Y195500D02*
D03*
X221500Y25500D02*
D03*
X116500D02*
D03*
Y205500D02*
D03*
X306500Y16500D02*
D03*
D26*
X422500Y189000D02*
D03*
D27*
Y159000D02*
D03*
X402500D02*
D03*
Y189000D02*
D03*
D28*
X306500Y155000D02*
D03*
Y44000D02*
D03*
D29*
X333500Y158000D02*
D03*
Y188000D02*
D03*
X355500Y188500D02*
D03*
Y158500D02*
D03*
X377047Y188500D02*
D03*
Y158500D02*
D03*
X253500Y201000D02*
D03*
X273500D02*
D03*
D30*
X424291Y27886D02*
D03*
X416417D02*
D03*
X408543D02*
D03*
X400669D02*
D03*
X392795D02*
D03*
X384921D02*
D03*
X377047D02*
D03*
X369173D02*
D03*
X361299D02*
D03*
X353425D02*
D03*
Y114500D02*
D03*
X361299D02*
D03*
X369173D02*
D03*
X377047D02*
D03*
X384921D02*
D03*
X392795D02*
D03*
X400669D02*
D03*
X408543D02*
D03*
X416417D02*
D03*
D31*
X424291D02*
D03*
M02*
