G04 Layer_Physical_Order=1*
G04 Layer_Color=255*
%FSLAX25Y25*%
%MOIN*%
G70*
G01*
G75*
%ADD10O,0.06890X0.01181*%
%ADD11O,0.01181X0.06890*%
%ADD12R,0.05512X0.04331*%
%ADD13R,0.04331X0.05512*%
%ADD14R,0.86614X0.86614*%
%ADD15O,0.01181X0.05709*%
%ADD16O,0.05709X0.01181*%
%ADD17R,0.10236X0.04331*%
%ADD18R,0.04331X0.10236*%
%ADD19R,0.04724X0.05512*%
%ADD20R,0.00984X0.02362*%
%ADD21R,0.02362X0.00984*%
%ADD22R,0.11024X0.11024*%
%ADD23C,0.01000*%
%ADD24C,0.05906*%
%ADD25R,0.05906X0.05906*%
%ADD26R,0.06000X0.10000*%
%ADD27O,0.06000X0.10000*%
%ADD28R,0.05906X0.05906*%
%ADD29C,0.04724*%
%ADD30C,0.04000*%
G04:AMPARAMS|DCode=31|XSize=40mil|YSize=40mil|CornerRadius=10mil|HoleSize=0mil|Usage=FLASHONLY|Rotation=270.000|XOffset=0mil|YOffset=0mil|HoleType=Round|Shape=RoundedRectangle|*
%AMROUNDEDRECTD31*
21,1,0.04000,0.02000,0,0,270.0*
21,1,0.02000,0.04000,0,0,270.0*
1,1,0.02000,-0.01000,-0.01000*
1,1,0.02000,-0.01000,0.01000*
1,1,0.02000,0.01000,0.01000*
1,1,0.02000,0.01000,-0.01000*
%
%ADD31ROUNDEDRECTD31*%
%ADD32C,0.03000*%
%ADD33C,0.02000*%
G36*
X447961Y2039D02*
X2039D01*
Y218961D01*
X447961D01*
Y2039D01*
D02*
G37*
%LPC*%
G36*
X122000Y213039D02*
X34500D01*
X33720Y212884D01*
X33058Y212442D01*
X30058Y209442D01*
X29869Y209158D01*
X29197Y209043D01*
X28746Y209389D01*
X27662Y209838D01*
X26500Y209991D01*
X25338Y209838D01*
X24254Y209389D01*
X23324Y208676D01*
X22611Y207746D01*
X22162Y206662D01*
X22009Y205500D01*
X22162Y204338D01*
X22247Y204131D01*
X17558Y199442D01*
X17116Y198780D01*
X16961Y198000D01*
Y187500D01*
X17116Y186720D01*
X17558Y186058D01*
X27558Y176058D01*
X27558Y176058D01*
X28220Y175616D01*
X29000Y175461D01*
X29000Y175461D01*
X59236D01*
X59443Y174961D01*
X59424Y174942D01*
X58982Y174280D01*
X58927Y174000D01*
X60866D01*
Y173000D01*
X58927D01*
X58953Y172866D01*
X58663Y172366D01*
X44118D01*
Y174256D01*
X36787D01*
Y173756D01*
X35047D01*
Y170000D01*
X34547D01*
Y169500D01*
X31382D01*
Y166244D01*
X32508D01*
Y160256D01*
X31382D01*
Y157000D01*
X34547D01*
Y156000D01*
X31382D01*
Y152744D01*
X32508D01*
Y150677D01*
X32663Y149897D01*
X33105Y149235D01*
X33283Y149058D01*
X33695Y148782D01*
X33590Y148251D01*
X33062Y148146D01*
X32371Y147684D01*
X31909Y146993D01*
X31746Y146177D01*
Y140469D01*
X31909Y139653D01*
X32158Y139280D01*
X32313Y139047D01*
X31953Y138687D01*
X31720Y138842D01*
X31347Y139091D01*
X30531Y139253D01*
X24823D01*
X24007Y139091D01*
X23316Y138629D01*
X22854Y137938D01*
X22691Y137122D01*
X22854Y136306D01*
X22966Y136138D01*
X22854Y135969D01*
X22691Y135153D01*
X22854Y134338D01*
X22966Y134169D01*
X22854Y134001D01*
X22691Y133185D01*
X22854Y132369D01*
X22966Y132201D01*
X22854Y132032D01*
X22691Y131217D01*
X22854Y130401D01*
X22966Y130232D01*
X22854Y130064D01*
X22691Y129248D01*
X22854Y128432D01*
X22966Y128264D01*
X22854Y128095D01*
X22691Y127279D01*
X22854Y126464D01*
X22966Y126295D01*
X22854Y126127D01*
X22691Y125311D01*
X22854Y124495D01*
X22966Y124327D01*
X22854Y124158D01*
X22691Y123343D01*
X22854Y122527D01*
X22966Y122358D01*
X22854Y122190D01*
X22691Y121374D01*
X22854Y120558D01*
X22966Y120390D01*
X22854Y120221D01*
X22691Y119405D01*
X22854Y118590D01*
X22966Y118421D01*
X22854Y118253D01*
X22691Y117437D01*
X22854Y116621D01*
X22966Y116453D01*
X22854Y116284D01*
X22691Y115469D01*
X22854Y114653D01*
X22966Y114484D01*
X22854Y114316D01*
X22691Y113500D01*
X22854Y112684D01*
X22966Y112516D01*
X22854Y112347D01*
X22705Y111602D01*
X22000D01*
X21220Y111447D01*
X20558Y111005D01*
X20116Y110343D01*
X19961Y109563D01*
Y109309D01*
X19461Y109002D01*
X19169Y109060D01*
Y106610D01*
X18668D01*
Y106110D01*
X16219D01*
X16314Y105635D01*
X16866Y104808D01*
X17693Y104255D01*
X17830Y104228D01*
X17780Y103728D01*
X15039D01*
Y120020D01*
X19618D01*
Y127350D01*
X6382D01*
Y120020D01*
X10961D01*
Y101862D01*
X11116Y101082D01*
X11558Y100420D01*
X11731Y100247D01*
X12393Y99805D01*
X13173Y99650D01*
X15302D01*
X15493Y99188D01*
X15159Y98854D01*
X10744D01*
Y97039D01*
X8217D01*
X8140Y97140D01*
X7513Y97620D01*
X6783Y97923D01*
X6000Y98026D01*
X5217Y97923D01*
X4487Y97620D01*
X3860Y97140D01*
X3379Y96513D01*
X3077Y95783D01*
X2974Y95000D01*
X3077Y94217D01*
X3379Y93487D01*
X3860Y92860D01*
X4487Y92379D01*
X5217Y92077D01*
X6000Y91974D01*
X6783Y92077D01*
X7513Y92379D01*
X8140Y92860D01*
X8217Y92961D01*
X10744D01*
Y91524D01*
X11244D01*
Y89784D01*
X18756D01*
Y91524D01*
X19256D01*
Y97183D01*
X19754Y97681D01*
X22705D01*
X22854Y96936D01*
X22966Y96768D01*
X22854Y96599D01*
X22691Y95784D01*
X22854Y94968D01*
X22966Y94799D01*
X22854Y94631D01*
X22691Y93815D01*
X22854Y92999D01*
X22966Y92831D01*
X22854Y92662D01*
X22691Y91847D01*
X22854Y91031D01*
X22966Y90862D01*
X22854Y90694D01*
X22691Y89878D01*
X22854Y89062D01*
X23316Y88371D01*
X24007Y87909D01*
X24823Y87746D01*
X30531D01*
X31347Y87909D01*
X31720Y88158D01*
X31953Y88314D01*
X32313Y87953D01*
X32158Y87720D01*
X31909Y87347D01*
X31746Y86532D01*
Y80823D01*
X31909Y80007D01*
X32371Y79316D01*
X33062Y78854D01*
X33878Y78691D01*
X34694Y78854D01*
X34862Y78966D01*
X35031Y78854D01*
X35846Y78691D01*
X36662Y78854D01*
X36831Y78966D01*
X36999Y78854D01*
X37815Y78691D01*
X38631Y78854D01*
X38799Y78966D01*
X38968Y78854D01*
X39783Y78691D01*
X40599Y78854D01*
X40768Y78966D01*
X40936Y78854D01*
X41752Y78691D01*
X42568Y78854D01*
X42736Y78966D01*
X42905Y78854D01*
X43720Y78691D01*
X44536Y78854D01*
X44705Y78966D01*
X44873Y78854D01*
X45689Y78691D01*
X46505Y78854D01*
X46673Y78966D01*
X46842Y78854D01*
X47657Y78691D01*
X48473Y78854D01*
X48642Y78966D01*
X48810Y78854D01*
X49626Y78691D01*
X50442Y78854D01*
X50610Y78966D01*
X50779Y78854D01*
X51524Y78705D01*
Y72051D01*
X51679Y71271D01*
X52121Y70609D01*
X55172Y67558D01*
X55172Y67558D01*
X55834Y67116D01*
X56614Y66961D01*
X59220D01*
X59297Y66860D01*
X59924Y66379D01*
X60654Y66077D01*
X61437Y65974D01*
X62220Y66077D01*
X62950Y66379D01*
X63577Y66860D01*
X64057Y67487D01*
X64360Y68217D01*
X64463Y69000D01*
X64360Y69783D01*
X64057Y70513D01*
X63577Y71140D01*
X62950Y71621D01*
X62220Y71923D01*
X61437Y72026D01*
X60654Y71923D01*
X59924Y71621D01*
X59297Y71140D01*
X59220Y71039D01*
X57459D01*
X56174Y72324D01*
X56458Y72748D01*
X56717Y72640D01*
X57500Y72537D01*
X58283Y72640D01*
X59013Y72943D01*
X59640Y73423D01*
X60120Y74050D01*
X60423Y74780D01*
X60526Y75563D01*
X60423Y76346D01*
X60120Y77076D01*
X59640Y77703D01*
X59539Y77780D01*
Y78705D01*
X60284Y78854D01*
X60453Y78966D01*
X60621Y78854D01*
X61437Y78691D01*
X62253Y78854D01*
X62421Y78966D01*
X62590Y78854D01*
X63406Y78691D01*
X64221Y78854D01*
X64390Y78966D01*
X64558Y78854D01*
X65374Y78691D01*
X66190Y78854D01*
X66685Y78623D01*
X66888Y78272D01*
X66861Y78141D01*
X69311D01*
Y77641D01*
X69811D01*
Y75191D01*
X70287Y75286D01*
X70759Y75602D01*
X73641D01*
X74421Y75757D01*
X74973Y76126D01*
X75566Y76138D01*
X75743Y75873D01*
X77248Y74369D01*
X77380Y74050D01*
X77860Y73423D01*
X77961Y73346D01*
Y65500D01*
X78116Y64720D01*
X78558Y64058D01*
X79220Y63616D01*
X80000Y63461D01*
X81155D01*
X114201Y30415D01*
X114010Y29953D01*
X112047D01*
Y21047D01*
X120953D01*
Y28961D01*
X153155D01*
X166461Y15655D01*
X166344Y15065D01*
X165987Y14918D01*
X165360Y14437D01*
X164880Y13810D01*
X164577Y13080D01*
X164474Y12297D01*
X164577Y11514D01*
X164880Y10784D01*
X165360Y10158D01*
X165987Y9677D01*
X166717Y9375D01*
X167500Y9271D01*
X167625Y9288D01*
X172855Y4058D01*
X173517Y3616D01*
X174297Y3461D01*
X310575D01*
X311355Y3616D01*
X312017Y4058D01*
X316942Y8983D01*
X316942Y8983D01*
X317384Y9645D01*
X317539Y10425D01*
Y37774D01*
X318039Y37926D01*
X318285Y37558D01*
X318425Y37465D01*
X318603Y37198D01*
X319430Y36645D01*
X319905Y36551D01*
Y39000D01*
Y41449D01*
X319430Y41355D01*
X318603Y40802D01*
X318425Y40535D01*
X318285Y40442D01*
X318039Y40074D01*
X317539Y40226D01*
Y45000D01*
X317384Y45780D01*
X316942Y46442D01*
X310753Y52631D01*
X310838Y52838D01*
X310991Y54000D01*
X310838Y55162D01*
X310389Y56246D01*
X310185Y56512D01*
X310406Y56961D01*
X320490D01*
X320539Y56461D01*
X320395Y56432D01*
X319568Y55880D01*
X319016Y55053D01*
X318921Y54577D01*
X323820D01*
X323726Y55053D01*
X323173Y55880D01*
X322346Y56432D01*
X322202Y56461D01*
X322251Y56961D01*
X377000D01*
X377780Y57116D01*
X378442Y57558D01*
X421942Y101058D01*
X422384Y101720D01*
X422539Y102500D01*
Y110706D01*
X422926Y111024D01*
X423291Y110951D01*
X425291D01*
X426267Y111145D01*
X427094Y111698D01*
X427646Y112524D01*
X427840Y113500D01*
Y115500D01*
X427646Y116475D01*
X427094Y117302D01*
X426331Y117812D01*
Y124709D01*
X426175Y125489D01*
X425733Y126151D01*
X425733Y126151D01*
X421480Y130403D01*
Y142161D01*
X419854D01*
Y142949D01*
X419699Y143729D01*
X419257Y144391D01*
X413039Y150609D01*
Y197000D01*
X412884Y197780D01*
X412442Y198442D01*
X404942Y205942D01*
X404280Y206384D01*
X403500Y206539D01*
X277000D01*
X276220Y206384D01*
X275558Y205942D01*
X274394Y204778D01*
X273500Y204895D01*
X272492Y204763D01*
X271552Y204374D01*
X270745Y203755D01*
X270126Y202948D01*
X269737Y202008D01*
X269604Y201000D01*
X269722Y200106D01*
X260155Y190539D01*
X212170D01*
X211751Y190734D01*
X211731Y191039D01*
X211756Y191043D01*
X212662Y191162D01*
X213746Y191611D01*
X214676Y192324D01*
X215389Y193254D01*
X215838Y194338D01*
X215991Y195500D01*
X215838Y196662D01*
X215389Y197746D01*
X214676Y198676D01*
X213746Y199390D01*
X212662Y199838D01*
X211500Y199991D01*
X210338Y199838D01*
X209254Y199390D01*
X208324Y198676D01*
X207611Y197746D01*
X207162Y196662D01*
X207009Y195500D01*
X207162Y194338D01*
X207611Y193254D01*
X208324Y192324D01*
X209254Y191611D01*
X210338Y191162D01*
X211244Y191043D01*
X211269Y191039D01*
X211249Y190734D01*
X210830Y190539D01*
X202170D01*
X201750Y190734D01*
X201731Y191039D01*
X201756Y191043D01*
X202662Y191162D01*
X203746Y191611D01*
X204676Y192324D01*
X205389Y193254D01*
X205838Y194338D01*
X205991Y195500D01*
X205838Y196662D01*
X205389Y197746D01*
X204676Y198676D01*
X203746Y199390D01*
X202662Y199838D01*
X201500Y199991D01*
X200338Y199838D01*
X199254Y199390D01*
X198324Y198676D01*
X197610Y197746D01*
X197162Y196662D01*
X197009Y195500D01*
X197162Y194338D01*
X197610Y193254D01*
X198324Y192324D01*
X199254Y191611D01*
X200338Y191162D01*
X201244Y191043D01*
X201269Y191039D01*
X201250Y190734D01*
X200830Y190539D01*
X199345D01*
X195953Y193931D01*
Y198961D01*
X197000D01*
X197780Y199116D01*
X198442Y199558D01*
X200131Y201247D01*
X200338Y201162D01*
X201500Y201009D01*
X202662Y201162D01*
X203746Y201610D01*
X204676Y202324D01*
X205389Y203254D01*
X205838Y204338D01*
X205991Y205500D01*
X205838Y206662D01*
X205389Y207746D01*
X204676Y208676D01*
X203746Y209389D01*
X202662Y209838D01*
X201500Y209991D01*
X200338Y209838D01*
X199254Y209389D01*
X198324Y208676D01*
X197610Y207746D01*
X197162Y206662D01*
X197009Y205500D01*
X197162Y204338D01*
X197247Y204131D01*
X196275Y203159D01*
X195817Y203195D01*
X195545Y203630D01*
X195838Y204338D01*
X195991Y205500D01*
X195838Y206662D01*
X195389Y207746D01*
X194676Y208676D01*
X193746Y209389D01*
X192662Y209838D01*
X191500Y209991D01*
X190338Y209838D01*
X189254Y209389D01*
X188324Y208676D01*
X187610Y207746D01*
X187162Y206662D01*
X187009Y205500D01*
X187162Y204338D01*
X187493Y203539D01*
X187172Y203039D01*
X177500D01*
X176720Y202884D01*
X176058Y202442D01*
X172582Y198966D01*
X172025Y198855D01*
X171198Y198302D01*
X170645Y197476D01*
X170451Y196500D01*
X170645Y195525D01*
X171198Y194698D01*
X172025Y194145D01*
X172557Y194039D01*
X172508Y193539D01*
X152746D01*
X139344Y206942D01*
X138682Y207384D01*
X137902Y207539D01*
X135948D01*
X135476Y207855D01*
X134500Y208049D01*
X133525Y207855D01*
X132698Y207302D01*
X132145Y206475D01*
X131951Y205500D01*
X132145Y204524D01*
X132303Y204288D01*
X131915Y203969D01*
X123442Y212442D01*
X122780Y212884D01*
X122000Y213039D01*
D02*
G37*
G36*
X221500Y209991D02*
X220338Y209838D01*
X219254Y209389D01*
X218324Y208676D01*
X217611Y207746D01*
X217162Y206662D01*
X217009Y205500D01*
X217162Y204338D01*
X217611Y203254D01*
X218324Y202324D01*
X219254Y201610D01*
X220338Y201162D01*
X221500Y201009D01*
X222662Y201162D01*
X223746Y201610D01*
X224676Y202324D01*
X225390Y203254D01*
X225838Y204338D01*
X225991Y205500D01*
X225838Y206662D01*
X225390Y207746D01*
X224676Y208676D01*
X223746Y209389D01*
X222662Y209838D01*
X221500Y209991D01*
D02*
G37*
G36*
X211500D02*
X210338Y209838D01*
X209254Y209389D01*
X208324Y208676D01*
X207611Y207746D01*
X207162Y206662D01*
X207009Y205500D01*
X207162Y204338D01*
X207611Y203254D01*
X208324Y202324D01*
X209254Y201610D01*
X210338Y201162D01*
X211500Y201009D01*
X212662Y201162D01*
X213746Y201610D01*
X214676Y202324D01*
X215389Y203254D01*
X215838Y204338D01*
X215991Y205500D01*
X215838Y206662D01*
X215389Y207746D01*
X214676Y208676D01*
X213746Y209389D01*
X212662Y209838D01*
X211500Y209991D01*
D02*
G37*
G36*
X253500Y204895D02*
X252492Y204763D01*
X251552Y204374D01*
X250745Y203755D01*
X250126Y202948D01*
X249737Y202008D01*
X249605Y201000D01*
X249737Y199992D01*
X250126Y199052D01*
X250745Y198245D01*
X251552Y197626D01*
X252492Y197237D01*
X253500Y197105D01*
X254508Y197237D01*
X255448Y197626D01*
X256255Y198245D01*
X256874Y199052D01*
X257263Y199992D01*
X257396Y201000D01*
X257263Y202008D01*
X256874Y202948D01*
X256255Y203755D01*
X255448Y204374D01*
X254508Y204763D01*
X253500Y204895D01*
D02*
G37*
G36*
X222000Y199421D02*
Y196000D01*
X225421D01*
X225351Y196532D01*
X224953Y197493D01*
X224319Y198319D01*
X223493Y198953D01*
X222532Y199351D01*
X222000Y199421D01*
D02*
G37*
G36*
X221000D02*
X220468Y199351D01*
X219507Y198953D01*
X218681Y198319D01*
X218047Y197493D01*
X217649Y196532D01*
X217579Y196000D01*
X221000D01*
Y199421D01*
D02*
G37*
G36*
X225421Y195000D02*
X222000D01*
Y191579D01*
X222532Y191649D01*
X223493Y192047D01*
X224319Y192681D01*
X224953Y193507D01*
X225351Y194468D01*
X225421Y195000D01*
D02*
G37*
G36*
X221000D02*
X217579D01*
X217649Y194468D01*
X218047Y193507D01*
X218681Y192681D01*
X219507Y192047D01*
X220468Y191649D01*
X221000Y191579D01*
Y195000D01*
D02*
G37*
G36*
X426500D02*
X423000D01*
Y189500D01*
X426500D01*
Y195000D01*
D02*
G37*
G36*
X422000D02*
X418500D01*
Y189500D01*
X422000D01*
Y195000D01*
D02*
G37*
G36*
X426500Y188500D02*
X423000D01*
Y183000D01*
X426500D01*
Y188500D01*
D02*
G37*
G36*
X422000D02*
X418500D01*
Y183000D01*
X422000D01*
Y188500D01*
D02*
G37*
G36*
X34047Y173756D02*
X31382D01*
Y170500D01*
X34047D01*
Y173756D01*
D02*
G37*
G36*
X422500Y165539D02*
X421325Y165384D01*
X420231Y164931D01*
X419291Y164209D01*
X418569Y163269D01*
X418116Y162175D01*
X417961Y161000D01*
Y157000D01*
X418116Y155825D01*
X418569Y154731D01*
X419291Y153791D01*
X420231Y153069D01*
X421325Y152616D01*
X422500Y152461D01*
X423675Y152616D01*
X424769Y153069D01*
X425709Y153791D01*
X426431Y154731D01*
X426884Y155825D01*
X427039Y157000D01*
Y161000D01*
X426884Y162175D01*
X426431Y163269D01*
X425709Y164209D01*
X424769Y164931D01*
X423675Y165384D01*
X422500Y165539D01*
D02*
G37*
G36*
X19118Y137480D02*
X13500D01*
Y134815D01*
X19118D01*
Y137480D01*
D02*
G37*
G36*
X12500D02*
X6882D01*
Y134815D01*
X12500D01*
Y137480D01*
D02*
G37*
G36*
X19118Y133815D02*
X13500D01*
Y131150D01*
X19118D01*
Y133815D01*
D02*
G37*
G36*
X12500D02*
X6882D01*
Y131150D01*
X12500D01*
Y133815D01*
D02*
G37*
G36*
X18169Y109060D02*
X17693Y108965D01*
X16866Y108413D01*
X16314Y107586D01*
X16219Y107110D01*
X18169D01*
Y109060D01*
D02*
G37*
G36*
X18756Y88784D02*
X15500D01*
Y86118D01*
X18756D01*
Y88784D01*
D02*
G37*
G36*
X14500D02*
X11244D01*
Y86118D01*
X14500D01*
Y88784D01*
D02*
G37*
G36*
X68811Y77141D02*
X66861D01*
X66956Y76666D01*
X67509Y75839D01*
X68336Y75286D01*
X68811Y75191D01*
Y77141D01*
D02*
G37*
G36*
X323820Y53577D02*
X321871D01*
Y51628D01*
X322346Y51722D01*
X323173Y52275D01*
X323726Y53102D01*
X323820Y53577D01*
D02*
G37*
G36*
X320871D02*
X318921D01*
X319016Y53102D01*
X319568Y52275D01*
X320395Y51722D01*
X320871Y51628D01*
Y53577D01*
D02*
G37*
G36*
X320905Y41449D02*
Y39500D01*
X322855D01*
X322760Y39976D01*
X322208Y40802D01*
X321381Y41355D01*
X320905Y41449D01*
D02*
G37*
G36*
X322855Y38500D02*
X320905D01*
Y36551D01*
X321381Y36645D01*
X322208Y37198D01*
X322760Y38025D01*
X322855Y38500D01*
D02*
G37*
G36*
X424291Y31416D02*
X423378Y31296D01*
X422526Y30943D01*
X421795Y30382D01*
X421234Y29651D01*
X420881Y28800D01*
X420761Y27886D01*
X420881Y26972D01*
X421234Y26121D01*
X421795Y25390D01*
X422526Y24829D01*
X423378Y24476D01*
X424291Y24356D01*
X425205Y24476D01*
X426056Y24829D01*
X426788Y25390D01*
X427349Y26121D01*
X427701Y26972D01*
X427821Y27886D01*
X427701Y28800D01*
X427349Y29651D01*
X426788Y30382D01*
X426056Y30943D01*
X425205Y31296D01*
X424291Y31416D01*
D02*
G37*
G36*
X416417D02*
X415504Y31296D01*
X414652Y30943D01*
X413921Y30382D01*
X413360Y29651D01*
X413007Y28800D01*
X412887Y27886D01*
X413007Y26972D01*
X413360Y26121D01*
X413921Y25390D01*
X414652Y24829D01*
X415504Y24476D01*
X416417Y24356D01*
X417331Y24476D01*
X418182Y24829D01*
X418914Y25390D01*
X419475Y26121D01*
X419827Y26972D01*
X419947Y27886D01*
X419827Y28800D01*
X419475Y29651D01*
X418914Y30382D01*
X418182Y30943D01*
X417331Y31296D01*
X416417Y31416D01*
D02*
G37*
G36*
X408543D02*
X407630Y31296D01*
X406778Y30943D01*
X406047Y30382D01*
X405486Y29651D01*
X405133Y28800D01*
X405013Y27886D01*
X405133Y26972D01*
X405486Y26121D01*
X406047Y25390D01*
X406778Y24829D01*
X407630Y24476D01*
X408543Y24356D01*
X409457Y24476D01*
X410308Y24829D01*
X411039Y25390D01*
X411601Y26121D01*
X411953Y26972D01*
X412074Y27886D01*
X411953Y28800D01*
X411601Y29651D01*
X411039Y30382D01*
X410308Y30943D01*
X409457Y31296D01*
X408543Y31416D01*
D02*
G37*
G36*
X400669D02*
X399756Y31296D01*
X398904Y30943D01*
X398173Y30382D01*
X397612Y29651D01*
X397259Y28800D01*
X397139Y27886D01*
X397259Y26972D01*
X397612Y26121D01*
X398173Y25390D01*
X398904Y24829D01*
X399756Y24476D01*
X400669Y24356D01*
X401583Y24476D01*
X402434Y24829D01*
X403165Y25390D01*
X403726Y26121D01*
X404079Y26972D01*
X404200Y27886D01*
X404079Y28800D01*
X403726Y29651D01*
X403165Y30382D01*
X402434Y30943D01*
X401583Y31296D01*
X400669Y31416D01*
D02*
G37*
G36*
X392795D02*
X391882Y31296D01*
X391030Y30943D01*
X390299Y30382D01*
X389738Y29651D01*
X389385Y28800D01*
X389265Y27886D01*
X389385Y26972D01*
X389738Y26121D01*
X390299Y25390D01*
X391030Y24829D01*
X391882Y24476D01*
X392795Y24356D01*
X393709Y24476D01*
X394560Y24829D01*
X395291Y25390D01*
X395852Y26121D01*
X396205Y26972D01*
X396325Y27886D01*
X396205Y28800D01*
X395852Y29651D01*
X395291Y30382D01*
X394560Y30943D01*
X393709Y31296D01*
X392795Y31416D01*
D02*
G37*
G36*
X384921D02*
X384008Y31296D01*
X383156Y30943D01*
X382425Y30382D01*
X381864Y29651D01*
X381511Y28800D01*
X381391Y27886D01*
X381511Y26972D01*
X381864Y26121D01*
X382425Y25390D01*
X383156Y24829D01*
X384008Y24476D01*
X384921Y24356D01*
X385835Y24476D01*
X386686Y24829D01*
X387418Y25390D01*
X387979Y26121D01*
X388331Y26972D01*
X388452Y27886D01*
X388331Y28800D01*
X387979Y29651D01*
X387418Y30382D01*
X386686Y30943D01*
X385835Y31296D01*
X384921Y31416D01*
D02*
G37*
G36*
X377047D02*
X376134Y31296D01*
X375282Y30943D01*
X374551Y30382D01*
X373990Y29651D01*
X373637Y28800D01*
X373517Y27886D01*
X373637Y26972D01*
X373990Y26121D01*
X374551Y25390D01*
X375282Y24829D01*
X376134Y24476D01*
X377047Y24356D01*
X377961Y24476D01*
X378812Y24829D01*
X379543Y25390D01*
X380104Y26121D01*
X380457Y26972D01*
X380577Y27886D01*
X380457Y28800D01*
X380104Y29651D01*
X379543Y30382D01*
X378812Y30943D01*
X377961Y31296D01*
X377047Y31416D01*
D02*
G37*
G36*
X369173D02*
X368260Y31296D01*
X367408Y30943D01*
X366677Y30382D01*
X366116Y29651D01*
X365763Y28800D01*
X365643Y27886D01*
X365763Y26972D01*
X366116Y26121D01*
X366677Y25390D01*
X367408Y24829D01*
X368260Y24476D01*
X369173Y24356D01*
X370087Y24476D01*
X370938Y24829D01*
X371670Y25390D01*
X372231Y26121D01*
X372583Y26972D01*
X372703Y27886D01*
X372583Y28800D01*
X372231Y29651D01*
X371670Y30382D01*
X370938Y30943D01*
X370087Y31296D01*
X369173Y31416D01*
D02*
G37*
G36*
X361299D02*
X360385Y31296D01*
X359534Y30943D01*
X358803Y30382D01*
X358242Y29651D01*
X357889Y28800D01*
X357769Y27886D01*
X357889Y26972D01*
X358242Y26121D01*
X358803Y25390D01*
X359534Y24829D01*
X360385Y24476D01*
X361299Y24356D01*
X362213Y24476D01*
X363064Y24829D01*
X363795Y25390D01*
X364356Y26121D01*
X364709Y26972D01*
X364829Y27886D01*
X364709Y28800D01*
X364356Y29651D01*
X363795Y30382D01*
X363064Y30943D01*
X362213Y31296D01*
X361299Y31416D01*
D02*
G37*
G36*
X353425D02*
X352512Y31296D01*
X351660Y30943D01*
X350929Y30382D01*
X350368Y29651D01*
X350015Y28800D01*
X349895Y27886D01*
X350015Y26972D01*
X350368Y26121D01*
X350929Y25390D01*
X351660Y24829D01*
X352512Y24476D01*
X353425Y24356D01*
X354339Y24476D01*
X355190Y24829D01*
X355921Y25390D01*
X356482Y26121D01*
X356835Y26972D01*
X356955Y27886D01*
X356835Y28800D01*
X356482Y29651D01*
X355921Y30382D01*
X355190Y30943D01*
X354339Y31296D01*
X353425Y31416D01*
D02*
G37*
G36*
X106500Y29991D02*
X105338Y29838D01*
X104254Y29390D01*
X103324Y28676D01*
X102611Y27746D01*
X102162Y26662D01*
X102009Y25500D01*
X102162Y24338D01*
X102611Y23254D01*
X103324Y22324D01*
X104254Y21610D01*
X105338Y21162D01*
X106500Y21009D01*
X107662Y21162D01*
X108746Y21610D01*
X109676Y22324D01*
X110389Y23254D01*
X110838Y24338D01*
X110991Y25500D01*
X110838Y26662D01*
X110389Y27746D01*
X109676Y28676D01*
X108746Y29390D01*
X107662Y29838D01*
X106500Y29991D01*
D02*
G37*
G36*
X96500D02*
X95338Y29838D01*
X94254Y29390D01*
X93324Y28676D01*
X92611Y27746D01*
X92162Y26662D01*
X92009Y25500D01*
X92162Y24338D01*
X92611Y23254D01*
X93324Y22324D01*
X94254Y21610D01*
X95338Y21162D01*
X96500Y21009D01*
X97662Y21162D01*
X98746Y21610D01*
X99676Y22324D01*
X100390Y23254D01*
X100838Y24338D01*
X100991Y25500D01*
X100838Y26662D01*
X100390Y27746D01*
X99676Y28676D01*
X98746Y29390D01*
X97662Y29838D01*
X96500Y29991D01*
D02*
G37*
G36*
X86500D02*
X85338Y29838D01*
X84254Y29390D01*
X83324Y28676D01*
X82610Y27746D01*
X82162Y26662D01*
X82009Y25500D01*
X82162Y24338D01*
X82610Y23254D01*
X83324Y22324D01*
X84254Y21610D01*
X85338Y21162D01*
X86500Y21009D01*
X87662Y21162D01*
X88746Y21610D01*
X89676Y22324D01*
X90390Y23254D01*
X90838Y24338D01*
X90991Y25500D01*
X90838Y26662D01*
X90390Y27746D01*
X89676Y28676D01*
X88746Y29390D01*
X87662Y29838D01*
X86500Y29991D01*
D02*
G37*
G36*
X76500D02*
X75338Y29838D01*
X74254Y29390D01*
X73324Y28676D01*
X72610Y27746D01*
X72162Y26662D01*
X72009Y25500D01*
X72162Y24338D01*
X72610Y23254D01*
X73324Y22324D01*
X74254Y21610D01*
X75338Y21162D01*
X76500Y21009D01*
X77662Y21162D01*
X78746Y21610D01*
X79676Y22324D01*
X80389Y23254D01*
X80838Y24338D01*
X80991Y25500D01*
X80838Y26662D01*
X80389Y27746D01*
X79676Y28676D01*
X78746Y29390D01*
X77662Y29838D01*
X76500Y29991D01*
D02*
G37*
G36*
X66500D02*
X65338Y29838D01*
X64254Y29390D01*
X63324Y28676D01*
X62611Y27746D01*
X62162Y26662D01*
X62009Y25500D01*
X62162Y24338D01*
X62611Y23254D01*
X63324Y22324D01*
X64254Y21610D01*
X65338Y21162D01*
X66500Y21009D01*
X67662Y21162D01*
X68746Y21610D01*
X69676Y22324D01*
X70389Y23254D01*
X70838Y24338D01*
X70991Y25500D01*
X70838Y26662D01*
X70389Y27746D01*
X69676Y28676D01*
X68746Y29390D01*
X67662Y29838D01*
X66500Y29991D01*
D02*
G37*
G36*
X56500D02*
X55338Y29838D01*
X54254Y29390D01*
X53324Y28676D01*
X52610Y27746D01*
X52162Y26662D01*
X52009Y25500D01*
X52162Y24338D01*
X52610Y23254D01*
X53324Y22324D01*
X54254Y21610D01*
X55338Y21162D01*
X56500Y21009D01*
X57662Y21162D01*
X58746Y21610D01*
X59676Y22324D01*
X60390Y23254D01*
X60838Y24338D01*
X60991Y25500D01*
X60838Y26662D01*
X60390Y27746D01*
X59676Y28676D01*
X58746Y29390D01*
X57662Y29838D01*
X56500Y29991D01*
D02*
G37*
G36*
X46500D02*
X45338Y29838D01*
X44254Y29390D01*
X43324Y28676D01*
X42610Y27746D01*
X42162Y26662D01*
X42009Y25500D01*
X42162Y24338D01*
X42610Y23254D01*
X43324Y22324D01*
X44254Y21610D01*
X45338Y21162D01*
X46500Y21009D01*
X47662Y21162D01*
X48746Y21610D01*
X49676Y22324D01*
X50389Y23254D01*
X50838Y24338D01*
X50991Y25500D01*
X50838Y26662D01*
X50389Y27746D01*
X49676Y28676D01*
X48746Y29390D01*
X47662Y29838D01*
X46500Y29991D01*
D02*
G37*
G36*
X36500D02*
X35338Y29838D01*
X34254Y29390D01*
X33324Y28676D01*
X32610Y27746D01*
X32162Y26662D01*
X32009Y25500D01*
X32162Y24338D01*
X32610Y23254D01*
X33324Y22324D01*
X34254Y21610D01*
X35338Y21162D01*
X36500Y21009D01*
X37662Y21162D01*
X38746Y21610D01*
X39676Y22324D01*
X40389Y23254D01*
X40838Y24338D01*
X40991Y25500D01*
X40838Y26662D01*
X40389Y27746D01*
X39676Y28676D01*
X38746Y29390D01*
X37662Y29838D01*
X36500Y29991D01*
D02*
G37*
G36*
X26500D02*
X25338Y29838D01*
X24254Y29390D01*
X23324Y28676D01*
X22611Y27746D01*
X22162Y26662D01*
X22009Y25500D01*
X22162Y24338D01*
X22611Y23254D01*
X23324Y22324D01*
X24254Y21610D01*
X25338Y21162D01*
X26500Y21009D01*
X27662Y21162D01*
X28746Y21610D01*
X29676Y22324D01*
X30389Y23254D01*
X30838Y24338D01*
X30991Y25500D01*
X30838Y26662D01*
X30389Y27746D01*
X29676Y28676D01*
X28746Y29390D01*
X27662Y29838D01*
X26500Y29991D01*
D02*
G37*
G36*
X117000Y19421D02*
Y16000D01*
X120421D01*
X120351Y16532D01*
X119953Y17493D01*
X119319Y18319D01*
X118493Y18953D01*
X117532Y19351D01*
X117000Y19421D01*
D02*
G37*
G36*
X116000D02*
X115468Y19351D01*
X114507Y18953D01*
X113681Y18319D01*
X113047Y17493D01*
X112649Y16532D01*
X112579Y16000D01*
X116000D01*
Y19421D01*
D02*
G37*
G36*
X120421Y15000D02*
X117000D01*
Y11579D01*
X117532Y11649D01*
X118493Y12047D01*
X119319Y12681D01*
X119953Y13507D01*
X120351Y14468D01*
X120421Y15000D01*
D02*
G37*
G36*
X116000D02*
X112579D01*
X112649Y14468D01*
X113047Y13507D01*
X113681Y12681D01*
X114507Y12047D01*
X115468Y11649D01*
X116000Y11579D01*
Y15000D01*
D02*
G37*
G36*
X106500Y19991D02*
X105338Y19838D01*
X104254Y19389D01*
X103324Y18676D01*
X102611Y17746D01*
X102162Y16662D01*
X102009Y15500D01*
X102162Y14338D01*
X102611Y13254D01*
X103324Y12324D01*
X104254Y11610D01*
X105338Y11162D01*
X106500Y11009D01*
X107662Y11162D01*
X108746Y11610D01*
X109676Y12324D01*
X110389Y13254D01*
X110838Y14338D01*
X110991Y15500D01*
X110838Y16662D01*
X110389Y17746D01*
X109676Y18676D01*
X108746Y19389D01*
X107662Y19838D01*
X106500Y19991D01*
D02*
G37*
G36*
X96500D02*
X95338Y19838D01*
X94254Y19389D01*
X93324Y18676D01*
X92611Y17746D01*
X92162Y16662D01*
X92009Y15500D01*
X92162Y14338D01*
X92611Y13254D01*
X93324Y12324D01*
X94254Y11610D01*
X95338Y11162D01*
X96500Y11009D01*
X97662Y11162D01*
X98746Y11610D01*
X99676Y12324D01*
X100390Y13254D01*
X100838Y14338D01*
X100991Y15500D01*
X100838Y16662D01*
X100390Y17746D01*
X99676Y18676D01*
X98746Y19389D01*
X97662Y19838D01*
X96500Y19991D01*
D02*
G37*
G36*
X86500D02*
X85338Y19838D01*
X84254Y19389D01*
X83324Y18676D01*
X82610Y17746D01*
X82162Y16662D01*
X82009Y15500D01*
X82162Y14338D01*
X82610Y13254D01*
X83324Y12324D01*
X84254Y11610D01*
X85338Y11162D01*
X86500Y11009D01*
X87662Y11162D01*
X88746Y11610D01*
X89676Y12324D01*
X90390Y13254D01*
X90838Y14338D01*
X90991Y15500D01*
X90838Y16662D01*
X90390Y17746D01*
X89676Y18676D01*
X88746Y19389D01*
X87662Y19838D01*
X86500Y19991D01*
D02*
G37*
G36*
X76500D02*
X75338Y19838D01*
X74254Y19389D01*
X73324Y18676D01*
X72610Y17746D01*
X72162Y16662D01*
X72009Y15500D01*
X72162Y14338D01*
X72610Y13254D01*
X73324Y12324D01*
X74254Y11610D01*
X75338Y11162D01*
X76500Y11009D01*
X77662Y11162D01*
X78746Y11610D01*
X79676Y12324D01*
X80389Y13254D01*
X80838Y14338D01*
X80991Y15500D01*
X80838Y16662D01*
X80389Y17746D01*
X79676Y18676D01*
X78746Y19389D01*
X77662Y19838D01*
X76500Y19991D01*
D02*
G37*
G36*
X66500D02*
X65338Y19838D01*
X64254Y19389D01*
X63324Y18676D01*
X62611Y17746D01*
X62162Y16662D01*
X62009Y15500D01*
X62162Y14338D01*
X62611Y13254D01*
X63324Y12324D01*
X64254Y11610D01*
X65338Y11162D01*
X66500Y11009D01*
X67662Y11162D01*
X68746Y11610D01*
X69676Y12324D01*
X70389Y13254D01*
X70838Y14338D01*
X70991Y15500D01*
X70838Y16662D01*
X70389Y17746D01*
X69676Y18676D01*
X68746Y19389D01*
X67662Y19838D01*
X66500Y19991D01*
D02*
G37*
G36*
X56500D02*
X55338Y19838D01*
X54254Y19389D01*
X53324Y18676D01*
X52610Y17746D01*
X52162Y16662D01*
X52009Y15500D01*
X52162Y14338D01*
X52610Y13254D01*
X53324Y12324D01*
X54254Y11610D01*
X55338Y11162D01*
X56500Y11009D01*
X57662Y11162D01*
X58746Y11610D01*
X59676Y12324D01*
X60390Y13254D01*
X60838Y14338D01*
X60991Y15500D01*
X60838Y16662D01*
X60390Y17746D01*
X59676Y18676D01*
X58746Y19389D01*
X57662Y19838D01*
X56500Y19991D01*
D02*
G37*
G36*
X46500D02*
X45338Y19838D01*
X44254Y19389D01*
X43324Y18676D01*
X42610Y17746D01*
X42162Y16662D01*
X42009Y15500D01*
X42162Y14338D01*
X42610Y13254D01*
X43324Y12324D01*
X44254Y11610D01*
X45338Y11162D01*
X46500Y11009D01*
X47662Y11162D01*
X48746Y11610D01*
X49676Y12324D01*
X50389Y13254D01*
X50838Y14338D01*
X50991Y15500D01*
X50838Y16662D01*
X50389Y17746D01*
X49676Y18676D01*
X48746Y19389D01*
X47662Y19838D01*
X46500Y19991D01*
D02*
G37*
G36*
X36500D02*
X35338Y19838D01*
X34254Y19389D01*
X33324Y18676D01*
X32610Y17746D01*
X32162Y16662D01*
X32009Y15500D01*
X32162Y14338D01*
X32610Y13254D01*
X33324Y12324D01*
X34254Y11610D01*
X35338Y11162D01*
X36500Y11009D01*
X37662Y11162D01*
X38746Y11610D01*
X39676Y12324D01*
X40389Y13254D01*
X40838Y14338D01*
X40991Y15500D01*
X40838Y16662D01*
X40389Y17746D01*
X39676Y18676D01*
X38746Y19389D01*
X37662Y19838D01*
X36500Y19991D01*
D02*
G37*
G36*
X26500D02*
X25338Y19838D01*
X24254Y19389D01*
X23324Y18676D01*
X22611Y17746D01*
X22162Y16662D01*
X22009Y15500D01*
X22162Y14338D01*
X22611Y13254D01*
X23324Y12324D01*
X24254Y11610D01*
X25338Y11162D01*
X26500Y11009D01*
X27662Y11162D01*
X28746Y11610D01*
X29676Y12324D01*
X30389Y13254D01*
X30838Y14338D01*
X30991Y15500D01*
X30838Y16662D01*
X30389Y17746D01*
X29676Y18676D01*
X28746Y19389D01*
X27662Y19838D01*
X26500Y19991D01*
D02*
G37*
%LPD*%
G36*
X149017Y191501D02*
X148825Y191039D01*
X144845D01*
X132969Y202915D01*
X133288Y203303D01*
X133525Y203145D01*
X134500Y202951D01*
X135476Y203145D01*
X135948Y203461D01*
X137057D01*
X149017Y191501D01*
D02*
G37*
G36*
X112047Y201047D02*
X120953D01*
Y208456D01*
X121453Y208663D01*
X142558Y187558D01*
X143220Y187116D01*
X144000Y186961D01*
X175752D01*
X176019Y186461D01*
X175695Y185976D01*
X175501Y185000D01*
X175695Y184025D01*
X176071Y183462D01*
Y182118D01*
X173744D01*
Y174787D01*
Y170473D01*
X173244Y170341D01*
X172476Y170855D01*
X171918Y170966D01*
X161942Y180942D01*
X161280Y181384D01*
X160500Y181539D01*
X119345D01*
X110942Y189942D01*
X110280Y190384D01*
X109500Y190539D01*
X97170D01*
X96750Y190734D01*
X96731Y191039D01*
X96756Y191043D01*
X97662Y191162D01*
X98746Y191611D01*
X99676Y192324D01*
X100390Y193254D01*
X100838Y194338D01*
X100991Y195500D01*
X100838Y196662D01*
X100390Y197746D01*
X99676Y198676D01*
X98746Y199390D01*
X97662Y199838D01*
X96500Y199991D01*
X95338Y199838D01*
X94254Y199390D01*
X93324Y198676D01*
X92611Y197746D01*
X92162Y196662D01*
X92009Y195500D01*
X92162Y194338D01*
X92611Y193254D01*
X93324Y192324D01*
X94254Y191611D01*
X95338Y191162D01*
X96244Y191043D01*
X96269Y191039D01*
X96250Y190734D01*
X95830Y190539D01*
X87170D01*
X86751Y190734D01*
X86731Y191039D01*
X86756Y191043D01*
X87662Y191162D01*
X88746Y191611D01*
X89676Y192324D01*
X90390Y193254D01*
X90838Y194338D01*
X90991Y195500D01*
X90838Y196662D01*
X90390Y197746D01*
X89676Y198676D01*
X88746Y199390D01*
X87662Y199838D01*
X86500Y199991D01*
X85338Y199838D01*
X84254Y199390D01*
X83324Y198676D01*
X82610Y197746D01*
X82162Y196662D01*
X82009Y195500D01*
X82162Y194338D01*
X82610Y193254D01*
X83324Y192324D01*
X84254Y191611D01*
X85338Y191162D01*
X86244Y191043D01*
X86269Y191039D01*
X86250Y190734D01*
X85830Y190539D01*
X77360D01*
X77309Y190611D01*
X77540Y191146D01*
X77662Y191162D01*
X78746Y191611D01*
X79676Y192324D01*
X80389Y193254D01*
X80838Y194338D01*
X80991Y195500D01*
X80838Y196662D01*
X80389Y197746D01*
X79676Y198676D01*
X78746Y199390D01*
X77662Y199838D01*
X76500Y199991D01*
X75338Y199838D01*
X74342Y199426D01*
X74241Y199394D01*
X73683Y199581D01*
X73442Y199942D01*
X71942Y201442D01*
X71280Y201884D01*
X70500Y202039D01*
X70087D01*
X69841Y202539D01*
X70389Y203254D01*
X70838Y204338D01*
X70991Y205500D01*
X70838Y206662D01*
X70389Y207746D01*
X69841Y208461D01*
X70087Y208961D01*
X72913D01*
X73159Y208461D01*
X72610Y207746D01*
X72162Y206662D01*
X72009Y205500D01*
X72162Y204338D01*
X72610Y203254D01*
X73324Y202324D01*
X74254Y201610D01*
X75338Y201162D01*
X76500Y201009D01*
X77662Y201162D01*
X78746Y201610D01*
X79676Y202324D01*
X80389Y203254D01*
X80838Y204338D01*
X80991Y205500D01*
X80838Y206662D01*
X80389Y207746D01*
X79841Y208461D01*
X80087Y208961D01*
X82913D01*
X83159Y208461D01*
X82610Y207746D01*
X82162Y206662D01*
X82009Y205500D01*
X82162Y204338D01*
X82610Y203254D01*
X83324Y202324D01*
X84254Y201610D01*
X85338Y201162D01*
X86500Y201009D01*
X87662Y201162D01*
X88746Y201610D01*
X89676Y202324D01*
X90390Y203254D01*
X90838Y204338D01*
X90991Y205500D01*
X90838Y206662D01*
X90390Y207746D01*
X89841Y208461D01*
X90087Y208961D01*
X92913D01*
X93159Y208461D01*
X92611Y207746D01*
X92162Y206662D01*
X92009Y205500D01*
X92162Y204338D01*
X92611Y203254D01*
X93324Y202324D01*
X94254Y201610D01*
X95338Y201162D01*
X96500Y201009D01*
X97662Y201162D01*
X98746Y201610D01*
X99676Y202324D01*
X100390Y203254D01*
X100838Y204338D01*
X100991Y205500D01*
X100838Y206662D01*
X100390Y207746D01*
X99841Y208461D01*
X100087Y208961D01*
X102913D01*
X103159Y208461D01*
X102611Y207746D01*
X102162Y206662D01*
X102009Y205500D01*
X102162Y204338D01*
X102611Y203254D01*
X103324Y202324D01*
X104254Y201610D01*
X105338Y201162D01*
X106500Y201009D01*
X107662Y201162D01*
X108746Y201610D01*
X109676Y202324D01*
X110389Y203254D01*
X110838Y204338D01*
X110991Y205500D01*
X110838Y206662D01*
X110389Y207746D01*
X109841Y208461D01*
X110087Y208961D01*
X112047D01*
Y201047D01*
D02*
G37*
G36*
X53159Y208461D02*
X52610Y207746D01*
X52162Y206662D01*
X52009Y205500D01*
X52162Y204338D01*
X52610Y203254D01*
X53159Y202539D01*
X52913Y202039D01*
X51000D01*
X50220Y201884D01*
X49558Y201442D01*
X47869Y199753D01*
X47662Y199838D01*
X46500Y199991D01*
X45338Y199838D01*
X44254Y199390D01*
X43324Y198676D01*
X42610Y197746D01*
X42162Y196662D01*
X42009Y195500D01*
X42162Y194338D01*
X42610Y193254D01*
X43324Y192324D01*
X44254Y191611D01*
X45338Y191162D01*
X46500Y191009D01*
X47662Y191162D01*
X48746Y191611D01*
X49676Y192324D01*
X50389Y193254D01*
X50838Y194338D01*
X50991Y195500D01*
X50838Y196662D01*
X50753Y196869D01*
X51725Y197841D01*
X52183Y197805D01*
X52455Y197370D01*
X52162Y196662D01*
X52009Y195500D01*
X52162Y194338D01*
X52610Y193254D01*
X53324Y192324D01*
X54254Y191611D01*
X55338Y191162D01*
X56500Y191009D01*
X57662Y191162D01*
X57869Y191247D01*
X66058Y183058D01*
X66720Y182616D01*
X67500Y182461D01*
X108155D01*
X115058Y175558D01*
X115720Y175116D01*
X116500Y174961D01*
X137924D01*
X138115Y174499D01*
X131085Y167469D01*
X130697Y167788D01*
X130855Y168025D01*
X131049Y169000D01*
X130855Y169975D01*
X130302Y170802D01*
X129475Y171355D01*
X128500Y171549D01*
X127524Y171355D01*
X127052Y171039D01*
X121000D01*
X121000Y171039D01*
X120220Y170884D01*
X119558Y170442D01*
X119243Y170473D01*
X118934Y170934D01*
X118107Y171487D01*
X117132Y171681D01*
X116157Y171487D01*
X115330Y170934D01*
X114777Y170107D01*
X114633Y169385D01*
X112387Y167139D01*
X111890Y167188D01*
X111802Y167318D01*
X110976Y167871D01*
X110000Y168065D01*
X109025Y167871D01*
X108198Y167318D01*
X107645Y166491D01*
X107534Y165934D01*
X106022Y164421D01*
X105524Y164470D01*
X105302Y164802D01*
X104475Y165355D01*
X103500Y165549D01*
X102524Y165355D01*
X102024Y165021D01*
X101496Y165269D01*
X101355Y165975D01*
X100802Y166802D01*
X99976Y167355D01*
X99793Y167391D01*
X99780Y167400D01*
X99000Y167555D01*
X98220Y167400D01*
X98207Y167391D01*
X98024Y167355D01*
X97198Y166802D01*
X96645Y165975D01*
X96451Y165000D01*
X96645Y164024D01*
X96711Y163926D01*
Y158326D01*
X96249Y158135D01*
X75442Y178942D01*
X74780Y179384D01*
X74000Y179539D01*
X29845D01*
X21039Y188345D01*
Y197155D01*
X25131Y201247D01*
X25338Y201162D01*
X26500Y201009D01*
X27662Y201162D01*
X28699Y201591D01*
X28796Y201584D01*
X29233Y201355D01*
X29261Y201144D01*
X27869Y199753D01*
X27662Y199838D01*
X26500Y199991D01*
X25338Y199838D01*
X24254Y199390D01*
X23324Y198676D01*
X22611Y197746D01*
X22162Y196662D01*
X22009Y195500D01*
X22162Y194338D01*
X22611Y193254D01*
X23324Y192324D01*
X24254Y191611D01*
X25338Y191162D01*
X26500Y191009D01*
X27662Y191162D01*
X28746Y191611D01*
X29676Y192324D01*
X30389Y193254D01*
X30838Y194338D01*
X30991Y195500D01*
X30838Y196662D01*
X30753Y196869D01*
X32942Y199058D01*
X33384Y199720D01*
X33539Y200500D01*
Y201594D01*
X33988Y201815D01*
X34254Y201610D01*
X35338Y201162D01*
X36500Y201009D01*
X37662Y201162D01*
X38746Y201610D01*
X39676Y202324D01*
X40389Y203254D01*
X40838Y204338D01*
X40991Y205500D01*
X40838Y206662D01*
X40389Y207746D01*
X39841Y208461D01*
X40087Y208961D01*
X42913D01*
X43159Y208461D01*
X42610Y207746D01*
X42162Y206662D01*
X42009Y205500D01*
X42162Y204338D01*
X42610Y203254D01*
X43324Y202324D01*
X44254Y201610D01*
X45338Y201162D01*
X46500Y201009D01*
X47662Y201162D01*
X48746Y201610D01*
X49676Y202324D01*
X50389Y203254D01*
X50838Y204338D01*
X50991Y205500D01*
X50838Y206662D01*
X50389Y207746D01*
X49841Y208461D01*
X50087Y208961D01*
X52913D01*
X53159Y208461D01*
D02*
G37*
G36*
X291115Y201999D02*
X289058Y199942D01*
X288616Y199280D01*
X288461Y198500D01*
Y160500D01*
X288616Y159720D01*
X289058Y159058D01*
X289720Y158616D01*
X290500Y158461D01*
X292913D01*
X293159Y157961D01*
X292611Y157246D01*
X292162Y156162D01*
X292009Y155000D01*
X292162Y153838D01*
X292540Y152924D01*
X289558Y149942D01*
X289116Y149280D01*
X288961Y148500D01*
Y146217D01*
X288860Y146140D01*
X288380Y145513D01*
X288077Y144783D01*
X287974Y144000D01*
X288077Y143217D01*
X288380Y142487D01*
X288860Y141860D01*
X289487Y141379D01*
X290054Y141145D01*
X290231Y140615D01*
X287640Y138023D01*
X286081D01*
X285930Y138339D01*
X285907Y138523D01*
X287442Y140058D01*
X287884Y140720D01*
X288039Y141500D01*
X287884Y142280D01*
X287442Y142942D01*
X282039Y148345D01*
Y189783D01*
X282140Y189860D01*
X282621Y190487D01*
X282923Y191217D01*
X283026Y192000D01*
X282923Y192783D01*
X282621Y193513D01*
X282140Y194140D01*
X281513Y194621D01*
X280783Y194923D01*
X280000Y195026D01*
X279217Y194923D01*
X278487Y194621D01*
X277860Y194140D01*
X277379Y193513D01*
X277077Y192783D01*
X276974Y192000D01*
X277077Y191217D01*
X277379Y190487D01*
X277860Y189860D01*
X277961Y189783D01*
Y147500D01*
X278116Y146720D01*
X278558Y146058D01*
X278993Y145623D01*
X278801Y145161D01*
X277472D01*
X277352Y145765D01*
X276910Y146426D01*
X276596Y146636D01*
X276855Y147025D01*
X277049Y148000D01*
X276855Y148976D01*
X276302Y149802D01*
X275476Y150355D01*
X274500Y150549D01*
X273524Y150355D01*
X272698Y149802D01*
X272334Y149258D01*
X271713Y149171D01*
X269442Y151442D01*
X268780Y151884D01*
X268000Y152039D01*
X264948D01*
X264475Y152355D01*
X263500Y152549D01*
X262525Y152355D01*
X261698Y151802D01*
X261145Y150976D01*
X260951Y150000D01*
X261050Y149503D01*
X260304Y149355D01*
X259477Y148802D01*
X259020Y148118D01*
X258454Y147977D01*
X240118Y166313D01*
Y171256D01*
X238539D01*
Y172500D01*
X238539Y172500D01*
X238384Y173280D01*
X237942Y173942D01*
X233989Y177895D01*
X233328Y178337D01*
X232547Y178492D01*
X203756D01*
Y180118D01*
X195655D01*
X195328Y180337D01*
X194756Y180450D01*
Y182118D01*
X192539D01*
Y183552D01*
X192855Y184025D01*
X193049Y185000D01*
X192855Y185976D01*
X192302Y186802D01*
X191475Y187355D01*
X190500Y187549D01*
X189524Y187355D01*
X188698Y186802D01*
X188145Y185976D01*
X187951Y185000D01*
X188145Y184025D01*
X188461Y183552D01*
Y182118D01*
X187539D01*
Y182500D01*
X187384Y183280D01*
X186942Y183942D01*
X181885Y188999D01*
X182076Y189461D01*
X187500D01*
X188280Y189616D01*
X188942Y190058D01*
X189931Y191047D01*
X193069D01*
X197058Y187058D01*
X197058Y187058D01*
X197720Y186616D01*
X198500Y186461D01*
X261000D01*
X261780Y186616D01*
X262442Y187058D01*
X272606Y197222D01*
X273500Y197105D01*
X274508Y197237D01*
X275448Y197626D01*
X276255Y198245D01*
X276874Y199052D01*
X277263Y199992D01*
X277396Y201000D01*
X277278Y201894D01*
X277845Y202461D01*
X290924D01*
X291115Y201999D01*
D02*
G37*
G36*
X187047Y193931D02*
X186655Y193539D01*
X173493D01*
X173443Y194039D01*
X173976Y194145D01*
X174802Y194698D01*
X175355Y195525D01*
X175466Y196082D01*
X178345Y198961D01*
X187047D01*
Y193931D01*
D02*
G37*
G36*
X62493Y197461D02*
X62162Y196662D01*
X62009Y195500D01*
X62162Y194338D01*
X62611Y193254D01*
X63324Y192324D01*
X64254Y191611D01*
X65338Y191162D01*
X66500Y191009D01*
X67662Y191162D01*
X68746Y191611D01*
X69511Y192198D01*
X69992Y192066D01*
X70058Y192011D01*
X70116Y191720D01*
X70558Y191058D01*
X74558Y187058D01*
X74586Y187039D01*
X74435Y186539D01*
X68345D01*
X60753Y194131D01*
X60838Y194338D01*
X60991Y195500D01*
X60838Y196662D01*
X60507Y197461D01*
X60827Y197961D01*
X62173D01*
X62493Y197461D01*
D02*
G37*
G36*
X304254Y181111D02*
X305338Y180662D01*
X306500Y180509D01*
X307662Y180662D01*
X307869Y180747D01*
X316961Y171655D01*
Y151345D01*
X314539Y148923D01*
X314039Y149130D01*
Y160000D01*
X313884Y160780D01*
X313442Y161442D01*
X310862Y164022D01*
X310991Y165000D01*
X310838Y166162D01*
X310389Y167246D01*
X309676Y168176D01*
X308746Y168889D01*
X307662Y169338D01*
X306500Y169491D01*
X305338Y169338D01*
X305131Y169253D01*
X303740Y170644D01*
X303767Y170854D01*
X304204Y171084D01*
X304302Y171091D01*
X305338Y170662D01*
X306500Y170509D01*
X307662Y170662D01*
X308746Y171110D01*
X309676Y171824D01*
X310389Y172754D01*
X310838Y173838D01*
X310991Y175000D01*
X310838Y176162D01*
X310389Y177246D01*
X309676Y178176D01*
X308746Y178890D01*
X307662Y179338D01*
X306500Y179491D01*
X305338Y179338D01*
X304254Y178890D01*
X303988Y178685D01*
X303539Y178906D01*
Y181094D01*
X303988Y181315D01*
X304254Y181111D01*
D02*
G37*
G36*
X214568Y173952D02*
X208558Y167942D01*
X208442D01*
X207780Y168384D01*
X207000Y168539D01*
X203756D01*
Y172787D01*
Y174414D01*
X204671D01*
X204938Y173914D01*
X204645Y173476D01*
X204451Y172500D01*
X204645Y171525D01*
X205198Y170698D01*
X206025Y170145D01*
X207000Y169951D01*
X207976Y170145D01*
X208802Y170698D01*
X209355Y171525D01*
X209466Y172082D01*
X209942Y172558D01*
X210384Y173220D01*
X210539Y174000D01*
Y174414D01*
X214376D01*
X214568Y173952D01*
D02*
G37*
G36*
X156146Y171756D02*
X155899Y171256D01*
X144882D01*
Y166602D01*
X142448D01*
X141975Y166918D01*
X141000Y167112D01*
X140024Y166918D01*
X139198Y166365D01*
X138645Y165538D01*
X138451Y164563D01*
X138645Y163587D01*
X139198Y162761D01*
X140024Y162208D01*
X141000Y162014D01*
X141975Y162208D01*
X142448Y162524D01*
X145140D01*
X145851Y161813D01*
X145817Y161695D01*
X145461Y161331D01*
X144646Y161494D01*
X143830Y161331D01*
X143661Y161219D01*
X143493Y161331D01*
X142677Y161494D01*
X141861Y161331D01*
X141170Y160869D01*
X140708Y160178D01*
X140546Y159362D01*
Y154835D01*
X140708Y154019D01*
X141170Y153327D01*
X141861Y152865D01*
X142677Y152703D01*
X143493Y152865D01*
X143661Y152978D01*
X143830Y152865D01*
X144646Y152703D01*
X145461Y152865D01*
X145630Y152978D01*
X145799Y152865D01*
X146614Y152703D01*
X147430Y152865D01*
X147598Y152978D01*
X147767Y152865D01*
X148583Y152703D01*
X149398Y152865D01*
X149567Y152978D01*
X149735Y152865D01*
X150551Y152703D01*
X151367Y152865D01*
X151535Y152978D01*
X151704Y152865D01*
X152520Y152703D01*
X153335Y152865D01*
X153504Y152978D01*
X153673Y152865D01*
X154488Y152703D01*
X155304Y152865D01*
X155472Y152978D01*
X155641Y152865D01*
X156457Y152703D01*
X157272Y152865D01*
X157441Y152978D01*
X157609Y152865D01*
X158425Y152703D01*
X159241Y152865D01*
X159409Y152978D01*
X159578Y152865D01*
X160394Y152703D01*
X161209Y152865D01*
X161378Y152978D01*
X161547Y152865D01*
X162362Y152703D01*
X163178Y152865D01*
X163347Y152978D01*
X163515Y152865D01*
X164331Y152703D01*
X165146Y152865D01*
X165315Y152978D01*
X165483Y152865D01*
X166299Y152703D01*
X167115Y152865D01*
X167283Y152978D01*
X167452Y152865D01*
X168268Y152703D01*
X169083Y152865D01*
X169252Y152978D01*
X169421Y152865D01*
X170236Y152703D01*
X171052Y152865D01*
X171221Y152978D01*
X171389Y152865D01*
X172205Y152703D01*
X173020Y152865D01*
X173189Y152978D01*
X173357Y152865D01*
X174173Y152703D01*
X174989Y152865D01*
X175157Y152978D01*
X175326Y152865D01*
X176142Y152703D01*
X176957Y152865D01*
X177126Y152978D01*
X177295Y152865D01*
X178110Y152703D01*
X178926Y152865D01*
X179095Y152978D01*
X179263Y152865D01*
X180079Y152703D01*
X180894Y152865D01*
X181063Y152978D01*
X181232Y152865D01*
X182047Y152703D01*
X182863Y152865D01*
X183031Y152978D01*
X183200Y152865D01*
X184016Y152703D01*
X184831Y152865D01*
X185000Y152978D01*
X185169Y152865D01*
X185984Y152703D01*
X186800Y152865D01*
X186969Y152978D01*
X187137Y152865D01*
X187953Y152703D01*
X188768Y152865D01*
X188937Y152978D01*
X189106Y152865D01*
X189921Y152703D01*
X190737Y152865D01*
X190905Y152978D01*
X191074Y152865D01*
X191890Y152703D01*
X192706Y152865D01*
X192874Y152978D01*
X193043Y152865D01*
X193858Y152703D01*
X194674Y152865D01*
X194843Y152978D01*
X195011Y152865D01*
X195827Y152703D01*
X196642Y152865D01*
X196811Y152978D01*
X196980Y152865D01*
X197795Y152703D01*
X198611Y152865D01*
X198779Y152978D01*
X198948Y152865D01*
X199764Y152703D01*
X200580Y152865D01*
X200748Y152978D01*
X200917Y152865D01*
X201732Y152703D01*
X202548Y152865D01*
X202716Y152978D01*
X202885Y152865D01*
X203701Y152703D01*
X204517Y152865D01*
X204685Y152978D01*
X204854Y152865D01*
X205669Y152703D01*
X206485Y152865D01*
X206653Y152978D01*
X206822Y152865D01*
X207638Y152703D01*
X208453Y152865D01*
X208622Y152978D01*
X208791Y152865D01*
X209606Y152703D01*
X210422Y152865D01*
X210591Y152978D01*
X210759Y152865D01*
X211575Y152703D01*
X212390Y152865D01*
X212559Y152978D01*
X212728Y152865D01*
X213543Y152703D01*
X214359Y152865D01*
X214528Y152978D01*
X214696Y152865D01*
X215512Y152703D01*
X216328Y152865D01*
X216496Y152978D01*
X216665Y152865D01*
X217480Y152703D01*
X218296Y152865D01*
X218465Y152978D01*
X218633Y152865D01*
X219449Y152703D01*
X220265Y152865D01*
X220433Y152978D01*
X220602Y152865D01*
X221417Y152703D01*
X222233Y152865D01*
X222402Y152978D01*
X222570Y152865D01*
X223386Y152703D01*
X224201Y152865D01*
X224370Y152978D01*
X224539Y152865D01*
X225354Y152703D01*
X226170Y152865D01*
X226339Y152978D01*
X226507Y152865D01*
X227147Y152738D01*
X227355Y152239D01*
X226923Y151807D01*
X140193D01*
Y62193D01*
X229807D01*
Y148923D01*
X230239Y149355D01*
X230738Y149147D01*
X230865Y148507D01*
X230978Y148339D01*
X230865Y148170D01*
X230703Y147354D01*
X230865Y146539D01*
X230978Y146370D01*
X230865Y146202D01*
X230703Y145386D01*
X230865Y144570D01*
X230978Y144402D01*
X230865Y144233D01*
X230703Y143417D01*
X230865Y142602D01*
X230978Y142433D01*
X230865Y142264D01*
X230703Y141449D01*
X230865Y140633D01*
X230978Y140465D01*
X230865Y140296D01*
X230703Y139480D01*
X230865Y138665D01*
X230978Y138496D01*
X230865Y138328D01*
X230703Y137512D01*
X230865Y136696D01*
X230978Y136528D01*
X230865Y136359D01*
X230703Y135543D01*
X230865Y134728D01*
X230978Y134559D01*
X230865Y134390D01*
X230703Y133575D01*
X230865Y132759D01*
X230978Y132591D01*
X230865Y132422D01*
X230703Y131606D01*
X230865Y130791D01*
X230978Y130622D01*
X230865Y130454D01*
X230703Y129638D01*
X230865Y128822D01*
X230978Y128654D01*
X230865Y128485D01*
X230703Y127669D01*
X230865Y126854D01*
X230978Y126685D01*
X230865Y126516D01*
X230703Y125701D01*
X230865Y124885D01*
X230978Y124716D01*
X230865Y124548D01*
X230703Y123732D01*
X230865Y122917D01*
X230978Y122748D01*
X230865Y122580D01*
X230703Y121764D01*
X230865Y120948D01*
X230978Y120780D01*
X230865Y120611D01*
X230703Y119795D01*
X230865Y118980D01*
X230978Y118811D01*
X230865Y118642D01*
X230703Y117827D01*
X230865Y117011D01*
X230978Y116842D01*
X230865Y116674D01*
X230703Y115858D01*
X230865Y115043D01*
X230978Y114874D01*
X230865Y114706D01*
X230703Y113890D01*
X230865Y113074D01*
X230978Y112906D01*
X230865Y112737D01*
X230703Y111921D01*
X230865Y111106D01*
X230978Y110937D01*
X230865Y110768D01*
X230703Y109953D01*
X230865Y109137D01*
X230978Y108968D01*
X230865Y108800D01*
X230703Y107984D01*
X230865Y107169D01*
X230978Y107000D01*
X230865Y106831D01*
X230703Y106016D01*
X230865Y105200D01*
X230978Y105032D01*
X230865Y104863D01*
X230703Y104047D01*
X230865Y103232D01*
X230978Y103063D01*
X230865Y102894D01*
X230703Y102079D01*
X230865Y101263D01*
X230978Y101094D01*
X230865Y100926D01*
X230703Y100110D01*
X230865Y99295D01*
X230978Y99126D01*
X230865Y98957D01*
X230703Y98142D01*
X230865Y97326D01*
X230978Y97158D01*
X230865Y96989D01*
X230703Y96173D01*
X230865Y95358D01*
X230978Y95189D01*
X230865Y95020D01*
X230703Y94205D01*
X230865Y93389D01*
X230978Y93221D01*
X230865Y93052D01*
X230703Y92236D01*
X230865Y91421D01*
X230978Y91252D01*
X230865Y91083D01*
X230703Y90268D01*
X230865Y89452D01*
X230978Y89284D01*
X230865Y89115D01*
X230703Y88299D01*
X230865Y87484D01*
X230978Y87315D01*
X230865Y87146D01*
X230703Y86331D01*
X230865Y85515D01*
X230978Y85347D01*
X230865Y85178D01*
X230703Y84362D01*
X230865Y83547D01*
X230978Y83378D01*
X230865Y83209D01*
X230703Y82394D01*
X230865Y81578D01*
X230978Y81410D01*
X230865Y81241D01*
X230703Y80425D01*
X230865Y79610D01*
X230978Y79441D01*
X230865Y79272D01*
X230703Y78457D01*
X230865Y77641D01*
X230978Y77472D01*
X230865Y77304D01*
X230703Y76488D01*
X230865Y75673D01*
X230978Y75504D01*
X230865Y75335D01*
X230703Y74520D01*
X230865Y73704D01*
X230978Y73535D01*
X230865Y73367D01*
X230703Y72551D01*
X230865Y71736D01*
X230978Y71567D01*
X230865Y71398D01*
X230703Y70583D01*
X230865Y69767D01*
X230978Y69598D01*
X230865Y69430D01*
X230703Y68614D01*
X230865Y67799D01*
X230978Y67630D01*
X230865Y67461D01*
X230703Y66646D01*
X230865Y65830D01*
X230978Y65661D01*
X230865Y65493D01*
X230703Y64677D01*
X230865Y63862D01*
X231327Y63170D01*
X232019Y62708D01*
X232835Y62546D01*
X237362D01*
X238178Y62708D01*
X238869Y63170D01*
X239332Y63862D01*
X239494Y64677D01*
X239485Y64720D01*
X239956Y64915D01*
X240058Y64763D01*
X240534Y64287D01*
X240645Y63729D01*
X241198Y62902D01*
X242024Y62349D01*
X243000Y62155D01*
X243744Y62304D01*
X244244Y61974D01*
Y60287D01*
Y54382D01*
X243882Y54049D01*
X229834D01*
X229437Y54549D01*
X229454Y54638D01*
Y59165D01*
X229292Y59981D01*
X228830Y60673D01*
X228138Y61135D01*
X227323Y61297D01*
X226507Y61135D01*
X226339Y61022D01*
X226170Y61135D01*
X225354Y61297D01*
X224539Y61135D01*
X224370Y61022D01*
X224201Y61135D01*
X223386Y61297D01*
X222570Y61135D01*
X222402Y61022D01*
X222233Y61135D01*
X221417Y61297D01*
X220602Y61135D01*
X220433Y61022D01*
X220265Y61135D01*
X219449Y61297D01*
X218633Y61135D01*
X218465Y61022D01*
X218296Y61135D01*
X217480Y61297D01*
X216665Y61135D01*
X216496Y61022D01*
X216328Y61135D01*
X215512Y61297D01*
X214696Y61135D01*
X214528Y61022D01*
X214359Y61135D01*
X213543Y61297D01*
X212728Y61135D01*
X212559Y61022D01*
X212390Y61135D01*
X211575Y61297D01*
X210759Y61135D01*
X210591Y61022D01*
X210422Y61135D01*
X209606Y61297D01*
X208791Y61135D01*
X208622Y61022D01*
X208453Y61135D01*
X207638Y61297D01*
X206822Y61135D01*
X206653Y61022D01*
X206485Y61135D01*
X205669Y61297D01*
X204854Y61135D01*
X204685Y61022D01*
X204517Y61135D01*
X203701Y61297D01*
X202885Y61135D01*
X202716Y61022D01*
X202548Y61135D01*
X201732Y61297D01*
X200917Y61135D01*
X200748Y61022D01*
X200580Y61135D01*
X199764Y61297D01*
X198948Y61135D01*
X198779Y61022D01*
X198611Y61135D01*
X197795Y61297D01*
X196980Y61135D01*
X196811Y61022D01*
X196642Y61135D01*
X195827Y61297D01*
X195011Y61135D01*
X194843Y61022D01*
X194674Y61135D01*
X193858Y61297D01*
X193043Y61135D01*
X192874Y61022D01*
X192706Y61135D01*
X191890Y61297D01*
X191074Y61135D01*
X190905Y61022D01*
X190737Y61135D01*
X189921Y61297D01*
X189106Y61135D01*
X188937Y61022D01*
X188768Y61135D01*
X187953Y61297D01*
X187137Y61135D01*
X186969Y61022D01*
X186800Y61135D01*
X185984Y61297D01*
X185169Y61135D01*
X185000Y61022D01*
X184831Y61135D01*
X184016Y61297D01*
X183200Y61135D01*
X183031Y61022D01*
X182863Y61135D01*
X182047Y61297D01*
X181232Y61135D01*
X181063Y61022D01*
X180894Y61135D01*
X180079Y61297D01*
X179263Y61135D01*
X179095Y61022D01*
X178926Y61135D01*
X178110Y61297D01*
X177295Y61135D01*
X177126Y61022D01*
X176957Y61135D01*
X176142Y61297D01*
X175326Y61135D01*
X175157Y61022D01*
X174989Y61135D01*
X174173Y61297D01*
X173357Y61135D01*
X173189Y61022D01*
X173020Y61135D01*
X172205Y61297D01*
X171389Y61135D01*
X171221Y61022D01*
X171052Y61135D01*
X170236Y61297D01*
X169421Y61135D01*
X169252Y61022D01*
X169083Y61135D01*
X168268Y61297D01*
X167452Y61135D01*
X167283Y61022D01*
X167115Y61135D01*
X166299Y61297D01*
X165483Y61135D01*
X165315Y61022D01*
X165146Y61135D01*
X164331Y61297D01*
X163515Y61135D01*
X163347Y61022D01*
X163178Y61135D01*
X162362Y61297D01*
X161547Y61135D01*
X161378Y61022D01*
X161209Y61135D01*
X160394Y61297D01*
X159578Y61135D01*
X159409Y61022D01*
X159241Y61135D01*
X158425Y61297D01*
X157609Y61135D01*
X157441Y61022D01*
X157272Y61135D01*
X156457Y61297D01*
X155641Y61135D01*
X155472Y61022D01*
X155304Y61135D01*
X154488Y61297D01*
X153673Y61135D01*
X153504Y61022D01*
X153335Y61135D01*
X152520Y61297D01*
X151704Y61135D01*
X151535Y61022D01*
X151367Y61135D01*
X150551Y61297D01*
X149735Y61135D01*
X149567Y61022D01*
X149398Y61135D01*
X148583Y61297D01*
X147767Y61135D01*
X147598Y61022D01*
X147430Y61135D01*
X146614Y61297D01*
X145799Y61135D01*
X145630Y61022D01*
X145461Y61135D01*
X144646Y61297D01*
X143830Y61135D01*
X143661Y61022D01*
X143493Y61135D01*
X142677Y61297D01*
X141861Y61135D01*
X141170Y60673D01*
X140708Y59981D01*
X140546Y59165D01*
Y54638D01*
X140665Y54039D01*
X140341Y53539D01*
X130297D01*
X127440Y56396D01*
X127342Y56583D01*
X127304Y56967D01*
X128442Y58105D01*
X128884Y58767D01*
X129039Y59547D01*
Y62449D01*
X129228Y62638D01*
X132174D01*
X132638Y62546D01*
X137165D01*
X137981Y62708D01*
X138673Y63170D01*
X139135Y63862D01*
X139297Y64677D01*
X139135Y65493D01*
X139022Y65661D01*
X139135Y65830D01*
X139297Y66646D01*
X139135Y67461D01*
X139022Y67630D01*
X139135Y67799D01*
X139297Y68614D01*
X139135Y69430D01*
X139022Y69598D01*
X139135Y69767D01*
X139297Y70583D01*
X139135Y71398D01*
X139022Y71567D01*
X139135Y71736D01*
X139297Y72551D01*
X139135Y73367D01*
X139022Y73535D01*
X139135Y73704D01*
X139297Y74520D01*
X139135Y75335D01*
X139022Y75504D01*
X139135Y75673D01*
X139297Y76488D01*
X139135Y77304D01*
X139022Y77472D01*
X139135Y77641D01*
X139297Y78457D01*
X139135Y79272D01*
X139022Y79441D01*
X139135Y79610D01*
X139297Y80425D01*
X139135Y81241D01*
X139022Y81410D01*
X139135Y81578D01*
X139297Y82394D01*
X139135Y83209D01*
X139022Y83378D01*
X139135Y83547D01*
X139297Y84362D01*
X139135Y85178D01*
X139022Y85347D01*
X139135Y85515D01*
X139297Y86331D01*
X139135Y87146D01*
X139022Y87315D01*
X139135Y87484D01*
X139297Y88299D01*
X139135Y89115D01*
X139022Y89284D01*
X139135Y89452D01*
X139297Y90268D01*
X139135Y91083D01*
X139022Y91252D01*
X139135Y91421D01*
X139297Y92236D01*
X139135Y93052D01*
X139022Y93221D01*
X139135Y93389D01*
X139297Y94205D01*
X139135Y95020D01*
X139022Y95189D01*
X139135Y95358D01*
X139297Y96173D01*
X139135Y96989D01*
X139022Y97158D01*
X139135Y97326D01*
X139297Y98142D01*
X139135Y98957D01*
X139022Y99126D01*
X139135Y99295D01*
X139297Y100110D01*
X139135Y100926D01*
X139022Y101094D01*
X139135Y101263D01*
X139297Y102079D01*
X139135Y102894D01*
X139022Y103063D01*
X139135Y103232D01*
X139297Y104047D01*
X139135Y104863D01*
X139022Y105032D01*
X139135Y105200D01*
X139297Y106016D01*
X139135Y106831D01*
X139022Y107000D01*
X139135Y107169D01*
X139297Y107984D01*
X139135Y108800D01*
X139022Y108968D01*
X139135Y109137D01*
X139297Y109953D01*
X139135Y110768D01*
X139022Y110937D01*
X139135Y111106D01*
X139297Y111921D01*
X139135Y112737D01*
X139022Y112906D01*
X139135Y113074D01*
X139297Y113890D01*
X139135Y114706D01*
X139022Y114874D01*
X139135Y115043D01*
X139297Y115858D01*
X139135Y116674D01*
X139022Y116842D01*
X139135Y117011D01*
X139297Y117827D01*
X139135Y118642D01*
X139022Y118811D01*
X139135Y118980D01*
X139297Y119795D01*
X139135Y120611D01*
X139022Y120780D01*
X139135Y120948D01*
X139297Y121764D01*
X139135Y122580D01*
X139022Y122748D01*
X139135Y122917D01*
X139297Y123732D01*
X139135Y124548D01*
X139022Y124716D01*
X139135Y124885D01*
X139297Y125701D01*
X139135Y126516D01*
X139022Y126685D01*
X139135Y126854D01*
X139297Y127669D01*
X139135Y128485D01*
X139022Y128654D01*
X139135Y128822D01*
X139297Y129638D01*
X139135Y130454D01*
X139022Y130622D01*
X139135Y130791D01*
X139297Y131606D01*
X139135Y132422D01*
X139022Y132591D01*
X139135Y132759D01*
X139297Y133575D01*
X139135Y134390D01*
X139022Y134559D01*
X139135Y134728D01*
X139297Y135543D01*
X139135Y136359D01*
X139022Y136528D01*
X139135Y136696D01*
X139297Y137512D01*
X139135Y138328D01*
X139022Y138496D01*
X139135Y138665D01*
X139297Y139480D01*
X139135Y140296D01*
X139022Y140465D01*
X139135Y140633D01*
X139297Y141449D01*
X139135Y142264D01*
X139022Y142433D01*
X139135Y142602D01*
X139297Y143417D01*
X139135Y144233D01*
X139022Y144402D01*
X139135Y144570D01*
X139297Y145386D01*
X139135Y146202D01*
X139022Y146370D01*
X139135Y146539D01*
X139297Y147354D01*
X139135Y148170D01*
X139022Y148339D01*
X139135Y148507D01*
X139297Y149323D01*
X139135Y150138D01*
X138673Y150830D01*
X137981Y151292D01*
X137165Y151454D01*
X132638D01*
X131992Y151326D01*
X131492Y151627D01*
Y156148D01*
X131337Y156928D01*
X130895Y157590D01*
X128934Y159550D01*
X141345Y171961D01*
X155988D01*
X156146Y171756D01*
D02*
G37*
G36*
X408961Y196155D02*
Y149764D01*
X409116Y148983D01*
X409558Y148322D01*
X415257Y142623D01*
X415065Y142161D01*
X414150D01*
Y128925D01*
X417191D01*
X422252Y123864D01*
Y118540D01*
X421752Y118333D01*
X412942Y127143D01*
X412280Y127585D01*
X411500Y127740D01*
X409224D01*
Y128925D01*
X410850D01*
Y142161D01*
X403520D01*
X403520Y142161D01*
Y142161D01*
X403158Y142455D01*
X399039Y146573D01*
Y153353D01*
X399539Y153600D01*
X400231Y153069D01*
X401325Y152616D01*
X402500Y152461D01*
X403675Y152616D01*
X404769Y153069D01*
X405709Y153791D01*
X406431Y154731D01*
X406884Y155825D01*
X407039Y157000D01*
Y161000D01*
X406884Y162175D01*
X406431Y163269D01*
X405709Y164209D01*
X404769Y164931D01*
X403675Y165384D01*
X402500Y165539D01*
X401325Y165384D01*
X400231Y164931D01*
X399539Y164400D01*
X399039Y164647D01*
Y182655D01*
X399791Y183407D01*
X400231Y183069D01*
X401325Y182616D01*
X402500Y182461D01*
X403675Y182616D01*
X404769Y183069D01*
X405709Y183791D01*
X406431Y184731D01*
X406884Y185825D01*
X407039Y187000D01*
Y191000D01*
X406884Y192175D01*
X406431Y193269D01*
X405709Y194209D01*
X404769Y194931D01*
X403675Y195384D01*
X402500Y195539D01*
X401325Y195384D01*
X400231Y194931D01*
X399291Y194209D01*
X398569Y193269D01*
X398116Y192175D01*
X397961Y191000D01*
Y187345D01*
X395558Y184942D01*
X395116Y184280D01*
X394961Y183500D01*
Y145728D01*
X395116Y144948D01*
X395558Y144286D01*
X403520Y136325D01*
Y128925D01*
X405146D01*
Y126315D01*
X405301Y125535D01*
X405743Y124873D01*
X406357Y124259D01*
X407019Y123817D01*
X407799Y123662D01*
X410655D01*
X415902Y118415D01*
X415741Y117941D01*
X415504Y117910D01*
X414652Y117557D01*
X413921Y116996D01*
X413360Y116265D01*
X413007Y115414D01*
X412887Y114500D01*
X413007Y113586D01*
X413360Y112735D01*
X413921Y112004D01*
X414378Y111653D01*
Y107762D01*
X382655Y76039D01*
X321891D01*
X321721Y76539D01*
X322140Y76860D01*
X322621Y77487D01*
X322923Y78217D01*
X323026Y79000D01*
X322923Y79783D01*
X322621Y80513D01*
X322140Y81140D01*
X322039Y81217D01*
Y82581D01*
X323920Y84461D01*
X380043D01*
X380824Y84616D01*
X381485Y85058D01*
X407550Y111123D01*
X407630Y111090D01*
X408543Y110970D01*
X409457Y111090D01*
X410308Y111443D01*
X411039Y112004D01*
X411601Y112735D01*
X411953Y113586D01*
X412074Y114500D01*
X411953Y115414D01*
X411601Y116265D01*
X411039Y116996D01*
X410308Y117557D01*
X409457Y117910D01*
X408543Y118030D01*
X407630Y117910D01*
X406778Y117557D01*
X406047Y116996D01*
X405486Y116265D01*
X405133Y115414D01*
X405013Y114500D01*
X405030Y114371D01*
X404635Y113975D01*
X404161Y114209D01*
X404200Y114500D01*
X404079Y115414D01*
X403726Y116265D01*
X403165Y116996D01*
X402434Y117557D01*
X401583Y117910D01*
X400669Y118030D01*
X399756Y117910D01*
X398904Y117557D01*
X398173Y116996D01*
X397612Y116265D01*
X397259Y115414D01*
X397139Y114500D01*
X397259Y113586D01*
X397612Y112735D01*
X398173Y112004D01*
X398904Y111443D01*
X399756Y111090D01*
X400669Y110970D01*
X400960Y111008D01*
X401194Y110535D01*
X379199Y88539D01*
X324576D01*
X324385Y89001D01*
X332741Y97357D01*
X333183Y98019D01*
X333338Y98799D01*
Y116283D01*
X333439Y116360D01*
X333920Y116987D01*
X334222Y117717D01*
X334325Y118500D01*
X334222Y119283D01*
X333920Y120013D01*
X333439Y120640D01*
X332812Y121121D01*
X332082Y121423D01*
X331299Y121526D01*
X330516Y121423D01*
X329786Y121121D01*
X329160Y120640D01*
X328679Y120013D01*
X328376Y119283D01*
X328273Y118500D01*
X328376Y117717D01*
X328679Y116987D01*
X329160Y116360D01*
X329260Y116283D01*
Y99644D01*
X327001Y97385D01*
X326539Y97576D01*
Y115783D01*
X326640Y115860D01*
X327120Y116487D01*
X327423Y117217D01*
X327526Y118000D01*
X327423Y118783D01*
X327120Y119513D01*
X326640Y120140D01*
X326013Y120621D01*
X325283Y120923D01*
X324500Y121026D01*
X323717Y120923D01*
X322987Y120621D01*
X322360Y120140D01*
X321880Y119513D01*
X321594Y118823D01*
X321462Y118782D01*
X321072Y118777D01*
X320870Y119263D01*
X320390Y119890D01*
X319763Y120370D01*
X319033Y120673D01*
X318250Y120776D01*
X317467Y120673D01*
X316737Y120370D01*
X316110Y119890D01*
X315630Y119263D01*
X315327Y118533D01*
X315224Y117750D01*
X315327Y116967D01*
X315630Y116237D01*
X316110Y115610D01*
X316211Y115533D01*
Y95595D01*
X311655Y91039D01*
X310406D01*
X310185Y91488D01*
X310389Y91754D01*
X310838Y92838D01*
X310991Y94000D01*
X310838Y95162D01*
X310389Y96246D01*
X309676Y97176D01*
X308746Y97890D01*
X307662Y98338D01*
X306500Y98491D01*
X305338Y98338D01*
X304254Y97890D01*
X303324Y97176D01*
X302610Y96246D01*
X302162Y95162D01*
X302009Y94000D01*
X302162Y92838D01*
X302610Y91754D01*
X302815Y91488D01*
X302594Y91039D01*
X301500D01*
X300720Y90884D01*
X300058Y90442D01*
X297869Y88253D01*
X297662Y88338D01*
X296500Y88491D01*
X295338Y88338D01*
X295131Y88253D01*
X292009Y91374D01*
X292026Y91500D01*
X291923Y92283D01*
X291620Y93013D01*
X291140Y93640D01*
X290625Y94034D01*
X290489Y94605D01*
X292266Y96382D01*
X292783D01*
X293001Y95882D01*
X292649Y95032D01*
X292579Y94500D01*
X296500D01*
X300421D01*
X300351Y95032D01*
X299953Y95993D01*
X299319Y96819D01*
X298956Y97097D01*
X298924Y97596D01*
X302547Y101220D01*
X303046Y101187D01*
X303324Y100824D01*
X304254Y100110D01*
X305338Y99662D01*
X306500Y99509D01*
X307662Y99662D01*
X308746Y100110D01*
X309676Y100824D01*
X310389Y101754D01*
X310838Y102838D01*
X310991Y104000D01*
X310838Y105162D01*
X310389Y106246D01*
X309676Y107176D01*
X308746Y107889D01*
X307662Y108338D01*
X306500Y108491D01*
X305338Y108338D01*
X304302Y107909D01*
X304204Y107916D01*
X303767Y108145D01*
X303740Y108356D01*
X305131Y109747D01*
X305338Y109662D01*
X306500Y109509D01*
X307662Y109662D01*
X308746Y110110D01*
X309676Y110824D01*
X310389Y111754D01*
X310838Y112838D01*
X310991Y114000D01*
X310838Y115162D01*
X310389Y116246D01*
X309676Y117176D01*
X308746Y117889D01*
X307662Y118338D01*
X306500Y118491D01*
X305338Y118338D01*
X304254Y117889D01*
X303324Y117176D01*
X302610Y116246D01*
X302162Y115162D01*
X302009Y114000D01*
X302162Y112838D01*
X302247Y112631D01*
X300058Y110442D01*
X299616Y109780D01*
X299461Y109000D01*
Y107906D01*
X299012Y107685D01*
X298746Y107889D01*
X297662Y108338D01*
X296500Y108491D01*
X295338Y108338D01*
X294254Y107889D01*
X293324Y107176D01*
X292611Y106246D01*
X292162Y105162D01*
X292009Y104000D01*
X292162Y102838D01*
X292611Y101754D01*
X293220Y100960D01*
X293031Y100460D01*
X291421D01*
X290641Y100305D01*
X289979Y99863D01*
X278023Y87907D01*
X277523Y88114D01*
Y124839D01*
X281413D01*
Y127752D01*
X281830Y128023D01*
X281980Y128040D01*
X298579D01*
X299359Y128195D01*
X300021Y128637D01*
X307115Y135731D01*
X307645Y135554D01*
X307879Y134987D01*
X308360Y134360D01*
X308987Y133879D01*
X309717Y133577D01*
X310500Y133474D01*
X311283Y133577D01*
X312013Y133879D01*
X312640Y134360D01*
X312717Y134461D01*
X333500D01*
X334280Y134616D01*
X334942Y135058D01*
X354606Y154722D01*
X355500Y154604D01*
X356508Y154737D01*
X357448Y155126D01*
X358255Y155745D01*
X358874Y156552D01*
X359263Y157492D01*
X359396Y158500D01*
X359263Y159508D01*
X358874Y160448D01*
X358255Y161255D01*
X357448Y161874D01*
X356508Y162263D01*
X355500Y162396D01*
X354492Y162263D01*
X353552Y161874D01*
X352745Y161255D01*
X352126Y160448D01*
X351737Y159508D01*
X351605Y158500D01*
X351722Y157606D01*
X332655Y138539D01*
X317391D01*
X317221Y139039D01*
X317640Y139360D01*
X317717Y139461D01*
X327500D01*
X328280Y139616D01*
X328942Y140058D01*
X352845Y163961D01*
X368703D01*
X373269Y159394D01*
X373152Y158500D01*
X373285Y157492D01*
X373674Y156552D01*
X374293Y155745D01*
X375099Y155126D01*
X376039Y154737D01*
X377047Y154604D01*
X378056Y154737D01*
X378995Y155126D01*
X379802Y155745D01*
X380421Y156552D01*
X380810Y157492D01*
X380943Y158500D01*
X380810Y159508D01*
X380421Y160448D01*
X379802Y161255D01*
X378995Y161874D01*
X378056Y162263D01*
X377047Y162396D01*
X376153Y162278D01*
X370989Y167442D01*
X370328Y167884D01*
X369547Y168039D01*
X352000D01*
X351220Y167884D01*
X350558Y167442D01*
X326655Y143539D01*
X317717D01*
X317640Y143640D01*
X317013Y144121D01*
X316446Y144355D01*
X316269Y144885D01*
X320442Y149058D01*
X320884Y149720D01*
X321039Y150500D01*
Y172500D01*
X320884Y173280D01*
X320442Y173942D01*
X310753Y183631D01*
X310838Y183838D01*
X310991Y185000D01*
X310838Y186162D01*
X310507Y186961D01*
X310827Y187461D01*
X329676D01*
X329737Y186992D01*
X330126Y186052D01*
X330745Y185245D01*
X331552Y184626D01*
X332492Y184237D01*
X333500Y184105D01*
X334508Y184237D01*
X335448Y184626D01*
X336255Y185245D01*
X336874Y186052D01*
X337263Y186992D01*
X337396Y188000D01*
X337263Y189008D01*
X336874Y189948D01*
X336255Y190755D01*
X335448Y191374D01*
X334508Y191763D01*
X333500Y191895D01*
X332492Y191763D01*
X331952Y191539D01*
X310087D01*
X309841Y192039D01*
X310389Y192754D01*
X310838Y193838D01*
X310991Y195000D01*
X310838Y196162D01*
X310389Y197246D01*
X309676Y198176D01*
X308746Y198890D01*
X307662Y199338D01*
X306500Y199491D01*
X305338Y199338D01*
X304254Y198890D01*
X303324Y198176D01*
X302610Y197246D01*
X302162Y196162D01*
X302009Y195000D01*
X302162Y193838D01*
X302610Y192754D01*
X303198Y191989D01*
X303065Y191508D01*
X303011Y191442D01*
X302720Y191384D01*
X302058Y190942D01*
X300058Y188942D01*
X299868Y188658D01*
X299197Y188543D01*
X298746Y188890D01*
X297662Y189338D01*
X296500Y189491D01*
X295338Y189338D01*
X294254Y188890D01*
X293324Y188176D01*
X293039Y187804D01*
X292539Y187974D01*
Y192026D01*
X293039Y192196D01*
X293324Y191824D01*
X294254Y191111D01*
X295338Y190662D01*
X296500Y190509D01*
X297662Y190662D01*
X298746Y191111D01*
X299676Y191824D01*
X300390Y192754D01*
X300838Y193838D01*
X300991Y195000D01*
X300838Y196162D01*
X300390Y197246D01*
X299676Y198176D01*
X298746Y198890D01*
X297662Y199338D01*
X296500Y199491D01*
X295338Y199338D01*
X294640Y199049D01*
X294357Y199473D01*
X295595Y200711D01*
X335405D01*
X340461Y195655D01*
Y167845D01*
X334394Y161778D01*
X333500Y161896D01*
X332492Y161763D01*
X331552Y161374D01*
X330745Y160755D01*
X330126Y159948D01*
X329737Y159008D01*
X329605Y158000D01*
X329737Y156992D01*
X330126Y156052D01*
X330745Y155245D01*
X331552Y154626D01*
X332492Y154237D01*
X333500Y154104D01*
X334508Y154237D01*
X335448Y154626D01*
X336255Y155245D01*
X336874Y156052D01*
X337263Y156992D01*
X337396Y158000D01*
X337278Y158894D01*
X343942Y165558D01*
X344384Y166220D01*
X344539Y167000D01*
Y196500D01*
X344384Y197280D01*
X343942Y197942D01*
X343942Y197942D01*
X339885Y201999D01*
X340076Y202461D01*
X402655D01*
X408961Y196155D01*
D02*
G37*
G36*
X166961Y166655D02*
Y165948D01*
X166645Y165475D01*
X166451Y164500D01*
X166645Y163524D01*
X167198Y162698D01*
X168025Y162145D01*
X169000Y161951D01*
X169975Y162145D01*
X170448Y162461D01*
X171155D01*
X171655Y161961D01*
X171533Y161479D01*
X171088Y161308D01*
X171052Y161331D01*
X170236Y161494D01*
X169421Y161331D01*
X169252Y161219D01*
X169083Y161331D01*
X168268Y161494D01*
X167452Y161331D01*
X167283Y161219D01*
X167115Y161331D01*
X166299Y161494D01*
X165483Y161331D01*
X165315Y161219D01*
X165146Y161331D01*
X164401Y161480D01*
Y165138D01*
X164401Y165138D01*
X164246Y165918D01*
X163804Y166580D01*
X162966Y167418D01*
X162855Y167975D01*
X162539Y168448D01*
Y170370D01*
X162985Y170631D01*
X166961Y166655D01*
D02*
G37*
G36*
X217880Y167289D02*
X217723Y166500D01*
X217917Y165524D01*
X218469Y164698D01*
X219296Y164145D01*
X219854Y164034D01*
X221347Y162541D01*
Y161480D01*
X220602Y161331D01*
X220433Y161219D01*
X220265Y161331D01*
X219449Y161494D01*
X218633Y161331D01*
X218465Y161219D01*
X218296Y161331D01*
X217480Y161494D01*
X216665Y161331D01*
X216496Y161219D01*
X216328Y161331D01*
X215512Y161494D01*
X214696Y161331D01*
X214528Y161219D01*
X214359Y161331D01*
X213543Y161494D01*
X212728Y161331D01*
X212559Y161219D01*
X212390Y161331D01*
X212000Y161409D01*
X211836Y161952D01*
X217419Y167535D01*
X217880Y167289D01*
D02*
G37*
G36*
X293324Y171824D02*
X294254Y171110D01*
X295338Y170662D01*
X296500Y170509D01*
X297662Y170662D01*
X298746Y171110D01*
X299012Y171315D01*
X299461Y171094D01*
Y170000D01*
X299616Y169220D01*
X300058Y168558D01*
X302247Y166369D01*
X302162Y166162D01*
X302009Y165000D01*
X302162Y163838D01*
X302610Y162754D01*
X303324Y161824D01*
X304254Y161110D01*
X305338Y160662D01*
X306500Y160509D01*
X307662Y160662D01*
X308222Y160894D01*
X309202Y159915D01*
X309010Y159453D01*
X304931D01*
X302442Y161942D01*
X301780Y162384D01*
X301000Y162539D01*
X300828D01*
X300507Y163039D01*
X300838Y163838D01*
X300991Y165000D01*
X300838Y166162D01*
X300390Y167246D01*
X299676Y168176D01*
X298746Y168889D01*
X297662Y169338D01*
X296500Y169491D01*
X295338Y169338D01*
X294254Y168889D01*
X293324Y168176D01*
X293039Y167804D01*
X292539Y167974D01*
Y172026D01*
X293039Y172196D01*
X293324Y171824D01*
D02*
G37*
G36*
X226882Y163345D02*
Y162744D01*
X234414D01*
Y159297D01*
X229954Y154838D01*
X229454Y155045D01*
Y159362D01*
X229292Y160178D01*
X228830Y160869D01*
X228138Y161331D01*
X227323Y161494D01*
X226507Y161331D01*
X226339Y161219D01*
X226170Y161331D01*
X225425Y161480D01*
Y162541D01*
X226420Y163536D01*
X226882Y163345D01*
D02*
G37*
G36*
X127524Y166645D02*
X128500Y166451D01*
X129475Y166645D01*
X129712Y166803D01*
X130031Y166415D01*
X123558Y159942D01*
X123116Y159280D01*
X123083Y159117D01*
X121825Y157859D01*
X115867D01*
X115086Y157703D01*
X114425Y157261D01*
X114105Y156942D01*
X113663Y156280D01*
X113508Y155500D01*
Y155256D01*
X111882D01*
Y152889D01*
X111382Y152840D01*
X111355Y152975D01*
X110802Y153802D01*
X109976Y154355D01*
X109881Y154374D01*
X109736Y154852D01*
X121845Y166961D01*
X127052D01*
X127524Y166645D01*
D02*
G37*
G36*
X52595Y164022D02*
X51558Y162985D01*
X51116Y162324D01*
X50961Y161543D01*
Y153000D01*
X50976Y152926D01*
X50658Y152539D01*
X44118D01*
Y160756D01*
X42217D01*
Y165744D01*
X44118D01*
Y168288D01*
X52595D01*
Y164022D01*
D02*
G37*
G36*
X302047Y156569D02*
Y152431D01*
X294385Y144769D01*
X293855Y144946D01*
X293620Y145513D01*
X293140Y146140D01*
X293039Y146217D01*
Y147655D01*
X295963Y150580D01*
X296500Y150509D01*
X297662Y150662D01*
X298746Y151110D01*
X299676Y151824D01*
X300390Y152754D01*
X300838Y153838D01*
X300991Y155000D01*
X300838Y156162D01*
X300390Y157246D01*
X300141Y157570D01*
X300355Y158112D01*
X300483Y158133D01*
X302047Y156569D01*
D02*
G37*
G36*
X256961Y143703D02*
Y139803D01*
X254408D01*
X251269Y142942D01*
X250607Y143384D01*
X249827Y143539D01*
X245539D01*
Y147608D01*
X246375Y148443D01*
X246500Y148427D01*
X247283Y148530D01*
X248013Y148832D01*
X248640Y149313D01*
X249120Y149940D01*
X249383Y150573D01*
X249885Y150779D01*
X256961Y143703D01*
D02*
G37*
G36*
X245826Y154838D02*
X245621Y154336D01*
X244987Y154073D01*
X244360Y153592D01*
X243880Y152966D01*
X243577Y152236D01*
X243474Y151453D01*
X243491Y151327D01*
X242058Y149895D01*
X241616Y149233D01*
X241461Y148453D01*
Y143432D01*
X241220Y143384D01*
X240558Y142942D01*
X240091Y142475D01*
X239437Y142493D01*
X239332Y142602D01*
X239494Y143417D01*
X239332Y144233D01*
X239219Y144402D01*
X239332Y144570D01*
X239494Y145386D01*
X239332Y146202D01*
X239219Y146370D01*
X239332Y146539D01*
X239494Y147354D01*
X239332Y148170D01*
X239219Y148339D01*
X239332Y148507D01*
X239494Y149323D01*
X239332Y150138D01*
X238869Y150830D01*
X238178Y151292D01*
X237362Y151454D01*
X233045D01*
X232838Y151954D01*
X237895Y157011D01*
X238337Y157672D01*
X238492Y158453D01*
Y161518D01*
X238954Y161709D01*
X245826Y154838D01*
D02*
G37*
G36*
X53563Y138847D02*
X54050Y138944D01*
X54716Y138499D01*
X55532Y138337D01*
X56347Y138499D01*
X56516Y138612D01*
X56684Y138499D01*
X57500Y138337D01*
X58316Y138499D01*
X58484Y138612D01*
X58653Y138499D01*
X59469Y138337D01*
X60284Y138499D01*
X60453Y138612D01*
X60621Y138499D01*
X61437Y138337D01*
X62253Y138499D01*
X62421Y138612D01*
X62590Y138499D01*
X63406Y138337D01*
X64221Y138499D01*
X64390Y138612D01*
X64558Y138499D01*
X65374Y138337D01*
X66190Y138499D01*
X66358Y138612D01*
X66527Y138499D01*
X67343Y138337D01*
X68158Y138499D01*
X68327Y138612D01*
X68495Y138499D01*
X69311Y138337D01*
X70127Y138499D01*
X70295Y138612D01*
X70464Y138499D01*
X71280Y138337D01*
X72095Y138499D01*
X72264Y138612D01*
X72432Y138499D01*
X73248Y138337D01*
X74064Y138499D01*
X74232Y138612D01*
X74401Y138499D01*
X75217Y138337D01*
X76032Y138499D01*
X76201Y138612D01*
X76369Y138499D01*
X77185Y138337D01*
X78001Y138499D01*
X78169Y138612D01*
X78338Y138499D01*
X79154Y138337D01*
X79969Y138499D01*
X80138Y138612D01*
X80306Y138499D01*
X81122Y138337D01*
X81938Y138499D01*
X82543Y138904D01*
X82904Y138543D01*
X82499Y137938D01*
X82337Y137122D01*
X82499Y136306D01*
X82612Y136138D01*
X82499Y135969D01*
X82337Y135153D01*
X82499Y134338D01*
X82612Y134169D01*
X82499Y134001D01*
X82337Y133185D01*
X82499Y132369D01*
X82612Y132201D01*
X82499Y132032D01*
X82337Y131217D01*
X82499Y130401D01*
X82612Y130232D01*
X82499Y130064D01*
X82337Y129248D01*
X82499Y128432D01*
X82612Y128264D01*
X82499Y128095D01*
X82337Y127279D01*
X82499Y126464D01*
X82612Y126295D01*
X82499Y126127D01*
X82337Y125311D01*
X82499Y124495D01*
X82612Y124327D01*
X82499Y124158D01*
X82337Y123343D01*
X82499Y122527D01*
X82612Y122358D01*
X82499Y122190D01*
X82337Y121374D01*
X82499Y120558D01*
X82612Y120390D01*
X82499Y120221D01*
X82337Y119405D01*
X82499Y118590D01*
X82612Y118421D01*
X82499Y118253D01*
X82337Y117437D01*
X82499Y116621D01*
X82612Y116453D01*
X82499Y116284D01*
X82337Y115469D01*
X82499Y114653D01*
X82612Y114484D01*
X82499Y114316D01*
X82337Y113500D01*
X82499Y112684D01*
X82612Y112516D01*
X82499Y112347D01*
X82337Y111531D01*
X82499Y110716D01*
X82612Y110547D01*
X82499Y110379D01*
X82337Y109563D01*
X82499Y108747D01*
X82612Y108579D01*
X82499Y108410D01*
X82337Y107595D01*
X82499Y106779D01*
X82944Y106114D01*
X82847Y105626D01*
X82944Y105139D01*
X82499Y104473D01*
X82337Y103657D01*
X82499Y102842D01*
X82944Y102176D01*
X82847Y101689D01*
X82944Y101201D01*
X82499Y100536D01*
X82337Y99721D01*
X82499Y98905D01*
X82612Y98736D01*
X82499Y98568D01*
X82337Y97752D01*
X82499Y96936D01*
X82612Y96768D01*
X82499Y96599D01*
X82337Y95784D01*
X82499Y94968D01*
X82612Y94799D01*
X82499Y94631D01*
X82337Y93815D01*
X82499Y92999D01*
X82612Y92831D01*
X82499Y92662D01*
X82337Y91847D01*
X82499Y91031D01*
X82612Y90862D01*
X82499Y90694D01*
X82337Y89878D01*
X82499Y89062D01*
X82904Y88456D01*
X82543Y88096D01*
X81938Y88501D01*
X81122Y88663D01*
X80306Y88501D01*
X80138Y88388D01*
X79969Y88501D01*
X79154Y88663D01*
X78338Y88501D01*
X78169Y88388D01*
X78001Y88501D01*
X77185Y88663D01*
X76369Y88501D01*
X75704Y88056D01*
X75217Y88153D01*
X74729Y88056D01*
X74064Y88501D01*
X73248Y88663D01*
X72432Y88501D01*
X72264Y88388D01*
X72095Y88501D01*
X71280Y88663D01*
X70464Y88501D01*
X70295Y88388D01*
X70127Y88501D01*
X69311Y88663D01*
X68495Y88501D01*
X68327Y88388D01*
X68158Y88501D01*
X67343Y88663D01*
X66527Y88501D01*
X66358Y88388D01*
X66190Y88501D01*
X65374Y88663D01*
X64558Y88501D01*
X64390Y88388D01*
X64221Y88501D01*
X63406Y88663D01*
X62590Y88501D01*
X62421Y88388D01*
X62253Y88501D01*
X61437Y88663D01*
X60621Y88501D01*
X60453Y88388D01*
X60284Y88501D01*
X59469Y88663D01*
X58653Y88501D01*
X58484Y88388D01*
X58316Y88501D01*
X57500Y88663D01*
X56684Y88501D01*
X56516Y88388D01*
X56347Y88501D01*
X55532Y88663D01*
X54716Y88501D01*
X54547Y88388D01*
X54379Y88501D01*
X53563Y88663D01*
X52747Y88501D01*
X52579Y88388D01*
X52410Y88501D01*
X51595Y88663D01*
X50779Y88501D01*
X50610Y88388D01*
X50442Y88501D01*
X49626Y88663D01*
X48810Y88501D01*
X48642Y88388D01*
X48473Y88501D01*
X47657Y88663D01*
X46842Y88501D01*
X46673Y88388D01*
X46505Y88501D01*
X45689Y88663D01*
X44873Y88501D01*
X44705Y88388D01*
X44536Y88501D01*
X43720Y88663D01*
X42905Y88501D01*
X42736Y88388D01*
X42568Y88501D01*
X41752Y88663D01*
X40936Y88501D01*
X40768Y88388D01*
X40599Y88501D01*
X39783Y88663D01*
X38968Y88501D01*
X38799Y88388D01*
X38631Y88501D01*
X37815Y88663D01*
X36999Y88501D01*
X36831Y88388D01*
X36662Y88501D01*
X35846Y88663D01*
X35031Y88501D01*
X34862Y88388D01*
X34694Y88501D01*
X33878Y88663D01*
X33062Y88501D01*
X32690Y88252D01*
X32456Y88096D01*
X32096Y88456D01*
X32252Y88690D01*
X32501Y89062D01*
X32663Y89878D01*
X32501Y90694D01*
X32388Y90862D01*
X32501Y91031D01*
X32663Y91847D01*
X32501Y92662D01*
X32388Y92831D01*
X32501Y92999D01*
X32663Y93815D01*
X32501Y94631D01*
X32388Y94799D01*
X32501Y94968D01*
X32663Y95784D01*
X32501Y96599D01*
X32388Y96768D01*
X32501Y96936D01*
X32663Y97752D01*
X32501Y98568D01*
X32388Y98736D01*
X32501Y98905D01*
X32663Y99721D01*
X32501Y100536D01*
X32388Y100705D01*
X32501Y100873D01*
X32663Y101689D01*
X32501Y102505D01*
X32056Y103170D01*
X32153Y103657D01*
X32056Y104145D01*
X32501Y104810D01*
X32663Y105626D01*
X32501Y106442D01*
X32388Y106610D01*
X32501Y106779D01*
X32663Y107595D01*
X32501Y108410D01*
X32056Y109075D01*
X32153Y109563D01*
X32056Y110050D01*
X32501Y110716D01*
X32663Y111531D01*
X32501Y112347D01*
X32388Y112516D01*
X32501Y112684D01*
X32663Y113500D01*
X32501Y114316D01*
X32388Y114484D01*
X32501Y114653D01*
X32663Y115469D01*
X32501Y116284D01*
X32388Y116453D01*
X32501Y116621D01*
X32663Y117437D01*
X32501Y118253D01*
X32388Y118421D01*
X32501Y118590D01*
X32663Y119405D01*
X32501Y120221D01*
X32388Y120390D01*
X32501Y120558D01*
X32663Y121374D01*
X32501Y122190D01*
X32388Y122358D01*
X32501Y122527D01*
X32663Y123343D01*
X32501Y124158D01*
X32388Y124327D01*
X32501Y124495D01*
X32663Y125311D01*
X32501Y126127D01*
X32388Y126295D01*
X32501Y126464D01*
X32663Y127279D01*
X32501Y128095D01*
X32388Y128264D01*
X32501Y128432D01*
X32663Y129248D01*
X32501Y130064D01*
X32388Y130232D01*
X32501Y130401D01*
X32663Y131217D01*
X32501Y132032D01*
X32388Y132201D01*
X32501Y132369D01*
X32663Y133185D01*
X32501Y134001D01*
X32388Y134169D01*
X32501Y134338D01*
X32663Y135153D01*
X32501Y135969D01*
X32388Y136138D01*
X32501Y136306D01*
X32663Y137122D01*
X32501Y137938D01*
X32252Y138310D01*
X32096Y138543D01*
X32456Y138904D01*
X32690Y138748D01*
X33062Y138499D01*
X33878Y138337D01*
X34694Y138499D01*
X34862Y138612D01*
X35031Y138499D01*
X35846Y138337D01*
X36662Y138499D01*
X36831Y138612D01*
X36999Y138499D01*
X37815Y138337D01*
X38631Y138499D01*
X38799Y138612D01*
X38968Y138499D01*
X39783Y138337D01*
X40599Y138499D01*
X40768Y138612D01*
X40936Y138499D01*
X41752Y138337D01*
X42568Y138499D01*
X42736Y138612D01*
X42905Y138499D01*
X43720Y138337D01*
X44536Y138499D01*
X44705Y138612D01*
X44873Y138499D01*
X45689Y138337D01*
X46505Y138499D01*
X46673Y138612D01*
X46842Y138499D01*
X47657Y138337D01*
X48473Y138499D01*
X48642Y138612D01*
X48810Y138499D01*
X49626Y138337D01*
X50442Y138499D01*
X50610Y138612D01*
X50779Y138499D01*
X51595Y138337D01*
X52410Y138499D01*
X53075Y138944D01*
X53563Y138847D01*
D02*
G37*
G36*
X93461Y155155D02*
Y145948D01*
X93145Y145475D01*
X92951Y144500D01*
X93145Y143525D01*
X93448Y143071D01*
X93328Y142389D01*
X93198Y142302D01*
X92645Y141475D01*
X92451Y140500D01*
X92645Y139524D01*
X92961Y139052D01*
Y138984D01*
X93116Y138204D01*
X93378Y137812D01*
X93385Y137789D01*
X93298Y137286D01*
X93203Y137193D01*
X92295D01*
X92146Y137938D01*
X91684Y138629D01*
X90993Y139091D01*
X90177Y139253D01*
X84469D01*
X83653Y139091D01*
X83047Y138687D01*
X82687Y139047D01*
X83091Y139653D01*
X83254Y140469D01*
Y146177D01*
X83091Y146993D01*
X82629Y147684D01*
X81938Y148146D01*
X81122Y148309D01*
X80306Y148146D01*
X80138Y148034D01*
X79969Y148146D01*
X79154Y148309D01*
X78338Y148146D01*
X78169Y148034D01*
X78001Y148146D01*
X77185Y148309D01*
X76369Y148146D01*
X76201Y148034D01*
X76032Y148146D01*
X75217Y148309D01*
X74401Y148146D01*
X74232Y148034D01*
X74064Y148146D01*
X73248Y148309D01*
X72432Y148146D01*
X72264Y148034D01*
X72095Y148146D01*
X71280Y148309D01*
X70464Y148146D01*
X70295Y148034D01*
X70127Y148146D01*
X69311Y148309D01*
X68495Y148146D01*
X68327Y148034D01*
X68158Y148146D01*
X67343Y148309D01*
X66527Y148146D01*
X66358Y148034D01*
X66190Y148146D01*
X65374Y148309D01*
X64558Y148146D01*
X64390Y148034D01*
X64221Y148146D01*
X63437Y148302D01*
X63355Y148428D01*
X63206Y148779D01*
X64985Y150558D01*
X65427Y151220D01*
X65583Y152000D01*
Y160744D01*
X67405D01*
Y169256D01*
X65583D01*
Y170327D01*
X65427Y171107D01*
X64985Y171769D01*
X64324Y172211D01*
X63543Y172366D01*
X63281D01*
X63014Y172866D01*
X63250Y173220D01*
X63406Y174000D01*
X63250Y174780D01*
X63130Y174961D01*
X63397Y175461D01*
X73155D01*
X93461Y155155D01*
D02*
G37*
G36*
X309961Y149498D02*
X296518Y136055D01*
X292092D01*
X291901Y136517D01*
X305931Y150547D01*
X309961D01*
Y149498D01*
D02*
G37*
G36*
X267615Y118999D02*
X265984Y117368D01*
X254448D01*
X254256Y117496D01*
X254016Y118006D01*
X254038Y118181D01*
X254201Y119000D01*
X254187Y119074D01*
X254504Y119461D01*
X267424D01*
X267615Y118999D01*
D02*
G37*
G36*
X103711Y124324D02*
Y114095D01*
X102632Y113016D01*
X102438Y113096D01*
X102169Y113260D01*
X102025Y113984D01*
X101583Y114645D01*
X97389Y118839D01*
X97363Y118967D01*
X97363Y118996D01*
X97738Y119540D01*
X98132Y119618D01*
X98794Y120060D01*
X103249Y124515D01*
X103711Y124324D01*
D02*
G37*
G36*
X321880Y116487D02*
X322360Y115860D01*
X322461Y115783D01*
Y96901D01*
X320789Y95229D01*
X320289Y95437D01*
Y115533D01*
X320390Y115610D01*
X320870Y116237D01*
X321156Y116927D01*
X321288Y116968D01*
X321678Y116973D01*
X321880Y116487D01*
D02*
G37*
G36*
X109000Y117154D02*
X109495Y117252D01*
X109882Y116935D01*
Y110744D01*
X109901D01*
X109929Y110256D01*
X109929D01*
Y101744D01*
X111853D01*
X111882Y101256D01*
X111882D01*
Y96219D01*
X110558Y94895D01*
X110116Y94233D01*
X109961Y93453D01*
Y87948D01*
X109645Y87476D01*
X109451Y86500D01*
X109645Y85524D01*
X110198Y84698D01*
X111024Y84145D01*
X112000Y83951D01*
X112976Y84145D01*
X113802Y84698D01*
X114355Y85524D01*
X114549Y86500D01*
X114355Y87476D01*
X114039Y87948D01*
Y92608D01*
X114175Y92744D01*
X123372D01*
X124472Y91644D01*
X124645Y90775D01*
X125198Y89948D01*
X126024Y89395D01*
X126894Y89222D01*
X127284Y88832D01*
X127093Y88370D01*
X124353D01*
X124006Y88717D01*
X123855Y89476D01*
X123302Y90302D01*
X122476Y90855D01*
X121500Y91049D01*
X120525Y90855D01*
X119698Y90302D01*
X119145Y89476D01*
X118951Y88500D01*
X119145Y87524D01*
X119218Y87416D01*
X118917Y86966D01*
X118500Y87049D01*
X117525Y86855D01*
X116698Y86302D01*
X116145Y85475D01*
X115951Y84500D01*
X116145Y83525D01*
X116698Y82698D01*
X117525Y82145D01*
X118037Y82043D01*
X118228Y81581D01*
X118158Y81476D01*
X117964Y80500D01*
X118078Y79926D01*
X117761Y79539D01*
X111500D01*
X110720Y79384D01*
X110058Y78942D01*
X107058Y75942D01*
X106616Y75280D01*
X106461Y74500D01*
Y44576D01*
X105999Y44385D01*
X84847Y65537D01*
X85103Y65988D01*
X85783Y66077D01*
X86513Y66379D01*
X87140Y66860D01*
X87621Y67487D01*
X87923Y68217D01*
X88026Y69000D01*
X87923Y69783D01*
X87621Y70513D01*
X87523Y70639D01*
X88895Y72011D01*
X89466Y71875D01*
X89860Y71360D01*
X90487Y70880D01*
X91217Y70577D01*
X92000Y70474D01*
X92783Y70577D01*
X93513Y70880D01*
X94140Y71360D01*
X94621Y71987D01*
X94923Y72717D01*
X95026Y73500D01*
X94923Y74283D01*
X94621Y75013D01*
X94512Y75154D01*
X96192Y76833D01*
X96634Y77495D01*
X96789Y78275D01*
Y93725D01*
X96634Y94505D01*
X96192Y95167D01*
X94891Y96467D01*
X94940Y96965D01*
X95302Y97207D01*
X95855Y98034D01*
X95950Y98509D01*
X93500D01*
Y99509D01*
X96201D01*
X96316Y99650D01*
X103689D01*
X104469Y99805D01*
X105131Y100247D01*
X106895Y102011D01*
X106895Y102011D01*
X107337Y102672D01*
X107393Y102953D01*
X105453D01*
Y103453D01*
X104953D01*
Y105393D01*
X104672Y105337D01*
X104011Y104895D01*
X104011Y104895D01*
X102844Y103728D01*
X99765D01*
X99574Y104190D01*
X107192Y111808D01*
X107634Y112470D01*
X107789Y113250D01*
Y116949D01*
X108289Y117295D01*
X109000Y117154D01*
D02*
G37*
G36*
X273445Y118408D02*
Y88329D01*
X271259Y86143D01*
X270702Y86032D01*
X269875Y85480D01*
X269322Y84653D01*
X269128Y83677D01*
X269170Y83465D01*
X268810Y83082D01*
X268461Y83161D01*
Y90618D01*
X262203D01*
X262011Y91080D01*
X268442Y97511D01*
X268884Y98172D01*
X269039Y98953D01*
Y107000D01*
X268884Y107780D01*
X268442Y108442D01*
X268442Y108442D01*
X264056Y112827D01*
X264248Y113289D01*
X266828D01*
X267609Y113444D01*
X268270Y113886D01*
X272983Y118599D01*
X273445Y118408D01*
D02*
G37*
G36*
X286466Y89875D02*
X286860Y89360D01*
X287487Y88880D01*
X288217Y88577D01*
X289000Y88474D01*
X289125Y88491D01*
X291115Y86501D01*
X290924Y86039D01*
X287750D01*
X286970Y85884D01*
X286308Y85442D01*
X279394Y78527D01*
X274748D01*
X274690Y79026D01*
X275351Y79467D01*
X275407Y79550D01*
X275489Y79605D01*
X285895Y90011D01*
X286466Y89875D01*
D02*
G37*
G36*
X292611Y81754D02*
X293123Y81087D01*
X293061Y80457D01*
X293033Y80417D01*
X288155Y75539D01*
X282826D01*
X282635Y76001D01*
X288595Y81961D01*
X292525D01*
X292611Y81754D01*
D02*
G37*
G36*
X83653Y87909D02*
X84469Y87746D01*
X90177D01*
X90574Y87825D01*
X90961Y87508D01*
Y79845D01*
X83558Y72442D01*
X83116Y71780D01*
X83012Y71256D01*
X82860Y71140D01*
X82539Y70721D01*
X82039Y70891D01*
Y73346D01*
X82140Y73423D01*
X82621Y74050D01*
X82923Y74780D01*
X83026Y75563D01*
X82923Y76346D01*
X82621Y77076D01*
X82140Y77703D01*
X81513Y78184D01*
X81389Y78235D01*
X81441Y78755D01*
X81938Y78854D01*
X82629Y79316D01*
X83091Y80007D01*
X83254Y80823D01*
Y86532D01*
X83091Y87347D01*
X82687Y87953D01*
X83047Y88314D01*
X83653Y87909D01*
D02*
G37*
G36*
X418461Y105476D02*
Y103345D01*
X376155Y61039D01*
X310406D01*
X310185Y61488D01*
X310389Y61754D01*
X310838Y62838D01*
X310991Y64000D01*
X310838Y65162D01*
X310389Y66246D01*
X309676Y67176D01*
X308746Y67889D01*
X307662Y68338D01*
X306500Y68491D01*
X305338Y68338D01*
X305131Y68253D01*
X304159Y69225D01*
X304195Y69683D01*
X304630Y69955D01*
X305338Y69662D01*
X306500Y69509D01*
X307662Y69662D01*
X308746Y70110D01*
X309676Y70824D01*
X310389Y71754D01*
X310475Y71961D01*
X383500D01*
X384280Y72116D01*
X384942Y72558D01*
X417859Y105475D01*
X417961Y105627D01*
X418461Y105476D01*
D02*
G37*
G36*
X292126Y73108D02*
X292162Y72838D01*
X292611Y71754D01*
X293324Y70824D01*
X294254Y70110D01*
X295338Y69662D01*
X296500Y69509D01*
X297662Y69662D01*
X298746Y70110D01*
X299461Y70659D01*
X299961Y70413D01*
Y68500D01*
X300116Y67720D01*
X300558Y67058D01*
X302247Y65369D01*
X302162Y65162D01*
X302009Y64000D01*
X302162Y62838D01*
X302610Y61754D01*
X302815Y61488D01*
X302594Y61039D01*
X300406D01*
X300185Y61488D01*
X300390Y61754D01*
X300838Y62838D01*
X300991Y64000D01*
X300838Y65162D01*
X300390Y66246D01*
X299676Y67176D01*
X298746Y67889D01*
X297662Y68338D01*
X296500Y68491D01*
X295338Y68338D01*
X294254Y67889D01*
X293324Y67176D01*
X292611Y66246D01*
X292162Y65162D01*
X292009Y64000D01*
X292162Y62838D01*
X292611Y61754D01*
X292815Y61488D01*
X292594Y61039D01*
X291000D01*
X290220Y60884D01*
X289558Y60442D01*
X286125Y57009D01*
X286000Y57026D01*
X285217Y56923D01*
X284487Y56621D01*
X283860Y56140D01*
X283380Y55513D01*
X283077Y54783D01*
X282974Y54000D01*
X283077Y53217D01*
X283380Y52487D01*
X283860Y51860D01*
X284279Y51539D01*
X284109Y51039D01*
X278797D01*
X276962Y52874D01*
X276979Y53000D01*
X276875Y53783D01*
X276573Y54513D01*
X276092Y55140D01*
X275466Y55620D01*
X274736Y55923D01*
X273953Y56026D01*
X273827Y56009D01*
X264442Y65395D01*
X263780Y65837D01*
X263000Y65992D01*
X262756D01*
Y67618D01*
X257718D01*
X256887Y68450D01*
X257078Y68912D01*
X262986D01*
X263077Y68217D01*
X263380Y67487D01*
X263860Y66860D01*
X264487Y66379D01*
X265217Y66077D01*
X266000Y65974D01*
X266783Y66077D01*
X267513Y66379D01*
X268140Y66860D01*
X268620Y67487D01*
X268923Y68217D01*
X269026Y69000D01*
X268923Y69783D01*
X268620Y70513D01*
X268277Y70961D01*
X268507Y71461D01*
X289000D01*
X289780Y71616D01*
X290442Y72058D01*
X291653Y73269D01*
X292126Y73108D01*
D02*
G37*
G36*
X130607Y74016D02*
X130668Y73704D01*
X130781Y73535D01*
X130668Y73367D01*
X130506Y72551D01*
X130668Y71736D01*
X130781Y71567D01*
X130668Y71398D01*
X130506Y70583D01*
X130668Y69767D01*
X130781Y69598D01*
X130668Y69430D01*
X130506Y68614D01*
X130668Y67799D01*
X130781Y67630D01*
X130668Y67461D01*
X130520Y66716D01*
X128384D01*
X127603Y66561D01*
X126942Y66119D01*
X126580Y65757D01*
X126118Y65948D01*
Y70234D01*
X130064Y74180D01*
X130607Y74016D01*
D02*
G37*
G36*
X270943Y53126D02*
X270927Y53000D01*
X271030Y52217D01*
X271332Y51487D01*
X271813Y50860D01*
X272440Y50380D01*
X273170Y50077D01*
X273953Y49974D01*
X274078Y49991D01*
X276511Y47558D01*
X277172Y47116D01*
X277953Y46961D01*
X292594D01*
X292815Y46512D01*
X292611Y46246D01*
X292162Y45162D01*
X292009Y44000D01*
X292162Y42838D01*
X292611Y41754D01*
X293324Y40824D01*
X294254Y40110D01*
X295338Y39662D01*
X296500Y39509D01*
X297662Y39662D01*
X298746Y40110D01*
X299676Y40824D01*
X300390Y41754D01*
X300838Y42838D01*
X300991Y44000D01*
X300838Y45162D01*
X300409Y46198D01*
X300416Y46296D01*
X300645Y46733D01*
X300856Y46760D01*
X302047Y45569D01*
Y39547D01*
X310953D01*
Y46010D01*
X311415Y46202D01*
X313461Y44155D01*
Y11270D01*
X309730Y7539D01*
X233076D01*
X232885Y8001D01*
X235418Y10534D01*
X235976Y10645D01*
X236802Y11198D01*
X237031Y11539D01*
X237528Y11588D01*
X240011Y9105D01*
X240672Y8663D01*
X241453Y8508D01*
X290547D01*
X291328Y8663D01*
X291989Y9105D01*
X295131Y12247D01*
X295338Y12162D01*
X296500Y12009D01*
X297662Y12162D01*
X298746Y12610D01*
X299676Y13324D01*
X300390Y14254D01*
X300838Y15338D01*
X300991Y16500D01*
X300838Y17662D01*
X300409Y18699D01*
X300416Y18796D01*
X300645Y19233D01*
X300856Y19261D01*
X302047Y18069D01*
Y12047D01*
X310953D01*
Y20953D01*
X304931D01*
X302942Y22942D01*
X302280Y23384D01*
X301500Y23539D01*
X285845D01*
X255932Y53451D01*
X255288Y53882D01*
X255278Y53929D01*
X255371Y54382D01*
X262756D01*
Y54382D01*
X263256Y54557D01*
X263487Y54379D01*
X264217Y54077D01*
X265000Y53974D01*
X265783Y54077D01*
X266513Y54379D01*
X267140Y54860D01*
X267620Y55487D01*
X267730Y55751D01*
X268220Y55849D01*
X270943Y53126D01*
D02*
G37*
G36*
X128011Y50058D02*
X128672Y49616D01*
X129453Y49461D01*
X129882D01*
Y48039D01*
X118586D01*
Y50744D01*
X126118D01*
Y51297D01*
X126580Y51489D01*
X128011Y50058D01*
D02*
G37*
G36*
X194882Y39289D02*
X187294D01*
X187289Y39294D01*
Y43606D01*
X187730Y43842D01*
X188024Y43645D01*
X189000Y43451D01*
X189976Y43645D01*
X190448Y43961D01*
X194882D01*
Y39289D01*
D02*
G37*
G36*
X129882Y41744D02*
X131508D01*
Y41094D01*
X131663Y40314D01*
X132105Y39653D01*
X132153Y39605D01*
X132252Y39539D01*
X132100Y39039D01*
X120175D01*
X116189Y43025D01*
X116425Y43466D01*
X116500Y43451D01*
X117475Y43645D01*
X117948Y43961D01*
X129882D01*
Y41744D01*
D02*
G37*
G36*
X179158Y52739D02*
X179263Y52668D01*
X179447Y52632D01*
X179530Y52601D01*
X179690Y52074D01*
X178558Y50942D01*
X178116Y50280D01*
X177961Y49500D01*
Y36000D01*
X178116Y35220D01*
X178558Y34558D01*
X180615Y32501D01*
X180424Y32039D01*
X179448D01*
X178975Y32355D01*
X178000Y32549D01*
X177024Y32355D01*
X176198Y31802D01*
X175833Y31258D01*
X175213Y31171D01*
X173992Y32392D01*
Y41744D01*
X175618D01*
Y48734D01*
X177584Y50700D01*
X178026Y51361D01*
X178181Y52142D01*
Y52520D01*
X178926Y52668D01*
X179076Y52769D01*
X179158Y52739D01*
D02*
G37*
G36*
X253491Y45783D02*
X253474Y45658D01*
X253577Y44874D01*
X253879Y44144D01*
X254360Y43518D01*
X254987Y43037D01*
X255717Y42735D01*
X256500Y42632D01*
X257283Y42735D01*
X258013Y43037D01*
X258640Y43518D01*
X258966Y43943D01*
X259572Y44044D01*
X283316Y20300D01*
X283324Y19685D01*
X283292Y19634D01*
X282611Y18746D01*
X282162Y17662D01*
X282009Y16500D01*
X282162Y15338D01*
X282611Y14254D01*
X283324Y13324D01*
X283634Y13086D01*
X283465Y12586D01*
X279536D01*
X279366Y13086D01*
X279676Y13324D01*
X280389Y14254D01*
X280838Y15338D01*
X280991Y16500D01*
X280838Y17662D01*
X280389Y18746D01*
X279676Y19676D01*
X278746Y20390D01*
X277662Y20838D01*
X276500Y20991D01*
X276405Y20979D01*
X274442Y22942D01*
X273780Y23384D01*
X273000Y23539D01*
X263345D01*
X261009Y25875D01*
X261026Y26000D01*
X260923Y26783D01*
X260620Y27513D01*
X260140Y28140D01*
X259513Y28620D01*
X258783Y28923D01*
X258743Y28928D01*
X258583Y29401D01*
X259374Y30193D01*
X259500Y30177D01*
X260283Y30280D01*
X261013Y30582D01*
X261640Y31063D01*
X262121Y31690D01*
X262423Y32420D01*
X262526Y33203D01*
X262423Y33986D01*
X262121Y34716D01*
X261640Y35342D01*
X261013Y35823D01*
X260283Y36125D01*
X259553Y36222D01*
X259466Y36364D01*
X259377Y36717D01*
X259687Y36955D01*
X260168Y37582D01*
X260470Y38311D01*
X260573Y39094D01*
X260470Y39878D01*
X260168Y40608D01*
X259687Y41234D01*
X259060Y41715D01*
X258330Y42017D01*
X257547Y42120D01*
X256764Y42017D01*
X256034Y41715D01*
X255408Y41234D01*
X254927Y40608D01*
X254625Y39878D01*
X254521Y39094D01*
X254538Y38969D01*
X248470Y32901D01*
X237542D01*
X234700Y35744D01*
X234859Y36244D01*
X242118D01*
Y36961D01*
X246783D01*
X246860Y36860D01*
X247487Y36380D01*
X248217Y36077D01*
X249000Y35974D01*
X249783Y36077D01*
X250513Y36380D01*
X251140Y36860D01*
X251621Y37487D01*
X251923Y38217D01*
X252026Y39000D01*
X251923Y39783D01*
X251621Y40513D01*
X251140Y41140D01*
X250513Y41620D01*
X249783Y41923D01*
X249000Y42026D01*
X248217Y41923D01*
X247487Y41620D01*
X246860Y41140D01*
X246783Y41039D01*
X242118D01*
Y44756D01*
X240795D01*
X240478Y45142D01*
X240549Y45500D01*
X240355Y46475D01*
X239802Y47302D01*
X238976Y47855D01*
X238443Y47961D01*
X238492Y48461D01*
X250813D01*
X253491Y45783D01*
D02*
G37*
G36*
X257276Y35232D02*
X256879Y34716D01*
X256577Y33986D01*
X256474Y33203D01*
X256491Y33077D01*
X245817Y22403D01*
X245720Y22384D01*
X245058Y21942D01*
X244894Y21697D01*
X244250Y21633D01*
X237523Y28361D01*
X237714Y28823D01*
X249315D01*
X250095Y28978D01*
X250757Y29420D01*
X256899Y35562D01*
X257276Y35232D01*
D02*
G37*
G36*
X197247Y26869D02*
X197162Y26662D01*
X197009Y25500D01*
X197162Y24338D01*
X197610Y23254D01*
X198324Y22324D01*
X199254Y21610D01*
X200338Y21162D01*
X201500Y21009D01*
X202662Y21162D01*
X203746Y21610D01*
X204197Y21957D01*
X204868Y21842D01*
X205058Y21558D01*
X207558Y19058D01*
X207842Y18868D01*
X207957Y18197D01*
X207611Y17746D01*
X207162Y16662D01*
X207009Y15500D01*
X207162Y14338D01*
X207493Y13539D01*
X207172Y13039D01*
X205827D01*
X205507Y13539D01*
X205838Y14338D01*
X205991Y15500D01*
X205838Y16662D01*
X205389Y17746D01*
X204676Y18676D01*
X203746Y19389D01*
X202662Y19838D01*
X201500Y19991D01*
X200338Y19838D01*
X199254Y19389D01*
X198324Y18676D01*
X197610Y17746D01*
X197162Y16662D01*
X197009Y15500D01*
X197162Y14338D01*
X197493Y13539D01*
X197172Y13039D01*
X195827D01*
X195507Y13539D01*
X195838Y14338D01*
X195991Y15500D01*
X195838Y16662D01*
X195389Y17746D01*
X194676Y18676D01*
X193746Y19389D01*
X192662Y19838D01*
X191500Y19991D01*
X190338Y19838D01*
X189254Y19389D01*
X188324Y18676D01*
X187610Y17746D01*
X187525Y17539D01*
X178845D01*
X177869Y18515D01*
X178130Y18961D01*
X187000D01*
X187780Y19116D01*
X188442Y19558D01*
X190131Y21247D01*
X190338Y21162D01*
X191500Y21009D01*
X192662Y21162D01*
X193746Y21610D01*
X194676Y22324D01*
X195389Y23254D01*
X195838Y24338D01*
X195991Y25500D01*
X195838Y26662D01*
X195545Y27370D01*
X195817Y27805D01*
X196275Y27841D01*
X197247Y26869D01*
D02*
G37*
G36*
X255072Y25257D02*
X255077Y25217D01*
X255380Y24487D01*
X255860Y23860D01*
X256487Y23380D01*
X257217Y23077D01*
X258000Y22974D01*
X258125Y22991D01*
X261058Y20058D01*
X261720Y19616D01*
X262500Y19461D01*
X263159D01*
X263406Y18961D01*
X263047Y18493D01*
X262649Y17532D01*
X262579Y17000D01*
X266500D01*
Y16000D01*
X262579D01*
X262649Y15468D01*
X263047Y14507D01*
X263681Y13681D01*
X264456Y13086D01*
X264451Y12914D01*
X264314Y12586D01*
X259536D01*
X259366Y13086D01*
X259676Y13324D01*
X260389Y14254D01*
X260838Y15338D01*
X260991Y16500D01*
X260838Y17662D01*
X260389Y18746D01*
X259676Y19676D01*
X258746Y20390D01*
X257662Y20838D01*
X256500Y20991D01*
X255338Y20838D01*
X254254Y20390D01*
X253324Y19676D01*
X252610Y18746D01*
X252162Y17662D01*
X252009Y16500D01*
X252162Y15338D01*
X252247Y15131D01*
X251453Y14336D01*
X250873D01*
X250596Y14752D01*
X250838Y15338D01*
X250991Y16500D01*
X250838Y17662D01*
X250390Y18746D01*
X249676Y19676D01*
X249513Y19801D01*
X249481Y20299D01*
X254598Y25417D01*
X255072Y25257D01*
D02*
G37*
%LPC*%
G36*
X107000Y199421D02*
Y196000D01*
X110421D01*
X110351Y196532D01*
X109953Y197493D01*
X109319Y198319D01*
X108493Y198953D01*
X107532Y199351D01*
X107000Y199421D01*
D02*
G37*
G36*
X106000D02*
X105468Y199351D01*
X104507Y198953D01*
X103681Y198319D01*
X103047Y197493D01*
X102649Y196532D01*
X102579Y196000D01*
X106000D01*
Y199421D01*
D02*
G37*
G36*
X110421Y195000D02*
X107000D01*
Y191579D01*
X107532Y191649D01*
X108493Y192047D01*
X109319Y192681D01*
X109953Y193507D01*
X110351Y194468D01*
X110421Y195000D01*
D02*
G37*
G36*
X106000D02*
X102579D01*
X102649Y194468D01*
X103047Y193507D01*
X103681Y192681D01*
X104507Y192047D01*
X105468Y191649D01*
X106000Y191579D01*
Y195000D01*
D02*
G37*
G36*
X116500Y199991D02*
X115338Y199838D01*
X114254Y199390D01*
X113324Y198676D01*
X112610Y197746D01*
X112162Y196662D01*
X112009Y195500D01*
X112162Y194338D01*
X112610Y193254D01*
X113324Y192324D01*
X114254Y191611D01*
X115338Y191162D01*
X116500Y191009D01*
X117662Y191162D01*
X118746Y191611D01*
X119676Y192324D01*
X120389Y193254D01*
X120838Y194338D01*
X120991Y195500D01*
X120838Y196662D01*
X120389Y197746D01*
X119676Y198676D01*
X118746Y199390D01*
X117662Y199838D01*
X116500Y199991D01*
D02*
G37*
G36*
X36500D02*
X35338Y199838D01*
X34254Y199390D01*
X33324Y198676D01*
X32610Y197746D01*
X32162Y196662D01*
X32009Y195500D01*
X32162Y194338D01*
X32610Y193254D01*
X33324Y192324D01*
X34254Y191611D01*
X35338Y191162D01*
X36500Y191009D01*
X37662Y191162D01*
X38746Y191611D01*
X39676Y192324D01*
X40389Y193254D01*
X40838Y194338D01*
X40991Y195500D01*
X40838Y196662D01*
X40389Y197746D01*
X39676Y198676D01*
X38746Y199390D01*
X37662Y199838D01*
X36500Y199991D01*
D02*
G37*
G36*
X377047Y192395D02*
X376039Y192263D01*
X375099Y191874D01*
X374293Y191255D01*
X373744Y190539D01*
X358804D01*
X358255Y191255D01*
X357448Y191874D01*
X356508Y192263D01*
X355500Y192395D01*
X354492Y192263D01*
X353552Y191874D01*
X352745Y191255D01*
X352126Y190448D01*
X351737Y189508D01*
X351605Y188500D01*
X351737Y187492D01*
X352126Y186552D01*
X352745Y185745D01*
X353552Y185126D01*
X354492Y184737D01*
X355500Y184605D01*
X356508Y184737D01*
X357448Y185126D01*
X358255Y185745D01*
X358804Y186461D01*
X373744D01*
X374293Y185745D01*
X375099Y185126D01*
X376039Y184737D01*
X377047Y184605D01*
X378056Y184737D01*
X378995Y185126D01*
X379802Y185745D01*
X380421Y186552D01*
X380810Y187492D01*
X380943Y188500D01*
X380810Y189508D01*
X380421Y190448D01*
X379802Y191255D01*
X378995Y191874D01*
X378056Y192263D01*
X377047Y192395D01*
D02*
G37*
G36*
X353925Y117460D02*
Y115000D01*
X356385D01*
X356348Y115283D01*
X356046Y116013D01*
X355565Y116640D01*
X354938Y117121D01*
X354208Y117423D01*
X353925Y117460D01*
D02*
G37*
G36*
X352925D02*
X352642Y117423D01*
X351912Y117121D01*
X351286Y116640D01*
X350805Y116013D01*
X350502Y115283D01*
X350465Y115000D01*
X352925D01*
Y117460D01*
D02*
G37*
G36*
X356385Y114000D02*
X353925D01*
Y111540D01*
X354208Y111577D01*
X354938Y111880D01*
X355565Y112360D01*
X356046Y112987D01*
X356348Y113717D01*
X356385Y114000D01*
D02*
G37*
G36*
X352925D02*
X350465D01*
X350502Y113717D01*
X350805Y112987D01*
X351286Y112360D01*
X351912Y111880D01*
X352642Y111577D01*
X352925Y111540D01*
Y114000D01*
D02*
G37*
G36*
X392795Y118030D02*
X391882Y117910D01*
X391030Y117557D01*
X390299Y116996D01*
X389738Y116265D01*
X389385Y115414D01*
X389265Y114500D01*
X389385Y113586D01*
X389738Y112735D01*
X390299Y112004D01*
X391030Y111443D01*
X391882Y111090D01*
X392795Y110970D01*
X393709Y111090D01*
X394560Y111443D01*
X395291Y112004D01*
X395852Y112735D01*
X396205Y113586D01*
X396325Y114500D01*
X396205Y115414D01*
X395852Y116265D01*
X395291Y116996D01*
X394560Y117557D01*
X393709Y117910D01*
X392795Y118030D01*
D02*
G37*
G36*
X384921D02*
X384008Y117910D01*
X383156Y117557D01*
X382425Y116996D01*
X381864Y116265D01*
X381511Y115414D01*
X381391Y114500D01*
X381511Y113586D01*
X381864Y112735D01*
X382425Y112004D01*
X383156Y111443D01*
X384008Y111090D01*
X384921Y110970D01*
X385835Y111090D01*
X386686Y111443D01*
X387418Y112004D01*
X387979Y112735D01*
X388331Y113586D01*
X388452Y114500D01*
X388331Y115414D01*
X387979Y116265D01*
X387418Y116996D01*
X386686Y117557D01*
X385835Y117910D01*
X384921Y118030D01*
D02*
G37*
G36*
X377047D02*
X376134Y117910D01*
X375282Y117557D01*
X374551Y116996D01*
X373990Y116265D01*
X373637Y115414D01*
X373517Y114500D01*
X373637Y113586D01*
X373990Y112735D01*
X374551Y112004D01*
X375282Y111443D01*
X376134Y111090D01*
X377047Y110970D01*
X377961Y111090D01*
X378812Y111443D01*
X379543Y112004D01*
X380104Y112735D01*
X380457Y113586D01*
X380577Y114500D01*
X380457Y115414D01*
X380104Y116265D01*
X379543Y116996D01*
X378812Y117557D01*
X377961Y117910D01*
X377047Y118030D01*
D02*
G37*
G36*
X369173D02*
X368260Y117910D01*
X367408Y117557D01*
X366677Y116996D01*
X366116Y116265D01*
X365763Y115414D01*
X365643Y114500D01*
X365763Y113586D01*
X366116Y112735D01*
X366677Y112004D01*
X367408Y111443D01*
X368260Y111090D01*
X369173Y110970D01*
X370087Y111090D01*
X370938Y111443D01*
X371670Y112004D01*
X372231Y112735D01*
X372583Y113586D01*
X372703Y114500D01*
X372583Y115414D01*
X372231Y116265D01*
X371670Y116996D01*
X370938Y117557D01*
X370087Y117910D01*
X369173Y118030D01*
D02*
G37*
G36*
X361299D02*
X360385Y117910D01*
X359534Y117557D01*
X358803Y116996D01*
X358242Y116265D01*
X357889Y115414D01*
X357769Y114500D01*
X357889Y113586D01*
X358242Y112735D01*
X358803Y112004D01*
X359534Y111443D01*
X360385Y111090D01*
X361299Y110970D01*
X362213Y111090D01*
X363064Y111443D01*
X363795Y112004D01*
X364356Y112735D01*
X364709Y113586D01*
X364829Y114500D01*
X364709Y115414D01*
X364356Y116265D01*
X363795Y116996D01*
X363064Y117557D01*
X362213Y117910D01*
X361299Y118030D01*
D02*
G37*
G36*
X296500Y118491D02*
X295338Y118338D01*
X294254Y117889D01*
X293324Y117176D01*
X292611Y116246D01*
X292162Y115162D01*
X292009Y114000D01*
X292162Y112838D01*
X292611Y111754D01*
X293324Y110824D01*
X294254Y110110D01*
X295338Y109662D01*
X296500Y109509D01*
X297662Y109662D01*
X298746Y110110D01*
X299676Y110824D01*
X300390Y111754D01*
X300838Y112838D01*
X300991Y114000D01*
X300838Y115162D01*
X300390Y116246D01*
X299676Y117176D01*
X298746Y117889D01*
X297662Y118338D01*
X296500Y118491D01*
D02*
G37*
G36*
X296000Y93500D02*
X292579D01*
X292649Y92968D01*
X293047Y92007D01*
X293681Y91181D01*
X294507Y90547D01*
X295468Y90149D01*
X296000Y90079D01*
Y93500D01*
D02*
G37*
G36*
X300421D02*
X297000D01*
Y90079D01*
X297532Y90149D01*
X298493Y90547D01*
X299319Y91181D01*
X299953Y92007D01*
X300351Y92968D01*
X300421Y93500D01*
D02*
G37*
G36*
X78500Y159950D02*
Y158000D01*
X80449D01*
X80355Y158475D01*
X79802Y159302D01*
X78975Y159855D01*
X78500Y159950D01*
D02*
G37*
G36*
X77500D02*
X77025Y159855D01*
X76198Y159302D01*
X75645Y158475D01*
X75551Y158000D01*
X77500D01*
Y159950D01*
D02*
G37*
G36*
X80449Y157000D02*
X78500D01*
Y155051D01*
X78975Y155145D01*
X79802Y155698D01*
X80355Y156525D01*
X80449Y157000D01*
D02*
G37*
G36*
X77500D02*
X75551D01*
X75645Y156525D01*
X76198Y155698D01*
X77025Y155145D01*
X77500Y155051D01*
Y157000D01*
D02*
G37*
G36*
X105953Y105393D02*
Y103953D01*
X107393D01*
X107337Y104233D01*
X106895Y104895D01*
X106233Y105337D01*
X105953Y105393D01*
D02*
G37*
%LPD*%
D10*
X87323Y137122D02*
D03*
Y135153D02*
D03*
Y133185D02*
D03*
Y131217D02*
D03*
Y129248D02*
D03*
Y127279D02*
D03*
Y125311D02*
D03*
Y123343D02*
D03*
Y121374D02*
D03*
Y119405D02*
D03*
Y117437D02*
D03*
Y115469D02*
D03*
Y113500D02*
D03*
Y111531D02*
D03*
Y109563D02*
D03*
Y107595D02*
D03*
Y105626D02*
D03*
Y103657D02*
D03*
Y101689D02*
D03*
Y99721D02*
D03*
Y97752D02*
D03*
Y95784D02*
D03*
Y93815D02*
D03*
Y91847D02*
D03*
Y89878D02*
D03*
X27677D02*
D03*
Y91847D02*
D03*
Y93815D02*
D03*
Y95784D02*
D03*
Y97752D02*
D03*
Y99721D02*
D03*
Y101689D02*
D03*
Y103657D02*
D03*
Y105626D02*
D03*
Y107595D02*
D03*
Y109563D02*
D03*
Y111531D02*
D03*
Y113500D02*
D03*
Y115469D02*
D03*
Y117437D02*
D03*
Y119405D02*
D03*
Y121374D02*
D03*
Y123343D02*
D03*
Y125311D02*
D03*
Y127279D02*
D03*
Y129248D02*
D03*
Y131217D02*
D03*
Y133185D02*
D03*
Y135153D02*
D03*
Y137122D02*
D03*
D11*
X81122Y83677D02*
D03*
X79154D02*
D03*
X77185D02*
D03*
X75217D02*
D03*
X73248D02*
D03*
X71280D02*
D03*
X69311D02*
D03*
X67343D02*
D03*
X65374D02*
D03*
X63406D02*
D03*
X61437D02*
D03*
X59469D02*
D03*
X57500D02*
D03*
X55532D02*
D03*
X53563D02*
D03*
X51595D02*
D03*
X49626D02*
D03*
X47657D02*
D03*
X45689D02*
D03*
X43720D02*
D03*
X41752D02*
D03*
X39783D02*
D03*
X37815D02*
D03*
X35846D02*
D03*
X33878D02*
D03*
Y143323D02*
D03*
X35846D02*
D03*
X37815D02*
D03*
X39783D02*
D03*
X41752D02*
D03*
X43720D02*
D03*
X45689D02*
D03*
X47657D02*
D03*
X49626D02*
D03*
X51595D02*
D03*
X53563D02*
D03*
X55532D02*
D03*
X57500D02*
D03*
X59469D02*
D03*
X61437D02*
D03*
X63406D02*
D03*
X65374D02*
D03*
X67343D02*
D03*
X69311D02*
D03*
X71280D02*
D03*
X73248D02*
D03*
X75217D02*
D03*
X77185D02*
D03*
X79154D02*
D03*
X81122D02*
D03*
D12*
X245500Y102453D02*
D03*
Y96547D02*
D03*
X199500Y170547D02*
D03*
Y176453D02*
D03*
X15000Y95189D02*
D03*
Y89284D02*
D03*
X178000Y172547D02*
D03*
Y178453D02*
D03*
X190500Y172547D02*
D03*
Y178453D02*
D03*
X246500Y135953D02*
D03*
Y130047D02*
D03*
X254000Y136138D02*
D03*
Y130232D02*
D03*
X245500Y116953D02*
D03*
Y111047D02*
D03*
X255000Y102453D02*
D03*
Y96547D02*
D03*
X254500Y86815D02*
D03*
Y80910D02*
D03*
X264205Y86953D02*
D03*
Y81047D02*
D03*
X248500Y63953D02*
D03*
Y58047D02*
D03*
X258500Y63953D02*
D03*
Y58047D02*
D03*
D13*
X232547Y40500D02*
D03*
X238453D02*
D03*
X121453Y97000D02*
D03*
X115547D02*
D03*
X119500Y106000D02*
D03*
X113594D02*
D03*
X121453Y124000D02*
D03*
X115547D02*
D03*
X121453Y133000D02*
D03*
X115547D02*
D03*
X120085Y142000D02*
D03*
X114179D02*
D03*
X230547Y167000D02*
D03*
X236453D02*
D03*
X40453Y156500D02*
D03*
X34547D02*
D03*
X34547Y170000D02*
D03*
X40453D02*
D03*
X115547Y151000D02*
D03*
X121453D02*
D03*
X154453Y167000D02*
D03*
X148547D02*
D03*
X122453Y55000D02*
D03*
X116547D02*
D03*
X122453Y68500D02*
D03*
X116547D02*
D03*
X139453Y46000D02*
D03*
X133547D02*
D03*
X155953D02*
D03*
X150047D02*
D03*
X171953D02*
D03*
X166047D02*
D03*
X119453Y115000D02*
D03*
X113547D02*
D03*
X218547Y39783D02*
D03*
X224453D02*
D03*
X198547Y41500D02*
D03*
X204453D02*
D03*
D14*
X185000Y107000D02*
D03*
D15*
X227323Y157098D02*
D03*
X225354D02*
D03*
X223386D02*
D03*
X221417D02*
D03*
X219449D02*
D03*
X217480D02*
D03*
X215512D02*
D03*
X213543D02*
D03*
X211575D02*
D03*
X209606D02*
D03*
X207638D02*
D03*
X205669D02*
D03*
X203701D02*
D03*
X201732D02*
D03*
X199764D02*
D03*
X197795D02*
D03*
X195827D02*
D03*
X193858D02*
D03*
X191890D02*
D03*
X189921D02*
D03*
X187953D02*
D03*
X185984D02*
D03*
X184016D02*
D03*
X182047D02*
D03*
X180079D02*
D03*
X178110D02*
D03*
X176142D02*
D03*
X174173D02*
D03*
X172205D02*
D03*
X170236D02*
D03*
X168268D02*
D03*
X166299D02*
D03*
X164331D02*
D03*
X162362D02*
D03*
X160394D02*
D03*
X158425D02*
D03*
X156457D02*
D03*
X154488D02*
D03*
X152520D02*
D03*
X150551D02*
D03*
X148583D02*
D03*
X146614D02*
D03*
X144646D02*
D03*
X142677D02*
D03*
Y56902D02*
D03*
X144646D02*
D03*
X146614D02*
D03*
X148583D02*
D03*
X150551D02*
D03*
X152520D02*
D03*
X154488D02*
D03*
X156457D02*
D03*
X158425D02*
D03*
X160394D02*
D03*
X162362D02*
D03*
X164331D02*
D03*
X166299D02*
D03*
X168268D02*
D03*
X170236D02*
D03*
X172205D02*
D03*
X174173D02*
D03*
X176142D02*
D03*
X178110D02*
D03*
X180079D02*
D03*
X182047D02*
D03*
X184016D02*
D03*
X185984D02*
D03*
X187953D02*
D03*
X189921D02*
D03*
X191890D02*
D03*
X193858D02*
D03*
X195827D02*
D03*
X197795D02*
D03*
X199764D02*
D03*
X201732D02*
D03*
X203701D02*
D03*
X205669D02*
D03*
X207638D02*
D03*
X209606D02*
D03*
X211575D02*
D03*
X213543D02*
D03*
X215512D02*
D03*
X217480D02*
D03*
X219449D02*
D03*
X221417D02*
D03*
X223386D02*
D03*
X225354D02*
D03*
X227323D02*
D03*
D16*
X134902Y149323D02*
D03*
Y147354D02*
D03*
Y145386D02*
D03*
Y143417D02*
D03*
Y141449D02*
D03*
Y139480D02*
D03*
Y137512D02*
D03*
Y135543D02*
D03*
Y133575D02*
D03*
Y131606D02*
D03*
Y129638D02*
D03*
Y127669D02*
D03*
Y125701D02*
D03*
Y123732D02*
D03*
Y121764D02*
D03*
Y119795D02*
D03*
Y117827D02*
D03*
Y115858D02*
D03*
Y113890D02*
D03*
Y111921D02*
D03*
Y109953D02*
D03*
Y107984D02*
D03*
Y106016D02*
D03*
Y104047D02*
D03*
Y102079D02*
D03*
Y100110D02*
D03*
Y98142D02*
D03*
Y96173D02*
D03*
Y94205D02*
D03*
Y92236D02*
D03*
Y90268D02*
D03*
Y88299D02*
D03*
Y86331D02*
D03*
Y84362D02*
D03*
Y82394D02*
D03*
Y80425D02*
D03*
Y78457D02*
D03*
Y76488D02*
D03*
Y74520D02*
D03*
Y72551D02*
D03*
Y70583D02*
D03*
Y68614D02*
D03*
Y66646D02*
D03*
Y64677D02*
D03*
X235098D02*
D03*
Y66646D02*
D03*
Y68614D02*
D03*
Y70583D02*
D03*
Y72551D02*
D03*
Y74520D02*
D03*
Y76488D02*
D03*
Y78457D02*
D03*
Y80425D02*
D03*
Y82394D02*
D03*
Y84362D02*
D03*
Y86331D02*
D03*
Y88299D02*
D03*
Y90268D02*
D03*
Y92236D02*
D03*
Y94205D02*
D03*
Y96173D02*
D03*
Y98142D02*
D03*
Y100110D02*
D03*
Y102079D02*
D03*
Y104047D02*
D03*
Y106016D02*
D03*
Y107984D02*
D03*
Y109953D02*
D03*
Y111921D02*
D03*
Y113890D02*
D03*
Y115858D02*
D03*
Y117827D02*
D03*
Y119795D02*
D03*
Y121764D02*
D03*
Y123732D02*
D03*
Y125701D02*
D03*
Y127669D02*
D03*
Y129638D02*
D03*
Y131606D02*
D03*
Y133575D02*
D03*
Y135543D02*
D03*
Y137512D02*
D03*
Y139480D02*
D03*
Y141449D02*
D03*
Y143417D02*
D03*
Y145386D02*
D03*
Y147354D02*
D03*
Y149323D02*
D03*
D17*
X13000Y123685D02*
D03*
Y134315D02*
D03*
D18*
X417815Y135543D02*
D03*
X407185D02*
D03*
D19*
X63543Y165000D02*
D03*
X56457D02*
D03*
D20*
X269579Y127520D02*
D03*
X271547D02*
D03*
X273516D02*
D03*
X275484D02*
D03*
X277453D02*
D03*
X279421D02*
D03*
Y142480D02*
D03*
X277453D02*
D03*
X275484D02*
D03*
X273516D02*
D03*
X271547D02*
D03*
X269579D02*
D03*
D21*
X281980Y130079D02*
D03*
Y132047D02*
D03*
Y134016D02*
D03*
Y135984D02*
D03*
Y137953D02*
D03*
Y139921D02*
D03*
X267020D02*
D03*
Y137953D02*
D03*
Y135984D02*
D03*
Y134016D02*
D03*
Y132047D02*
D03*
X267000Y130000D02*
D03*
D22*
X274500Y135000D02*
D03*
D23*
X407185Y126315D02*
Y135543D01*
Y126315D02*
X407799Y125701D01*
X411500D01*
X420500Y116701D01*
Y102500D02*
Y116701D01*
X377000Y59000D02*
X420500Y102500D01*
X291000Y59000D02*
X377000D01*
X286000Y54000D02*
X291000Y59000D01*
X209606Y43736D02*
X211500Y41842D01*
X209606Y43736D02*
Y50609D01*
X211006Y52009D01*
X211575D01*
Y56902D01*
X397000Y145728D02*
X407185Y135543D01*
X397000Y145728D02*
Y183500D01*
X402500Y189000D01*
X271677Y83677D02*
X275484Y87484D01*
Y127520D01*
X235098Y82394D02*
X243394D01*
X254500Y86453D02*
X264000D01*
X245638Y86815D02*
X247500Y84953D01*
X240217Y92236D02*
X245638Y86815D01*
X254500D01*
X247500Y77489D02*
Y84953D01*
X244530Y74520D02*
X247500Y77489D01*
X254500Y80910D02*
X273909D01*
X245547Y111000D02*
X260000D01*
X245500Y111047D02*
X245547Y111000D01*
X261500Y112500D02*
X267000Y107000D01*
X252242Y112500D02*
X261500D01*
X250050Y114692D02*
X252242Y112500D01*
X241500Y127669D02*
Y132575D01*
X236500Y167047D02*
X259000Y144547D01*
Y126157D02*
Y144547D01*
Y126157D02*
X259658Y125500D01*
X240500Y133575D02*
X241500Y132575D01*
X240500Y133575D02*
X242500Y135575D01*
Y135953D01*
X246500D01*
X247047Y130047D02*
X259095D01*
X239858Y135500D02*
Y139358D01*
X242000Y141500D02*
X243500D01*
X239858Y139358D02*
X242000Y141500D01*
X249827D02*
X254500Y136827D01*
X243500Y141500D02*
X249827D01*
X242000Y121500D02*
X269547D01*
X241000D02*
X242000D01*
X239295Y119795D02*
X241000Y121500D01*
X269547D02*
X271547Y123500D01*
X267579Y123000D02*
X269579Y125000D01*
X252744Y123000D02*
X267579D01*
X251494Y124250D02*
X252744Y123000D01*
X262500Y134500D02*
X263000Y134000D01*
X262331Y132047D02*
X267020D01*
X263000Y134000D02*
X267004D01*
X265016Y135984D02*
X267020D01*
X263000Y138000D02*
X265016Y135984D01*
X261500Y131217D02*
X262331Y132047D01*
X266827Y147000D02*
X269579Y144248D01*
X261280Y147000D02*
X266827D01*
X310500Y136500D02*
X333500D01*
X291000Y144000D02*
Y148500D01*
X245500Y96547D02*
X250000Y92047D01*
Y92250D01*
X273953Y53000D02*
X277953Y49000D01*
X263000Y63953D02*
X273953Y53000D01*
X258500Y63953D02*
X263000D01*
X253839Y68614D02*
X258500Y63953D01*
X250436Y68614D02*
X253839D01*
X244530Y74520D02*
X250436Y68614D01*
X235098Y74520D02*
X244530D01*
X241500Y66205D02*
X243000Y64705D01*
X241500Y66205D02*
Y71000D01*
X243000Y64705D02*
X247748D01*
X296500Y84000D02*
X296500D01*
X287750D02*
X296500D01*
X289000Y91500D02*
X296500Y84000D01*
X191894Y50996D02*
X193500D01*
X189000Y46000D02*
X195000D01*
X189000D02*
X191779D01*
X191890Y46110D01*
X256500Y45500D02*
Y45658D01*
X240453Y39000D02*
X249000D01*
X246500Y16500D02*
Y20500D01*
X246797D01*
X259500Y33203D01*
X258000Y26000D02*
X262500Y21500D01*
X320000Y79000D02*
Y83425D01*
X323075Y86500D01*
X200902Y164138D02*
X203264Y166500D01*
X207000D01*
X199764Y163000D02*
X200902Y164138D01*
X217500Y174000D02*
X224000D01*
X207638Y164138D02*
Y165862D01*
Y164138D02*
X217500Y174000D01*
X207638Y157098D02*
Y164138D01*
X224000Y170000D02*
Y174000D01*
X220500Y166500D02*
X224000Y170000D01*
X220272Y166500D02*
X220500D01*
X189500Y166079D02*
X190500Y167079D01*
X187953Y164532D02*
X189500Y166079D01*
X187953Y157098D02*
Y164532D01*
X180079Y164579D02*
X181500Y166000D01*
X180079Y157098D02*
Y164579D01*
X178110Y165928D02*
Y170547D01*
X178050Y165868D02*
Y167500D01*
Y157159D02*
Y165868D01*
X189921Y162531D02*
X190890Y163500D01*
X195000D01*
X182433Y163386D02*
X183307D01*
X182047Y163000D02*
X182433Y163386D01*
X182047Y157098D02*
Y163000D01*
X183307Y163386D02*
X185500Y165579D01*
X178050Y165868D02*
X178110Y165928D01*
X178110Y176453D02*
Y184940D01*
X178050Y185000D02*
X178110Y184940D01*
X160500Y179500D02*
X171500Y168500D01*
X176142Y163858D01*
X169000Y164500D02*
Y167500D01*
X159500Y177000D02*
X169000Y167500D01*
Y164500D02*
X172000D01*
X174173Y162327D01*
X126000Y97500D02*
Y103000D01*
X125000Y104000D02*
X126000Y103000D01*
X123453Y104000D02*
X125000D01*
X121453Y106000D02*
X123453Y104000D01*
X124500Y109563D02*
Y111953D01*
X121453Y115000D02*
X124500Y111953D01*
Y109563D02*
X126890D01*
X128169Y108283D01*
X125750Y131138D02*
X127250Y129638D01*
X128362D01*
X130043Y127957D01*
X129100Y131606D02*
X134902D01*
X127500Y133207D02*
X129100Y131606D01*
X128000Y116437D02*
Y125150D01*
X121453Y131697D02*
X128000Y125150D01*
X121453Y131697D02*
Y133000D01*
X126500Y152000D02*
Y152500D01*
X125500Y151000D02*
X126500Y152000D01*
X121453Y151000D02*
X125500D01*
X129453Y137186D02*
Y156148D01*
X126225Y159375D02*
X129453Y156148D01*
X125000Y142000D02*
X125000Y142000D01*
X115867Y155819D02*
X122670D01*
X125350Y158500D02*
X126225Y159375D01*
X122670Y155819D02*
X125350Y158500D01*
X125000D02*
X125350D01*
X145984Y164563D02*
X148547Y162000D01*
X141000Y164563D02*
X145984D01*
X120513Y80500D02*
X121439D01*
X118638Y84362D02*
X134902D01*
X118500Y84500D02*
X118638Y84362D01*
X121500Y88339D02*
Y88500D01*
Y88339D02*
X123339Y86500D01*
X123169Y86331D02*
X123339Y86500D01*
X127000Y91750D02*
Y92000D01*
X122000Y97000D02*
X127000Y92000D01*
Y91750D02*
X127250D01*
X130701Y88299D01*
X112000Y86500D02*
Y93453D01*
X115547Y97000D01*
X122453Y55000D02*
X125953D01*
X129453Y51500D01*
X122453Y61500D02*
Y68500D01*
Y55000D02*
Y61500D01*
Y55000D02*
X127000Y59547D01*
Y63293D01*
X128384Y64677D01*
X134902D01*
X93192Y133050D02*
X94500Y131742D01*
X96242D02*
X97000Y132500D01*
X94500Y131742D02*
X96242D01*
X94500Y135000D02*
X94653Y135153D01*
X87323D02*
X94653D01*
X97000Y132500D02*
Y136984D01*
X95000Y138984D02*
X97000Y136984D01*
X95000Y138984D02*
Y140500D01*
X109000Y119703D02*
Y152000D01*
X87354Y111500D02*
X94500D01*
X87354Y111500D02*
X87354Y111500D01*
X78937Y75563D02*
X80000D01*
X77185Y77315D02*
X78937Y75563D01*
X53563Y72051D02*
Y83677D01*
X56614Y69000D02*
X61437D01*
X53563Y72051D02*
X56614Y69000D01*
X6000Y95000D02*
X14189D01*
X103689Y101689D02*
X105453Y103453D01*
X185000Y107000D02*
X236453Y158453D01*
Y167000D01*
X206500Y23500D02*
X206750Y23250D01*
X206500Y23000D02*
X209000Y20500D01*
X206500Y23500D02*
Y28000D01*
X252297Y12297D02*
X256500Y16500D01*
X290547Y10547D02*
X296500Y16500D01*
X137902Y205500D02*
X151902Y191500D01*
X134500Y205500D02*
X137902D01*
X336250Y202750D02*
X342500Y196500D01*
X294750Y202750D02*
X336250D01*
X290500Y198500D02*
X294750Y202750D01*
X403500Y204500D02*
X411000Y197000D01*
X277000Y204500D02*
X403500D01*
X273500Y201000D02*
X277000Y204500D01*
X14189Y95000D02*
X18910Y99721D01*
X217000Y11000D02*
X221500Y15500D01*
X177610Y11000D02*
X217000D01*
X411000Y149764D02*
Y197000D01*
Y149764D02*
X417815Y142949D01*
Y135543D02*
Y142949D01*
X121453Y142000D02*
X125000D01*
X120085D02*
X121453D01*
X232547Y35013D02*
Y40500D01*
Y35013D02*
X236698Y30862D01*
X213415Y56774D02*
X213543Y56902D01*
X191890Y46110D02*
Y56902D01*
X171953Y31547D02*
Y46000D01*
Y31547D02*
X178000Y25500D01*
X185500D01*
X187000Y21000D02*
X191500Y25500D01*
X178000Y21000D02*
X187000D01*
X165252Y33748D02*
X178000Y21000D01*
X123169Y86331D02*
X134902D01*
X165252Y33748D02*
Y41047D01*
X178000Y15500D02*
X191500D01*
X156500Y37000D02*
X178000Y15500D01*
X249315Y30862D02*
X257547Y39094D01*
X236698Y30862D02*
X249315D01*
X306500Y54000D02*
X315500Y45000D01*
Y10425D02*
Y45000D01*
X239949Y72551D02*
X241500Y71000D01*
X302444Y84000D02*
X306500D01*
X208500Y176453D02*
X232547D01*
X199500D02*
X208500D01*
X207000Y172500D02*
X208500Y174000D01*
Y176453D01*
X240500Y124250D02*
X251494D01*
X238770D02*
X240500D01*
X235098Y119795D02*
X239295D01*
X238125Y123604D02*
X238770Y124250D01*
X131221Y90396D02*
X134774D01*
X130797Y90819D02*
X131221Y90396D01*
X130797Y90819D02*
Y92703D01*
X121453Y124000D02*
X125750Y119703D01*
Y114750D02*
Y119703D01*
Y114750D02*
X129919Y110581D01*
Y104047D02*
Y110581D01*
Y104047D02*
X134902D01*
X122453Y68500D02*
Y69453D01*
X129488Y76488D01*
X134902D01*
X195000Y46000D02*
X195827Y46827D01*
X195000Y46000D02*
X198890D01*
X199890Y47000D01*
X186450Y37250D02*
X204675D01*
X187953Y50003D02*
Y56902D01*
X185250Y38450D02*
X186450Y37250D01*
X185250Y38450D02*
Y47300D01*
X187953Y50003D01*
X185725Y35500D02*
X203950D01*
X185984Y50509D02*
Y56902D01*
X183500Y37725D02*
X185725Y35500D01*
X183500Y37725D02*
Y48025D01*
X185984Y50509D01*
X181750Y37000D02*
X185000Y33750D01*
X181750Y37000D02*
Y48750D01*
X184016Y51016D01*
Y56902D01*
X180000Y36000D02*
X184000Y32000D01*
X178000Y30000D02*
X197000D01*
X201500Y25500D01*
X185000Y33750D02*
X203225D01*
X202500Y32000D02*
X206500Y28000D01*
X184000Y32000D02*
X202500D01*
X199890Y47000D02*
X201732Y48842D01*
X198547Y45658D02*
X199890Y47000D01*
X195827Y46827D02*
Y56902D01*
X198547Y41500D02*
Y45658D01*
X215640Y52748D02*
Y56774D01*
X215512Y56902D02*
X215640Y56774D01*
X291421Y98421D02*
X296865D01*
X274047Y81047D02*
X291421Y98421D01*
X301500Y103056D02*
Y109000D01*
X296865Y98421D02*
X301500Y103056D01*
X302000Y68500D02*
Y75444D01*
X304759Y78203D02*
X306646D01*
X302000Y75444D02*
X304759Y78203D01*
X203701Y51799D02*
X205000Y50500D01*
X203701Y51799D02*
Y56902D01*
X123205Y82266D02*
X134774D01*
X121439Y80500D02*
X123205Y82266D01*
X124925Y80425D02*
X134902D01*
X122000Y77500D02*
X124925Y80425D01*
X111500Y77500D02*
X122000D01*
X256410Y106862D02*
X257547Y108000D01*
X257500D02*
X257547D01*
X254638Y106862D02*
X256410D01*
X235226Y123604D02*
X238125D01*
X235098Y123732D02*
X235226Y123604D01*
X248547Y116953D02*
X248685D01*
X245500D02*
X248547D01*
X250050Y114692D02*
Y115450D01*
X248547Y116953D02*
X250050Y115450D01*
X235098Y133575D02*
X240500D01*
X209500Y162500D02*
X217982Y170982D01*
X218649D01*
X220272Y166500D02*
X223386Y163386D01*
X116547Y46000D02*
Y68500D01*
X134774Y82266D02*
X134902Y82394D01*
X128207Y78457D02*
X134902D01*
X123750Y74000D02*
X128207Y78457D01*
X255000Y86953D02*
X267000Y98953D01*
Y107000D01*
X129453Y137186D02*
X131096Y135543D01*
X121453Y151000D02*
X127500Y144953D01*
Y133207D02*
Y144953D01*
X121453Y142000D02*
X125750Y137703D01*
Y131138D02*
Y137703D01*
X131096Y135543D02*
X134902D01*
X160500Y167000D02*
Y170500D01*
X157000Y174000D02*
X160500Y170500D01*
X140500Y174000D02*
X157000D01*
X125000Y158500D02*
X140500Y174000D01*
X116500Y177000D02*
X159500D01*
X109000Y184500D02*
X116500Y177000D01*
X118500Y179500D02*
X160500D01*
X109500Y188500D02*
X118500Y179500D01*
X95500Y144500D02*
Y156000D01*
X74000Y177500D02*
X95500Y156000D01*
X29000Y177500D02*
X74000D01*
X19000Y187500D02*
X29000Y177500D01*
X19000Y187500D02*
Y198000D01*
X26500Y205500D01*
X236500Y167047D02*
Y172500D01*
X232547Y176453D02*
X236500Y172500D01*
X207000Y166500D02*
X207638Y165862D01*
X199764Y157098D02*
Y163000D01*
X189921Y157098D02*
Y162531D01*
X209500Y157205D02*
Y162500D01*
X302000Y68500D02*
X306500Y64000D01*
X205541Y157226D02*
Y163459D01*
X205500Y163500D02*
X205541Y163459D01*
X128169Y98504D02*
Y108283D01*
Y98504D02*
X130500Y96173D01*
X134902D01*
X197795Y157098D02*
Y165500D01*
X199500Y167205D01*
Y170547D01*
X190500D02*
X199500D01*
X190500Y167079D02*
Y170547D01*
X288484Y135984D02*
X307000Y154500D01*
X333500Y158000D02*
X342500Y167000D01*
Y196500D01*
X290500Y160500D02*
Y198500D01*
Y160500D02*
X301000D01*
X306500Y155000D01*
X369547Y166000D02*
X377047Y158500D01*
X352000Y166000D02*
X369547D01*
X327500Y141500D02*
X352000Y166000D01*
X315500Y141500D02*
X327500D01*
X264500Y130000D02*
X267000D01*
X263500Y141500D02*
X265079Y139921D01*
X267020D01*
X263500Y150000D02*
X268000D01*
X271547Y146453D01*
X284421Y139921D02*
X286000Y141500D01*
X281980Y139921D02*
X284421D01*
X261000Y188500D02*
X273500Y201000D01*
X198500Y188500D02*
X261000D01*
X191500Y195500D02*
X198500Y188500D01*
X333500Y136500D02*
X355500Y158500D01*
X319000Y150500D02*
Y172500D01*
X298579Y130079D02*
X319000Y150500D01*
X281980Y130079D02*
X298579D01*
X355500Y188500D02*
X377047D01*
X323075Y86500D02*
X380043D01*
X408543Y115000D01*
X306500Y74000D02*
X383500D01*
X416417Y106917D01*
Y115000D01*
X424291D02*
Y124709D01*
X417815Y131185D02*
X424291Y124709D01*
X417815Y131185D02*
Y135543D01*
X332000Y189500D02*
X333500Y188000D01*
X303500Y189500D02*
X332000D01*
X301500Y187500D02*
X303500Y189500D01*
X301500Y170000D02*
Y187500D01*
Y170000D02*
X306500Y165000D01*
X312000Y148653D02*
Y160000D01*
X297362Y134016D02*
X312000Y148653D01*
X291000Y148500D02*
X297000Y154500D01*
X307000Y165000D02*
X312000Y160000D01*
X281980Y135984D02*
X288484D01*
X18910Y99721D02*
X27677D01*
X87323Y111531D02*
X87354Y111500D01*
X121000Y169000D02*
X128500D01*
X105750Y153750D02*
X121000Y169000D01*
X105750Y113250D02*
Y153750D01*
X96157Y103657D02*
X105750Y113250D01*
X87323Y103657D02*
X96157D01*
X104000Y155868D02*
X117132Y169000D01*
X104000Y128150D02*
Y155868D01*
X97352Y121502D02*
X104000Y128150D01*
X187500Y191500D02*
X191500Y195500D01*
X151902Y191500D02*
X187500D01*
X197000Y201000D02*
X201500Y205500D01*
X177500Y201000D02*
X197000D01*
X173000Y196500D02*
X177500Y201000D01*
X117132Y169000D02*
Y169132D01*
X87451Y121502D02*
X97352D01*
X87323Y121374D02*
X87451Y121502D01*
X102250Y157766D02*
X110000Y165516D01*
X102250Y128875D02*
Y157766D01*
X96845Y123470D02*
X102250Y128875D01*
X87451Y123470D02*
X96845D01*
X87323Y123343D02*
X87451Y123470D01*
X98750Y130325D02*
Y164750D01*
X99000Y165000D01*
X95705Y127279D02*
X98750Y130325D01*
X100500Y160000D02*
X103500Y163000D01*
X100500Y129600D02*
Y160000D01*
X96339Y125439D02*
X100500Y129600D01*
X87451Y125439D02*
X96339D01*
X87323Y125311D02*
X87451Y125439D01*
X99000Y165000D02*
Y165516D01*
X87323Y127279D02*
X95705D01*
X87323Y133185D02*
X93057D01*
X87323Y95784D02*
X87451Y95656D01*
X92819D01*
X94750Y93725D01*
Y78275D02*
Y93725D01*
X92000Y75525D02*
X94750Y78275D01*
X92000Y73500D02*
Y75525D01*
X77185Y77315D02*
Y83677D01*
X57500Y75563D02*
Y83677D01*
Y154500D02*
X58000Y155000D01*
X57500Y143323D02*
Y154500D01*
X301500Y109000D02*
X306500Y114000D01*
X277953Y49000D02*
X301500D01*
X306500Y44000D01*
X115547Y151000D02*
Y155500D01*
X115867Y155819D01*
X26500Y195500D02*
X31500Y200500D01*
Y208000D01*
X34500Y211000D01*
X122000D01*
X178110Y170547D02*
X178110Y170547D01*
X178050Y157159D02*
X178110Y157098D01*
X46500Y195500D02*
X51000Y200000D01*
X70500D01*
X72000Y198500D01*
Y192500D02*
Y198500D01*
Y192500D02*
X76000Y188500D01*
X109500D01*
X176142Y157098D02*
Y163858D01*
X56500Y195500D02*
X67500Y184500D01*
X109000D01*
X174173Y157098D02*
Y162327D01*
X154453Y167000D02*
X160500D01*
X162362Y165138D01*
Y157098D02*
Y165138D01*
X148547Y162000D02*
Y167000D01*
Y162000D02*
X158425D01*
Y157098D02*
Y162000D01*
X275484Y134016D02*
X281980D01*
X307000Y184500D02*
X319000Y172500D01*
X273516Y144984D02*
X275468D01*
X274500Y144992D02*
Y148000D01*
X269579Y142480D02*
Y144248D01*
X271547Y142480D02*
Y146453D01*
X235142Y135500D02*
X239858D01*
X273516Y122016D02*
Y127520D01*
X281980Y134016D02*
X297362D01*
X275468Y142496D02*
Y144984D01*
X273516Y142480D02*
Y144984D01*
X269579Y125000D02*
Y127520D01*
X271547Y123500D02*
Y127520D01*
X240953Y116953D02*
X245500D01*
X239858Y115858D02*
X240953Y116953D01*
X235098Y115858D02*
X239858D01*
X255000Y102453D02*
Y106500D01*
X254638Y106862D02*
X255000Y106500D01*
X240217Y106862D02*
X254638D01*
X240217D02*
Y113890D01*
X235098D02*
X240217D01*
X245500Y96547D02*
X255000D01*
X245500Y102453D02*
X252827D01*
X243905Y104047D02*
X245500Y102453D01*
X235098Y104047D02*
X243905D01*
X235098Y102079D02*
X235226Y101951D01*
X239032D01*
X240217Y100767D01*
Y92236D02*
Y100767D01*
X235098Y92236D02*
X240217D01*
X201732Y48842D02*
Y56902D01*
X235098Y72551D02*
X239949D01*
X273000Y21500D02*
X276500Y18000D01*
X262500Y21500D02*
X273000D01*
X285000D02*
X301500D01*
X306500Y16500D01*
X227323Y52500D02*
Y56902D01*
X180000Y36000D02*
Y49500D01*
X182047Y51547D01*
Y56902D01*
X197795Y51705D02*
Y56902D01*
Y51705D02*
X199000Y50500D01*
X34547Y156500D02*
Y170000D01*
Y150677D02*
Y156500D01*
Y150677D02*
X34724Y150500D01*
X52000D01*
X53563Y148937D01*
Y143323D02*
Y148937D01*
X40178Y167750D02*
Y170000D01*
X40453D01*
X40178Y156819D02*
Y167750D01*
X42030Y170327D02*
X63543D01*
Y165000D02*
Y170327D01*
X53000Y161543D02*
X56457Y165000D01*
X53000Y153000D02*
Y161543D01*
Y153000D02*
X55532Y150469D01*
Y143323D02*
Y150469D01*
X63543Y152000D02*
Y165000D01*
X59469Y147925D02*
X63543Y152000D01*
X59469Y143323D02*
Y147925D01*
X53435Y143451D02*
Y146940D01*
Y143451D02*
X53563Y143323D01*
X85000Y69000D02*
Y71000D01*
X93000Y79000D01*
Y93000D01*
X92185Y93815D02*
X93000Y93000D01*
X87323Y93815D02*
X92185D01*
X22000Y109563D02*
X27677D01*
X22000Y103657D02*
X27677D01*
X13000Y101862D02*
Y123685D01*
Y101862D02*
X13173Y101689D01*
X27677D01*
X130701Y88299D02*
X134902D01*
X134774Y90396D02*
X134902Y90268D01*
X126000Y97500D02*
X130797Y92703D01*
X128579Y115858D02*
X134902D01*
X128000Y116437D02*
X128579Y115858D01*
X130043Y117827D02*
X134902D01*
X130043D02*
Y127957D01*
X121453Y124000D02*
Y133000D01*
X115547Y124000D02*
Y133000D01*
Y142000D01*
X113500Y74000D02*
X123750D01*
X111000Y71500D02*
X113500Y74000D01*
X108500Y74500D02*
X111500Y77500D01*
X146500Y56787D02*
X146614Y56902D01*
X146500Y52000D02*
Y56787D01*
X139453Y51500D02*
X146000D01*
X139453Y51500D02*
X139453Y51500D01*
X139453Y46000D02*
Y51500D01*
X129453Y51500D02*
X139453D01*
X116547Y46000D02*
X133547D01*
X146047Y51453D02*
X155953D01*
X146000Y51500D02*
X146500Y52000D01*
X150047Y41047D02*
Y46000D01*
X133595Y41047D02*
X150047D01*
X133547Y41094D02*
X133595Y41047D01*
X133547Y41094D02*
Y46000D01*
X176142Y53642D02*
Y56902D01*
Y52142D02*
Y53642D01*
X171953Y46000D02*
Y47953D01*
X162362Y51862D02*
Y56902D01*
X156500Y46000D02*
X162362Y51862D01*
X155953Y46000D02*
X156591Y46638D01*
X155953Y46000D02*
Y51453D01*
X162362Y51638D02*
Y51862D01*
Y51638D02*
X163000Y51000D01*
X175000D01*
X176142Y52142D01*
X171953Y47953D02*
X175000Y51000D01*
X150047Y41047D02*
X165252D01*
X166047Y41842D02*
Y46000D01*
X165252Y41047D02*
X166047Y41842D01*
X223386Y157098D02*
Y163386D01*
X227000Y167000D01*
X230547D01*
X255205Y96752D02*
X259799D01*
X243565Y12297D02*
X252297D01*
X227000Y32500D02*
X239000Y20500D01*
Y20468D02*
Y20500D01*
X238999Y20466D02*
X239000Y20468D01*
X229000Y34000D02*
X246500Y16500D01*
X238000Y41453D02*
X240453Y39000D01*
X207260Y56524D02*
X207638Y56902D01*
X205500Y46500D02*
X207260Y48260D01*
Y56524D01*
X205500Y42547D02*
Y46500D01*
X204453Y41500D02*
X205500Y42547D01*
X204453Y41500D02*
X207500D01*
X212500Y36500D01*
X217500Y46500D02*
X219000Y45000D01*
X222500D01*
X212189Y46858D02*
Y49250D01*
Y46858D02*
X218547Y40500D01*
X213543Y50604D02*
Y56902D01*
X212189Y49250D02*
X213543Y50604D01*
X215512Y49988D02*
Y56902D01*
Y49988D02*
X217500Y48000D01*
Y46500D02*
Y48000D01*
X217480Y51520D02*
Y56902D01*
X254491Y52009D02*
X285000Y21500D01*
X227323Y52500D02*
X227814Y52009D01*
X254491D01*
X225354Y52347D02*
Y56902D01*
Y52347D02*
X227202Y50500D01*
X251658D01*
X256500Y45658D01*
X231761Y40500D02*
X232547D01*
X262500Y99453D02*
Y107500D01*
X260000Y111000D02*
X262500Y108500D01*
Y107500D02*
Y108500D01*
X259799Y96752D02*
X262500Y99453D01*
X250732Y119000D02*
X251652D01*
X248685Y116953D02*
X250732Y119000D01*
X253000Y115328D02*
X266828D01*
X273516Y122016D01*
X256410Y76488D02*
X280238D01*
X287750Y84000D01*
X252500Y73500D02*
X289000D01*
X294500Y79000D01*
X297444D01*
X302444Y84000D01*
X75217Y79216D02*
Y83677D01*
X18668Y106610D02*
X22000D01*
Y103657D02*
Y106610D01*
Y109563D01*
X60866Y173500D02*
X61366Y174000D01*
X113594Y103173D02*
Y106000D01*
Y103173D02*
X115547Y101221D01*
Y97000D02*
Y101221D01*
X113594Y106000D02*
Y114953D01*
X113547Y115000D02*
Y117500D01*
X115547Y119500D01*
Y124000D01*
X87323Y105626D02*
X95242D01*
X100141Y110524D01*
Y113203D01*
X94923Y118421D02*
X100141Y113203D01*
X73641Y77641D02*
X75217Y79216D01*
X69311Y77641D02*
X73641D01*
X93500Y99009D02*
Y101689D01*
X87323D02*
X93500D01*
X103689D01*
X243500Y141500D02*
Y148453D01*
X246500Y151453D01*
X280000Y147500D02*
X286000Y141500D01*
X280000Y147500D02*
Y192000D01*
X331299Y98799D02*
Y118500D01*
X306500Y74000D02*
X331299Y98799D01*
X324500Y96056D02*
Y118000D01*
X306646Y78203D02*
X324500Y96056D01*
X318250Y94750D02*
Y117750D01*
X312500Y89000D02*
X318250Y94750D01*
X301500Y89000D02*
X312500D01*
X296500Y84000D02*
X301500Y89000D01*
X224453Y39717D02*
Y39783D01*
Y40500D01*
X196547Y176453D02*
X199500D01*
X194547Y178453D02*
X196547Y176453D01*
X190500Y178453D02*
X194547D01*
X190500D02*
Y185000D01*
X217480Y51520D02*
X220479D01*
X319727Y39000D02*
X320406D01*
X209000Y20500D02*
X231500D01*
X241453Y10547D01*
X290547D01*
X167500Y12297D02*
X174297Y5500D01*
X310575D01*
X315500Y10425D01*
X229500Y7500D02*
X235000Y13000D01*
X228500Y7500D02*
X229500D01*
X176500Y8500D02*
X223500D01*
X231000Y16000D01*
Y17000D01*
X111000Y45330D02*
Y71500D01*
Y45330D02*
X119330Y37000D01*
X156500D01*
X108500Y43500D02*
Y74500D01*
X80000Y65500D02*
X82000D01*
X80000D02*
Y75563D01*
X108500Y43500D02*
X118252Y33748D01*
X154862D01*
X177610Y11000D01*
X82000Y65500D02*
X116500Y31000D01*
X154000D01*
X176500Y8500D01*
X223386Y51375D02*
Y56902D01*
Y51375D02*
X226808Y47953D01*
X230500D01*
X220500Y48500D02*
X223000D01*
X227500Y44000D01*
X228261D01*
X217480Y51520D02*
X220500Y48500D01*
X228261Y44000D02*
X231761Y40500D01*
X263500Y127000D02*
Y129000D01*
X264500Y130000D01*
X122000Y211000D02*
X144000Y189000D01*
X179000D01*
X185500Y182500D01*
Y165579D02*
Y182500D01*
X203225Y33750D02*
X206113Y30862D01*
X203950Y35500D02*
X206950Y32500D01*
X204675Y37250D02*
X207925Y34000D01*
X206113Y30862D02*
X225000D01*
X243565Y12297D01*
X206950Y32500D02*
X227000D01*
X207925Y34000D02*
X229000D01*
X212500Y36500D02*
X213500Y35500D01*
X224426D01*
Y39689D01*
X264049Y70951D02*
X266000Y69000D01*
X248110Y74520D02*
X254500Y80910D01*
X248110Y74520D02*
X251569Y71061D01*
Y70951D02*
X264049D01*
X251569D02*
Y71061D01*
X238000Y41453D02*
Y45500D01*
X248500Y58047D02*
X258500D01*
X263953D01*
X265000Y57000D01*
D24*
X221500Y205500D02*
D03*
Y195500D02*
D03*
X211500Y205500D02*
D03*
Y195500D02*
D03*
X201500Y205500D02*
D03*
Y195500D02*
D03*
X191500Y205500D02*
D03*
Y15500D02*
D03*
Y25500D02*
D03*
X201500Y15500D02*
D03*
Y25500D02*
D03*
X211500Y15500D02*
D03*
Y25500D02*
D03*
X221500Y15500D02*
D03*
X296500Y195000D02*
D03*
Y185000D02*
D03*
Y175000D02*
D03*
Y165000D02*
D03*
Y155000D02*
D03*
X306500Y195000D02*
D03*
Y185000D02*
D03*
Y175000D02*
D03*
Y165000D02*
D03*
X296500Y114000D02*
D03*
Y104000D02*
D03*
Y94000D02*
D03*
Y84000D02*
D03*
Y74000D02*
D03*
Y64000D02*
D03*
Y54000D02*
D03*
Y44000D02*
D03*
X306500Y114000D02*
D03*
Y104000D02*
D03*
Y94000D02*
D03*
Y84000D02*
D03*
Y74000D02*
D03*
Y64000D02*
D03*
Y54000D02*
D03*
X106500Y25500D02*
D03*
X96500D02*
D03*
X86500D02*
D03*
X76500D02*
D03*
X66500D02*
D03*
X56500D02*
D03*
X46500D02*
D03*
X36500D02*
D03*
X26500D02*
D03*
X116500Y15500D02*
D03*
X106500D02*
D03*
X96500D02*
D03*
X86500D02*
D03*
X76500D02*
D03*
X66500D02*
D03*
X56500D02*
D03*
X46500D02*
D03*
X36500D02*
D03*
X26500D02*
D03*
X106500Y205500D02*
D03*
X96500D02*
D03*
X86500D02*
D03*
X76500D02*
D03*
X66500D02*
D03*
X56500D02*
D03*
X46500D02*
D03*
X36500D02*
D03*
X26500D02*
D03*
X116500Y195500D02*
D03*
X106500D02*
D03*
X96500D02*
D03*
X86500D02*
D03*
X76500D02*
D03*
X66500D02*
D03*
X56500D02*
D03*
X46500D02*
D03*
X36500D02*
D03*
X26500D02*
D03*
X286500Y16500D02*
D03*
X296500D02*
D03*
X276500D02*
D03*
X266500D02*
D03*
X256500D02*
D03*
X246500D02*
D03*
D25*
X191500Y195500D02*
D03*
X221500Y25500D02*
D03*
X116500D02*
D03*
Y205500D02*
D03*
X306500Y16500D02*
D03*
D26*
X422500Y189000D02*
D03*
D27*
Y159000D02*
D03*
X402500D02*
D03*
Y189000D02*
D03*
D28*
X306500Y155000D02*
D03*
Y44000D02*
D03*
D29*
X333500Y158000D02*
D03*
Y188000D02*
D03*
X355500Y188500D02*
D03*
Y158500D02*
D03*
X377047Y188500D02*
D03*
Y158500D02*
D03*
X253500Y201000D02*
D03*
X273500D02*
D03*
D30*
X424291Y27886D02*
D03*
X416417D02*
D03*
X408543D02*
D03*
X400669D02*
D03*
X392795D02*
D03*
X384921D02*
D03*
X377047D02*
D03*
X369173D02*
D03*
X361299D02*
D03*
X353425D02*
D03*
Y114500D02*
D03*
X361299D02*
D03*
X369173D02*
D03*
X377047D02*
D03*
X384921D02*
D03*
X392795D02*
D03*
X400669D02*
D03*
X408543D02*
D03*
X416417D02*
D03*
D31*
X424291D02*
D03*
D32*
X286000Y54000D02*
D03*
X315500Y141500D02*
D03*
X310500Y136500D02*
D03*
X291000Y144000D02*
D03*
X289000Y91500D02*
D03*
X167500Y12297D02*
D03*
X256500Y45658D02*
D03*
X249000Y39000D02*
D03*
X257547Y39094D02*
D03*
X273953Y53000D02*
D03*
X259500Y33203D02*
D03*
X258000Y26000D02*
D03*
X320000Y79000D02*
D03*
X58000Y155000D02*
D03*
X80000Y75563D02*
D03*
X92000Y73500D02*
D03*
X57500Y75563D02*
D03*
X61437Y69000D02*
D03*
X6000Y95000D02*
D03*
X85000Y69000D02*
D03*
X78000Y157500D02*
D03*
X18668Y106610D02*
D03*
X94923Y118421D02*
D03*
X69311Y77641D02*
D03*
X93500Y99009D02*
D03*
X246500Y151453D02*
D03*
X280000Y192000D02*
D03*
X331299Y118500D02*
D03*
X324500Y118000D02*
D03*
X318250Y117750D02*
D03*
X320406Y39000D02*
D03*
X321371Y54077D02*
D03*
X266000Y69000D02*
D03*
X265000Y57000D02*
D03*
D33*
X211500Y41842D02*
D03*
X271677Y83677D02*
D03*
X243394Y82394D02*
D03*
X241500Y127669D02*
D03*
X243500Y141500D02*
D03*
X242000Y121500D02*
D03*
X259658Y125500D02*
D03*
X262500Y134500D02*
D03*
X261280Y147000D02*
D03*
X263500Y150000D02*
D03*
X250000Y92250D02*
D03*
X256410Y76488D02*
D03*
X252500Y73500D02*
D03*
X243000Y64705D02*
D03*
X193500Y50996D02*
D03*
X189000Y46000D02*
D03*
X200902Y164138D02*
D03*
X189500Y166079D02*
D03*
X195000Y163500D02*
D03*
X181500Y166000D02*
D03*
X178050Y167500D02*
D03*
X190500Y185000D02*
D03*
X178050D02*
D03*
X171500Y168500D02*
D03*
X169000Y164500D02*
D03*
X125000Y104000D02*
D03*
X124500Y109563D02*
D03*
X127250Y129638D02*
D03*
X126500Y152500D02*
D03*
X125000Y142000D02*
D03*
X141000Y164563D02*
D03*
X120513Y80500D02*
D03*
X118500Y84500D02*
D03*
X121500Y88500D02*
D03*
X127000Y91750D02*
D03*
X112000Y86500D02*
D03*
X122453Y61500D02*
D03*
X109000Y152000D02*
D03*
X94500Y135000D02*
D03*
X95000Y140500D02*
D03*
X109000Y119703D02*
D03*
X94500Y111500D02*
D03*
X105453Y103453D02*
D03*
X134500Y205500D02*
D03*
X220499Y51500D02*
D03*
X185500Y25500D02*
D03*
X241500Y71000D02*
D03*
X207000Y172500D02*
D03*
X160500Y167000D02*
D03*
X240500Y124250D02*
D03*
X125750Y114750D02*
D03*
X178000Y30000D02*
D03*
X205000Y50500D02*
D03*
X257500Y108000D02*
D03*
X220272Y166500D02*
D03*
X218649Y170982D02*
D03*
X116500Y46000D02*
D03*
X95500Y144500D02*
D03*
X205500Y163500D02*
D03*
X261500Y131217D02*
D03*
X263500Y141500D02*
D03*
X263000Y138000D02*
D03*
X128500Y169000D02*
D03*
X173000Y196500D02*
D03*
X117132Y169132D02*
D03*
X110000Y165516D02*
D03*
X103500Y163000D02*
D03*
X99000Y165000D02*
D03*
X274500Y148000D02*
D03*
X199000Y50500D02*
D03*
X238999Y20466D02*
D03*
X212500Y36500D02*
D03*
X205500Y46500D02*
D03*
X222500Y45000D02*
D03*
X212189Y49250D02*
D03*
X217500Y48000D02*
D03*
X262500Y107500D02*
D03*
X251652Y119000D02*
D03*
X253000Y115328D02*
D03*
X60866Y173500D02*
D03*
X228500Y7500D02*
D03*
X235000Y13000D02*
D03*
X231000Y17000D02*
D03*
X230500Y47953D02*
D03*
X263500Y127000D02*
D03*
X238000Y45500D02*
D03*
M02*
