G04 Layer_Color=8388736*
%FSLAX25Y25*%
%MOIN*%
G70*
G01*
G75*
%ADD20R,0.00984X0.02362*%
%ADD21R,0.02362X0.00984*%
%ADD22R,0.11024X0.11024*%
%ADD30C,0.04000*%
%ADD32C,0.03000*%
%ADD42O,0.07290X0.01581*%
%ADD43O,0.01581X0.07290*%
%ADD44R,0.06512X0.05331*%
%ADD45R,0.05331X0.06512*%
%ADD46R,0.87014X0.87014*%
%ADD47O,0.01581X0.06109*%
%ADD48O,0.06109X0.01581*%
%ADD49R,0.11236X0.05331*%
%ADD50R,0.05331X0.11236*%
%ADD51R,0.05724X0.06512*%
%ADD52C,0.06906*%
%ADD53R,0.06906X0.06906*%
%ADD54R,0.07000X0.11000*%
%ADD55O,0.07000X0.11000*%
%ADD56R,0.06906X0.06906*%
%ADD57C,0.05724*%
%ADD58C,0.05000*%
G04:AMPARAMS|DCode=59|XSize=50mil|YSize=50mil|CornerRadius=15mil|HoleSize=0mil|Usage=FLASHONLY|Rotation=270.000|XOffset=0mil|YOffset=0mil|HoleType=Round|Shape=RoundedRectangle|*
%AMROUNDEDRECTD59*
21,1,0.05000,0.02000,0,0,270.0*
21,1,0.02000,0.05000,0,0,270.0*
1,1,0.03000,-0.01000,-0.01000*
1,1,0.03000,-0.01000,0.01000*
1,1,0.03000,0.01000,0.01000*
1,1,0.03000,0.01000,-0.01000*
%
%ADD59ROUNDEDRECTD59*%
D20*
X269579Y127520D02*
D03*
X271547D02*
D03*
X273516D02*
D03*
X275484D02*
D03*
X277453D02*
D03*
X279421D02*
D03*
Y142480D02*
D03*
X277453D02*
D03*
X275484D02*
D03*
X273516D02*
D03*
X271547D02*
D03*
X269579D02*
D03*
D21*
X281980Y130079D02*
D03*
Y132047D02*
D03*
Y134016D02*
D03*
Y135984D02*
D03*
Y137953D02*
D03*
Y139921D02*
D03*
X267020D02*
D03*
Y137953D02*
D03*
Y135984D02*
D03*
Y134016D02*
D03*
Y132047D02*
D03*
X267000Y130000D02*
D03*
D22*
X274500Y135000D02*
D03*
D30*
X286000Y54000D02*
D03*
X315500Y141500D02*
D03*
X310500Y136500D02*
D03*
X291000Y144000D02*
D03*
X289000Y91500D02*
D03*
X167500Y12297D02*
D03*
X256500Y45658D02*
D03*
X249000Y39000D02*
D03*
X257547Y39094D02*
D03*
X273953Y53000D02*
D03*
X259500Y33203D02*
D03*
X258000Y26000D02*
D03*
X320000Y79000D02*
D03*
X58000Y155000D02*
D03*
X80000Y75563D02*
D03*
X92000Y73500D02*
D03*
X57500Y75563D02*
D03*
X61437Y69000D02*
D03*
X6000Y95000D02*
D03*
X85000Y69000D02*
D03*
X78000Y157500D02*
D03*
X18668Y106610D02*
D03*
X94923Y118421D02*
D03*
X69311Y77641D02*
D03*
X93500Y99009D02*
D03*
X246500Y151453D02*
D03*
X280000Y192000D02*
D03*
X331299Y118500D02*
D03*
X324500Y118000D02*
D03*
X318250Y117750D02*
D03*
X320406Y39000D02*
D03*
X321371Y54077D02*
D03*
X266000Y69000D02*
D03*
X265000Y57000D02*
D03*
D32*
X211500Y41842D02*
D03*
X271677Y83677D02*
D03*
X243394Y82394D02*
D03*
X241500Y127669D02*
D03*
X243500Y141500D02*
D03*
X242000Y121500D02*
D03*
X259658Y125500D02*
D03*
X262500Y134500D02*
D03*
X261280Y147000D02*
D03*
X263500Y150000D02*
D03*
X250000Y92250D02*
D03*
X256410Y76488D02*
D03*
X252500Y73500D02*
D03*
X243000Y64705D02*
D03*
X193500Y50996D02*
D03*
X189000Y46000D02*
D03*
X200902Y164138D02*
D03*
X189500Y166079D02*
D03*
X195000Y163500D02*
D03*
X181500Y166000D02*
D03*
X178050Y167500D02*
D03*
X190500Y185000D02*
D03*
X178050D02*
D03*
X171500Y168500D02*
D03*
X169000Y164500D02*
D03*
X125000Y104000D02*
D03*
X124500Y109563D02*
D03*
X127250Y129638D02*
D03*
X126500Y152500D02*
D03*
X125000Y142000D02*
D03*
X141000Y164563D02*
D03*
X120513Y80500D02*
D03*
X118500Y84500D02*
D03*
X121500Y88500D02*
D03*
X127000Y91750D02*
D03*
X112000Y86500D02*
D03*
X122453Y61500D02*
D03*
X109000Y152000D02*
D03*
X94500Y135000D02*
D03*
X95000Y140500D02*
D03*
X109000Y119703D02*
D03*
X94500Y111500D02*
D03*
X105453Y103453D02*
D03*
X134500Y205500D02*
D03*
X220499Y51500D02*
D03*
X185500Y25500D02*
D03*
X241500Y71000D02*
D03*
X207000Y172500D02*
D03*
X160500Y167000D02*
D03*
X240500Y124250D02*
D03*
X125750Y114750D02*
D03*
X178000Y30000D02*
D03*
X205000Y50500D02*
D03*
X257500Y108000D02*
D03*
X220272Y166500D02*
D03*
X218649Y170982D02*
D03*
X116500Y46000D02*
D03*
X95500Y144500D02*
D03*
X205500Y163500D02*
D03*
X261500Y131217D02*
D03*
X263500Y141500D02*
D03*
X263000Y138000D02*
D03*
X128500Y169000D02*
D03*
X173000Y196500D02*
D03*
X117132Y169132D02*
D03*
X110000Y165516D02*
D03*
X103500Y163000D02*
D03*
X99000Y165000D02*
D03*
X274500Y148000D02*
D03*
X199000Y50500D02*
D03*
X238999Y20466D02*
D03*
X212500Y36500D02*
D03*
X205500Y46500D02*
D03*
X222500Y45000D02*
D03*
X212189Y49250D02*
D03*
X217500Y48000D02*
D03*
X262500Y107500D02*
D03*
X251652Y119000D02*
D03*
X253000Y115328D02*
D03*
X60866Y173500D02*
D03*
X228500Y7500D02*
D03*
X235000Y13000D02*
D03*
X231000Y17000D02*
D03*
X230500Y47953D02*
D03*
X263500Y127000D02*
D03*
X238000Y45500D02*
D03*
D42*
X87323Y137122D02*
D03*
Y135153D02*
D03*
Y133185D02*
D03*
Y131217D02*
D03*
Y129248D02*
D03*
Y127279D02*
D03*
Y125311D02*
D03*
Y123343D02*
D03*
Y121374D02*
D03*
Y119405D02*
D03*
Y117437D02*
D03*
Y115469D02*
D03*
Y113500D02*
D03*
Y111531D02*
D03*
Y109563D02*
D03*
Y107595D02*
D03*
Y105626D02*
D03*
Y103657D02*
D03*
Y101689D02*
D03*
Y99721D02*
D03*
Y97752D02*
D03*
Y95784D02*
D03*
Y93815D02*
D03*
Y91847D02*
D03*
Y89878D02*
D03*
X27677D02*
D03*
Y91847D02*
D03*
Y93815D02*
D03*
Y95784D02*
D03*
Y97752D02*
D03*
Y99721D02*
D03*
Y101689D02*
D03*
Y103657D02*
D03*
Y105626D02*
D03*
Y107595D02*
D03*
Y109563D02*
D03*
Y111531D02*
D03*
Y113500D02*
D03*
Y115469D02*
D03*
Y117437D02*
D03*
Y119405D02*
D03*
Y121374D02*
D03*
Y123343D02*
D03*
Y125311D02*
D03*
Y127279D02*
D03*
Y129248D02*
D03*
Y131217D02*
D03*
Y133185D02*
D03*
Y135153D02*
D03*
Y137122D02*
D03*
D43*
X81122Y83677D02*
D03*
X79154D02*
D03*
X77185D02*
D03*
X75217D02*
D03*
X73248D02*
D03*
X71280D02*
D03*
X69311D02*
D03*
X67343D02*
D03*
X65374D02*
D03*
X63406D02*
D03*
X61437D02*
D03*
X59469D02*
D03*
X57500D02*
D03*
X55532D02*
D03*
X53563D02*
D03*
X51595D02*
D03*
X49626D02*
D03*
X47657D02*
D03*
X45689D02*
D03*
X43720D02*
D03*
X41752D02*
D03*
X39783D02*
D03*
X37815D02*
D03*
X35846D02*
D03*
X33878D02*
D03*
Y143323D02*
D03*
X35846D02*
D03*
X37815D02*
D03*
X39783D02*
D03*
X41752D02*
D03*
X43720D02*
D03*
X45689D02*
D03*
X47657D02*
D03*
X49626D02*
D03*
X51595D02*
D03*
X53563D02*
D03*
X55532D02*
D03*
X57500D02*
D03*
X59469D02*
D03*
X61437D02*
D03*
X63406D02*
D03*
X65374D02*
D03*
X67343D02*
D03*
X69311D02*
D03*
X71280D02*
D03*
X73248D02*
D03*
X75217D02*
D03*
X77185D02*
D03*
X79154D02*
D03*
X81122D02*
D03*
D44*
X245500Y102453D02*
D03*
Y96547D02*
D03*
X199500Y170547D02*
D03*
Y176453D02*
D03*
X15000Y95189D02*
D03*
Y89284D02*
D03*
X178000Y172547D02*
D03*
Y178453D02*
D03*
X190500Y172547D02*
D03*
Y178453D02*
D03*
X246500Y135953D02*
D03*
Y130047D02*
D03*
X254000Y136138D02*
D03*
Y130232D02*
D03*
X245500Y116953D02*
D03*
Y111047D02*
D03*
X255000Y102453D02*
D03*
Y96547D02*
D03*
X254500Y86815D02*
D03*
Y80910D02*
D03*
X264205Y86953D02*
D03*
Y81047D02*
D03*
X248500Y63953D02*
D03*
Y58047D02*
D03*
X258500Y63953D02*
D03*
Y58047D02*
D03*
D45*
X232547Y40500D02*
D03*
X238453D02*
D03*
X121453Y97000D02*
D03*
X115547D02*
D03*
X119500Y106000D02*
D03*
X113594D02*
D03*
X121453Y124000D02*
D03*
X115547D02*
D03*
X121453Y133000D02*
D03*
X115547D02*
D03*
X120085Y142000D02*
D03*
X114179D02*
D03*
X230547Y167000D02*
D03*
X236453D02*
D03*
X40453Y156500D02*
D03*
X34547D02*
D03*
X34547Y170000D02*
D03*
X40453D02*
D03*
X115547Y151000D02*
D03*
X121453D02*
D03*
X154453Y167000D02*
D03*
X148547D02*
D03*
X122453Y55000D02*
D03*
X116547D02*
D03*
X122453Y68500D02*
D03*
X116547D02*
D03*
X139453Y46000D02*
D03*
X133547D02*
D03*
X155953D02*
D03*
X150047D02*
D03*
X171953D02*
D03*
X166047D02*
D03*
X119453Y115000D02*
D03*
X113547D02*
D03*
X218547Y39783D02*
D03*
X224453D02*
D03*
X198547Y41500D02*
D03*
X204453D02*
D03*
D46*
X185000Y107000D02*
D03*
D47*
X227323Y157098D02*
D03*
X225354D02*
D03*
X223386D02*
D03*
X221417D02*
D03*
X219449D02*
D03*
X217480D02*
D03*
X215512D02*
D03*
X213543D02*
D03*
X211575D02*
D03*
X209606D02*
D03*
X207638D02*
D03*
X205669D02*
D03*
X203701D02*
D03*
X201732D02*
D03*
X199764D02*
D03*
X197795D02*
D03*
X195827D02*
D03*
X193858D02*
D03*
X191890D02*
D03*
X189921D02*
D03*
X187953D02*
D03*
X185984D02*
D03*
X184016D02*
D03*
X182047D02*
D03*
X180079D02*
D03*
X178110D02*
D03*
X176142D02*
D03*
X174173D02*
D03*
X172205D02*
D03*
X170236D02*
D03*
X168268D02*
D03*
X166299D02*
D03*
X164331D02*
D03*
X162362D02*
D03*
X160394D02*
D03*
X158425D02*
D03*
X156457D02*
D03*
X154488D02*
D03*
X152520D02*
D03*
X150551D02*
D03*
X148583D02*
D03*
X146614D02*
D03*
X144646D02*
D03*
X142677D02*
D03*
Y56902D02*
D03*
X144646D02*
D03*
X146614D02*
D03*
X148583D02*
D03*
X150551D02*
D03*
X152520D02*
D03*
X154488D02*
D03*
X156457D02*
D03*
X158425D02*
D03*
X160394D02*
D03*
X162362D02*
D03*
X164331D02*
D03*
X166299D02*
D03*
X168268D02*
D03*
X170236D02*
D03*
X172205D02*
D03*
X174173D02*
D03*
X176142D02*
D03*
X178110D02*
D03*
X180079D02*
D03*
X182047D02*
D03*
X184016D02*
D03*
X185984D02*
D03*
X187953D02*
D03*
X189921D02*
D03*
X191890D02*
D03*
X193858D02*
D03*
X195827D02*
D03*
X197795D02*
D03*
X199764D02*
D03*
X201732D02*
D03*
X203701D02*
D03*
X205669D02*
D03*
X207638D02*
D03*
X209606D02*
D03*
X211575D02*
D03*
X213543D02*
D03*
X215512D02*
D03*
X217480D02*
D03*
X219449D02*
D03*
X221417D02*
D03*
X223386D02*
D03*
X225354D02*
D03*
X227323D02*
D03*
D48*
X134902Y149323D02*
D03*
Y147354D02*
D03*
Y145386D02*
D03*
Y143417D02*
D03*
Y141449D02*
D03*
Y139480D02*
D03*
Y137512D02*
D03*
Y135543D02*
D03*
Y133575D02*
D03*
Y131606D02*
D03*
Y129638D02*
D03*
Y127669D02*
D03*
Y125701D02*
D03*
Y123732D02*
D03*
Y121764D02*
D03*
Y119795D02*
D03*
Y117827D02*
D03*
Y115858D02*
D03*
Y113890D02*
D03*
Y111921D02*
D03*
Y109953D02*
D03*
Y107984D02*
D03*
Y106016D02*
D03*
Y104047D02*
D03*
Y102079D02*
D03*
Y100110D02*
D03*
Y98142D02*
D03*
Y96173D02*
D03*
Y94205D02*
D03*
Y92236D02*
D03*
Y90268D02*
D03*
Y88299D02*
D03*
Y86331D02*
D03*
Y84362D02*
D03*
Y82394D02*
D03*
Y80425D02*
D03*
Y78457D02*
D03*
Y76488D02*
D03*
Y74520D02*
D03*
Y72551D02*
D03*
Y70583D02*
D03*
Y68614D02*
D03*
Y66646D02*
D03*
Y64677D02*
D03*
X235098D02*
D03*
Y66646D02*
D03*
Y68614D02*
D03*
Y70583D02*
D03*
Y72551D02*
D03*
Y74520D02*
D03*
Y76488D02*
D03*
Y78457D02*
D03*
Y80425D02*
D03*
Y82394D02*
D03*
Y84362D02*
D03*
Y86331D02*
D03*
Y88299D02*
D03*
Y90268D02*
D03*
Y92236D02*
D03*
Y94205D02*
D03*
Y96173D02*
D03*
Y98142D02*
D03*
Y100110D02*
D03*
Y102079D02*
D03*
Y104047D02*
D03*
Y106016D02*
D03*
Y107984D02*
D03*
Y109953D02*
D03*
Y111921D02*
D03*
Y113890D02*
D03*
Y115858D02*
D03*
Y117827D02*
D03*
Y119795D02*
D03*
Y121764D02*
D03*
Y123732D02*
D03*
Y125701D02*
D03*
Y127669D02*
D03*
Y129638D02*
D03*
Y131606D02*
D03*
Y133575D02*
D03*
Y135543D02*
D03*
Y137512D02*
D03*
Y139480D02*
D03*
Y141449D02*
D03*
Y143417D02*
D03*
Y145386D02*
D03*
Y147354D02*
D03*
Y149323D02*
D03*
D49*
X13000Y123685D02*
D03*
Y134315D02*
D03*
D50*
X417815Y135543D02*
D03*
X407185D02*
D03*
D51*
X63543Y165000D02*
D03*
X56457D02*
D03*
D52*
X221500Y205500D02*
D03*
Y195500D02*
D03*
X211500Y205500D02*
D03*
Y195500D02*
D03*
X201500Y205500D02*
D03*
Y195500D02*
D03*
X191500Y205500D02*
D03*
Y15500D02*
D03*
Y25500D02*
D03*
X201500Y15500D02*
D03*
Y25500D02*
D03*
X211500Y15500D02*
D03*
Y25500D02*
D03*
X221500Y15500D02*
D03*
X296500Y195000D02*
D03*
Y185000D02*
D03*
Y175000D02*
D03*
Y165000D02*
D03*
Y155000D02*
D03*
X306500Y195000D02*
D03*
Y185000D02*
D03*
Y175000D02*
D03*
Y165000D02*
D03*
X296500Y114000D02*
D03*
Y104000D02*
D03*
Y94000D02*
D03*
Y84000D02*
D03*
Y74000D02*
D03*
Y64000D02*
D03*
Y54000D02*
D03*
Y44000D02*
D03*
X306500Y114000D02*
D03*
Y104000D02*
D03*
Y94000D02*
D03*
Y84000D02*
D03*
Y74000D02*
D03*
Y64000D02*
D03*
Y54000D02*
D03*
X106500Y25500D02*
D03*
X96500D02*
D03*
X86500D02*
D03*
X76500D02*
D03*
X66500D02*
D03*
X56500D02*
D03*
X46500D02*
D03*
X36500D02*
D03*
X26500D02*
D03*
X116500Y15500D02*
D03*
X106500D02*
D03*
X96500D02*
D03*
X86500D02*
D03*
X76500D02*
D03*
X66500D02*
D03*
X56500D02*
D03*
X46500D02*
D03*
X36500D02*
D03*
X26500D02*
D03*
X106500Y205500D02*
D03*
X96500D02*
D03*
X86500D02*
D03*
X76500D02*
D03*
X66500D02*
D03*
X56500D02*
D03*
X46500D02*
D03*
X36500D02*
D03*
X26500D02*
D03*
X116500Y195500D02*
D03*
X106500D02*
D03*
X96500D02*
D03*
X86500D02*
D03*
X76500D02*
D03*
X66500D02*
D03*
X56500D02*
D03*
X46500D02*
D03*
X36500D02*
D03*
X26500D02*
D03*
X286500Y16500D02*
D03*
X296500D02*
D03*
X276500D02*
D03*
X266500D02*
D03*
X256500D02*
D03*
X246500D02*
D03*
D53*
X191500Y195500D02*
D03*
X221500Y25500D02*
D03*
X116500D02*
D03*
Y205500D02*
D03*
X306500Y16500D02*
D03*
D54*
X422500Y189000D02*
D03*
D55*
Y159000D02*
D03*
X402500D02*
D03*
Y189000D02*
D03*
D56*
X306500Y155000D02*
D03*
Y44000D02*
D03*
D57*
X333500Y158000D02*
D03*
Y188000D02*
D03*
X355500Y188500D02*
D03*
Y158500D02*
D03*
X377047Y188500D02*
D03*
Y158500D02*
D03*
X253500Y201000D02*
D03*
X273500D02*
D03*
D58*
X424291Y27886D02*
D03*
X416417D02*
D03*
X408543D02*
D03*
X400669D02*
D03*
X392795D02*
D03*
X384921D02*
D03*
X377047D02*
D03*
X369173D02*
D03*
X361299D02*
D03*
X353425D02*
D03*
Y114500D02*
D03*
X361299D02*
D03*
X369173D02*
D03*
X377047D02*
D03*
X384921D02*
D03*
X392795D02*
D03*
X400669D02*
D03*
X408543D02*
D03*
X416417D02*
D03*
D59*
X424291D02*
D03*
M02*
