M48
;Layer_Color=9474304
;FILE_FORMAT=2:5
INCH,LZ
;TYPE=PLATED
T1F00S00C0.01200
T2F00S00C0.01500
T3F00S00C0.02500
T4F00S00C0.02756
T5F00S00C0.02800
T6F00S00C0.03000
T7F00S00C0.03150
T8F00S00C0.03543
%
T01
X0203Y00375
X0208547Y00335
X0221079Y0043
X0217142Y005172
X0230921Y005
X0236
X0241Y00505
X0237Y00335
X0234Y0025
X0253Y00345
X02565Y00435
X02595Y0047909
X0263Y00505
X02675Y00435
X02765Y00495
X02825Y00465
X02815Y0053953
X0289Y0048957
X0289437Y0044437
X0295779Y0041721
X0296Y0047
X03Y0053953
X0298Y00345
X02985Y00295
X02995Y00255
X02935Y0029
X02945Y0016
X0276Y0023
X02715Y0032
X0318362Y0031138
X03415Y0047
X0358Y00555
X038Y00165
X0385Y00215
X0371Y0074551
X0377Y00965
X0408Y011589
X0421543Y0115
X0438Y0151815
X0392Y0171
X0310315Y0161
X0305764Y014837
X0301459Y0144828
X030145Y0152
X0304865Y0139809
X030495Y01355
X030445Y0132
X030345Y0128717
X030445Y01245
X0291Y0122
X0295Y0116527
X02995Y0113
X0294973Y0108291
X02895Y0112
X0285Y0113
X02855Y0117858
X0286Y01045
X02885Y0088047
X0294Y00845
X0293Y0073
X02875Y00765
X0297Y00575
X033945Y0091
X0364
Y01
X0358Y0074551
X03665Y0068
X031645Y01455
X0294Y0143
X02825Y0146
X0283Y0135197
X02845Y01645
X0283453Y01705
X02765Y0174
X0271Y017022
X0268Y0166047
X0266Y01745
X0264815Y0179
X02685Y0183
X0267547Y01885
X028845Y019
X0297Y01895
X03145Y02055
X026Y01695
X0253Y01705
X0248638Y0167
X0242
X0244Y0173
X0239Y01725
X02305Y01715
X0228Y01755
X02265Y01685
X0221079Y0171079
X021911Y01675
X0212Y01655
X021228Y017022
X0196Y0173735
X02005Y01795
X0175902Y0177
X01775Y0171
X0168Y01645
X01785Y01865
X0138Y01895
X0126Y0183
X01215Y0179
X0117Y0173
X0114Y0182
X0105Y0165
X0098Y017
X00975Y01365
X009461Y013276
X0106Y01275
X0112Y01205
X0099Y0111315
X00965Y01035
X01065Y00935
X01075Y0087
X0087451Y0084324
X01425Y00815
X0147Y0082
X0149669Y0088
X01585Y0087072
X0159Y00915
X0162075Y00825
X01695Y0076
X0140572Y00735
X01545Y01005
X0151Y0106126
X0158Y01065
X01575Y0123
X0156547Y0127279
X01535Y0144
X0077815Y0151815
X00675Y0153
X0059Y0156819
X0047Y016321
X0017461Y0109075
X0025254Y00835
X0054Y0067
X0058Y02125
X01375Y02155
X0239Y0213247
X0395Y0214
T02
X033295Y01415
X035245Y0134
X035745Y0139
X032195Y01895
X00635Y0176
X0078475Y0075525
X0018Y0116527
T03
X04345Y0037425
Y0045299
Y0053173
X0521114
Y0045299
Y0037425
Y0061047
Y0068921
Y0076795
Y0084669
Y0092543
Y0100417
Y0108291
X04345
Y0100417
Y0092543
Y0084669
Y0076795
Y0068921
Y0061047
T04
X037545Y01555
X039745Y0156
X0418997
Y0186
X039745
X037545Y01855
T05
X02265Y00775
X02415
X0257Y0078
X02565Y00935
Y01085
X02415
Y00935
X02265
Y01085
Y0124
Y0139
X02415
X02565
Y0124
X02415
X02115Y01235
Y01085
Y00935
X0196
Y01085
Y01235
Y0139
X02115
Y00775
X0196
T06
X0368Y0016
Y0036
X0398
Y0016
T07
X0242969Y0038
X0262181
T08
X-0007Y0008
X00175Y00205
X00275
X00375
X00475
Y00305
X00375
X00275
X00175
X00575
Y00205
X00675
X00775
X00875
X00975
X01075
Y00305
X00975
X00875
X00775
X00675
X01695Y0028
X01795
X0179Y0012
X0169
X0189
X0199
X0209
X0219
X0229
X03875Y0061
X03975
Y0071
Y0081
Y0091
Y0101
Y0111
Y0121
Y0131
X03875
Y0121
Y0111
Y0101
Y0091
Y0081
Y0071
X0331Y00685
Y00785
Y00885
X0301
Y00785
Y00685
X033845Y01525
X034845
Y01625
Y01725
Y01825
Y01925
X033845
Y01825
Y01725
Y01625
X02985Y01995
X02885
X02785
X02685
X02585
Y02095
X02685
X02785
X02885
X02985
X02305Y021
Y02
X02205
Y021
X02105
Y02
X02005
X01905
Y021
X02005
X0169Y02095
Y01995
X01075Y02005
Y01905
X00975
X00875
X00775
X00675
X00575
Y02005
X00675
X00775
X00875
X00975
X00475
Y01905
X00375
X00275
X00175
Y02005
X00275
X00375
X-0008Y0225
X05225Y02245
M30
