G04 Layer_Color=16711935*
%FSLAX25Y25*%
%MOIN*%
G70*
G01*
G75*
%ADD36C,0.04000*%
%ADD39C,0.05000*%
%ADD49R,0.05331X0.06512*%
%ADD50R,0.06512X0.05331*%
%ADD58R,0.06906X0.06906*%
%ADD59C,0.06906*%
%ADD60C,0.05724*%
%ADD61R,0.06906X0.06906*%
%ADD62C,0.06512*%
%ADD63P,0.07048X8X22.5*%
%ADD64O,0.11000X0.07000*%
%ADD65R,0.11000X0.07000*%
G04:AMPARAMS|DCode=66|XSize=50mil|YSize=50mil|CornerRadius=15mil|HoleSize=0mil|Usage=FLASHONLY|Rotation=0.000|XOffset=0mil|YOffset=0mil|HoleType=Round|Shape=RoundedRectangle|*
%AMROUNDEDRECTD66*
21,1,0.05000,0.02000,0,0,0.0*
21,1,0.02000,0.05000,0,0,0.0*
1,1,0.03000,0.01000,-0.01000*
1,1,0.03000,-0.01000,-0.01000*
1,1,0.03000,-0.01000,0.01000*
1,1,0.03000,0.01000,0.01000*
%
%ADD66ROUNDEDRECTD66*%
%ADD67C,0.03400*%
%ADD68C,0.06000*%
D36*
X321950Y189500D02*
D03*
X332950Y141500D02*
D03*
X352450Y134000D02*
D03*
X357450Y139000D02*
D03*
X63500Y176000D02*
D03*
X78475Y75525D02*
D03*
X18000Y116527D02*
D03*
D39*
X434500Y100417D02*
D03*
Y92543D02*
D03*
Y84669D02*
D03*
Y76795D02*
D03*
Y68921D02*
D03*
Y61047D02*
D03*
Y53173D02*
D03*
Y45299D02*
D03*
Y37425D02*
D03*
X521114D02*
D03*
Y45299D02*
D03*
Y53173D02*
D03*
Y61047D02*
D03*
Y68921D02*
D03*
Y76795D02*
D03*
Y84669D02*
D03*
Y92543D02*
D03*
Y100417D02*
D03*
Y108291D02*
D03*
D49*
X85547Y111315D02*
D03*
X91453D02*
D03*
X267547Y135575D02*
D03*
X273453D02*
D03*
X266547Y117858D02*
D03*
X272453D02*
D03*
X266547Y108500D02*
D03*
X272453D02*
D03*
X266547Y99000D02*
D03*
X272453D02*
D03*
X266547Y90000D02*
D03*
X272453D02*
D03*
X266547Y80500D02*
D03*
X272453D02*
D03*
X168465Y112000D02*
D03*
X162559D02*
D03*
D50*
X77500Y93953D02*
D03*
Y88047D02*
D03*
X53435Y130232D02*
D03*
Y136138D02*
D03*
X252500Y63953D02*
D03*
Y58047D02*
D03*
X263000Y63953D02*
D03*
Y58047D02*
D03*
X220500Y63953D02*
D03*
Y58047D02*
D03*
X238500Y147047D02*
D03*
Y152953D02*
D03*
X248500Y147047D02*
D03*
Y152953D02*
D03*
X230000Y39453D02*
D03*
Y33547D02*
D03*
Y63953D02*
D03*
Y58047D02*
D03*
X241000Y63953D02*
D03*
Y58047D02*
D03*
X219110Y147047D02*
D03*
Y152953D02*
D03*
X229000Y147047D02*
D03*
Y152953D02*
D03*
X253000Y29453D02*
D03*
Y23547D02*
D03*
D58*
X-8000Y225000D02*
D03*
X-7000Y8000D02*
D03*
X522500Y224500D02*
D03*
X258500Y199500D02*
D03*
X229000Y12000D02*
D03*
X107500Y200500D02*
D03*
Y30500D02*
D03*
X301000Y88500D02*
D03*
X190500Y200000D02*
D03*
X179500Y28000D02*
D03*
D59*
X268500Y199500D02*
D03*
X278500D02*
D03*
X288500D02*
D03*
X298500D02*
D03*
X258500Y209500D02*
D03*
X268500D02*
D03*
X278500D02*
D03*
X288500D02*
D03*
X298500D02*
D03*
X169000Y12000D02*
D03*
X179000D02*
D03*
X189000D02*
D03*
X199000D02*
D03*
X219000D02*
D03*
X209000D02*
D03*
X17500Y190500D02*
D03*
X27500D02*
D03*
X37500D02*
D03*
X47500D02*
D03*
X57500D02*
D03*
X67500D02*
D03*
X77500D02*
D03*
X87500D02*
D03*
X97500D02*
D03*
X107500D02*
D03*
X17500Y200500D02*
D03*
X27500D02*
D03*
X37500D02*
D03*
X47500D02*
D03*
X57500D02*
D03*
X67500D02*
D03*
X77500D02*
D03*
X87500D02*
D03*
X97500D02*
D03*
X17500Y20500D02*
D03*
X27500D02*
D03*
X37500D02*
D03*
X47500D02*
D03*
X57500D02*
D03*
X67500D02*
D03*
X77500D02*
D03*
X87500D02*
D03*
X97500D02*
D03*
X107500D02*
D03*
X17500Y30500D02*
D03*
X27500D02*
D03*
X37500D02*
D03*
X47500D02*
D03*
X57500D02*
D03*
X67500D02*
D03*
X77500D02*
D03*
X87500D02*
D03*
X97500D02*
D03*
X348450Y162500D02*
D03*
Y172500D02*
D03*
Y182500D02*
D03*
Y192500D02*
D03*
X338450Y152500D02*
D03*
Y162500D02*
D03*
Y172500D02*
D03*
Y182500D02*
D03*
Y192500D02*
D03*
X301000Y78500D02*
D03*
Y68500D02*
D03*
X331000Y88500D02*
D03*
Y78500D02*
D03*
Y68500D02*
D03*
X397500Y71000D02*
D03*
Y81000D02*
D03*
Y91000D02*
D03*
Y101000D02*
D03*
Y111000D02*
D03*
Y121000D02*
D03*
Y131000D02*
D03*
X387500Y61000D02*
D03*
Y71000D02*
D03*
Y81000D02*
D03*
Y91000D02*
D03*
Y101000D02*
D03*
Y111000D02*
D03*
Y121000D02*
D03*
Y131000D02*
D03*
X200500Y200000D02*
D03*
X210500D02*
D03*
X220500D02*
D03*
X230500D02*
D03*
X190500Y210000D02*
D03*
X200500D02*
D03*
X210500D02*
D03*
X220500D02*
D03*
X230500D02*
D03*
X169000Y199500D02*
D03*
X169500Y28000D02*
D03*
D60*
X418997Y156000D02*
D03*
Y186000D02*
D03*
X397450Y156000D02*
D03*
Y186000D02*
D03*
X375450Y185500D02*
D03*
Y155500D02*
D03*
D61*
X348450Y152500D02*
D03*
X397500Y61000D02*
D03*
X169000Y209500D02*
D03*
D62*
X262181Y38000D02*
D03*
D63*
X242969D02*
D03*
D64*
X368000Y16000D02*
D03*
X398000D02*
D03*
Y36000D02*
D03*
D65*
X368000D02*
D03*
D66*
X434500Y108291D02*
D03*
D67*
X295779Y41721D02*
D03*
X304865Y139809D02*
D03*
X283000Y135197D02*
D03*
X305764Y148370D02*
D03*
X316450Y145500D02*
D03*
X301459Y144828D02*
D03*
X239000Y213247D02*
D03*
X47000Y163210D02*
D03*
X25254Y83500D02*
D03*
X87451Y84324D02*
D03*
X17461Y109075D02*
D03*
X137500Y215500D02*
D03*
X304950Y135500D02*
D03*
X303450Y128717D02*
D03*
X304450Y132000D02*
D03*
X59000Y156819D02*
D03*
X106500Y93500D02*
D03*
X107500Y87000D02*
D03*
X54000Y67000D02*
D03*
X99000Y111315D02*
D03*
X241000Y50500D02*
D03*
X230921Y50000D02*
D03*
X236000D02*
D03*
X221079Y43000D02*
D03*
X259500Y47909D02*
D03*
X263000Y50500D02*
D03*
X276500Y49500D02*
D03*
X94610Y132760D02*
D03*
X112000Y120500D02*
D03*
X289000Y48957D02*
D03*
X97500Y136500D02*
D03*
X96500Y103500D02*
D03*
X77815Y151815D02*
D03*
X126000Y183000D02*
D03*
X138000Y189500D02*
D03*
X67500Y153000D02*
D03*
X106000Y127500D02*
D03*
X105000Y165000D02*
D03*
X117000Y173000D02*
D03*
X121500Y179000D02*
D03*
X98000Y170000D02*
D03*
X114000Y182000D02*
D03*
X58000Y212500D02*
D03*
X226500Y168500D02*
D03*
X230500Y171500D02*
D03*
X288450Y190000D02*
D03*
X248638Y167000D02*
D03*
X175902Y177000D02*
D03*
X168000Y164500D02*
D03*
X158000Y106500D02*
D03*
X157500Y123000D02*
D03*
X285500Y117858D02*
D03*
X285000Y113000D02*
D03*
X286000Y104500D02*
D03*
X287500Y76500D02*
D03*
X142500Y81500D02*
D03*
X169500Y76000D02*
D03*
X154500Y100500D02*
D03*
X341500Y47000D02*
D03*
X364000Y100000D02*
D03*
X237000Y33500D02*
D03*
X203000Y37500D02*
D03*
X310315Y161000D02*
D03*
X301450Y152000D02*
D03*
X151000Y106126D02*
D03*
X147000Y82000D02*
D03*
X162075Y82500D02*
D03*
X159000Y91500D02*
D03*
X219110Y167500D02*
D03*
X212000Y165500D02*
D03*
X149669Y88000D02*
D03*
X140572Y73500D02*
D03*
X208547Y33500D02*
D03*
X212280Y170220D02*
D03*
X221079Y171079D02*
D03*
X228000Y175500D02*
D03*
X242000Y167000D02*
D03*
X268500Y183000D02*
D03*
X267547Y188500D02*
D03*
X297000Y189500D02*
D03*
X153500Y144000D02*
D03*
X196000Y173735D02*
D03*
X438000Y151815D02*
D03*
X177500Y171000D02*
D03*
X178500Y186500D02*
D03*
X200500Y179500D02*
D03*
X395000Y214000D02*
D03*
X282500Y46500D02*
D03*
X294973Y108291D02*
D03*
X371000Y74551D02*
D03*
X158500Y87072D02*
D03*
X156547Y127279D02*
D03*
X299500Y113000D02*
D03*
X282500Y146000D02*
D03*
X289500Y112000D02*
D03*
X408000Y115890D02*
D03*
X291000Y122000D02*
D03*
X295000Y116527D02*
D03*
X377000Y96500D02*
D03*
X294000Y84500D02*
D03*
X421543Y115000D02*
D03*
X268000Y166047D02*
D03*
X314500Y205500D02*
D03*
X392000Y171000D02*
D03*
X239000Y172500D02*
D03*
X244000Y173000D02*
D03*
X294000Y143000D02*
D03*
X283453Y170500D02*
D03*
X253000D02*
D03*
X260000Y169500D02*
D03*
X264815Y179000D02*
D03*
X266000Y174500D02*
D03*
X271000Y170220D02*
D03*
X276500Y174000D02*
D03*
X284500Y164500D02*
D03*
X217142Y51720D02*
D03*
X256500Y43500D02*
D03*
X253000Y34500D02*
D03*
X234000Y25000D02*
D03*
X318362Y31138D02*
D03*
X380000Y16500D02*
D03*
X385000Y21500D02*
D03*
X267500Y43500D02*
D03*
X289437Y44437D02*
D03*
X296000Y47000D02*
D03*
X297000Y57500D02*
D03*
X366500Y68000D02*
D03*
X339450Y91000D02*
D03*
X358000Y55500D02*
D03*
Y74551D02*
D03*
X364000Y91000D02*
D03*
X281500Y53953D02*
D03*
X293500Y29000D02*
D03*
X293000Y73000D02*
D03*
X300000Y53953D02*
D03*
X298000Y34500D02*
D03*
X298500Y29500D02*
D03*
X276000Y23000D02*
D03*
X271500Y32000D02*
D03*
X299500Y25500D02*
D03*
X294500Y16000D02*
D03*
X304450Y124500D02*
D03*
X288500Y88047D02*
D03*
D68*
X256500Y139000D02*
D03*
Y124000D02*
D03*
Y108500D02*
D03*
X241500Y139000D02*
D03*
X226500D02*
D03*
X241500Y124000D02*
D03*
Y108500D02*
D03*
X256500Y93500D02*
D03*
X257000Y78000D02*
D03*
X241500Y77500D02*
D03*
X226500Y124000D02*
D03*
Y93500D02*
D03*
Y77500D02*
D03*
X211500D02*
D03*
Y93500D02*
D03*
Y108500D02*
D03*
Y139000D02*
D03*
X196000D02*
D03*
Y123500D02*
D03*
Y108500D02*
D03*
Y93500D02*
D03*
Y77500D02*
D03*
X241500Y93500D02*
D03*
X226500Y108500D02*
D03*
X211500Y123500D02*
D03*
M02*
