G04 Layer_Color=65535*
%FSLAX25Y25*%
%MOIN*%
G70*
G01*
G75*
%ADD23C,0.01000*%
%ADD34C,0.02362*%
%ADD35C,0.00984*%
%ADD36C,0.00787*%
%ADD37C,0.00500*%
%ADD38C,0.00800*%
%ADD39C,0.00700*%
D23*
X423096Y173646D02*
G03*
X423096Y173646I-10832J0D01*
G01*
X392343Y153173D02*
Y194512D01*
X432343Y153173D02*
Y194512D01*
X392343Y153173D02*
X432343D01*
X392343Y194512D02*
X432343D01*
X424291Y123870D02*
X450000Y93988D01*
X320315Y18516D02*
X424291D01*
X424307D01*
X424291D02*
X450000Y48398D01*
Y93988D01*
X320315Y18516D02*
Y123870D01*
X424291D01*
X341291Y18516D02*
Y123870D01*
X180900Y32900D02*
Y38898D01*
X183899D01*
X184899Y37898D01*
Y35899D01*
X183899Y34899D01*
X180900D01*
X190897Y32900D02*
X186898D01*
X190897Y36899D01*
Y37898D01*
X189897Y38898D01*
X187898D01*
X186898Y37898D01*
X182000Y212000D02*
Y217998D01*
X184999D01*
X185999Y216998D01*
Y214999D01*
X184999Y213999D01*
X182000D01*
X187998Y212000D02*
X189997D01*
X188998D01*
Y217998D01*
X187998Y216998D01*
X292100Y212300D02*
Y218298D01*
X295099D01*
X296099Y217298D01*
Y215299D01*
X295099Y214299D01*
X292100D01*
X301097Y212300D02*
Y218298D01*
X298098Y215299D01*
X302097D01*
X292100Y130800D02*
Y136798D01*
X295099D01*
X296099Y135798D01*
Y133799D01*
X295099Y132799D01*
X292100D01*
X298098Y135798D02*
X299098Y136798D01*
X301097D01*
X302097Y135798D01*
Y134799D01*
X300097Y132799D01*
Y131800D02*
Y130800D01*
X330599Y203898D02*
X329599Y204898D01*
X327600D01*
X326600Y203898D01*
Y199900D01*
X327600Y198900D01*
X329599D01*
X330599Y199900D01*
X332598Y198900D02*
X334597D01*
X333598D01*
Y204898D01*
X332598Y203898D01*
X267000Y151453D02*
Y155451D01*
X268999Y157451D01*
X270999Y155451D01*
Y151453D01*
Y154452D01*
X267000D01*
X272998Y157451D02*
Y151453D01*
X275997D01*
X276997Y152452D01*
Y156451D01*
X275997Y157451D01*
X272998D01*
X282995Y156451D02*
X281995Y157451D01*
X279996D01*
X278996Y156451D01*
Y152452D01*
X279996Y151453D01*
X281995D01*
X282995Y152452D01*
X352599Y204398D02*
X351599Y205398D01*
X349600D01*
X348600Y204398D01*
Y200400D01*
X349600Y199400D01*
X351599D01*
X352599Y200400D01*
X358597Y199400D02*
X354598D01*
X358597Y203399D01*
Y204398D01*
X357597Y205398D01*
X355598D01*
X354598Y204398D01*
X374146D02*
X373146Y205398D01*
X371147D01*
X370147Y204398D01*
Y200400D01*
X371147Y199400D01*
X373146D01*
X374146Y200400D01*
X376145Y204398D02*
X377145Y205398D01*
X379144D01*
X380144Y204398D01*
Y203399D01*
X379144Y202399D01*
X378145D01*
X379144D01*
X380144Y201399D01*
Y200400D01*
X379144Y199400D01*
X377145D01*
X376145Y200400D01*
X7000Y213000D02*
Y218998D01*
X9999D01*
X10999Y217998D01*
Y215999D01*
X9999Y214999D01*
X7000D01*
X12998Y212000D02*
X16997D01*
X22995Y218998D02*
X20996D01*
X21995D01*
Y214000D01*
X20996Y213000D01*
X19996D01*
X18996Y214000D01*
X24994Y213000D02*
X26994D01*
X25994D01*
Y218998D01*
X24994Y217998D01*
X12400Y34900D02*
Y40898D01*
X15399D01*
X16399Y39898D01*
Y37899D01*
X15399Y36899D01*
X12400D01*
X18398Y33900D02*
X22397D01*
X28395Y40898D02*
X26395D01*
X27395D01*
Y35900D01*
X26395Y34900D01*
X25396D01*
X24396Y35900D01*
X33393Y34900D02*
Y40898D01*
X30394Y37899D01*
X34393D01*
X405450Y144293D02*
Y150291D01*
X408449D01*
X409449Y149292D01*
Y147292D01*
X408449Y146293D01*
X405450D01*
X407449D02*
X409449Y144293D01*
X415447D02*
X411448D01*
X415447Y148292D01*
Y149292D01*
X414447Y150291D01*
X412448D01*
X411448Y149292D01*
X396799Y202998D02*
X395799Y203998D01*
X393800D01*
X392800Y202998D01*
Y201999D01*
X393800Y200999D01*
X395799D01*
X396799Y199999D01*
Y199000D01*
X395799Y198000D01*
X393800D01*
X392800Y199000D01*
X398798Y198000D02*
X400797D01*
X399798D01*
Y203998D01*
X398798Y202998D01*
X87000Y156498D02*
Y151500D01*
X88000Y150500D01*
X89999D01*
X90999Y151500D01*
Y156498D01*
X92998Y150500D02*
X94997D01*
X93998D01*
Y156498D01*
X92998Y155498D01*
X237500Y217998D02*
Y212000D01*
X239499Y213999D01*
X241499Y212000D01*
Y217998D01*
X243498Y212000D02*
X245497D01*
X244498D01*
Y217998D01*
X243498Y216998D01*
X242000Y164998D02*
Y160000D01*
X243000Y159000D01*
X244999D01*
X245999Y160000D01*
Y164998D01*
X251997Y159000D02*
X247998D01*
X251997Y162999D01*
Y163998D01*
X250997Y164998D01*
X248998D01*
X247998Y163998D01*
X320800Y133398D02*
Y128400D01*
X321800Y127400D01*
X323799D01*
X324799Y128400D01*
Y133398D01*
X326798Y132398D02*
X327798Y133398D01*
X329797D01*
X330797Y132398D01*
Y131399D01*
X329797Y130399D01*
X328797D01*
X329797D01*
X330797Y129399D01*
Y128400D01*
X329797Y127400D01*
X327798D01*
X326798Y128400D01*
D34*
X79547Y134366D02*
G03*
X79547Y134366I-1181J0D01*
G01*
D35*
X84370Y143323D02*
G03*
X84370Y143323I-492J0D01*
G01*
D36*
X32697Y88697D02*
Y138303D01*
X82303Y88697D02*
Y138303D01*
X32697Y88697D02*
X82303D01*
X32697Y138303D02*
X82303D01*
X186500Y190500D02*
X226500D01*
X186500Y210500D02*
X226500D01*
X186500Y190500D02*
Y210500D01*
X226500Y190500D02*
Y210500D01*
X186500Y30500D02*
X226500D01*
X186500Y10500D02*
X226500D01*
Y30500D01*
X186500Y10500D02*
Y30500D01*
X291500Y150000D02*
X311500D01*
Y200000D01*
X291500D02*
X311500D01*
X291500Y150000D02*
Y200000D01*
Y39000D02*
Y119000D01*
X311500Y39000D02*
Y119000D01*
X291500D02*
X311500D01*
X291500Y39000D02*
X311500D01*
X136969Y155032D02*
X138937D01*
X136969Y153063D02*
Y155032D01*
Y58969D02*
Y60937D01*
Y58969D02*
X138937D01*
X231063D02*
X233032D01*
Y60937D01*
Y151094D02*
Y155032D01*
X229095D02*
X233032D01*
X326000Y150500D02*
X341000D01*
X326000D02*
Y195500D01*
X341000D01*
Y150500D02*
Y195500D01*
X8276Y127425D02*
Y130575D01*
X17724Y127425D02*
Y130575D01*
X363000Y151000D02*
Y196000D01*
X348000D02*
X363000D01*
X348000Y151000D02*
Y196000D01*
Y151000D02*
X363000D01*
X384547D02*
Y196000D01*
X369547D02*
X384547D01*
X369547Y151000D02*
Y196000D01*
Y151000D02*
X384547D01*
X21500Y10500D02*
Y30500D01*
X121500D01*
Y10500D02*
Y30500D01*
X21500Y10500D02*
X121500D01*
X410925Y130819D02*
X414075D01*
X410925Y140268D02*
X414075D01*
X246000Y208500D02*
X281000D01*
X246000Y193500D02*
Y208500D01*
Y193500D02*
X281000D01*
Y208500D01*
X60000Y162638D02*
Y167362D01*
X21500Y190500D02*
Y210500D01*
X121500D01*
Y190500D02*
Y210500D01*
X21500Y190500D02*
X121500D01*
X265740Y126240D02*
Y128701D01*
Y126240D02*
X268201D01*
X265740Y143760D02*
X266626D01*
X265740Y142874D02*
Y143760D01*
X283260Y142874D02*
Y143760D01*
X282374D02*
X283260D01*
X282374Y126240D02*
X283260D01*
Y127126D01*
X241500Y11500D02*
Y21500D01*
X311500D01*
Y11500D02*
Y21500D01*
X241500Y11500D02*
X311500D01*
D37*
X14999Y102499D02*
X14500Y102999D01*
X13500D01*
X13000Y102499D01*
Y100500D01*
X13500Y100000D01*
X14500D01*
X14999Y100500D01*
X17998Y102999D02*
X16999Y102499D01*
X15999Y101499D01*
Y100500D01*
X16499Y100000D01*
X17499D01*
X17998Y100500D01*
Y101000D01*
X17499Y101499D01*
X15999D01*
X25999Y156999D02*
X25499Y157499D01*
X24500D01*
X24000Y156999D01*
Y155000D01*
X24500Y154500D01*
X25499D01*
X25999Y155000D01*
X26999Y156999D02*
X27499Y157499D01*
X28499D01*
X28998Y156999D01*
Y156499D01*
X28499Y156000D01*
X28998Y155500D01*
Y155000D01*
X28499Y154500D01*
X27499D01*
X26999Y155000D01*
Y155500D01*
X27499Y156000D01*
X26999Y156499D01*
Y156999D01*
X27499Y156000D02*
X28499D01*
X25999Y170499D02*
X25499Y170999D01*
X24500D01*
X24000Y170499D01*
Y168500D01*
X24500Y168000D01*
X25499D01*
X25999Y168500D01*
X26999D02*
X27499Y168000D01*
X28499D01*
X28998Y168500D01*
Y170499D01*
X28499Y170999D01*
X27499D01*
X26999Y170499D01*
Y169999D01*
X27499Y169500D01*
X28998D01*
X263279Y103499D02*
X262779Y103999D01*
X261779D01*
X261280Y103499D01*
Y101500D01*
X261779Y101000D01*
X262779D01*
X263279Y101500D01*
X264279Y101000D02*
X265278D01*
X264778D01*
Y103999D01*
X264279Y103499D01*
X268777Y101000D02*
X266778D01*
X268777Y102999D01*
Y103499D01*
X268277Y103999D01*
X267278D01*
X266778Y103499D01*
X253999Y142499D02*
X253500Y142999D01*
X252500D01*
X252000Y142499D01*
Y140500D01*
X252500Y140000D01*
X253500D01*
X253999Y140500D01*
X254999Y140000D02*
X255999D01*
X255499D01*
Y142999D01*
X254999Y142499D01*
X257498D02*
X257998Y142999D01*
X258998D01*
X259498Y142499D01*
Y141999D01*
X258998Y141499D01*
X258498D01*
X258998D01*
X259498Y141000D01*
Y140500D01*
X258998Y140000D01*
X257998D01*
X257498Y140500D01*
X104499Y68999D02*
X103999Y69499D01*
X103000D01*
X102500Y68999D01*
Y67000D01*
X103000Y66500D01*
X103999D01*
X104499Y67000D01*
X107498Y66500D02*
X105499D01*
X107498Y68499D01*
Y68999D01*
X106999Y69499D01*
X105999D01*
X105499Y68999D01*
X108498D02*
X108998Y69499D01*
X109998D01*
X110497Y68999D01*
Y67000D01*
X109998Y66500D01*
X108998D01*
X108498Y67000D01*
Y68999D01*
X134999Y40499D02*
X134500Y40999D01*
X133500D01*
X133000Y40499D01*
Y38500D01*
X133500Y38000D01*
X134500D01*
X134999Y38500D01*
X137998Y38000D02*
X135999D01*
X137998Y39999D01*
Y40499D01*
X137499Y40999D01*
X136499D01*
X135999Y40499D01*
X138998Y38000D02*
X139998D01*
X139498D01*
Y40999D01*
X138998Y40499D01*
X104999Y55999D02*
X104499Y56499D01*
X103500D01*
X103000Y55999D01*
Y54000D01*
X103500Y53500D01*
X104499D01*
X104999Y54000D01*
X107998Y53500D02*
X105999D01*
X107998Y55499D01*
Y55999D01*
X107499Y56499D01*
X106499D01*
X105999Y55999D01*
X110997Y53500D02*
X108998D01*
X110997Y55499D01*
Y55999D01*
X110498Y56499D01*
X109498D01*
X108998Y55999D01*
X246999Y70499D02*
X246499Y70999D01*
X245500D01*
X245000Y70499D01*
Y68500D01*
X245500Y68000D01*
X246499D01*
X246999Y68500D01*
X249998Y68000D02*
X247999D01*
X249998Y69999D01*
Y70499D01*
X249499Y70999D01*
X248499D01*
X247999Y70499D01*
X250998D02*
X251498Y70999D01*
X252498D01*
X252997Y70499D01*
Y69999D01*
X252498Y69499D01*
X251998D01*
X252498D01*
X252997Y69000D01*
Y68500D01*
X252498Y68000D01*
X251498D01*
X250998Y68500D01*
X263499Y96999D02*
X263000Y97499D01*
X262000D01*
X261500Y96999D01*
Y95000D01*
X262000Y94500D01*
X263000D01*
X263499Y95000D01*
X266498Y94500D02*
X264499D01*
X266498Y96499D01*
Y96999D01*
X265999Y97499D01*
X264999D01*
X264499Y96999D01*
X268998Y94500D02*
Y97499D01*
X267498Y95999D01*
X269497D01*
X173999Y190499D02*
X173500Y190999D01*
X172500D01*
X172000Y190499D01*
Y188500D01*
X172500Y188000D01*
X173500D01*
X173999Y188500D01*
X176998Y188000D02*
X174999D01*
X176998Y189999D01*
Y190499D01*
X176499Y190999D01*
X175499D01*
X174999Y190499D01*
X179997Y190999D02*
X177998D01*
Y189499D01*
X178998Y189999D01*
X179498D01*
X179997Y189499D01*
Y188500D01*
X179498Y188000D01*
X178498D01*
X177998Y188500D01*
X198699Y184199D02*
X198199Y184699D01*
X197200D01*
X196700Y184199D01*
Y182200D01*
X197200Y181700D01*
X198199D01*
X198699Y182200D01*
X201698Y181700D02*
X199699D01*
X201698Y183699D01*
Y184199D01*
X201199Y184699D01*
X200199D01*
X199699Y184199D01*
X204697Y184699D02*
X203698Y184199D01*
X202698Y183200D01*
Y182200D01*
X203198Y181700D01*
X204198D01*
X204697Y182200D01*
Y182700D01*
X204198Y183200D01*
X202698D01*
X166999Y40499D02*
X166499Y40999D01*
X165500D01*
X165000Y40499D01*
Y38500D01*
X165500Y38000D01*
X166499D01*
X166999Y38500D01*
X167999Y40499D02*
X168499Y40999D01*
X169499D01*
X169998Y40499D01*
Y39999D01*
X169499Y39500D01*
X168999D01*
X169499D01*
X169998Y39000D01*
Y38500D01*
X169499Y38000D01*
X168499D01*
X167999Y38500D01*
X170998Y38000D02*
X171998D01*
X171498D01*
Y40999D01*
X170998Y40499D01*
X150999D02*
X150499Y40999D01*
X149500D01*
X149000Y40499D01*
Y38500D01*
X149500Y38000D01*
X150499D01*
X150999Y38500D01*
X151999Y40499D02*
X152499Y40999D01*
X153499D01*
X153998Y40499D01*
Y39999D01*
X153499Y39500D01*
X152999D01*
X153499D01*
X153998Y39000D01*
Y38500D01*
X153499Y38000D01*
X152499D01*
X151999Y38500D01*
X156997Y38000D02*
X154998D01*
X156997Y39999D01*
Y40499D01*
X156498Y40999D01*
X155498D01*
X154998Y40499D01*
X219499Y34999D02*
X219000Y35499D01*
X218000D01*
X217500Y34999D01*
Y33000D01*
X218000Y32500D01*
X219000D01*
X219499Y33000D01*
X220499Y34999D02*
X220999Y35499D01*
X221999D01*
X222498Y34999D01*
Y34499D01*
X221999Y33999D01*
X221499D01*
X221999D01*
X222498Y33500D01*
Y33000D01*
X221999Y32500D01*
X220999D01*
X220499Y33000D01*
X223498Y34999D02*
X223998Y35499D01*
X224998D01*
X225497Y34999D01*
Y34499D01*
X224998Y33999D01*
X224498D01*
X224998D01*
X225497Y33500D01*
Y33000D01*
X224998Y32500D01*
X223998D01*
X223498Y33000D01*
X102999Y115999D02*
X102499Y116499D01*
X101500D01*
X101000Y115999D01*
Y114000D01*
X101500Y113500D01*
X102499D01*
X102999Y114000D01*
X103999Y115999D02*
X104499Y116499D01*
X105499D01*
X105998Y115999D01*
Y115499D01*
X105499Y114999D01*
X104999D01*
X105499D01*
X105998Y114500D01*
Y114000D01*
X105499Y113500D01*
X104499D01*
X103999Y114000D01*
X108997Y116499D02*
X106998D01*
Y114999D01*
X107998Y115499D01*
X108498D01*
X108997Y114999D01*
Y114000D01*
X108498Y113500D01*
X107498D01*
X106998Y114000D01*
X272279Y88999D02*
X271779Y89499D01*
X270779D01*
X270280Y88999D01*
Y87000D01*
X270779Y86500D01*
X271779D01*
X272279Y87000D01*
X273278Y88999D02*
X273778Y89499D01*
X274778D01*
X275278Y88999D01*
Y88499D01*
X274778Y87999D01*
X274278D01*
X274778D01*
X275278Y87500D01*
Y87000D01*
X274778Y86500D01*
X273778D01*
X273278Y87000D01*
X278277Y89499D02*
X277277Y88999D01*
X276278Y87999D01*
Y87000D01*
X276777Y86500D01*
X277777D01*
X278277Y87000D01*
Y87500D01*
X277777Y87999D01*
X276278D01*
X272499Y80499D02*
X272000Y80999D01*
X271000D01*
X270500Y80499D01*
Y78500D01*
X271000Y78000D01*
X272000D01*
X272499Y78500D01*
X273499Y80499D02*
X273999Y80999D01*
X274998D01*
X275498Y80499D01*
Y79999D01*
X274998Y79500D01*
X274499D01*
X274998D01*
X275498Y79000D01*
Y78500D01*
X274998Y78000D01*
X273999D01*
X273499Y78500D01*
X276498Y80999D02*
X278497D01*
Y80499D01*
X276498Y78500D01*
Y78000D01*
X234999Y34999D02*
X234500Y35499D01*
X233500D01*
X233000Y34999D01*
Y33000D01*
X233500Y32500D01*
X234500D01*
X234999Y33000D01*
X235999Y34999D02*
X236499Y35499D01*
X237498D01*
X237998Y34999D01*
Y34499D01*
X237498Y33999D01*
X236999D01*
X237498D01*
X237998Y33500D01*
Y33000D01*
X237498Y32500D01*
X236499D01*
X235999Y33000D01*
X238998Y34999D02*
X239498Y35499D01*
X240498D01*
X240997Y34999D01*
Y34499D01*
X240498Y33999D01*
X240997Y33500D01*
Y33000D01*
X240498Y32500D01*
X239498D01*
X238998Y33000D01*
Y33500D01*
X239498Y33999D01*
X238998Y34499D01*
Y34999D01*
X239498Y33999D02*
X240498D01*
X199499Y35999D02*
X199000Y36499D01*
X198000D01*
X197500Y35999D01*
Y34000D01*
X198000Y33500D01*
X199000D01*
X199499Y34000D01*
X200499Y35999D02*
X200999Y36499D01*
X201999D01*
X202498Y35999D01*
Y35499D01*
X201999Y34999D01*
X201499D01*
X201999D01*
X202498Y34500D01*
Y34000D01*
X201999Y33500D01*
X200999D01*
X200499Y34000D01*
X203498D02*
X203998Y33500D01*
X204998D01*
X205497Y34000D01*
Y35999D01*
X204998Y36499D01*
X203998D01*
X203498Y35999D01*
Y35499D01*
X203998Y34999D01*
X205497D01*
X230299Y175299D02*
X229800Y175799D01*
X228800D01*
X228300Y175299D01*
Y173300D01*
X228800Y172800D01*
X229800D01*
X230299Y173300D01*
X232799Y172800D02*
Y175799D01*
X231299Y174300D01*
X233298D01*
X234298Y175299D02*
X234798Y175799D01*
X235798D01*
X236297Y175299D01*
Y173300D01*
X235798Y172800D01*
X234798D01*
X234298Y173300D01*
Y175299D01*
X165999Y176499D02*
X165499Y176999D01*
X164500D01*
X164000Y176499D01*
Y174500D01*
X164500Y174000D01*
X165499D01*
X165999Y174500D01*
X168499Y174000D02*
Y176999D01*
X166999Y175499D01*
X168998D01*
X169998Y174000D02*
X170998D01*
X170498D01*
Y176999D01*
X169998Y176499D01*
X244499Y147499D02*
X244000Y147999D01*
X243000D01*
X242500Y147499D01*
Y145500D01*
X243000Y145000D01*
X244000D01*
X244499Y145500D01*
X246999Y145000D02*
Y147999D01*
X245499Y146500D01*
X247498D01*
X250497Y145000D02*
X248498D01*
X250497Y146999D01*
Y147499D01*
X249998Y147999D01*
X248998D01*
X248498Y147499D01*
X266999Y63999D02*
X266499Y64499D01*
X265500D01*
X265000Y63999D01*
Y62000D01*
X265500Y61500D01*
X266499D01*
X266999Y62000D01*
X269498Y61500D02*
Y64499D01*
X267999Y62999D01*
X269998D01*
X270998Y63999D02*
X271498Y64499D01*
X272498D01*
X272997Y63999D01*
Y63499D01*
X272498Y62999D01*
X271998D01*
X272498D01*
X272997Y62500D01*
Y62000D01*
X272498Y61500D01*
X271498D01*
X270998Y62000D01*
X246499Y124999D02*
X246000Y125499D01*
X245000D01*
X244500Y124999D01*
Y123000D01*
X245000Y122500D01*
X246000D01*
X246499Y123000D01*
X248998Y122500D02*
Y125499D01*
X247499Y124000D01*
X249498D01*
X251998Y122500D02*
Y125499D01*
X250498Y124000D01*
X252497D01*
X116999Y158999D02*
X116499Y159499D01*
X115500D01*
X115000Y158999D01*
Y157000D01*
X115500Y156500D01*
X116499D01*
X116999Y157000D01*
X119499Y156500D02*
Y159499D01*
X117999Y158000D01*
X119998D01*
X122997Y159499D02*
X120998D01*
Y158000D01*
X121998Y158499D01*
X122498D01*
X122997Y158000D01*
Y157000D01*
X122498Y156500D01*
X121498D01*
X120998Y157000D01*
X149499Y173999D02*
X149000Y174499D01*
X148000D01*
X147500Y173999D01*
Y172000D01*
X148000Y171500D01*
X149000D01*
X149499Y172000D01*
X151999Y171500D02*
Y174499D01*
X150499Y173000D01*
X152498D01*
X155497Y174499D02*
X154498Y173999D01*
X153498Y173000D01*
Y172000D01*
X153998Y171500D01*
X154998D01*
X155497Y172000D01*
Y172500D01*
X154998Y173000D01*
X153498D01*
X69000Y166499D02*
Y163500D01*
X70999D01*
X71999D02*
X72999D01*
X72499D01*
Y166499D01*
X71999Y165999D01*
X266500Y25000D02*
Y27999D01*
X268000D01*
X268499Y27499D01*
Y26500D01*
X268000Y26000D01*
X266500D01*
X269499Y24500D02*
X271498D01*
X274497Y27499D02*
X273998Y27999D01*
X272998D01*
X272498Y27499D01*
Y26999D01*
X272998Y26500D01*
X273998D01*
X274497Y26000D01*
Y25500D01*
X273998Y25000D01*
X272998D01*
X272498Y25500D01*
X275497Y27999D02*
Y25000D01*
X276997D01*
X277496Y25500D01*
Y27499D01*
X276997Y27999D01*
X275497D01*
X278496Y24500D02*
X280496D01*
X283494Y27499D02*
X282995Y27999D01*
X281995D01*
X281495Y27499D01*
Y25500D01*
X281995Y25000D01*
X282995D01*
X283494Y25500D01*
X284494Y25000D02*
Y26999D01*
X285494Y27999D01*
X286493Y26999D01*
Y25000D01*
Y26500D01*
X284494D01*
X287493Y25000D02*
Y27999D01*
X288993D01*
X289493Y27499D01*
Y26500D01*
X288993Y26000D01*
X287493D01*
X288493D02*
X289493Y25000D01*
X290492Y27999D02*
Y25000D01*
X291992D01*
X292492Y25500D01*
Y27499D01*
X291992Y27999D01*
X290492D01*
X11000Y140000D02*
Y142999D01*
X12500D01*
X12999Y142499D01*
Y141499D01*
X12500Y141000D01*
X11000D01*
X12000D02*
X12999Y140000D01*
X13999D02*
X14999D01*
X14499D01*
Y142999D01*
X13999Y142499D01*
D38*
X103999Y141999D02*
X103499Y142499D01*
X102500D01*
X102000Y141999D01*
Y140000D01*
X102500Y139500D01*
X103499D01*
X103999Y140000D01*
X104999Y139500D02*
X105999D01*
X105499D01*
Y142499D01*
X104999Y141999D01*
X107498D02*
X107998Y142499D01*
X108998D01*
X109498Y141999D01*
Y140000D01*
X108998Y139500D01*
X107998D01*
X107498Y140000D01*
Y141999D01*
X106499Y97999D02*
X106000Y98499D01*
X105000D01*
X104500Y97999D01*
Y96000D01*
X105000Y95500D01*
X106000D01*
X106499Y96000D01*
X107499Y95500D02*
X108499D01*
X107999D01*
Y98499D01*
X107499Y97999D01*
X109998Y95500D02*
X110998D01*
X110498D01*
Y98499D01*
X109998Y97999D01*
X103999Y133716D02*
X103499Y134216D01*
X102500D01*
X102000Y133716D01*
Y131716D01*
X102500Y131217D01*
X103499D01*
X103999Y131716D01*
X104999Y131217D02*
X105999D01*
X105499D01*
Y134216D01*
X104999Y133716D01*
X109498Y134216D02*
X108498Y133716D01*
X107498Y132716D01*
Y131716D01*
X107998Y131217D01*
X108998D01*
X109498Y131716D01*
Y132216D01*
X108998Y132716D01*
X107498D01*
X103999Y125499D02*
X103499Y125999D01*
X102500D01*
X102000Y125499D01*
Y123500D01*
X102500Y123000D01*
X103499D01*
X103999Y123500D01*
X104999Y123000D02*
X105999D01*
X105499D01*
Y125999D01*
X104999Y125499D01*
X107498Y125999D02*
X109498D01*
Y125499D01*
X107498Y123500D01*
Y123000D01*
X103499Y108999D02*
X102999Y109499D01*
X102000D01*
X101500Y108999D01*
Y107000D01*
X102000Y106500D01*
X102999D01*
X103499Y107000D01*
X104499Y106500D02*
X105499D01*
X104999D01*
Y109499D01*
X104499Y108999D01*
X106998Y107000D02*
X107498Y106500D01*
X108498D01*
X108998Y107000D01*
Y108999D01*
X108498Y109499D01*
X107498D01*
X106998Y108999D01*
Y108499D01*
X107498Y108000D01*
X108998D01*
X184832Y203500D02*
X181500D01*
X184832Y206832D01*
Y207665D01*
X183999Y208498D01*
X182333D01*
X181500Y207665D01*
X183500Y193500D02*
X185166D01*
X184333D01*
Y198498D01*
X183500Y197665D01*
X227500Y198498D02*
X230832D01*
Y197665D01*
X227500Y194333D01*
Y193500D01*
Y207665D02*
X228333Y208498D01*
X229999D01*
X230832Y207665D01*
Y206832D01*
X229999Y205999D01*
X230832Y205166D01*
Y204333D01*
X229999Y203500D01*
X228333D01*
X227500Y204333D01*
Y205166D01*
X228333Y205999D01*
X227500Y206832D01*
Y207665D01*
X228333Y205999D02*
X229999D01*
X232332Y12297D02*
X229000D01*
X232332Y15630D01*
Y16463D01*
X231499Y17296D01*
X229833D01*
X229000Y16463D01*
X229500Y23000D02*
X231166D01*
X230333D01*
Y27998D01*
X229500Y27165D01*
X178050Y25998D02*
X181382D01*
Y25165D01*
X178050Y21833D01*
Y21000D01*
X181500Y17165D02*
X182333Y17998D01*
X183999D01*
X184832Y17165D01*
Y16332D01*
X183999Y15499D01*
X184832Y14666D01*
Y13833D01*
X183999Y13000D01*
X182333D01*
X181500Y13833D01*
Y14666D01*
X182333Y15499D01*
X181500Y16332D01*
Y17165D01*
X182333Y15499D02*
X183999D01*
X299332Y147998D02*
X297666Y147165D01*
X296000Y145499D01*
Y143833D01*
X296833Y143000D01*
X298499D01*
X299332Y143833D01*
Y144666D01*
X298499Y145499D01*
X296000D01*
X291500Y202500D02*
X293166D01*
X292333D01*
Y207498D01*
X291500Y206665D01*
X295665D02*
X296498Y207498D01*
X298165D01*
X298998Y206665D01*
Y203333D01*
X298165Y202500D01*
X296498D01*
X295665Y203333D01*
Y206665D01*
X308332Y207998D02*
X305000D01*
Y205499D01*
X306666Y206332D01*
X307499D01*
X308332Y205499D01*
Y203833D01*
X307499Y203000D01*
X305833D01*
X305000Y203833D01*
X307500Y143500D02*
X309166D01*
X308333D01*
Y148498D01*
X307500Y147665D01*
X292100Y122000D02*
X293766D01*
X292933D01*
Y126998D01*
X292100Y126165D01*
X299598Y126998D02*
X297931Y126165D01*
X296265Y124499D01*
Y122833D01*
X297098Y122000D01*
X298764D01*
X299598Y122833D01*
Y123666D01*
X298764Y124499D01*
X296265D01*
X305000Y126165D02*
X305833Y126998D01*
X307499D01*
X308332Y126165D01*
Y125332D01*
X307499Y124499D01*
X308332Y123666D01*
Y122833D01*
X307499Y122000D01*
X305833D01*
X305000Y122833D01*
Y123666D01*
X305833Y124499D01*
X305000Y125332D01*
Y126165D01*
X305833Y124499D02*
X307499D01*
X307000Y31500D02*
X308666D01*
X307833D01*
Y36498D01*
X307000Y35665D01*
X295500Y32333D02*
X296333Y31500D01*
X297999D01*
X298832Y32333D01*
Y35665D01*
X297999Y36498D01*
X296333D01*
X295500Y35665D01*
Y34832D01*
X296333Y33999D01*
X298832D01*
X126499Y22500D02*
Y27498D01*
X124000Y24999D01*
X127332D01*
X128998Y26665D02*
X129831Y27498D01*
X131498D01*
X132331Y26665D01*
Y23333D01*
X131498Y22500D01*
X129831D01*
X128998Y23333D01*
Y26665D01*
X127332Y13000D02*
X124000D01*
X127332Y16332D01*
Y17165D01*
X126499Y17998D01*
X124833D01*
X124000Y17165D01*
X128998D02*
X129831Y17998D01*
X131498D01*
X132331Y17165D01*
Y13833D01*
X131498Y13000D01*
X129831D01*
X128998Y13833D01*
Y17165D01*
X13500Y27165D02*
X14333Y27998D01*
X15999D01*
X16832Y27165D01*
Y26332D01*
X15999Y25499D01*
X15166D01*
X15999D01*
X16832Y24666D01*
Y23833D01*
X15999Y23000D01*
X14333D01*
X13500Y23833D01*
X18498Y23000D02*
X20165D01*
X19331D01*
Y27998D01*
X18498Y27165D01*
X14000Y13000D02*
X15666D01*
X14833D01*
Y17998D01*
X14000Y17165D01*
X18165Y13000D02*
X19831D01*
X18998D01*
Y17998D01*
X18165Y17165D01*
X124500Y204338D02*
X126166D01*
X125333D01*
Y209336D01*
X124500Y208503D01*
X126832Y192500D02*
X123500D01*
X126832Y195832D01*
Y196665D01*
X125999Y197498D01*
X124333D01*
X123500Y196665D01*
X128498Y192500D02*
X130165D01*
X129331D01*
Y197498D01*
X128498Y196665D01*
X10500Y202500D02*
X12166D01*
X11333D01*
Y207498D01*
X10500Y206665D01*
X14665D02*
X15498Y207498D01*
X17165D01*
X17998Y206665D01*
Y203333D01*
X17165Y202500D01*
X15498D01*
X14665Y203333D01*
Y206665D01*
X11000Y196165D02*
X11833Y196998D01*
X13499D01*
X14332Y196165D01*
Y195332D01*
X13499Y194499D01*
X12666D01*
X13499D01*
X14332Y193666D01*
Y192833D01*
X13499Y192000D01*
X11833D01*
X11000Y192833D01*
X15998Y196165D02*
X16831Y196998D01*
X18498D01*
X19331Y196165D01*
Y192833D01*
X18498Y192000D01*
X16831D01*
X15998Y192833D01*
Y196165D01*
D39*
X420791Y22334D02*
Y25000D01*
X423457Y22334D01*
X424124D01*
X424790Y23001D01*
Y24333D01*
X424124Y25000D01*
Y21001D02*
X424790Y20335D01*
Y19002D01*
X424124Y18336D01*
X421458D01*
X420791Y19002D01*
Y20335D01*
X421458Y21001D01*
X424124D01*
X344791Y25500D02*
Y24167D01*
Y24834D01*
X348790D01*
X348124Y25500D01*
X344791Y22168D02*
Y20835D01*
Y21501D01*
X348790D01*
X348124Y22168D01*
X345291Y122000D02*
Y120667D01*
Y121334D01*
X349290D01*
X348624Y122000D01*
Y118668D02*
X349290Y118001D01*
Y116668D01*
X348624Y116002D01*
X345958D01*
X345291Y116668D01*
Y118001D01*
X345958Y118668D01*
X348624D01*
X421791Y120500D02*
Y119167D01*
Y119834D01*
X425790D01*
X425124Y120500D01*
X327290Y85000D02*
X323291Y82334D01*
X327290D02*
X323291Y85000D01*
X327290Y81001D02*
X323291D01*
Y79002D01*
X323958Y78335D01*
X324624D01*
X325291Y79002D01*
Y81001D01*
Y79002D01*
X325957Y78335D01*
X326624D01*
X327290Y79002D01*
Y81001D01*
Y74337D02*
Y77003D01*
X323291D01*
Y74337D01*
X325291Y77003D02*
Y75670D01*
X327290Y70338D02*
Y73004D01*
X323291D01*
Y70338D01*
X325291Y73004D02*
Y71671D01*
X322625Y69005D02*
Y66339D01*
X323291Y65006D02*
X327290D01*
Y63007D01*
X326624Y62341D01*
X325291D01*
X324624Y63007D01*
Y65006D01*
X323291Y61008D02*
X327290D01*
Y59008D01*
X326624Y58342D01*
X325291D01*
X324624Y59008D01*
Y61008D01*
Y59675D02*
X323291Y58342D01*
X327290Y55010D02*
Y56343D01*
X326624Y57009D01*
X323958D01*
X323291Y56343D01*
Y55010D01*
X323958Y54343D01*
X326624D01*
X327290Y55010D01*
X347290Y77500D02*
X343291Y74834D01*
X347290D02*
X343291Y77500D01*
X347290Y73501D02*
X343291D01*
Y71502D01*
X343958Y70836D01*
X344624D01*
X345291Y71502D01*
Y73501D01*
Y71502D01*
X345957Y70836D01*
X346624D01*
X347290Y71502D01*
Y73501D01*
Y66837D02*
Y69503D01*
X343291D01*
Y66837D01*
X345291Y69503D02*
Y68170D01*
X347290Y62838D02*
Y65504D01*
X343291D01*
Y62838D01*
X345291Y65504D02*
Y64171D01*
M02*
