G04 Layer_Color=16711935*
%FSLAX25Y25*%
%MOIN*%
G70*
G01*
G75*
%ADD44C,0.00500*%
%ADD69C,0.00394*%
%ADD70C,0.00300*%
D44*
X77756Y144917D02*
G03*
X77716Y144957I-39J-0D01*
G01*
X76732D02*
G03*
X76693Y144917I-0J-39D01*
G01*
X88996Y120803D02*
G03*
X89035Y120843I-0J39D01*
G01*
Y121827D02*
G03*
X88996Y121866I-39J0D01*
G01*
Y99150D02*
G03*
X89035Y99189I0J39D01*
G01*
Y100173D02*
G03*
X88996Y100213I-39J0D01*
G01*
X37323Y82004D02*
G03*
X37362Y81965I39J0D01*
G01*
X38346D02*
G03*
X38386Y82004I-0J39D01*
G01*
X49134D02*
G03*
X49173Y81965I39J-0D01*
G01*
X50157D02*
G03*
X50197Y82004I-0J39D01*
G01*
X70787D02*
G03*
X70827Y81965I39J0D01*
G01*
X71811D02*
G03*
X71850Y82004I0J39D01*
G01*
X26083Y106118D02*
G03*
X26043Y106079I0J-39D01*
G01*
Y105095D02*
G03*
X26083Y105055I39J0D01*
G01*
Y127772D02*
G03*
X26043Y127732I0J-39D01*
G01*
Y126748D02*
G03*
X26083Y126709I39J0D01*
G01*
X44291Y144917D02*
G03*
X44252Y144957I-39J0D01*
G01*
X43268D02*
G03*
X43228Y144917I-0J-39D01*
G01*
X65945D02*
G03*
X65905Y144957I-39J-0D01*
G01*
X64921D02*
G03*
X64882Y144917I-0J-39D01*
G01*
X88996Y132614D02*
G03*
X89035Y132654I-0J39D01*
G01*
Y133638D02*
G03*
X88996Y133677I-39J0D01*
G01*
Y110961D02*
G03*
X89035Y111000I-0J39D01*
G01*
Y111984D02*
G03*
X88996Y112024I-39J0D01*
G01*
Y89307D02*
G03*
X89035Y89346I-0J39D01*
G01*
Y90331D02*
G03*
X88996Y90370I-39J0D01*
G01*
X26083Y94307D02*
G03*
X26043Y94268I-0J-39D01*
G01*
Y93283D02*
G03*
X26083Y93244I39J0D01*
G01*
X60945Y82004D02*
G03*
X60984Y81965I39J0D01*
G01*
X61968D02*
G03*
X62008Y82004I0J39D01*
G01*
X26083Y115961D02*
G03*
X26043Y115921I0J-39D01*
G01*
Y114937D02*
G03*
X26083Y114898I39J0D01*
G01*
Y137614D02*
G03*
X26043Y137575I-0J-39D01*
G01*
Y136591D02*
G03*
X26083Y136551I39J0D01*
G01*
X54134Y144917D02*
G03*
X54094Y144957I-39J-0D01*
G01*
X53110D02*
G03*
X53071Y144917I0J-39D01*
G01*
X75787D02*
G03*
X75748Y144957I-39J-0D01*
G01*
X74764D02*
G03*
X74724Y144917I-0J-39D01*
G01*
X88996Y122772D02*
G03*
X89035Y122811I-0J39D01*
G01*
Y123795D02*
G03*
X88996Y123835I-39J0D01*
G01*
Y101118D02*
G03*
X89035Y101157I0J39D01*
G01*
Y102142D02*
G03*
X88996Y102181I-39J0D01*
G01*
X39291Y82004D02*
G03*
X39331Y81965I39J0D01*
G01*
X40315D02*
G03*
X40354Y82004I-0J39D01*
G01*
X51102D02*
G03*
X51142Y81965I39J-0D01*
G01*
X52126D02*
G03*
X52165Y82004I0J39D01*
G01*
X72756D02*
G03*
X72795Y81965I39J0D01*
G01*
X73779D02*
G03*
X73819Y82004I0J39D01*
G01*
X26083Y104150D02*
G03*
X26043Y104110I0J-39D01*
G01*
Y103126D02*
G03*
X26083Y103087I39J0D01*
G01*
Y125803D02*
G03*
X26043Y125764I0J-39D01*
G01*
Y124780D02*
G03*
X26083Y124740I39J0D01*
G01*
X42323Y144917D02*
G03*
X42283Y144957I-39J0D01*
G01*
X41299D02*
G03*
X41260Y144917I-0J-39D01*
G01*
X63976D02*
G03*
X63937Y144957I-39J-0D01*
G01*
X62953D02*
G03*
X62913Y144917I-0J-39D01*
G01*
X88996Y134583D02*
G03*
X89035Y134622I-0J39D01*
G01*
Y135606D02*
G03*
X88996Y135646I-39J0D01*
G01*
Y112929D02*
G03*
X89035Y112969I-0J39D01*
G01*
Y113953D02*
G03*
X88996Y113992I-39J0D01*
G01*
Y91276D02*
G03*
X89035Y91315I-0J39D01*
G01*
Y92299D02*
G03*
X88996Y92339I-39J0D01*
G01*
X26083D02*
G03*
X26043Y92299I-0J-39D01*
G01*
Y91315D02*
G03*
X26083Y91276I39J0D01*
G01*
X62913Y82004D02*
G03*
X62953Y81965I39J0D01*
G01*
X63937D02*
G03*
X63976Y82004I0J39D01*
G01*
X26083Y113992D02*
G03*
X26043Y113953I0J-39D01*
G01*
Y112969D02*
G03*
X26083Y112929I39J0D01*
G01*
Y135646D02*
G03*
X26043Y135606I-0J-39D01*
G01*
Y134622D02*
G03*
X26083Y134583I39J0D01*
G01*
X52165Y144917D02*
G03*
X52126Y144957I-39J-0D01*
G01*
X51142D02*
G03*
X51102Y144917I0J-39D01*
G01*
X73819D02*
G03*
X73779Y144957I-39J-0D01*
G01*
X72795D02*
G03*
X72756Y144917I-0J-39D01*
G01*
X88996Y124740D02*
G03*
X89035Y124780I-0J39D01*
G01*
Y125764D02*
G03*
X88996Y125803I-39J0D01*
G01*
Y103087D02*
G03*
X89035Y103126I0J39D01*
G01*
Y104110D02*
G03*
X88996Y104150I-39J0D01*
G01*
X41260Y82004D02*
G03*
X41299Y81965I39J0D01*
G01*
X42283D02*
G03*
X42323Y82004I-0J39D01*
G01*
X53071D02*
G03*
X53110Y81965I39J-0D01*
G01*
X54094D02*
G03*
X54134Y82004I0J39D01*
G01*
X74724D02*
G03*
X74764Y81965I39J0D01*
G01*
X75748D02*
G03*
X75787Y82004I0J39D01*
G01*
X26083Y102181D02*
G03*
X26043Y102142I0J-39D01*
G01*
Y101157D02*
G03*
X26083Y101118I39J0D01*
G01*
Y123835D02*
G03*
X26043Y123795I0J-39D01*
G01*
Y122811D02*
G03*
X26083Y122772I39J0D01*
G01*
X40354Y144917D02*
G03*
X40315Y144957I-39J0D01*
G01*
X39331D02*
G03*
X39291Y144917I-0J-39D01*
G01*
X62008D02*
G03*
X61968Y144957I-39J-0D01*
G01*
X60984D02*
G03*
X60945Y144917I-0J-39D01*
G01*
X88996Y136551D02*
G03*
X89035Y136591I-0J39D01*
G01*
Y137575D02*
G03*
X88996Y137614I-39J0D01*
G01*
Y114898D02*
G03*
X89035Y114937I-0J39D01*
G01*
Y115921D02*
G03*
X88996Y115961I-39J0D01*
G01*
Y93244D02*
G03*
X89035Y93283I-0J39D01*
G01*
Y94268D02*
G03*
X88996Y94307I-39J0D01*
G01*
X26083Y90370D02*
G03*
X26043Y90331I-0J-39D01*
G01*
Y89346D02*
G03*
X26083Y89307I39J0D01*
G01*
X64882Y82004D02*
G03*
X64921Y81965I39J0D01*
G01*
X65905D02*
G03*
X65945Y82004I0J39D01*
G01*
X26083Y112024D02*
G03*
X26043Y111984I0J-39D01*
G01*
Y111000D02*
G03*
X26083Y110961I39J0D01*
G01*
X56102Y144917D02*
G03*
X56063Y144957I-39J-0D01*
G01*
X55079D02*
G03*
X55039Y144917I0J-39D01*
G01*
X26083Y133677D02*
G03*
X26043Y133638I0J-39D01*
G01*
Y132654D02*
G03*
X26083Y132614I39J0D01*
G01*
X50197Y144917D02*
G03*
X50157Y144957I-39J0D01*
G01*
X49173D02*
G03*
X49134Y144917I0J-39D01*
G01*
X71850D02*
G03*
X71811Y144957I-39J-0D01*
G01*
X70827D02*
G03*
X70787Y144917I-0J-39D01*
G01*
X88996Y126709D02*
G03*
X89035Y126748I-0J39D01*
G01*
Y127732D02*
G03*
X88996Y127772I-39J0D01*
G01*
Y105055D02*
G03*
X89035Y105095I0J39D01*
G01*
Y106079D02*
G03*
X88996Y106118I-39J0D01*
G01*
X43228Y82004D02*
G03*
X43268Y81965I39J0D01*
G01*
X44252D02*
G03*
X44291Y82004I-0J39D01*
G01*
X55039D02*
G03*
X55079Y81965I39J-0D01*
G01*
X56063D02*
G03*
X56102Y82004I0J39D01*
G01*
X76693D02*
G03*
X76732Y81965I39J0D01*
G01*
X77716D02*
G03*
X77756Y82004I0J39D01*
G01*
X26083Y100213D02*
G03*
X26043Y100173I0J-39D01*
G01*
Y99189D02*
G03*
X26083Y99150I39J0D01*
G01*
Y121866D02*
G03*
X26043Y121827I0J-39D01*
G01*
Y120843D02*
G03*
X26083Y120803I39J0D01*
G01*
X38386Y144917D02*
G03*
X38346Y144957I-39J0D01*
G01*
X37362D02*
G03*
X37323Y144917I-0J-39D01*
G01*
X60039D02*
G03*
X60000Y144957I-39J-0D01*
G01*
X59016D02*
G03*
X58976Y144917I0J-39D01*
G01*
X81693D02*
G03*
X81653Y144957I-39J-0D01*
G01*
X80669D02*
G03*
X80630Y144917I-0J-39D01*
G01*
X88996Y116866D02*
G03*
X89035Y116906I-0J39D01*
G01*
Y117890D02*
G03*
X88996Y117929I-39J0D01*
G01*
Y95213D02*
G03*
X89035Y95252I0J39D01*
G01*
Y96236D02*
G03*
X88996Y96276I-39J0D01*
G01*
X33386Y82004D02*
G03*
X33425Y81965I39J0D01*
G01*
X34409D02*
G03*
X34449Y82004I0J39D01*
G01*
X66850D02*
G03*
X66890Y81965I39J0D01*
G01*
X67874D02*
G03*
X67913Y82004I0J39D01*
G01*
X26083Y110055D02*
G03*
X26043Y110016I0J-39D01*
G01*
Y109031D02*
G03*
X26083Y108992I39J0D01*
G01*
Y131709D02*
G03*
X26043Y131669I0J-39D01*
G01*
Y130685D02*
G03*
X26083Y130646I39J0D01*
G01*
X48228Y144917D02*
G03*
X48189Y144957I-39J0D01*
G01*
X47205D02*
G03*
X47165Y144917I0J-39D01*
G01*
X69882D02*
G03*
X69842Y144957I-39J-0D01*
G01*
X68858D02*
G03*
X68819Y144917I-0J-39D01*
G01*
X88996Y128677D02*
G03*
X89035Y128717I-0J39D01*
G01*
Y129701D02*
G03*
X88996Y129740I-39J0D01*
G01*
Y107024D02*
G03*
X89035Y107063I0J39D01*
G01*
Y108047D02*
G03*
X88996Y108087I-39J0D01*
G01*
X45197Y82004D02*
G03*
X45236Y81965I39J0D01*
G01*
X46220D02*
G03*
X46260Y82004I-0J39D01*
G01*
X78661D02*
G03*
X78701Y81965I39J0D01*
G01*
X79685D02*
G03*
X79724Y82004I0J39D01*
G01*
X26083Y98244D02*
G03*
X26043Y98205I-0J-39D01*
G01*
Y97220D02*
G03*
X26083Y97181I39J0D01*
G01*
X57008Y82004D02*
G03*
X57047Y81965I39J-0D01*
G01*
X58031D02*
G03*
X58071Y82004I0J39D01*
G01*
X26083Y119898D02*
G03*
X26043Y119858I0J-39D01*
G01*
Y118874D02*
G03*
X26083Y118835I39J0D01*
G01*
X36417Y144917D02*
G03*
X36378Y144957I-39J0D01*
G01*
X35394D02*
G03*
X35354Y144917I-0J-39D01*
G01*
X58071D02*
G03*
X58031Y144957I-39J-0D01*
G01*
X57047D02*
G03*
X57008Y144917I0J-39D01*
G01*
X79724D02*
G03*
X79685Y144957I-39J-0D01*
G01*
X78701D02*
G03*
X78661Y144917I-0J-39D01*
G01*
X88996Y118835D02*
G03*
X89035Y118874I-0J39D01*
G01*
Y119858D02*
G03*
X88996Y119898I-39J0D01*
G01*
Y97181D02*
G03*
X89035Y97220I0J39D01*
G01*
Y98205D02*
G03*
X88996Y98244I-39J0D01*
G01*
X35354Y82004D02*
G03*
X35394Y81965I39J0D01*
G01*
X36378D02*
G03*
X36417Y82004I-0J39D01*
G01*
X47165D02*
G03*
X47205Y81965I39J-0D01*
G01*
X48189D02*
G03*
X48228Y82004I-0J39D01*
G01*
X68819D02*
G03*
X68858Y81965I39J0D01*
G01*
X69842D02*
G03*
X69882Y82004I0J39D01*
G01*
X26083Y108087D02*
G03*
X26043Y108047I0J-39D01*
G01*
Y107063D02*
G03*
X26083Y107024I39J0D01*
G01*
Y129740D02*
G03*
X26043Y129701I0J-39D01*
G01*
Y128717D02*
G03*
X26083Y128677I39J0D01*
G01*
X46260Y144917D02*
G03*
X46220Y144957I-39J0D01*
G01*
X45236D02*
G03*
X45197Y144917I-0J-39D01*
G01*
X67913D02*
G03*
X67874Y144957I-39J-0D01*
G01*
X66890D02*
G03*
X66850Y144917I-0J-39D01*
G01*
X88996Y130646D02*
G03*
X89035Y130685I-0J39D01*
G01*
Y131669D02*
G03*
X88996Y131709I-39J0D01*
G01*
Y108992D02*
G03*
X89035Y109031I0J39D01*
G01*
Y110016D02*
G03*
X88996Y110055I-39J0D01*
G01*
X80630Y82004D02*
G03*
X80669Y81965I39J0D01*
G01*
X81653D02*
G03*
X81693Y82004I0J39D01*
G01*
X26083Y96276D02*
G03*
X26043Y96236I-0J-39D01*
G01*
Y95252D02*
G03*
X26083Y95213I39J0D01*
G01*
X58976Y82004D02*
G03*
X59016Y81965I39J-0D01*
G01*
X60000D02*
G03*
X60039Y82004I0J39D01*
G01*
X26083Y117929D02*
G03*
X26043Y117890I0J-39D01*
G01*
Y116906D02*
G03*
X26083Y116866I39J0D01*
G01*
X34449Y144917D02*
G03*
X34409Y144957I-39J-0D01*
G01*
X33425D02*
G03*
X33386Y144917I-0J-39D01*
G01*
X79193Y133146D02*
G03*
X79193Y137083I0J1969D01*
G01*
D02*
G03*
X79193Y133146I0J-1969D01*
G01*
X76693Y142532D02*
Y143096D01*
Y141810D02*
Y142532D01*
Y141020D02*
Y141810D01*
X76732Y144957D02*
X77716D01*
X77756Y141810D02*
Y142532D01*
Y143487D02*
Y144917D01*
Y142532D02*
Y143096D01*
X76693D02*
Y143487D01*
Y144917D01*
X77756Y143096D02*
Y143487D01*
Y141020D02*
Y141810D01*
X86611Y121866D02*
X87174D01*
X85888D02*
X86611D01*
X85098D02*
X85888D01*
X89035Y120843D02*
Y121827D01*
X85888Y120803D02*
X86611D01*
X87566D02*
X88996D01*
X86611D02*
X87174D01*
Y121866D02*
X87566D01*
X88996D01*
X87174Y120803D02*
X87566D01*
X85098D02*
X85888D01*
X86611Y100213D02*
X87174D01*
X85888D02*
X86611D01*
X85098D02*
X85888D01*
X89035Y99189D02*
Y100173D01*
X85888Y99150D02*
X86611D01*
X87566D02*
X88996D01*
X86611D02*
X87174D01*
Y100213D02*
X87566D01*
X88996D01*
X87174Y99150D02*
X87566D01*
X85098D02*
X85888D01*
X38386Y83826D02*
Y84390D01*
Y85112D01*
Y85902D01*
X37362Y81965D02*
X38346D01*
X37323Y84390D02*
Y85112D01*
Y82004D02*
Y83434D01*
Y83826D02*
Y84390D01*
X38386Y83434D02*
Y83826D01*
Y82004D02*
Y83434D01*
X37323D02*
Y83826D01*
Y85112D02*
Y85902D01*
X50197Y83826D02*
Y84390D01*
Y85112D01*
Y85902D01*
X49173Y81965D02*
X50157D01*
X49134Y84390D02*
Y85112D01*
Y82004D02*
Y83434D01*
Y83826D02*
Y84390D01*
X50197Y83434D02*
Y83826D01*
Y82004D02*
Y83434D01*
X49134D02*
Y83826D01*
Y85112D02*
Y85902D01*
X71850Y83826D02*
Y84390D01*
Y85112D01*
Y85902D01*
X70827Y81965D02*
X71811D01*
X70787Y84390D02*
Y85112D01*
Y82004D02*
Y83434D01*
Y83826D02*
Y84390D01*
X71850Y83434D02*
Y83826D01*
Y82004D02*
Y83434D01*
X70787D02*
Y83826D01*
Y85112D02*
Y85902D01*
X27904Y105055D02*
X28468D01*
X29190D01*
X29980D01*
X26043Y105095D02*
Y106079D01*
X28468Y106118D02*
X29190D01*
X26083D02*
X27513D01*
X27904D02*
X28468D01*
X27513Y105055D02*
X27904D01*
X26083D02*
X27513D01*
Y106118D02*
X27904D01*
X29190D02*
X29980D01*
X27904Y126709D02*
X28468D01*
X29190D01*
X29980D01*
X26043Y126748D02*
Y127732D01*
X28468Y127772D02*
X29190D01*
X26083D02*
X27513D01*
X27904D02*
X28468D01*
X27513Y126709D02*
X27904D01*
X26083D02*
X27513D01*
Y127772D02*
X27904D01*
X29190D02*
X29980D01*
X43228Y142532D02*
Y143096D01*
Y141810D02*
Y142532D01*
Y141020D02*
Y141810D01*
X43268Y144957D02*
X44252D01*
X44291Y141810D02*
Y142532D01*
Y143487D02*
Y144917D01*
Y142532D02*
Y143096D01*
X43228D02*
Y143487D01*
Y144917D01*
X44291Y143096D02*
Y143487D01*
Y141020D02*
Y141810D01*
X64882Y142532D02*
Y143096D01*
Y141810D02*
Y142532D01*
Y141020D02*
Y141810D01*
X64921Y144957D02*
X65905D01*
X65945Y141810D02*
Y142532D01*
Y143487D02*
Y144917D01*
Y142532D02*
Y143096D01*
X64882D02*
Y143487D01*
Y144917D01*
X65945Y143096D02*
Y143487D01*
Y141020D02*
Y141810D01*
X86611Y133677D02*
X87174D01*
X85888D02*
X86611D01*
X85098D02*
X85888D01*
X89035Y132654D02*
Y133638D01*
X85888Y132614D02*
X86611D01*
X87566D02*
X88996D01*
X86611D02*
X87174D01*
Y133677D02*
X87566D01*
X88996D01*
X87174Y132614D02*
X87566D01*
X85098D02*
X85888D01*
X86611Y112024D02*
X87174D01*
X85888D02*
X86611D01*
X85098D02*
X85888D01*
X89035Y111000D02*
Y111984D01*
X85888Y110961D02*
X86611D01*
X87566D02*
X88996D01*
X86611D02*
X87174D01*
Y112024D02*
X87566D01*
X88996D01*
X87174Y110961D02*
X87566D01*
X85098D02*
X85888D01*
X86611Y90370D02*
X87174D01*
X85888D02*
X86611D01*
X85098D02*
X85888D01*
X89035Y89346D02*
Y90331D01*
X85888Y89307D02*
X86611D01*
X87566D02*
X88996D01*
X86611D02*
X87174D01*
Y90370D02*
X87566D01*
X88996D01*
X87174Y89307D02*
X87566D01*
X85098D02*
X85888D01*
X27904Y93244D02*
X28468D01*
X29190D01*
X29980D01*
X26043Y93283D02*
Y94268D01*
X28468Y94307D02*
X29190D01*
X26083D02*
X27513D01*
X27904D02*
X28468D01*
X27513Y93244D02*
X27904D01*
X26083D02*
X27513D01*
Y94307D02*
X27904D01*
X29190D02*
X29980D01*
X62008Y83826D02*
Y84390D01*
Y85112D01*
Y85902D01*
X60984Y81965D02*
X61968D01*
X60945Y84390D02*
Y85112D01*
Y82004D02*
Y83434D01*
Y83826D02*
Y84390D01*
X62008Y83434D02*
Y83826D01*
Y82004D02*
Y83434D01*
X60945D02*
Y83826D01*
Y85112D02*
Y85902D01*
X27904Y114898D02*
X28468D01*
X29190D01*
X29980D01*
X26043Y114937D02*
Y115921D01*
X28468Y115961D02*
X29190D01*
X26083D02*
X27513D01*
X27904D02*
X28468D01*
X27513Y114898D02*
X27904D01*
X26083D02*
X27513D01*
Y115961D02*
X27904D01*
X29190D02*
X29980D01*
X27904Y136551D02*
X28468D01*
X29190D01*
X29980D01*
X26043Y136591D02*
Y137575D01*
X28468Y137614D02*
X29190D01*
X26083D02*
X27513D01*
X27904D02*
X28468D01*
X27513Y136551D02*
X27904D01*
X26083D02*
X27513D01*
Y137614D02*
X27904D01*
X29190D02*
X29980D01*
X53071Y142532D02*
Y143096D01*
Y141810D02*
Y142532D01*
Y141020D02*
Y141810D01*
X53110Y144957D02*
X54094D01*
X54134Y141810D02*
Y142532D01*
Y143487D02*
Y144917D01*
Y142532D02*
Y143096D01*
X53071D02*
Y143487D01*
Y144917D01*
X54134Y143096D02*
Y143487D01*
Y141020D02*
Y141810D01*
X74724Y142532D02*
Y143096D01*
Y141810D02*
Y142532D01*
Y141020D02*
Y141810D01*
X74764Y144957D02*
X75748D01*
X75787Y141810D02*
Y142532D01*
Y143487D02*
Y144917D01*
Y142532D02*
Y143096D01*
X74724D02*
Y143487D01*
Y144917D01*
X75787Y143096D02*
Y143487D01*
Y141020D02*
Y141810D01*
X86611Y123835D02*
X87174D01*
X85888D02*
X86611D01*
X85098D02*
X85888D01*
X89035Y122811D02*
Y123795D01*
X85888Y122772D02*
X86611D01*
X87566D02*
X88996D01*
X86611D02*
X87174D01*
Y123835D02*
X87566D01*
X88996D01*
X87174Y122772D02*
X87566D01*
X85098D02*
X85888D01*
X86611Y102181D02*
X87174D01*
X85888D02*
X86611D01*
X85098D02*
X85888D01*
X89035Y101157D02*
Y102142D01*
X85888Y101118D02*
X86611D01*
X87566D02*
X88996D01*
X86611D02*
X87174D01*
Y102181D02*
X87566D01*
X88996D01*
X87174Y101118D02*
X87566D01*
X85098D02*
X85888D01*
X40354Y83826D02*
Y84390D01*
Y85112D01*
Y85902D01*
X39331Y81965D02*
X40315D01*
X39291Y84390D02*
Y85112D01*
Y82004D02*
Y83434D01*
Y83826D02*
Y84390D01*
X40354Y83434D02*
Y83826D01*
Y82004D02*
Y83434D01*
X39291D02*
Y83826D01*
Y85112D02*
Y85902D01*
X52165Y83826D02*
Y84390D01*
Y85112D01*
Y85902D01*
X51142Y81965D02*
X52126D01*
X51102Y84390D02*
Y85112D01*
Y82004D02*
Y83434D01*
Y83826D02*
Y84390D01*
X52165Y83434D02*
Y83826D01*
Y82004D02*
Y83434D01*
X51102D02*
Y83826D01*
Y85112D02*
Y85902D01*
X73819Y83826D02*
Y84390D01*
Y85112D01*
Y85902D01*
X72795Y81965D02*
X73779D01*
X72756Y84390D02*
Y85112D01*
Y82004D02*
Y83434D01*
Y83826D02*
Y84390D01*
X73819Y83434D02*
Y83826D01*
Y82004D02*
Y83434D01*
X72756D02*
Y83826D01*
Y85112D02*
Y85902D01*
X27904Y103087D02*
X28468D01*
X29190D01*
X29980D01*
X26043Y103126D02*
Y104110D01*
X28468Y104150D02*
X29190D01*
X26083D02*
X27513D01*
X27904D02*
X28468D01*
X27513Y103087D02*
X27904D01*
X26083D02*
X27513D01*
Y104150D02*
X27904D01*
X29190D02*
X29980D01*
X27904Y124740D02*
X28468D01*
X29190D01*
X29980D01*
X26043Y124780D02*
Y125764D01*
X28468Y125803D02*
X29190D01*
X26083D02*
X27513D01*
X27904D02*
X28468D01*
X27513Y124740D02*
X27904D01*
X26083D02*
X27513D01*
Y125803D02*
X27904D01*
X29190D02*
X29980D01*
X41260Y142532D02*
Y143096D01*
Y141810D02*
Y142532D01*
Y141020D02*
Y141810D01*
X41299Y144957D02*
X42283D01*
X42323Y141810D02*
Y142532D01*
Y143487D02*
Y144917D01*
Y142532D02*
Y143096D01*
X41260D02*
Y143487D01*
Y144917D01*
X42323Y143096D02*
Y143487D01*
Y141020D02*
Y141810D01*
X62913Y142532D02*
Y143096D01*
Y141810D02*
Y142532D01*
Y141020D02*
Y141810D01*
X62953Y144957D02*
X63937D01*
X63976Y141810D02*
Y142532D01*
Y143487D02*
Y144917D01*
Y142532D02*
Y143096D01*
X62913D02*
Y143487D01*
Y144917D01*
X63976Y143096D02*
Y143487D01*
Y141020D02*
Y141810D01*
X86611Y135646D02*
X87174D01*
X85888D02*
X86611D01*
X85098D02*
X85888D01*
X89035Y134622D02*
Y135606D01*
X85888Y134583D02*
X86611D01*
X87566D02*
X88996D01*
X86611D02*
X87174D01*
Y135646D02*
X87566D01*
X88996D01*
X87174Y134583D02*
X87566D01*
X85098D02*
X85888D01*
X86611Y113992D02*
X87174D01*
X85888D02*
X86611D01*
X85098D02*
X85888D01*
X89035Y112969D02*
Y113953D01*
X85888Y112929D02*
X86611D01*
X87566D02*
X88996D01*
X86611D02*
X87174D01*
Y113992D02*
X87566D01*
X88996D01*
X87174Y112929D02*
X87566D01*
X85098D02*
X85888D01*
X86611Y92339D02*
X87174D01*
X85888D02*
X86611D01*
X85098D02*
X85888D01*
X89035Y91315D02*
Y92299D01*
X85888Y91276D02*
X86611D01*
X87566D02*
X88996D01*
X86611D02*
X87174D01*
Y92339D02*
X87566D01*
X88996D01*
X87174Y91276D02*
X87566D01*
X85098D02*
X85888D01*
X27904D02*
X28468D01*
X29190D01*
X29980D01*
X26043Y91315D02*
Y92299D01*
X28468Y92339D02*
X29190D01*
X26083D02*
X27513D01*
X27904D02*
X28468D01*
X27513Y91276D02*
X27904D01*
X26083D02*
X27513D01*
Y92339D02*
X27904D01*
X29190D02*
X29980D01*
X63976Y83826D02*
Y84390D01*
Y85112D01*
Y85902D01*
X62953Y81965D02*
X63937D01*
X62913Y84390D02*
Y85112D01*
Y82004D02*
Y83434D01*
Y83826D02*
Y84390D01*
X63976Y83434D02*
Y83826D01*
Y82004D02*
Y83434D01*
X62913D02*
Y83826D01*
Y85112D02*
Y85902D01*
X27904Y112929D02*
X28468D01*
X29190D01*
X29980D01*
X26043Y112969D02*
Y113953D01*
X28468Y113992D02*
X29190D01*
X26083D02*
X27513D01*
X27904D02*
X28468D01*
X27513Y112929D02*
X27904D01*
X26083D02*
X27513D01*
Y113992D02*
X27904D01*
X29190D02*
X29980D01*
X27904Y134583D02*
X28468D01*
X29190D01*
X29980D01*
X26043Y134622D02*
Y135606D01*
X28468Y135646D02*
X29190D01*
X26083D02*
X27513D01*
X27904D02*
X28468D01*
X27513Y134583D02*
X27904D01*
X26083D02*
X27513D01*
Y135646D02*
X27904D01*
X29190D02*
X29980D01*
X51102Y142532D02*
Y143096D01*
Y141810D02*
Y142532D01*
Y141020D02*
Y141810D01*
X51142Y144957D02*
X52126D01*
X52165Y141810D02*
Y142532D01*
Y143487D02*
Y144917D01*
Y142532D02*
Y143096D01*
X51102D02*
Y143487D01*
Y144917D01*
X52165Y143096D02*
Y143487D01*
Y141020D02*
Y141810D01*
X72756Y142532D02*
Y143096D01*
Y141810D02*
Y142532D01*
Y141020D02*
Y141810D01*
X72795Y144957D02*
X73779D01*
X73819Y141810D02*
Y142532D01*
Y143487D02*
Y144917D01*
Y142532D02*
Y143096D01*
X72756D02*
Y143487D01*
Y144917D01*
X73819Y143096D02*
Y143487D01*
Y141020D02*
Y141810D01*
X86611Y125803D02*
X87174D01*
X85888D02*
X86611D01*
X85098D02*
X85888D01*
X89035Y124780D02*
Y125764D01*
X85888Y124740D02*
X86611D01*
X87566D02*
X88996D01*
X86611D02*
X87174D01*
Y125803D02*
X87566D01*
X88996D01*
X87174Y124740D02*
X87566D01*
X85098D02*
X85888D01*
X86611Y104150D02*
X87174D01*
X85888D02*
X86611D01*
X85098D02*
X85888D01*
X89035Y103126D02*
Y104110D01*
X85888Y103087D02*
X86611D01*
X87566D02*
X88996D01*
X86611D02*
X87174D01*
Y104150D02*
X87566D01*
X88996D01*
X87174Y103087D02*
X87566D01*
X85098D02*
X85888D01*
X42323Y83826D02*
Y84390D01*
Y85112D01*
Y85902D01*
X41299Y81965D02*
X42283D01*
X41260Y84390D02*
Y85112D01*
Y82004D02*
Y83434D01*
Y83826D02*
Y84390D01*
X42323Y83434D02*
Y83826D01*
Y82004D02*
Y83434D01*
X41260D02*
Y83826D01*
Y85112D02*
Y85902D01*
X54134Y83826D02*
Y84390D01*
Y85112D01*
Y85902D01*
X53110Y81965D02*
X54094D01*
X53071Y84390D02*
Y85112D01*
Y82004D02*
Y83434D01*
Y83826D02*
Y84390D01*
X54134Y83434D02*
Y83826D01*
Y82004D02*
Y83434D01*
X53071D02*
Y83826D01*
Y85112D02*
Y85902D01*
X75787Y83826D02*
Y84390D01*
Y85112D01*
Y85902D01*
X74764Y81965D02*
X75748D01*
X74724Y84390D02*
Y85112D01*
Y82004D02*
Y83434D01*
Y83826D02*
Y84390D01*
X75787Y83434D02*
Y83826D01*
Y82004D02*
Y83434D01*
X74724D02*
Y83826D01*
Y85112D02*
Y85902D01*
X27904Y101118D02*
X28468D01*
X29190D01*
X29980D01*
X26043Y101157D02*
Y102142D01*
X28468Y102181D02*
X29190D01*
X26083D02*
X27513D01*
X27904D02*
X28468D01*
X27513Y101118D02*
X27904D01*
X26083D02*
X27513D01*
Y102181D02*
X27904D01*
X29190D02*
X29980D01*
X27904Y122772D02*
X28468D01*
X29190D01*
X29980D01*
X26043Y122811D02*
Y123795D01*
X28468Y123835D02*
X29190D01*
X26083D02*
X27513D01*
X27904D02*
X28468D01*
X27513Y122772D02*
X27904D01*
X26083D02*
X27513D01*
Y123835D02*
X27904D01*
X29190D02*
X29980D01*
X39291Y142532D02*
Y143096D01*
Y141810D02*
Y142532D01*
Y141020D02*
Y141810D01*
X39331Y144957D02*
X40315D01*
X40354Y141810D02*
Y142532D01*
Y143487D02*
Y144917D01*
Y142532D02*
Y143096D01*
X39291D02*
Y143487D01*
Y144917D01*
X40354Y143096D02*
Y143487D01*
Y141020D02*
Y141810D01*
X60945Y142532D02*
Y143096D01*
Y141810D02*
Y142532D01*
Y141020D02*
Y141810D01*
X60984Y144957D02*
X61968D01*
X62008Y141810D02*
Y142532D01*
Y143487D02*
Y144917D01*
Y142532D02*
Y143096D01*
X60945D02*
Y143487D01*
Y144917D01*
X62008Y143096D02*
Y143487D01*
Y141020D02*
Y141810D01*
X86611Y137614D02*
X87174D01*
X85888D02*
X86611D01*
X85098D02*
X85888D01*
X89035Y136591D02*
Y137575D01*
X85888Y136551D02*
X86611D01*
X87566D02*
X88996D01*
X86611D02*
X87174D01*
Y137614D02*
X87566D01*
X88996D01*
X87174Y136551D02*
X87566D01*
X85098D02*
X85888D01*
X86611Y115961D02*
X87174D01*
X85888D02*
X86611D01*
X85098D02*
X85888D01*
X89035Y114937D02*
Y115921D01*
X85888Y114898D02*
X86611D01*
X87566D02*
X88996D01*
X86611D02*
X87174D01*
Y115961D02*
X87566D01*
X88996D01*
X87174Y114898D02*
X87566D01*
X85098D02*
X85888D01*
X86611Y94307D02*
X87174D01*
X85888D02*
X86611D01*
X85098D02*
X85888D01*
X89035Y93283D02*
Y94268D01*
X85888Y93244D02*
X86611D01*
X87566D02*
X88996D01*
X86611D02*
X87174D01*
Y94307D02*
X87566D01*
X88996D01*
X87174Y93244D02*
X87566D01*
X85098D02*
X85888D01*
X27904Y89307D02*
X28468D01*
X29190D01*
X29980D01*
X26043Y89346D02*
Y90331D01*
X28468Y90370D02*
X29190D01*
X26083D02*
X27513D01*
X27904D02*
X28468D01*
X27513Y89307D02*
X27904D01*
X26083D02*
X27513D01*
Y90370D02*
X27904D01*
X29190D02*
X29980D01*
X65945Y83826D02*
Y84390D01*
Y85112D01*
Y85902D01*
X64921Y81965D02*
X65905D01*
X64882Y84390D02*
Y85112D01*
Y82004D02*
Y83434D01*
Y83826D02*
Y84390D01*
X65945Y83434D02*
Y83826D01*
Y82004D02*
Y83434D01*
X64882D02*
Y83826D01*
Y85112D02*
Y85902D01*
X27904Y110961D02*
X28468D01*
X29190D01*
X29980D01*
X26043Y111000D02*
Y111984D01*
X28468Y112024D02*
X29190D01*
X26083D02*
X27513D01*
X27904D02*
X28468D01*
X27513Y110961D02*
X27904D01*
X26083D02*
X27513D01*
Y112024D02*
X27904D01*
X29190D02*
X29980D01*
X55039Y142532D02*
Y143096D01*
Y141810D02*
Y142532D01*
Y141020D02*
Y141810D01*
X55079Y144957D02*
X56063D01*
X56102Y141810D02*
Y142532D01*
Y143487D02*
Y144917D01*
Y142532D02*
Y143096D01*
X55039D02*
Y143487D01*
Y144917D01*
X56102Y143096D02*
Y143487D01*
Y141020D02*
Y141810D01*
X27904Y132614D02*
X28468D01*
X29190D01*
X29980D01*
X26043Y132654D02*
Y133638D01*
X28468Y133677D02*
X29190D01*
X26083D02*
X27513D01*
X27904D02*
X28468D01*
X27513Y132614D02*
X27904D01*
X26083D02*
X27513D01*
Y133677D02*
X27904D01*
X29190D02*
X29980D01*
X49134Y142532D02*
Y143096D01*
Y141810D02*
Y142532D01*
Y141020D02*
Y141810D01*
X49173Y144957D02*
X50157D01*
X50197Y141810D02*
Y142532D01*
Y143487D02*
Y144917D01*
Y142532D02*
Y143096D01*
X49134D02*
Y143487D01*
Y144917D01*
X50197Y143096D02*
Y143487D01*
Y141020D02*
Y141810D01*
X70787Y142532D02*
Y143096D01*
Y141810D02*
Y142532D01*
Y141020D02*
Y141810D01*
X70827Y144957D02*
X71811D01*
X71850Y141810D02*
Y142532D01*
Y143487D02*
Y144917D01*
Y142532D02*
Y143096D01*
X70787D02*
Y143487D01*
Y144917D01*
X71850Y143096D02*
Y143487D01*
Y141020D02*
Y141810D01*
X86611Y127772D02*
X87174D01*
X85888D02*
X86611D01*
X85098D02*
X85888D01*
X89035Y126748D02*
Y127732D01*
X85888Y126709D02*
X86611D01*
X87566D02*
X88996D01*
X86611D02*
X87174D01*
Y127772D02*
X87566D01*
X88996D01*
X87174Y126709D02*
X87566D01*
X85098D02*
X85888D01*
X86611Y106118D02*
X87174D01*
X85888D02*
X86611D01*
X85098D02*
X85888D01*
X89035Y105095D02*
Y106079D01*
X85888Y105055D02*
X86611D01*
X87566D02*
X88996D01*
X86611D02*
X87174D01*
Y106118D02*
X87566D01*
X88996D01*
X87174Y105055D02*
X87566D01*
X85098D02*
X85888D01*
X44291Y83826D02*
Y84390D01*
Y85112D01*
Y85902D01*
X43268Y81965D02*
X44252D01*
X43228Y84390D02*
Y85112D01*
Y82004D02*
Y83434D01*
Y83826D02*
Y84390D01*
X44291Y83434D02*
Y83826D01*
Y82004D02*
Y83434D01*
X43228D02*
Y83826D01*
Y85112D02*
Y85902D01*
X56102Y83826D02*
Y84390D01*
Y85112D01*
Y85902D01*
X55079Y81965D02*
X56063D01*
X55039Y84390D02*
Y85112D01*
Y82004D02*
Y83434D01*
Y83826D02*
Y84390D01*
X56102Y83434D02*
Y83826D01*
Y82004D02*
Y83434D01*
X55039D02*
Y83826D01*
Y85112D02*
Y85902D01*
X77756Y83826D02*
Y84390D01*
Y85112D01*
Y85902D01*
X76732Y81965D02*
X77716D01*
X76693Y84390D02*
Y85112D01*
Y82004D02*
Y83434D01*
Y83826D02*
Y84390D01*
X77756Y83434D02*
Y83826D01*
Y82004D02*
Y83434D01*
X76693D02*
Y83826D01*
Y85112D02*
Y85902D01*
X27904Y99150D02*
X28468D01*
X29190D01*
X29980D01*
X26043Y99189D02*
Y100173D01*
X28468Y100213D02*
X29190D01*
X26083D02*
X27513D01*
X27904D02*
X28468D01*
X27513Y99150D02*
X27904D01*
X26083D02*
X27513D01*
Y100213D02*
X27904D01*
X29190D02*
X29980D01*
X27904Y120803D02*
X28468D01*
X29190D01*
X29980D01*
X26043Y120843D02*
Y121827D01*
X28468Y121866D02*
X29190D01*
X26083D02*
X27513D01*
X27904D02*
X28468D01*
X27513Y120803D02*
X27904D01*
X26083D02*
X27513D01*
Y121866D02*
X27904D01*
X29190D02*
X29980D01*
X37323Y142532D02*
Y143096D01*
Y141810D02*
Y142532D01*
Y141020D02*
Y141810D01*
X37362Y144957D02*
X38346D01*
X38386Y141810D02*
Y142532D01*
Y143487D02*
Y144917D01*
Y142532D02*
Y143096D01*
X37323D02*
Y143487D01*
Y144917D01*
X38386Y143096D02*
Y143487D01*
Y141020D02*
Y141810D01*
X58976Y142532D02*
Y143096D01*
Y141810D02*
Y142532D01*
Y141020D02*
Y141810D01*
X59016Y144957D02*
X60000D01*
X60039Y141810D02*
Y142532D01*
Y143487D02*
Y144917D01*
Y142532D02*
Y143096D01*
X58976D02*
Y143487D01*
Y144917D01*
X60039Y143096D02*
Y143487D01*
Y141020D02*
Y141810D01*
X80630Y142532D02*
Y143096D01*
Y141810D02*
Y142532D01*
Y141020D02*
Y141810D01*
X80669Y144957D02*
X81653D01*
X81693Y141810D02*
Y142532D01*
Y143487D02*
Y144917D01*
Y142532D02*
Y143096D01*
X80630D02*
Y143487D01*
Y144917D01*
X81693Y143096D02*
Y143487D01*
Y141020D02*
Y141810D01*
X86611Y117929D02*
X87174D01*
X85888D02*
X86611D01*
X85098D02*
X85888D01*
X89035Y116906D02*
Y117890D01*
X85888Y116866D02*
X86611D01*
X87566D02*
X88996D01*
X86611D02*
X87174D01*
Y117929D02*
X87566D01*
X88996D01*
X87174Y116866D02*
X87566D01*
X85098D02*
X85888D01*
X86611Y96276D02*
X87174D01*
X85888D02*
X86611D01*
X85098D02*
X85888D01*
X89035Y95252D02*
Y96236D01*
X85888Y95213D02*
X86611D01*
X87566D02*
X88996D01*
X86611D02*
X87174D01*
Y96276D02*
X87566D01*
X88996D01*
X87174Y95213D02*
X87566D01*
X85098D02*
X85888D01*
X34449Y83826D02*
Y84390D01*
Y85112D01*
Y85902D01*
X33425Y81965D02*
X34409D01*
X33386Y84390D02*
Y85112D01*
Y82004D02*
Y83434D01*
Y83826D02*
Y84390D01*
X34449Y83434D02*
Y83826D01*
Y82004D02*
Y83434D01*
X33386D02*
Y83826D01*
Y85112D02*
Y85902D01*
X67913Y83826D02*
Y84390D01*
Y85112D01*
Y85902D01*
X66890Y81965D02*
X67874D01*
X66850Y84390D02*
Y85112D01*
Y82004D02*
Y83434D01*
Y83826D02*
Y84390D01*
X67913Y83434D02*
Y83826D01*
Y82004D02*
Y83434D01*
X66850D02*
Y83826D01*
Y85112D02*
Y85902D01*
X27904Y108992D02*
X28468D01*
X29190D01*
X29980D01*
X26043Y109031D02*
Y110016D01*
X28468Y110055D02*
X29190D01*
X26083D02*
X27513D01*
X27904D02*
X28468D01*
X27513Y108992D02*
X27904D01*
X26083D02*
X27513D01*
Y110055D02*
X27904D01*
X29190D02*
X29980D01*
X27904Y130646D02*
X28468D01*
X29190D01*
X29980D01*
X26043Y130685D02*
Y131669D01*
X28468Y131709D02*
X29190D01*
X26083D02*
X27513D01*
X27904D02*
X28468D01*
X27513Y130646D02*
X27904D01*
X26083D02*
X27513D01*
Y131709D02*
X27904D01*
X29190D02*
X29980D01*
X47165Y142532D02*
Y143096D01*
Y141810D02*
Y142532D01*
Y141020D02*
Y141810D01*
X47205Y144957D02*
X48189D01*
X48228Y141810D02*
Y142532D01*
Y143487D02*
Y144917D01*
Y142532D02*
Y143096D01*
X47165D02*
Y143487D01*
Y144917D01*
X48228Y143096D02*
Y143487D01*
Y141020D02*
Y141810D01*
X68819Y142532D02*
Y143096D01*
Y141810D02*
Y142532D01*
Y141020D02*
Y141810D01*
X68858Y144957D02*
X69842D01*
X69882Y141810D02*
Y142532D01*
Y143487D02*
Y144917D01*
Y142532D02*
Y143096D01*
X68819D02*
Y143487D01*
Y144917D01*
X69882Y143096D02*
Y143487D01*
Y141020D02*
Y141810D01*
X86611Y129740D02*
X87174D01*
X85888D02*
X86611D01*
X85098D02*
X85888D01*
X89035Y128717D02*
Y129701D01*
X85888Y128677D02*
X86611D01*
X87566D02*
X88996D01*
X86611D02*
X87174D01*
Y129740D02*
X87566D01*
X88996D01*
X87174Y128677D02*
X87566D01*
X85098D02*
X85888D01*
X86611Y108087D02*
X87174D01*
X85888D02*
X86611D01*
X85098D02*
X85888D01*
X89035Y107063D02*
Y108047D01*
X85888Y107024D02*
X86611D01*
X87566D02*
X88996D01*
X86611D02*
X87174D01*
Y108087D02*
X87566D01*
X88996D01*
X87174Y107024D02*
X87566D01*
X85098D02*
X85888D01*
X46260Y83826D02*
Y84390D01*
Y85112D01*
Y85902D01*
X45236Y81965D02*
X46220D01*
X45197Y84390D02*
Y85112D01*
Y82004D02*
Y83434D01*
Y83826D02*
Y84390D01*
X46260Y83434D02*
Y83826D01*
Y82004D02*
Y83434D01*
X45197D02*
Y83826D01*
Y85112D02*
Y85902D01*
X79724Y83826D02*
Y84390D01*
Y85112D01*
Y85902D01*
X78701Y81965D02*
X79685D01*
X78661Y84390D02*
Y85112D01*
Y82004D02*
Y83434D01*
Y83826D02*
Y84390D01*
X79724Y83434D02*
Y83826D01*
Y82004D02*
Y83434D01*
X78661D02*
Y83826D01*
Y85112D02*
Y85902D01*
X27904Y97181D02*
X28468D01*
X29190D01*
X29980D01*
X26043Y97220D02*
Y98205D01*
X28468Y98244D02*
X29190D01*
X26083D02*
X27513D01*
X27904D02*
X28468D01*
X27513Y97181D02*
X27904D01*
X26083D02*
X27513D01*
Y98244D02*
X27904D01*
X29190D02*
X29980D01*
X58071Y83826D02*
Y84390D01*
Y85112D01*
Y85902D01*
X57047Y81965D02*
X58031D01*
X57008Y84390D02*
Y85112D01*
Y82004D02*
Y83434D01*
Y83826D02*
Y84390D01*
X58071Y83434D02*
Y83826D01*
Y82004D02*
Y83434D01*
X57008D02*
Y83826D01*
Y85112D02*
Y85902D01*
X27904Y118835D02*
X28468D01*
X29190D01*
X29980D01*
X26043Y118874D02*
Y119858D01*
X28468Y119898D02*
X29190D01*
X26083D02*
X27513D01*
X27904D02*
X28468D01*
X27513Y118835D02*
X27904D01*
X26083D02*
X27513D01*
Y119898D02*
X27904D01*
X29190D02*
X29980D01*
X35354Y142532D02*
Y143096D01*
Y141810D02*
Y142532D01*
Y141020D02*
Y141810D01*
X35394Y144957D02*
X36378D01*
X36417Y141810D02*
Y142532D01*
Y143487D02*
Y144917D01*
Y142532D02*
Y143096D01*
X35354D02*
Y143487D01*
Y144917D01*
X36417Y143096D02*
Y143487D01*
Y141020D02*
Y141810D01*
X57008Y142532D02*
Y143096D01*
Y141810D02*
Y142532D01*
Y141020D02*
Y141810D01*
X57047Y144957D02*
X58031D01*
X58071Y141810D02*
Y142532D01*
Y143487D02*
Y144917D01*
Y142532D02*
Y143096D01*
X57008D02*
Y143487D01*
Y144917D01*
X58071Y143096D02*
Y143487D01*
Y141020D02*
Y141810D01*
X78661Y142532D02*
Y143096D01*
Y141810D02*
Y142532D01*
Y141020D02*
Y141810D01*
X78701Y144957D02*
X79685D01*
X79724Y141810D02*
Y142532D01*
Y143487D02*
Y144917D01*
Y142532D02*
Y143096D01*
X78661D02*
Y143487D01*
Y144917D01*
X79724Y143096D02*
Y143487D01*
Y141020D02*
Y141810D01*
X86611Y119898D02*
X87174D01*
X85888D02*
X86611D01*
X85098D02*
X85888D01*
X89035Y118874D02*
Y119858D01*
X85888Y118835D02*
X86611D01*
X87566D02*
X88996D01*
X86611D02*
X87174D01*
Y119898D02*
X87566D01*
X88996D01*
X87174Y118835D02*
X87566D01*
X85098D02*
X85888D01*
X86611Y98244D02*
X87174D01*
X85888D02*
X86611D01*
X85098D02*
X85888D01*
X89035Y97220D02*
Y98205D01*
X85888Y97181D02*
X86611D01*
X87566D02*
X88996D01*
X86611D02*
X87174D01*
Y98244D02*
X87566D01*
X88996D01*
X87174Y97181D02*
X87566D01*
X85098D02*
X85888D01*
X36417Y83826D02*
Y84390D01*
Y85112D01*
Y85902D01*
X35394Y81965D02*
X36378D01*
X35354Y84390D02*
Y85112D01*
Y82004D02*
Y83434D01*
Y83826D02*
Y84390D01*
X36417Y83434D02*
Y83826D01*
Y82004D02*
Y83434D01*
X35354D02*
Y83826D01*
Y85112D02*
Y85902D01*
X48228Y83826D02*
Y84390D01*
Y85112D01*
Y85902D01*
X47205Y81965D02*
X48189D01*
X47165Y84390D02*
Y85112D01*
Y82004D02*
Y83434D01*
Y83826D02*
Y84390D01*
X48228Y83434D02*
Y83826D01*
Y82004D02*
Y83434D01*
X47165D02*
Y83826D01*
Y85112D02*
Y85902D01*
X69882Y83826D02*
Y84390D01*
Y85112D01*
Y85902D01*
X68858Y81965D02*
X69842D01*
X68819Y84390D02*
Y85112D01*
Y82004D02*
Y83434D01*
Y83826D02*
Y84390D01*
X69882Y83434D02*
Y83826D01*
Y82004D02*
Y83434D01*
X68819D02*
Y83826D01*
Y85112D02*
Y85902D01*
X27904Y107024D02*
X28468D01*
X29190D01*
X29980D01*
X26043Y107063D02*
Y108047D01*
X28468Y108087D02*
X29190D01*
X26083D02*
X27513D01*
X27904D02*
X28468D01*
X27513Y107024D02*
X27904D01*
X26083D02*
X27513D01*
Y108087D02*
X27904D01*
X29190D02*
X29980D01*
X27904Y128677D02*
X28468D01*
X29190D01*
X29980D01*
X26043Y128717D02*
Y129701D01*
X28468Y129740D02*
X29190D01*
X26083D02*
X27513D01*
X27904D02*
X28468D01*
X27513Y128677D02*
X27904D01*
X26083D02*
X27513D01*
Y129740D02*
X27904D01*
X29190D02*
X29980D01*
X45197Y142532D02*
Y143096D01*
Y141810D02*
Y142532D01*
Y141020D02*
Y141810D01*
X45236Y144957D02*
X46220D01*
X46260Y141810D02*
Y142532D01*
Y143487D02*
Y144917D01*
Y142532D02*
Y143096D01*
X45197D02*
Y143487D01*
Y144917D01*
X46260Y143096D02*
Y143487D01*
Y141020D02*
Y141810D01*
X66850Y142532D02*
Y143096D01*
Y141810D02*
Y142532D01*
Y141020D02*
Y141810D01*
X66890Y144957D02*
X67874D01*
X67913Y141810D02*
Y142532D01*
Y143487D02*
Y144917D01*
Y142532D02*
Y143096D01*
X66850D02*
Y143487D01*
Y144917D01*
X67913Y143096D02*
Y143487D01*
Y141020D02*
Y141810D01*
X86611Y131709D02*
X87174D01*
X85888D02*
X86611D01*
X85098D02*
X85888D01*
X89035Y130685D02*
Y131669D01*
X85888Y130646D02*
X86611D01*
X87566D02*
X88996D01*
X86611D02*
X87174D01*
Y131709D02*
X87566D01*
X88996D01*
X87174Y130646D02*
X87566D01*
X85098D02*
X85888D01*
X86611Y110055D02*
X87174D01*
X85888D02*
X86611D01*
X85098D02*
X85888D01*
X89035Y109031D02*
Y110016D01*
X85888Y108992D02*
X86611D01*
X87566D02*
X88996D01*
X86611D02*
X87174D01*
Y110055D02*
X87566D01*
X88996D01*
X87174Y108992D02*
X87566D01*
X85098D02*
X85888D01*
X81693Y83826D02*
Y84390D01*
Y85112D01*
Y85902D01*
X80669Y81965D02*
X81653D01*
X80630Y84390D02*
Y85112D01*
Y82004D02*
Y83434D01*
Y83826D02*
Y84390D01*
X81693Y83434D02*
Y83826D01*
Y82004D02*
Y83434D01*
X80630D02*
Y83826D01*
Y85112D02*
Y85902D01*
X27904Y95213D02*
X28468D01*
X29190D01*
X29980D01*
X26043Y95252D02*
Y96236D01*
X28468Y96276D02*
X29190D01*
X26083D02*
X27513D01*
X27904D02*
X28468D01*
X27513Y95213D02*
X27904D01*
X26083D02*
X27513D01*
Y96276D02*
X27904D01*
X29190D02*
X29980D01*
X60039Y83826D02*
Y84390D01*
Y85112D01*
Y85902D01*
X59016Y81965D02*
X60000D01*
X58976Y84390D02*
Y85112D01*
Y82004D02*
Y83434D01*
Y83826D02*
Y84390D01*
X60039Y83434D02*
Y83826D01*
Y82004D02*
Y83434D01*
X58976D02*
Y83826D01*
Y85112D02*
Y85902D01*
X27904Y116866D02*
X28468D01*
X29190D01*
X29980D01*
X26043Y116906D02*
Y117890D01*
X28468Y117929D02*
X29190D01*
X26083D02*
X27513D01*
X27904D02*
X28468D01*
X27513Y116866D02*
X27904D01*
X26083D02*
X27513D01*
Y117929D02*
X27904D01*
X29190D02*
X29980D01*
X33386Y142532D02*
Y143096D01*
Y141810D02*
Y142532D01*
Y141020D02*
Y141810D01*
X33425Y144957D02*
X34409D01*
X34449Y141810D02*
Y142532D01*
Y143487D02*
Y144917D01*
Y142532D02*
Y143096D01*
X33386D02*
Y143487D01*
Y144917D01*
X34449Y143096D02*
Y143487D01*
Y141020D02*
Y141810D01*
X32193Y140429D02*
X82885D01*
Y86492D02*
X84508Y88115D01*
X31949Y141020D02*
X32193Y140429D01*
X29980Y87870D02*
X31949Y85902D01*
Y141020D02*
X83130D01*
X31949Y85902D02*
X83130D01*
X85098Y87870D01*
X30571Y138807D02*
X32193Y140429D01*
X30571Y88115D02*
Y138807D01*
Y88115D02*
X32193Y86492D01*
X29980Y139051D02*
X30571Y138807D01*
X83130Y141020D02*
X85098Y139051D01*
X82885Y140429D02*
X84508Y138807D01*
X29980Y87870D02*
X30571Y88115D01*
X82885Y140429D02*
X83130Y141020D01*
X29980Y87870D02*
Y139051D01*
X84508Y88115D02*
X85098Y87870D01*
Y139051D01*
X84508Y88115D02*
Y138807D01*
X31949Y85902D02*
X32193Y86492D01*
X84508Y138807D02*
X85098Y139051D01*
X32193Y86492D02*
X82885D01*
X29980Y139051D02*
X31949Y141020D01*
X82885Y86492D02*
X83130Y85902D01*
D69*
X312710Y126693D02*
G03*
X312710Y126693I-1181J0D01*
G01*
X307535Y93461D02*
G03*
X307535Y93461I-1969J0D01*
G01*
X466595Y175303D02*
Y185697D01*
X453406Y175303D02*
Y185697D01*
Y175303D02*
X466595D01*
X453406Y185697D02*
X466595D01*
X467095Y146126D02*
Y156520D01*
X453905Y146126D02*
Y156520D01*
Y146126D02*
X467095D01*
X453905Y156520D02*
X467095D01*
X74646Y86669D02*
Y95331D01*
X80354Y86669D02*
Y95331D01*
X74646D02*
X80354D01*
X74646Y86669D02*
X80354D01*
X56289Y128854D02*
Y137516D01*
X50581Y128854D02*
Y137516D01*
Y128854D02*
X56289D01*
X50581Y137516D02*
X56289D01*
X249646Y56669D02*
Y65331D01*
X255354Y56669D02*
Y65331D01*
X249646D02*
X255354D01*
X249646Y56669D02*
X255354D01*
X136669Y128374D02*
X145331D01*
X136669Y122665D02*
X145331D01*
X136669D02*
Y128374D01*
X145331Y122665D02*
Y128374D01*
X136669Y138354D02*
X145331D01*
X136669Y132646D02*
X145331D01*
X136669D02*
Y138354D01*
X145331Y132646D02*
Y138354D01*
X324619Y124331D02*
Y140669D01*
X308280Y124331D02*
Y140669D01*
X324619D01*
X308280Y124331D02*
X324619D01*
X293304Y151669D02*
Y160331D01*
X287595Y151669D02*
Y160331D01*
X293304D01*
X287595Y151669D02*
X293304D01*
X136669Y108854D02*
X145331D01*
X136669Y103146D02*
X145331D01*
X136669D02*
Y108854D01*
X145331Y103146D02*
Y108854D01*
X207169Y45854D02*
X215831D01*
X207169Y40146D02*
X215831D01*
X207169D02*
Y45854D01*
X215831Y40146D02*
Y45854D01*
X190669D02*
X199331D01*
X190669Y40146D02*
X199331D01*
X190669D02*
Y45854D01*
X199331Y40146D02*
Y45854D01*
X155169Y75854D02*
X163831D01*
X155169Y70146D02*
X163831D01*
X155169D02*
Y75854D01*
X163831Y70146D02*
Y75854D01*
X155169Y65854D02*
X163831D01*
X155169Y60146D02*
X163831D01*
X155169D02*
Y65854D01*
X163831Y60146D02*
Y65854D01*
X174669Y45854D02*
X183331D01*
X174669Y40146D02*
X183331D01*
X174669D02*
Y45854D01*
X183331Y40146D02*
Y45854D01*
X183169Y168146D02*
Y173854D01*
X191831Y168146D02*
Y173854D01*
X183169D02*
X191831D01*
X183169Y168146D02*
X191831D01*
X160976Y151169D02*
X166685D01*
X160976Y159831D02*
X166685D01*
X160976Y151169D02*
Y159831D01*
X166685Y151169D02*
Y159831D01*
X41831Y167146D02*
Y172854D01*
X33169Y167146D02*
Y172854D01*
Y167146D02*
X41831D01*
X33169Y172854D02*
X41831D01*
X33169Y153646D02*
Y159354D01*
X41831Y153646D02*
Y159354D01*
X33169D02*
X41831D01*
X33169Y153646D02*
X41831D01*
X55768Y167756D02*
X64232D01*
X55768Y162244D02*
X64232D01*
X55768D02*
Y167756D01*
X64232Y162244D02*
Y167756D01*
X12146Y87906D02*
Y96567D01*
X17854Y87906D02*
Y96567D01*
X12146Y87906D02*
X17854D01*
X12146Y96567D02*
X17854D01*
X3803Y128094D02*
X14197D01*
X3803Y114906D02*
X14197D01*
Y128094D01*
X3803Y114906D02*
Y128094D01*
X136669Y90854D02*
X145331D01*
X136669Y85146D02*
X145331D01*
X136669D02*
Y90854D01*
X145331Y85146D02*
Y90854D01*
X136669Y118354D02*
X145331D01*
X136669Y112646D02*
X145331D01*
X136669D02*
Y118354D01*
X145331Y112646D02*
Y118354D01*
X136669Y99854D02*
X145331D01*
X136669Y94146D02*
X145331D01*
X136669D02*
Y99854D01*
X145331Y94146D02*
Y99854D01*
X262354Y176669D02*
Y185331D01*
X256646Y176669D02*
Y185331D01*
X262354D01*
X256646Y176669D02*
X262354D01*
X241854D02*
Y185331D01*
X236146Y176669D02*
Y185331D01*
X241854D01*
X236146Y176669D02*
X241854D01*
X260146Y56669D02*
Y65331D01*
X265854Y56669D02*
Y65331D01*
X260146D02*
X265854D01*
X260146Y56669D02*
X265854D01*
X217646D02*
Y65331D01*
X223354Y56669D02*
Y65331D01*
X217646D02*
X223354D01*
X217646Y56669D02*
X223354D01*
X84169Y108461D02*
X92831D01*
X84169Y114169D02*
X92831D01*
X84169Y108461D02*
Y114169D01*
X92831Y108461D02*
Y114169D01*
X241354Y145669D02*
Y154331D01*
X235646Y145669D02*
Y154331D01*
Y145669D02*
X241354D01*
X235646Y154331D02*
X241354D01*
X251354Y145669D02*
Y154331D01*
X245646Y145669D02*
Y154331D01*
Y145669D02*
X251354D01*
X245646Y154331D02*
X251354D01*
X227146Y32169D02*
Y40831D01*
X232854Y32169D02*
Y40831D01*
X227146D02*
X232854D01*
X227146Y32169D02*
X232854D01*
X227146Y56669D02*
Y65331D01*
X232854Y56669D02*
Y65331D01*
X227146D02*
X232854D01*
X227146Y56669D02*
X232854D01*
X329697Y35906D02*
Y49095D01*
X319303Y35906D02*
Y49095D01*
X329697D01*
X319303Y35906D02*
X329697D01*
X311697D02*
Y49095D01*
X301303Y35906D02*
Y49095D01*
X311697D01*
X301303Y35906D02*
X311697D01*
X302024Y59996D02*
Y97004D01*
X329976Y59996D02*
Y97004D01*
X302024D02*
X329976D01*
X302024Y59996D02*
X329976D01*
X284669Y34646D02*
Y40354D01*
X293331Y34646D02*
Y40354D01*
X284669D02*
X293331D01*
X284669Y34646D02*
X293331D01*
X239646Y16831D02*
X245354D01*
X239646Y8169D02*
X245354D01*
Y16831D01*
X239646Y8169D02*
Y16831D01*
X281146Y17378D02*
X286854D01*
X281146Y8716D02*
X286854D01*
Y17378D01*
X281146Y8716D02*
Y17378D01*
X298406Y12303D02*
Y22697D01*
X311595Y12303D02*
Y22697D01*
X298406D02*
X311595D01*
X298406Y12303D02*
X311595D01*
X238146Y56669D02*
Y65331D01*
X243854Y56669D02*
Y65331D01*
X238146D02*
X243854D01*
X238146Y56669D02*
X243854D01*
X221965Y145669D02*
Y154331D01*
X216256Y145669D02*
Y154331D01*
Y145669D02*
X221965D01*
X216256Y154331D02*
X221965D01*
X255405Y7803D02*
X268595D01*
X255405Y18197D02*
X268595D01*
Y7803D02*
Y18197D01*
X255405Y7803D02*
Y18197D01*
X231854Y145669D02*
Y154331D01*
X226146Y145669D02*
Y154331D01*
Y145669D02*
X231854D01*
X226146Y154331D02*
X231854D01*
X266169Y132720D02*
X274831D01*
X266169Y138429D02*
X274831D01*
X266169Y132720D02*
Y138429D01*
X274831Y132720D02*
Y138429D01*
X265169Y115004D02*
X273831D01*
X265169Y120713D02*
X273831D01*
X265169Y115004D02*
Y120713D01*
X273831Y115004D02*
Y120713D01*
X265169Y105646D02*
X273831D01*
X265169Y111354D02*
X273831D01*
X265169Y105646D02*
Y111354D01*
X273831Y105646D02*
Y111354D01*
X265169Y96146D02*
X273831D01*
X265169Y101854D02*
X273831D01*
X265169Y96146D02*
Y101854D01*
X273831Y96146D02*
Y101854D01*
X265169Y87146D02*
X273831D01*
X265169Y92854D02*
X273831D01*
X265169Y87146D02*
Y92854D01*
X273831Y87146D02*
Y92854D01*
X265169Y77646D02*
X273831D01*
X265169Y83354D02*
X273831D01*
X265169Y77646D02*
Y83354D01*
X273831Y77646D02*
Y83354D01*
X285646Y57669D02*
Y66331D01*
X291354Y57669D02*
Y66331D01*
X285646Y57669D02*
X291354D01*
X285646Y66331D02*
X291354D01*
X161181Y114854D02*
X169843D01*
X161181Y109146D02*
X169843D01*
Y114854D01*
X161181Y109146D02*
Y114854D01*
X250146Y22169D02*
Y30831D01*
X255854Y22169D02*
Y30831D01*
X250146D02*
X255854D01*
X250146Y22169D02*
X255854D01*
X251854Y176669D02*
Y185331D01*
X246146Y176669D02*
Y185331D01*
X251854D01*
X246146Y176669D02*
X251854D01*
X343406Y60303D02*
X356594D01*
X343406Y70697D02*
X356594D01*
Y60303D02*
Y70697D01*
X343406Y60303D02*
Y70697D01*
X343905Y78480D02*
X357095D01*
X343905Y88874D02*
X357095D01*
Y78480D02*
Y88874D01*
X343905Y78480D02*
Y88874D01*
Y104917D02*
X357095D01*
X343905Y94524D02*
X357095D01*
X343905D02*
Y104917D01*
X357095Y94524D02*
Y104917D01*
D70*
X228998Y115000D02*
X224833D01*
X224000Y114167D01*
Y112501D01*
X224833Y111668D01*
X228998D01*
X224000Y106669D02*
Y110002D01*
X227332Y106669D01*
X228165D01*
X228998Y107502D01*
Y109169D01*
X228165Y110002D01*
M02*
