G04 Layer_Color=255*
%FSLAX25Y25*%
%MOIN*%
%TF.FileFunction,Pads,Bot*%
%TF.Part,Single*%
G01*
G75*
%TA.AperFunction,SMDPad,CuDef*%
%ADD10R,0.04331X0.05512*%
%ADD11R,0.05512X0.04331*%
%TA.AperFunction,ComponentPad*%
%ADD24C,0.05906*%
%ADD25R,0.05906X0.05906*%
%ADD26C,0.04724*%
G04:AMPARAMS|DCode=27|XSize=40mil|YSize=40mil|CornerRadius=10mil|HoleSize=0mil|Usage=FLASHONLY|Rotation=270.000|XOffset=0mil|YOffset=0mil|HoleType=Round|Shape=RoundedRectangle|*
%AMROUNDEDRECTD27*
21,1,0.04000,0.02000,0,0,270.0*
21,1,0.02000,0.04000,0,0,270.0*
1,1,0.02000,-0.01000,-0.01000*
1,1,0.02000,-0.01000,0.01000*
1,1,0.02000,0.01000,0.01000*
1,1,0.02000,0.01000,-0.01000*
%
%ADD27ROUNDEDRECTD27*%
%ADD28C,0.04000*%
%ADD29R,0.05906X0.05906*%
%ADD30O,0.06000X0.10000*%
%ADD31R,0.06000X0.10000*%
D10*
X105453Y111500D02*
D03*
X99547D02*
D03*
D11*
X77500Y93953D02*
D03*
Y88047D02*
D03*
X53435Y130232D02*
D03*
Y136138D02*
D03*
X222500Y34547D02*
D03*
Y40453D02*
D03*
X194500Y35047D02*
D03*
Y40953D02*
D03*
X203500Y35047D02*
D03*
Y40953D02*
D03*
X199000Y66405D02*
D03*
Y60500D02*
D03*
X208000Y66405D02*
D03*
Y60500D02*
D03*
X193500Y149547D02*
D03*
Y155453D02*
D03*
X202500Y149547D02*
D03*
Y155453D02*
D03*
D24*
X246500Y16500D02*
D03*
X256500D02*
D03*
X266500D02*
D03*
X276500D02*
D03*
X296500D02*
D03*
X286500D02*
D03*
X26500Y195500D02*
D03*
X36500D02*
D03*
X46500D02*
D03*
X56500D02*
D03*
X66500D02*
D03*
X76500D02*
D03*
X86500D02*
D03*
X96500D02*
D03*
X106500D02*
D03*
X116500D02*
D03*
X26500Y205500D02*
D03*
X36500D02*
D03*
X46500D02*
D03*
X56500D02*
D03*
X66500D02*
D03*
X76500D02*
D03*
X86500D02*
D03*
X96500D02*
D03*
X106500D02*
D03*
X26500Y15500D02*
D03*
X36500D02*
D03*
X46500D02*
D03*
X56500D02*
D03*
X66500D02*
D03*
X76500D02*
D03*
X86500D02*
D03*
X96500D02*
D03*
X106500D02*
D03*
X116500D02*
D03*
X26500Y25500D02*
D03*
X36500D02*
D03*
X46500D02*
D03*
X56500D02*
D03*
X66500D02*
D03*
X76500D02*
D03*
X86500D02*
D03*
X96500D02*
D03*
X106500D02*
D03*
X306500Y54000D02*
D03*
Y64000D02*
D03*
Y74000D02*
D03*
Y84000D02*
D03*
Y94000D02*
D03*
Y104000D02*
D03*
Y114000D02*
D03*
X296500Y44000D02*
D03*
Y54000D02*
D03*
Y64000D02*
D03*
Y74000D02*
D03*
Y84000D02*
D03*
Y94000D02*
D03*
Y104000D02*
D03*
Y114000D02*
D03*
X306500Y165000D02*
D03*
Y175000D02*
D03*
Y185000D02*
D03*
Y195000D02*
D03*
X296500Y155000D02*
D03*
Y165000D02*
D03*
Y175000D02*
D03*
Y185000D02*
D03*
Y195000D02*
D03*
X221500Y15500D02*
D03*
X211500Y25500D02*
D03*
Y15500D02*
D03*
X201500Y25500D02*
D03*
Y15500D02*
D03*
X191500Y25500D02*
D03*
Y15500D02*
D03*
Y205500D02*
D03*
X201500Y195500D02*
D03*
Y205500D02*
D03*
X211500Y195500D02*
D03*
Y205500D02*
D03*
X221500Y195500D02*
D03*
Y205500D02*
D03*
D25*
X306500Y16500D02*
D03*
X116500Y205500D02*
D03*
Y25500D02*
D03*
X221500D02*
D03*
X191500Y195500D02*
D03*
D26*
X273500Y201000D02*
D03*
X253500D02*
D03*
X377047Y158500D02*
D03*
Y188500D02*
D03*
X355500Y158500D02*
D03*
Y188500D02*
D03*
X333500Y188000D02*
D03*
Y158000D02*
D03*
D27*
X424291Y115000D02*
D03*
D28*
X416417D02*
D03*
X408543D02*
D03*
X400669D02*
D03*
X392795D02*
D03*
X384921D02*
D03*
X377047D02*
D03*
X369173D02*
D03*
X361299D02*
D03*
X353425D02*
D03*
Y28386D02*
D03*
X361299D02*
D03*
X369173D02*
D03*
X377047D02*
D03*
X384921D02*
D03*
X392795D02*
D03*
X400669D02*
D03*
X408543D02*
D03*
X416417D02*
D03*
X424291D02*
D03*
D29*
X306500Y44000D02*
D03*
Y155000D02*
D03*
D30*
X402500Y189000D02*
D03*
Y159000D02*
D03*
X422500D02*
D03*
D31*
Y189000D02*
D03*
%TF.MD5,DCEB52F6A6BF48B6A222C5BD27B88F14*%
M02*
