G04 Layer_Physical_Order=2*
G04 Layer_Color=16711680*
%FSLAX25Y25*%
%MOIN*%
G70*
G01*
G75*
%ADD12R,0.05512X0.04331*%
%ADD13R,0.04331X0.05512*%
%ADD23C,0.01000*%
%ADD24C,0.05906*%
%ADD25R,0.05906X0.05906*%
%ADD26R,0.06000X0.10000*%
%ADD27O,0.06000X0.10000*%
%ADD28R,0.05906X0.05906*%
%ADD29C,0.04724*%
%ADD30C,0.04000*%
G04:AMPARAMS|DCode=31|XSize=40mil|YSize=40mil|CornerRadius=10mil|HoleSize=0mil|Usage=FLASHONLY|Rotation=270.000|XOffset=0mil|YOffset=0mil|HoleType=Round|Shape=RoundedRectangle|*
%AMROUNDEDRECTD31*
21,1,0.04000,0.02000,0,0,270.0*
21,1,0.02000,0.04000,0,0,270.0*
1,1,0.02000,-0.01000,-0.01000*
1,1,0.02000,-0.01000,0.01000*
1,1,0.02000,0.01000,0.01000*
1,1,0.02000,0.01000,-0.01000*
%
%ADD31ROUNDEDRECTD31*%
%ADD32C,0.03000*%
%ADD33C,0.02000*%
G36*
X447961Y2039D02*
X2039D01*
Y218961D01*
X447961D01*
Y2039D01*
D02*
G37*
%LPC*%
G36*
X272500Y215539D02*
X271720Y215384D01*
X271058Y214942D01*
X257763Y201647D01*
X257289Y201807D01*
X257263Y202008D01*
X256874Y202948D01*
X256255Y203755D01*
X255448Y204374D01*
X254508Y204763D01*
X253500Y204895D01*
X252492Y204763D01*
X251552Y204374D01*
X250745Y203755D01*
X250126Y202948D01*
X249737Y202008D01*
X249605Y201000D01*
X249722Y200106D01*
X241655Y192039D01*
X224304D01*
X224134Y192539D01*
X224319Y192681D01*
X224953Y193507D01*
X225351Y194468D01*
X225421Y195000D01*
X217579D01*
X217649Y194468D01*
X218047Y193507D01*
X218681Y192681D01*
X218865Y192539D01*
X218696Y192039D01*
X215087D01*
X214841Y192539D01*
X215389Y193254D01*
X215838Y194338D01*
X215991Y195500D01*
X215838Y196662D01*
X215389Y197746D01*
X214676Y198676D01*
X213746Y199390D01*
X212662Y199838D01*
X211500Y199991D01*
X210338Y199838D01*
X209254Y199390D01*
X208324Y198676D01*
X207611Y197746D01*
X207162Y196662D01*
X207009Y195500D01*
X207162Y194338D01*
X207611Y193254D01*
X208159Y192539D01*
X207913Y192039D01*
X205087D01*
X204841Y192539D01*
X205389Y193254D01*
X205838Y194338D01*
X205991Y195500D01*
X205838Y196662D01*
X205389Y197746D01*
X205185Y198012D01*
X205406Y198461D01*
X206500D01*
X207280Y198616D01*
X207942Y199058D01*
X210131Y201247D01*
X210338Y201162D01*
X211500Y201009D01*
X212662Y201162D01*
X213746Y201610D01*
X214676Y202324D01*
X215389Y203254D01*
X215838Y204338D01*
X215991Y205500D01*
X215838Y206662D01*
X215545Y207370D01*
X215817Y207805D01*
X216275Y207841D01*
X217247Y206869D01*
X217162Y206662D01*
X217009Y205500D01*
X217162Y204338D01*
X217611Y203254D01*
X218324Y202324D01*
X219254Y201610D01*
X220338Y201162D01*
X221500Y201009D01*
X222662Y201162D01*
X223746Y201610D01*
X224676Y202324D01*
X225390Y203254D01*
X225838Y204338D01*
X225991Y205500D01*
X225838Y206662D01*
X225390Y207746D01*
X224676Y208676D01*
X223746Y209389D01*
X222662Y209838D01*
X221500Y209991D01*
X220338Y209838D01*
X220131Y209753D01*
X218442Y211442D01*
X217780Y211884D01*
X217000Y212039D01*
X144000D01*
X143220Y211884D01*
X142558Y211442D01*
X137352Y206236D01*
X136874Y206381D01*
X136855Y206475D01*
X136302Y207302D01*
X135476Y207855D01*
X134500Y208049D01*
X133525Y207855D01*
X133052Y207539D01*
X120953D01*
Y209953D01*
X112047D01*
Y203931D01*
X110483Y202367D01*
X110355Y202388D01*
X110141Y202930D01*
X110389Y203254D01*
X110838Y204338D01*
X110991Y205500D01*
X110838Y206662D01*
X110389Y207746D01*
X109676Y208676D01*
X108746Y209389D01*
X107662Y209838D01*
X106500Y209991D01*
X105338Y209838D01*
X104254Y209389D01*
X103324Y208676D01*
X102611Y207746D01*
X102162Y206662D01*
X102009Y205500D01*
X102162Y204338D01*
X102611Y203254D01*
X103159Y202539D01*
X102913Y202039D01*
X100087D01*
X99841Y202539D01*
X100390Y203254D01*
X100838Y204338D01*
X100991Y205500D01*
X100838Y206662D01*
X100390Y207746D01*
X99676Y208676D01*
X98746Y209389D01*
X97662Y209838D01*
X96500Y209991D01*
X95338Y209838D01*
X94254Y209389D01*
X93324Y208676D01*
X92611Y207746D01*
X92162Y206662D01*
X92009Y205500D01*
X92162Y204338D01*
X92611Y203254D01*
X93159Y202539D01*
X92913Y202039D01*
X90087D01*
X89841Y202539D01*
X90390Y203254D01*
X90838Y204338D01*
X90991Y205500D01*
X90838Y206662D01*
X90390Y207746D01*
X89676Y208676D01*
X88746Y209389D01*
X87662Y209838D01*
X86500Y209991D01*
X85338Y209838D01*
X84254Y209389D01*
X83324Y208676D01*
X82610Y207746D01*
X82162Y206662D01*
X82009Y205500D01*
X82162Y204338D01*
X82610Y203254D01*
X83159Y202539D01*
X82913Y202039D01*
X80087D01*
X79841Y202539D01*
X80389Y203254D01*
X80838Y204338D01*
X80991Y205500D01*
X80838Y206662D01*
X80389Y207746D01*
X79676Y208676D01*
X78746Y209389D01*
X77662Y209838D01*
X76500Y209991D01*
X75338Y209838D01*
X74254Y209389D01*
X73324Y208676D01*
X72610Y207746D01*
X72162Y206662D01*
X72009Y205500D01*
X72162Y204338D01*
X72610Y203254D01*
X73159Y202539D01*
X72913Y202039D01*
X70087D01*
X69841Y202539D01*
X70389Y203254D01*
X70838Y204338D01*
X70991Y205500D01*
X70838Y206662D01*
X70389Y207746D01*
X69676Y208676D01*
X68746Y209389D01*
X67662Y209838D01*
X66500Y209991D01*
X65338Y209838D01*
X64254Y209389D01*
X63324Y208676D01*
X62611Y207746D01*
X62162Y206662D01*
X62009Y205500D01*
X62162Y204338D01*
X62611Y203254D01*
X63159Y202539D01*
X62913Y202039D01*
X60087D01*
X59841Y202539D01*
X60390Y203254D01*
X60838Y204338D01*
X60991Y205500D01*
X60838Y206662D01*
X60390Y207746D01*
X59676Y208676D01*
X58746Y209389D01*
X57662Y209838D01*
X56500Y209991D01*
X55338Y209838D01*
X54254Y209389D01*
X53324Y208676D01*
X52610Y207746D01*
X52162Y206662D01*
X52009Y205500D01*
X52162Y204338D01*
X52610Y203254D01*
X53324Y202324D01*
X53733Y202010D01*
X53717Y201511D01*
X53614Y201442D01*
X50453Y198280D01*
X49954Y198313D01*
X49676Y198676D01*
X48746Y199390D01*
X47662Y199838D01*
X46500Y199991D01*
X45338Y199838D01*
X44254Y199390D01*
X43324Y198676D01*
X42610Y197746D01*
X42162Y196662D01*
X42009Y195500D01*
X42162Y194338D01*
X42610Y193254D01*
X43324Y192324D01*
X44254Y191611D01*
X44461Y191525D01*
Y138345D01*
X42501Y136385D01*
X42039Y136576D01*
Y181000D01*
X42039Y181000D01*
X41884Y181780D01*
X41442Y182442D01*
X41442Y182442D01*
X33539Y190345D01*
Y191594D01*
X33988Y191815D01*
X34254Y191611D01*
X35338Y191162D01*
X36500Y191009D01*
X37662Y191162D01*
X38746Y191611D01*
X39676Y192324D01*
X40389Y193254D01*
X40838Y194338D01*
X40991Y195500D01*
X40838Y196662D01*
X40389Y197746D01*
X39676Y198676D01*
X38746Y199390D01*
X37662Y199838D01*
X36500Y199991D01*
X35338Y199838D01*
X34301Y199409D01*
X34204Y199416D01*
X33767Y199645D01*
X33740Y199856D01*
X35131Y201247D01*
X35338Y201162D01*
X36500Y201009D01*
X37662Y201162D01*
X38746Y201610D01*
X39676Y202324D01*
X40389Y203254D01*
X40838Y204338D01*
X40991Y205500D01*
X40838Y206662D01*
X40389Y207746D01*
X39676Y208676D01*
X38746Y209389D01*
X37662Y209838D01*
X36500Y209991D01*
X35338Y209838D01*
X34254Y209389D01*
X33324Y208676D01*
X32610Y207746D01*
X32162Y206662D01*
X32009Y205500D01*
X32162Y204338D01*
X32247Y204131D01*
X30058Y201942D01*
X29616Y201280D01*
X29461Y200500D01*
Y199406D01*
X29012Y199185D01*
X28746Y199390D01*
X27662Y199838D01*
X26500Y199991D01*
X25338Y199838D01*
X24254Y199390D01*
X23324Y198676D01*
X22611Y197746D01*
X22162Y196662D01*
X22009Y195500D01*
X22162Y194338D01*
X22611Y193254D01*
X23324Y192324D01*
X24254Y191611D01*
X25338Y191162D01*
X26500Y191009D01*
X27662Y191162D01*
X28746Y191611D01*
X29012Y191815D01*
X29461Y191594D01*
Y189500D01*
X29616Y188720D01*
X30058Y188058D01*
X37961Y180155D01*
Y72000D01*
X38116Y71220D01*
X38558Y70558D01*
X52560Y56556D01*
X53222Y56114D01*
X54002Y55959D01*
X59525D01*
X60305Y56114D01*
X60966Y56556D01*
X74371Y69961D01*
X81646D01*
X82035Y69461D01*
X81974Y69000D01*
X82077Y68217D01*
X82380Y67487D01*
X82860Y66860D01*
X83487Y66379D01*
X84217Y66077D01*
X85000Y65974D01*
X85783Y66077D01*
X86513Y66379D01*
X87140Y66860D01*
X87217Y66961D01*
X94000D01*
X94780Y67116D01*
X95442Y67558D01*
X97008Y69124D01*
X97508Y68917D01*
Y62892D01*
X87655Y53039D01*
X29345D01*
X8039Y74345D01*
Y92783D01*
X8140Y92860D01*
X8620Y93487D01*
X8923Y94217D01*
X9026Y95000D01*
X8923Y95783D01*
X8620Y96513D01*
X8140Y97140D01*
X7513Y97620D01*
X6783Y97923D01*
X6000Y98026D01*
X5217Y97923D01*
X4487Y97620D01*
X3860Y97140D01*
X3379Y96513D01*
X3077Y95783D01*
X2974Y95000D01*
X3077Y94217D01*
X3379Y93487D01*
X3860Y92860D01*
X3961Y92783D01*
Y73500D01*
X4116Y72720D01*
X4558Y72058D01*
X27058Y49558D01*
X27058Y49558D01*
X27720Y49116D01*
X28500Y48961D01*
X28500Y48961D01*
X88500D01*
X89280Y49116D01*
X89942Y49558D01*
X100989Y60605D01*
X101431Y61267D01*
X101586Y62047D01*
Y107244D01*
X103213D01*
X103414Y106827D01*
Y103953D01*
X107492D01*
Y107744D01*
X108618D01*
Y111000D01*
X105453D01*
Y111500D01*
X104953D01*
Y115256D01*
X103213D01*
Y115756D01*
X102793D01*
X102602Y116218D01*
X104047Y117664D01*
X107552D01*
X108025Y117348D01*
X109000Y117154D01*
X109976Y117348D01*
X110802Y117900D01*
X111355Y118727D01*
X111480Y119355D01*
X111990Y119355D01*
X112116Y118720D01*
X112558Y118058D01*
X120786Y109830D01*
X120820Y109157D01*
X106558Y94895D01*
X106116Y94233D01*
X105961Y93453D01*
Y45500D01*
X106116Y44720D01*
X106558Y44058D01*
X120202Y30415D01*
X120010Y29953D01*
X112047D01*
Y21047D01*
X120953D01*
Y29010D01*
X121415Y29201D01*
X139761Y10855D01*
X140422Y10413D01*
X141203Y10258D01*
X165092D01*
X165268Y10039D01*
X165029Y9539D01*
X85345D01*
X80753Y14131D01*
X80838Y14338D01*
X80991Y15500D01*
X80838Y16662D01*
X80389Y17746D01*
X79676Y18676D01*
X78746Y19389D01*
X77662Y19838D01*
X76500Y19991D01*
X75338Y19838D01*
X74254Y19389D01*
X73324Y18676D01*
X72610Y17746D01*
X72162Y16662D01*
X72009Y15500D01*
X72162Y14338D01*
X72610Y13254D01*
X73324Y12324D01*
X74254Y11610D01*
X75338Y11162D01*
X76500Y11009D01*
X77662Y11162D01*
X77869Y11247D01*
X83058Y6058D01*
X83720Y5616D01*
X84500Y5461D01*
X227052D01*
X227524Y5145D01*
X228500Y4951D01*
X229475Y5145D01*
X230302Y5698D01*
X230855Y6525D01*
X231049Y7500D01*
X230855Y8475D01*
X230302Y9302D01*
X229475Y9855D01*
X228500Y10049D01*
X227524Y9855D01*
X227052Y9539D01*
X199076D01*
X198885Y10001D01*
X200131Y11247D01*
X200338Y11162D01*
X201500Y11009D01*
X202662Y11162D01*
X203746Y11610D01*
X204676Y12324D01*
X205389Y13254D01*
X205838Y14338D01*
X205991Y15500D01*
X205838Y16662D01*
X205545Y17370D01*
X205817Y17805D01*
X206275Y17841D01*
X207247Y16869D01*
X207162Y16662D01*
X207009Y15500D01*
X207162Y14338D01*
X207611Y13254D01*
X208324Y12324D01*
X209254Y11610D01*
X210338Y11162D01*
X211500Y11009D01*
X212662Y11162D01*
X213746Y11610D01*
X214676Y12324D01*
X215389Y13254D01*
X215838Y14338D01*
X215991Y15500D01*
X215838Y16662D01*
X215389Y17746D01*
X214676Y18676D01*
X213746Y19389D01*
X212662Y19838D01*
X211500Y19991D01*
X210338Y19838D01*
X210131Y19753D01*
X208442Y21442D01*
X207780Y21884D01*
X207000Y22039D01*
X205087D01*
X204841Y22539D01*
X205389Y23254D01*
X205838Y24338D01*
X205991Y25500D01*
X205838Y26662D01*
X205389Y27746D01*
X204676Y28676D01*
X203746Y29390D01*
X202662Y29838D01*
X201500Y29991D01*
X200338Y29838D01*
X199254Y29390D01*
X198324Y28676D01*
X197610Y27746D01*
X197162Y26662D01*
X197009Y25500D01*
X197162Y24338D01*
X197610Y23254D01*
X198159Y22539D01*
X197913Y22039D01*
X195087D01*
X194841Y22539D01*
X195389Y23254D01*
X195838Y24338D01*
X195991Y25500D01*
X195838Y26662D01*
X195753Y26869D01*
X195942Y27058D01*
X196384Y27720D01*
X196539Y28500D01*
X196539Y28500D01*
Y31382D01*
X198756D01*
Y31382D01*
X199244D01*
Y31382D01*
X207756D01*
Y32859D01*
X208256Y33010D01*
X208558Y32558D01*
X210769Y30347D01*
X210608Y29874D01*
X210338Y29838D01*
X209254Y29390D01*
X208324Y28676D01*
X207611Y27746D01*
X207162Y26662D01*
X207009Y25500D01*
X207162Y24338D01*
X207611Y23254D01*
X208324Y22324D01*
X209254Y21610D01*
X210338Y21162D01*
X211500Y21009D01*
X212662Y21162D01*
X212869Y21247D01*
X215092Y19024D01*
X215092Y19024D01*
X215754Y18582D01*
X216534Y18427D01*
X217568D01*
X217789Y17978D01*
X217611Y17746D01*
X217162Y16662D01*
X217009Y15500D01*
X217162Y14338D01*
X217611Y13254D01*
X218324Y12324D01*
X219254Y11610D01*
X220338Y11162D01*
X221500Y11009D01*
X222662Y11162D01*
X223746Y11610D01*
X224676Y12324D01*
X225390Y13254D01*
X225838Y14338D01*
X225874Y14608D01*
X226347Y14769D01*
X233558Y7558D01*
X234220Y7116D01*
X235000Y6961D01*
X279000D01*
X279780Y7116D01*
X280442Y7558D01*
X285131Y12247D01*
X285338Y12162D01*
X286500Y12009D01*
X287662Y12162D01*
X288746Y12610D01*
X289676Y13324D01*
X290389Y14254D01*
X290838Y15338D01*
X290991Y16500D01*
X290838Y17662D01*
X290389Y18746D01*
X289676Y19676D01*
X288746Y20390D01*
X287662Y20838D01*
X286500Y20991D01*
X285338Y20838D01*
X284254Y20390D01*
X283324Y19676D01*
X282611Y18746D01*
X282162Y17662D01*
X282009Y16500D01*
X282162Y15338D01*
X282247Y15131D01*
X278155Y11039D01*
X237298D01*
X237031Y11539D01*
X237355Y12025D01*
X237549Y13000D01*
X237355Y13975D01*
X237039Y14448D01*
Y18167D01*
X237539Y18434D01*
X238023Y18111D01*
X238999Y17917D01*
X239974Y18111D01*
X240801Y18664D01*
X241353Y19491D01*
X241464Y20048D01*
X245377Y23961D01*
X255783D01*
X255860Y23860D01*
X256487Y23380D01*
X257217Y23077D01*
X258000Y22974D01*
X258783Y23077D01*
X259513Y23380D01*
X260140Y23860D01*
X260620Y24487D01*
X260923Y25217D01*
X261026Y26000D01*
X260923Y26783D01*
X260642Y27461D01*
X260781Y27838D01*
X260841Y27961D01*
X263627D01*
X264407Y28116D01*
X264762Y28354D01*
X265081Y27965D01*
X257869Y20753D01*
X257662Y20838D01*
X256500Y20991D01*
X255338Y20838D01*
X254254Y20390D01*
X253324Y19676D01*
X252610Y18746D01*
X252162Y17662D01*
X252009Y16500D01*
X252162Y15338D01*
X252610Y14254D01*
X253324Y13324D01*
X254254Y12610D01*
X255338Y12162D01*
X256500Y12009D01*
X257662Y12162D01*
X258746Y12610D01*
X259676Y13324D01*
X260389Y14254D01*
X260838Y15338D01*
X260991Y16500D01*
X260838Y17662D01*
X260753Y17869D01*
X293541Y50658D01*
X294254Y50111D01*
X295338Y49662D01*
X296500Y49509D01*
X297662Y49662D01*
X298746Y50111D01*
X299676Y50824D01*
X300390Y51754D01*
X300838Y52838D01*
X300991Y54000D01*
X300838Y55162D01*
X300390Y56246D01*
X299676Y57176D01*
X298746Y57889D01*
X297662Y58338D01*
X296500Y58491D01*
X295338Y58338D01*
X294254Y57889D01*
X293324Y57176D01*
X292611Y56246D01*
X292162Y55162D01*
X292144Y55028D01*
X288035Y50919D01*
X287647Y51237D01*
X287884Y51593D01*
X287901Y51677D01*
X288140Y51860D01*
X288620Y52487D01*
X288923Y53217D01*
X289026Y54000D01*
X288923Y54783D01*
X288620Y55513D01*
X288140Y56140D01*
X287513Y56621D01*
X286783Y56923D01*
X286743Y56928D01*
X286583Y57402D01*
X291737Y62556D01*
X292327Y62439D01*
X292611Y61754D01*
X293324Y60824D01*
X294254Y60110D01*
X295338Y59662D01*
X296500Y59509D01*
X297662Y59662D01*
X297869Y59747D01*
X300058Y57558D01*
X300720Y57116D01*
X301500Y56961D01*
X302594D01*
X302815Y56512D01*
X302610Y56246D01*
X302162Y55162D01*
X302009Y54000D01*
X302162Y52838D01*
X302610Y51754D01*
X303324Y50824D01*
X304254Y50111D01*
X305338Y49662D01*
X306500Y49509D01*
X307662Y49662D01*
X308746Y50111D01*
X309676Y50824D01*
X310389Y51754D01*
X310838Y52838D01*
X310924Y53486D01*
X311451Y53665D01*
X322961Y42155D01*
Y40576D01*
X322461Y40424D01*
X322208Y40802D01*
X321381Y41355D01*
X320905Y41449D01*
Y39000D01*
Y36551D01*
X321381Y36645D01*
X322208Y37198D01*
X322461Y37576D01*
X322961Y37424D01*
Y35845D01*
X308069Y20953D01*
X302047D01*
Y14490D01*
X301585Y14299D01*
X300753Y15131D01*
X300838Y15338D01*
X300991Y16500D01*
X300838Y17662D01*
X300390Y18746D01*
X299676Y19676D01*
X298746Y20390D01*
X297662Y20838D01*
X296500Y20991D01*
X295338Y20838D01*
X294254Y20390D01*
X293324Y19676D01*
X292611Y18746D01*
X292162Y17662D01*
X292009Y16500D01*
X292162Y15338D01*
X292611Y14254D01*
X293324Y13324D01*
X294254Y12610D01*
X295338Y12162D01*
X296500Y12009D01*
X297662Y12162D01*
X297869Y12247D01*
X300558Y9558D01*
X300558Y9558D01*
X301220Y9116D01*
X302000Y8961D01*
X312500D01*
X313280Y9116D01*
X313942Y9558D01*
X328942Y24558D01*
X329384Y25220D01*
X329539Y26000D01*
Y83000D01*
X329384Y83780D01*
X328942Y84442D01*
X328942Y84442D01*
X310753Y102631D01*
X310838Y102838D01*
X310991Y104000D01*
X310838Y105162D01*
X310389Y106246D01*
X310185Y106512D01*
X310406Y106961D01*
X370500D01*
X371280Y107116D01*
X371942Y107558D01*
X374793Y110409D01*
X375235Y111071D01*
X375648Y111291D01*
X376134Y111090D01*
X377047Y110970D01*
X377961Y111090D01*
X378812Y111443D01*
X379543Y112004D01*
X380104Y112735D01*
X380457Y113586D01*
X380577Y114500D01*
X380457Y115414D01*
X380104Y116265D01*
X379543Y116996D01*
X378812Y117557D01*
X377961Y117910D01*
X377047Y118030D01*
X376134Y117910D01*
X375839Y117788D01*
X375431Y118052D01*
X375404Y118520D01*
X392442Y135558D01*
X392884Y136220D01*
X393039Y137000D01*
Y208000D01*
X392884Y208780D01*
X392442Y209442D01*
X392442Y209442D01*
X386942Y214942D01*
X386280Y215384D01*
X385500Y215539D01*
X272500D01*
X272500Y215539D01*
D02*
G37*
G36*
X46500Y209991D02*
X45338Y209838D01*
X44254Y209389D01*
X43324Y208676D01*
X42610Y207746D01*
X42162Y206662D01*
X42009Y205500D01*
X42162Y204338D01*
X42610Y203254D01*
X43324Y202324D01*
X44254Y201610D01*
X45338Y201162D01*
X46500Y201009D01*
X47662Y201162D01*
X48746Y201610D01*
X49676Y202324D01*
X50389Y203254D01*
X50838Y204338D01*
X50991Y205500D01*
X50838Y206662D01*
X50389Y207746D01*
X49676Y208676D01*
X48746Y209389D01*
X47662Y209838D01*
X46500Y209991D01*
D02*
G37*
G36*
X26500D02*
X25338Y209838D01*
X24254Y209389D01*
X23324Y208676D01*
X22611Y207746D01*
X22162Y206662D01*
X22009Y205500D01*
X22162Y204338D01*
X22611Y203254D01*
X23324Y202324D01*
X24254Y201610D01*
X25338Y201162D01*
X26500Y201009D01*
X27662Y201162D01*
X28746Y201610D01*
X29676Y202324D01*
X30389Y203254D01*
X30838Y204338D01*
X30991Y205500D01*
X30838Y206662D01*
X30389Y207746D01*
X29676Y208676D01*
X28746Y209389D01*
X27662Y209838D01*
X26500Y209991D01*
D02*
G37*
G36*
X222000Y199421D02*
Y196000D01*
X225421D01*
X225351Y196532D01*
X224953Y197493D01*
X224319Y198319D01*
X223493Y198953D01*
X222532Y199351D01*
X222000Y199421D01*
D02*
G37*
G36*
X221000D02*
X220468Y199351D01*
X219507Y198953D01*
X218681Y198319D01*
X218047Y197493D01*
X217649Y196532D01*
X217579Y196000D01*
X221000D01*
Y199421D01*
D02*
G37*
G36*
X426500Y195000D02*
X423000D01*
Y189500D01*
X426500D01*
Y195000D01*
D02*
G37*
G36*
X422000D02*
X418500D01*
Y189500D01*
X422000D01*
Y195000D01*
D02*
G37*
G36*
X426500Y188500D02*
X423000D01*
Y183000D01*
X426500D01*
Y188500D01*
D02*
G37*
G36*
X422000D02*
X418500D01*
Y183000D01*
X422000D01*
Y188500D01*
D02*
G37*
G36*
X402500Y195539D02*
X401325Y195384D01*
X400231Y194931D01*
X399291Y194209D01*
X398569Y193269D01*
X398116Y192175D01*
X397961Y191000D01*
Y187000D01*
X398116Y185825D01*
X398569Y184731D01*
X399291Y183791D01*
X400231Y183069D01*
X401325Y182616D01*
X402500Y182461D01*
X403675Y182616D01*
X404769Y183069D01*
X405709Y183791D01*
X406431Y184731D01*
X406884Y185825D01*
X407039Y187000D01*
Y191000D01*
X406884Y192175D01*
X406431Y193269D01*
X405709Y194209D01*
X404769Y194931D01*
X403675Y195384D01*
X402500Y195539D01*
D02*
G37*
G36*
X422500Y165539D02*
X421325Y165384D01*
X420231Y164931D01*
X419291Y164209D01*
X418569Y163269D01*
X418116Y162175D01*
X417961Y161000D01*
Y157000D01*
X418116Y155825D01*
X418569Y154731D01*
X419291Y153791D01*
X420231Y153069D01*
X421325Y152616D01*
X422500Y152461D01*
X423675Y152616D01*
X424769Y153069D01*
X425709Y153791D01*
X426431Y154731D01*
X426884Y155825D01*
X427039Y157000D01*
Y161000D01*
X426884Y162175D01*
X426431Y163269D01*
X425709Y164209D01*
X424769Y164931D01*
X423675Y165384D01*
X422500Y165539D01*
D02*
G37*
G36*
X402500D02*
X401325Y165384D01*
X400231Y164931D01*
X399291Y164209D01*
X398569Y163269D01*
X398116Y162175D01*
X397961Y161000D01*
Y157000D01*
X398116Y155825D01*
X398569Y154731D01*
X399291Y153791D01*
X400231Y153069D01*
X401325Y152616D01*
X402500Y152461D01*
X403675Y152616D01*
X404769Y153069D01*
X405709Y153791D01*
X406431Y154731D01*
X406884Y155825D01*
X407039Y157000D01*
Y161000D01*
X406884Y162175D01*
X406431Y163269D01*
X405709Y164209D01*
X404769Y164931D01*
X403675Y165384D01*
X402500Y165539D01*
D02*
G37*
G36*
X108618Y115256D02*
X105953D01*
Y112000D01*
X108618D01*
Y115256D01*
D02*
G37*
G36*
X416417Y118030D02*
X415504Y117910D01*
X414652Y117557D01*
X413921Y116996D01*
X413360Y116265D01*
X413007Y115414D01*
X412887Y114500D01*
X413007Y113586D01*
X413360Y112735D01*
X413921Y112004D01*
X414652Y111443D01*
X415504Y111090D01*
X416417Y110970D01*
X417331Y111090D01*
X418182Y111443D01*
X418914Y112004D01*
X419475Y112735D01*
X419827Y113586D01*
X419947Y114500D01*
X419827Y115414D01*
X419475Y116265D01*
X418914Y116996D01*
X418182Y117557D01*
X417331Y117910D01*
X416417Y118030D01*
D02*
G37*
G36*
X408543D02*
X407630Y117910D01*
X406778Y117557D01*
X406047Y116996D01*
X405486Y116265D01*
X405133Y115414D01*
X405013Y114500D01*
X405133Y113586D01*
X405486Y112735D01*
X406047Y112004D01*
X406778Y111443D01*
X407630Y111090D01*
X408543Y110970D01*
X409457Y111090D01*
X410308Y111443D01*
X411039Y112004D01*
X411601Y112735D01*
X411953Y113586D01*
X412074Y114500D01*
X411953Y115414D01*
X411601Y116265D01*
X411039Y116996D01*
X410308Y117557D01*
X409457Y117910D01*
X408543Y118030D01*
D02*
G37*
G36*
X400669D02*
X399756Y117910D01*
X398904Y117557D01*
X398173Y116996D01*
X397612Y116265D01*
X397259Y115414D01*
X397139Y114500D01*
X397259Y113586D01*
X397612Y112735D01*
X398173Y112004D01*
X398904Y111443D01*
X399756Y111090D01*
X400669Y110970D01*
X401583Y111090D01*
X402434Y111443D01*
X403165Y112004D01*
X403726Y112735D01*
X404079Y113586D01*
X404200Y114500D01*
X404079Y115414D01*
X403726Y116265D01*
X403165Y116996D01*
X402434Y117557D01*
X401583Y117910D01*
X400669Y118030D01*
D02*
G37*
G36*
X392795D02*
X391882Y117910D01*
X391030Y117557D01*
X390299Y116996D01*
X389738Y116265D01*
X389385Y115414D01*
X389265Y114500D01*
X389385Y113586D01*
X389738Y112735D01*
X390299Y112004D01*
X391030Y111443D01*
X391882Y111090D01*
X392795Y110970D01*
X393709Y111090D01*
X394560Y111443D01*
X395291Y112004D01*
X395852Y112735D01*
X396205Y113586D01*
X396325Y114500D01*
X396205Y115414D01*
X395852Y116265D01*
X395291Y116996D01*
X394560Y117557D01*
X393709Y117910D01*
X392795Y118030D01*
D02*
G37*
G36*
X384921D02*
X384008Y117910D01*
X383156Y117557D01*
X382425Y116996D01*
X381864Y116265D01*
X381511Y115414D01*
X381391Y114500D01*
X381511Y113586D01*
X381864Y112735D01*
X382425Y112004D01*
X383156Y111443D01*
X384008Y111090D01*
X384921Y110970D01*
X385835Y111090D01*
X386686Y111443D01*
X387418Y112004D01*
X387979Y112735D01*
X388331Y113586D01*
X388452Y114500D01*
X388331Y115414D01*
X387979Y116265D01*
X387418Y116996D01*
X386686Y117557D01*
X385835Y117910D01*
X384921Y118030D01*
D02*
G37*
G36*
X425291Y118049D02*
X423291D01*
X422316Y117855D01*
X421489Y117302D01*
X420936Y116475D01*
X420742Y115500D01*
Y113500D01*
X420936Y112524D01*
X421489Y111698D01*
X422316Y111145D01*
X423291Y110951D01*
X425291D01*
X426267Y111145D01*
X427094Y111698D01*
X427646Y112524D01*
X427840Y113500D01*
Y115500D01*
X427646Y116475D01*
X427094Y117302D01*
X426267Y117855D01*
X425291Y118049D01*
D02*
G37*
G36*
X19169Y109060D02*
Y107110D01*
X21118D01*
X21023Y107586D01*
X20471Y108413D01*
X19644Y108965D01*
X19169Y109060D01*
D02*
G37*
G36*
X18169D02*
X17693Y108965D01*
X16866Y108413D01*
X16314Y107586D01*
X16219Y107110D01*
X18169D01*
Y109060D01*
D02*
G37*
G36*
X21118Y106110D02*
X19169D01*
Y104161D01*
X19644Y104255D01*
X20471Y104808D01*
X21023Y105635D01*
X21118Y106110D01*
D02*
G37*
G36*
X18169D02*
X16219D01*
X16314Y105635D01*
X16866Y104808D01*
X17693Y104255D01*
X18169Y104161D01*
Y106110D01*
D02*
G37*
G36*
X107393Y102953D02*
X105953D01*
Y101513D01*
X106233Y101569D01*
X106895Y102011D01*
X107337Y102672D01*
X107393Y102953D01*
D02*
G37*
G36*
X104953D02*
X103513D01*
X103569Y102672D01*
X104011Y102011D01*
X104672Y101569D01*
X104953Y101513D01*
Y102953D01*
D02*
G37*
G36*
X310953Y48453D02*
X302047D01*
Y39547D01*
X310953D01*
Y48453D01*
D02*
G37*
G36*
X319905Y41449D02*
X319430Y41355D01*
X318603Y40802D01*
X318051Y39976D01*
X317956Y39500D01*
X319905D01*
Y41449D01*
D02*
G37*
G36*
Y38500D02*
X317956D01*
X318051Y38025D01*
X318603Y37198D01*
X319430Y36645D01*
X319905Y36551D01*
Y38500D01*
D02*
G37*
G36*
X424291Y31416D02*
X423378Y31296D01*
X422526Y30943D01*
X421795Y30382D01*
X421234Y29651D01*
X420881Y28800D01*
X420761Y27886D01*
X420881Y26972D01*
X421234Y26121D01*
X421795Y25390D01*
X422526Y24829D01*
X423378Y24476D01*
X424291Y24356D01*
X425205Y24476D01*
X426056Y24829D01*
X426788Y25390D01*
X427349Y26121D01*
X427701Y26972D01*
X427821Y27886D01*
X427701Y28800D01*
X427349Y29651D01*
X426788Y30382D01*
X426056Y30943D01*
X425205Y31296D01*
X424291Y31416D01*
D02*
G37*
G36*
X416417D02*
X415504Y31296D01*
X414652Y30943D01*
X413921Y30382D01*
X413360Y29651D01*
X413007Y28800D01*
X412887Y27886D01*
X413007Y26972D01*
X413360Y26121D01*
X413921Y25390D01*
X414652Y24829D01*
X415504Y24476D01*
X416417Y24356D01*
X417331Y24476D01*
X418182Y24829D01*
X418914Y25390D01*
X419475Y26121D01*
X419827Y26972D01*
X419947Y27886D01*
X419827Y28800D01*
X419475Y29651D01*
X418914Y30382D01*
X418182Y30943D01*
X417331Y31296D01*
X416417Y31416D01*
D02*
G37*
G36*
X408543D02*
X407630Y31296D01*
X406778Y30943D01*
X406047Y30382D01*
X405486Y29651D01*
X405133Y28800D01*
X405013Y27886D01*
X405133Y26972D01*
X405486Y26121D01*
X406047Y25390D01*
X406778Y24829D01*
X407630Y24476D01*
X408543Y24356D01*
X409457Y24476D01*
X410308Y24829D01*
X411039Y25390D01*
X411601Y26121D01*
X411953Y26972D01*
X412074Y27886D01*
X411953Y28800D01*
X411601Y29651D01*
X411039Y30382D01*
X410308Y30943D01*
X409457Y31296D01*
X408543Y31416D01*
D02*
G37*
G36*
X400669D02*
X399756Y31296D01*
X398904Y30943D01*
X398173Y30382D01*
X397612Y29651D01*
X397259Y28800D01*
X397139Y27886D01*
X397259Y26972D01*
X397612Y26121D01*
X398173Y25390D01*
X398904Y24829D01*
X399756Y24476D01*
X400669Y24356D01*
X401583Y24476D01*
X402434Y24829D01*
X403165Y25390D01*
X403726Y26121D01*
X404079Y26972D01*
X404200Y27886D01*
X404079Y28800D01*
X403726Y29651D01*
X403165Y30382D01*
X402434Y30943D01*
X401583Y31296D01*
X400669Y31416D01*
D02*
G37*
G36*
X392795D02*
X391882Y31296D01*
X391030Y30943D01*
X390299Y30382D01*
X389738Y29651D01*
X389385Y28800D01*
X389265Y27886D01*
X389385Y26972D01*
X389738Y26121D01*
X390299Y25390D01*
X391030Y24829D01*
X391882Y24476D01*
X392795Y24356D01*
X393709Y24476D01*
X394560Y24829D01*
X395291Y25390D01*
X395852Y26121D01*
X396205Y26972D01*
X396325Y27886D01*
X396205Y28800D01*
X395852Y29651D01*
X395291Y30382D01*
X394560Y30943D01*
X393709Y31296D01*
X392795Y31416D01*
D02*
G37*
G36*
X384921D02*
X384008Y31296D01*
X383156Y30943D01*
X382425Y30382D01*
X381864Y29651D01*
X381511Y28800D01*
X381391Y27886D01*
X381511Y26972D01*
X381864Y26121D01*
X382425Y25390D01*
X383156Y24829D01*
X384008Y24476D01*
X384921Y24356D01*
X385835Y24476D01*
X386686Y24829D01*
X387418Y25390D01*
X387979Y26121D01*
X388331Y26972D01*
X388452Y27886D01*
X388331Y28800D01*
X387979Y29651D01*
X387418Y30382D01*
X386686Y30943D01*
X385835Y31296D01*
X384921Y31416D01*
D02*
G37*
G36*
X377047D02*
X376134Y31296D01*
X375282Y30943D01*
X374551Y30382D01*
X373990Y29651D01*
X373637Y28800D01*
X373517Y27886D01*
X373637Y26972D01*
X373990Y26121D01*
X374551Y25390D01*
X375282Y24829D01*
X376134Y24476D01*
X377047Y24356D01*
X377961Y24476D01*
X378812Y24829D01*
X379543Y25390D01*
X380104Y26121D01*
X380457Y26972D01*
X380577Y27886D01*
X380457Y28800D01*
X380104Y29651D01*
X379543Y30382D01*
X378812Y30943D01*
X377961Y31296D01*
X377047Y31416D01*
D02*
G37*
G36*
X369173D02*
X368260Y31296D01*
X367408Y30943D01*
X366677Y30382D01*
X366116Y29651D01*
X365763Y28800D01*
X365643Y27886D01*
X365763Y26972D01*
X366116Y26121D01*
X366677Y25390D01*
X367408Y24829D01*
X368260Y24476D01*
X369173Y24356D01*
X370087Y24476D01*
X370938Y24829D01*
X371670Y25390D01*
X372231Y26121D01*
X372583Y26972D01*
X372703Y27886D01*
X372583Y28800D01*
X372231Y29651D01*
X371670Y30382D01*
X370938Y30943D01*
X370087Y31296D01*
X369173Y31416D01*
D02*
G37*
G36*
X361299D02*
X360385Y31296D01*
X359534Y30943D01*
X358803Y30382D01*
X358242Y29651D01*
X357889Y28800D01*
X357769Y27886D01*
X357889Y26972D01*
X358242Y26121D01*
X358803Y25390D01*
X359534Y24829D01*
X360385Y24476D01*
X361299Y24356D01*
X362213Y24476D01*
X363064Y24829D01*
X363795Y25390D01*
X364356Y26121D01*
X364709Y26972D01*
X364829Y27886D01*
X364709Y28800D01*
X364356Y29651D01*
X363795Y30382D01*
X363064Y30943D01*
X362213Y31296D01*
X361299Y31416D01*
D02*
G37*
G36*
X353425D02*
X352512Y31296D01*
X351660Y30943D01*
X350929Y30382D01*
X350368Y29651D01*
X350015Y28800D01*
X349895Y27886D01*
X350015Y26972D01*
X350368Y26121D01*
X350929Y25390D01*
X351660Y24829D01*
X352512Y24476D01*
X353425Y24356D01*
X354339Y24476D01*
X355190Y24829D01*
X355921Y25390D01*
X356482Y26121D01*
X356835Y26972D01*
X356955Y27886D01*
X356835Y28800D01*
X356482Y29651D01*
X355921Y30382D01*
X355190Y30943D01*
X354339Y31296D01*
X353425Y31416D01*
D02*
G37*
G36*
X106500Y29991D02*
X105338Y29838D01*
X104254Y29390D01*
X103324Y28676D01*
X102611Y27746D01*
X102162Y26662D01*
X102009Y25500D01*
X102162Y24338D01*
X102611Y23254D01*
X103324Y22324D01*
X104254Y21610D01*
X105338Y21162D01*
X106500Y21009D01*
X107662Y21162D01*
X108746Y21610D01*
X109676Y22324D01*
X110389Y23254D01*
X110838Y24338D01*
X110991Y25500D01*
X110838Y26662D01*
X110389Y27746D01*
X109676Y28676D01*
X108746Y29390D01*
X107662Y29838D01*
X106500Y29991D01*
D02*
G37*
G36*
X96500D02*
X95338Y29838D01*
X94254Y29390D01*
X93324Y28676D01*
X92611Y27746D01*
X92162Y26662D01*
X92009Y25500D01*
X92162Y24338D01*
X92611Y23254D01*
X93324Y22324D01*
X94254Y21610D01*
X95338Y21162D01*
X96500Y21009D01*
X97662Y21162D01*
X98746Y21610D01*
X99676Y22324D01*
X100390Y23254D01*
X100838Y24338D01*
X100991Y25500D01*
X100838Y26662D01*
X100390Y27746D01*
X99676Y28676D01*
X98746Y29390D01*
X97662Y29838D01*
X96500Y29991D01*
D02*
G37*
G36*
X86500D02*
X85338Y29838D01*
X84254Y29390D01*
X83324Y28676D01*
X82610Y27746D01*
X82162Y26662D01*
X82009Y25500D01*
X82162Y24338D01*
X82610Y23254D01*
X83324Y22324D01*
X84254Y21610D01*
X85338Y21162D01*
X86500Y21009D01*
X87662Y21162D01*
X88746Y21610D01*
X89676Y22324D01*
X90390Y23254D01*
X90838Y24338D01*
X90991Y25500D01*
X90838Y26662D01*
X90390Y27746D01*
X89676Y28676D01*
X88746Y29390D01*
X87662Y29838D01*
X86500Y29991D01*
D02*
G37*
G36*
X76500D02*
X75338Y29838D01*
X74254Y29390D01*
X73324Y28676D01*
X72610Y27746D01*
X72162Y26662D01*
X72009Y25500D01*
X72162Y24338D01*
X72610Y23254D01*
X73324Y22324D01*
X74254Y21610D01*
X75338Y21162D01*
X76500Y21009D01*
X77662Y21162D01*
X78746Y21610D01*
X79676Y22324D01*
X80389Y23254D01*
X80838Y24338D01*
X80991Y25500D01*
X80838Y26662D01*
X80389Y27746D01*
X79676Y28676D01*
X78746Y29390D01*
X77662Y29838D01*
X76500Y29991D01*
D02*
G37*
G36*
X66500D02*
X65338Y29838D01*
X64254Y29390D01*
X63324Y28676D01*
X62611Y27746D01*
X62162Y26662D01*
X62009Y25500D01*
X62162Y24338D01*
X62611Y23254D01*
X63324Y22324D01*
X64254Y21610D01*
X65338Y21162D01*
X66500Y21009D01*
X67662Y21162D01*
X68746Y21610D01*
X69676Y22324D01*
X70389Y23254D01*
X70838Y24338D01*
X70991Y25500D01*
X70838Y26662D01*
X70389Y27746D01*
X69676Y28676D01*
X68746Y29390D01*
X67662Y29838D01*
X66500Y29991D01*
D02*
G37*
G36*
X56500D02*
X55338Y29838D01*
X54254Y29390D01*
X53324Y28676D01*
X52610Y27746D01*
X52162Y26662D01*
X52009Y25500D01*
X52162Y24338D01*
X52610Y23254D01*
X53324Y22324D01*
X54254Y21610D01*
X55338Y21162D01*
X56500Y21009D01*
X57662Y21162D01*
X58746Y21610D01*
X59676Y22324D01*
X60390Y23254D01*
X60838Y24338D01*
X60991Y25500D01*
X60838Y26662D01*
X60390Y27746D01*
X59676Y28676D01*
X58746Y29390D01*
X57662Y29838D01*
X56500Y29991D01*
D02*
G37*
G36*
X46500D02*
X45338Y29838D01*
X44254Y29390D01*
X43324Y28676D01*
X42610Y27746D01*
X42162Y26662D01*
X42009Y25500D01*
X42162Y24338D01*
X42610Y23254D01*
X43324Y22324D01*
X44254Y21610D01*
X45338Y21162D01*
X46500Y21009D01*
X47662Y21162D01*
X48746Y21610D01*
X49676Y22324D01*
X50389Y23254D01*
X50838Y24338D01*
X50991Y25500D01*
X50838Y26662D01*
X50389Y27746D01*
X49676Y28676D01*
X48746Y29390D01*
X47662Y29838D01*
X46500Y29991D01*
D02*
G37*
G36*
X36500D02*
X35338Y29838D01*
X34254Y29390D01*
X33324Y28676D01*
X32610Y27746D01*
X32162Y26662D01*
X32009Y25500D01*
X32162Y24338D01*
X32610Y23254D01*
X33324Y22324D01*
X34254Y21610D01*
X35338Y21162D01*
X36500Y21009D01*
X37662Y21162D01*
X38746Y21610D01*
X39676Y22324D01*
X40389Y23254D01*
X40838Y24338D01*
X40991Y25500D01*
X40838Y26662D01*
X40389Y27746D01*
X39676Y28676D01*
X38746Y29390D01*
X37662Y29838D01*
X36500Y29991D01*
D02*
G37*
G36*
X26500D02*
X25338Y29838D01*
X24254Y29390D01*
X23324Y28676D01*
X22611Y27746D01*
X22162Y26662D01*
X22009Y25500D01*
X22162Y24338D01*
X22611Y23254D01*
X23324Y22324D01*
X24254Y21610D01*
X25338Y21162D01*
X26500Y21009D01*
X27662Y21162D01*
X28746Y21610D01*
X29676Y22324D01*
X30389Y23254D01*
X30838Y24338D01*
X30991Y25500D01*
X30838Y26662D01*
X30389Y27746D01*
X29676Y28676D01*
X28746Y29390D01*
X27662Y29838D01*
X26500Y29991D01*
D02*
G37*
G36*
X296500Y48491D02*
X295338Y48338D01*
X294254Y47890D01*
X293324Y47176D01*
X292611Y46246D01*
X292162Y45162D01*
X292009Y44000D01*
X292162Y42838D01*
X292611Y41754D01*
X293324Y40824D01*
X294254Y40110D01*
X294461Y40025D01*
Y37345D01*
X277869Y20753D01*
X277662Y20838D01*
X276500Y20991D01*
X275338Y20838D01*
X274254Y20390D01*
X273324Y19676D01*
X272610Y18746D01*
X272162Y17662D01*
X272009Y16500D01*
X272162Y15338D01*
X272610Y14254D01*
X273324Y13324D01*
X274254Y12610D01*
X275338Y12162D01*
X276500Y12009D01*
X277662Y12162D01*
X278746Y12610D01*
X279676Y13324D01*
X280389Y14254D01*
X280838Y15338D01*
X280991Y16500D01*
X280838Y17662D01*
X280753Y17869D01*
X297942Y35058D01*
X298384Y35720D01*
X298539Y36500D01*
Y40025D01*
X298746Y40110D01*
X299676Y40824D01*
X300390Y41754D01*
X300838Y42838D01*
X300991Y44000D01*
X300838Y45162D01*
X300390Y46246D01*
X299676Y47176D01*
X298746Y47890D01*
X297662Y48338D01*
X296500Y48491D01*
D02*
G37*
G36*
X267000Y20421D02*
Y17000D01*
X270421D01*
X270351Y17532D01*
X269953Y18493D01*
X269319Y19319D01*
X268493Y19953D01*
X267532Y20351D01*
X267000Y20421D01*
D02*
G37*
G36*
X266000D02*
X265468Y20351D01*
X264507Y19953D01*
X263681Y19319D01*
X263047Y18493D01*
X262649Y17532D01*
X262579Y17000D01*
X266000D01*
Y20421D01*
D02*
G37*
G36*
X117000Y19421D02*
Y16000D01*
X120421D01*
X120351Y16532D01*
X119953Y17493D01*
X119319Y18319D01*
X118493Y18953D01*
X117532Y19351D01*
X117000Y19421D01*
D02*
G37*
G36*
X116000D02*
X115468Y19351D01*
X114507Y18953D01*
X113681Y18319D01*
X113047Y17493D01*
X112649Y16532D01*
X112579Y16000D01*
X116000D01*
Y19421D01*
D02*
G37*
G36*
X270421Y16000D02*
X267000D01*
Y12579D01*
X267532Y12649D01*
X268493Y13047D01*
X269319Y13681D01*
X269953Y14507D01*
X270351Y15468D01*
X270421Y16000D01*
D02*
G37*
G36*
X266000D02*
X262579D01*
X262649Y15468D01*
X263047Y14507D01*
X263681Y13681D01*
X264507Y13047D01*
X265468Y12649D01*
X266000Y12579D01*
Y16000D01*
D02*
G37*
G36*
X246500Y20991D02*
X245338Y20838D01*
X244254Y20390D01*
X243324Y19676D01*
X242611Y18746D01*
X242162Y17662D01*
X242009Y16500D01*
X242162Y15338D01*
X242611Y14254D01*
X243324Y13324D01*
X244254Y12610D01*
X245338Y12162D01*
X246500Y12009D01*
X247662Y12162D01*
X248746Y12610D01*
X249676Y13324D01*
X250390Y14254D01*
X250838Y15338D01*
X250991Y16500D01*
X250838Y17662D01*
X250390Y18746D01*
X249676Y19676D01*
X248746Y20390D01*
X247662Y20838D01*
X246500Y20991D01*
D02*
G37*
G36*
X120421Y15000D02*
X117000D01*
Y11579D01*
X117532Y11649D01*
X118493Y12047D01*
X119319Y12681D01*
X119953Y13507D01*
X120351Y14468D01*
X120421Y15000D01*
D02*
G37*
G36*
X116000D02*
X112579D01*
X112649Y14468D01*
X113047Y13507D01*
X113681Y12681D01*
X114507Y12047D01*
X115468Y11649D01*
X116000Y11579D01*
Y15000D01*
D02*
G37*
G36*
X106500Y19991D02*
X105338Y19838D01*
X104254Y19389D01*
X103324Y18676D01*
X102611Y17746D01*
X102162Y16662D01*
X102009Y15500D01*
X102162Y14338D01*
X102611Y13254D01*
X103324Y12324D01*
X104254Y11610D01*
X105338Y11162D01*
X106500Y11009D01*
X107662Y11162D01*
X108746Y11610D01*
X109676Y12324D01*
X110389Y13254D01*
X110838Y14338D01*
X110991Y15500D01*
X110838Y16662D01*
X110389Y17746D01*
X109676Y18676D01*
X108746Y19389D01*
X107662Y19838D01*
X106500Y19991D01*
D02*
G37*
G36*
X96500D02*
X95338Y19838D01*
X94254Y19389D01*
X93324Y18676D01*
X92611Y17746D01*
X92162Y16662D01*
X92009Y15500D01*
X92162Y14338D01*
X92611Y13254D01*
X93324Y12324D01*
X94254Y11610D01*
X95338Y11162D01*
X96500Y11009D01*
X97662Y11162D01*
X98746Y11610D01*
X99676Y12324D01*
X100390Y13254D01*
X100838Y14338D01*
X100991Y15500D01*
X100838Y16662D01*
X100390Y17746D01*
X99676Y18676D01*
X98746Y19389D01*
X97662Y19838D01*
X96500Y19991D01*
D02*
G37*
G36*
X86500D02*
X85338Y19838D01*
X84254Y19389D01*
X83324Y18676D01*
X82610Y17746D01*
X82162Y16662D01*
X82009Y15500D01*
X82162Y14338D01*
X82610Y13254D01*
X83324Y12324D01*
X84254Y11610D01*
X85338Y11162D01*
X86500Y11009D01*
X87662Y11162D01*
X88746Y11610D01*
X89676Y12324D01*
X90390Y13254D01*
X90838Y14338D01*
X90991Y15500D01*
X90838Y16662D01*
X90390Y17746D01*
X89676Y18676D01*
X88746Y19389D01*
X87662Y19838D01*
X86500Y19991D01*
D02*
G37*
G36*
X66500D02*
X65338Y19838D01*
X64254Y19389D01*
X63324Y18676D01*
X62611Y17746D01*
X62162Y16662D01*
X62009Y15500D01*
X62162Y14338D01*
X62611Y13254D01*
X63324Y12324D01*
X64254Y11610D01*
X65338Y11162D01*
X66500Y11009D01*
X67662Y11162D01*
X68746Y11610D01*
X69676Y12324D01*
X70389Y13254D01*
X70838Y14338D01*
X70991Y15500D01*
X70838Y16662D01*
X70389Y17746D01*
X69676Y18676D01*
X68746Y19389D01*
X67662Y19838D01*
X66500Y19991D01*
D02*
G37*
G36*
X56500D02*
X55338Y19838D01*
X54254Y19389D01*
X53324Y18676D01*
X52610Y17746D01*
X52162Y16662D01*
X52009Y15500D01*
X52162Y14338D01*
X52610Y13254D01*
X53324Y12324D01*
X54254Y11610D01*
X55338Y11162D01*
X56500Y11009D01*
X57662Y11162D01*
X58746Y11610D01*
X59676Y12324D01*
X60390Y13254D01*
X60838Y14338D01*
X60991Y15500D01*
X60838Y16662D01*
X60390Y17746D01*
X59676Y18676D01*
X58746Y19389D01*
X57662Y19838D01*
X56500Y19991D01*
D02*
G37*
G36*
X46500D02*
X45338Y19838D01*
X44254Y19389D01*
X43324Y18676D01*
X42610Y17746D01*
X42162Y16662D01*
X42009Y15500D01*
X42162Y14338D01*
X42610Y13254D01*
X43324Y12324D01*
X44254Y11610D01*
X45338Y11162D01*
X46500Y11009D01*
X47662Y11162D01*
X48746Y11610D01*
X49676Y12324D01*
X50389Y13254D01*
X50838Y14338D01*
X50991Y15500D01*
X50838Y16662D01*
X50389Y17746D01*
X49676Y18676D01*
X48746Y19389D01*
X47662Y19838D01*
X46500Y19991D01*
D02*
G37*
G36*
X36500D02*
X35338Y19838D01*
X34254Y19389D01*
X33324Y18676D01*
X32610Y17746D01*
X32162Y16662D01*
X32009Y15500D01*
X32162Y14338D01*
X32610Y13254D01*
X33324Y12324D01*
X34254Y11610D01*
X35338Y11162D01*
X36500Y11009D01*
X37662Y11162D01*
X38746Y11610D01*
X39676Y12324D01*
X40389Y13254D01*
X40838Y14338D01*
X40991Y15500D01*
X40838Y16662D01*
X40389Y17746D01*
X39676Y18676D01*
X38746Y19389D01*
X37662Y19838D01*
X36500Y19991D01*
D02*
G37*
G36*
X26500D02*
X25338Y19838D01*
X24254Y19389D01*
X23324Y18676D01*
X22611Y17746D01*
X22162Y16662D01*
X22009Y15500D01*
X22162Y14338D01*
X22611Y13254D01*
X23324Y12324D01*
X24254Y11610D01*
X25338Y11162D01*
X26500Y11009D01*
X27662Y11162D01*
X28746Y11610D01*
X29676Y12324D01*
X30389Y13254D01*
X30838Y14338D01*
X30991Y15500D01*
X30838Y16662D01*
X30389Y17746D01*
X29676Y18676D01*
X28746Y19389D01*
X27662Y19838D01*
X26500Y19991D01*
D02*
G37*
%LPD*%
G36*
X187610Y203254D02*
X187815Y202988D01*
X187594Y202539D01*
X146576D01*
X146385Y203001D01*
X146845Y203461D01*
X187525D01*
X187610Y203254D01*
D02*
G37*
G36*
X133525Y203145D02*
X133619Y203126D01*
X133764Y202648D01*
X98582Y167466D01*
X98024Y167355D01*
X97198Y166802D01*
X96645Y165975D01*
X96451Y165000D01*
X96645Y164024D01*
X97198Y163198D01*
X98024Y162645D01*
X99000Y162451D01*
X99976Y162645D01*
X100476Y162979D01*
X101005Y162731D01*
X101145Y162024D01*
X101698Y161198D01*
X102524Y160645D01*
X103500Y160451D01*
X104475Y160645D01*
X105302Y161198D01*
X105855Y162024D01*
X105966Y162582D01*
X107478Y164094D01*
X107976Y164045D01*
X108198Y163713D01*
X109025Y163161D01*
X110000Y162967D01*
X110976Y163161D01*
X111802Y163713D01*
X112355Y164540D01*
X112466Y165098D01*
X114798Y167430D01*
X115296Y167381D01*
X115330Y167330D01*
X116157Y166777D01*
X117132Y166583D01*
X118107Y166777D01*
X118934Y167330D01*
X119487Y168157D01*
X119598Y168714D01*
X145345Y194461D01*
X171552D01*
X172025Y194145D01*
X172557Y194039D01*
X172508Y193539D01*
X151000D01*
X151000Y193539D01*
X150220Y193384D01*
X149558Y192942D01*
X149558Y192942D01*
X128082Y171466D01*
X127524Y171355D01*
X126698Y170802D01*
X126145Y169975D01*
X125951Y169000D01*
X126145Y168025D01*
X126469Y167539D01*
X126202Y167039D01*
X122000D01*
X122000Y167039D01*
X121220Y166884D01*
X120558Y166442D01*
X108582Y154466D01*
X108025Y154355D01*
X107198Y153802D01*
X106645Y152975D01*
X106451Y152000D01*
X106645Y151024D01*
X106969Y150539D01*
X106702Y150039D01*
X92000D01*
X91220Y149884D01*
X90558Y149442D01*
X90558Y149442D01*
X83558Y142442D01*
X83116Y141780D01*
X82961Y141000D01*
Y80500D01*
X83116Y79720D01*
X83558Y79058D01*
X88115Y74501D01*
X87924Y74039D01*
X83157D01*
X82823Y74539D01*
X82923Y74780D01*
X83026Y75563D01*
X82923Y76346D01*
X82621Y77076D01*
X82140Y77703D01*
X81513Y78184D01*
X80783Y78486D01*
X80000Y78589D01*
X79970Y78585D01*
X79539Y78936D01*
Y84382D01*
X81756D01*
Y91713D01*
X81256D01*
Y93453D01*
X73744D01*
Y91713D01*
X73244D01*
Y84382D01*
X75461D01*
Y79039D01*
X74000D01*
X73220Y78884D01*
X72558Y78442D01*
X72218Y78102D01*
X71740Y78247D01*
X71666Y78616D01*
X71113Y79443D01*
X70287Y79996D01*
X69811Y80090D01*
Y77641D01*
X68811D01*
Y80090D01*
X68336Y79996D01*
X67980Y79759D01*
X67539Y79994D01*
Y173500D01*
X67384Y174280D01*
X66942Y174942D01*
X58539Y183345D01*
Y191525D01*
X58746Y191611D01*
X59676Y192324D01*
X60390Y193254D01*
X60838Y194338D01*
X60991Y195500D01*
X60838Y196662D01*
X60507Y197461D01*
X60827Y197961D01*
X62173D01*
X62493Y197461D01*
X62162Y196662D01*
X62009Y195500D01*
X62162Y194338D01*
X62611Y193254D01*
X63324Y192324D01*
X64254Y191611D01*
X65338Y191162D01*
X66500Y191009D01*
X67662Y191162D01*
X68746Y191611D01*
X69676Y192324D01*
X70389Y193254D01*
X70838Y194338D01*
X70991Y195500D01*
X70838Y196662D01*
X70507Y197461D01*
X70828Y197961D01*
X72172D01*
X72493Y197461D01*
X72162Y196662D01*
X72009Y195500D01*
X72162Y194338D01*
X72610Y193254D01*
X73324Y192324D01*
X74254Y191611D01*
X75338Y191162D01*
X76500Y191009D01*
X77662Y191162D01*
X78746Y191611D01*
X79676Y192324D01*
X80389Y193254D01*
X80838Y194338D01*
X80991Y195500D01*
X80838Y196662D01*
X80507Y197461D01*
X80827Y197961D01*
X82173D01*
X82493Y197461D01*
X82162Y196662D01*
X82009Y195500D01*
X82162Y194338D01*
X82610Y193254D01*
X83324Y192324D01*
X84254Y191611D01*
X85338Y191162D01*
X86500Y191009D01*
X87662Y191162D01*
X88746Y191611D01*
X89676Y192324D01*
X90390Y193254D01*
X90838Y194338D01*
X90991Y195500D01*
X90838Y196662D01*
X90507Y197461D01*
X90828Y197961D01*
X92172D01*
X92493Y197461D01*
X92162Y196662D01*
X92009Y195500D01*
X92162Y194338D01*
X92611Y193254D01*
X93324Y192324D01*
X94254Y191611D01*
X95338Y191162D01*
X96500Y191009D01*
X97662Y191162D01*
X98746Y191611D01*
X99676Y192324D01*
X100390Y193254D01*
X100838Y194338D01*
X100991Y195500D01*
X100838Y196662D01*
X100507Y197461D01*
X100828Y197961D01*
X102841D01*
X103062Y197512D01*
X103047Y197493D01*
X102649Y196532D01*
X102579Y196000D01*
X106500D01*
X110421D01*
X110351Y196532D01*
X109953Y197493D01*
X109938Y197512D01*
X110159Y197961D01*
X111000D01*
X111780Y198116D01*
X112442Y198558D01*
X114931Y201047D01*
X120953D01*
Y203461D01*
X133052D01*
X133525Y203145D01*
D02*
G37*
G36*
X187047Y193539D02*
X173493D01*
X173443Y194039D01*
X173976Y194145D01*
X174802Y194698D01*
X175355Y195525D01*
X175549Y196500D01*
X175355Y197476D01*
X175031Y197961D01*
X175298Y198461D01*
X187047D01*
Y193539D01*
D02*
G37*
G36*
X358155Y191961D02*
X357824Y191585D01*
X357448Y191874D01*
X356508Y192263D01*
X355500Y192395D01*
X354492Y192263D01*
X353552Y191874D01*
X352745Y191255D01*
X352126Y190448D01*
X351737Y189508D01*
X351678Y189062D01*
X338155Y175539D01*
X319845D01*
X314442Y180942D01*
X313780Y181384D01*
X313000Y181539D01*
X310087D01*
X309841Y182039D01*
X310389Y182754D01*
X310838Y183838D01*
X310991Y185000D01*
X310838Y186162D01*
X310507Y186961D01*
X310827Y187461D01*
X323000D01*
X323780Y187616D01*
X324442Y188058D01*
X329845Y193461D01*
X356655D01*
X358155Y191961D01*
D02*
G37*
G36*
X296269Y199461D02*
X295338Y199338D01*
X294254Y198890D01*
X293324Y198176D01*
X292611Y197246D01*
X292162Y196162D01*
X292009Y195000D01*
X292162Y193838D01*
X292611Y192754D01*
X293159Y192039D01*
X292913Y191539D01*
X284547D01*
X283767Y191384D01*
X283418Y191151D01*
X282952Y191441D01*
X283026Y192000D01*
X282923Y192783D01*
X282621Y193513D01*
X282140Y194140D01*
X282039Y194217D01*
Y195155D01*
X286845Y199961D01*
X296237D01*
X296269Y199461D01*
D02*
G37*
G36*
X382961Y204155D02*
Y157345D01*
X341655Y116039D01*
X333806D01*
X333576Y116539D01*
X333920Y116987D01*
X334222Y117717D01*
X334325Y118500D01*
X334309Y118625D01*
X372870Y157187D01*
X373460Y157069D01*
X373674Y156552D01*
X374293Y155745D01*
X375099Y155126D01*
X376039Y154737D01*
X377047Y154604D01*
X378056Y154737D01*
X378995Y155126D01*
X379802Y155745D01*
X380421Y156552D01*
X380810Y157492D01*
X380943Y158500D01*
X380810Y159508D01*
X380421Y160448D01*
X379802Y161255D01*
X378995Y161874D01*
X378056Y162263D01*
X377047Y162396D01*
X376039Y162263D01*
X375539Y162056D01*
X375039Y162390D01*
Y184610D01*
X375539Y184944D01*
X376039Y184737D01*
X377047Y184605D01*
X378056Y184737D01*
X378995Y185126D01*
X379802Y185745D01*
X380421Y186552D01*
X380810Y187492D01*
X380943Y188500D01*
X380810Y189508D01*
X380421Y190448D01*
X379802Y191255D01*
X378995Y191874D01*
X378056Y192263D01*
X377047Y192395D01*
X376039Y192263D01*
X375539Y192056D01*
X375039Y192390D01*
Y193500D01*
X374884Y194280D01*
X374442Y194942D01*
X361885Y207499D01*
X362076Y207961D01*
X379155D01*
X382961Y204155D01*
D02*
G37*
G36*
X361461Y188655D02*
Y172099D01*
X350696Y161335D01*
X350254Y160673D01*
X350245Y160629D01*
X316808Y127192D01*
X316366Y126530D01*
X316211Y125750D01*
Y119967D01*
X316110Y119890D01*
X315630Y119263D01*
X315395Y118696D01*
X314865Y118519D01*
X310942Y122442D01*
X310280Y122884D01*
X309500Y123039D01*
X303500D01*
X302720Y122884D01*
X302058Y122442D01*
X297869Y118253D01*
X297662Y118338D01*
X296500Y118491D01*
X295338Y118338D01*
X294254Y117889D01*
X293324Y117176D01*
X292611Y116246D01*
X292162Y115162D01*
X292009Y114000D01*
X292162Y112838D01*
X292611Y111754D01*
X292815Y111488D01*
X292594Y111039D01*
X268000D01*
X267220Y110884D01*
X266558Y110442D01*
X265028Y108912D01*
X264530Y108961D01*
X264412Y109138D01*
X264384Y109280D01*
X263942Y109942D01*
X261697Y112187D01*
Y124052D01*
X262012Y124524D01*
X262340Y124660D01*
X262545Y124641D01*
X263500Y124451D01*
X264475Y124645D01*
X265302Y125198D01*
X265855Y126024D01*
X266049Y127000D01*
X265855Y127975D01*
X265386Y128677D01*
X265573Y129177D01*
X311628D01*
X311720Y129116D01*
X312500Y128961D01*
X313280Y129116D01*
X313942Y129558D01*
X320442Y136058D01*
X320884Y136720D01*
X321039Y137500D01*
Y171461D01*
X339000D01*
X339780Y171616D01*
X340442Y172058D01*
X353528Y185145D01*
X353552Y185126D01*
X354492Y184737D01*
X355500Y184605D01*
X356508Y184737D01*
X357448Y185126D01*
X358255Y185745D01*
X358874Y186552D01*
X359263Y187492D01*
X359396Y188500D01*
X359263Y189508D01*
X358874Y190448D01*
X358584Y190824D01*
X358961Y191155D01*
X361461Y188655D01*
D02*
G37*
G36*
X245877Y185499D02*
X239918Y179539D01*
X171000D01*
X170220Y179384D01*
X169558Y178942D01*
X160082Y169466D01*
X159525Y169355D01*
X158698Y168802D01*
X158145Y167975D01*
X157951Y167000D01*
X158145Y166024D01*
X158698Y165198D01*
X159525Y164645D01*
X160500Y164451D01*
X161476Y164645D01*
X162302Y165198D01*
X162855Y166024D01*
X162875Y166125D01*
X162961Y166171D01*
X163461Y165871D01*
Y164000D01*
X163616Y163220D01*
X164058Y162558D01*
X166058Y160558D01*
X166720Y160116D01*
X167500Y159961D01*
X172500D01*
X173280Y160116D01*
X173942Y160558D01*
X173999Y160615D01*
X174461Y160424D01*
Y150031D01*
X173961Y149763D01*
X173780Y149884D01*
X173000Y150039D01*
X129443D01*
X129394Y150539D01*
X129780Y150616D01*
X130442Y151058D01*
X141497Y162113D01*
X141975Y162208D01*
X142802Y162761D01*
X143355Y163587D01*
X143450Y164066D01*
X165345Y185961D01*
X175298D01*
X175615Y185574D01*
X175501Y185000D01*
X175695Y184025D01*
X176248Y183198D01*
X177075Y182645D01*
X178050Y182451D01*
X179025Y182645D01*
X179498Y182961D01*
X189052D01*
X189524Y182645D01*
X190500Y182451D01*
X191475Y182645D01*
X192302Y183198D01*
X192855Y184025D01*
X193049Y185000D01*
X192935Y185574D01*
X193252Y185961D01*
X245686D01*
X245877Y185499D01*
D02*
G37*
G36*
X302493Y186961D02*
X302162Y186162D01*
X302009Y185000D01*
X302162Y183838D01*
X302610Y182754D01*
X303324Y181824D01*
X303707Y181530D01*
X303691Y181031D01*
X303558Y180942D01*
X300558Y177942D01*
X300469Y177809D01*
X299970Y177793D01*
X299676Y178176D01*
X298746Y178890D01*
X297662Y179338D01*
X296500Y179491D01*
X295338Y179338D01*
X294254Y178890D01*
X293324Y178176D01*
X292611Y177246D01*
X292162Y176162D01*
X292009Y175000D01*
X292162Y173838D01*
X292394Y173278D01*
X270885Y151769D01*
X270423Y151960D01*
Y156039D01*
X295131Y180747D01*
X295338Y180662D01*
X296500Y180509D01*
X297662Y180662D01*
X298746Y181111D01*
X299676Y181824D01*
X300390Y182754D01*
X300838Y183838D01*
X300991Y185000D01*
X300838Y186162D01*
X300507Y186961D01*
X300828Y187461D01*
X302172D01*
X302493Y186961D01*
D02*
G37*
G36*
X54254Y191611D02*
X54461Y191525D01*
Y182500D01*
X54616Y181720D01*
X55058Y181058D01*
X60213Y175903D01*
X60105Y175429D01*
X60038Y175371D01*
X59396Y174942D01*
X59233Y174697D01*
X58735Y174648D01*
X53539Y179845D01*
Y191594D01*
X53988Y191815D01*
X54254Y191611D01*
D02*
G37*
G36*
X269950Y199478D02*
X270126Y199052D01*
X270745Y198245D01*
X271552Y197626D01*
X272492Y197237D01*
X273070Y197161D01*
X273249Y196633D01*
X249637Y173021D01*
X243612D01*
X243405Y173521D01*
X269460Y199576D01*
X269950Y199478D01*
D02*
G37*
G36*
X204565Y173074D02*
X204534Y172918D01*
X200655Y169039D01*
X193851D01*
X193851Y169039D01*
X193071Y168884D01*
X192410Y168442D01*
X191800Y167832D01*
X191302Y167881D01*
X190475Y168434D01*
X189500Y168628D01*
X188524Y168434D01*
X188039Y168109D01*
X187539Y168377D01*
Y171016D01*
X187539Y171016D01*
X187384Y171796D01*
X186942Y172458D01*
X186401Y172999D01*
X186592Y173461D01*
X204248D01*
X204565Y173074D01*
D02*
G37*
G36*
X316961Y172655D02*
Y167943D01*
X316461Y167894D01*
X316384Y168280D01*
X315942Y168942D01*
X310862Y174021D01*
X310991Y175000D01*
X310838Y176162D01*
X310507Y176961D01*
X310827Y177461D01*
X312155D01*
X316961Y172655D01*
D02*
G37*
G36*
X152615Y188999D02*
X131085Y167469D01*
X130697Y167788D01*
X130855Y168025D01*
X130966Y168582D01*
X151845Y189461D01*
X152424D01*
X152615Y188999D01*
D02*
G37*
G36*
X145606Y207461D02*
X145220Y207384D01*
X144558Y206942D01*
X103429Y165813D01*
X103407Y165816D01*
X103231Y166347D01*
X144845Y207961D01*
X145557D01*
X145606Y207461D01*
D02*
G37*
G36*
X216178Y170587D02*
X216294Y170007D01*
X216846Y169180D01*
X217673Y168627D01*
X218037Y168555D01*
X218267Y167999D01*
X217917Y167475D01*
X217723Y166500D01*
X217917Y165524D01*
X218469Y164698D01*
X219296Y164145D01*
X220272Y163951D01*
X221247Y164145D01*
X221720Y164461D01*
X222010D01*
X242219Y144252D01*
X242156Y143608D01*
X242052Y143539D01*
X193845D01*
X191964Y145420D01*
X192155Y145882D01*
X197756D01*
Y145882D01*
X198244D01*
Y145882D01*
X206756D01*
Y151787D01*
Y159118D01*
X202941D01*
Y161930D01*
X203441Y162082D01*
X203698Y161698D01*
X204524Y161145D01*
X205500Y160951D01*
X206475Y161145D01*
X207302Y161698D01*
X207855Y162524D01*
X207966Y163082D01*
X215636Y170752D01*
X216178Y170587D01*
D02*
G37*
G36*
X305338Y170662D02*
X306500Y170509D01*
X307662Y170662D01*
X308222Y170894D01*
X312461Y166655D01*
Y154345D01*
X311415Y153298D01*
X310953Y153490D01*
Y159453D01*
X302047D01*
Y150547D01*
X307417D01*
X307685Y150047D01*
X307679Y150039D01*
X297170D01*
X296751Y150234D01*
X296731Y150539D01*
X296756Y150543D01*
X297662Y150662D01*
X298746Y151110D01*
X299676Y151824D01*
X300390Y152754D01*
X300838Y153838D01*
X300991Y155000D01*
X300838Y156162D01*
X300390Y157246D01*
X299676Y158176D01*
X298746Y158889D01*
X297662Y159338D01*
X296500Y159491D01*
X295338Y159338D01*
X294254Y158889D01*
X293324Y158176D01*
X292611Y157246D01*
X292162Y156162D01*
X292009Y155000D01*
X292162Y153838D01*
X292611Y152754D01*
X293324Y151824D01*
X294254Y151110D01*
X295338Y150662D01*
X296244Y150543D01*
X296269Y150539D01*
X296249Y150234D01*
X295830Y150039D01*
X275948D01*
X275758Y150166D01*
X275671Y150787D01*
X292027Y167143D01*
X292451Y166860D01*
X292162Y166162D01*
X292009Y165000D01*
X292162Y163838D01*
X292611Y162754D01*
X293324Y161824D01*
X294254Y161110D01*
X295338Y160662D01*
X296500Y160509D01*
X297662Y160662D01*
X298746Y161110D01*
X299676Y161824D01*
X300390Y162754D01*
X300838Y163838D01*
X300991Y165000D01*
X300979Y165095D01*
X301599Y165715D01*
X302072Y165481D01*
X302009Y165000D01*
X302162Y163838D01*
X302610Y162754D01*
X303324Y161824D01*
X304254Y161110D01*
X305338Y160662D01*
X306500Y160509D01*
X307662Y160662D01*
X308746Y161110D01*
X309676Y161824D01*
X310389Y162754D01*
X310838Y163838D01*
X310991Y165000D01*
X310838Y166162D01*
X310389Y167246D01*
X309676Y168176D01*
X308746Y168889D01*
X307662Y169338D01*
X306500Y169491D01*
X305338Y169338D01*
X304539Y169007D01*
X304039Y169327D01*
Y170673D01*
X304539Y170993D01*
X305338Y170662D01*
D02*
G37*
G36*
X366461Y191155D02*
Y166845D01*
X359541Y159924D01*
X359050Y160022D01*
X358874Y160448D01*
X358255Y161255D01*
X357596Y161760D01*
X357474Y162345D01*
X364942Y169813D01*
X365384Y170475D01*
X365539Y171255D01*
Y189500D01*
X365384Y190280D01*
X364942Y190942D01*
X358942Y196942D01*
X358280Y197384D01*
X357500Y197539D01*
X329000D01*
X328220Y197384D01*
X327558Y196942D01*
X322155Y191539D01*
X310087D01*
X309841Y192039D01*
X310389Y192754D01*
X310838Y193838D01*
X310991Y195000D01*
X310838Y196162D01*
X310389Y197246D01*
X309676Y198176D01*
X308746Y198890D01*
X307662Y199338D01*
X306500Y199491D01*
X305338Y199338D01*
X305131Y199253D01*
X302385Y201999D01*
X302576Y202461D01*
X355155D01*
X366461Y191155D01*
D02*
G37*
G36*
X161115Y187499D02*
X140661Y167044D01*
X140024Y166918D01*
X139198Y166365D01*
X138645Y165538D01*
X138519Y164902D01*
X128155Y154539D01*
X127948D01*
X127476Y154855D01*
X126500Y155049D01*
X125524Y154855D01*
X124698Y154302D01*
X124145Y153475D01*
X123951Y152500D01*
X124145Y151524D01*
X124698Y150698D01*
X124935Y150539D01*
X124783Y150039D01*
X111298D01*
X111031Y150539D01*
X111355Y151024D01*
X111466Y151582D01*
X122845Y162961D01*
X131500D01*
X132280Y163116D01*
X132942Y163558D01*
X157345Y187961D01*
X160924D01*
X161115Y187499D01*
D02*
G37*
G36*
X61366Y171560D02*
X61647Y171616D01*
X62308Y172058D01*
X62645Y172563D01*
X63198Y172687D01*
X63461Y172473D01*
Y84076D01*
X62999Y83885D01*
X48539Y98345D01*
Y132155D01*
X48716Y132332D01*
X49179Y132472D01*
Y132472D01*
X49179Y132472D01*
X49679D01*
Y130732D01*
X53435D01*
X57191D01*
Y132472D01*
X57691D01*
Y139803D01*
X55474D01*
Y149590D01*
X57875Y151991D01*
X58000Y151974D01*
X58783Y152077D01*
X59513Y152380D01*
X60140Y152860D01*
X60620Y153487D01*
X60923Y154217D01*
X61026Y155000D01*
X60923Y155783D01*
X60620Y156513D01*
X60140Y157140D01*
X60039Y157217D01*
Y171110D01*
X60366Y171378D01*
Y173500D01*
X61366D01*
Y171560D01*
D02*
G37*
G36*
X277961Y194924D02*
Y194217D01*
X277860Y194140D01*
X277379Y193513D01*
X277077Y192783D01*
X276974Y192000D01*
X277077Y191217D01*
X277379Y190487D01*
X277860Y189860D01*
X278487Y189380D01*
X279217Y189077D01*
X280000Y188974D01*
X280496Y189039D01*
X280729Y188566D01*
X246625Y154462D01*
X246500Y154479D01*
X245717Y154376D01*
X244987Y154073D01*
X244360Y153592D01*
X243880Y152966D01*
X243577Y152236D01*
X243474Y151453D01*
X243577Y150670D01*
X243880Y149940D01*
X244360Y149313D01*
X244987Y148832D01*
X245717Y148530D01*
X246500Y148427D01*
X247283Y148530D01*
X248013Y148832D01*
X248640Y149313D01*
X249120Y149940D01*
X249423Y150670D01*
X249526Y151453D01*
X249509Y151578D01*
X285392Y187461D01*
X292173D01*
X292493Y186961D01*
X292162Y186162D01*
X292009Y185000D01*
X292162Y183838D01*
X292247Y183631D01*
X266942Y158326D01*
X266500Y157664D01*
X266344Y156884D01*
Y151767D01*
X266004Y151447D01*
X265504Y151500D01*
X265302Y151802D01*
X264475Y152355D01*
X263500Y152549D01*
X262525Y152355D01*
X262052Y152039D01*
X259500D01*
X258720Y151884D01*
X258058Y151442D01*
X254558Y147942D01*
X254116Y147280D01*
X253961Y146500D01*
Y120906D01*
X253482Y120761D01*
X253455Y120802D01*
X252628Y121355D01*
X252070Y121466D01*
X249925Y123611D01*
X249263Y124053D01*
X248483Y124208D01*
X247845D01*
X243966Y128087D01*
X243855Y128645D01*
X243539Y129117D01*
Y130388D01*
X248942Y135790D01*
X249384Y136452D01*
X249539Y137232D01*
Y141855D01*
X249384Y142635D01*
X248942Y143297D01*
X224297Y167942D01*
X223635Y168384D01*
X223339Y168443D01*
X223388Y168943D01*
X250482D01*
X251262Y169098D01*
X251924Y169540D01*
X277499Y195115D01*
X277961Y194924D01*
D02*
G37*
G36*
X181500Y163451D02*
X181574Y163466D01*
X181961Y163149D01*
Y146076D01*
X181499Y145885D01*
X178539Y148845D01*
Y160655D01*
X181362Y163478D01*
X181500Y163451D01*
D02*
G37*
G36*
X245461Y139202D02*
Y138077D01*
X240058Y132674D01*
X239616Y132013D01*
X239461Y131232D01*
Y129117D01*
X239145Y128645D01*
X238951Y127669D01*
X239133Y126756D01*
X238975Y126486D01*
X238814Y126289D01*
X207095D01*
X194385Y138999D01*
X194576Y139461D01*
X242052D01*
X242525Y139145D01*
X243500Y138951D01*
X244476Y139145D01*
X244961Y139469D01*
X245461Y139202D01*
D02*
G37*
G36*
X49461Y191594D02*
Y179000D01*
X49616Y178220D01*
X50058Y177558D01*
X55961Y171655D01*
Y157217D01*
X55860Y157140D01*
X55379Y156513D01*
X55077Y155783D01*
X54974Y155000D01*
X54991Y154875D01*
X51993Y151877D01*
X51551Y151215D01*
X51396Y150435D01*
Y139803D01*
X49179D01*
Y138559D01*
X49039Y138480D01*
X48539Y138774D01*
Y191525D01*
X48746Y191611D01*
X49012Y191815D01*
X49461Y191594D01*
D02*
G37*
G36*
X288200Y145461D02*
X288172Y145442D01*
X288172Y145442D01*
X278769Y136039D01*
X270565D01*
X270414Y136539D01*
X270442Y136558D01*
X275942Y142058D01*
X275942Y142058D01*
X276384Y142720D01*
X276539Y143500D01*
Y145961D01*
X288049D01*
X288200Y145461D01*
D02*
G37*
G36*
X312491Y141625D02*
X312474Y141500D01*
X312577Y140717D01*
X312879Y139987D01*
X313360Y139360D01*
X313987Y138880D01*
X314717Y138577D01*
X315500Y138474D01*
X316084Y138551D01*
X316527Y138290D01*
X316623Y138177D01*
X316638Y138022D01*
X313703Y135087D01*
X313279Y135370D01*
X313423Y135717D01*
X313526Y136500D01*
X313423Y137283D01*
X313121Y138013D01*
X312640Y138640D01*
X312013Y139120D01*
X311283Y139423D01*
X310500Y139526D01*
X309717Y139423D01*
X308987Y139120D01*
X308360Y138640D01*
X308283Y138539D01*
X300730D01*
X293828Y145442D01*
X293799Y145461D01*
X293951Y145961D01*
X308155D01*
X312491Y141625D01*
D02*
G37*
G36*
X290217Y141077D02*
X291000Y140974D01*
X291783Y141077D01*
X292237Y141265D01*
X298444Y135058D01*
X299106Y134616D01*
X299886Y134461D01*
X308283D01*
X308360Y134360D01*
X308987Y133879D01*
X309286Y133756D01*
X309187Y133256D01*
X282407D01*
X282216Y133718D01*
X289763Y141265D01*
X290217Y141077D01*
D02*
G37*
G36*
X370961Y165557D02*
Y161046D01*
X331425Y121509D01*
X331299Y121526D01*
X330516Y121423D01*
X329786Y121121D01*
X329160Y120640D01*
X328679Y120013D01*
X328376Y119283D01*
X328273Y118500D01*
X328376Y117717D01*
X328679Y116987D01*
X329022Y116539D01*
X328792Y116039D01*
X327341D01*
X327281Y116162D01*
X327142Y116539D01*
X327423Y117217D01*
X327526Y118000D01*
X327423Y118783D01*
X327120Y119513D01*
X326640Y120140D01*
X326539Y120217D01*
Y121155D01*
X369942Y164558D01*
X370384Y165220D01*
X370461Y165606D01*
X370961Y165557D01*
D02*
G37*
G36*
X92540Y140949D02*
X92451Y140500D01*
X92645Y139524D01*
X93198Y138698D01*
X94024Y138145D01*
X94577Y138035D01*
X94500Y137549D01*
X93524Y137355D01*
X92698Y136802D01*
X92145Y135976D01*
X91951Y135000D01*
X92145Y134025D01*
X92698Y133198D01*
X93524Y132645D01*
X94500Y132451D01*
X95476Y132645D01*
X95574Y132711D01*
X111961D01*
Y120195D01*
X111461Y120146D01*
X111355Y120678D01*
X110802Y121505D01*
X109976Y122058D01*
X109000Y122252D01*
X108025Y122058D01*
X107552Y121742D01*
X103203D01*
X102422Y121587D01*
X101761Y121145D01*
X98105Y117489D01*
X97663Y116828D01*
X97508Y116047D01*
Y115756D01*
X96334D01*
X96182Y116256D01*
X96725Y116619D01*
X97278Y117446D01*
X97372Y117921D01*
X95423D01*
Y115972D01*
X95476Y115982D01*
X95882Y115553D01*
Y114139D01*
X95382Y113874D01*
X94500Y114049D01*
X93524Y113855D01*
X92698Y113302D01*
X92145Y112476D01*
X91951Y111500D01*
X92145Y110524D01*
X92698Y109698D01*
X93524Y109145D01*
X94500Y108951D01*
X95382Y109126D01*
X95882Y108861D01*
Y107244D01*
X97508D01*
Y78146D01*
X97008Y77939D01*
X89539Y85408D01*
Y138655D01*
X92080Y141196D01*
X92540Y140949D01*
D02*
G37*
G36*
X245558Y120727D02*
X245558Y120727D01*
X246220Y120285D01*
X247000Y120130D01*
X247638D01*
X249186Y118582D01*
X249297Y118025D01*
X249442Y117809D01*
X249206Y117368D01*
X215214D01*
X215046Y117461D01*
X215175Y117961D01*
X239500D01*
X240280Y118116D01*
X240942Y118558D01*
X241445Y119061D01*
X242000Y118951D01*
X242975Y119145D01*
X243802Y119698D01*
X244355Y120525D01*
X244471Y121107D01*
X245013Y121272D01*
X245558Y120727D01*
D02*
G37*
G36*
X352351Y156260D02*
X352745Y155745D01*
X353552Y155126D01*
X353978Y154950D01*
X354076Y154460D01*
X323058Y123442D01*
X322616Y122780D01*
X322461Y122000D01*
Y120217D01*
X322360Y120140D01*
X321880Y119513D01*
X321594Y118823D01*
X321462Y118782D01*
X321072Y118777D01*
X320870Y119263D01*
X320390Y119890D01*
X320289Y119967D01*
Y124905D01*
X351709Y156325D01*
X352351Y156260D01*
D02*
G37*
G36*
X124865Y130461D02*
X124701Y129638D01*
X124895Y128662D01*
X125448Y127835D01*
X126275Y127283D01*
X127211Y127097D01*
Y117374D01*
X126801Y117094D01*
X126711Y117108D01*
X125750Y117299D01*
X124775Y117105D01*
X123948Y116552D01*
X123395Y115726D01*
X123201Y114750D01*
X123395Y113775D01*
X123553Y113538D01*
X123165Y113219D01*
X116039Y120345D01*
Y130961D01*
X124572D01*
X124865Y130461D01*
D02*
G37*
G36*
X388961Y207155D02*
Y137845D01*
X371909Y120793D01*
X371467Y120132D01*
X371312Y119351D01*
Y117837D01*
X370812Y117610D01*
X370087Y117910D01*
X369173Y118030D01*
X368260Y117910D01*
X367408Y117557D01*
X366677Y116996D01*
X366116Y116265D01*
X365763Y115414D01*
X365643Y114500D01*
X365763Y113586D01*
X366116Y112735D01*
X366677Y112004D01*
X367283Y111539D01*
X367129Y111039D01*
X363343D01*
X363190Y111539D01*
X363795Y112004D01*
X364356Y112735D01*
X364709Y113586D01*
X364829Y114500D01*
X364709Y115414D01*
X364356Y116265D01*
X363795Y116996D01*
X363064Y117557D01*
X362213Y117910D01*
X361299Y118030D01*
X360385Y117910D01*
X359534Y117557D01*
X358803Y116996D01*
X358242Y116265D01*
X357889Y115414D01*
X357769Y114500D01*
X357889Y113586D01*
X358242Y112735D01*
X358803Y112004D01*
X359408Y111539D01*
X359256Y111039D01*
X353952D01*
X353920Y111539D01*
X354208Y111577D01*
X354938Y111880D01*
X355565Y112360D01*
X356046Y112987D01*
X356348Y113717D01*
X356385Y114000D01*
X353425D01*
X350465D01*
X350502Y113717D01*
X350805Y112987D01*
X351286Y112360D01*
X351912Y111880D01*
X352642Y111577D01*
X352931Y111539D01*
X352898Y111039D01*
X310406D01*
X310185Y111488D01*
X310389Y111754D01*
X310838Y112838D01*
X310991Y114000D01*
X310838Y115162D01*
X310389Y116246D01*
X309676Y117176D01*
X308746Y117889D01*
X307662Y118338D01*
X306731Y118461D01*
X306763Y118961D01*
X308655D01*
X315058Y112558D01*
X315058Y112558D01*
X315720Y112116D01*
X316500Y111961D01*
X342500D01*
X343280Y112116D01*
X343942Y112558D01*
X386442Y155058D01*
X386884Y155720D01*
X387039Y156500D01*
X387039Y156500D01*
Y205000D01*
X386884Y205780D01*
X386442Y206442D01*
X381923Y210961D01*
X382130Y211461D01*
X384655D01*
X388961Y207155D01*
D02*
G37*
G36*
X214518Y113289D02*
X251552D01*
X251845Y113093D01*
X251972Y112513D01*
X250498Y111039D01*
X212845D01*
X211058Y112826D01*
X211249Y113288D01*
X214173D01*
X214350Y113323D01*
X214518Y113289D01*
D02*
G37*
G36*
X210558Y107558D02*
X211220Y107116D01*
X211606Y107039D01*
X211557Y106539D01*
X210845D01*
X172297Y145087D01*
X172461Y145630D01*
X172482Y145634D01*
X210558Y107558D01*
D02*
G37*
G36*
X127211Y101977D02*
Y94845D01*
X126582Y94216D01*
X126024Y94105D01*
X125198Y93552D01*
X124645Y92725D01*
X124451Y91750D01*
X124592Y91039D01*
X124247Y90539D01*
X122948D01*
X122476Y90855D01*
X121500Y91049D01*
X120525Y90855D01*
X119698Y90302D01*
X119145Y89476D01*
X118951Y88500D01*
X119145Y87524D01*
X119218Y87416D01*
X118917Y86966D01*
X118500Y87049D01*
X117539Y86858D01*
X117449Y86844D01*
X117039Y87124D01*
Y94171D01*
X124432Y101564D01*
X125000Y101451D01*
X125976Y101645D01*
X126711Y102136D01*
X127211Y101977D01*
D02*
G37*
G36*
X260140Y106551D02*
X260145Y106525D01*
X260698Y105698D01*
X261039Y105470D01*
X261088Y104972D01*
X250763Y94647D01*
X250000Y94799D01*
X249025Y94605D01*
X248198Y94052D01*
X247645Y93226D01*
X247539Y92693D01*
X247039Y92743D01*
Y94655D01*
X257918Y105534D01*
X258475Y105645D01*
X259302Y106198D01*
X259609Y106657D01*
X260140Y106551D01*
D02*
G37*
G36*
X208558Y103058D02*
X209220Y102616D01*
X210000Y102461D01*
X248424D01*
X248615Y101999D01*
X243558Y96942D01*
X243116Y96280D01*
X242961Y95500D01*
Y94289D01*
X209595D01*
X160442Y143442D01*
X160414Y143461D01*
X160565Y143961D01*
X167655D01*
X208558Y103058D01*
D02*
G37*
G36*
X292815Y106512D02*
X292611Y106246D01*
X292162Y105162D01*
X292009Y104000D01*
X292162Y102838D01*
X292611Y101754D01*
X293324Y100824D01*
X294254Y100110D01*
X295338Y99662D01*
X296500Y99509D01*
X297662Y99662D01*
X298746Y100110D01*
X299676Y100824D01*
X300390Y101754D01*
X300475Y101961D01*
X300556D01*
X301337Y102116D01*
X301793Y102421D01*
X302383Y102303D01*
X302610Y101754D01*
X303324Y100824D01*
X304254Y100110D01*
X305338Y99662D01*
X306500Y99509D01*
X307662Y99662D01*
X307869Y99747D01*
X325461Y82155D01*
Y46076D01*
X324999Y45885D01*
X310442Y60442D01*
X310158Y60632D01*
X310043Y61303D01*
X310389Y61754D01*
X310838Y62838D01*
X310991Y64000D01*
X310838Y65162D01*
X310753Y65369D01*
X321442Y76058D01*
X321808Y76606D01*
X322140Y76860D01*
X322621Y77487D01*
X322923Y78217D01*
X323026Y79000D01*
X322923Y79783D01*
X322621Y80513D01*
X322140Y81140D01*
X321513Y81621D01*
X320783Y81923D01*
X320000Y82026D01*
X319217Y81923D01*
X318487Y81621D01*
X317860Y81140D01*
X317379Y80513D01*
X317077Y79783D01*
X316974Y79000D01*
X317077Y78217D01*
X317299Y77682D01*
X307869Y68253D01*
X307662Y68338D01*
X306500Y68491D01*
X305338Y68338D01*
X304254Y67889D01*
X303324Y67176D01*
X302610Y66246D01*
X302162Y65162D01*
X302009Y64000D01*
X302162Y62838D01*
X302591Y61801D01*
X302584Y61704D01*
X302355Y61267D01*
X302144Y61239D01*
X300753Y62631D01*
X300838Y62838D01*
X300991Y64000D01*
X300838Y65162D01*
X300390Y66246D01*
X299676Y67176D01*
X298746Y67889D01*
X298061Y68173D01*
X297942Y68761D01*
X298384Y69422D01*
X298501Y70009D01*
X298746Y70110D01*
X299676Y70824D01*
X300390Y71754D01*
X300838Y72838D01*
X300991Y74000D01*
X300838Y75162D01*
X300390Y76246D01*
X299676Y77176D01*
X298746Y77890D01*
X297662Y78338D01*
X296500Y78491D01*
X295338Y78338D01*
X294254Y77890D01*
X293324Y77176D01*
X292611Y76246D01*
X292162Y75162D01*
X292009Y74000D01*
X292162Y72838D01*
X292611Y71754D01*
X293324Y70824D01*
X293540Y70658D01*
X293573Y70160D01*
X277338Y53924D01*
X276762Y54056D01*
X276573Y54513D01*
X276092Y55140D01*
X275466Y55620D01*
X274736Y55923D01*
X273953Y56026D01*
X273566Y55975D01*
X273332Y56449D01*
X281942Y65058D01*
X281942Y65058D01*
X282384Y65720D01*
X282539Y66500D01*
Y84961D01*
X291756D01*
X292086Y84585D01*
X292009Y84000D01*
X292162Y82838D01*
X292611Y81754D01*
X293324Y80824D01*
X294254Y80111D01*
X295338Y79662D01*
X296500Y79509D01*
X297662Y79662D01*
X298746Y80111D01*
X299676Y80824D01*
X300390Y81754D01*
X300838Y82838D01*
X300991Y84000D01*
X300838Y85162D01*
X300390Y86246D01*
X300185Y86512D01*
X300406Y86961D01*
X301500D01*
X302280Y87116D01*
X302942Y87558D01*
X305131Y89747D01*
X305338Y89662D01*
X306500Y89509D01*
X307662Y89662D01*
X308746Y90110D01*
X309676Y90824D01*
X310389Y91754D01*
X310838Y92838D01*
X310991Y94000D01*
X310838Y95162D01*
X310389Y96246D01*
X309676Y97176D01*
X308746Y97890D01*
X307662Y98338D01*
X306500Y98491D01*
X305338Y98338D01*
X304254Y97890D01*
X303324Y97176D01*
X302610Y96246D01*
X302162Y95162D01*
X302009Y94000D01*
X302162Y92838D01*
X302247Y92631D01*
X300655Y91039D01*
X299841D01*
X299594Y91539D01*
X299953Y92007D01*
X300351Y92968D01*
X300421Y93500D01*
X296500D01*
X292579D01*
X292649Y92968D01*
X293047Y92007D01*
X293563Y91335D01*
X293569Y91316D01*
X293520Y90832D01*
X293467Y90715D01*
X293058Y90442D01*
X291931Y89315D01*
X291758Y89346D01*
X291547Y89891D01*
X291620Y89987D01*
X291923Y90717D01*
X292026Y91500D01*
X291923Y92283D01*
X291620Y93013D01*
X291140Y93640D01*
X290513Y94121D01*
X289783Y94423D01*
X289000Y94526D01*
X288217Y94423D01*
X287487Y94121D01*
X286860Y93640D01*
X286380Y93013D01*
X286077Y92283D01*
X285974Y91500D01*
X285987Y91402D01*
X285651Y91039D01*
X253576D01*
X253385Y91501D01*
X268845Y106961D01*
X292594D01*
X292815Y106512D01*
D02*
G37*
G36*
X122969Y143461D02*
X122645Y142975D01*
X122451Y142000D01*
X122645Y141024D01*
X123198Y140198D01*
X124024Y139645D01*
X125000Y139451D01*
X125976Y139645D01*
X126448Y139961D01*
X158155D01*
X207308Y90808D01*
X207308Y90808D01*
X207970Y90366D01*
X208750Y90211D01*
X243122D01*
X243558Y89558D01*
X243615Y89501D01*
X243424Y89039D01*
X204845D01*
X155942Y137942D01*
X155280Y138384D01*
X154500Y138539D01*
X107345D01*
X103942Y141942D01*
X103280Y142384D01*
X102500Y142539D01*
X97798D01*
X97531Y143039D01*
X97855Y143525D01*
X97942Y143961D01*
X122702D01*
X122969Y143461D01*
D02*
G37*
G36*
X278461Y67345D02*
X268482Y57366D01*
X267954Y57545D01*
X267923Y57783D01*
X267620Y58513D01*
X267140Y59140D01*
X267039Y59217D01*
Y60655D01*
X267442Y61058D01*
X267884Y61720D01*
X268039Y62500D01*
Y66783D01*
X268140Y66860D01*
X268620Y67487D01*
X268923Y68217D01*
X269026Y69000D01*
X268923Y69783D01*
X268620Y70513D01*
X268140Y71140D01*
X267513Y71621D01*
X266783Y71923D01*
X266000Y72026D01*
X265217Y71923D01*
X264487Y71621D01*
X263860Y71140D01*
X263380Y70513D01*
X263077Y69783D01*
X262974Y69000D01*
X263077Y68217D01*
X263380Y67487D01*
X263860Y66860D01*
X263961Y66783D01*
Y63345D01*
X263558Y62942D01*
X263116Y62280D01*
X262961Y61500D01*
Y59217D01*
X262860Y59140D01*
X262783Y59039D01*
X260500D01*
X260500Y59039D01*
X259720Y58884D01*
X259058Y58442D01*
X248155Y47539D01*
X239448D01*
X238976Y47855D01*
X238961Y47858D01*
X238780Y47978D01*
X238305Y48073D01*
X238141Y48615D01*
X244442Y54916D01*
X244884Y55578D01*
X245039Y56358D01*
Y63256D01*
X245355Y63729D01*
X245549Y64705D01*
X245379Y65556D01*
X245580Y66106D01*
X245630Y66116D01*
X246292Y66558D01*
X251137Y71404D01*
X251524Y71145D01*
X252500Y70951D01*
X253475Y71145D01*
X254302Y71698D01*
X254855Y72524D01*
X255049Y73500D01*
X254983Y73834D01*
X255433Y74134D01*
X255434Y74133D01*
X256410Y73939D01*
X257385Y74133D01*
X258212Y74686D01*
X258764Y75513D01*
X258958Y76488D01*
X258764Y77464D01*
X258212Y78291D01*
X257385Y78843D01*
X256410Y79037D01*
X255434Y78843D01*
X254961Y78527D01*
X246988D01*
X246208Y78372D01*
X245546Y77930D01*
X241082Y73466D01*
X240525Y73355D01*
X239698Y72802D01*
X239145Y71975D01*
X238951Y71000D01*
X239065Y70426D01*
X238748Y70039D01*
X225039D01*
Y77000D01*
X224884Y77780D01*
X224442Y78442D01*
X218385Y84499D01*
X218576Y84961D01*
X241836D01*
X241987Y84461D01*
X241591Y84196D01*
X241039Y83369D01*
X240845Y82394D01*
X241039Y81418D01*
X241591Y80591D01*
X242418Y80039D01*
X243394Y79845D01*
X244369Y80039D01*
X244842Y80354D01*
X270394D01*
X271174Y80510D01*
X271836Y80952D01*
X272095Y81211D01*
X272653Y81322D01*
X273480Y81875D01*
X274032Y82702D01*
X274226Y83677D01*
X274070Y84461D01*
X274382Y84961D01*
X278461D01*
Y67345D01*
D02*
G37*
G36*
X60961Y80155D02*
Y76775D01*
X60825Y76682D01*
X60208Y76864D01*
X60120Y77076D01*
X59640Y77703D01*
X59013Y78184D01*
X58283Y78486D01*
X57500Y78589D01*
X56717Y78486D01*
X55987Y78184D01*
X55360Y77703D01*
X55283Y77602D01*
X47532D01*
X45039Y80095D01*
Y95370D01*
X45539Y95577D01*
X60961Y80155D01*
D02*
G37*
G36*
X200058Y84033D02*
X200720Y83591D01*
X201500Y83436D01*
X202391D01*
X202495Y83366D01*
X203275Y83211D01*
X213905D01*
X220961Y76155D01*
Y74026D01*
X220499Y73835D01*
X216892Y77442D01*
X216230Y77884D01*
X215450Y78039D01*
X195000D01*
X194220Y77884D01*
X193558Y77442D01*
X192207Y76091D01*
X192192Y76092D01*
X136035Y132249D01*
X136226Y132711D01*
X151380D01*
X200058Y84033D01*
D02*
G37*
G36*
X218460Y70107D02*
Y69414D01*
X217960Y69262D01*
X217942Y69288D01*
X215288Y71942D01*
X214627Y72384D01*
X213846Y72539D01*
X196000D01*
X195220Y72384D01*
X194933Y72193D01*
X194378Y72423D01*
X194366Y72482D01*
X195845Y73961D01*
X214605D01*
X218460Y70107D01*
D02*
G37*
G36*
X45245Y74121D02*
X45907Y73679D01*
X46687Y73524D01*
X55283D01*
X55360Y73423D01*
X55987Y72943D01*
X56598Y72689D01*
X56794Y72178D01*
X52558Y67942D01*
X52116Y67280D01*
X51961Y66500D01*
Y64815D01*
X52116Y64035D01*
X52558Y63373D01*
X54623Y61308D01*
X55285Y60866D01*
X56065Y60711D01*
X58332D01*
X58581Y60211D01*
X58451Y60037D01*
X54847D01*
X42039Y72845D01*
Y76674D01*
X42501Y76865D01*
X45245Y74121D01*
D02*
G37*
G36*
X117539Y82142D02*
X117947Y82061D01*
X118178Y81505D01*
X118158Y81476D01*
X117964Y80500D01*
X118158Y79524D01*
X118710Y78698D01*
X119537Y78145D01*
X120513Y77951D01*
X121488Y78145D01*
X121961Y78461D01*
X164943D01*
X175961Y67443D01*
Y31448D01*
X175645Y30975D01*
X175451Y30000D01*
X175645Y29024D01*
X176198Y28198D01*
X177024Y27645D01*
X178000Y27451D01*
X178611Y27573D01*
X179111Y27180D01*
Y15350D01*
X179266Y14570D01*
X179708Y13908D01*
X183615Y10001D01*
X183424Y9539D01*
X169655D01*
X169485Y10039D01*
X169640Y10158D01*
X170121Y10784D01*
X170423Y11514D01*
X170526Y12297D01*
X170423Y13080D01*
X170121Y13810D01*
X169640Y14437D01*
X169013Y14918D01*
X168283Y15220D01*
X167500Y15323D01*
X166717Y15220D01*
X165987Y14918D01*
X165360Y14437D01*
X165283Y14336D01*
X142047D01*
X110039Y46345D01*
Y48935D01*
X110539Y49086D01*
X110558Y49058D01*
X114034Y45582D01*
X114145Y45024D01*
X114698Y44198D01*
X115524Y43645D01*
X116500Y43451D01*
X117475Y43645D01*
X118302Y44198D01*
X118855Y45024D01*
X119049Y46000D01*
X118855Y46975D01*
X118302Y47802D01*
X117475Y48355D01*
X116918Y48466D01*
X114039Y51345D01*
Y68424D01*
X114501Y68615D01*
X120315Y62801D01*
X120098Y62476D01*
X119904Y61500D01*
X120098Y60524D01*
X120650Y59698D01*
X121477Y59145D01*
X122453Y58951D01*
X123428Y59145D01*
X124255Y59698D01*
X124808Y60524D01*
X125002Y61500D01*
X124808Y62476D01*
X124492Y62948D01*
Y63547D01*
X124337Y64328D01*
X123895Y64989D01*
X117039Y71845D01*
Y81876D01*
X117449Y82156D01*
X117539Y82142D01*
D02*
G37*
G36*
X240601Y65461D02*
X240451Y64705D01*
X240645Y63729D01*
X240961Y63256D01*
Y57203D01*
X233066Y49308D01*
X232752Y49339D01*
X232539Y49488D01*
Y51000D01*
X232384Y51780D01*
X231942Y52442D01*
X225039Y59345D01*
Y65961D01*
X240277D01*
X240601Y65461D01*
D02*
G37*
G36*
X262860Y54860D02*
X263487Y54379D01*
X264217Y54077D01*
X264455Y54046D01*
X264634Y53518D01*
X259114Y47998D01*
X258640Y47797D01*
X258013Y48278D01*
X257283Y48580D01*
X256500Y48683D01*
X255717Y48580D01*
X255639Y48548D01*
X255356Y48972D01*
X261345Y54961D01*
X262783D01*
X262860Y54860D01*
D02*
G37*
G36*
X188307Y74209D02*
X188211Y73725D01*
Y49250D01*
X188366Y48470D01*
X188142Y48378D01*
X188024Y48355D01*
X187198Y47802D01*
X186753Y47137D01*
X185501Y45885D01*
X185039Y46076D01*
Y69563D01*
X185039Y69563D01*
X184884Y70343D01*
X184442Y71005D01*
X165505Y89942D01*
X164843Y90384D01*
X164063Y90539D01*
X129753D01*
X129408Y91039D01*
X129466Y91332D01*
X130692Y92558D01*
X131134Y93220D01*
X131289Y94000D01*
Y127578D01*
X131384Y127720D01*
X131539Y128500D01*
X131384Y129280D01*
X130942Y129942D01*
X130385Y130499D01*
X130576Y130961D01*
X131555D01*
X188307Y74209D01*
D02*
G37*
G36*
X220082Y46757D02*
X220328Y46250D01*
X220145Y45976D01*
X219951Y45000D01*
X220050Y44505D01*
X219732Y44118D01*
X218244D01*
Y36586D01*
X215297D01*
X214966Y36918D01*
X214855Y37475D01*
X214302Y38302D01*
X213670Y38725D01*
X213384Y39093D01*
X213539Y39873D01*
Y40394D01*
X213855Y40867D01*
X214049Y41842D01*
X213855Y42818D01*
X213302Y43645D01*
X212830Y43961D01*
X212981Y44461D01*
X214846D01*
X215627Y44616D01*
X216288Y45058D01*
X216662Y45618D01*
X217500Y45451D01*
X218476Y45645D01*
X219302Y46198D01*
X219593Y46633D01*
X219754Y46794D01*
X220082Y46757D01*
D02*
G37*
G36*
X270978Y53387D02*
X270927Y53000D01*
X270943Y52874D01*
X259470Y41401D01*
X259060Y41715D01*
X258330Y42017D01*
X257547Y42120D01*
X256764Y42017D01*
X256034Y41715D01*
X255408Y41234D01*
X254927Y40608D01*
X254625Y39878D01*
X254521Y39094D01*
X254625Y38311D01*
X254927Y37582D01*
X255408Y36955D01*
X256034Y36474D01*
X256764Y36172D01*
X257494Y36076D01*
X257581Y35933D01*
X257671Y35581D01*
X257360Y35342D01*
X256879Y34716D01*
X256577Y33986D01*
X256474Y33203D01*
X256561Y32539D01*
X256263Y32039D01*
X246253D01*
X246204Y32539D01*
X246828Y32663D01*
X247489Y33105D01*
X250442Y36058D01*
X250808Y36606D01*
X251140Y36860D01*
X251621Y37487D01*
X251923Y38217D01*
X252026Y39000D01*
X251923Y39783D01*
X251621Y40513D01*
X251140Y41140D01*
X250513Y41620D01*
X249783Y41923D01*
X249000Y42026D01*
X248217Y41923D01*
X247487Y41620D01*
X246860Y41140D01*
X246379Y40513D01*
X246077Y39783D01*
X245974Y39000D01*
X246077Y38217D01*
X246299Y37682D01*
X245203Y36586D01*
X226756D01*
Y41689D01*
X227142Y42006D01*
X227371Y41961D01*
X230642D01*
X231422Y42116D01*
X232084Y42558D01*
X234969Y45443D01*
X235498Y45265D01*
X235645Y44524D01*
X236198Y43698D01*
X237024Y43145D01*
X238000Y42951D01*
X238976Y43145D01*
X239448Y43461D01*
X249000D01*
X249780Y43616D01*
X250442Y44058D01*
X253186Y46802D01*
X253609Y46518D01*
X253577Y46441D01*
X253474Y45658D01*
X253577Y44874D01*
X253879Y44144D01*
X254360Y43518D01*
X254987Y43037D01*
X255717Y42735D01*
X256500Y42632D01*
X257283Y42735D01*
X258013Y43037D01*
X258640Y43518D01*
X258717Y43618D01*
X259658D01*
X260438Y43773D01*
X261099Y44216D01*
X270504Y53620D01*
X270978Y53387D01*
D02*
G37*
G36*
X283072Y53257D02*
X283077Y53217D01*
X283336Y52593D01*
X263118Y32375D01*
X262894Y32403D01*
X262490Y32933D01*
X262526Y33203D01*
X262509Y33328D01*
X282598Y53417D01*
X283072Y53257D01*
D02*
G37*
G36*
X188916Y43420D02*
X189207Y43362D01*
X190244Y42325D01*
Y37287D01*
Y31382D01*
X192461D01*
Y30244D01*
X192085Y29914D01*
X191500Y29991D01*
X190338Y29838D01*
X189254Y29390D01*
X188324Y28676D01*
X188039Y28304D01*
X187539Y28474D01*
Y42155D01*
X188849Y43465D01*
X188916Y43420D01*
D02*
G37*
G36*
X232961Y26155D02*
Y19298D01*
X232461Y19031D01*
X231976Y19355D01*
X231418Y19466D01*
X225953Y24931D01*
Y27961D01*
X231155D01*
X232961Y26155D01*
D02*
G37*
G36*
X325461Y31924D02*
Y26845D01*
X311655Y13039D01*
X310953D01*
Y18069D01*
X324999Y32115D01*
X325461Y31924D01*
D02*
G37*
%LPC*%
G36*
X110421Y195000D02*
X107000D01*
Y191579D01*
X107532Y191649D01*
X108493Y192047D01*
X109319Y192681D01*
X109953Y193507D01*
X110351Y194468D01*
X110421Y195000D01*
D02*
G37*
G36*
X106000D02*
X102579D01*
X102649Y194468D01*
X103047Y193507D01*
X103681Y192681D01*
X104507Y192047D01*
X105468Y191649D01*
X106000Y191579D01*
Y195000D01*
D02*
G37*
G36*
X116500Y199991D02*
X115338Y199838D01*
X114254Y199390D01*
X113324Y198676D01*
X112610Y197746D01*
X112162Y196662D01*
X112009Y195500D01*
X112162Y194338D01*
X112610Y193254D01*
X113324Y192324D01*
X114254Y191611D01*
X115338Y191162D01*
X116500Y191009D01*
X117662Y191162D01*
X118746Y191611D01*
X119676Y192324D01*
X120389Y193254D01*
X120838Y194338D01*
X120991Y195500D01*
X120838Y196662D01*
X120389Y197746D01*
X119676Y198676D01*
X118746Y199390D01*
X117662Y199838D01*
X116500Y199991D01*
D02*
G37*
G36*
X78500Y159950D02*
Y158000D01*
X80449D01*
X80355Y158475D01*
X79802Y159302D01*
X78975Y159855D01*
X78500Y159950D01*
D02*
G37*
G36*
X77500D02*
X77025Y159855D01*
X76198Y159302D01*
X75645Y158475D01*
X75551Y158000D01*
X77500D01*
Y159950D01*
D02*
G37*
G36*
X80449Y157000D02*
X78500D01*
Y155051D01*
X78975Y155145D01*
X79802Y155698D01*
X80355Y156525D01*
X80449Y157000D01*
D02*
G37*
G36*
X77500D02*
X75551D01*
X75645Y156525D01*
X76198Y155698D01*
X77025Y155145D01*
X77500Y155051D01*
Y157000D01*
D02*
G37*
G36*
X81256Y97118D02*
X78000D01*
Y94453D01*
X81256D01*
Y97118D01*
D02*
G37*
G36*
X77000D02*
X73744D01*
Y94453D01*
X77000D01*
Y97118D01*
D02*
G37*
G36*
X333500Y191895D02*
X332492Y191763D01*
X331552Y191374D01*
X330745Y190755D01*
X330126Y189948D01*
X329737Y189008D01*
X329605Y188000D01*
X329737Y186992D01*
X330126Y186052D01*
X330745Y185245D01*
X331552Y184626D01*
X332492Y184237D01*
X333500Y184105D01*
X334508Y184237D01*
X335448Y184626D01*
X336255Y185245D01*
X336874Y186052D01*
X337263Y186992D01*
X337396Y188000D01*
X337263Y189008D01*
X336874Y189948D01*
X336255Y190755D01*
X335448Y191374D01*
X334508Y191763D01*
X333500Y191895D01*
D02*
G37*
G36*
Y161896D02*
X332492Y161763D01*
X331552Y161374D01*
X330745Y160755D01*
X330126Y159948D01*
X329737Y159008D01*
X329605Y158000D01*
X329737Y156992D01*
X330126Y156052D01*
X330745Y155245D01*
X331552Y154626D01*
X332492Y154237D01*
X333500Y154104D01*
X334508Y154237D01*
X335448Y154626D01*
X336255Y155245D01*
X336874Y156052D01*
X337263Y156992D01*
X337396Y158000D01*
X337263Y159008D01*
X336874Y159948D01*
X336255Y160755D01*
X335448Y161374D01*
X334508Y161763D01*
X333500Y161896D01*
D02*
G37*
G36*
X57191Y129732D02*
X53935D01*
Y127067D01*
X57191D01*
Y129732D01*
D02*
G37*
G36*
X52935D02*
X49679D01*
Y127067D01*
X52935D01*
Y129732D01*
D02*
G37*
G36*
X95423Y120871D02*
Y118921D01*
X97372D01*
X97278Y119397D01*
X96725Y120224D01*
X95898Y120776D01*
X95423Y120871D01*
D02*
G37*
G36*
X94423D02*
X93947Y120776D01*
X93120Y120224D01*
X92568Y119397D01*
X92473Y118921D01*
X94423D01*
Y120871D01*
D02*
G37*
G36*
Y117921D02*
X92473D01*
X92568Y117446D01*
X93120Y116619D01*
X93947Y116066D01*
X94423Y115972D01*
Y117921D01*
D02*
G37*
G36*
X94000Y101459D02*
Y99509D01*
X95950D01*
X95855Y99985D01*
X95302Y100812D01*
X94476Y101364D01*
X94000Y101459D01*
D02*
G37*
G36*
X93000D02*
X92524Y101364D01*
X91698Y100812D01*
X91145Y99985D01*
X91050Y99509D01*
X93000D01*
Y101459D01*
D02*
G37*
G36*
X95950Y98509D02*
X94000D01*
Y96560D01*
X94476Y96654D01*
X95302Y97207D01*
X95855Y98034D01*
X95950Y98509D01*
D02*
G37*
G36*
X93000D02*
X91050D01*
X91145Y98034D01*
X91698Y97207D01*
X92524Y96654D01*
X93000Y96560D01*
Y98509D01*
D02*
G37*
G36*
X353925Y117460D02*
Y115000D01*
X356385D01*
X356348Y115283D01*
X356046Y116013D01*
X355565Y116640D01*
X354938Y117121D01*
X354208Y117423D01*
X353925Y117460D01*
D02*
G37*
G36*
X352925D02*
X352642Y117423D01*
X351912Y117121D01*
X351286Y116640D01*
X350805Y116013D01*
X350502Y115283D01*
X350465Y115000D01*
X352925D01*
Y117460D01*
D02*
G37*
G36*
X297000Y97921D02*
Y94500D01*
X300421D01*
X300351Y95032D01*
X299953Y95993D01*
X299319Y96819D01*
X298493Y97453D01*
X297532Y97851D01*
X297000Y97921D01*
D02*
G37*
G36*
X296000D02*
X295468Y97851D01*
X294507Y97453D01*
X293681Y96819D01*
X293047Y95993D01*
X292649Y95032D01*
X292579Y94500D01*
X296000D01*
Y97921D01*
D02*
G37*
G36*
X306500Y88491D02*
X305338Y88338D01*
X304254Y87889D01*
X303324Y87176D01*
X302610Y86246D01*
X302162Y85162D01*
X302009Y84000D01*
X302162Y82838D01*
X302610Y81754D01*
X303324Y80824D01*
X304254Y80111D01*
X305338Y79662D01*
X306500Y79509D01*
X307662Y79662D01*
X308746Y80111D01*
X309676Y80824D01*
X310389Y81754D01*
X310838Y82838D01*
X310991Y84000D01*
X310838Y85162D01*
X310389Y86246D01*
X309676Y87176D01*
X308746Y87889D01*
X307662Y88338D01*
X306500Y88491D01*
D02*
G37*
G36*
Y78491D02*
X305338Y78338D01*
X304254Y77890D01*
X303324Y77176D01*
X302610Y76246D01*
X302162Y75162D01*
X302009Y74000D01*
X302162Y72838D01*
X302610Y71754D01*
X303324Y70824D01*
X304254Y70110D01*
X305338Y69662D01*
X306500Y69509D01*
X307662Y69662D01*
X308746Y70110D01*
X309676Y70824D01*
X310389Y71754D01*
X310838Y72838D01*
X310991Y74000D01*
X310838Y75162D01*
X310389Y76246D01*
X309676Y77176D01*
X308746Y77890D01*
X307662Y78338D01*
X306500Y78491D01*
D02*
G37*
G36*
X321871Y56527D02*
Y54577D01*
X323820D01*
X323726Y55053D01*
X323173Y55880D01*
X322346Y56432D01*
X321871Y56527D01*
D02*
G37*
G36*
X320871D02*
X320395Y56432D01*
X319568Y55880D01*
X319016Y55053D01*
X318921Y54577D01*
X320871D01*
Y56527D01*
D02*
G37*
G36*
X323820Y53577D02*
X321871D01*
Y51628D01*
X322346Y51722D01*
X323173Y52275D01*
X323726Y53102D01*
X323820Y53577D01*
D02*
G37*
G36*
X320871D02*
X318921D01*
X319016Y53102D01*
X319568Y52275D01*
X320395Y51722D01*
X320871Y51628D01*
Y53577D01*
D02*
G37*
%LPD*%
D12*
X199000Y60500D02*
D03*
Y66405D02*
D03*
X208000Y60500D02*
D03*
Y66405D02*
D03*
X202500Y155453D02*
D03*
Y149547D02*
D03*
X193500Y155453D02*
D03*
Y149547D02*
D03*
X203500Y40953D02*
D03*
Y35047D02*
D03*
X194500Y40953D02*
D03*
Y35047D02*
D03*
X222500Y40453D02*
D03*
Y34547D02*
D03*
X53435Y136138D02*
D03*
Y130232D02*
D03*
X77500Y88047D02*
D03*
Y93953D02*
D03*
D13*
X99547Y111500D02*
D03*
X105453D02*
D03*
D23*
X76500Y15500D02*
X84500Y7500D01*
X286000Y52373D02*
Y54000D01*
X210000Y34000D02*
X214000Y30000D01*
X210000Y34000D02*
Y38373D01*
X211500Y39873D01*
Y41842D01*
X270394Y82394D02*
X271677Y83677D01*
X243394Y82394D02*
X270394D01*
X241500Y127669D02*
X247000Y122169D01*
X248483D01*
X241500Y127669D02*
Y131232D01*
X247500Y137232D01*
X193000Y141500D02*
X243500D01*
X239500Y120000D02*
X241000Y121500D01*
X242000D01*
X259658Y111343D02*
Y125500D01*
X263500Y134000D02*
X279614D01*
X268384Y150884D02*
Y156884D01*
X259500Y150000D02*
X263500D01*
X299886Y136500D02*
X310500D01*
X291000Y144000D02*
X292386D01*
X299886Y136500D01*
X289614Y144000D02*
X291000D01*
X279614Y134000D02*
X289614Y144000D01*
X250000Y92250D02*
X251250D01*
X268000Y109000D01*
X247000Y89000D02*
X286500D01*
X245000Y91000D02*
X247000Y89000D01*
X286500D02*
X289000Y91500D01*
X241500Y71000D02*
X246988Y76488D01*
X256410D01*
X244850Y68000D02*
X250350Y73500D01*
X252500D01*
X223000Y68000D02*
X244850D01*
X280500Y87000D02*
X292500D01*
X294500Y89000D01*
X301500D02*
X306500Y94000D01*
X294500Y89000D02*
X301500D01*
X245000Y91000D02*
Y92250D01*
X193500Y50996D02*
Y51496D01*
X192000Y52996D02*
X193500Y51496D01*
X192446Y47054D02*
X201554D01*
X190250Y49250D02*
X192446Y47054D01*
X190250Y49250D02*
Y73725D01*
X189696Y45304D02*
X203500D01*
X189453Y46000D02*
X194500Y40953D01*
X189000Y46000D02*
X189453D01*
X188500D02*
X189000D01*
X185500Y43000D02*
X188500Y46000D01*
X141203Y12297D02*
X167500D01*
X108000Y45500D02*
X141203Y12297D01*
X259658Y45658D02*
X280500Y66500D01*
X256500Y45658D02*
X259658D01*
X249000Y37500D02*
Y39000D01*
X246047Y34547D02*
X249000Y37500D01*
X260047Y39094D02*
X273953Y53000D01*
X257547Y39094D02*
X260047D01*
X296500Y70203D02*
Y74000D01*
X259500Y33203D02*
X296500Y70203D01*
X306500Y64000D02*
X320000Y77500D01*
Y79000D01*
X200902Y164138D02*
X202500D01*
X211125Y172763D01*
X200902Y157051D02*
Y164138D01*
Y157051D02*
X202500Y155453D01*
X187500Y147000D02*
Y164079D01*
X189500Y166079D01*
X192500Y156453D02*
X195000Y158953D01*
Y163500D01*
X201500Y167000D02*
X207000Y172500D01*
X193851Y167000D02*
X201500D01*
X189744Y162893D02*
X193851Y167000D01*
X189941Y149547D02*
X193500D01*
X189744Y149744D02*
Y162893D01*
Y149744D02*
X189941Y149547D01*
X176500Y161500D02*
X181000Y166000D01*
X181500D01*
X178994Y172494D02*
X184000Y167489D01*
Y143500D02*
Y167489D01*
X185500Y145000D02*
Y171016D01*
X182516Y174000D02*
X185500Y171016D01*
X184000Y143500D02*
X207500Y120000D01*
X185500Y145000D02*
X206250Y124250D01*
X178000Y167500D02*
X178050D01*
X172500Y162000D02*
X178000Y167500D01*
X171000Y164500D02*
X178994Y172494D01*
X175000Y174000D02*
X182516D01*
X172868Y175500D02*
X210125D01*
X171500Y170500D02*
X175000Y174000D01*
X165500Y168132D02*
X172868Y175500D01*
X210125D02*
X211125Y174500D01*
X160500Y167000D02*
X171000Y177500D01*
X178050Y185000D02*
X190500D01*
X164500Y188000D02*
X247000D01*
X141063Y164563D02*
X164500Y188000D01*
X242500Y190000D02*
X253500Y201000D01*
X156500Y190000D02*
X242500D01*
X131500Y165000D02*
X156500Y190000D01*
X197500Y191500D02*
X201500Y195500D01*
X151000Y191500D02*
X197500D01*
X128500Y169000D02*
X151000Y191500D01*
X171500Y168500D02*
Y170500D01*
X169000Y164500D02*
X171000D01*
X123984Y104000D02*
X125000D01*
X115000Y95016D02*
X123984Y104000D01*
X125000D02*
Y105016D01*
X127750Y107766D01*
X124110Y109563D02*
X124500D01*
X108000Y93453D02*
X124110Y109563D01*
X124500D02*
Y110000D01*
X125500Y111000D01*
X127250Y129638D02*
X128362D01*
X129500Y128500D01*
X126500Y152500D02*
X129000D01*
X141000Y164500D01*
X92000Y148000D02*
X173000D01*
X97000Y146000D02*
X168500D01*
X125000Y142000D02*
X159000D01*
X106500Y136500D02*
X154500D01*
X94250Y134750D02*
X152225D01*
X132400Y133000D02*
X190750Y74650D01*
X114000Y133000D02*
X132400D01*
X152225Y134750D02*
X201500Y85475D01*
X141000Y164500D02*
Y164563D01*
X141063D01*
X120513Y80500D02*
X165787D01*
X164063Y88500D02*
X183000Y69563D01*
X121500Y88500D02*
X164063D01*
X129250Y94000D02*
Y128250D01*
X129500Y128500D01*
X127000Y91750D02*
X129250Y94000D01*
X127750Y107766D02*
Y112750D01*
X125750Y114750D02*
X127750Y112750D01*
X115000Y71000D02*
Y95016D01*
Y71000D02*
X122453Y63547D01*
X112000Y50500D02*
X116500Y46000D01*
X112000Y50500D02*
Y86500D01*
X122453Y61500D02*
Y63547D01*
X109000Y152000D02*
X122000Y165000D01*
X94250Y134750D02*
X94500Y135000D01*
X102500Y140500D02*
X106500Y136500D01*
X95000Y140500D02*
X102500D01*
X99547Y116047D02*
X103203Y119703D01*
X109000D01*
X94500Y111500D02*
X99547D01*
X99547Y111500D01*
X77500Y77000D02*
X78563D01*
X80000Y75563D01*
X90500Y72000D02*
X92000Y73500D01*
X73527Y72000D02*
X90500D01*
X59525Y57998D02*
X73527Y72000D01*
X43000Y79250D02*
X46687Y75563D01*
X57500D01*
X63000Y75500D02*
Y81000D01*
X54000Y66500D02*
X63000Y75500D01*
X54000Y64815D02*
Y66500D01*
X59750Y62750D02*
X74000Y77000D01*
X56065Y62750D02*
X59750D01*
X54000Y64815D02*
X56065Y62750D01*
X74000Y77000D02*
X77500D01*
X46500Y97500D02*
X63000Y81000D01*
X56500Y182500D02*
X65500Y173500D01*
Y73063D02*
Y173500D01*
X61437Y69000D02*
X65500Y73063D01*
X40000Y72000D02*
X54002Y57998D01*
X59525D01*
X6000Y73500D02*
Y95000D01*
X85000Y69000D02*
X94000D01*
X105453Y103453D02*
Y111500D01*
X116500Y205500D02*
X134500D01*
X165500Y83850D02*
X181150Y68200D01*
Y15350D02*
Y68200D01*
X209173Y115327D02*
X214173D01*
X217000Y210000D02*
X221500Y205500D01*
X144000Y210000D02*
X217000D01*
X99000Y165000D02*
X144000Y210000D01*
X6000Y73500D02*
X28500Y51000D01*
X176500Y148000D02*
Y161500D01*
Y148000D02*
X209173Y115327D01*
X206250Y124250D02*
X240500D01*
X207500Y120000D02*
X239500D01*
X168500Y146000D02*
X210000Y104500D01*
X95500Y144500D02*
X97000Y146000D01*
X85000Y141000D02*
X92000Y148000D01*
X154500Y136500D02*
X204000Y87000D01*
X245000Y92250D02*
Y95500D01*
X159000Y142000D02*
X208750Y92250D01*
X245000D01*
X220499Y51500D02*
Y70951D01*
X208000Y66405D02*
X212595D01*
X196000Y70500D02*
X213846D01*
X215450Y76000D02*
X220499Y70951D01*
X195000Y76000D02*
X215450D01*
X201500Y85475D02*
X203050D01*
X203275Y85250D01*
X214750D01*
X223000Y77000D01*
X194500Y60500D02*
X199000D01*
X194000Y61000D02*
X194500Y60500D01*
X194000Y61000D02*
Y68500D01*
X196000Y70500D01*
X190750Y74225D02*
Y74650D01*
X190250Y73725D02*
X190750Y74225D01*
X192000Y73000D02*
X195000Y76000D01*
X192000Y52996D02*
Y73000D01*
X205000Y50500D02*
X207000Y52500D01*
X222500Y34547D02*
X246047D01*
X183000Y23000D02*
Y69563D01*
X207000Y20000D02*
X211500Y15500D01*
X186000Y20000D02*
X207000D01*
X183000Y23000D02*
X186000Y20000D01*
X185500Y25500D02*
Y43000D01*
X181150Y15350D02*
X186000Y10500D01*
X178000Y30000D02*
Y68287D01*
X165787Y80500D02*
X178000Y68287D01*
X122500Y111000D02*
X125500D01*
X108000Y45500D02*
Y93453D01*
X203500Y35047D02*
X206547D01*
X194500D02*
X203500D01*
X191500Y25500D02*
X194500Y28500D01*
Y35047D01*
X391000Y137000D02*
Y208000D01*
X296500Y104000D02*
X300556D01*
X167500Y162000D02*
X172500D01*
X165500Y164000D02*
X167500Y162000D01*
X165500Y164000D02*
Y168132D01*
X211125Y172763D02*
Y174500D01*
X385000Y156500D02*
Y205000D01*
X342500Y114000D02*
X385000Y156500D01*
X316500Y114000D02*
X342500D01*
X309500Y121000D02*
X316500Y114000D01*
X303500Y121000D02*
X309500D01*
X296500Y114000D02*
X303500Y121000D01*
X204000Y87000D02*
X280500D01*
Y66500D02*
Y87000D01*
X114000Y119500D02*
X122500Y111000D01*
X114000Y119500D02*
Y133000D01*
X201554Y47054D02*
X205000Y50500D01*
X203500Y40953D02*
Y45304D01*
X205000Y54547D02*
X208000Y57547D01*
X205000Y50500D02*
Y54547D01*
X199000Y66405D02*
X208000D01*
X208000Y57547D02*
Y60500D01*
X208000Y60500D01*
X199000Y50500D02*
Y60500D01*
X245000Y95500D02*
X257500Y108000D01*
X205500Y163500D02*
X216500Y174500D01*
X92500Y144500D02*
X95500D01*
X193500Y149547D02*
X202500D01*
X193500Y155453D02*
X202500D01*
X192500Y156453D02*
X193500Y155453D01*
X309000Y148000D02*
X315500Y141500D01*
X268384Y156884D02*
X296500Y185000D01*
X271500Y149500D02*
X296500Y174500D01*
X271500Y146000D02*
Y149500D01*
X267000Y141500D02*
X271500Y146000D01*
X263500Y141500D02*
X267000D01*
X269000Y138000D02*
X274500Y143500D01*
X263000Y138000D02*
X269000D01*
X319000Y137500D02*
Y173500D01*
X339000D01*
X354000Y188500D01*
X355500D01*
X274500Y148000D02*
X309000D01*
X28500Y51000D02*
X88500D01*
X99547Y62047D01*
Y111500D01*
Y116047D01*
X122000Y165000D02*
X131500D01*
X144500Y196500D02*
X173000D01*
X117132Y169132D02*
X144500Y196500D01*
X206500Y200500D02*
X211500Y205500D01*
X144984Y200500D02*
X206500D01*
X110000Y165516D02*
X144984Y200500D01*
X146000Y205500D02*
X191500D01*
X103500Y163000D02*
X146000Y205500D01*
X77500Y77000D02*
Y88047D01*
X43000Y79250D02*
Y134000D01*
X46500Y137500D01*
Y195500D01*
X58000Y155000D02*
Y172500D01*
X51500Y179000D02*
X58000Y172500D01*
X51500Y179000D02*
Y196444D01*
X94000Y69000D02*
X96000Y71000D01*
Y76063D01*
X87500Y84563D02*
X96000Y76063D01*
X87500Y139500D02*
X92500Y144500D01*
X85000Y80500D02*
Y141000D01*
Y80500D02*
X92000Y73500D01*
X46500Y97500D02*
Y133000D01*
X49638Y136138D01*
X53435D01*
X51500Y196444D02*
X55056Y200000D01*
X111000D01*
X116500Y205500D01*
X53435Y136138D02*
Y150435D01*
X58000Y155000D01*
X268000Y109000D02*
X301500D01*
X302000Y109500D01*
Y109500D01*
X306500Y114000D01*
X313000Y179500D02*
X319000Y173500D01*
X305000Y179500D02*
X313000D01*
X302000Y176500D02*
X305000Y179500D01*
X302000Y169000D02*
Y176500D01*
X297500Y164500D02*
X302000Y169000D01*
X297000Y164500D02*
X297500D01*
X307000Y175000D02*
X314500Y167500D01*
Y153500D02*
Y167500D01*
X309000Y148000D02*
X314500Y153500D01*
X274500Y143500D02*
Y148000D01*
X210000Y104500D02*
X250000D01*
X87500Y84563D02*
Y139500D01*
X294000Y54000D02*
X296500D01*
X256500Y16500D02*
X294000Y54000D01*
X296500Y64000D02*
X301500Y59000D01*
X309000D01*
X312500Y11000D02*
X327500Y26000D01*
X302000Y11000D02*
X312500D01*
X296500Y16500D02*
X302000Y11000D01*
X306500Y104000D02*
X327500Y83000D01*
Y26000D02*
Y83000D01*
X296500Y36500D02*
Y44000D01*
X276500Y16500D02*
X296500Y36500D01*
X196500Y10500D02*
X201500Y15500D01*
X186000Y10500D02*
X196500D01*
X56500Y182500D02*
Y195500D01*
X31500Y200500D02*
X36500Y205500D01*
X31500Y189500D02*
Y200500D01*
Y189500D02*
X40000Y181000D01*
Y72000D02*
Y181000D01*
X238999Y20466D02*
X244532Y26000D01*
X258000D01*
X212500Y36500D02*
X214453Y34547D01*
X222500D01*
X222500Y40453D02*
Y45000D01*
X205500Y46500D02*
X214846D01*
X208939Y52500D02*
X212189Y49250D01*
X207000Y52500D02*
X208939D01*
X214846Y46500D02*
Y64154D01*
X212595Y66405D02*
X214846Y64154D01*
X223000Y58500D02*
Y68000D01*
Y77000D01*
X217500Y48000D02*
X218076D01*
X216500Y49000D02*
Y67846D01*
X213846Y70500D02*
X216500Y67846D01*
X218076Y48000D02*
X219076Y49000D01*
X216500D02*
X217500Y48000D01*
X259658Y111343D02*
X262500Y108500D01*
Y107500D02*
Y108500D01*
X248483Y122169D02*
X251652Y119000D01*
X256000Y146500D02*
X259500Y150000D01*
X173000Y148000D02*
X212000Y109000D01*
X250000Y104500D02*
X257658Y112157D01*
X212000Y109000D02*
X251343D01*
X256000Y113657D01*
Y146500D01*
X214346Y115500D02*
X214518Y115328D01*
X253000D01*
X60838Y173500D02*
X60866D01*
X119150Y83850D02*
X165500D01*
X118500Y84500D02*
X119150Y83850D01*
X187500Y147000D02*
X193000Y141500D01*
X220272Y166500D02*
X222855D01*
X247500Y141855D01*
Y137232D02*
Y141855D01*
X171000Y177500D02*
X240762D01*
X247000Y188000D02*
X272500Y213500D01*
X385500D01*
X391000Y208000D01*
X216500Y174500D02*
X241500D01*
X380000Y210000D02*
X385000Y205000D01*
X240762Y177500D02*
X273262Y210000D01*
X380000D01*
X241500Y174500D02*
X274000Y207000D01*
X359500D01*
X218649Y170982D02*
X250482D01*
X284000Y204500D01*
X299500Y202000D02*
X306500Y195000D01*
X286000Y202000D02*
X299500D01*
X280000Y196000D02*
X286000Y202000D01*
X280000Y192000D02*
Y196000D01*
X246500Y151453D02*
X284547Y189500D01*
X323000D01*
X329000Y195500D01*
X284000Y204500D02*
X356000D01*
X368500Y192000D01*
Y166000D02*
Y192000D01*
X331299Y118500D02*
X373000Y160201D01*
Y193500D01*
X359500Y207000D02*
X373000Y193500D01*
X329000Y195500D02*
X357500D01*
X363500Y189500D01*
Y171255D02*
Y189500D01*
X352138Y159893D02*
X363500Y171255D01*
X352138Y159638D02*
Y159893D01*
X318250Y117750D02*
Y125750D01*
X352138Y159638D01*
X306500Y16500D02*
X325000Y35000D01*
Y43000D01*
X309000Y59000D02*
X325000Y43000D01*
X263627Y30000D02*
X286000Y52373D01*
X279000Y9000D02*
X286500Y16500D01*
X211500Y25500D02*
X216534Y20466D01*
X223534D01*
X214000Y30000D02*
X232000D01*
X263627D01*
X235000Y9000D02*
X279000D01*
X223534Y20466D02*
X235000Y9000D01*
X84500Y7500D02*
X228500D01*
X232000Y30000D02*
X235000Y27000D01*
Y13000D02*
Y27000D01*
X222500Y25500D02*
X231000Y17000D01*
X221500Y25500D02*
X222500D01*
X300556Y104000D02*
X305556Y109000D01*
X243000Y56358D02*
Y64705D01*
X230642Y44000D02*
X243000Y56358D01*
X219076Y49000D02*
X222371D01*
X227371Y44000D01*
X230642D01*
X230500Y47953D02*
Y51000D01*
X223000Y58500D02*
X230500Y51000D01*
X261559Y127000D02*
X263500D01*
X257658Y143378D02*
X261280Y147000D01*
X257658Y112157D02*
Y143378D01*
X259500Y129059D02*
Y142000D01*
Y129059D02*
X261559Y127000D01*
X259500Y142000D02*
X268384Y150884D01*
X206547Y35047D02*
X208500Y37000D01*
X205500Y46500D02*
X208500Y43500D01*
Y37000D02*
Y43500D01*
X266000Y62500D02*
Y69000D01*
X265000Y61500D02*
X266000Y62500D01*
X265000Y57000D02*
Y61500D01*
X260500Y57000D02*
X265000D01*
X249000Y45500D02*
X260500Y57000D01*
X238000Y46095D02*
X238595Y45500D01*
X249000D01*
X238000D02*
Y46095D01*
X373351Y111851D02*
Y119351D01*
X370500Y109000D02*
X373351Y111851D01*
Y119351D02*
X391000Y137000D01*
X305556Y109000D02*
X370500D01*
X324500Y118000D02*
Y122000D01*
X368500Y166000D01*
X261500Y131217D02*
X312283D01*
X312500Y131000D02*
X319000Y137500D01*
D24*
X221500Y205500D02*
D03*
Y195500D02*
D03*
X211500Y205500D02*
D03*
Y195500D02*
D03*
X201500Y205500D02*
D03*
Y195500D02*
D03*
X191500Y205500D02*
D03*
Y15500D02*
D03*
Y25500D02*
D03*
X201500Y15500D02*
D03*
Y25500D02*
D03*
X211500Y15500D02*
D03*
Y25500D02*
D03*
X221500Y15500D02*
D03*
X296500Y195000D02*
D03*
Y185000D02*
D03*
Y175000D02*
D03*
Y165000D02*
D03*
Y155000D02*
D03*
X306500Y195000D02*
D03*
Y185000D02*
D03*
Y175000D02*
D03*
Y165000D02*
D03*
X296500Y114000D02*
D03*
Y104000D02*
D03*
Y94000D02*
D03*
Y84000D02*
D03*
Y74000D02*
D03*
Y64000D02*
D03*
Y54000D02*
D03*
Y44000D02*
D03*
X306500Y114000D02*
D03*
Y104000D02*
D03*
Y94000D02*
D03*
Y84000D02*
D03*
Y74000D02*
D03*
Y64000D02*
D03*
Y54000D02*
D03*
X106500Y25500D02*
D03*
X96500D02*
D03*
X86500D02*
D03*
X76500D02*
D03*
X66500D02*
D03*
X56500D02*
D03*
X46500D02*
D03*
X36500D02*
D03*
X26500D02*
D03*
X116500Y15500D02*
D03*
X106500D02*
D03*
X96500D02*
D03*
X86500D02*
D03*
X76500D02*
D03*
X66500D02*
D03*
X56500D02*
D03*
X46500D02*
D03*
X36500D02*
D03*
X26500D02*
D03*
X106500Y205500D02*
D03*
X96500D02*
D03*
X86500D02*
D03*
X76500D02*
D03*
X66500D02*
D03*
X56500D02*
D03*
X46500D02*
D03*
X36500D02*
D03*
X26500D02*
D03*
X116500Y195500D02*
D03*
X106500D02*
D03*
X96500D02*
D03*
X86500D02*
D03*
X76500D02*
D03*
X66500D02*
D03*
X56500D02*
D03*
X46500D02*
D03*
X36500D02*
D03*
X26500D02*
D03*
X286500Y16500D02*
D03*
X296500D02*
D03*
X276500D02*
D03*
X266500D02*
D03*
X256500D02*
D03*
X246500D02*
D03*
D25*
X191500Y195500D02*
D03*
X221500Y25500D02*
D03*
X116500D02*
D03*
Y205500D02*
D03*
X306500Y16500D02*
D03*
D26*
X422500Y189000D02*
D03*
D27*
Y159000D02*
D03*
X402500D02*
D03*
Y189000D02*
D03*
D28*
X306500Y155000D02*
D03*
Y44000D02*
D03*
D29*
X333500Y158000D02*
D03*
Y188000D02*
D03*
X355500Y188500D02*
D03*
Y158500D02*
D03*
X377047Y188500D02*
D03*
Y158500D02*
D03*
X253500Y201000D02*
D03*
X273500D02*
D03*
D30*
X424291Y27886D02*
D03*
X416417D02*
D03*
X408543D02*
D03*
X400669D02*
D03*
X392795D02*
D03*
X384921D02*
D03*
X377047D02*
D03*
X369173D02*
D03*
X361299D02*
D03*
X353425D02*
D03*
Y114500D02*
D03*
X361299D02*
D03*
X369173D02*
D03*
X377047D02*
D03*
X384921D02*
D03*
X392795D02*
D03*
X400669D02*
D03*
X408543D02*
D03*
X416417D02*
D03*
D31*
X424291D02*
D03*
D32*
X286000Y54000D02*
D03*
X315500Y141500D02*
D03*
X310500Y136500D02*
D03*
X291000Y144000D02*
D03*
X289000Y91500D02*
D03*
X167500Y12297D02*
D03*
X256500Y45658D02*
D03*
X249000Y39000D02*
D03*
X257547Y39094D02*
D03*
X273953Y53000D02*
D03*
X259500Y33203D02*
D03*
X258000Y26000D02*
D03*
X320000Y79000D02*
D03*
X58000Y155000D02*
D03*
X80000Y75563D02*
D03*
X92000Y73500D02*
D03*
X57500Y75563D02*
D03*
X61437Y69000D02*
D03*
X6000Y95000D02*
D03*
X85000Y69000D02*
D03*
X78000Y157500D02*
D03*
X18668Y106610D02*
D03*
X94923Y118421D02*
D03*
X69311Y77641D02*
D03*
X93500Y99009D02*
D03*
X246500Y151453D02*
D03*
X280000Y192000D02*
D03*
X331299Y118500D02*
D03*
X324500Y118000D02*
D03*
X318250Y117750D02*
D03*
X320406Y39000D02*
D03*
X321371Y54077D02*
D03*
X266000Y69000D02*
D03*
X265000Y57000D02*
D03*
D33*
X211500Y41842D02*
D03*
X271677Y83677D02*
D03*
X243394Y82394D02*
D03*
X241500Y127669D02*
D03*
X243500Y141500D02*
D03*
X242000Y121500D02*
D03*
X259658Y125500D02*
D03*
X262500Y134500D02*
D03*
X261280Y147000D02*
D03*
X263500Y150000D02*
D03*
X250000Y92250D02*
D03*
X256410Y76488D02*
D03*
X252500Y73500D02*
D03*
X243000Y64705D02*
D03*
X193500Y50996D02*
D03*
X189000Y46000D02*
D03*
X200902Y164138D02*
D03*
X189500Y166079D02*
D03*
X195000Y163500D02*
D03*
X181500Y166000D02*
D03*
X178050Y167500D02*
D03*
X190500Y185000D02*
D03*
X178050D02*
D03*
X171500Y168500D02*
D03*
X169000Y164500D02*
D03*
X125000Y104000D02*
D03*
X124500Y109563D02*
D03*
X127250Y129638D02*
D03*
X126500Y152500D02*
D03*
X125000Y142000D02*
D03*
X141000Y164563D02*
D03*
X120513Y80500D02*
D03*
X118500Y84500D02*
D03*
X121500Y88500D02*
D03*
X127000Y91750D02*
D03*
X112000Y86500D02*
D03*
X122453Y61500D02*
D03*
X109000Y152000D02*
D03*
X94500Y135000D02*
D03*
X95000Y140500D02*
D03*
X109000Y119703D02*
D03*
X94500Y111500D02*
D03*
X105453Y103453D02*
D03*
X134500Y205500D02*
D03*
X220499Y51500D02*
D03*
X185500Y25500D02*
D03*
X241500Y71000D02*
D03*
X207000Y172500D02*
D03*
X160500Y167000D02*
D03*
X240500Y124250D02*
D03*
X125750Y114750D02*
D03*
X178000Y30000D02*
D03*
X205000Y50500D02*
D03*
X257500Y108000D02*
D03*
X220272Y166500D02*
D03*
X218649Y170982D02*
D03*
X116500Y46000D02*
D03*
X95500Y144500D02*
D03*
X205500Y163500D02*
D03*
X261500Y131217D02*
D03*
X263500Y141500D02*
D03*
X263000Y138000D02*
D03*
X128500Y169000D02*
D03*
X173000Y196500D02*
D03*
X117132Y169132D02*
D03*
X110000Y165516D02*
D03*
X103500Y163000D02*
D03*
X99000Y165000D02*
D03*
X274500Y148000D02*
D03*
X199000Y50500D02*
D03*
X238999Y20466D02*
D03*
X212500Y36500D02*
D03*
X205500Y46500D02*
D03*
X222500Y45000D02*
D03*
X212189Y49250D02*
D03*
X217500Y48000D02*
D03*
X262500Y107500D02*
D03*
X251652Y119000D02*
D03*
X253000Y115328D02*
D03*
X60866Y173500D02*
D03*
X228500Y7500D02*
D03*
X235000Y13000D02*
D03*
X231000Y17000D02*
D03*
X230500Y47953D02*
D03*
X263500Y127000D02*
D03*
X238000Y45500D02*
D03*
M02*
