M48
;Layer_Color=9474304
;FILE_FORMAT=2:5
INCH,LZ
;TYPE=PLATED
T1F00S00C0.01000
T2F00S00C0.01500
T3F00S00C0.02500
T4F00S00C0.02756
T5F00S00C0.03000
T6F00S00C0.03543
%
T01
X01165Y0046
X0189
X01935Y0050996
X0199Y00505
X0205
X02055Y00465
X0212189Y004925
X02115Y0041842
X01855Y00255
X0178Y003
X02125Y00365
X02175Y0048
X0220499Y00515
X02225Y0045
X02305Y0047953
X0238Y00455
X0238999Y0020466
X0235Y0013
X0231Y0017
X02285Y00075
X0243Y0064705
X02415Y0071
X0243394Y0082394
X025Y009225
X02525Y00735
X025641Y0076488
X0271677Y0083677
X02625Y01075
X02575Y0108
X0253Y0115328
X0251652Y0119
X0242Y01215
X02405Y012425
X02415Y0127669
X02435Y01415
X02635
X0263Y0138
X02625Y01345
X02615Y0131217
X02635Y0127
X0259658Y01255
X026128Y0147
X02635Y015
X02745Y0148
X0220272Y01665
X0218649Y0170982
X0207Y01725
X02055Y01635
X0200902Y0164138
X0195Y01635
X01895Y0166079
X01815Y0166
X017805Y01675
X01715Y01685
X0169Y01645
X01605Y0167
X0141Y0164563
X01285Y0169
X0117132Y0169132
X011Y0165516
X01035Y0163
X0099Y0165
X0109Y0152
X01265Y01525
X0125Y0142
X012725Y0129638
X012575Y011475
X01245Y0109563
X0125Y0104
X0127Y009175
X01215Y00885
X01185Y00845
X0120513Y00805
X0112Y00865
X0105453Y0103453
X00945Y01115
X0109Y0119703
X00945Y0135
X0095Y01405
X00955Y01445
X0060866Y01735
X01345Y02055
X0173Y01965
X017805Y0185
X01905
X0122453Y00615
T02
X01675Y0012297
X0258Y0026
X02595Y0033203
X0257547Y0039094
X02565Y0045658
X0249Y0039
X0273953Y0053
X0286Y0054
X0321371Y0054077
X0320406Y0039
X032Y0079
X031825Y011775
X03245Y0118
X0331299Y01185
X03155Y01415
X03105Y01365
X0291Y0144
X02465Y0151453
X028Y0192
X0289Y00915
X0266Y0069
X0265Y0057
X0092Y00735
X0085Y0069
X008Y0075563
X0069311Y0077641
X00575Y0075563
X0061437Y0069
X00935Y0099009
X0094923Y0118421
X0078Y01575
X0058Y0155
X0018668Y010661
X0006Y0095
T03
X0353425Y0027886
X0361299
X0369173
X0377047
X0384921
X0392795
X0400669
X0408543
X0416417
X0424291
Y01145
X0416417
X0408543
X0400669
X0392795
X0384921
X0377047
X0369173
X0361299
X0353425
T04
X0377047Y01585
Y01885
X03555
X03335Y0188
Y0158
X03555Y01585
X02735Y0201
X02535
T05
X04025Y0159
X04225
Y0189
X04025
T06
X00265Y00155
Y00255
X00365
X00465
Y00155
X00365
X00565
Y00255
X00665
X00765
X00865
X00965
X01065
X01165
Y00155
X01065
X00965
X00865
X00765
X00665
X01915
Y00255
X02015
Y00155
X02115
Y00255
X02215
Y00155
X02465Y00165
X02565
X02665
X02765
X02865
X02965
X03065
Y0044
X02965
Y0054
X03065
Y0064
X02965
Y0074
Y0084
Y0094
Y0104
Y0114
X03065
Y0104
Y0094
Y0084
Y0074
Y0155
X02965
Y0165
Y0175
Y0185
Y0195
X03065
Y0185
Y0175
Y0165
X02215Y01955
Y02055
X02115
Y01955
X02015
Y02055
X01915
Y01955
X01165
Y02055
X01065
X00965
X00865
X00765
X00665
X00565
Y01955
X00665
X00765
X00865
X00965
X01065
X00465
Y02055
X00365
X00265
Y01955
X00365
M30
