G04 Layer_Color=8421504*
%FSLAX25Y25*%
%MOIN*%
G70*
G01*
G75*
%ADD10R,0.04331X0.10236*%
%ADD11R,0.05906X0.10236*%
%ADD12R,0.04331X0.05512*%
%ADD14R,0.02362X0.00984*%
%ADD15R,0.00984X0.02362*%
%ADD16R,0.05512X0.04331*%
%ADD17R,0.04724X0.05512*%
%ADD18R,0.10236X0.04331*%
%ADD19O,0.01181X0.06890*%
%ADD20O,0.06890X0.01181*%
%ADD21O,0.05709X0.01181*%
%ADD22O,0.01181X0.05709*%
%ADD45R,0.00100X0.00100*%
%ADD46R,0.00100X0.00100*%
G36*
X321530Y137733D02*
X321566Y137722D01*
X321600Y137704D01*
X321629Y137680D01*
X321653Y137650D01*
X321671Y137617D01*
X321682Y137580D01*
X321686Y137542D01*
Y133087D01*
X321682Y133050D01*
X321671Y133013D01*
X321653Y132980D01*
X321629Y132950D01*
X321600Y132926D01*
X321566Y132908D01*
X321530Y132897D01*
X321492Y132894D01*
X317037D01*
X316999Y132897D01*
X316963Y132908D01*
X316930Y132926D01*
X316900Y132950D01*
X316876Y132980D01*
X316858Y133013D01*
X316847Y133050D01*
X316843Y133087D01*
Y137542D01*
X316847Y137580D01*
X316858Y137617D01*
X316876Y137650D01*
X316900Y137680D01*
X316930Y137704D01*
X316963Y137722D01*
X316999Y137733D01*
X317037Y137736D01*
X321492D01*
X321530Y137733D01*
D02*
G37*
G36*
X315900D02*
X315936Y137722D01*
X315970Y137704D01*
X315999Y137680D01*
X316023Y137650D01*
X316041Y137617D01*
X316052Y137580D01*
X316056Y137542D01*
Y133087D01*
X316052Y133050D01*
X316041Y133013D01*
X316023Y132980D01*
X315999Y132950D01*
X315970Y132926D01*
X315936Y132908D01*
X315900Y132897D01*
X315862Y132894D01*
X311407D01*
X311369Y132897D01*
X311333Y132908D01*
X311300Y132926D01*
X311270Y132950D01*
X311246Y132980D01*
X311228Y133013D01*
X311217Y133050D01*
X311213Y133087D01*
Y137542D01*
X311217Y137580D01*
X311228Y137617D01*
X311246Y137650D01*
X311270Y137680D01*
X311300Y137704D01*
X311333Y137722D01*
X311369Y137733D01*
X311407Y137736D01*
X315862D01*
X315900Y137733D01*
D02*
G37*
G36*
X321530Y132103D02*
X321566Y132092D01*
X321600Y132074D01*
X321629Y132050D01*
X321653Y132020D01*
X321671Y131987D01*
X321682Y131950D01*
X321686Y131913D01*
Y127457D01*
X321682Y127420D01*
X321671Y127383D01*
X321653Y127350D01*
X321629Y127321D01*
X321600Y127296D01*
X321566Y127278D01*
X321530Y127268D01*
X321492Y127264D01*
X317037D01*
X316999Y127268D01*
X316963Y127278D01*
X316930Y127296D01*
X316900Y127321D01*
X316876Y127350D01*
X316858Y127383D01*
X316847Y127420D01*
X316843Y127457D01*
Y131913D01*
X316847Y131950D01*
X316858Y131987D01*
X316876Y132020D01*
X316900Y132050D01*
X316930Y132074D01*
X316963Y132092D01*
X316999Y132103D01*
X317037Y132106D01*
X321492D01*
X321530Y132103D01*
D02*
G37*
G36*
X315900D02*
X315936Y132092D01*
X315970Y132074D01*
X315999Y132050D01*
X316023Y132020D01*
X316041Y131987D01*
X316052Y131950D01*
X316056Y131913D01*
Y127457D01*
X316052Y127420D01*
X316041Y127383D01*
X316023Y127350D01*
X315999Y127321D01*
X315970Y127296D01*
X315936Y127278D01*
X315900Y127268D01*
X315862Y127264D01*
X311407D01*
X311369Y127268D01*
X311333Y127278D01*
X311300Y127296D01*
X311270Y127321D01*
X311246Y127350D01*
X311228Y127383D01*
X311217Y127420D01*
X311213Y127457D01*
Y131913D01*
X311217Y131950D01*
X311228Y131987D01*
X311246Y132020D01*
X311270Y132050D01*
X311300Y132074D01*
X311333Y132092D01*
X311369Y132103D01*
X311407Y132106D01*
X315862D01*
X315900Y132103D01*
D02*
G37*
G36*
X241886Y94610D02*
X210114D01*
Y123370D01*
X241886D01*
Y94610D01*
D02*
G37*
D10*
X465315Y180500D02*
D03*
X454685D02*
D03*
X465815Y151323D02*
D03*
X455185D02*
D03*
X299685Y17500D02*
D03*
X310315D02*
D03*
X267315Y13000D02*
D03*
X256685D02*
D03*
X355315Y65500D02*
D03*
X344685D02*
D03*
X355815Y83677D02*
D03*
X345185D02*
D03*
Y99721D02*
D03*
X355815D02*
D03*
D11*
X492406Y181500D02*
D03*
X480594D02*
D03*
X491905Y151815D02*
D03*
X480094D02*
D03*
D12*
X138047Y125520D02*
D03*
X143953D02*
D03*
X138047Y135500D02*
D03*
X143953D02*
D03*
X138047Y106000D02*
D03*
X143953D02*
D03*
X208547Y43000D02*
D03*
X214453D02*
D03*
X192047D02*
D03*
X197953D02*
D03*
X156547Y73000D02*
D03*
X162453D02*
D03*
X156547Y63000D02*
D03*
X162453D02*
D03*
X176047Y43000D02*
D03*
X181953D02*
D03*
X184547Y171000D02*
D03*
X190453D02*
D03*
X40453Y170000D02*
D03*
X34547D02*
D03*
X34547Y156500D02*
D03*
X40453D02*
D03*
X138047Y88000D02*
D03*
X143953D02*
D03*
X138047Y115500D02*
D03*
X143953D02*
D03*
X138047Y97000D02*
D03*
X143953D02*
D03*
X286047Y37500D02*
D03*
X291953D02*
D03*
D14*
X308950Y127500D02*
D03*
X308969Y129547D02*
D03*
Y131516D02*
D03*
Y133484D02*
D03*
Y135453D02*
D03*
Y137421D02*
D03*
X323930D02*
D03*
Y135453D02*
D03*
Y133484D02*
D03*
Y131516D02*
D03*
Y129547D02*
D03*
Y127579D02*
D03*
D15*
X311528Y139980D02*
D03*
X313497D02*
D03*
X315465D02*
D03*
X317434D02*
D03*
X319403D02*
D03*
X321371D02*
D03*
Y125020D02*
D03*
X319403D02*
D03*
X317434D02*
D03*
X315465D02*
D03*
X313497D02*
D03*
X311528D02*
D03*
D16*
X290450Y158953D02*
D03*
Y153047D02*
D03*
X163831Y152547D02*
D03*
Y158453D02*
D03*
X15000Y89284D02*
D03*
Y95189D02*
D03*
X259500Y183953D02*
D03*
Y178047D02*
D03*
X239000Y183953D02*
D03*
Y178047D02*
D03*
X242500Y15453D02*
D03*
Y9547D02*
D03*
X284000Y16000D02*
D03*
Y10095D02*
D03*
X288500Y59047D02*
D03*
Y64953D02*
D03*
X249000Y183953D02*
D03*
Y178047D02*
D03*
D17*
X56457Y165000D02*
D03*
X63543D02*
D03*
D18*
X9000Y126815D02*
D03*
Y116185D02*
D03*
X324500Y47815D02*
D03*
Y37185D02*
D03*
X306500Y47815D02*
D03*
Y37185D02*
D03*
D19*
X81122Y143323D02*
D03*
X79154D02*
D03*
X77185D02*
D03*
X75217D02*
D03*
X73248D02*
D03*
X71280D02*
D03*
X69311D02*
D03*
X67343D02*
D03*
X65374D02*
D03*
X63406D02*
D03*
X61437D02*
D03*
X59469D02*
D03*
X57500D02*
D03*
X55532D02*
D03*
X53563D02*
D03*
X51595D02*
D03*
X49626D02*
D03*
X47657D02*
D03*
X45689D02*
D03*
X43720D02*
D03*
X41752D02*
D03*
X39783D02*
D03*
X37815D02*
D03*
X35846D02*
D03*
X33878D02*
D03*
Y83677D02*
D03*
X35846D02*
D03*
X37815D02*
D03*
X39783D02*
D03*
X41752D02*
D03*
X43720D02*
D03*
X45689D02*
D03*
X47657D02*
D03*
X49626D02*
D03*
X51595D02*
D03*
X53563D02*
D03*
X55532D02*
D03*
X57500D02*
D03*
X59469D02*
D03*
X61437D02*
D03*
X63406D02*
D03*
X65374D02*
D03*
X67343D02*
D03*
X69311D02*
D03*
X71280D02*
D03*
X73248D02*
D03*
X75217D02*
D03*
X77185D02*
D03*
X79154D02*
D03*
X81122D02*
D03*
D20*
X27677Y137122D02*
D03*
Y135153D02*
D03*
Y133185D02*
D03*
Y131217D02*
D03*
Y129248D02*
D03*
Y127279D02*
D03*
Y125311D02*
D03*
Y123343D02*
D03*
Y121374D02*
D03*
Y119405D02*
D03*
Y117437D02*
D03*
Y115469D02*
D03*
Y113500D02*
D03*
Y111531D02*
D03*
Y109563D02*
D03*
Y107595D02*
D03*
Y105626D02*
D03*
Y103657D02*
D03*
Y101689D02*
D03*
Y99721D02*
D03*
Y97752D02*
D03*
Y95784D02*
D03*
Y93815D02*
D03*
Y91847D02*
D03*
Y89878D02*
D03*
X87323D02*
D03*
Y91847D02*
D03*
Y93815D02*
D03*
Y95784D02*
D03*
Y97752D02*
D03*
Y99721D02*
D03*
Y101689D02*
D03*
Y103657D02*
D03*
Y105626D02*
D03*
Y107595D02*
D03*
Y109563D02*
D03*
Y111531D02*
D03*
Y113500D02*
D03*
Y115469D02*
D03*
Y117437D02*
D03*
Y119405D02*
D03*
Y121374D02*
D03*
Y123343D02*
D03*
Y125311D02*
D03*
Y127279D02*
D03*
Y129248D02*
D03*
Y131217D02*
D03*
Y133185D02*
D03*
Y135153D02*
D03*
Y137122D02*
D03*
D21*
X276098Y151323D02*
D03*
Y149354D02*
D03*
Y147386D02*
D03*
Y145417D02*
D03*
Y143449D02*
D03*
Y141480D02*
D03*
Y139512D02*
D03*
Y137543D02*
D03*
Y135575D02*
D03*
Y133606D02*
D03*
Y131638D02*
D03*
Y129669D02*
D03*
Y127701D02*
D03*
Y125732D02*
D03*
Y123764D02*
D03*
Y121795D02*
D03*
Y119827D02*
D03*
Y117858D02*
D03*
Y115890D02*
D03*
Y113921D02*
D03*
Y111953D02*
D03*
Y109984D02*
D03*
Y108016D02*
D03*
Y106047D02*
D03*
Y104079D02*
D03*
Y102110D02*
D03*
Y100142D02*
D03*
Y98173D02*
D03*
Y96205D02*
D03*
Y94236D02*
D03*
Y92268D02*
D03*
Y90299D02*
D03*
Y88331D02*
D03*
Y86362D02*
D03*
Y84394D02*
D03*
Y82425D02*
D03*
Y80457D02*
D03*
Y78488D02*
D03*
Y76520D02*
D03*
Y74551D02*
D03*
Y72583D02*
D03*
Y70614D02*
D03*
Y68646D02*
D03*
Y66677D02*
D03*
X175902D02*
D03*
Y68646D02*
D03*
Y70614D02*
D03*
Y72583D02*
D03*
Y74551D02*
D03*
Y76520D02*
D03*
Y78488D02*
D03*
Y80457D02*
D03*
Y82425D02*
D03*
Y84394D02*
D03*
Y86362D02*
D03*
Y88331D02*
D03*
Y90299D02*
D03*
Y92268D02*
D03*
Y94236D02*
D03*
Y96205D02*
D03*
Y98173D02*
D03*
Y100142D02*
D03*
Y102110D02*
D03*
Y104079D02*
D03*
Y106047D02*
D03*
Y108016D02*
D03*
Y109984D02*
D03*
Y111953D02*
D03*
Y113921D02*
D03*
Y115890D02*
D03*
Y117858D02*
D03*
Y119827D02*
D03*
Y121795D02*
D03*
Y123764D02*
D03*
Y125732D02*
D03*
Y127701D02*
D03*
Y129669D02*
D03*
Y131638D02*
D03*
Y133606D02*
D03*
Y135575D02*
D03*
Y137543D02*
D03*
Y139512D02*
D03*
Y141480D02*
D03*
Y143449D02*
D03*
Y145417D02*
D03*
Y147386D02*
D03*
Y149354D02*
D03*
Y151323D02*
D03*
D22*
X268323Y58902D02*
D03*
X266354D02*
D03*
X264386D02*
D03*
X262417D02*
D03*
X260449D02*
D03*
X258480D02*
D03*
X256512D02*
D03*
X254543D02*
D03*
X252575D02*
D03*
X250606D02*
D03*
X248638D02*
D03*
X246669D02*
D03*
X244701D02*
D03*
X242732D02*
D03*
X240764D02*
D03*
X238795D02*
D03*
X236827D02*
D03*
X234858D02*
D03*
X232890D02*
D03*
X230921D02*
D03*
X228953D02*
D03*
X226984D02*
D03*
X225016D02*
D03*
X223047D02*
D03*
X221079D02*
D03*
X219110D02*
D03*
X217142D02*
D03*
X215173D02*
D03*
X213205D02*
D03*
X211236D02*
D03*
X209268D02*
D03*
X207299D02*
D03*
X205331D02*
D03*
X203362D02*
D03*
X201394D02*
D03*
X199425D02*
D03*
X197457D02*
D03*
X195488D02*
D03*
X193520D02*
D03*
X191551D02*
D03*
X189583D02*
D03*
X187614D02*
D03*
X185646D02*
D03*
X183677D02*
D03*
Y159098D02*
D03*
X185646D02*
D03*
X187614D02*
D03*
X189583D02*
D03*
X191551D02*
D03*
X193520D02*
D03*
X195488D02*
D03*
X197457D02*
D03*
X199425D02*
D03*
X201394D02*
D03*
X203362D02*
D03*
X205331D02*
D03*
X207299D02*
D03*
X209268D02*
D03*
X211236D02*
D03*
X213205D02*
D03*
X215173D02*
D03*
X217142D02*
D03*
X219110D02*
D03*
X221079D02*
D03*
X223047D02*
D03*
X225016D02*
D03*
X226984D02*
D03*
X228953D02*
D03*
X230921D02*
D03*
X232890D02*
D03*
X234858D02*
D03*
X236827D02*
D03*
X238795D02*
D03*
X240764D02*
D03*
X242732D02*
D03*
X244701D02*
D03*
X246669D02*
D03*
X248638D02*
D03*
X250606D02*
D03*
X252575D02*
D03*
X254543D02*
D03*
X256512D02*
D03*
X258480D02*
D03*
X260449D02*
D03*
X262417D02*
D03*
X264386D02*
D03*
X266354D02*
D03*
X268323D02*
D03*
D45*
X316450Y132500D02*
D03*
D46*
X226000Y109000D02*
D03*
M02*
