G04 Layer_Color=16711935*
%FSLAX25Y25*%
%MOIN*%
G70*
G01*
G75*
%ADD30C,0.04000*%
%ADD32C,0.03000*%
%ADD44R,0.06512X0.05331*%
%ADD45R,0.05331X0.06512*%
%ADD52C,0.06906*%
%ADD53R,0.06906X0.06906*%
%ADD54R,0.07000X0.11000*%
%ADD55O,0.07000X0.11000*%
%ADD56R,0.06906X0.06906*%
%ADD57C,0.05724*%
%ADD58C,0.05000*%
G04:AMPARAMS|DCode=59|XSize=50mil|YSize=50mil|CornerRadius=15mil|HoleSize=0mil|Usage=FLASHONLY|Rotation=270.000|XOffset=0mil|YOffset=0mil|HoleType=Round|Shape=RoundedRectangle|*
%AMROUNDEDRECTD59*
21,1,0.05000,0.02000,0,0,270.0*
21,1,0.02000,0.05000,0,0,270.0*
1,1,0.03000,-0.01000,-0.01000*
1,1,0.03000,-0.01000,0.01000*
1,1,0.03000,0.01000,0.01000*
1,1,0.03000,0.01000,-0.01000*
%
%ADD59ROUNDEDRECTD59*%
D30*
X286000Y54000D02*
D03*
X315500Y141500D02*
D03*
X310500Y136500D02*
D03*
X291000Y144000D02*
D03*
X289000Y91500D02*
D03*
X167500Y12297D02*
D03*
X256500Y45658D02*
D03*
X249000Y39000D02*
D03*
X257547Y39094D02*
D03*
X273953Y53000D02*
D03*
X259500Y33203D02*
D03*
X258000Y26000D02*
D03*
X320000Y79000D02*
D03*
X58000Y155000D02*
D03*
X80000Y75563D02*
D03*
X92000Y73500D02*
D03*
X57500Y75563D02*
D03*
X61437Y69000D02*
D03*
X6000Y95000D02*
D03*
X85000Y69000D02*
D03*
X78000Y157500D02*
D03*
X18668Y106610D02*
D03*
X94923Y118421D02*
D03*
X69311Y77641D02*
D03*
X93500Y99009D02*
D03*
X246500Y151453D02*
D03*
X280000Y192000D02*
D03*
X331299Y118500D02*
D03*
X324500Y118000D02*
D03*
X318250Y117750D02*
D03*
X320406Y39000D02*
D03*
X321371Y54077D02*
D03*
X266000Y69000D02*
D03*
X265000Y57000D02*
D03*
D32*
X211500Y41842D02*
D03*
X271677Y83677D02*
D03*
X243394Y82394D02*
D03*
X241500Y127669D02*
D03*
X243500Y141500D02*
D03*
X242000Y121500D02*
D03*
X259658Y125500D02*
D03*
X262500Y134500D02*
D03*
X261280Y147000D02*
D03*
X263500Y150000D02*
D03*
X250000Y92250D02*
D03*
X256410Y76488D02*
D03*
X252500Y73500D02*
D03*
X243000Y64705D02*
D03*
X193500Y50996D02*
D03*
X189000Y46000D02*
D03*
X200902Y164138D02*
D03*
X189500Y166079D02*
D03*
X195000Y163500D02*
D03*
X181500Y166000D02*
D03*
X178050Y167500D02*
D03*
X190500Y185000D02*
D03*
X178050D02*
D03*
X171500Y168500D02*
D03*
X169000Y164500D02*
D03*
X125000Y104000D02*
D03*
X124500Y109563D02*
D03*
X127250Y129638D02*
D03*
X126500Y152500D02*
D03*
X125000Y142000D02*
D03*
X141000Y164563D02*
D03*
X120513Y80500D02*
D03*
X118500Y84500D02*
D03*
X121500Y88500D02*
D03*
X127000Y91750D02*
D03*
X112000Y86500D02*
D03*
X122453Y61500D02*
D03*
X109000Y152000D02*
D03*
X94500Y135000D02*
D03*
X95000Y140500D02*
D03*
X109000Y119703D02*
D03*
X94500Y111500D02*
D03*
X105453Y103453D02*
D03*
X134500Y205500D02*
D03*
X220499Y51500D02*
D03*
X185500Y25500D02*
D03*
X241500Y71000D02*
D03*
X207000Y172500D02*
D03*
X160500Y167000D02*
D03*
X240500Y124250D02*
D03*
X125750Y114750D02*
D03*
X178000Y30000D02*
D03*
X205000Y50500D02*
D03*
X257500Y108000D02*
D03*
X220272Y166500D02*
D03*
X218649Y170982D02*
D03*
X116500Y46000D02*
D03*
X95500Y144500D02*
D03*
X205500Y163500D02*
D03*
X261500Y131217D02*
D03*
X263500Y141500D02*
D03*
X263000Y138000D02*
D03*
X128500Y169000D02*
D03*
X173000Y196500D02*
D03*
X117132Y169132D02*
D03*
X110000Y165516D02*
D03*
X103500Y163000D02*
D03*
X99000Y165000D02*
D03*
X274500Y148000D02*
D03*
X199000Y50500D02*
D03*
X238999Y20466D02*
D03*
X212500Y36500D02*
D03*
X205500Y46500D02*
D03*
X222500Y45000D02*
D03*
X212189Y49250D02*
D03*
X217500Y48000D02*
D03*
X262500Y107500D02*
D03*
X251652Y119000D02*
D03*
X253000Y115328D02*
D03*
X60866Y173500D02*
D03*
X228500Y7500D02*
D03*
X235000Y13000D02*
D03*
X231000Y17000D02*
D03*
X230500Y47953D02*
D03*
X263500Y127000D02*
D03*
X238000Y45500D02*
D03*
D44*
X199000Y60500D02*
D03*
Y66405D02*
D03*
X208000Y60500D02*
D03*
Y66405D02*
D03*
X202500Y155453D02*
D03*
Y149547D02*
D03*
X193500Y155453D02*
D03*
Y149547D02*
D03*
X203500Y40953D02*
D03*
Y35047D02*
D03*
X194500Y40953D02*
D03*
Y35047D02*
D03*
X222500Y40453D02*
D03*
Y34547D02*
D03*
X53435Y136138D02*
D03*
Y130232D02*
D03*
X77500Y88047D02*
D03*
Y93953D02*
D03*
D45*
X99547Y111500D02*
D03*
X105453D02*
D03*
D52*
X221500Y205500D02*
D03*
Y195500D02*
D03*
X211500Y205500D02*
D03*
Y195500D02*
D03*
X201500Y205500D02*
D03*
Y195500D02*
D03*
X191500Y205500D02*
D03*
Y15500D02*
D03*
Y25500D02*
D03*
X201500Y15500D02*
D03*
Y25500D02*
D03*
X211500Y15500D02*
D03*
Y25500D02*
D03*
X221500Y15500D02*
D03*
X296500Y195000D02*
D03*
Y185000D02*
D03*
Y175000D02*
D03*
Y165000D02*
D03*
Y155000D02*
D03*
X306500Y195000D02*
D03*
Y185000D02*
D03*
Y175000D02*
D03*
Y165000D02*
D03*
X296500Y114000D02*
D03*
Y104000D02*
D03*
Y94000D02*
D03*
Y84000D02*
D03*
Y74000D02*
D03*
Y64000D02*
D03*
Y54000D02*
D03*
Y44000D02*
D03*
X306500Y114000D02*
D03*
Y104000D02*
D03*
Y94000D02*
D03*
Y84000D02*
D03*
Y74000D02*
D03*
Y64000D02*
D03*
Y54000D02*
D03*
X106500Y25500D02*
D03*
X96500D02*
D03*
X86500D02*
D03*
X76500D02*
D03*
X66500D02*
D03*
X56500D02*
D03*
X46500D02*
D03*
X36500D02*
D03*
X26500D02*
D03*
X116500Y15500D02*
D03*
X106500D02*
D03*
X96500D02*
D03*
X86500D02*
D03*
X76500D02*
D03*
X66500D02*
D03*
X56500D02*
D03*
X46500D02*
D03*
X36500D02*
D03*
X26500D02*
D03*
X106500Y205500D02*
D03*
X96500D02*
D03*
X86500D02*
D03*
X76500D02*
D03*
X66500D02*
D03*
X56500D02*
D03*
X46500D02*
D03*
X36500D02*
D03*
X26500D02*
D03*
X116500Y195500D02*
D03*
X106500D02*
D03*
X96500D02*
D03*
X86500D02*
D03*
X76500D02*
D03*
X66500D02*
D03*
X56500D02*
D03*
X46500D02*
D03*
X36500D02*
D03*
X26500D02*
D03*
X286500Y16500D02*
D03*
X296500D02*
D03*
X276500D02*
D03*
X266500D02*
D03*
X256500D02*
D03*
X246500D02*
D03*
D53*
X191500Y195500D02*
D03*
X221500Y25500D02*
D03*
X116500D02*
D03*
Y205500D02*
D03*
X306500Y16500D02*
D03*
D54*
X422500Y189000D02*
D03*
D55*
Y159000D02*
D03*
X402500D02*
D03*
Y189000D02*
D03*
D56*
X306500Y155000D02*
D03*
Y44000D02*
D03*
D57*
X333500Y158000D02*
D03*
Y188000D02*
D03*
X355500Y188500D02*
D03*
Y158500D02*
D03*
X377047Y188500D02*
D03*
Y158500D02*
D03*
X253500Y201000D02*
D03*
X273500D02*
D03*
D58*
X424291Y27886D02*
D03*
X416417D02*
D03*
X408543D02*
D03*
X400669D02*
D03*
X392795D02*
D03*
X384921D02*
D03*
X377047D02*
D03*
X369173D02*
D03*
X361299D02*
D03*
X353425D02*
D03*
Y114500D02*
D03*
X361299D02*
D03*
X369173D02*
D03*
X377047D02*
D03*
X384921D02*
D03*
X392795D02*
D03*
X400669D02*
D03*
X408543D02*
D03*
X416417D02*
D03*
D59*
X424291D02*
D03*
M02*
