G04 Layer_Color=8421504*
%FSLAX25Y25*%
%MOIN*%
G70*
G01*
G75*
%ADD10O,0.06890X0.01181*%
%ADD11O,0.01181X0.06890*%
%ADD12R,0.05512X0.04331*%
%ADD13R,0.04331X0.05512*%
%ADD15O,0.01181X0.05709*%
%ADD16O,0.05709X0.01181*%
%ADD17R,0.10236X0.04331*%
%ADD18R,0.04331X0.10236*%
%ADD19R,0.04724X0.05512*%
%ADD20R,0.00984X0.02362*%
%ADD21R,0.02362X0.00984*%
%ADD40R,0.00100X0.00100*%
%ADD41R,0.00100X0.00100*%
G36*
X279580Y140233D02*
X279617Y140222D01*
X279650Y140204D01*
X279679Y140180D01*
X279704Y140150D01*
X279721Y140117D01*
X279732Y140080D01*
X279736Y140042D01*
Y135587D01*
X279732Y135550D01*
X279721Y135513D01*
X279704Y135480D01*
X279679Y135450D01*
X279650Y135426D01*
X279617Y135408D01*
X279580Y135397D01*
X279542Y135394D01*
X275087D01*
X275050Y135397D01*
X275013Y135408D01*
X274980Y135426D01*
X274950Y135450D01*
X274926Y135480D01*
X274908Y135513D01*
X274897Y135550D01*
X274894Y135587D01*
Y140042D01*
X274897Y140080D01*
X274908Y140117D01*
X274926Y140150D01*
X274950Y140180D01*
X274980Y140204D01*
X275013Y140222D01*
X275050Y140233D01*
X275087Y140236D01*
X279542D01*
X279580Y140233D01*
D02*
G37*
G36*
X273950D02*
X273987Y140222D01*
X274020Y140204D01*
X274050Y140180D01*
X274074Y140150D01*
X274092Y140117D01*
X274103Y140080D01*
X274106Y140042D01*
Y135587D01*
X274103Y135550D01*
X274092Y135513D01*
X274074Y135480D01*
X274050Y135450D01*
X274020Y135426D01*
X273987Y135408D01*
X273950Y135397D01*
X273913Y135394D01*
X269458D01*
X269420Y135397D01*
X269383Y135408D01*
X269350Y135426D01*
X269321Y135450D01*
X269296Y135480D01*
X269279Y135513D01*
X269268Y135550D01*
X269264Y135587D01*
Y140042D01*
X269268Y140080D01*
X269279Y140117D01*
X269296Y140150D01*
X269321Y140180D01*
X269350Y140204D01*
X269383Y140222D01*
X269420Y140233D01*
X269458Y140236D01*
X273913D01*
X273950Y140233D01*
D02*
G37*
G36*
X279580Y134603D02*
X279617Y134592D01*
X279650Y134574D01*
X279679Y134550D01*
X279704Y134520D01*
X279721Y134487D01*
X279732Y134450D01*
X279736Y134413D01*
Y129957D01*
X279732Y129920D01*
X279721Y129883D01*
X279704Y129850D01*
X279679Y129821D01*
X279650Y129796D01*
X279617Y129779D01*
X279580Y129768D01*
X279542Y129764D01*
X275087D01*
X275050Y129768D01*
X275013Y129779D01*
X274980Y129796D01*
X274950Y129821D01*
X274926Y129850D01*
X274908Y129883D01*
X274897Y129920D01*
X274894Y129957D01*
Y134413D01*
X274897Y134450D01*
X274908Y134487D01*
X274926Y134520D01*
X274950Y134550D01*
X274980Y134574D01*
X275013Y134592D01*
X275050Y134603D01*
X275087Y134606D01*
X279542D01*
X279580Y134603D01*
D02*
G37*
G36*
X273950D02*
X273987Y134592D01*
X274020Y134574D01*
X274050Y134550D01*
X274074Y134520D01*
X274092Y134487D01*
X274103Y134450D01*
X274106Y134413D01*
Y129957D01*
X274103Y129920D01*
X274092Y129883D01*
X274074Y129850D01*
X274050Y129821D01*
X274020Y129796D01*
X273987Y129779D01*
X273950Y129768D01*
X273913Y129764D01*
X269458D01*
X269420Y129768D01*
X269383Y129779D01*
X269350Y129796D01*
X269321Y129821D01*
X269296Y129850D01*
X269279Y129883D01*
X269268Y129920D01*
X269264Y129957D01*
Y134413D01*
X269268Y134450D01*
X269279Y134487D01*
X269296Y134520D01*
X269321Y134550D01*
X269350Y134574D01*
X269383Y134592D01*
X269420Y134603D01*
X269458Y134606D01*
X273913D01*
X273950Y134603D01*
D02*
G37*
G36*
X200886Y92610D02*
X169114D01*
Y121370D01*
X200886D01*
Y92610D01*
D02*
G37*
D10*
X87323Y137122D02*
D03*
Y135153D02*
D03*
Y133185D02*
D03*
Y131217D02*
D03*
Y129248D02*
D03*
Y127279D02*
D03*
Y125311D02*
D03*
Y123343D02*
D03*
Y121374D02*
D03*
Y119405D02*
D03*
Y117437D02*
D03*
Y115469D02*
D03*
Y113500D02*
D03*
Y111531D02*
D03*
Y109563D02*
D03*
Y107595D02*
D03*
Y105626D02*
D03*
Y103657D02*
D03*
Y101689D02*
D03*
Y99721D02*
D03*
Y97752D02*
D03*
Y95784D02*
D03*
Y93815D02*
D03*
Y91847D02*
D03*
Y89878D02*
D03*
X27677D02*
D03*
Y91847D02*
D03*
Y93815D02*
D03*
Y95784D02*
D03*
Y97752D02*
D03*
Y99721D02*
D03*
Y101689D02*
D03*
Y103657D02*
D03*
Y105626D02*
D03*
Y107595D02*
D03*
Y109563D02*
D03*
Y111531D02*
D03*
Y113500D02*
D03*
Y115469D02*
D03*
Y117437D02*
D03*
Y119405D02*
D03*
Y121374D02*
D03*
Y123343D02*
D03*
Y125311D02*
D03*
Y127279D02*
D03*
Y129248D02*
D03*
Y131217D02*
D03*
Y133185D02*
D03*
Y135153D02*
D03*
Y137122D02*
D03*
D11*
X81122Y83677D02*
D03*
X79154D02*
D03*
X77185D02*
D03*
X75217D02*
D03*
X73248D02*
D03*
X71280D02*
D03*
X69311D02*
D03*
X67343D02*
D03*
X65374D02*
D03*
X63406D02*
D03*
X61437D02*
D03*
X59469D02*
D03*
X57500D02*
D03*
X55532D02*
D03*
X53563D02*
D03*
X51595D02*
D03*
X49626D02*
D03*
X47657D02*
D03*
X45689D02*
D03*
X43720D02*
D03*
X41752D02*
D03*
X39783D02*
D03*
X37815D02*
D03*
X35846D02*
D03*
X33878D02*
D03*
Y143323D02*
D03*
X35846D02*
D03*
X37815D02*
D03*
X39783D02*
D03*
X41752D02*
D03*
X43720D02*
D03*
X45689D02*
D03*
X47657D02*
D03*
X49626D02*
D03*
X51595D02*
D03*
X53563D02*
D03*
X55532D02*
D03*
X57500D02*
D03*
X59469D02*
D03*
X61437D02*
D03*
X63406D02*
D03*
X65374D02*
D03*
X67343D02*
D03*
X69311D02*
D03*
X71280D02*
D03*
X73248D02*
D03*
X75217D02*
D03*
X77185D02*
D03*
X79154D02*
D03*
X81122D02*
D03*
D12*
X245500Y102453D02*
D03*
Y96547D02*
D03*
X199500Y170547D02*
D03*
Y176453D02*
D03*
X15000Y95189D02*
D03*
Y89284D02*
D03*
X178000Y172547D02*
D03*
Y178453D02*
D03*
X190500Y172547D02*
D03*
Y178453D02*
D03*
X246500Y135953D02*
D03*
Y130047D02*
D03*
X254000Y136138D02*
D03*
Y130232D02*
D03*
X245500Y116953D02*
D03*
Y111047D02*
D03*
X255000Y102453D02*
D03*
Y96547D02*
D03*
X254500Y86815D02*
D03*
Y80910D02*
D03*
X264205Y86953D02*
D03*
Y81047D02*
D03*
X248500Y63953D02*
D03*
Y58047D02*
D03*
X258500Y63953D02*
D03*
Y58047D02*
D03*
D13*
X232547Y40500D02*
D03*
X238453D02*
D03*
X121453Y97000D02*
D03*
X115547D02*
D03*
X119500Y106000D02*
D03*
X113594D02*
D03*
X121453Y124000D02*
D03*
X115547D02*
D03*
X121453Y133000D02*
D03*
X115547D02*
D03*
X120085Y142000D02*
D03*
X114179D02*
D03*
X230547Y167000D02*
D03*
X236453D02*
D03*
X40453Y156500D02*
D03*
X34547D02*
D03*
X34547Y170000D02*
D03*
X40453D02*
D03*
X115547Y151000D02*
D03*
X121453D02*
D03*
X154453Y167000D02*
D03*
X148547D02*
D03*
X122453Y55000D02*
D03*
X116547D02*
D03*
X122453Y68500D02*
D03*
X116547D02*
D03*
X139453Y46000D02*
D03*
X133547D02*
D03*
X155953D02*
D03*
X150047D02*
D03*
X171953D02*
D03*
X166047D02*
D03*
X119453Y115000D02*
D03*
X113547D02*
D03*
X218547Y39783D02*
D03*
X224453D02*
D03*
X198547Y41500D02*
D03*
X204453D02*
D03*
D15*
X227323Y157098D02*
D03*
X225354D02*
D03*
X223386D02*
D03*
X221417D02*
D03*
X219449D02*
D03*
X217480D02*
D03*
X215512D02*
D03*
X213543D02*
D03*
X211575D02*
D03*
X209606D02*
D03*
X207638D02*
D03*
X205669D02*
D03*
X203701D02*
D03*
X201732D02*
D03*
X199764D02*
D03*
X197795D02*
D03*
X195827D02*
D03*
X193858D02*
D03*
X191890D02*
D03*
X189921D02*
D03*
X187953D02*
D03*
X185984D02*
D03*
X184016D02*
D03*
X182047D02*
D03*
X180079D02*
D03*
X178110D02*
D03*
X176142D02*
D03*
X174173D02*
D03*
X172205D02*
D03*
X170236D02*
D03*
X168268D02*
D03*
X166299D02*
D03*
X164331D02*
D03*
X162362D02*
D03*
X160394D02*
D03*
X158425D02*
D03*
X156457D02*
D03*
X154488D02*
D03*
X152520D02*
D03*
X150551D02*
D03*
X148583D02*
D03*
X146614D02*
D03*
X144646D02*
D03*
X142677D02*
D03*
Y56902D02*
D03*
X144646D02*
D03*
X146614D02*
D03*
X148583D02*
D03*
X150551D02*
D03*
X152520D02*
D03*
X154488D02*
D03*
X156457D02*
D03*
X158425D02*
D03*
X160394D02*
D03*
X162362D02*
D03*
X164331D02*
D03*
X166299D02*
D03*
X168268D02*
D03*
X170236D02*
D03*
X172205D02*
D03*
X174173D02*
D03*
X176142D02*
D03*
X178110D02*
D03*
X180079D02*
D03*
X182047D02*
D03*
X184016D02*
D03*
X185984D02*
D03*
X187953D02*
D03*
X189921D02*
D03*
X191890D02*
D03*
X193858D02*
D03*
X195827D02*
D03*
X197795D02*
D03*
X199764D02*
D03*
X201732D02*
D03*
X203701D02*
D03*
X205669D02*
D03*
X207638D02*
D03*
X209606D02*
D03*
X211575D02*
D03*
X213543D02*
D03*
X215512D02*
D03*
X217480D02*
D03*
X219449D02*
D03*
X221417D02*
D03*
X223386D02*
D03*
X225354D02*
D03*
X227323D02*
D03*
D16*
X134902Y149323D02*
D03*
Y147354D02*
D03*
Y145386D02*
D03*
Y143417D02*
D03*
Y141449D02*
D03*
Y139480D02*
D03*
Y137512D02*
D03*
Y135543D02*
D03*
Y133575D02*
D03*
Y131606D02*
D03*
Y129638D02*
D03*
Y127669D02*
D03*
Y125701D02*
D03*
Y123732D02*
D03*
Y121764D02*
D03*
Y119795D02*
D03*
Y117827D02*
D03*
Y115858D02*
D03*
Y113890D02*
D03*
Y111921D02*
D03*
Y109953D02*
D03*
Y107984D02*
D03*
Y106016D02*
D03*
Y104047D02*
D03*
Y102079D02*
D03*
Y100110D02*
D03*
Y98142D02*
D03*
Y96173D02*
D03*
Y94205D02*
D03*
Y92236D02*
D03*
Y90268D02*
D03*
Y88299D02*
D03*
Y86331D02*
D03*
Y84362D02*
D03*
Y82394D02*
D03*
Y80425D02*
D03*
Y78457D02*
D03*
Y76488D02*
D03*
Y74520D02*
D03*
Y72551D02*
D03*
Y70583D02*
D03*
Y68614D02*
D03*
Y66646D02*
D03*
Y64677D02*
D03*
X235098D02*
D03*
Y66646D02*
D03*
Y68614D02*
D03*
Y70583D02*
D03*
Y72551D02*
D03*
Y74520D02*
D03*
Y76488D02*
D03*
Y78457D02*
D03*
Y80425D02*
D03*
Y82394D02*
D03*
Y84362D02*
D03*
Y86331D02*
D03*
Y88299D02*
D03*
Y90268D02*
D03*
Y92236D02*
D03*
Y94205D02*
D03*
Y96173D02*
D03*
Y98142D02*
D03*
Y100110D02*
D03*
Y102079D02*
D03*
Y104047D02*
D03*
Y106016D02*
D03*
Y107984D02*
D03*
Y109953D02*
D03*
Y111921D02*
D03*
Y113890D02*
D03*
Y115858D02*
D03*
Y117827D02*
D03*
Y119795D02*
D03*
Y121764D02*
D03*
Y123732D02*
D03*
Y125701D02*
D03*
Y127669D02*
D03*
Y129638D02*
D03*
Y131606D02*
D03*
Y133575D02*
D03*
Y135543D02*
D03*
Y137512D02*
D03*
Y139480D02*
D03*
Y141449D02*
D03*
Y143417D02*
D03*
Y145386D02*
D03*
Y147354D02*
D03*
Y149323D02*
D03*
D17*
X13000Y123685D02*
D03*
Y134315D02*
D03*
D18*
X417815Y135543D02*
D03*
X407185D02*
D03*
D19*
X63543Y165000D02*
D03*
X56457D02*
D03*
D20*
X269579Y127520D02*
D03*
X271547D02*
D03*
X273516D02*
D03*
X275484D02*
D03*
X277453D02*
D03*
X279421D02*
D03*
Y142480D02*
D03*
X277453D02*
D03*
X275484D02*
D03*
X273516D02*
D03*
X271547D02*
D03*
X269579D02*
D03*
D21*
X281980Y130079D02*
D03*
Y132047D02*
D03*
Y134016D02*
D03*
Y135984D02*
D03*
Y137953D02*
D03*
Y139921D02*
D03*
X267020D02*
D03*
Y137953D02*
D03*
Y135984D02*
D03*
Y134016D02*
D03*
Y132047D02*
D03*
X267000Y130000D02*
D03*
D40*
X185000Y107000D02*
D03*
D41*
X274500Y135000D02*
D03*
M02*
