G04 Layer_Color=32768*
%FSLAX25Y25*%
%MOIN*%
G70*
G01*
G75*
%ADD60C,0.00394*%
%ADD62C,0.00197*%
D60*
X195850Y57941D02*
X202150D01*
X195850Y68965D02*
X202150D01*
Y57941D02*
Y68965D01*
X195850Y57941D02*
Y68965D01*
X199000Y61484D02*
Y65421D01*
X197031Y63453D02*
X200969D01*
X204850Y57941D02*
X211150D01*
X204850Y68965D02*
X211150D01*
Y57941D02*
Y68965D01*
X204850Y57941D02*
Y68965D01*
X208000Y61484D02*
Y65421D01*
X206031Y63453D02*
X209968D01*
X55532Y113500D02*
X59469D01*
X57500Y111531D02*
Y115469D01*
X23248Y79248D02*
Y147752D01*
X91752Y79248D02*
Y147752D01*
X23248Y79248D02*
X91752D01*
X23248Y147752D02*
X91752D01*
X199350Y158012D02*
X205650D01*
X199350Y146988D02*
X205650D01*
X199350D02*
Y158012D01*
X205650Y146988D02*
Y158012D01*
X202500Y150531D02*
Y154469D01*
X200532Y152500D02*
X204468D01*
X190350Y158012D02*
X196650D01*
X190350Y146988D02*
X196650D01*
X190350D02*
Y158012D01*
X196650Y146988D02*
Y158012D01*
X193500Y150531D02*
Y154469D01*
X191532Y152500D02*
X195468D01*
X96988Y108350D02*
Y114650D01*
X108012Y108350D02*
Y114650D01*
X96988Y108350D02*
X108012D01*
X96988Y114650D02*
X108012D01*
X100531Y111500D02*
X104469D01*
X102500Y109531D02*
Y113469D01*
X242350Y105012D02*
X248650D01*
X242350Y93988D02*
X248650D01*
Y105012D01*
X242350Y93988D02*
Y105012D01*
X245500Y97531D02*
Y101469D01*
X243531Y99500D02*
X247468D01*
X229988Y37350D02*
Y43650D01*
X241012Y37350D02*
Y43650D01*
X229988D02*
X241012D01*
X229988Y37350D02*
X241012D01*
X233531Y40500D02*
X237469D01*
X235500Y38532D02*
Y42469D01*
X200350Y43512D02*
X206650D01*
X200350Y32488D02*
X206650D01*
X200350D02*
Y43512D01*
X206650Y32488D02*
Y43512D01*
X203500Y36031D02*
Y39968D01*
X201532Y38000D02*
X205469D01*
X191350Y43512D02*
X197650D01*
X191350Y32488D02*
X197650D01*
X191350D02*
Y43512D01*
X197650Y32488D02*
Y43512D01*
X194500Y36031D02*
Y39968D01*
X192532Y38000D02*
X196468D01*
X124012Y93850D02*
Y100150D01*
X112988Y93850D02*
Y100150D01*
Y93850D02*
X124012D01*
X112988Y100150D02*
X124012D01*
X116532Y97000D02*
X120468D01*
X118500Y95031D02*
Y98968D01*
X122059Y102850D02*
Y109150D01*
X111035Y102850D02*
Y109150D01*
Y102850D02*
X122059D01*
X111035Y109150D02*
X122059D01*
X114579Y106000D02*
X118516D01*
X116547Y104032D02*
Y107968D01*
X124012Y120850D02*
Y127150D01*
X112988Y120850D02*
Y127150D01*
Y120850D02*
X124012D01*
X112988Y127150D02*
X124012D01*
X116532Y124000D02*
X120468D01*
X118500Y122031D02*
Y125969D01*
X124012Y129850D02*
Y136150D01*
X112988Y129850D02*
Y136150D01*
Y129850D02*
X124012D01*
X112988Y136150D02*
X124012D01*
X116532Y133000D02*
X120468D01*
X118500Y131032D02*
Y134968D01*
X122644Y138850D02*
Y145150D01*
X111620Y138850D02*
Y145150D01*
Y138850D02*
X122644D01*
X111620Y145150D02*
X122644D01*
X115164Y142000D02*
X119100D01*
X117132Y140032D02*
Y143968D01*
X183031Y107000D02*
X186969D01*
X185000Y105032D02*
Y108968D01*
X11032Y129000D02*
X14968D01*
X13000Y127032D02*
Y130968D01*
X7488Y121126D02*
Y136874D01*
X18512Y121126D02*
Y136874D01*
X7488Y121126D02*
X18512D01*
X7488Y136874D02*
X18512D01*
X227988Y163850D02*
Y170150D01*
X239012Y163850D02*
Y170150D01*
X227988D02*
X239012D01*
X227988Y163850D02*
X239012D01*
X231532Y167000D02*
X235469D01*
X233500Y165032D02*
Y168968D01*
X196350Y167988D02*
X202650D01*
X196350Y179012D02*
X202650D01*
X196350Y167988D02*
Y179012D01*
X202650Y167988D02*
Y179012D01*
X199500Y171531D02*
Y175469D01*
X197531Y173500D02*
X201468D01*
X412500Y133575D02*
Y137512D01*
X410532Y135543D02*
X414468D01*
X404626Y130032D02*
X420374D01*
X404626Y141055D02*
X420374D01*
Y130032D02*
Y141055D01*
X404626Y130032D02*
Y141055D01*
X11850Y97748D02*
X18150D01*
X11850Y86724D02*
X18150D01*
Y97748D01*
X11850Y86724D02*
Y97748D01*
X15000Y90268D02*
Y94205D01*
X13032Y92236D02*
X16969D01*
X66890Y161260D02*
Y168740D01*
X53110Y161260D02*
Y168740D01*
Y161260D02*
X66890D01*
X53110Y168740D02*
X66890D01*
X58031Y165000D02*
X61968D01*
X60000Y163031D02*
Y166969D01*
X37500Y154532D02*
Y158468D01*
X35531Y156500D02*
X39469D01*
X31988Y153350D02*
X43012D01*
X31988Y159650D02*
X43012D01*
Y153350D02*
Y159650D01*
X31988Y153350D02*
Y159650D01*
X37500Y168032D02*
Y171968D01*
X35531Y170000D02*
X39469D01*
X31988Y173150D02*
X43012D01*
X31988Y166850D02*
X43012D01*
X31988D02*
Y173150D01*
X43012Y166850D02*
Y173150D01*
X118500Y149031D02*
Y152969D01*
X116532Y151000D02*
X120468D01*
X112988Y154150D02*
X124012D01*
X112988Y147850D02*
X124012D01*
X112988D02*
Y154150D01*
X124012Y147850D02*
Y154150D01*
X151500Y165032D02*
Y168968D01*
X149531Y167000D02*
X153469D01*
X145988Y163850D02*
X157012D01*
X145988Y170150D02*
X157012D01*
Y163850D02*
Y170150D01*
X145988Y163850D02*
Y170150D01*
X125012Y51850D02*
Y58150D01*
X113988Y51850D02*
Y58150D01*
Y51850D02*
X125012D01*
X113988Y58150D02*
X125012D01*
X117532Y55000D02*
X121468D01*
X119500Y53031D02*
Y56968D01*
X125012Y65350D02*
Y71650D01*
X113988Y65350D02*
Y71650D01*
Y65350D02*
X125012D01*
X113988Y71650D02*
X125012D01*
X117532Y68500D02*
X121468D01*
X119500Y66531D02*
Y70468D01*
X142012Y42850D02*
Y49150D01*
X130988Y42850D02*
Y49150D01*
Y42850D02*
X142012D01*
X130988Y49150D02*
X142012D01*
X134531Y46000D02*
X138469D01*
X136500Y44032D02*
Y47969D01*
X158512Y42850D02*
Y49150D01*
X147488Y42850D02*
Y49150D01*
Y42850D02*
X158512D01*
X147488Y49150D02*
X158512D01*
X151031Y46000D02*
X154969D01*
X153000Y44032D02*
Y47969D01*
X174512Y42850D02*
Y49150D01*
X163488Y42850D02*
Y49150D01*
Y42850D02*
X174512D01*
X163488Y49150D02*
X174512D01*
X167032Y46000D02*
X170968D01*
X169000Y44032D02*
Y47969D01*
X122012Y111850D02*
Y118150D01*
X110988Y111850D02*
Y118150D01*
Y111850D02*
X122012D01*
X110988Y118150D02*
X122012D01*
X114532Y115000D02*
X118468D01*
X116500Y113031D02*
Y116969D01*
X174850Y169988D02*
X181150D01*
X174850Y181012D02*
X181150D01*
X174850Y169988D02*
Y181012D01*
X181150Y169988D02*
Y181012D01*
X178000Y173531D02*
Y177469D01*
X176031Y175500D02*
X179969D01*
X187350Y169988D02*
X193650D01*
X187350Y181012D02*
X193650D01*
X187350Y169988D02*
Y181012D01*
X193650Y169988D02*
Y181012D01*
X190500Y173531D02*
Y177469D01*
X188531Y175500D02*
X192469D01*
X243350Y138512D02*
X249650D01*
X243350Y127488D02*
X249650D01*
Y138512D01*
X243350Y127488D02*
Y138512D01*
X246500Y131032D02*
Y134968D01*
X244531Y133000D02*
X248468D01*
X250850Y138697D02*
X257150D01*
X250850Y127673D02*
X257150D01*
Y138697D01*
X250850Y127673D02*
Y138697D01*
X254000Y131217D02*
Y135153D01*
X252031Y133185D02*
X255968D01*
X242350Y119512D02*
X248650D01*
X242350Y108488D02*
X248650D01*
Y119512D01*
X242350Y108488D02*
Y119512D01*
X245500Y112031D02*
Y115969D01*
X243531Y114000D02*
X247468D01*
X251850Y105012D02*
X258150D01*
X251850Y93988D02*
X258150D01*
Y105012D01*
X251850Y93988D02*
Y105012D01*
X255000Y97531D02*
Y101469D01*
X253031Y99500D02*
X256968D01*
X251350Y89374D02*
X257650D01*
X251350Y78350D02*
X257650D01*
Y89374D01*
X251350Y78350D02*
Y89374D01*
X254500Y81894D02*
Y85831D01*
X252532Y83862D02*
X256469D01*
X261055Y89512D02*
X267354D01*
X261055Y78488D02*
X267354D01*
Y89512D01*
X261055Y78488D02*
Y89512D01*
X264205Y82032D02*
Y85969D01*
X262236Y84000D02*
X266173D01*
X245350Y66512D02*
X251650D01*
X245350Y55488D02*
X251650D01*
Y66512D01*
X245350Y55488D02*
Y66512D01*
X248500Y59031D02*
Y62968D01*
X246532Y61000D02*
X250468D01*
X255350Y66512D02*
X261650D01*
X255350Y55488D02*
X261650D01*
Y66512D01*
X255350Y55488D02*
Y66512D01*
X258500Y59031D02*
Y62968D01*
X256532Y61000D02*
X260469D01*
X215988Y36634D02*
Y42933D01*
X227012Y36634D02*
Y42933D01*
X215988D02*
X227012D01*
X215988Y36634D02*
X227012D01*
X219531Y39783D02*
X223468D01*
X221500Y37815D02*
Y41752D01*
X195988Y38350D02*
Y44650D01*
X207012Y38350D02*
Y44650D01*
X195988D02*
X207012D01*
X195988Y38350D02*
X207012D01*
X199531Y41500D02*
X203468D01*
X201500Y39531D02*
Y43468D01*
X219350Y43012D02*
X225650D01*
X219350Y31988D02*
X225650D01*
X219350D02*
Y43012D01*
X225650Y31988D02*
Y43012D01*
X222500Y35531D02*
Y39469D01*
X220532Y37500D02*
X224468D01*
X50285Y138697D02*
X56585D01*
X50285Y127673D02*
X56585D01*
X50285D02*
Y138697D01*
X56585Y127673D02*
Y138697D01*
X53435Y131217D02*
Y135153D01*
X51467Y133185D02*
X55404D01*
X74350Y85488D02*
X80650D01*
X74350Y96512D02*
X80650D01*
Y85488D02*
Y96512D01*
X74350Y85488D02*
Y96512D01*
X77500Y89031D02*
Y92968D01*
X75532Y91000D02*
X79469D01*
D62*
X131063Y53063D02*
Y160937D01*
X238937Y53063D02*
Y160937D01*
X131063Y53063D02*
X238937D01*
X131063Y160937D02*
X238937D01*
M02*
