G04 Layer_Color=65535*
%FSLAX25Y25*%
%MOIN*%
G70*
G01*
G75*
%ADD24C,0.00800*%
%ADD25C,0.01000*%
%ADD40C,0.00984*%
%ADD41C,0.02362*%
%ADD42C,0.00787*%
%ADD43C,0.00700*%
%ADD44C,0.00500*%
D24*
X248500Y197500D02*
X250166D01*
X249333D01*
Y202498D01*
X248500Y201665D01*
X307832Y202498D02*
X304500D01*
Y199999D01*
X306166Y200832D01*
X306999D01*
X307832Y199999D01*
Y198333D01*
X306999Y197500D01*
X305333D01*
X304500Y198333D01*
Y207500D02*
X306166D01*
X305333D01*
Y212498D01*
X304500Y211665D01*
X308665D02*
X309498Y212498D01*
X311164D01*
X311998Y211665D01*
Y208333D01*
X311164Y207500D01*
X309498D01*
X308665Y208333D01*
Y211665D01*
X251832Y212498D02*
X250166Y211665D01*
X248500Y209999D01*
Y208333D01*
X249333Y207500D01*
X250999D01*
X251832Y208333D01*
Y209166D01*
X250999Y209999D01*
X248500D01*
X2000Y191165D02*
X2833Y191998D01*
X4499D01*
X5332Y191165D01*
Y190332D01*
X4499Y189499D01*
X3666D01*
X4499D01*
X5332Y188666D01*
Y187833D01*
X4499Y187000D01*
X2833D01*
X2000Y187833D01*
X6998Y191165D02*
X7831Y191998D01*
X9498D01*
X10331Y191165D01*
Y187833D01*
X9498Y187000D01*
X7831D01*
X6998Y187833D01*
Y191165D01*
X1500Y197500D02*
X3166D01*
X2333D01*
Y202498D01*
X1500Y201665D01*
X5665D02*
X6498Y202498D01*
X8164D01*
X8998Y201665D01*
Y198333D01*
X8164Y197500D01*
X6498D01*
X5665Y198333D01*
Y201665D01*
X117832Y187500D02*
X114500D01*
X117832Y190832D01*
Y191665D01*
X116999Y192498D01*
X115333D01*
X114500Y191665D01*
X119498Y187500D02*
X121165D01*
X120331D01*
Y192498D01*
X119498Y191665D01*
X115500Y199338D02*
X117166D01*
X116333D01*
Y204336D01*
X115500Y203503D01*
X5000Y18000D02*
X6666D01*
X5833D01*
Y22998D01*
X5000Y22165D01*
X9165Y18000D02*
X10831D01*
X9998D01*
Y22998D01*
X9165Y22165D01*
X4500Y32165D02*
X5333Y32998D01*
X6999D01*
X7832Y32165D01*
Y31332D01*
X6999Y30499D01*
X6166D01*
X6999D01*
X7832Y29666D01*
Y28833D01*
X6999Y28000D01*
X5333D01*
X4500Y28833D01*
X9498Y28000D02*
X11164D01*
X10331D01*
Y32998D01*
X9498Y32165D01*
X118332Y18000D02*
X115000D01*
X118332Y21332D01*
Y22165D01*
X117499Y22998D01*
X115833D01*
X115000Y22165D01*
X119998D02*
X120831Y22998D01*
X122498D01*
X123331Y22165D01*
Y18833D01*
X122498Y18000D01*
X120831D01*
X119998Y18833D01*
Y22165D01*
X117499Y27500D02*
Y32498D01*
X115000Y29999D01*
X118332D01*
X119998Y31665D02*
X120831Y32498D01*
X122498D01*
X123331Y31665D01*
Y28333D01*
X122498Y27500D01*
X120831D01*
X119998Y28333D01*
Y31665D01*
X349450Y141000D02*
X351116D01*
X350283D01*
Y145998D01*
X349450Y145165D01*
X350282Y205498D02*
X346950D01*
Y202999D01*
X348616Y203832D01*
X349449D01*
X350282Y202999D01*
Y201333D01*
X349449Y200500D01*
X347783D01*
X346950Y201333D01*
X333450Y200000D02*
X335116D01*
X334283D01*
Y204998D01*
X333450Y204165D01*
X337615D02*
X338448Y204998D01*
X340114D01*
X340947Y204165D01*
Y200833D01*
X340114Y200000D01*
X338448D01*
X337615Y200833D01*
Y204165D01*
X341282Y145498D02*
X339616Y144665D01*
X337950Y142999D01*
Y141333D01*
X338783Y140500D01*
X340449D01*
X341282Y141333D01*
Y142166D01*
X340449Y142999D01*
X337950D01*
X386500Y49333D02*
X387333Y48500D01*
X388999D01*
X389832Y49333D01*
Y52665D01*
X388999Y53498D01*
X387333D01*
X386500Y52665D01*
Y51832D01*
X387333Y50999D01*
X389832D01*
X398000Y48500D02*
X399666D01*
X398833D01*
Y53498D01*
X398000Y52665D01*
X396000Y143165D02*
X396833Y143998D01*
X398499D01*
X399332Y143165D01*
Y142332D01*
X398499Y141499D01*
X399332Y140666D01*
Y139833D01*
X398499Y139000D01*
X396833D01*
X396000Y139833D01*
Y140666D01*
X396833Y141499D01*
X396000Y142332D01*
Y143165D01*
X396833Y141499D02*
X398499D01*
X383100Y139000D02*
X384766D01*
X383933D01*
Y143998D01*
X383100Y143165D01*
X390598Y143998D02*
X388931Y143165D01*
X387265Y141499D01*
Y139833D01*
X388098Y139000D01*
X389764D01*
X390598Y139833D01*
Y140666D01*
X389764Y141499D01*
X387265D01*
X180500Y198000D02*
X182166D01*
X181333D01*
Y202998D01*
X180500Y202165D01*
X239832Y202998D02*
X236500D01*
Y200499D01*
X238166Y201332D01*
X238999D01*
X239832Y200499D01*
Y198833D01*
X238999Y198000D01*
X237333D01*
X236500Y198833D01*
Y208000D02*
X238166D01*
X237333D01*
Y212998D01*
X236500Y212165D01*
X240665D02*
X241498Y212998D01*
X243164D01*
X243998Y212165D01*
Y208833D01*
X243164Y208000D01*
X241498D01*
X240665Y208833D01*
Y212165D01*
X183832Y212998D02*
X182166Y212165D01*
X180500Y210499D01*
Y208833D01*
X181333Y208000D01*
X182999D01*
X183832Y208833D01*
Y209666D01*
X182999Y210499D01*
X180500D01*
D25*
X394186Y25764D02*
G03*
X394186Y25764I-10832J0D01*
G01*
X362488Y5843D02*
Y45843D01*
X403827Y5843D02*
Y45843D01*
X362488D02*
X403827D01*
X362488Y5843D02*
X403827D01*
X425130Y25291D02*
X530484D01*
X425130Y4315D02*
Y108291D01*
Y4315D02*
X530484D01*
X455012Y134000D02*
X500602D01*
X530484Y108291D01*
Y108307D01*
Y4315D02*
Y108291D01*
X425130D02*
X455012Y134000D01*
X-8951Y243048D02*
X-10951D01*
X-9951D01*
Y238050D01*
X-10951Y237050D01*
X-11950D01*
X-12950Y238050D01*
X-2953Y237050D02*
X-6952D01*
X-2953Y241049D01*
Y242048D01*
X-3953Y243048D01*
X-5952D01*
X-6952Y242048D01*
X-7951Y26048D02*
X-9951D01*
X-8951D01*
Y21050D01*
X-9951Y20050D01*
X-10950D01*
X-11950Y21050D01*
X-5952Y25048D02*
X-4952Y26048D01*
X-2953D01*
X-1953Y25048D01*
Y24049D01*
X-2953Y23049D01*
X-3953D01*
X-2953D01*
X-1953Y22049D01*
Y21050D01*
X-2953Y20050D01*
X-4952D01*
X-5952Y21050D01*
X521549Y242548D02*
X519549D01*
X520549D01*
Y237550D01*
X519549Y236550D01*
X518550D01*
X517550Y237550D01*
X526547Y236550D02*
Y242548D01*
X523548Y239549D01*
X527547D01*
X252603Y220937D02*
Y226935D01*
X255602D01*
X256602Y225936D01*
Y223936D01*
X255602Y222937D01*
X252603D01*
X258601Y225936D02*
X259601Y226935D01*
X261600D01*
X262600Y225936D01*
Y224936D01*
X261600Y223936D01*
X260600D01*
X261600D01*
X262600Y222937D01*
Y221937D01*
X261600Y220937D01*
X259601D01*
X258601Y221937D01*
X452900Y189200D02*
Y195198D01*
X455899D01*
X456899Y194198D01*
Y192199D01*
X455899Y191199D01*
X452900D01*
X454899D02*
X456899Y189200D01*
X458898D02*
X460897D01*
X459898D01*
Y195198D01*
X458898Y194198D01*
X463896D02*
X464896Y195198D01*
X466895D01*
X467895Y194198D01*
Y190200D01*
X466895Y189200D01*
X464896D01*
X463896Y190200D01*
Y194198D01*
X453400Y160023D02*
Y166021D01*
X456399D01*
X457399Y165021D01*
Y163022D01*
X456399Y162022D01*
X453400D01*
X455399D02*
X457399Y160023D01*
X459398Y161022D02*
X460398Y160023D01*
X462397D01*
X463397Y161022D01*
Y165021D01*
X462397Y166021D01*
X460398D01*
X459398Y165021D01*
Y164022D01*
X460398Y163022D01*
X463397D01*
X476650Y197548D02*
Y191550D01*
X479649D01*
X480649Y192550D01*
Y196548D01*
X479649Y197548D01*
X476650D01*
X486647Y191550D02*
X482648D01*
X486647Y195549D01*
Y196548D01*
X485647Y197548D01*
X483648D01*
X482648Y196548D01*
X476200Y167913D02*
Y161915D01*
X479199D01*
X480199Y162915D01*
Y166913D01*
X479199Y167913D01*
X476200D01*
X482198Y161915D02*
X484197D01*
X483198D01*
Y167913D01*
X482198Y166913D01*
X425500Y136230D02*
Y131232D01*
X426500Y130232D01*
X428499D01*
X429499Y131232D01*
Y136230D01*
X431498Y135231D02*
X432498Y136230D01*
X434497D01*
X435497Y135231D01*
Y134231D01*
X434497Y133231D01*
X433497D01*
X434497D01*
X435497Y132232D01*
Y131232D01*
X434497Y130232D01*
X432498D01*
X431498Y131232D01*
X87000Y156498D02*
Y151500D01*
X88000Y150500D01*
X89999D01*
X90999Y151500D01*
Y156498D01*
X92998Y150500D02*
X94997D01*
X93998D01*
Y156498D01*
X92998Y155498D01*
X3400Y39900D02*
Y45898D01*
X6399D01*
X7399Y44898D01*
Y42899D01*
X6399Y41899D01*
X3400D01*
X9398Y38900D02*
X13397D01*
X19395Y45898D02*
X17395D01*
X18395D01*
Y40900D01*
X17395Y39900D01*
X16396D01*
X15396Y40900D01*
X24393Y39900D02*
Y45898D01*
X21394Y42899D01*
X25393D01*
X4000Y208000D02*
Y213998D01*
X6999D01*
X7999Y212998D01*
Y210999D01*
X6999Y209999D01*
X4000D01*
X9998Y207000D02*
X13997D01*
X19995Y213998D02*
X17996D01*
X18995D01*
Y209000D01*
X17996Y208000D01*
X16996D01*
X15996Y209000D01*
X21994Y208000D02*
X23993D01*
X22994D01*
Y213998D01*
X21994Y212998D01*
X416096Y201898D02*
X415096Y202898D01*
X413097D01*
X412097Y201898D01*
Y197900D01*
X413097Y196900D01*
X415096D01*
X416096Y197900D01*
X418095Y201898D02*
X419095Y202898D01*
X421094D01*
X422094Y201898D01*
Y200899D01*
X421094Y199899D01*
X420094D01*
X421094D01*
X422094Y198899D01*
Y197900D01*
X421094Y196900D01*
X419095D01*
X418095Y197900D01*
X394549Y201898D02*
X393549Y202898D01*
X391549D01*
X390550Y201898D01*
Y197900D01*
X391549Y196900D01*
X393549D01*
X394549Y197900D01*
X400547Y196900D02*
X396548D01*
X400547Y200899D01*
Y201898D01*
X399547Y202898D01*
X397548D01*
X396548Y201898D01*
X308950Y148953D02*
Y152951D01*
X310949Y154951D01*
X312948Y152951D01*
Y148953D01*
Y151952D01*
X308950D01*
X314948Y154951D02*
Y148953D01*
X317947D01*
X318947Y149952D01*
Y153951D01*
X317947Y154951D01*
X314948D01*
X324945Y153951D02*
X323945Y154951D01*
X321946D01*
X320946Y153951D01*
Y149952D01*
X321946Y148953D01*
X323945D01*
X324945Y149952D01*
X372549Y201398D02*
X371549Y202398D01*
X369549D01*
X368550Y201398D01*
Y197400D01*
X369549Y196400D01*
X371549D01*
X372549Y197400D01*
X374548Y196400D02*
X376547D01*
X375548D01*
Y202398D01*
X374548Y201398D01*
X407500Y127594D02*
Y133592D01*
X410499D01*
X411499Y132593D01*
Y130594D01*
X410499Y129594D01*
X407500D01*
X417497Y133592D02*
X413498D01*
Y130594D01*
X415497Y131593D01*
X416497D01*
X417497Y130594D01*
Y128594D01*
X416497Y127594D01*
X414498D01*
X413498Y128594D01*
X334050Y209800D02*
Y215798D01*
X337049D01*
X338049Y214798D01*
Y212799D01*
X337049Y211799D01*
X334050D01*
X343047Y209800D02*
Y215798D01*
X340048Y212799D01*
X344046D01*
X185774Y220500D02*
Y226498D01*
X188773D01*
X189773Y225498D01*
Y223499D01*
X188773Y222499D01*
X185774D01*
X195771Y220500D02*
X191772D01*
X195771Y224499D01*
Y225498D01*
X194771Y226498D01*
X192772D01*
X191772Y225498D01*
X152500Y212500D02*
Y218498D01*
X155499D01*
X156499Y217498D01*
Y215499D01*
X155499Y214499D01*
X152500D01*
X158498Y212500D02*
X160497D01*
X159498D01*
Y218498D01*
X158498Y217498D01*
X223999Y31000D02*
Y34998D01*
X222999Y35998D01*
X221000D01*
X220000Y34998D01*
Y31000D01*
X221000Y30000D01*
X222999D01*
X221999Y31999D02*
X223999Y30000D01*
X222999D02*
X223999Y31000D01*
X225998Y30000D02*
X227997D01*
X226998D01*
Y35998D01*
X225998Y34998D01*
X302499Y105398D02*
X301499Y106398D01*
X299500D01*
X298500Y105398D01*
Y104399D01*
X299500Y103399D01*
X301499D01*
X302499Y102399D01*
Y101400D01*
X301499Y100400D01*
X299500D01*
X298500Y101400D01*
X308497Y100400D02*
X304498D01*
X308497Y104399D01*
Y105398D01*
X307497Y106398D01*
X305498D01*
X304498Y105398D01*
X158500Y172998D02*
Y168000D01*
X159500Y167000D01*
X161499D01*
X162499Y168000D01*
Y172998D01*
X168497Y167000D02*
X164498D01*
X168497Y170999D01*
Y171998D01*
X167497Y172998D01*
X165498D01*
X164498Y171998D01*
X165100Y36400D02*
Y42398D01*
X168099D01*
X169099Y41398D01*
Y39399D01*
X168099Y38399D01*
X165100D01*
X175097Y42398D02*
X173097Y41398D01*
X171098Y39399D01*
Y37400D01*
X172098Y36400D01*
X174097D01*
X175097Y37400D01*
Y38399D01*
X174097Y39399D01*
X171098D01*
X366999Y54298D02*
X365999Y55298D01*
X364000D01*
X363000Y54298D01*
Y53299D01*
X364000Y52299D01*
X365999D01*
X366999Y51299D01*
Y50300D01*
X365999Y49300D01*
X364000D01*
X363000Y50300D01*
X368998Y49300D02*
X370997D01*
X369998D01*
Y55298D01*
X368998Y54298D01*
X280551Y163161D02*
X276552Y159162D01*
Y163161D02*
X280551Y159162D01*
X278551Y163161D02*
Y159162D01*
X276552Y161162D02*
X280551D01*
D40*
X-7508Y233071D02*
G03*
X-7508Y233071I-492J0D01*
G01*
X-6508Y16071D02*
G03*
X-6508Y16071I-492J0D01*
G01*
X522992Y232571D02*
G03*
X522992Y232571I-492J0D01*
G01*
X84370Y143323D02*
G03*
X84370Y143323I-492J0D01*
G01*
X301492Y93618D02*
G03*
X301492Y93618I-492J0D01*
G01*
D41*
X79547Y134366D02*
G03*
X79547Y134366I-1181J0D01*
G01*
X310685Y93067D02*
G03*
X310685Y93067I-1181J0D01*
G01*
D42*
X313500Y97004D02*
G03*
X318500Y97004I2500J0D01*
G01*
X-13512Y219488D02*
Y230512D01*
X-13512Y219488D02*
X-2488D01*
Y230512D01*
X-13512Y230512D02*
X-2488D01*
X-12512Y2488D02*
Y13512D01*
X-12512Y2488D02*
X-1488D01*
Y13512D01*
X-12512Y13512D02*
X-1488D01*
X516988Y218988D02*
Y230012D01*
X516988Y218988D02*
X528012D01*
Y230012D01*
X516988Y230012D02*
X528012D01*
X253500Y214500D02*
X303500D01*
Y194500D02*
Y214500D01*
X253500Y194500D02*
X303500D01*
X253500D02*
Y214500D01*
X458425Y175776D02*
X461575D01*
X458425Y185224D02*
X461575D01*
X458925Y146598D02*
X462075D01*
X458925Y156047D02*
X462075D01*
X476067Y174807D02*
X483547D01*
X476067Y188193D02*
X483547D01*
X476067Y174807D02*
Y188193D01*
X498114Y176382D02*
Y186618D01*
X489453Y174807D02*
X496146D01*
X496146Y188193D02*
X498114Y186618D01*
X496146Y174807D02*
X498114Y176382D01*
X489453Y188193D02*
X496146D01*
X475567Y145122D02*
X483047D01*
X475567Y158508D02*
X483047D01*
X475567Y145122D02*
Y158508D01*
X497614Y146697D02*
Y156933D01*
X488953Y145122D02*
X495646D01*
X495646Y158508D02*
X497614Y156933D01*
X495646Y145122D02*
X497614Y146697D01*
X488953Y158508D02*
X495646D01*
X164000Y7000D02*
X234000D01*
Y17000D01*
X164000D02*
X234000D01*
X164000Y7000D02*
Y17000D01*
X325210Y123740D02*
Y124626D01*
X324324Y123740D02*
X325210D01*
X324324Y141260D02*
X325210D01*
Y140374D02*
Y141260D01*
X307690Y140374D02*
Y141260D01*
X308576D01*
X307690Y123740D02*
X310151D01*
X307690D02*
Y126201D01*
X12500Y185500D02*
X112500D01*
Y205500D01*
X12500D02*
X112500D01*
X12500Y185500D02*
Y205500D01*
X60000Y162638D02*
Y167362D01*
X12500Y15500D02*
X112500D01*
Y35500D01*
X12500D02*
X112500D01*
X12500Y15500D02*
Y35500D01*
X411497Y148500D02*
X426497D01*
X411497D02*
Y193500D01*
X426497D01*
Y148500D02*
Y193500D01*
X389950Y148500D02*
X404950D01*
X389950D02*
Y193500D01*
X404950D01*
Y148500D02*
Y193500D01*
X13724Y119925D02*
Y123075D01*
X4276Y119925D02*
Y123075D01*
X382950Y148000D02*
Y193000D01*
X367950D02*
X382950D01*
X367950Y148000D02*
Y193000D01*
Y148000D02*
X382950D01*
X333450Y147500D02*
Y197500D01*
X353450D01*
Y147500D02*
Y197500D01*
X333450Y147500D02*
X353450D01*
X32697Y138303D02*
X82303D01*
X32697Y88697D02*
X82303D01*
Y138303D01*
X32697Y88697D02*
Y138303D01*
X329224Y40925D02*
Y44075D01*
X319776Y40925D02*
Y44075D01*
X311224Y40925D02*
Y44075D01*
X301776Y40925D02*
Y44075D01*
X305567Y59996D02*
Y97004D01*
X326433Y59996D02*
Y97004D01*
X305567D02*
X313500D01*
X318500D02*
X326433D01*
X305567Y59996D02*
X326433D01*
X382500Y56000D02*
X402500D01*
X382500Y136000D02*
X402500D01*
Y56000D02*
Y136000D01*
X382500Y56000D02*
Y136000D01*
X303425Y22224D02*
X306575D01*
X303425Y12776D02*
X306575D01*
X185500Y215000D02*
X235500D01*
Y195000D02*
Y215000D01*
X185500Y195000D02*
X235500D01*
X185500D02*
Y215000D01*
X174000Y194500D02*
Y214500D01*
X164000D02*
X174000D01*
X164000Y194500D02*
Y214500D01*
Y194500D02*
X174000D01*
X230134Y28748D02*
X275016D01*
Y47252D01*
X230134D02*
X275016D01*
X230134Y28748D02*
Y47252D01*
X260425Y8276D02*
X263575D01*
X260425Y17724D02*
X263575D01*
X164500Y23000D02*
X184500D01*
Y33000D01*
X164500D02*
X184500D01*
X164500Y23000D02*
Y33000D01*
X270094Y157032D02*
X274031D01*
Y153094D02*
Y157032D01*
Y60969D02*
Y62937D01*
X272063Y60969D02*
X274031D01*
X177969D02*
X179937D01*
X177969D02*
Y62937D01*
Y155063D02*
Y157032D01*
X179937D01*
X348425Y60776D02*
X351575D01*
X348425Y70224D02*
X351575D01*
X348925Y78953D02*
X352075D01*
X348925Y88402D02*
X352075D01*
X348925Y104445D02*
X352075D01*
X348925Y94996D02*
X352075D01*
D43*
X442533Y219994D02*
X441949Y220578D01*
X440783D01*
X440200Y219994D01*
Y217662D01*
X440783Y217079D01*
X441949D01*
X442533Y217662D01*
Y218828D01*
X441366D01*
X444282Y219411D02*
X445448D01*
X446032Y218828D01*
Y217079D01*
X444282D01*
X443699Y217662D01*
X444282Y218245D01*
X446032D01*
X447781Y219994D02*
Y219411D01*
X447198D01*
X448364D01*
X447781D01*
Y217662D01*
X448364Y217079D01*
X450697D02*
X451863D01*
X452446Y217662D01*
Y218828D01*
X451863Y219411D01*
X450697D01*
X450113Y218828D01*
Y217662D01*
X450697Y217079D01*
X453612Y219411D02*
Y217079D01*
Y218245D01*
X454195Y218828D01*
X454779Y219411D01*
X455362D01*
X462943Y219994D02*
X462360Y220578D01*
X461193D01*
X460610Y219994D01*
Y219411D01*
X461193Y218828D01*
X462360D01*
X462943Y218245D01*
Y217662D01*
X462360Y217079D01*
X461193D01*
X460610Y217662D01*
X464692Y219994D02*
Y219411D01*
X464109D01*
X465275D01*
X464692D01*
Y217662D01*
X465275Y217079D01*
X467025Y219411D02*
Y217079D01*
Y218245D01*
X467608Y218828D01*
X468191Y219411D01*
X468774D01*
X472273Y217079D02*
X471107D01*
X470524Y217662D01*
Y218828D01*
X471107Y219411D01*
X472273D01*
X472856Y218828D01*
Y218245D01*
X470524D01*
X474606Y219411D02*
X475772D01*
X476355Y218828D01*
Y217079D01*
X474606D01*
X474022Y217662D01*
X474606Y218245D01*
X476355D01*
X477521Y217079D02*
Y219411D01*
X478104D01*
X478688Y218828D01*
Y217079D01*
Y218828D01*
X479271Y219411D01*
X479854Y218828D01*
Y217079D01*
X484519Y220578D02*
X486852D01*
X485685D01*
Y217079D01*
X488018Y219411D02*
X490350Y217079D01*
X489184Y218245D01*
X490350Y219411D01*
X488018Y217079D01*
X495016Y220578D02*
Y218245D01*
X496182Y217079D01*
X497348Y218245D01*
Y220578D01*
X500847Y217079D02*
X498515D01*
X500847Y219411D01*
Y219994D01*
X500264Y220578D01*
X499098D01*
X498515Y219994D01*
X502013Y217079D02*
Y217662D01*
X502597D01*
Y217079D01*
X502013D01*
X504929Y219994D02*
X505512Y220578D01*
X506678D01*
X507262Y219994D01*
Y217662D01*
X506678Y217079D01*
X505512D01*
X504929Y217662D01*
Y219994D01*
X440200Y214699D02*
Y211200D01*
Y212366D01*
X442533Y214699D01*
X440783Y212949D01*
X442533Y211200D01*
X444282D02*
X445448D01*
X446032Y211783D01*
Y212949D01*
X445448Y213533D01*
X444282D01*
X443699Y212949D01*
Y211783D01*
X444282Y211200D01*
X447198D02*
X448364D01*
X447781D01*
Y214699D01*
X447198D01*
X451863Y211200D02*
X450697D01*
X450113Y211783D01*
Y212949D01*
X450697Y213533D01*
X451863D01*
X452446Y212949D01*
Y212366D01*
X450113D01*
X457694Y213533D02*
X458861D01*
X459444Y212949D01*
Y211200D01*
X457694D01*
X457111Y211783D01*
X457694Y212366D01*
X459444D01*
X460610Y211200D02*
Y213533D01*
X462360D01*
X462943Y212949D01*
Y211200D01*
X466441Y214699D02*
Y211200D01*
X464692D01*
X464109Y211783D01*
Y212949D01*
X464692Y213533D01*
X466441D01*
X471107Y211200D02*
Y214699D01*
X472273Y213533D01*
X473439Y214699D01*
Y211200D01*
X475189Y213533D02*
X476355D01*
X476938Y212949D01*
Y211200D01*
X475189D01*
X474606Y211783D01*
X475189Y212366D01*
X476938D01*
X478104Y213533D02*
Y211200D01*
Y212366D01*
X478688Y212949D01*
X479271Y213533D01*
X479854D01*
X481603Y211200D02*
Y214699D01*
Y212366D02*
X483353Y213533D01*
X481603Y212366D02*
X483353Y211200D01*
X302000Y26500D02*
Y29999D01*
X303749D01*
X304333Y29416D01*
Y28249D01*
X303749Y27666D01*
X302000D01*
X303166D02*
X304333Y26500D01*
X307831D02*
X305499D01*
X307831Y28833D01*
Y29416D01*
X307248Y29999D01*
X306082D01*
X305499Y29416D01*
X7000Y132500D02*
Y135999D01*
X8749D01*
X9333Y135416D01*
Y134249D01*
X8749Y133666D01*
X7000D01*
X8166D02*
X9333Y132500D01*
X10499D02*
X11665D01*
X11082D01*
Y135999D01*
X10499Y135416D01*
X69000Y166999D02*
Y163500D01*
X71333D01*
X72499D02*
X73665D01*
X73082D01*
Y166999D01*
X72499Y166416D01*
X184833Y178916D02*
X184249Y179499D01*
X183083D01*
X182500Y178916D01*
Y176583D01*
X183083Y176000D01*
X184249D01*
X184833Y176583D01*
X187748Y176000D02*
Y179499D01*
X185999Y177749D01*
X188331D01*
X191830Y179499D02*
X190664Y178916D01*
X189498Y177749D01*
Y176583D01*
X190081Y176000D01*
X191247D01*
X191830Y176583D01*
Y177166D01*
X191247Y177749D01*
X189498D01*
X151833Y158235D02*
X151249Y158818D01*
X150083D01*
X149500Y158235D01*
Y155903D01*
X150083Y155319D01*
X151249D01*
X151833Y155903D01*
X154748Y155319D02*
Y158818D01*
X152999Y157069D01*
X155331D01*
X158830Y158818D02*
X156498D01*
Y157069D01*
X157664Y157652D01*
X158247D01*
X158830Y157069D01*
Y155903D01*
X158247Y155319D01*
X157081D01*
X156498Y155903D01*
X126333Y126416D02*
X125749Y126999D01*
X124583D01*
X124000Y126416D01*
Y124083D01*
X124583Y123500D01*
X125749D01*
X126333Y124083D01*
X129248Y123500D02*
Y126999D01*
X127499Y125249D01*
X129831D01*
X130998Y126416D02*
X131581Y126999D01*
X132747D01*
X133330Y126416D01*
Y125833D01*
X132747Y125249D01*
X132164D01*
X132747D01*
X133330Y124666D01*
Y124083D01*
X132747Y123500D01*
X131581D01*
X130998Y124083D01*
X246833Y190916D02*
X246249Y191499D01*
X245083D01*
X244500Y190916D01*
Y188583D01*
X245083Y188000D01*
X246249D01*
X246833Y188583D01*
X249748Y188000D02*
Y191499D01*
X247999Y189749D01*
X250331D01*
X251498Y190916D02*
X252081Y191499D01*
X253247D01*
X253830Y190916D01*
Y188583D01*
X253247Y188000D01*
X252081D01*
X251498Y188583D01*
Y190916D01*
X126833Y107416D02*
X126249Y107999D01*
X125083D01*
X124500Y107416D01*
Y105083D01*
X125083Y104500D01*
X126249D01*
X126833Y105083D01*
X127999Y107416D02*
X128582Y107999D01*
X129748D01*
X130331Y107416D01*
Y106833D01*
X129748Y106249D01*
X129165D01*
X129748D01*
X130331Y105666D01*
Y105083D01*
X129748Y104500D01*
X128582D01*
X127999Y105083D01*
X133830Y107999D02*
X131498D01*
Y106249D01*
X132664Y106833D01*
X133247D01*
X133830Y106249D01*
Y105083D01*
X133247Y104500D01*
X132081D01*
X131498Y105083D01*
X193333Y50825D02*
X192749Y51408D01*
X191583D01*
X191000Y50825D01*
Y48493D01*
X191583Y47909D01*
X192749D01*
X193333Y48493D01*
X194499Y50825D02*
X195082Y51408D01*
X196248D01*
X196831Y50825D01*
Y50242D01*
X196248Y49659D01*
X195665D01*
X196248D01*
X196831Y49076D01*
Y48493D01*
X196248Y47909D01*
X195082D01*
X194499Y48493D01*
X200330Y47909D02*
X197998D01*
X200330Y50242D01*
Y50825D01*
X199747Y51408D01*
X198581D01*
X197998Y50825D01*
X208833Y50416D02*
X208249Y50999D01*
X207083D01*
X206500Y50416D01*
Y48083D01*
X207083Y47500D01*
X208249D01*
X208833Y48083D01*
X209999Y50416D02*
X210582Y50999D01*
X211748D01*
X212331Y50416D01*
Y49833D01*
X211748Y49249D01*
X211165D01*
X211748D01*
X212331Y48666D01*
Y48083D01*
X211748Y47500D01*
X210582D01*
X209999Y48083D01*
X213498Y47500D02*
X214664D01*
X214081D01*
Y50999D01*
X213498Y50416D01*
X285833Y71416D02*
X285249Y71999D01*
X284083D01*
X283500Y71416D01*
Y69083D01*
X284083Y68500D01*
X285249D01*
X285833Y69083D01*
X289331Y68500D02*
X286999D01*
X289331Y70833D01*
Y71416D01*
X288748Y71999D01*
X287582D01*
X286999Y71416D01*
X292830Y71999D02*
X291664Y71416D01*
X290498Y70249D01*
Y69083D01*
X291081Y68500D01*
X292247D01*
X292830Y69083D01*
Y69666D01*
X292247Y70249D01*
X290498D01*
X126333Y136916D02*
X125749Y137499D01*
X124583D01*
X124000Y136916D01*
Y134583D01*
X124583Y134000D01*
X125749D01*
X126333Y134583D01*
X129831Y134000D02*
X127499D01*
X129831Y136333D01*
Y136916D01*
X129248Y137499D01*
X128082D01*
X127499Y136916D01*
X130998D02*
X131581Y137499D01*
X132747D01*
X133330Y136916D01*
Y136333D01*
X132747Y135749D01*
X132164D01*
X132747D01*
X133330Y135166D01*
Y134583D01*
X132747Y134000D01*
X131581D01*
X130998Y134583D01*
X177333Y50825D02*
X176749Y51408D01*
X175583D01*
X175000Y50825D01*
Y48493D01*
X175583Y47909D01*
X176749D01*
X177333Y48493D01*
X180831Y47909D02*
X178499D01*
X180831Y50242D01*
Y50825D01*
X180248Y51408D01*
X179082D01*
X178499Y50825D01*
X184330Y47909D02*
X181998D01*
X184330Y50242D01*
Y50825D01*
X183747Y51408D01*
X182581D01*
X181998Y50825D01*
X145833Y73916D02*
X145249Y74499D01*
X144083D01*
X143500Y73916D01*
Y71583D01*
X144083Y71000D01*
X145249D01*
X145833Y71583D01*
X149331Y71000D02*
X146999D01*
X149331Y73333D01*
Y73916D01*
X148748Y74499D01*
X147582D01*
X146999Y73916D01*
X150498Y71000D02*
X151664D01*
X151081D01*
Y74499D01*
X150498Y73916D01*
X144833Y63916D02*
X144249Y64499D01*
X143083D01*
X142500Y63916D01*
Y61583D01*
X143083Y61000D01*
X144249D01*
X144833Y61583D01*
X148331Y61000D02*
X145999D01*
X148331Y63333D01*
Y63916D01*
X147748Y64499D01*
X146582D01*
X145999Y63916D01*
X149498D02*
X150081Y64499D01*
X151247D01*
X151830Y63916D01*
Y61583D01*
X151247Y61000D01*
X150081D01*
X149498Y61583D01*
Y63916D01*
X257833Y190916D02*
X257249Y191499D01*
X256083D01*
X255500Y190916D01*
Y188583D01*
X256083Y188000D01*
X257249D01*
X257833Y188583D01*
X258999Y188000D02*
X260165D01*
X259582D01*
Y191499D01*
X258999Y190916D01*
X261915Y188583D02*
X262498Y188000D01*
X263664D01*
X264247Y188583D01*
Y190916D01*
X263664Y191499D01*
X262498D01*
X261915Y190916D01*
Y190333D01*
X262498Y189749D01*
X264247D01*
X127333Y98416D02*
X126749Y98999D01*
X125583D01*
X125000Y98416D01*
Y96083D01*
X125583Y95500D01*
X126749D01*
X127333Y96083D01*
X128499Y95500D02*
X129665D01*
X129082D01*
Y98999D01*
X128499Y98416D01*
X131415Y98999D02*
X133747D01*
Y98416D01*
X131415Y96083D01*
Y95500D01*
X126833Y116632D02*
X126249Y117215D01*
X125083D01*
X124500Y116632D01*
Y114300D01*
X125083Y113716D01*
X126249D01*
X126833Y114300D01*
X127999Y113716D02*
X129165D01*
X128582D01*
Y117215D01*
X127999Y116632D01*
X133247Y117215D02*
X132081Y116632D01*
X130915Y115466D01*
Y114300D01*
X131498Y113716D01*
X132664D01*
X133247Y114300D01*
Y114883D01*
X132664Y115466D01*
X130915D01*
X289833Y165916D02*
X289249Y166499D01*
X288083D01*
X287500Y165916D01*
Y163583D01*
X288083Y163000D01*
X289249D01*
X289833Y163583D01*
X290999Y163000D02*
X292165D01*
X291582D01*
Y166499D01*
X290999Y165916D01*
X293915D02*
X294498Y166499D01*
X295664D01*
X296247Y165916D01*
Y165333D01*
X295664Y164749D01*
X295081D01*
X295664D01*
X296247Y164166D01*
Y163583D01*
X295664Y163000D01*
X294498D01*
X293915Y163583D01*
X236833Y190916D02*
X236249Y191499D01*
X235083D01*
X234500Y190916D01*
Y188583D01*
X235083Y188000D01*
X236249D01*
X236833Y188583D01*
X237999Y188000D02*
X239165D01*
X238582D01*
Y191499D01*
X237999Y190916D01*
X240915Y188000D02*
X242081D01*
X241498D01*
Y191499D01*
X240915Y190916D01*
X126833Y90416D02*
X126249Y90999D01*
X125083D01*
X124500Y90416D01*
Y88083D01*
X125083Y87500D01*
X126249D01*
X126833Y88083D01*
X127999Y87500D02*
X129165D01*
X128582D01*
Y90999D01*
X127999Y90416D01*
X130915D02*
X131498Y90999D01*
X132664D01*
X133247Y90416D01*
Y88083D01*
X132664Y87500D01*
X131498D01*
X130915Y88083D01*
Y90416D01*
X26333Y170916D02*
X25749Y171499D01*
X24583D01*
X24000Y170916D01*
Y168583D01*
X24583Y168000D01*
X25749D01*
X26333Y168583D01*
X27499D02*
X28082Y168000D01*
X29248D01*
X29831Y168583D01*
Y170916D01*
X29248Y171499D01*
X28082D01*
X27499Y170916D01*
Y170333D01*
X28082Y169749D01*
X29831D01*
X26333Y157416D02*
X25749Y157999D01*
X24583D01*
X24000Y157416D01*
Y155083D01*
X24583Y154500D01*
X25749D01*
X26333Y155083D01*
X27499Y157416D02*
X28082Y157999D01*
X29248D01*
X29831Y157416D01*
Y156833D01*
X29248Y156249D01*
X29831Y155666D01*
Y155083D01*
X29248Y154500D01*
X28082D01*
X27499Y155083D01*
Y155666D01*
X28082Y156249D01*
X27499Y156833D01*
Y157416D01*
X28082Y156249D02*
X29248D01*
X14333Y102416D02*
X13749Y102999D01*
X12583D01*
X12000Y102416D01*
Y100083D01*
X12583Y99500D01*
X13749D01*
X14333Y100083D01*
X17831Y102999D02*
X16665Y102416D01*
X15499Y101249D01*
Y100083D01*
X16082Y99500D01*
X17248D01*
X17831Y100083D01*
Y100666D01*
X17248Y101249D01*
X15499D01*
X281333Y31916D02*
X280749Y32499D01*
X279583D01*
X279000Y31916D01*
Y29583D01*
X279583Y29000D01*
X280749D01*
X281333Y29583D01*
X284248Y29000D02*
Y32499D01*
X282499Y30749D01*
X284831D01*
X285998Y31916D02*
X286581Y32499D01*
X287747D01*
X288330Y31916D01*
Y31333D01*
X287747Y30749D01*
X288330Y30166D01*
Y29583D01*
X287747Y29000D01*
X286581D01*
X285998Y29583D01*
Y30166D01*
X286581Y30749D01*
X285998Y31333D01*
Y31916D01*
X286581Y30749D02*
X287747D01*
X239833Y23916D02*
X239249Y24499D01*
X238083D01*
X237500Y23916D01*
Y21583D01*
X238083Y21000D01*
X239249D01*
X239833Y21583D01*
X242748Y21000D02*
Y24499D01*
X240999Y22749D01*
X243331D01*
X244498Y24499D02*
X246830D01*
Y23916D01*
X244498Y21583D01*
Y21000D01*
X281333Y23916D02*
X280749Y24499D01*
X279583D01*
X279000Y23916D01*
Y21583D01*
X279583Y21000D01*
X280749D01*
X281333Y21583D01*
X284831Y21000D02*
X282499D01*
X284831Y23333D01*
Y23916D01*
X284248Y24499D01*
X283082D01*
X282499Y23916D01*
X285998D02*
X286581Y24499D01*
X287747D01*
X288330Y23916D01*
Y23333D01*
X287747Y22749D01*
X288330Y22166D01*
Y21583D01*
X287747Y21000D01*
X286581D01*
X285998Y21583D01*
Y22166D01*
X286581Y22749D01*
X285998Y23333D01*
Y23916D01*
X286581Y22749D02*
X287747D01*
X258500Y21500D02*
Y24999D01*
X260249D01*
X260833Y24416D01*
Y23249D01*
X260249Y22666D01*
X258500D01*
X259666D02*
X260833Y21500D01*
X261999Y24416D02*
X262582Y24999D01*
X263748D01*
X264331Y24416D01*
Y23833D01*
X263748Y23249D01*
X263165D01*
X263748D01*
X264331Y22666D01*
Y22083D01*
X263748Y21500D01*
X262582D01*
X261999Y22083D01*
X347500Y107500D02*
Y110999D01*
X349249D01*
X349833Y110416D01*
Y109249D01*
X349249Y108666D01*
X347500D01*
X348666D02*
X349833Y107500D01*
X353331Y110999D02*
X352165Y110416D01*
X350999Y109249D01*
Y108083D01*
X351582Y107500D01*
X352748D01*
X353331Y108083D01*
Y108666D01*
X352748Y109249D01*
X350999D01*
X319500Y53300D02*
Y56799D01*
X321249D01*
X321833Y56216D01*
Y55049D01*
X321249Y54466D01*
X319500D01*
X320666D02*
X321833Y53300D01*
X322999Y56799D02*
X325331D01*
Y56216D01*
X322999Y53883D01*
Y53300D01*
X301500D02*
Y56799D01*
X303249D01*
X303833Y56216D01*
Y55049D01*
X303249Y54466D01*
X301500D01*
X302666D02*
X303833Y53300D01*
X304999Y56216D02*
X305582Y56799D01*
X306748D01*
X307331Y56216D01*
Y55633D01*
X306748Y55049D01*
X307331Y54466D01*
Y53883D01*
X306748Y53300D01*
X305582D01*
X304999Y53883D01*
Y54466D01*
X305582Y55049D01*
X304999Y55633D01*
Y56216D01*
X305582Y55049D02*
X306748D01*
X347000Y73000D02*
Y76499D01*
X348749D01*
X349333Y75916D01*
Y74749D01*
X348749Y74166D01*
X347000D01*
X348166D02*
X349333Y73000D01*
X352831Y76499D02*
X350499D01*
Y74749D01*
X351665Y75333D01*
X352248D01*
X352831Y74749D01*
Y73583D01*
X352248Y73000D01*
X351082D01*
X350499Y73583D01*
X361000Y81500D02*
Y84999D01*
X362749D01*
X363333Y84416D01*
Y83249D01*
X362749Y82666D01*
X361000D01*
X362166D02*
X363333Y81500D01*
X366248D02*
Y84999D01*
X364499Y83249D01*
X366831D01*
X471500Y31290D02*
X474166Y27291D01*
Y31290D02*
X471500Y27291D01*
X475499Y31290D02*
Y27291D01*
X477498D01*
X478164Y27958D01*
Y28624D01*
X477498Y29291D01*
X475499D01*
X477498D01*
X478164Y29957D01*
Y30624D01*
X477498Y31290D01*
X475499D01*
X482163D02*
X479497D01*
Y27291D01*
X482163D01*
X479497Y29291D02*
X480830D01*
X486162Y31290D02*
X483496D01*
Y27291D01*
X486162D01*
X483496Y29291D02*
X484829D01*
X464000Y11290D02*
X466666Y7291D01*
Y11290D02*
X464000Y7291D01*
X467999Y11290D02*
Y7291D01*
X469998D01*
X470665Y7958D01*
Y8624D01*
X469998Y9291D01*
X467999D01*
X469998D01*
X470665Y9957D01*
Y10624D01*
X469998Y11290D01*
X467999D01*
X474663D02*
X471997D01*
Y7291D01*
X474663D01*
X471997Y9291D02*
X473330D01*
X478662Y11290D02*
X475996D01*
Y7291D01*
X478662D01*
X475996Y9291D02*
X477329D01*
X479995Y6625D02*
X482661D01*
X483993Y7291D02*
Y11290D01*
X485993D01*
X486659Y10624D01*
Y9291D01*
X485993Y8624D01*
X483993D01*
X487992Y7291D02*
Y11290D01*
X489992D01*
X490658Y10624D01*
Y9291D01*
X489992Y8624D01*
X487992D01*
X489325D02*
X490658Y7291D01*
X493990Y11290D02*
X492657D01*
X491991Y10624D01*
Y7958D01*
X492657Y7291D01*
X493990D01*
X494657Y7958D01*
Y10624D01*
X493990Y11290D01*
X428500Y105791D02*
X429833D01*
X429166D01*
Y109790D01*
X428500Y109124D01*
X427000Y29291D02*
X428333D01*
X427666D01*
Y33290D01*
X427000Y32624D01*
X430332D02*
X430999Y33290D01*
X432332D01*
X432998Y32624D01*
Y29958D01*
X432332Y29291D01*
X430999D01*
X430332Y29958D01*
Y32624D01*
X523500Y28791D02*
X524833D01*
X524166D01*
Y32790D01*
X523500Y32124D01*
X526832Y28791D02*
X528165D01*
X527499D01*
Y32790D01*
X526832Y32124D01*
X526666Y104791D02*
X524000D01*
X526666Y107457D01*
Y108124D01*
X525999Y108790D01*
X524666D01*
X524000Y108124D01*
X527999D02*
X528665Y108790D01*
X529998D01*
X530664Y108124D01*
Y105458D01*
X529998Y104791D01*
X528665D01*
X527999Y105458D01*
Y108124D01*
D44*
X189000Y20500D02*
Y23499D01*
X190499D01*
X190999Y22999D01*
Y22000D01*
X190499Y21500D01*
X189000D01*
X191999Y20000D02*
X193998D01*
X196997Y22999D02*
X196498Y23499D01*
X195498D01*
X194998Y22999D01*
Y22499D01*
X195498Y22000D01*
X196498D01*
X196997Y21500D01*
Y21000D01*
X196498Y20500D01*
X195498D01*
X194998Y21000D01*
X197997Y23499D02*
Y20500D01*
X199497D01*
X199996Y21000D01*
Y22999D01*
X199497Y23499D01*
X197997D01*
X200996Y20000D02*
X202995D01*
X205995Y22999D02*
X205495Y23499D01*
X204495D01*
X203995Y22999D01*
Y21000D01*
X204495Y20500D01*
X205495D01*
X205995Y21000D01*
X206994Y20500D02*
Y22499D01*
X207994Y23499D01*
X208994Y22499D01*
Y20500D01*
Y22000D01*
X206994D01*
X209993Y20500D02*
Y23499D01*
X211493D01*
X211993Y22999D01*
Y22000D01*
X211493Y21500D01*
X209993D01*
X210993D02*
X211993Y20500D01*
X212992Y23499D02*
Y20500D01*
X214492D01*
X214992Y21000D01*
Y22999D01*
X214492Y23499D01*
X212992D01*
M02*
