G04 Layer_Physical_Order=2*
G04 Layer_Color=16711680*
%FSLAX25Y25*%
%MOIN*%
G70*
G01*
G75*
%ADD20C,0.01000*%
%ADD21C,0.10650*%
%ADD22C,0.04724*%
%ADD23C,0.05906*%
%ADD24R,0.05906X0.05906*%
G04:AMPARAMS|DCode=25|XSize=106.3mil|YSize=106.3mil|CornerRadius=26.58mil|HoleSize=0mil|Usage=FLASHONLY|Rotation=90.000|XOffset=0mil|YOffset=0mil|HoleType=Round|Shape=RoundedRectangle|*
%AMROUNDEDRECTD25*
21,1,0.10630,0.05315,0,0,90.0*
21,1,0.05315,0.10630,0,0,90.0*
1,1,0.05315,0.02658,0.02658*
1,1,0.05315,0.02658,-0.02658*
1,1,0.05315,-0.02658,-0.02658*
1,1,0.05315,-0.02658,0.02658*
%
%ADD25ROUNDEDRECTD25*%
G04:AMPARAMS|DCode=26|XSize=39.37mil|YSize=39.37mil|CornerRadius=9.84mil|HoleSize=0mil|Usage=FLASHONLY|Rotation=90.000|XOffset=0mil|YOffset=0mil|HoleType=Round|Shape=RoundedRectangle|*
%AMROUNDEDRECTD26*
21,1,0.03937,0.01969,0,0,90.0*
21,1,0.01969,0.03937,0,0,90.0*
1,1,0.01969,0.00984,0.00984*
1,1,0.01969,0.00984,-0.00984*
1,1,0.01969,-0.00984,-0.00984*
1,1,0.01969,-0.00984,0.00984*
%
%ADD26ROUNDEDRECTD26*%
%ADD27R,0.06500X0.06500*%
%ADD28C,0.06500*%
%ADD29C,0.06200*%
%ADD30O,0.10000X0.06000*%
%ADD31R,0.10000X0.06000*%
%ADD32C,0.07284*%
%ADD33R,0.07284X0.07284*%
%ADD34C,0.05000*%
%ADD35C,0.03000*%
%ADD36C,0.05512*%
%ADD37R,0.05906X0.05906*%
%ADD38O,0.03937X0.07874*%
%ADD39O,0.03937X0.07874*%
%ADD40C,0.04000*%
G04:AMPARAMS|DCode=41|XSize=40mil|YSize=40mil|CornerRadius=10mil|HoleSize=0mil|Usage=FLASHONLY|Rotation=270.000|XOffset=0mil|YOffset=0mil|HoleType=Round|Shape=RoundedRectangle|*
%AMROUNDEDRECTD41*
21,1,0.04000,0.02000,0,0,270.0*
21,1,0.02000,0.04000,0,0,270.0*
1,1,0.02000,-0.01000,-0.01000*
1,1,0.02000,-0.01000,0.01000*
1,1,0.02000,0.01000,0.01000*
1,1,0.02000,0.01000,-0.01000*
%
%ADD41ROUNDEDRECTD41*%
G36*
X483674Y315826D02*
X101326D01*
Y523174D01*
X483674D01*
Y315826D01*
D02*
G37*
%LPC*%
G36*
X438500Y369950D02*
Y368000D01*
X440449D01*
X440355Y368476D01*
X439802Y369302D01*
X438975Y369855D01*
X438500Y369950D01*
D02*
G37*
G36*
X402500Y453845D02*
X401603Y453667D01*
X400842Y453158D01*
X400333Y452397D01*
X400155Y451500D01*
X400333Y450603D01*
X400842Y449842D01*
X401174Y449619D01*
Y446887D01*
X387563Y433275D01*
X387275Y432845D01*
X387175Y432338D01*
Y350881D01*
X386842Y350658D01*
X386727Y350647D01*
X374937Y362437D01*
X374507Y362725D01*
X374000Y362825D01*
X326380D01*
X326158Y363158D01*
X325811Y363390D01*
X325762Y363888D01*
X330313Y368438D01*
X330810Y368389D01*
X330842Y368342D01*
X331603Y367833D01*
X332500Y367655D01*
X333397Y367833D01*
X334158Y368342D01*
X334381Y368674D01*
X368619D01*
X368842Y368342D01*
X369603Y367833D01*
X370500Y367655D01*
X371397Y367833D01*
X372158Y368342D01*
X372667Y369103D01*
X372845Y370000D01*
X372667Y370897D01*
X372158Y371658D01*
X371397Y372167D01*
X370500Y372345D01*
X369603Y372167D01*
X368842Y371658D01*
X368619Y371325D01*
X334381D01*
X334158Y371658D01*
X334111Y371690D01*
X334062Y372187D01*
X360549Y398675D01*
X368595D01*
X369102Y398775D01*
X369532Y399063D01*
X376937Y406468D01*
X377225Y406898D01*
X377326Y407406D01*
Y411000D01*
X377225Y411507D01*
X376937Y411937D01*
X370249Y418626D01*
Y420119D01*
X370581Y420342D01*
X371090Y421103D01*
X371268Y422000D01*
X371090Y422897D01*
X370581Y423658D01*
X369820Y424167D01*
X368923Y424345D01*
X368026Y424167D01*
X367265Y423658D01*
X366757Y422897D01*
X366578Y422000D01*
X366757Y421103D01*
X367265Y420342D01*
X367598Y420119D01*
Y418077D01*
X367699Y417570D01*
X367986Y417140D01*
X374675Y410451D01*
Y407955D01*
X373833Y407113D01*
X373290Y407277D01*
X373167Y407897D01*
X372658Y408658D01*
X371897Y409167D01*
X371000Y409345D01*
X370103Y409167D01*
X369342Y408658D01*
X369120Y408325D01*
X354000D01*
X353493Y408225D01*
X353063Y407937D01*
X282313Y337188D01*
X281823Y337285D01*
X281778Y337393D01*
X281176Y338176D01*
X280393Y338778D01*
X279480Y339156D01*
X278500Y339285D01*
X277520Y339156D01*
X276607Y338778D01*
X275823Y338176D01*
X275222Y337393D01*
X274844Y336480D01*
X274715Y335500D01*
X274844Y334520D01*
X275222Y333607D01*
X275823Y332823D01*
X276607Y332222D01*
X277520Y331844D01*
X278500Y331715D01*
X279480Y331844D01*
X280393Y332222D01*
X281176Y332823D01*
X281778Y333607D01*
X282013Y334174D01*
X282500D01*
X283007Y334275D01*
X283437Y334563D01*
X284230Y335355D01*
X284757Y335176D01*
X284844Y334520D01*
X285222Y333607D01*
X285823Y332823D01*
X286473Y332326D01*
X286303Y331825D01*
X283500D01*
X282993Y331725D01*
X282563Y331437D01*
X280047Y328921D01*
X279480Y329156D01*
X278500Y329285D01*
X277520Y329156D01*
X276607Y328778D01*
X275823Y328176D01*
X275222Y327393D01*
X274844Y326480D01*
X274715Y325500D01*
X274844Y324520D01*
X275222Y323607D01*
X275823Y322824D01*
X276607Y322222D01*
X277520Y321844D01*
X278500Y321715D01*
X279480Y321844D01*
X280393Y322222D01*
X281176Y322824D01*
X281778Y323607D01*
X282156Y324520D01*
X282285Y325500D01*
X282156Y326480D01*
X281921Y327047D01*
X284049Y329174D01*
X286303D01*
X286473Y328675D01*
X285823Y328176D01*
X285222Y327393D01*
X284844Y326480D01*
X284715Y325500D01*
X284844Y324520D01*
X285222Y323607D01*
X285823Y322824D01*
X286607Y322222D01*
X287520Y321844D01*
X288500Y321715D01*
X289480Y321844D01*
X290393Y322222D01*
X291177Y322824D01*
X291778Y323607D01*
X292156Y324520D01*
X292285Y325500D01*
X292156Y326480D01*
X291778Y327393D01*
X291177Y328176D01*
X290527Y328675D01*
X290697Y329174D01*
X291500D01*
X292007Y329275D01*
X292437Y329563D01*
X294437Y331563D01*
X294725Y331993D01*
X294826Y332500D01*
Y332796D01*
X295112Y333069D01*
X295667Y333028D01*
X295824Y332823D01*
X296607Y332222D01*
X297520Y331844D01*
X298500Y331715D01*
X299480Y331844D01*
X300393Y332222D01*
X301177Y332823D01*
X301778Y333607D01*
X302156Y334520D01*
X302285Y335500D01*
X302156Y336480D01*
X301778Y337393D01*
X301177Y338176D01*
X300840Y338434D01*
X300808Y338933D01*
X322112Y360238D01*
X322610Y360189D01*
X322842Y359842D01*
X323603Y359333D01*
X324500Y359155D01*
X325397Y359333D01*
X326158Y359842D01*
X326380Y360174D01*
X373451D01*
X385563Y348063D01*
X385993Y347775D01*
X386500Y347674D01*
X386619D01*
X386842Y347342D01*
X387603Y346833D01*
X388500Y346655D01*
X389397Y346833D01*
X390158Y347342D01*
X390667Y348103D01*
X390845Y349000D01*
X390667Y349897D01*
X390158Y350658D01*
X389826Y350881D01*
Y431789D01*
X403437Y445401D01*
X403725Y445831D01*
X403826Y446338D01*
Y449619D01*
X404158Y449842D01*
X404667Y450603D01*
X404845Y451500D01*
X404667Y452397D01*
X404158Y453158D01*
X403397Y453667D01*
X402500Y453845D01*
D02*
G37*
G36*
X425500Y368779D02*
X423551D01*
X423645Y368304D01*
X424198Y367477D01*
X425025Y366925D01*
X425500Y366830D01*
Y368779D01*
D02*
G37*
G36*
X374350Y419547D02*
X372401D01*
X372495Y419072D01*
X373048Y418245D01*
X373875Y417692D01*
X374350Y417598D01*
Y419547D01*
D02*
G37*
G36*
X213500Y406189D02*
X212674Y406081D01*
X211905Y405762D01*
X211245Y405255D01*
X210738Y404595D01*
X210419Y403826D01*
X210311Y403000D01*
X210419Y402175D01*
X210738Y401405D01*
X211245Y400745D01*
X211905Y400238D01*
X212674Y399919D01*
X213500Y399811D01*
X214325Y399919D01*
X215095Y400238D01*
X215755Y400745D01*
X216262Y401405D01*
X216581Y402175D01*
X216689Y403000D01*
X216581Y403826D01*
X216262Y404595D01*
X215755Y405255D01*
X215095Y405762D01*
X214325Y406081D01*
X213500Y406189D01*
D02*
G37*
G36*
X425500Y371729D02*
X425025Y371635D01*
X424198Y371082D01*
X423645Y370255D01*
X423551Y369779D01*
X425500D01*
Y371729D01*
D02*
G37*
G36*
X164000Y361689D02*
X163174Y361581D01*
X162405Y361262D01*
X161745Y360755D01*
X161238Y360095D01*
X160919Y359326D01*
X160810Y358500D01*
X160919Y357675D01*
X161238Y356905D01*
X161745Y356245D01*
X162405Y355738D01*
X163174Y355419D01*
X164000Y355311D01*
X164825Y355419D01*
X165595Y355738D01*
X166255Y356245D01*
X166762Y356905D01*
X167081Y357675D01*
X167190Y358500D01*
X167081Y359326D01*
X166762Y360095D01*
X166255Y360755D01*
X165595Y361262D01*
X164825Y361581D01*
X164000Y361689D01*
D02*
G37*
G36*
X125276Y363515D02*
X119961D01*
X119058Y363396D01*
X118217Y363048D01*
X117495Y362493D01*
X116941Y361771D01*
X116592Y360930D01*
X116473Y360028D01*
Y354713D01*
X116592Y353810D01*
X116941Y352969D01*
X117495Y352247D01*
X118217Y351692D01*
X119058Y351344D01*
X119961Y351225D01*
X125276D01*
X126178Y351344D01*
X127019Y351692D01*
X127742Y352247D01*
X128296Y352969D01*
X128644Y353810D01*
X128763Y354713D01*
Y360028D01*
X128644Y360930D01*
X128296Y361771D01*
X127742Y362493D01*
X127019Y363048D01*
X126178Y363396D01*
X125276Y363515D01*
D02*
G37*
G36*
X383000Y341421D02*
Y338000D01*
X386421D01*
X386351Y338532D01*
X385953Y339493D01*
X385319Y340319D01*
X384493Y340953D01*
X383532Y341351D01*
X383000Y341421D01*
D02*
G37*
G36*
X440449Y367000D02*
X438500D01*
Y365051D01*
X438975Y365145D01*
X439802Y365698D01*
X440355Y366525D01*
X440449Y367000D01*
D02*
G37*
G36*
X426500Y371729D02*
Y369280D01*
Y366830D01*
X426563Y366843D01*
X426842Y366563D01*
X427272Y366275D01*
X427779Y366175D01*
X435879D01*
X436198Y365698D01*
X437024Y365145D01*
X437500Y365051D01*
Y367500D01*
Y369950D01*
X437024Y369855D01*
X436198Y369302D01*
X435879Y368826D01*
X428853D01*
X428536Y369212D01*
X428549Y369280D01*
X428355Y370255D01*
X427802Y371082D01*
X426975Y371635D01*
X426500Y371729D01*
D02*
G37*
G36*
X248500Y367325D02*
X228000D01*
X227493Y367225D01*
X227063Y366937D01*
X224774Y364649D01*
X224057Y364946D01*
X223000Y365085D01*
X221943Y364946D01*
X220957Y364538D01*
X220111Y363889D01*
X219462Y363042D01*
X219054Y362057D01*
X218915Y361000D01*
X219054Y359943D01*
X219462Y358958D01*
X220111Y358112D01*
X220957Y357462D01*
X221943Y357054D01*
X223000Y356915D01*
X224057Y357054D01*
X225043Y357462D01*
X225888Y358112D01*
X226538Y358958D01*
X226946Y359943D01*
X227085Y361000D01*
X226946Y362057D01*
X226649Y362774D01*
X228250Y364375D01*
X228750Y364168D01*
Y361500D01*
X233000D01*
X237250D01*
Y364674D01*
X247951D01*
X255174Y357451D01*
Y337500D01*
X255275Y336993D01*
X255563Y336563D01*
X264747Y327378D01*
Y321747D01*
X272253D01*
Y329253D01*
X266622D01*
X257825Y338049D01*
Y358000D01*
X257725Y358507D01*
X257437Y358937D01*
X249437Y366937D01*
X249007Y367225D01*
X248500Y367325D01*
D02*
G37*
G36*
X213500Y433689D02*
X212674Y433581D01*
X211905Y433262D01*
X211245Y432755D01*
X210738Y432095D01*
X210419Y431325D01*
X210311Y430500D01*
X210419Y429674D01*
X210738Y428905D01*
X211245Y428245D01*
X211905Y427738D01*
X212674Y427419D01*
X213500Y427311D01*
X214325Y427419D01*
X215095Y427738D01*
X215755Y428245D01*
X216262Y428905D01*
X216581Y429674D01*
X216689Y430500D01*
X216581Y431325D01*
X216262Y432095D01*
X215755Y432755D01*
X215095Y433262D01*
X214325Y433581D01*
X213500Y433689D01*
D02*
G37*
G36*
X143900Y452855D02*
X142699Y452736D01*
X141545Y452386D01*
X140481Y451817D01*
X139548Y451052D01*
X138783Y450119D01*
X138214Y449055D01*
X137864Y447901D01*
X137745Y446700D01*
X137864Y445499D01*
X137962Y445176D01*
X137561Y444775D01*
X136701Y445036D01*
X135500Y445155D01*
X134299Y445036D01*
X133145Y444686D01*
X132081Y444117D01*
X131148Y443352D01*
X130383Y442419D01*
X129814Y441355D01*
X129464Y440201D01*
X129345Y439000D01*
X129464Y437799D01*
X129814Y436645D01*
X130383Y435581D01*
X131148Y434648D01*
X132081Y433883D01*
X133145Y433314D01*
X134299Y432964D01*
X135500Y432845D01*
X136701Y432964D01*
X137855Y433314D01*
X138919Y433883D01*
X139852Y434648D01*
X140617Y435581D01*
X141186Y436645D01*
X141536Y437799D01*
X141655Y439000D01*
X141536Y440201D01*
X141438Y440524D01*
X141839Y440925D01*
X142699Y440664D01*
X143900Y440545D01*
X145101Y440664D01*
X146255Y441014D01*
X147319Y441583D01*
X148252Y442348D01*
X149017Y443281D01*
X149586Y444345D01*
X149899Y445374D01*
X156692D01*
X156766Y444874D01*
X156145Y444686D01*
X155081Y444117D01*
X154148Y443352D01*
X153383Y442419D01*
X152814Y441355D01*
X152464Y440201D01*
X152345Y439000D01*
X152464Y437799D01*
X152814Y436645D01*
X153383Y435581D01*
X154148Y434648D01*
X155081Y433883D01*
X156145Y433314D01*
X157299Y432964D01*
X158500Y432845D01*
X159701Y432964D01*
X160855Y433314D01*
X161919Y433883D01*
X162852Y434648D01*
X163617Y435581D01*
X164186Y436645D01*
X164536Y437799D01*
X164655Y439000D01*
X164536Y440201D01*
X164186Y441355D01*
X163617Y442419D01*
X162852Y443352D01*
X161919Y444117D01*
X160855Y444686D01*
X160234Y444874D01*
X160308Y445374D01*
X176751D01*
X190531Y431595D01*
X190419Y431325D01*
X190311Y430500D01*
X190419Y429674D01*
X190738Y428905D01*
X191245Y428245D01*
X191905Y427738D01*
X192675Y427419D01*
X193500Y427311D01*
X194325Y427419D01*
X195095Y427738D01*
X195755Y428245D01*
X196262Y428905D01*
X196581Y429674D01*
X196689Y430500D01*
X196581Y431325D01*
X196262Y432095D01*
X195755Y432755D01*
X195095Y433262D01*
X194325Y433581D01*
X193500Y433689D01*
X192675Y433581D01*
X192405Y433469D01*
X178237Y447637D01*
X177807Y447925D01*
X177300Y448026D01*
X149899D01*
X149586Y449055D01*
X149017Y450119D01*
X148252Y451052D01*
X147319Y451817D01*
X146255Y452386D01*
X145101Y452736D01*
X143900Y452855D01*
D02*
G37*
G36*
X375000Y429121D02*
X374493Y429020D01*
X374339Y428918D01*
X374025Y428855D01*
X373198Y428302D01*
X372645Y427476D01*
X372551Y427000D01*
X377449D01*
X377355Y427476D01*
X376802Y428302D01*
X375975Y428855D01*
X375661Y428918D01*
X375507Y429020D01*
X375000Y429121D01*
D02*
G37*
G36*
X257862Y439345D02*
X256965Y439167D01*
X256204Y438658D01*
X255696Y437897D01*
X255517Y437000D01*
X255595Y436608D01*
X251813Y432826D01*
X226500D01*
X225993Y432725D01*
X225563Y432437D01*
X218451Y425325D01*
X177381D01*
X177158Y425658D01*
X176397Y426167D01*
X175500Y426345D01*
X174603Y426167D01*
X173842Y425658D01*
X173333Y424897D01*
X173155Y424000D01*
X173333Y423103D01*
X173842Y422342D01*
X174603Y421833D01*
X175500Y421655D01*
X176397Y421833D01*
X177158Y422342D01*
X177381Y422675D01*
X219000D01*
X219507Y422775D01*
X219937Y423063D01*
X227049Y430174D01*
X252362D01*
X252869Y430275D01*
X253299Y430563D01*
X257470Y434733D01*
X257862Y434655D01*
X258760Y434833D01*
X259520Y435342D01*
X260029Y436103D01*
X260207Y437000D01*
X260029Y437897D01*
X259520Y438658D01*
X258760Y439167D01*
X257862Y439345D01*
D02*
G37*
G36*
X118806Y438500D02*
X113000D01*
Y432694D01*
X113740Y432766D01*
X114932Y433128D01*
X116031Y433715D01*
X116994Y434506D01*
X117785Y435469D01*
X118372Y436568D01*
X118734Y437760D01*
X118806Y438500D01*
D02*
G37*
G36*
X112000D02*
X106194D01*
X106266Y437760D01*
X106628Y436568D01*
X107215Y435469D01*
X108006Y434506D01*
X108969Y433715D01*
X110068Y433128D01*
X111260Y432766D01*
X112000Y432694D01*
Y438500D01*
D02*
G37*
G36*
X374350Y422497D02*
X373875Y422402D01*
X373048Y421850D01*
X372495Y421023D01*
X372401Y420547D01*
X374350D01*
Y422497D01*
D02*
G37*
G36*
X228000Y424828D02*
X227138Y424715D01*
X226336Y424382D01*
X225646Y423854D01*
X225117Y423164D01*
X224785Y422362D01*
X224672Y421500D01*
X224785Y420639D01*
X224925Y420300D01*
X218563Y413937D01*
X218275Y413507D01*
X218175Y413000D01*
Y390681D01*
X218103Y390667D01*
X217342Y390158D01*
X216833Y389397D01*
X216655Y388500D01*
X216833Y387603D01*
X217342Y386842D01*
X218103Y386333D01*
X219000Y386155D01*
X219897Y386333D01*
X220658Y386842D01*
X221167Y387603D01*
X221345Y388500D01*
X221167Y389397D01*
X220826Y389908D01*
Y412451D01*
X226800Y418425D01*
X227138Y418285D01*
X228000Y418172D01*
X228861Y418285D01*
X229664Y418617D01*
X230354Y419146D01*
X230883Y419836D01*
X231215Y420639D01*
X231329Y421500D01*
X231215Y422362D01*
X230883Y423164D01*
X230354Y423854D01*
X229664Y424382D01*
X228861Y424715D01*
X228000Y424828D01*
D02*
G37*
G36*
X377300Y419547D02*
X375350D01*
Y417598D01*
X375826Y417692D01*
X376653Y418245D01*
X377205Y419072D01*
X377300Y419547D01*
D02*
G37*
G36*
X377449Y426000D02*
X375500D01*
Y424051D01*
X375975Y424145D01*
X376802Y424698D01*
X377355Y425525D01*
X377449Y426000D01*
D02*
G37*
G36*
X374500D02*
X372551D01*
X372645Y425525D01*
X373198Y424698D01*
X374025Y424145D01*
X374500Y424051D01*
Y426000D01*
D02*
G37*
G36*
X375350Y422497D02*
Y420547D01*
X377300D01*
X377205Y421023D01*
X376653Y421850D01*
X375826Y422402D01*
X375350Y422497D01*
D02*
G37*
G36*
X187000Y329500D02*
X183250D01*
Y325750D01*
X187000D01*
Y329500D01*
D02*
G37*
G36*
X452500Y331285D02*
X451520Y331156D01*
X450607Y330778D01*
X449824Y330176D01*
X449222Y329393D01*
X448844Y328480D01*
X448715Y327500D01*
X448844Y326520D01*
X449222Y325607D01*
X449824Y324823D01*
X450607Y324222D01*
X451520Y323844D01*
X452500Y323715D01*
X453480Y323844D01*
X454393Y324222D01*
X455176Y324823D01*
X455778Y325607D01*
X456156Y326520D01*
X456285Y327500D01*
X456156Y328480D01*
X455778Y329393D01*
X455176Y330176D01*
X454393Y330778D01*
X453480Y331156D01*
X452500Y331285D01*
D02*
G37*
G36*
X442500D02*
X441520Y331156D01*
X440607Y330778D01*
X439823Y330176D01*
X439222Y329393D01*
X438844Y328480D01*
X438715Y327500D01*
X438844Y326520D01*
X439222Y325607D01*
X439823Y324823D01*
X440607Y324222D01*
X441520Y323844D01*
X442500Y323715D01*
X443480Y323844D01*
X444393Y324222D01*
X445177Y324823D01*
X445778Y325607D01*
X446156Y326520D01*
X446285Y327500D01*
X446156Y328480D01*
X445778Y329393D01*
X445177Y330176D01*
X444393Y330778D01*
X443480Y331156D01*
X442500Y331285D01*
D02*
G37*
G36*
X298000Y329421D02*
X297468Y329351D01*
X296507Y328953D01*
X295681Y328319D01*
X295047Y327493D01*
X294649Y326532D01*
X294579Y326000D01*
X298000D01*
Y329421D01*
D02*
G37*
G36*
X177500Y334085D02*
X176443Y333946D01*
X175458Y333538D01*
X174611Y332889D01*
X173962Y332043D01*
X173554Y331057D01*
X173415Y330000D01*
X173554Y328943D01*
X173962Y327958D01*
X174611Y327112D01*
X175458Y326462D01*
X176443Y326054D01*
X177500Y325915D01*
X178557Y326054D01*
X179543Y326462D01*
X180388Y327112D01*
X181038Y327958D01*
X181446Y328943D01*
X181585Y330000D01*
X181446Y331057D01*
X181038Y332043D01*
X180388Y332889D01*
X179543Y333538D01*
X178557Y333946D01*
X177500Y334085D01*
D02*
G37*
G36*
X237750Y329500D02*
X234000D01*
Y325750D01*
X237750D01*
Y329500D01*
D02*
G37*
G36*
X382500Y331285D02*
X381520Y331156D01*
X380607Y330778D01*
X379823Y330176D01*
X379222Y329393D01*
X378844Y328480D01*
X378715Y327500D01*
X378844Y326520D01*
X379222Y325607D01*
X379823Y324823D01*
X380607Y324222D01*
X381520Y323844D01*
X382500Y323715D01*
X383480Y323844D01*
X384393Y324222D01*
X385176Y324823D01*
X385778Y325607D01*
X386156Y326520D01*
X386285Y327500D01*
X386156Y328480D01*
X385778Y329393D01*
X385176Y330176D01*
X384393Y330778D01*
X383480Y331156D01*
X382500Y331285D01*
D02*
G37*
G36*
X125276Y334775D02*
X119961D01*
X119058Y334656D01*
X118217Y334308D01*
X117495Y333753D01*
X116941Y333031D01*
X116592Y332190D01*
X116473Y331288D01*
Y325973D01*
X116592Y325070D01*
X116941Y324229D01*
X117495Y323507D01*
X118217Y322952D01*
X119058Y322604D01*
X119961Y322485D01*
X125276D01*
X126178Y322604D01*
X127019Y322952D01*
X127742Y323507D01*
X128296Y324229D01*
X128644Y325070D01*
X128763Y325973D01*
Y331288D01*
X128644Y332190D01*
X128296Y333031D01*
X127742Y333753D01*
X127019Y334308D01*
X126178Y334656D01*
X125276Y334775D01*
D02*
G37*
G36*
X298000Y325000D02*
X294579D01*
X294649Y324468D01*
X295047Y323507D01*
X295681Y322681D01*
X296507Y322047D01*
X297468Y321649D01*
X298000Y321579D01*
Y325000D01*
D02*
G37*
G36*
X432500Y331285D02*
X431520Y331156D01*
X430607Y330778D01*
X429823Y330176D01*
X429222Y329393D01*
X428844Y328480D01*
X428715Y327500D01*
X428844Y326520D01*
X429222Y325607D01*
X429823Y324823D01*
X430607Y324222D01*
X431520Y323844D01*
X432500Y323715D01*
X433480Y323844D01*
X434393Y324222D01*
X435177Y324823D01*
X435778Y325607D01*
X436156Y326520D01*
X436285Y327500D01*
X436156Y328480D01*
X435778Y329393D01*
X435177Y330176D01*
X434393Y330778D01*
X433480Y331156D01*
X432500Y331285D01*
D02*
G37*
G36*
X422500D02*
X421520Y331156D01*
X420607Y330778D01*
X419824Y330176D01*
X419222Y329393D01*
X418844Y328480D01*
X418715Y327500D01*
X418844Y326520D01*
X419222Y325607D01*
X419824Y324823D01*
X420607Y324222D01*
X421520Y323844D01*
X422500Y323715D01*
X423480Y323844D01*
X424393Y324222D01*
X425176Y324823D01*
X425778Y325607D01*
X426156Y326520D01*
X426285Y327500D01*
X426156Y328480D01*
X425778Y329393D01*
X425176Y330176D01*
X424393Y330778D01*
X423480Y331156D01*
X422500Y331285D01*
D02*
G37*
G36*
X412500D02*
X411520Y331156D01*
X410607Y330778D01*
X409824Y330176D01*
X409222Y329393D01*
X408844Y328480D01*
X408715Y327500D01*
X408844Y326520D01*
X409222Y325607D01*
X409824Y324823D01*
X410607Y324222D01*
X411520Y323844D01*
X412500Y323715D01*
X413480Y323844D01*
X414393Y324222D01*
X415176Y324823D01*
X415778Y325607D01*
X416156Y326520D01*
X416285Y327500D01*
X416156Y328480D01*
X415778Y329393D01*
X415176Y330176D01*
X414393Y330778D01*
X413480Y331156D01*
X412500Y331285D01*
D02*
G37*
G36*
X422500Y341285D02*
X421520Y341156D01*
X420607Y340778D01*
X419824Y340177D01*
X419222Y339393D01*
X418844Y338480D01*
X418715Y337500D01*
X418844Y336520D01*
X419222Y335607D01*
X419824Y334823D01*
X420607Y334222D01*
X421520Y333844D01*
X422500Y333715D01*
X423480Y333844D01*
X424393Y334222D01*
X425176Y334823D01*
X425778Y335607D01*
X426156Y336520D01*
X426285Y337500D01*
X426156Y338480D01*
X425778Y339393D01*
X425176Y340177D01*
X424393Y340778D01*
X423480Y341156D01*
X422500Y341285D01*
D02*
G37*
G36*
X145507Y336201D02*
X143000D01*
Y333693D01*
X143484D01*
X144258Y333847D01*
X144915Y334286D01*
X145353Y334942D01*
X145507Y335717D01*
Y336201D01*
D02*
G37*
G36*
X386421Y337000D02*
X383000D01*
Y333579D01*
X383532Y333649D01*
X384493Y334047D01*
X385319Y334681D01*
X385953Y335507D01*
X386351Y336468D01*
X386421Y337000D01*
D02*
G37*
G36*
X370500Y350826D02*
X353500D01*
X352993Y350725D01*
X352563Y350437D01*
X328951Y326825D01*
X302229D01*
X301953Y327493D01*
X301319Y328319D01*
X300493Y328953D01*
X299532Y329351D01*
X299000Y329421D01*
Y325500D01*
Y321579D01*
X299532Y321649D01*
X300493Y322047D01*
X301319Y322681D01*
X301953Y323507D01*
X302229Y324174D01*
X329500D01*
X330007Y324275D01*
X330437Y324563D01*
X354049Y348175D01*
X369951D01*
X378926Y339200D01*
X378649Y338532D01*
X378579Y338000D01*
X382000D01*
Y341421D01*
X381468Y341351D01*
X380800Y341074D01*
X371437Y350437D01*
X371007Y350725D01*
X370500Y350826D01*
D02*
G37*
G36*
X462500Y341285D02*
X461520Y341156D01*
X460607Y340778D01*
X459824Y340177D01*
X459222Y339393D01*
X458844Y338480D01*
X458715Y337500D01*
X458844Y336520D01*
X459222Y335607D01*
X459824Y334823D01*
X460607Y334222D01*
X461520Y333844D01*
X462500Y333715D01*
X463480Y333844D01*
X464393Y334222D01*
X465176Y334823D01*
X465778Y335607D01*
X466156Y336520D01*
X466285Y337500D01*
X466156Y338480D01*
X465778Y339393D01*
X465176Y340177D01*
X464393Y340778D01*
X463480Y341156D01*
X462500Y341285D01*
D02*
G37*
G36*
X452500D02*
X451520Y341156D01*
X450607Y340778D01*
X449824Y340177D01*
X449222Y339393D01*
X448844Y338480D01*
X448715Y337500D01*
X448844Y336520D01*
X449222Y335607D01*
X449824Y334823D01*
X450607Y334222D01*
X451520Y333844D01*
X452500Y333715D01*
X453480Y333844D01*
X454393Y334222D01*
X455176Y334823D01*
X455778Y335607D01*
X456156Y336520D01*
X456285Y337500D01*
X456156Y338480D01*
X455778Y339393D01*
X455176Y340177D01*
X454393Y340778D01*
X453480Y341156D01*
X452500Y341285D01*
D02*
G37*
G36*
X187000Y334250D02*
X183250D01*
Y330500D01*
X187000D01*
Y334250D01*
D02*
G37*
G36*
X237250Y360500D02*
X233000D01*
X228750D01*
Y356750D01*
X231675D01*
Y334250D01*
X229250D01*
Y330500D01*
X233500D01*
X237750D01*
Y334250D01*
X234326D01*
Y356750D01*
X237250D01*
Y360500D01*
D02*
G37*
G36*
X113500Y406480D02*
X112340Y406327D01*
X111260Y405880D01*
X110332Y405168D01*
X109620Y404240D01*
X109173Y403160D01*
X109020Y402000D01*
X109173Y400841D01*
X109620Y399760D01*
X110332Y398832D01*
X111260Y398120D01*
X112340Y397673D01*
X113500Y397520D01*
X114477Y397649D01*
X144563Y367563D01*
X144993Y367275D01*
X145500Y367175D01*
X163451D01*
X172675Y357951D01*
Y337049D01*
X169159Y333534D01*
X168518Y333800D01*
X167500Y333934D01*
X166482Y333800D01*
X165533Y333407D01*
X164718Y332782D01*
X164093Y331967D01*
X163700Y331018D01*
X163566Y330000D01*
X163700Y328982D01*
X164093Y328033D01*
X164718Y327219D01*
X165533Y326593D01*
X166482Y326200D01*
X167500Y326066D01*
X168518Y326200D01*
X169467Y326593D01*
X170282Y327219D01*
X170907Y328033D01*
X171300Y328982D01*
X171434Y330000D01*
X171300Y331018D01*
X171034Y331660D01*
X174937Y335563D01*
X175225Y335993D01*
X175326Y336500D01*
Y354647D01*
X175787Y354838D01*
X180563Y350063D01*
X180993Y349775D01*
X181500Y349675D01*
X203000D01*
X203507Y349775D01*
X203937Y350063D01*
X211175Y357300D01*
X211674Y357093D01*
Y333465D01*
X211533Y333407D01*
X210718Y332782D01*
X210093Y331967D01*
X209700Y331018D01*
X209566Y330000D01*
X209700Y328982D01*
X210093Y328033D01*
X210718Y327219D01*
X211231Y326825D01*
X211061Y326325D01*
X204549D01*
X198826Y332049D01*
Y344619D01*
X199158Y344842D01*
X199667Y345603D01*
X199845Y346500D01*
X199667Y347397D01*
X199158Y348158D01*
X198397Y348667D01*
X197500Y348845D01*
X196603Y348667D01*
X195842Y348158D01*
X195333Y347397D01*
X195155Y346500D01*
X195333Y345603D01*
X195842Y344842D01*
X196175Y344619D01*
Y331500D01*
X196275Y330993D01*
X196563Y330563D01*
X203063Y324063D01*
X203418Y323826D01*
X203398Y323506D01*
X203335Y323325D01*
X196049D01*
X191750Y327625D01*
Y329500D01*
X188000D01*
Y325750D01*
X189875D01*
X194563Y321063D01*
X194918Y320826D01*
X194898Y320506D01*
X194835Y320325D01*
X158549D01*
X153825Y325049D01*
Y339299D01*
X153725Y339806D01*
X153437Y340236D01*
X145303Y348370D01*
Y350283D01*
X145165Y350980D01*
X144771Y351570D01*
X144180Y351964D01*
X143825Y352035D01*
Y353000D01*
X143725Y353507D01*
X143437Y353937D01*
X117942Y379433D01*
Y386442D01*
X109058D01*
Y377558D01*
X116067D01*
X141106Y352519D01*
X141038Y352008D01*
X140820Y351964D01*
X140229Y351570D01*
X139835Y350980D01*
X139697Y350283D01*
Y349209D01*
X139197Y348866D01*
X138760Y348953D01*
X136791D01*
X136095Y348815D01*
X135505Y348420D01*
X135111Y347830D01*
X134972Y347134D01*
Y345165D01*
X135111Y344469D01*
X135505Y343879D01*
X136095Y343485D01*
X136791Y343346D01*
X138760D01*
X138916Y343377D01*
X139385Y343004D01*
Y342996D01*
X138916Y342623D01*
X138760Y342654D01*
X136791D01*
X136095Y342515D01*
X135505Y342121D01*
X135111Y341531D01*
X134972Y340835D01*
Y338866D01*
X135111Y338170D01*
X135505Y337580D01*
X136095Y337185D01*
X136791Y337047D01*
X138760D01*
X138993Y337093D01*
X139493Y336683D01*
Y335717D01*
X139647Y334942D01*
X140085Y334286D01*
X140742Y333847D01*
X141516Y333693D01*
X142000D01*
Y336701D01*
X142500D01*
Y337201D01*
X145507D01*
Y337685D01*
X145353Y338459D01*
X144915Y339116D01*
X144258Y339554D01*
X143484Y339708D01*
Y340196D01*
X144180Y340335D01*
X144771Y340729D01*
X145165Y341320D01*
X145303Y342016D01*
Y343914D01*
X145470Y344039D01*
X145782Y344143D01*
X151174Y338750D01*
Y324500D01*
X151275Y323993D01*
X151563Y323563D01*
X157063Y318063D01*
X157493Y317775D01*
X158000Y317674D01*
X354000D01*
X354507Y317775D01*
X354937Y318063D01*
X368332Y331458D01*
X368747Y331166D01*
X368747Y330789D01*
Y323747D01*
X376253D01*
Y331253D01*
X369239D01*
X368834Y331253D01*
X368542Y331668D01*
X370953Y334079D01*
X371520Y333844D01*
X372500Y333715D01*
X373480Y333844D01*
X374393Y334222D01*
X375177Y334823D01*
X375778Y335607D01*
X376156Y336520D01*
X376285Y337500D01*
X376156Y338480D01*
X375778Y339393D01*
X375177Y340177D01*
X374393Y340778D01*
X373480Y341156D01*
X372500Y341285D01*
X371520Y341156D01*
X370607Y340778D01*
X369824Y340177D01*
X369222Y339393D01*
X368844Y338480D01*
X368715Y337500D01*
X368844Y336520D01*
X369079Y335953D01*
X353451Y320325D01*
X226165D01*
X226102Y320506D01*
X226082Y320826D01*
X226437Y321063D01*
X231124Y325750D01*
X233000D01*
Y329500D01*
X229250D01*
Y327625D01*
X224951Y323325D01*
X219165D01*
X219102Y323506D01*
X219082Y323826D01*
X219437Y324063D01*
X221726Y326351D01*
X222443Y326054D01*
X223500Y325915D01*
X224557Y326054D01*
X225542Y326462D01*
X226389Y327112D01*
X227038Y327958D01*
X227446Y328943D01*
X227585Y330000D01*
X227446Y331057D01*
X227038Y332043D01*
X226389Y332889D01*
X225542Y333538D01*
X224557Y333946D01*
X223500Y334085D01*
X222443Y333946D01*
X221458Y333538D01*
X220612Y332889D01*
X219962Y332043D01*
X219554Y331057D01*
X219415Y330000D01*
X219554Y328943D01*
X219851Y328226D01*
X217951Y326325D01*
X215939D01*
X215769Y326825D01*
X216282Y327219D01*
X216907Y328033D01*
X217300Y328982D01*
X217434Y330000D01*
X217300Y331018D01*
X216907Y331967D01*
X216282Y332782D01*
X215467Y333407D01*
X214518Y333800D01*
X214325Y333825D01*
Y357328D01*
X214967Y357593D01*
X215781Y358219D01*
X216407Y359033D01*
X216800Y359982D01*
X216934Y361000D01*
X216800Y362018D01*
X216407Y362967D01*
X215781Y363781D01*
X214967Y364407D01*
X214018Y364800D01*
X213000Y364934D01*
X211982Y364800D01*
X211033Y364407D01*
X210219Y363781D01*
X209593Y362967D01*
X209200Y362018D01*
X209066Y361000D01*
X209200Y359982D01*
X209466Y359341D01*
X202451Y352326D01*
X182049D01*
X174937Y359437D01*
X164937Y369437D01*
X164507Y369725D01*
X164000Y369826D01*
X146049D01*
X116831Y399044D01*
X117380Y399760D01*
X117827Y400841D01*
X117980Y402000D01*
X117827Y403160D01*
X117380Y404240D01*
X116668Y405168D01*
X115740Y405880D01*
X114660Y406327D01*
X113500Y406480D01*
D02*
G37*
G36*
X382000Y337000D02*
X378579D01*
X378649Y336468D01*
X379047Y335507D01*
X379681Y334681D01*
X380507Y334047D01*
X381468Y333649D01*
X382000Y333579D01*
Y337000D01*
D02*
G37*
G36*
X268500Y339285D02*
X267520Y339156D01*
X266607Y338778D01*
X265824Y338176D01*
X265222Y337393D01*
X264844Y336480D01*
X264715Y335500D01*
X264844Y334520D01*
X265222Y333607D01*
X265824Y332823D01*
X266607Y332222D01*
X267520Y331844D01*
X268500Y331715D01*
X269480Y331844D01*
X270393Y332222D01*
X271177Y332823D01*
X271778Y333607D01*
X272156Y334520D01*
X272285Y335500D01*
X272156Y336480D01*
X271778Y337393D01*
X271177Y338176D01*
X270393Y338778D01*
X269480Y339156D01*
X268500Y339285D01*
D02*
G37*
G36*
X191750Y334250D02*
X188000D01*
Y330500D01*
X191750D01*
Y334250D01*
D02*
G37*
G36*
X175469Y481500D02*
X170000D01*
Y477965D01*
X171500D01*
X171641Y477984D01*
X211063Y438563D01*
X211493Y438275D01*
X212000Y438174D01*
X229261D01*
X229443Y437735D01*
X230004Y437004D01*
X230735Y436443D01*
X231586Y436090D01*
X232000Y436036D01*
Y439500D01*
Y442964D01*
X231586Y442910D01*
X230735Y442557D01*
X230004Y441996D01*
X229443Y441265D01*
X229261Y440826D01*
X212549D01*
X174345Y479029D01*
X174353Y479147D01*
X174994Y479983D01*
X175397Y480956D01*
X175469Y481500D01*
D02*
G37*
G36*
X462500Y501285D02*
X461520Y501156D01*
X460607Y500778D01*
X459824Y500176D01*
X459222Y499393D01*
X458844Y498480D01*
X458715Y497500D01*
X458844Y496520D01*
X459222Y495607D01*
X459824Y494824D01*
X460607Y494222D01*
X461520Y493844D01*
X462500Y493715D01*
X463480Y493844D01*
X464393Y494222D01*
X465176Y494824D01*
X465778Y495607D01*
X466156Y496520D01*
X466285Y497500D01*
X466156Y498480D01*
X465778Y499393D01*
X465176Y500176D01*
X464393Y500778D01*
X463480Y501156D01*
X462500Y501285D01*
D02*
G37*
G36*
X452500D02*
X451520Y501156D01*
X450607Y500778D01*
X449824Y500176D01*
X449222Y499393D01*
X448844Y498480D01*
X448715Y497500D01*
X448844Y496520D01*
X449222Y495607D01*
X449824Y494824D01*
X450607Y494222D01*
X451520Y493844D01*
X452500Y493715D01*
X453480Y493844D01*
X454393Y494222D01*
X455176Y494824D01*
X455778Y495607D01*
X456156Y496520D01*
X456285Y497500D01*
X456156Y498480D01*
X455778Y499393D01*
X455176Y500176D01*
X454393Y500778D01*
X453480Y501156D01*
X452500Y501285D01*
D02*
G37*
G36*
X442500D02*
X441520Y501156D01*
X440607Y500778D01*
X439823Y500176D01*
X439222Y499393D01*
X438844Y498480D01*
X438715Y497500D01*
X438844Y496520D01*
X439222Y495607D01*
X439823Y494824D01*
X440607Y494222D01*
X441520Y493844D01*
X442500Y493715D01*
X443480Y493844D01*
X444393Y494222D01*
X445177Y494824D01*
X445778Y495607D01*
X446156Y496520D01*
X446285Y497500D01*
X446156Y498480D01*
X445778Y499393D01*
X445177Y500176D01*
X444393Y500778D01*
X443480Y501156D01*
X442500Y501285D01*
D02*
G37*
G36*
X201500Y505833D02*
X197500D01*
X196508Y505702D01*
X195584Y505319D01*
X194790Y504710D01*
X194181Y503916D01*
X193798Y502992D01*
X193667Y502000D01*
X193798Y501008D01*
X194181Y500084D01*
X194790Y499290D01*
X195584Y498681D01*
X196508Y498298D01*
X197500Y498167D01*
X201500D01*
X202492Y498298D01*
X203416Y498681D01*
X204210Y499290D01*
X204819Y500084D01*
X205202Y501008D01*
X205333Y502000D01*
X205202Y502992D01*
X204819Y503916D01*
X204210Y504710D01*
X203416Y505319D01*
X202492Y505702D01*
X201500Y505833D01*
D02*
G37*
G36*
X146500D02*
X142500D01*
X141508Y505702D01*
X140584Y505319D01*
X139790Y504710D01*
X139181Y503916D01*
X138798Y502992D01*
X138667Y502000D01*
X138798Y501008D01*
X139181Y500084D01*
X139790Y499290D01*
X140584Y498681D01*
X141508Y498298D01*
X142500Y498167D01*
X146500D01*
X147492Y498298D01*
X148416Y498681D01*
X149210Y499290D01*
X149819Y500084D01*
X150202Y501008D01*
X150333Y502000D01*
X150202Y502992D01*
X149819Y503916D01*
X149210Y504710D01*
X148416Y505319D01*
X147492Y505702D01*
X146500Y505833D01*
D02*
G37*
G36*
X376253Y501253D02*
X368747D01*
Y493747D01*
X376253D01*
Y501253D01*
D02*
G37*
G36*
X442500Y511285D02*
X441520Y511156D01*
X440607Y510778D01*
X439823Y510177D01*
X439222Y509393D01*
X438844Y508480D01*
X438715Y507500D01*
X438844Y506520D01*
X439222Y505607D01*
X439823Y504823D01*
X440607Y504222D01*
X441520Y503844D01*
X442500Y503715D01*
X443480Y503844D01*
X444393Y504222D01*
X445177Y504823D01*
X445778Y505607D01*
X446156Y506520D01*
X446285Y507500D01*
X446156Y508480D01*
X445778Y509393D01*
X445177Y510177D01*
X444393Y510778D01*
X443480Y511156D01*
X442500Y511285D01*
D02*
G37*
G36*
X422500Y501285D02*
X421520Y501156D01*
X420607Y500778D01*
X419824Y500176D01*
X419222Y499393D01*
X418844Y498480D01*
X418715Y497500D01*
X418844Y496520D01*
X419222Y495607D01*
X419824Y494824D01*
X420607Y494222D01*
X421520Y493844D01*
X422500Y493715D01*
X423480Y493844D01*
X424393Y494222D01*
X425176Y494824D01*
X425778Y495607D01*
X426156Y496520D01*
X426285Y497500D01*
X426156Y498480D01*
X425778Y499393D01*
X425176Y500176D01*
X424393Y500778D01*
X423480Y501156D01*
X422500Y501285D01*
D02*
G37*
G36*
X412500D02*
X411520Y501156D01*
X410607Y500778D01*
X409824Y500176D01*
X409222Y499393D01*
X408844Y498480D01*
X408715Y497500D01*
X408844Y496520D01*
X409079Y495953D01*
X402451Y489326D01*
X392000D01*
X391493Y489225D01*
X391063Y488937D01*
X358563Y456437D01*
X358275Y456007D01*
X358174Y455500D01*
Y444880D01*
X357842Y444658D01*
X357333Y443897D01*
X357155Y443000D01*
X357333Y442103D01*
X357842Y441342D01*
X358603Y440833D01*
X359500Y440655D01*
X360397Y440833D01*
X361158Y441342D01*
X361667Y442103D01*
X361845Y443000D01*
X361667Y443897D01*
X361158Y444658D01*
X360825Y444880D01*
Y454951D01*
X375836Y469962D01*
X376297Y469716D01*
X376155Y469000D01*
X376333Y468103D01*
X376842Y467342D01*
X377603Y466833D01*
X378500Y466655D01*
X379397Y466833D01*
X380158Y467342D01*
X380381Y467674D01*
X381335D01*
X381398Y467494D01*
X381418Y467174D01*
X381063Y466937D01*
X362740Y448614D01*
X362452Y448184D01*
X362351Y447677D01*
Y438226D01*
X341184Y417058D01*
X340705Y417203D01*
X340667Y417397D01*
X340158Y418158D01*
X339397Y418667D01*
X338500Y418845D01*
X337603Y418667D01*
X336842Y418158D01*
X336619Y417826D01*
X323549D01*
X287767Y453608D01*
X287845Y454000D01*
X287667Y454897D01*
X287158Y455658D01*
X286397Y456167D01*
X285500Y456345D01*
X284603Y456167D01*
X283842Y455658D01*
X283333Y454897D01*
X283155Y454000D01*
X283333Y453103D01*
X283842Y452342D01*
X284603Y451833D01*
X285500Y451655D01*
X285893Y451733D01*
X322063Y415563D01*
X322493Y415275D01*
X323000Y415174D01*
X336619D01*
X336842Y414842D01*
X337603Y414333D01*
X337797Y414295D01*
X337942Y413816D01*
X334317Y410191D01*
X333774Y410356D01*
X333667Y410897D01*
X333158Y411658D01*
X332397Y412167D01*
X331500Y412345D01*
X330603Y412167D01*
X329842Y411658D01*
X329333Y410897D01*
X329319Y410825D01*
X322049D01*
X286937Y445937D01*
X286507Y446225D01*
X286000Y446325D01*
X224881D01*
X224658Y446658D01*
X223897Y447167D01*
X223000Y447345D01*
X222103Y447167D01*
X221342Y446658D01*
X220833Y445897D01*
X220655Y445000D01*
X220833Y444103D01*
X221342Y443342D01*
X222103Y442833D01*
X223000Y442655D01*
X223897Y442833D01*
X224658Y443342D01*
X224881Y443675D01*
X285451D01*
X320563Y408563D01*
X320993Y408275D01*
X321500Y408175D01*
X330092D01*
X330603Y407833D01*
X331144Y407726D01*
X331309Y407183D01*
X300951Y376825D01*
X264249D01*
X263981Y377326D01*
X264167Y377603D01*
X264345Y378500D01*
X264267Y378892D01*
X266937Y381563D01*
X267225Y381993D01*
X267325Y382500D01*
Y398620D01*
X267658Y398842D01*
X268167Y399603D01*
X268345Y400500D01*
X268327Y400592D01*
X268788Y400838D01*
X269175Y400451D01*
Y384500D01*
X269275Y383993D01*
X269563Y383563D01*
X270233Y382892D01*
X270155Y382500D01*
X270333Y381603D01*
X270842Y380842D01*
X271603Y380333D01*
X272500Y380155D01*
X273397Y380333D01*
X274158Y380842D01*
X274667Y381603D01*
X274845Y382500D01*
X274667Y383397D01*
X274158Y384158D01*
X273397Y384667D01*
X272500Y384845D01*
X272218Y384789D01*
X271826Y385134D01*
Y400779D01*
X272240Y401207D01*
X272500Y401155D01*
X273397Y401333D01*
X274158Y401842D01*
X274667Y402603D01*
X274845Y403500D01*
X274667Y404397D01*
X274158Y405158D01*
X273397Y405667D01*
X272500Y405845D01*
X271603Y405667D01*
X271366Y405509D01*
X264691Y412183D01*
X264856Y412726D01*
X265397Y412833D01*
X266158Y413342D01*
X266667Y414103D01*
X266845Y415000D01*
X266667Y415897D01*
X266158Y416658D01*
X265397Y417167D01*
X264500Y417345D01*
X263603Y417167D01*
X262842Y416658D01*
X262619Y416326D01*
X232500D01*
X231993Y416225D01*
X231563Y415937D01*
X227063Y411437D01*
X226775Y411007D01*
X226675Y410500D01*
Y404881D01*
X226342Y404658D01*
X225833Y403897D01*
X225655Y403000D01*
X225733Y402607D01*
X223063Y399937D01*
X222775Y399507D01*
X222674Y399000D01*
Y381049D01*
X219451Y377825D01*
X189881D01*
X189658Y378158D01*
X188897Y378667D01*
X188000Y378845D01*
X187103Y378667D01*
X186342Y378158D01*
X185833Y377397D01*
X185655Y376500D01*
X185833Y375603D01*
X186342Y374842D01*
X187103Y374333D01*
X188000Y374155D01*
X188897Y374333D01*
X189658Y374842D01*
X189881Y375174D01*
X220000D01*
X220507Y375275D01*
X220937Y375563D01*
X224937Y379563D01*
X225225Y379993D01*
X225325Y380500D01*
Y398451D01*
X227607Y400733D01*
X228000Y400655D01*
X228897Y400833D01*
X229658Y401342D01*
X230167Y402103D01*
X230345Y403000D01*
X230167Y403897D01*
X229658Y404658D01*
X229326Y404881D01*
Y409951D01*
X233049Y413674D01*
X245093D01*
X245300Y413174D01*
X244503Y412377D01*
X244110Y412455D01*
X243213Y412277D01*
X242452Y411768D01*
X241944Y411008D01*
X241765Y410110D01*
X241944Y409213D01*
X242452Y408452D01*
X243213Y407944D01*
X244110Y407765D01*
X245008Y407944D01*
X245768Y408452D01*
X246277Y409213D01*
X246455Y410110D01*
X246377Y410503D01*
X247049Y411174D01*
X250951D01*
X251219Y410674D01*
X251033Y410397D01*
X250855Y409500D01*
X251033Y408603D01*
X251542Y407842D01*
X252303Y407333D01*
X253200Y407155D01*
X254097Y407333D01*
X254858Y407842D01*
X255081Y408175D01*
X261451D01*
X266338Y403288D01*
X266091Y402827D01*
X266000Y402845D01*
X265608Y402767D01*
X264937Y403437D01*
X264507Y403725D01*
X264000Y403826D01*
X237000D01*
X236493Y403725D01*
X236063Y403437D01*
X230393Y397767D01*
X230000Y397845D01*
X229103Y397667D01*
X228342Y397158D01*
X227833Y396397D01*
X227655Y395500D01*
X227833Y394603D01*
X228342Y393842D01*
X229103Y393333D01*
X230000Y393155D01*
X230897Y393333D01*
X231658Y393842D01*
X232167Y394603D01*
X232345Y395500D01*
X232267Y395893D01*
X237549Y401174D01*
X263366D01*
X263711Y400782D01*
X263655Y400500D01*
X263833Y399603D01*
X264342Y398842D01*
X264674Y398620D01*
Y383049D01*
X262392Y380767D01*
X262000Y380845D01*
X261103Y380667D01*
X260342Y380158D01*
X259833Y379397D01*
X259655Y378500D01*
X259833Y377603D01*
X260019Y377326D01*
X259751Y376825D01*
X245689D01*
X245182Y376725D01*
X244752Y376437D01*
X243563Y375248D01*
X243275Y374818D01*
X243191Y374391D01*
X242842Y374158D01*
X242333Y373397D01*
X242155Y372500D01*
X242333Y371603D01*
X242519Y371325D01*
X242251Y370826D01*
X195000D01*
X194493Y370725D01*
X194063Y370437D01*
X185095Y361469D01*
X184826Y361581D01*
X184000Y361689D01*
X183175Y361581D01*
X182405Y361262D01*
X181745Y360755D01*
X181238Y360095D01*
X180919Y359326D01*
X180810Y358500D01*
X180919Y357675D01*
X181238Y356905D01*
X181745Y356245D01*
X182405Y355738D01*
X183175Y355419D01*
X184000Y355311D01*
X184826Y355419D01*
X185595Y355738D01*
X186255Y356245D01*
X186762Y356905D01*
X187081Y357675D01*
X187189Y358500D01*
X187081Y359326D01*
X186969Y359595D01*
X195549Y368175D01*
X270093D01*
X270143Y367674D01*
X270103Y367667D01*
X269342Y367158D01*
X268833Y366397D01*
X268655Y365500D01*
X268833Y364603D01*
X269342Y363842D01*
X269674Y363619D01*
Y359049D01*
X264893Y354267D01*
X264500Y354345D01*
X263603Y354167D01*
X262842Y353658D01*
X262333Y352897D01*
X262155Y352000D01*
X262333Y351103D01*
X262842Y350342D01*
X263603Y349833D01*
X264500Y349655D01*
X265397Y349833D01*
X266158Y350342D01*
X266667Y351103D01*
X266845Y352000D01*
X266767Y352393D01*
X271937Y357563D01*
X272225Y357993D01*
X272325Y358500D01*
Y363619D01*
X272658Y363842D01*
X273167Y364603D01*
X273345Y365500D01*
X273167Y366397D01*
X272658Y367158D01*
X271897Y367667D01*
X271857Y367674D01*
X271907Y368175D01*
X304221D01*
X304729Y368275D01*
X305158Y368563D01*
X348770Y412175D01*
X360619D01*
X360842Y411842D01*
X361603Y411333D01*
X362500Y411155D01*
X363397Y411333D01*
X364158Y411842D01*
X364667Y412603D01*
X364845Y413500D01*
X364667Y414397D01*
X364158Y415158D01*
X363825Y415380D01*
Y421821D01*
X392550Y450545D01*
X392649Y450528D01*
X393015Y450000D01*
X395000D01*
Y451985D01*
X394472Y452351D01*
X394455Y452450D01*
X397179Y455174D01*
X398620D01*
X398842Y454842D01*
X399603Y454333D01*
X400500Y454155D01*
X401397Y454333D01*
X402158Y454842D01*
X402667Y455603D01*
X402774Y456144D01*
X403317Y456309D01*
X406674Y452951D01*
Y379500D01*
X406775Y378993D01*
X407063Y378563D01*
X410800Y374826D01*
X410593Y374325D01*
X403000D01*
X402493Y374225D01*
X402063Y373937D01*
X398393Y370267D01*
X398000Y370345D01*
X397103Y370167D01*
X396342Y369658D01*
X395833Y368897D01*
X395655Y368000D01*
X395833Y367103D01*
X396342Y366342D01*
X397103Y365833D01*
X398000Y365655D01*
X398897Y365833D01*
X399658Y366342D01*
X400167Y367103D01*
X400345Y368000D01*
X400267Y368392D01*
X403549Y371674D01*
X413402D01*
X413500Y371655D01*
X413591Y371673D01*
X413838Y371212D01*
X396563Y353937D01*
X396275Y353507D01*
X396175Y353000D01*
Y339697D01*
X395674Y339527D01*
X395177Y340177D01*
X394393Y340778D01*
X393480Y341156D01*
X392500Y341285D01*
X391520Y341156D01*
X390607Y340778D01*
X389824Y340177D01*
X389222Y339393D01*
X388844Y338480D01*
X388715Y337500D01*
X388844Y336520D01*
X389222Y335607D01*
X389824Y334823D01*
X390607Y334222D01*
X391520Y333844D01*
X392500Y333715D01*
X393480Y333844D01*
X394393Y334222D01*
X395177Y334823D01*
X395674Y335473D01*
X396175Y335303D01*
Y333049D01*
X394047Y330921D01*
X393480Y331156D01*
X392500Y331285D01*
X391520Y331156D01*
X390607Y330778D01*
X389824Y330176D01*
X389222Y329393D01*
X388844Y328480D01*
X388715Y327500D01*
X388844Y326520D01*
X389222Y325607D01*
X389824Y324823D01*
X390607Y324222D01*
X391520Y323844D01*
X392500Y323715D01*
X393480Y323844D01*
X394393Y324222D01*
X395177Y324823D01*
X395778Y325607D01*
X396156Y326520D01*
X396285Y327500D01*
X396156Y328480D01*
X395921Y329047D01*
X398437Y331563D01*
X398725Y331993D01*
X398826Y332500D01*
Y335303D01*
X399325Y335473D01*
X399823Y334823D01*
X400607Y334222D01*
X401520Y333844D01*
X402500Y333715D01*
X403480Y333844D01*
X404393Y334222D01*
X405176Y334823D01*
X405675Y335473D01*
X406175Y335303D01*
Y333049D01*
X404047Y330921D01*
X403480Y331156D01*
X402500Y331285D01*
X401520Y331156D01*
X400607Y330778D01*
X399823Y330176D01*
X399222Y329393D01*
X398844Y328480D01*
X398715Y327500D01*
X398844Y326520D01*
X399222Y325607D01*
X399823Y324823D01*
X400607Y324222D01*
X401520Y323844D01*
X402500Y323715D01*
X403480Y323844D01*
X404393Y324222D01*
X405176Y324823D01*
X405778Y325607D01*
X406156Y326520D01*
X406285Y327500D01*
X406156Y328480D01*
X405921Y329047D01*
X408437Y331563D01*
X408725Y331993D01*
X408825Y332500D01*
Y335303D01*
X409326Y335473D01*
X409824Y334823D01*
X410607Y334222D01*
X411520Y333844D01*
X412500Y333715D01*
X413480Y333844D01*
X414393Y334222D01*
X415176Y334823D01*
X415778Y335607D01*
X416156Y336520D01*
X416285Y337500D01*
X416156Y338480D01*
X415778Y339393D01*
X415176Y340177D01*
X414393Y340778D01*
X413480Y341156D01*
X412500Y341285D01*
X411520Y341156D01*
X410607Y340778D01*
X409824Y340177D01*
X409326Y339527D01*
X408825Y339697D01*
Y357508D01*
X450391Y399075D01*
X451577D01*
X452084Y399175D01*
X452514Y399463D01*
X454343Y401291D01*
X454630Y401721D01*
X454731Y402229D01*
Y406214D01*
X455064Y406436D01*
X455572Y407197D01*
X455675Y407712D01*
X456175Y407663D01*
Y380454D01*
X431563Y355843D01*
X431275Y355413D01*
X431175Y354906D01*
Y341013D01*
X430607Y340778D01*
X429823Y340177D01*
X429222Y339393D01*
X428844Y338480D01*
X428715Y337500D01*
X428844Y336520D01*
X429222Y335607D01*
X429823Y334823D01*
X430607Y334222D01*
X431520Y333844D01*
X432500Y333715D01*
X433480Y333844D01*
X434393Y334222D01*
X435177Y334823D01*
X435778Y335607D01*
X436156Y336520D01*
X436285Y337500D01*
X436156Y338480D01*
X435778Y339393D01*
X435177Y340177D01*
X434393Y340778D01*
X433825Y341013D01*
Y354357D01*
X458437Y378968D01*
X458725Y379398D01*
X458825Y379906D01*
Y414500D01*
X458725Y415007D01*
X458437Y415437D01*
X421267Y452607D01*
X421345Y453000D01*
X421203Y453716D01*
X421664Y453962D01*
X460674Y414951D01*
Y363199D01*
X441563Y344087D01*
X441275Y343657D01*
X441175Y343150D01*
Y341013D01*
X440607Y340778D01*
X439823Y340177D01*
X439222Y339393D01*
X438844Y338480D01*
X438715Y337500D01*
X438844Y336520D01*
X439222Y335607D01*
X439823Y334823D01*
X440607Y334222D01*
X441520Y333844D01*
X442500Y333715D01*
X443480Y333844D01*
X444393Y334222D01*
X445177Y334823D01*
X445778Y335607D01*
X446156Y336520D01*
X446285Y337500D01*
X446156Y338480D01*
X445778Y339393D01*
X445177Y340177D01*
X444393Y340778D01*
X443825Y341013D01*
Y342601D01*
X462937Y361712D01*
X463225Y362142D01*
X463326Y362650D01*
Y415500D01*
X463225Y416007D01*
X462937Y416437D01*
X419659Y459715D01*
X419229Y460003D01*
X418722Y460103D01*
X414658D01*
X414436Y460436D01*
X414103Y460659D01*
Y461222D01*
X414003Y461729D01*
X413715Y462159D01*
X408937Y466937D01*
X408582Y467174D01*
X408602Y467494D01*
X408665Y467674D01*
X418951D01*
X467674Y418951D01*
Y334549D01*
X464047Y330921D01*
X463480Y331156D01*
X462500Y331285D01*
X461520Y331156D01*
X460607Y330778D01*
X459824Y330176D01*
X459222Y329393D01*
X458844Y328480D01*
X458715Y327500D01*
X458844Y326520D01*
X459222Y325607D01*
X459824Y324823D01*
X460607Y324222D01*
X461520Y323844D01*
X462500Y323715D01*
X463480Y323844D01*
X464393Y324222D01*
X465176Y324823D01*
X465778Y325607D01*
X466156Y326520D01*
X466285Y327500D01*
X466156Y328480D01*
X465921Y329047D01*
X469937Y333063D01*
X470225Y333493D01*
X470326Y334000D01*
Y419500D01*
X470225Y420007D01*
X469937Y420437D01*
X420437Y469937D01*
X420007Y470225D01*
X419500Y470326D01*
X380381D01*
X380158Y470658D01*
X379397Y471167D01*
X378500Y471345D01*
X377784Y471203D01*
X377538Y471664D01*
X392549Y486674D01*
X403000D01*
X403507Y486775D01*
X403937Y487063D01*
X410953Y494079D01*
X411520Y493844D01*
X412500Y493715D01*
X413480Y493844D01*
X414393Y494222D01*
X415176Y494824D01*
X415778Y495607D01*
X416156Y496520D01*
X416285Y497500D01*
X416156Y498480D01*
X415778Y499393D01*
X415176Y500176D01*
X414393Y500778D01*
X413480Y501156D01*
X412500Y501285D01*
D02*
G37*
G36*
X432500D02*
X431520Y501156D01*
X430607Y500778D01*
X429823Y500176D01*
X429222Y499393D01*
X428844Y498480D01*
X428715Y497500D01*
X428844Y496520D01*
X429222Y495607D01*
X429823Y494824D01*
X430607Y494222D01*
X431520Y493844D01*
X432500Y493715D01*
X433480Y493844D01*
X434393Y494222D01*
X435177Y494824D01*
X435778Y495607D01*
X436156Y496520D01*
X436285Y497500D01*
X436156Y498480D01*
X435778Y499393D01*
X435177Y500176D01*
X434393Y500778D01*
X433480Y501156D01*
X432500Y501285D01*
D02*
G37*
G36*
X422500Y511285D02*
X421520Y511156D01*
X420607Y510778D01*
X419824Y510177D01*
X419222Y509393D01*
X418844Y508480D01*
X418715Y507500D01*
X418844Y506520D01*
X419222Y505607D01*
X419824Y504823D01*
X420607Y504222D01*
X421520Y503844D01*
X422500Y503715D01*
X423480Y503844D01*
X424393Y504222D01*
X425176Y504823D01*
X425778Y505607D01*
X426156Y506520D01*
X426285Y507500D01*
X426156Y508480D01*
X425778Y509393D01*
X425176Y510177D01*
X424393Y510778D01*
X423480Y511156D01*
X422500Y511285D01*
D02*
G37*
G36*
X432500D02*
X431520Y511156D01*
X430607Y510778D01*
X429823Y510177D01*
X429222Y509393D01*
X428844Y508480D01*
X428715Y507500D01*
X428844Y506520D01*
X429222Y505607D01*
X429823Y504823D01*
X430607Y504222D01*
X431520Y503844D01*
X432500Y503715D01*
X433480Y503844D01*
X434393Y504222D01*
X435177Y504823D01*
X435778Y505607D01*
X436156Y506520D01*
X436285Y507500D01*
X436156Y508480D01*
X435778Y509393D01*
X435177Y510177D01*
X434393Y510778D01*
X433480Y511156D01*
X432500Y511285D01*
D02*
G37*
G36*
X382500D02*
X381520Y511156D01*
X380607Y510778D01*
X379823Y510177D01*
X379222Y509393D01*
X378844Y508480D01*
X378715Y507500D01*
X378844Y506520D01*
X379222Y505607D01*
X379823Y504823D01*
X380607Y504222D01*
X381520Y503844D01*
X382500Y503715D01*
X383480Y503844D01*
X384393Y504222D01*
X385176Y504823D01*
X385778Y505607D01*
X386156Y506520D01*
X386285Y507500D01*
X386156Y508480D01*
X385778Y509393D01*
X385176Y510177D01*
X384393Y510778D01*
X383480Y511156D01*
X382500Y511285D01*
D02*
G37*
G36*
X376421Y507000D02*
X373000D01*
Y503579D01*
X373532Y503649D01*
X374493Y504047D01*
X375319Y504681D01*
X375953Y505507D01*
X376351Y506468D01*
X376421Y507000D01*
D02*
G37*
G36*
X372000D02*
X368579D01*
X368649Y506468D01*
X369047Y505507D01*
X369681Y504681D01*
X370507Y504047D01*
X371468Y503649D01*
X372000Y503579D01*
Y507000D01*
D02*
G37*
G36*
X412500Y511285D02*
X411520Y511156D01*
X410607Y510778D01*
X409824Y510177D01*
X409222Y509393D01*
X408844Y508480D01*
X408715Y507500D01*
X408844Y506520D01*
X409222Y505607D01*
X409824Y504823D01*
X410607Y504222D01*
X411520Y503844D01*
X412500Y503715D01*
X413480Y503844D01*
X414393Y504222D01*
X415176Y504823D01*
X415778Y505607D01*
X416156Y506520D01*
X416285Y507500D01*
X416156Y508480D01*
X415778Y509393D01*
X415176Y510177D01*
X414393Y510778D01*
X413480Y511156D01*
X412500Y511285D01*
D02*
G37*
G36*
X402500D02*
X401520Y511156D01*
X400607Y510778D01*
X399823Y510177D01*
X399222Y509393D01*
X398844Y508480D01*
X398715Y507500D01*
X398844Y506520D01*
X399222Y505607D01*
X399823Y504823D01*
X400607Y504222D01*
X401520Y503844D01*
X402500Y503715D01*
X403480Y503844D01*
X404393Y504222D01*
X405176Y504823D01*
X405778Y505607D01*
X406156Y506520D01*
X406285Y507500D01*
X406156Y508480D01*
X405778Y509393D01*
X405176Y510177D01*
X404393Y510778D01*
X403480Y511156D01*
X402500Y511285D01*
D02*
G37*
G36*
X392500D02*
X391520Y511156D01*
X390607Y510778D01*
X389824Y510177D01*
X389222Y509393D01*
X388844Y508480D01*
X388715Y507500D01*
X388844Y506520D01*
X389222Y505607D01*
X389824Y504823D01*
X390607Y504222D01*
X391520Y503844D01*
X392500Y503715D01*
X393480Y503844D01*
X394393Y504222D01*
X395177Y504823D01*
X395778Y505607D01*
X396156Y506520D01*
X396285Y507500D01*
X396156Y508480D01*
X395778Y509393D01*
X395177Y510177D01*
X394393Y510778D01*
X393480Y511156D01*
X392500Y511285D01*
D02*
G37*
G36*
X120300Y505800D02*
X108700D01*
Y498200D01*
X120300D01*
Y505800D01*
D02*
G37*
G36*
X311500Y505833D02*
X307500D01*
X306508Y505702D01*
X305584Y505319D01*
X304790Y504710D01*
X304181Y503916D01*
X303798Y502992D01*
X303667Y502000D01*
X303798Y501008D01*
X304181Y500084D01*
X304790Y499290D01*
X305584Y498681D01*
X306508Y498298D01*
X307500Y498167D01*
X311500D01*
X312492Y498298D01*
X313416Y498681D01*
X314210Y499290D01*
X314819Y500084D01*
X315202Y501008D01*
X315333Y502000D01*
X315202Y502992D01*
X314819Y503916D01*
X314210Y504710D01*
X313416Y505319D01*
X312492Y505702D01*
X311500Y505833D01*
D02*
G37*
G36*
X256500D02*
X252500D01*
X251508Y505702D01*
X250584Y505319D01*
X249790Y504710D01*
X249181Y503916D01*
X248798Y502992D01*
X248667Y502000D01*
X248798Y501008D01*
X249181Y500084D01*
X249790Y499290D01*
X250584Y498681D01*
X251508Y498298D01*
X252500Y498167D01*
X256500D01*
X257492Y498298D01*
X258416Y498681D01*
X259210Y499290D01*
X259819Y500084D01*
X260202Y501008D01*
X260333Y502000D01*
X260202Y502992D01*
X259819Y503916D01*
X259210Y504710D01*
X258416Y505319D01*
X257492Y505702D01*
X256500Y505833D01*
D02*
G37*
G36*
X285300Y505800D02*
X273700D01*
Y498200D01*
X285300D01*
Y505800D01*
D02*
G37*
G36*
X230300D02*
X218700D01*
Y498200D01*
X230300D01*
Y505800D01*
D02*
G37*
G36*
X175300D02*
X163700D01*
Y498200D01*
X175300D01*
Y505800D01*
D02*
G37*
G36*
X114000Y481500D02*
X108531D01*
X108603Y480956D01*
X109006Y479983D01*
X109647Y479147D01*
X110483Y478506D01*
X111456Y478103D01*
X112500Y477965D01*
X114000D01*
Y481500D01*
D02*
G37*
G36*
X397120Y452446D02*
X396613Y452345D01*
X396183Y452058D01*
X396063Y451937D01*
X396000Y451950D01*
Y450000D01*
X397950D01*
X397937Y450063D01*
X398058Y450183D01*
X398345Y450613D01*
X398446Y451121D01*
X398345Y451628D01*
X398058Y452058D01*
X397628Y452345D01*
X397120Y452446D01*
D02*
G37*
G36*
X397950Y449000D02*
X396000D01*
Y447051D01*
X396476Y447145D01*
X397302Y447698D01*
X397855Y448525D01*
X397950Y449000D01*
D02*
G37*
G36*
X146500Y485833D02*
X142500D01*
X141508Y485702D01*
X140584Y485319D01*
X139790Y484710D01*
X139181Y483916D01*
X138798Y482992D01*
X138667Y482000D01*
X138798Y481008D01*
X139181Y480084D01*
X139790Y479290D01*
X140584Y478681D01*
X141508Y478298D01*
X142500Y478167D01*
X146500D01*
X147492Y478298D01*
X148416Y478681D01*
X149210Y479290D01*
X149819Y480084D01*
X150202Y481008D01*
X150333Y482000D01*
X150202Y482992D01*
X149819Y483916D01*
X149210Y484710D01*
X148416Y485319D01*
X147492Y485702D01*
X146500Y485833D01*
D02*
G37*
G36*
X155000Y491825D02*
X123000D01*
X122493Y491725D01*
X122063Y491437D01*
X116641Y486016D01*
X116500Y486034D01*
X115000D01*
Y482500D01*
X120469D01*
X120397Y483044D01*
X119994Y484017D01*
X119353Y484853D01*
X119345Y484971D01*
X123549Y489175D01*
X154451D01*
X162563Y481063D01*
X162993Y480775D01*
X163500Y480675D01*
X163719D01*
X164006Y479983D01*
X164647Y479147D01*
X165483Y478506D01*
X166456Y478103D01*
X167500Y477965D01*
X169000D01*
Y482000D01*
Y486034D01*
X167500D01*
X166456Y485897D01*
X165483Y485494D01*
X164647Y484853D01*
X164031Y484050D01*
X163912Y483959D01*
X163498Y483877D01*
X155937Y491437D01*
X155507Y491725D01*
X155000Y491825D01*
D02*
G37*
G36*
X120469Y481500D02*
X115000D01*
Y477965D01*
X116500D01*
X117544Y478103D01*
X118517Y478506D01*
X119353Y479147D01*
X119994Y479983D01*
X120397Y480956D01*
X120469Y481500D01*
D02*
G37*
G36*
X112000Y445306D02*
X111260Y445233D01*
X110068Y444872D01*
X108969Y444284D01*
X108006Y443494D01*
X107215Y442531D01*
X106628Y441432D01*
X106266Y440240D01*
X106194Y439500D01*
X112000D01*
Y445306D01*
D02*
G37*
G36*
X373000Y511421D02*
Y508000D01*
X376421D01*
X376351Y508532D01*
X375953Y509493D01*
X375319Y510319D01*
X374493Y510953D01*
X373532Y511351D01*
X373000Y511421D01*
D02*
G37*
G36*
X235964Y439000D02*
X233000D01*
Y436036D01*
X233414Y436090D01*
X234265Y436443D01*
X234996Y437004D01*
X235557Y437735D01*
X235910Y438586D01*
X235964Y439000D01*
D02*
G37*
G36*
X395000Y449000D02*
X393051D01*
X393145Y448525D01*
X393698Y447698D01*
X394525Y447145D01*
X395000Y447051D01*
Y449000D01*
D02*
G37*
G36*
X122100Y452855D02*
X120899Y452736D01*
X119745Y452386D01*
X118681Y451817D01*
X117748Y451052D01*
X116983Y450119D01*
X116414Y449055D01*
X116064Y447901D01*
X115945Y446700D01*
X116064Y445499D01*
X116312Y444682D01*
X116281Y444639D01*
X115886Y444362D01*
X114932Y444872D01*
X113740Y445233D01*
X113000Y445306D01*
Y439500D01*
X118806D01*
X118734Y440240D01*
X118463Y441132D01*
X118881Y441475D01*
X119745Y441014D01*
X120774Y440701D01*
Y433000D01*
X120875Y432493D01*
X121163Y432063D01*
X151163Y402063D01*
X151593Y401775D01*
X152100Y401675D01*
X190626D01*
X190738Y401405D01*
X191245Y400745D01*
X191905Y400238D01*
X192675Y399919D01*
X193500Y399811D01*
X194325Y399919D01*
X195095Y400238D01*
X195755Y400745D01*
X196262Y401405D01*
X196581Y402175D01*
X196689Y403000D01*
X196581Y403826D01*
X196262Y404595D01*
X195755Y405255D01*
X195095Y405762D01*
X194325Y406081D01*
X193500Y406189D01*
X192675Y406081D01*
X191905Y405762D01*
X191245Y405255D01*
X190738Y404595D01*
X190626Y404325D01*
X152649D01*
X123425Y433549D01*
Y440701D01*
X124455Y441014D01*
X125519Y441583D01*
X126452Y442348D01*
X127217Y443281D01*
X127786Y444345D01*
X128136Y445499D01*
X128255Y446700D01*
X128136Y447901D01*
X127786Y449055D01*
X127217Y450119D01*
X126452Y451052D01*
X125519Y451817D01*
X124455Y452386D01*
X123301Y452736D01*
X122100Y452855D01*
D02*
G37*
G36*
X233000Y442964D02*
Y440000D01*
X235964D01*
X235910Y440414D01*
X235557Y441265D01*
X234996Y441996D01*
X234265Y442557D01*
X233414Y442910D01*
X233000Y442964D01*
D02*
G37*
G36*
X171500Y486034D02*
X170000D01*
Y482500D01*
X175469D01*
X175397Y483044D01*
X174994Y484017D01*
X174353Y484853D01*
X173517Y485494D01*
X172544Y485897D01*
X171500Y486034D01*
D02*
G37*
G36*
X114000D02*
X112500D01*
X111456Y485897D01*
X110483Y485494D01*
X109647Y484853D01*
X109006Y484017D01*
X108603Y483044D01*
X108531Y482500D01*
X114000D01*
Y486034D01*
D02*
G37*
G36*
X311500Y485833D02*
X307500D01*
X306508Y485702D01*
X305584Y485319D01*
X304790Y484710D01*
X304181Y483916D01*
X303798Y482992D01*
X303667Y482000D01*
X303798Y481008D01*
X304181Y480084D01*
X304790Y479290D01*
X305584Y478681D01*
X306508Y478298D01*
X307500Y478167D01*
X311500D01*
X312492Y478298D01*
X313416Y478681D01*
X314210Y479290D01*
X314819Y480084D01*
X315202Y481008D01*
X315333Y482000D01*
X315202Y482992D01*
X314819Y483916D01*
X314210Y484710D01*
X313416Y485319D01*
X312492Y485702D01*
X311500Y485833D01*
D02*
G37*
G36*
X402500Y501285D02*
X401520Y501156D01*
X400607Y500778D01*
X399823Y500176D01*
X399222Y499393D01*
X398844Y498480D01*
X398715Y497500D01*
X398844Y496520D01*
X399222Y495607D01*
X399823Y494824D01*
X400607Y494222D01*
X401520Y493844D01*
X402500Y493715D01*
X403480Y493844D01*
X404393Y494222D01*
X405176Y494824D01*
X405778Y495607D01*
X406156Y496520D01*
X406285Y497500D01*
X406156Y498480D01*
X405778Y499393D01*
X405176Y500176D01*
X404393Y500778D01*
X403480Y501156D01*
X402500Y501285D01*
D02*
G37*
G36*
X392500D02*
X391520Y501156D01*
X390607Y500778D01*
X389824Y500176D01*
X389222Y499393D01*
X388844Y498480D01*
X388715Y497500D01*
X388844Y496520D01*
X389222Y495607D01*
X389824Y494824D01*
X390607Y494222D01*
X391520Y493844D01*
X392500Y493715D01*
X393480Y493844D01*
X394393Y494222D01*
X395177Y494824D01*
X395778Y495607D01*
X396156Y496520D01*
X396285Y497500D01*
X396156Y498480D01*
X395778Y499393D01*
X395177Y500176D01*
X394393Y500778D01*
X393480Y501156D01*
X392500Y501285D01*
D02*
G37*
G36*
X382500D02*
X381520Y501156D01*
X380607Y500778D01*
X379823Y500176D01*
X379222Y499393D01*
X378844Y498480D01*
X378715Y497500D01*
X378844Y496520D01*
X379222Y495607D01*
X379823Y494824D01*
X380607Y494222D01*
X381520Y493844D01*
X382500Y493715D01*
X383480Y493844D01*
X384393Y494222D01*
X385176Y494824D01*
X385778Y495607D01*
X386156Y496520D01*
X386285Y497500D01*
X386156Y498480D01*
X385778Y499393D01*
X385176Y500176D01*
X384393Y500778D01*
X383480Y501156D01*
X382500Y501285D01*
D02*
G37*
G36*
X256500Y485833D02*
X252500D01*
X251508Y485702D01*
X250584Y485319D01*
X249790Y484710D01*
X249181Y483916D01*
X248798Y482992D01*
X248667Y482000D01*
X248798Y481008D01*
X249181Y480084D01*
X249790Y479290D01*
X250584Y478681D01*
X251508Y478298D01*
X252500Y478167D01*
X256500D01*
X257492Y478298D01*
X258416Y478681D01*
X259210Y479290D01*
X259819Y480084D01*
X260202Y481008D01*
X260333Y482000D01*
X260202Y482992D01*
X259819Y483916D01*
X259210Y484710D01*
X258416Y485319D01*
X257492Y485702D01*
X256500Y485833D01*
D02*
G37*
G36*
X372000Y511421D02*
X371468Y511351D01*
X370507Y510953D01*
X369681Y510319D01*
X369047Y509493D01*
X368649Y508532D01*
X368579Y508000D01*
X372000D01*
Y511421D01*
D02*
G37*
G36*
X201500Y485833D02*
X197500D01*
X196508Y485702D01*
X195584Y485319D01*
X194790Y484710D01*
X194181Y483916D01*
X193798Y482992D01*
X193667Y482000D01*
X193798Y481008D01*
X194181Y480084D01*
X194790Y479290D01*
X195584Y478681D01*
X196508Y478298D01*
X197500Y478167D01*
X201500D01*
X202492Y478298D01*
X203416Y478681D01*
X204210Y479290D01*
X204819Y480084D01*
X205202Y481008D01*
X205333Y482000D01*
X205202Y482992D01*
X204819Y483916D01*
X204210Y484710D01*
X203416Y485319D01*
X202492Y485702D01*
X201500Y485833D01*
D02*
G37*
G36*
X272000Y490826D02*
X232000D01*
X231493Y490725D01*
X231063Y490437D01*
X226458Y485833D01*
X222500D01*
X221508Y485702D01*
X220584Y485319D01*
X219790Y484710D01*
X219181Y483916D01*
X218798Y482992D01*
X218667Y482000D01*
X218798Y481008D01*
X219181Y480084D01*
X219790Y479290D01*
X220584Y478681D01*
X221508Y478298D01*
X222500Y478167D01*
X226500D01*
X227492Y478298D01*
X228416Y478681D01*
X229210Y479290D01*
X229819Y480084D01*
X230202Y481008D01*
X230333Y482000D01*
X230202Y482992D01*
X229819Y483916D01*
X229210Y484710D01*
X229203Y484828D01*
X232549Y488174D01*
X271451D01*
X274798Y484828D01*
X274790Y484710D01*
X274181Y483916D01*
X273798Y482992D01*
X273667Y482000D01*
X273798Y481008D01*
X274181Y480084D01*
X274790Y479290D01*
X275584Y478681D01*
X276508Y478298D01*
X277500Y478167D01*
X281500D01*
X282492Y478298D01*
X283416Y478681D01*
X284210Y479290D01*
X284819Y480084D01*
X285202Y481008D01*
X285333Y482000D01*
X285202Y482992D01*
X284819Y483916D01*
X284210Y484710D01*
X283416Y485319D01*
X282492Y485702D01*
X281500Y485833D01*
X277542D01*
X272937Y490437D01*
X272507Y490725D01*
X272000Y490826D01*
D02*
G37*
G36*
X452500Y511285D02*
X451520Y511156D01*
X450607Y510778D01*
X449824Y510177D01*
X449222Y509393D01*
X448844Y508480D01*
X448715Y507500D01*
X448844Y506520D01*
X449222Y505607D01*
X449824Y504823D01*
X450607Y504222D01*
X451520Y503844D01*
X452500Y503715D01*
X453480Y503844D01*
X454393Y504222D01*
X455176Y504823D01*
X455778Y505607D01*
X456156Y506520D01*
X456285Y507500D01*
X456156Y508480D01*
X455778Y509393D01*
X455176Y510177D01*
X454393Y510778D01*
X453480Y511156D01*
X452500Y511285D01*
D02*
G37*
G36*
X462500D02*
X461520Y511156D01*
X460607Y510778D01*
X459824Y510177D01*
X459222Y509393D01*
X458844Y508480D01*
X458715Y507500D01*
X458844Y506520D01*
X459222Y505607D01*
X459824Y504823D01*
X460607Y504222D01*
X461520Y503844D01*
X462500Y503715D01*
X463480Y503844D01*
X464393Y504222D01*
X465176Y504823D01*
X465778Y505607D01*
X466156Y506520D01*
X466285Y507500D01*
X466156Y508480D01*
X465778Y509393D01*
X465176Y510177D01*
X464393Y510778D01*
X463480Y511156D01*
X462500Y511285D01*
D02*
G37*
%LPD*%
G36*
X359398Y401494D02*
X359418Y401174D01*
X359063Y400937D01*
X332051Y373925D01*
X331423D01*
X331022Y373846D01*
X330755Y374193D01*
X330727Y374258D01*
X358143Y401675D01*
X359335D01*
X359398Y401494D01*
D02*
G37*
G36*
X365828Y405174D02*
X365788Y405167D01*
X365027Y404658D01*
X364805Y404325D01*
X357594D01*
X357087Y404225D01*
X356657Y403937D01*
X291018Y338298D01*
X290393Y338778D01*
X289480Y339156D01*
X288824Y339243D01*
X288645Y339770D01*
X354549Y405675D01*
X365778D01*
X365828Y405174D01*
D02*
G37*
G36*
X328307Y371745D02*
X328654Y371478D01*
X328574Y371077D01*
Y370449D01*
X323551Y365425D01*
X323423D01*
X322916Y365325D01*
X322486Y365037D01*
X320963Y363514D01*
X320675Y363084D01*
X320574Y362577D01*
Y362449D01*
X299004Y340878D01*
X298001D01*
X297809Y341340D01*
X328242Y371773D01*
X328307Y371745D01*
D02*
G37*
G36*
X412563Y452063D02*
X412993Y451775D01*
X413500Y451675D01*
X417120D01*
X417342Y451342D01*
X418103Y450833D01*
X419000Y450655D01*
X419392Y450733D01*
X456175Y413951D01*
Y408526D01*
X455675Y408477D01*
X455572Y408992D01*
X455064Y409753D01*
X454303Y410261D01*
X453406Y410439D01*
X452508Y410261D01*
X451747Y409753D01*
X451239Y408992D01*
X451060Y408095D01*
X451239Y407197D01*
X451747Y406436D01*
X452080Y406214D01*
Y405241D01*
X451639Y405005D01*
X451397Y405167D01*
X450500Y405345D01*
X449603Y405167D01*
X448842Y404658D01*
X448620Y404325D01*
X447500D01*
X446993Y404225D01*
X446563Y403937D01*
X416288Y373662D01*
X415827Y373908D01*
X415845Y374000D01*
X415667Y374897D01*
X415158Y375658D01*
X414397Y376167D01*
X413500Y376345D01*
X413107Y376267D01*
X409326Y380049D01*
Y453500D01*
X409225Y454007D01*
X408937Y454437D01*
X402200Y461174D01*
X402407Y461674D01*
X402951D01*
X412563Y452063D01*
D02*
G37*
G36*
X392398Y464494D02*
X392418Y464175D01*
X392063Y463937D01*
X365440Y437315D01*
X364979Y437561D01*
X365002Y437677D01*
Y447128D01*
X382549Y464675D01*
X392335D01*
X392398Y464494D01*
D02*
G37*
G36*
X390612Y458031D02*
X390470Y457315D01*
X390648Y456418D01*
X391157Y455657D01*
X391917Y455148D01*
X392568Y455019D01*
X392740Y454484D01*
X361563Y423307D01*
X361275Y422877D01*
X361175Y422370D01*
Y415380D01*
X360842Y415158D01*
X360619Y414825D01*
X348221D01*
X347714Y414725D01*
X347284Y414437D01*
X303672Y370826D01*
X303165D01*
X303102Y371006D01*
X303082Y371325D01*
X303437Y371563D01*
X390152Y458277D01*
X390612Y458031D01*
D02*
G37*
G36*
X448830Y401262D02*
X406563Y358995D01*
X406275Y358565D01*
X406175Y358057D01*
Y339697D01*
X405675Y339527D01*
X405176Y340177D01*
X404393Y340778D01*
X403480Y341156D01*
X402500Y341285D01*
X401520Y341156D01*
X400607Y340778D01*
X399823Y340177D01*
X399325Y339527D01*
X398826Y339697D01*
Y352451D01*
X448049Y401675D01*
X448545D01*
X448830Y401262D01*
D02*
G37*
G36*
X396175Y101326D02*
X101326D01*
Y311175D01*
X396175D01*
Y101326D01*
D02*
G37*
%LPC*%
G36*
X345421Y154710D02*
X344690Y154614D01*
X344009Y154332D01*
X343424Y153883D01*
X342975Y153298D01*
X342693Y152617D01*
X342597Y151886D01*
X342693Y151155D01*
X342975Y150474D01*
X343424Y149889D01*
X344009Y149440D01*
X344690Y149158D01*
X345421Y149062D01*
X346152Y149158D01*
X346833Y149440D01*
X347418Y149889D01*
X347867Y150474D01*
X348149Y151155D01*
X348245Y151886D01*
X348149Y152617D01*
X347867Y153298D01*
X347418Y153883D01*
X346833Y154332D01*
X346152Y154614D01*
X345421Y154710D01*
D02*
G37*
G36*
X337547D02*
X336816Y154614D01*
X336135Y154332D01*
X335550Y153883D01*
X335102Y153298D01*
X334819Y152617D01*
X334723Y151886D01*
X334819Y151155D01*
X335102Y150474D01*
X335550Y149889D01*
X336135Y149440D01*
X336816Y149158D01*
X337547Y149062D01*
X338278Y149158D01*
X338959Y149440D01*
X339544Y149889D01*
X339993Y150474D01*
X340275Y151155D01*
X340371Y151886D01*
X340275Y152617D01*
X339993Y153298D01*
X339544Y153883D01*
X338959Y154332D01*
X338278Y154614D01*
X337547Y154710D01*
D02*
G37*
G36*
X353295D02*
X352564Y154614D01*
X351883Y154332D01*
X351298Y153883D01*
X350850Y153298D01*
X350567Y152617D01*
X350471Y151886D01*
X350567Y151155D01*
X350850Y150474D01*
X351298Y149889D01*
X351883Y149440D01*
X352564Y149158D01*
X353295Y149062D01*
X354026Y149158D01*
X354707Y149440D01*
X355292Y149889D01*
X355741Y150474D01*
X356023Y151155D01*
X356119Y151886D01*
X356023Y152617D01*
X355741Y153298D01*
X355292Y153883D01*
X354707Y154332D01*
X354026Y154614D01*
X353295Y154710D01*
D02*
G37*
G36*
X369043D02*
X368312Y154614D01*
X367631Y154332D01*
X367046Y153883D01*
X366598Y153298D01*
X366315Y152617D01*
X366219Y151886D01*
X366315Y151155D01*
X366598Y150474D01*
X367046Y149889D01*
X367631Y149440D01*
X368312Y149158D01*
X369043Y149062D01*
X369774Y149158D01*
X370455Y149440D01*
X371040Y149889D01*
X371489Y150474D01*
X371771Y151155D01*
X371867Y151886D01*
X371771Y152617D01*
X371489Y153298D01*
X371040Y153883D01*
X370455Y154332D01*
X369774Y154614D01*
X369043Y154710D01*
D02*
G37*
G36*
X361169D02*
X360438Y154614D01*
X359757Y154332D01*
X359172Y153883D01*
X358723Y153298D01*
X358441Y152617D01*
X358345Y151886D01*
X358441Y151155D01*
X358723Y150474D01*
X359172Y149889D01*
X359757Y149440D01*
X360438Y149158D01*
X361169Y149062D01*
X361900Y149158D01*
X362581Y149440D01*
X363166Y149889D01*
X363615Y150474D01*
X363897Y151155D01*
X363993Y151886D01*
X363897Y152617D01*
X363615Y153298D01*
X363166Y153883D01*
X362581Y154332D01*
X361900Y154614D01*
X361169Y154710D01*
D02*
G37*
G36*
X329673D02*
X328942Y154614D01*
X328261Y154332D01*
X327676Y153883D01*
X327227Y153298D01*
X326945Y152617D01*
X326849Y151886D01*
X326945Y151155D01*
X327227Y150474D01*
X327676Y149889D01*
X328261Y149440D01*
X328942Y149158D01*
X329673Y149062D01*
X330404Y149158D01*
X331085Y149440D01*
X331670Y149889D01*
X332119Y150474D01*
X332401Y151155D01*
X332497Y151886D01*
X332401Y152617D01*
X332119Y153298D01*
X331670Y153883D01*
X331085Y154332D01*
X330404Y154614D01*
X329673Y154710D01*
D02*
G37*
G36*
X342000Y131921D02*
X341468Y131851D01*
X340507Y131453D01*
X339681Y130819D01*
X339047Y129993D01*
X338649Y129032D01*
X338579Y128500D01*
X342000D01*
Y131921D01*
D02*
G37*
G36*
X382253Y292753D02*
X374747D01*
Y285247D01*
X381378D01*
X389175Y277451D01*
Y147049D01*
X377951Y135826D01*
X372543D01*
X372036Y135725D01*
X371606Y135437D01*
X368563Y132394D01*
X368275Y131964D01*
X368175Y131457D01*
Y126416D01*
X368104Y126387D01*
X367526Y125943D01*
X367315Y125669D01*
X366685D01*
X366475Y125943D01*
X365896Y126387D01*
X365223Y126666D01*
X364500Y126761D01*
X363777Y126666D01*
X363104Y126387D01*
X362526Y125943D01*
X362082Y125365D01*
X361803Y124691D01*
X361708Y123969D01*
Y120031D01*
X361803Y119309D01*
X362082Y118635D01*
X362526Y118057D01*
X363104Y117613D01*
X363777Y117334D01*
X364500Y117239D01*
X365223Y117334D01*
X365896Y117613D01*
X366475Y118057D01*
X366685Y118331D01*
X367315D01*
X367526Y118057D01*
X368104Y117613D01*
X368777Y117334D01*
X369500Y117239D01*
X370223Y117334D01*
X370896Y117613D01*
X371475Y118057D01*
X371685Y118331D01*
X372315D01*
X372526Y118057D01*
X373104Y117613D01*
X373777Y117334D01*
X374500Y117239D01*
X375223Y117334D01*
X375896Y117613D01*
X376474Y118057D01*
X376918Y118635D01*
X377197Y119309D01*
X377292Y120031D01*
Y123969D01*
X377197Y124691D01*
X376918Y125365D01*
X376474Y125943D01*
X375896Y126387D01*
X375223Y126666D01*
X374500Y126761D01*
X373777Y126666D01*
X373104Y126387D01*
X372526Y125943D01*
X372315Y125669D01*
X371685D01*
X371475Y125943D01*
X370896Y126387D01*
X370826Y126416D01*
Y130908D01*
X373092Y133175D01*
X378500D01*
X379007Y133275D01*
X379437Y133563D01*
X391437Y145563D01*
X391725Y145993D01*
X391826Y146500D01*
Y278000D01*
X391725Y278507D01*
X391437Y278937D01*
X382253Y288122D01*
Y292753D01*
D02*
G37*
G36*
X343000Y131921D02*
Y128500D01*
X346421D01*
X346351Y129032D01*
X345953Y129993D01*
X345319Y130819D01*
X344493Y131453D01*
X343532Y131851D01*
X343000Y131921D01*
D02*
G37*
G36*
X321799Y154710D02*
X321068Y154614D01*
X320387Y154332D01*
X319802Y153883D01*
X319353Y153298D01*
X319071Y152617D01*
X318975Y151886D01*
X319071Y151155D01*
X319353Y150474D01*
X319802Y149889D01*
X320387Y149440D01*
X321068Y149158D01*
X321799Y149062D01*
X322530Y149158D01*
X323211Y149440D01*
X323796Y149889D01*
X324245Y150474D01*
X324527Y151155D01*
X324623Y151886D01*
X324527Y152617D01*
X324245Y153298D01*
X323796Y153883D01*
X323211Y154332D01*
X322530Y154614D01*
X321799Y154710D01*
D02*
G37*
G36*
X313925D02*
X313194Y154614D01*
X312513Y154332D01*
X311928Y153883D01*
X311479Y153298D01*
X311197Y152617D01*
X311101Y151886D01*
X311197Y151155D01*
X311479Y150474D01*
X311928Y149889D01*
X312513Y149440D01*
X313194Y149158D01*
X313925Y149062D01*
X314656Y149158D01*
X315337Y149440D01*
X315922Y149889D01*
X316371Y150474D01*
X316653Y151155D01*
X316749Y151886D01*
X316653Y152617D01*
X316371Y153298D01*
X315922Y153883D01*
X315337Y154332D01*
X314656Y154614D01*
X313925Y154710D01*
D02*
G37*
G36*
X376917D02*
X376186Y154614D01*
X375505Y154332D01*
X374920Y153883D01*
X374471Y153298D01*
X374189Y152617D01*
X374093Y151886D01*
X374189Y151155D01*
X374471Y150474D01*
X374920Y149889D01*
X375505Y149440D01*
X376186Y149158D01*
X376917Y149062D01*
X377648Y149158D01*
X378329Y149440D01*
X378914Y149889D01*
X379363Y150474D01*
X379645Y151155D01*
X379742Y151886D01*
X379645Y152617D01*
X379363Y153298D01*
X378914Y153883D01*
X378329Y154332D01*
X377648Y154614D01*
X376917Y154710D01*
D02*
G37*
G36*
X261000Y223000D02*
X257778D01*
X257841Y222519D01*
X258219Y221606D01*
X258821Y220821D01*
X259606Y220219D01*
X260520Y219841D01*
X261000Y219777D01*
Y223000D01*
D02*
G37*
G36*
X379000Y221587D02*
X378072Y221464D01*
X377207Y221106D01*
X376464Y220536D01*
X375894Y219793D01*
X375700Y219325D01*
X364500D01*
X363993Y219225D01*
X363563Y218937D01*
X292951Y148326D01*
X264800D01*
X264606Y148793D01*
X264036Y149536D01*
X263293Y150106D01*
X262428Y150464D01*
X261500Y150587D01*
X260572Y150464D01*
X259707Y150106D01*
X258964Y149536D01*
X258394Y148793D01*
X258036Y147928D01*
X257913Y147000D01*
X258036Y146072D01*
X258394Y145207D01*
X258964Y144464D01*
X259707Y143894D01*
X260572Y143536D01*
X261500Y143413D01*
X262428Y143536D01*
X262896Y143729D01*
X265674Y140951D01*
Y124049D01*
X260378Y118753D01*
X254747D01*
Y111247D01*
X262253D01*
Y116878D01*
X267937Y122563D01*
X268225Y122993D01*
X268325Y123500D01*
Y141500D01*
X268225Y142007D01*
X267937Y142437D01*
X265200Y145175D01*
X265407Y145675D01*
X293500D01*
X294007Y145775D01*
X294437Y146063D01*
X365049Y216674D01*
X375700D01*
X375894Y216207D01*
X376464Y215464D01*
X377207Y214894D01*
X378072Y214536D01*
X379000Y214413D01*
X379928Y214536D01*
X380793Y214894D01*
X381536Y215464D01*
X382106Y216207D01*
X382464Y217072D01*
X382587Y218000D01*
X382464Y218928D01*
X382106Y219793D01*
X381536Y220536D01*
X380793Y221106D01*
X379928Y221464D01*
X379000Y221587D01*
D02*
G37*
G36*
X265223Y223000D02*
X262000D01*
Y219777D01*
X262480Y219841D01*
X263394Y220219D01*
X264179Y220821D01*
X264781Y221606D01*
X265159Y222519D01*
X265223Y223000D01*
D02*
G37*
G36*
X262000Y227222D02*
Y224000D01*
X265223D01*
X265159Y224481D01*
X264781Y225394D01*
X264179Y226179D01*
X263394Y226781D01*
X262480Y227159D01*
X262000Y227222D01*
D02*
G37*
G36*
X261000D02*
X260520Y227159D01*
X259606Y226781D01*
X258821Y226179D01*
X258219Y225394D01*
X257841Y224481D01*
X257778Y224000D01*
X261000D01*
Y227222D01*
D02*
G37*
G36*
X261500Y197087D02*
X260572Y196964D01*
X259707Y196606D01*
X258964Y196036D01*
X258394Y195293D01*
X258036Y194428D01*
X257913Y193500D01*
X258036Y192572D01*
X258394Y191707D01*
X258964Y190964D01*
X259707Y190394D01*
X260174Y190200D01*
Y180300D01*
X259707Y180106D01*
X258964Y179536D01*
X258394Y178793D01*
X258036Y177928D01*
X257913Y177000D01*
X258036Y176072D01*
X258394Y175207D01*
X258964Y174464D01*
X259707Y173894D01*
X260572Y173536D01*
X261500Y173413D01*
X262428Y173536D01*
X263293Y173894D01*
X264036Y174464D01*
X264606Y175207D01*
X264964Y176072D01*
X265087Y177000D01*
X264964Y177928D01*
X264606Y178793D01*
X264036Y179536D01*
X263293Y180106D01*
X262825Y180300D01*
Y190200D01*
X263293Y190394D01*
X264036Y190964D01*
X264606Y191707D01*
X264964Y192572D01*
X265087Y193500D01*
X264964Y194428D01*
X264606Y195293D01*
X264036Y196036D01*
X263293Y196606D01*
X262428Y196964D01*
X261500Y197087D01*
D02*
G37*
G36*
X200000Y288785D02*
X199020Y288656D01*
X198107Y288278D01*
X197324Y287677D01*
X196722Y286893D01*
X196344Y285980D01*
X196215Y285000D01*
X196344Y284020D01*
X196722Y283107D01*
X197324Y282324D01*
X198107Y281722D01*
X198674Y281487D01*
X198674Y164049D01*
X183951Y149326D01*
X157049D01*
X154325Y152049D01*
Y157620D01*
X154658Y157842D01*
X155167Y158603D01*
X155345Y159500D01*
X155167Y160397D01*
X154658Y161158D01*
X153897Y161667D01*
X153000Y161845D01*
X152103Y161667D01*
X151342Y161158D01*
X150833Y160397D01*
X150655Y159500D01*
X150833Y158603D01*
X151342Y157842D01*
X151674Y157620D01*
Y151500D01*
X151775Y150993D01*
X152063Y150563D01*
X155563Y147063D01*
X155993Y146775D01*
X156500Y146675D01*
X184500D01*
X185007Y146775D01*
X185437Y147063D01*
X200937Y162563D01*
X201225Y162993D01*
X201325Y163500D01*
X201325Y281487D01*
X201893Y281722D01*
X202677Y282324D01*
X203278Y283107D01*
X203656Y284020D01*
X203785Y285000D01*
X203656Y285980D01*
X203278Y286893D01*
X202677Y287677D01*
X201893Y288278D01*
X200980Y288656D01*
X200000Y288785D01*
D02*
G37*
G36*
X384791Y154710D02*
X384060Y154614D01*
X383379Y154332D01*
X382794Y153883D01*
X382346Y153298D01*
X382063Y152617D01*
X381967Y151886D01*
X382063Y151155D01*
X382346Y150474D01*
X382794Y149889D01*
X383379Y149440D01*
X384060Y149158D01*
X384791Y149062D01*
X385522Y149158D01*
X386203Y149440D01*
X386788Y149889D01*
X387237Y150474D01*
X387519Y151155D01*
X387615Y151886D01*
X387519Y152617D01*
X387237Y153298D01*
X386788Y153883D01*
X386203Y154332D01*
X385522Y154614D01*
X384791Y154710D01*
D02*
G37*
G36*
X228500Y158845D02*
X227603Y158667D01*
X226842Y158158D01*
X226333Y157397D01*
X226155Y156500D01*
X226233Y156107D01*
X211951Y141825D01*
X151881D01*
X151658Y142158D01*
X150897Y142667D01*
X150000Y142845D01*
X149103Y142667D01*
X148342Y142158D01*
X147833Y141397D01*
X147655Y140500D01*
X147833Y139603D01*
X148342Y138842D01*
X149103Y138333D01*
X150000Y138155D01*
X150897Y138333D01*
X151658Y138842D01*
X151881Y139174D01*
X212500D01*
X213007Y139275D01*
X213437Y139563D01*
X228108Y154233D01*
X228500Y154155D01*
X229397Y154333D01*
X230158Y154842D01*
X230667Y155603D01*
X230845Y156500D01*
X230667Y157397D01*
X230158Y158158D01*
X229397Y158667D01*
X228500Y158845D01*
D02*
G37*
G36*
X379000Y171587D02*
X378072Y171464D01*
X377207Y171106D01*
X376464Y170536D01*
X375894Y169793D01*
X375536Y168928D01*
X375413Y168000D01*
X375536Y167072D01*
X375894Y166207D01*
X376464Y165464D01*
X377207Y164894D01*
X378072Y164536D01*
X379000Y164413D01*
X379928Y164536D01*
X380793Y164894D01*
X381536Y165464D01*
X382106Y166207D01*
X382464Y167072D01*
X382587Y168000D01*
X382464Y168928D01*
X382106Y169793D01*
X381536Y170536D01*
X380793Y171106D01*
X379928Y171464D01*
X379000Y171587D01*
D02*
G37*
G36*
X176000Y262345D02*
X175103Y262167D01*
X174342Y261658D01*
X173833Y260897D01*
X173655Y260000D01*
X173833Y259103D01*
X174342Y258342D01*
X175103Y257833D01*
X175643Y257726D01*
Y245380D01*
X175310Y245158D01*
X174802Y244397D01*
X174623Y243500D01*
X174802Y242603D01*
X175310Y241842D01*
X176071Y241333D01*
X176969Y241155D01*
X177866Y241333D01*
X178627Y241842D01*
X179135Y242603D01*
X179174Y242801D01*
X179674Y242752D01*
Y162881D01*
X179342Y162658D01*
X178833Y161897D01*
X178655Y161000D01*
X178833Y160103D01*
X179342Y159342D01*
X180103Y158833D01*
X181000Y158655D01*
X181897Y158833D01*
X182658Y159342D01*
X183167Y160103D01*
X183345Y161000D01*
X183167Y161897D01*
X182658Y162658D01*
X182325Y162881D01*
Y242141D01*
X182343Y242155D01*
X183240Y242333D01*
X184001Y242842D01*
X184509Y243603D01*
X184688Y244500D01*
X184509Y245397D01*
X184001Y246158D01*
X183240Y246667D01*
X182343Y246845D01*
X181445Y246667D01*
X180684Y246158D01*
X180176Y245397D01*
X179998Y244500D01*
X180076Y244108D01*
X180063Y244095D01*
X179787Y243682D01*
X179708Y243670D01*
X179273Y243703D01*
X179135Y244397D01*
X178627Y245158D01*
X178294Y245380D01*
Y259032D01*
X178223Y259387D01*
X178345Y260000D01*
X178167Y260897D01*
X177658Y261658D01*
X176897Y262167D01*
X176000Y262345D01*
D02*
G37*
G36*
X315000Y124434D02*
X313982Y124300D01*
X313033Y123907D01*
X312218Y123282D01*
X311593Y122467D01*
X311200Y121518D01*
X311066Y120500D01*
X311200Y119482D01*
X311593Y118533D01*
X312218Y117719D01*
X313033Y117093D01*
X313982Y116700D01*
X315000Y116566D01*
X316018Y116700D01*
X316967Y117093D01*
X317781Y117719D01*
X318407Y118533D01*
X318800Y119482D01*
X318934Y120500D01*
X318800Y121518D01*
X318407Y122467D01*
X317781Y123282D01*
X316967Y123907D01*
X316018Y124300D01*
X315000Y124434D01*
D02*
G37*
G36*
X305000Y124585D02*
X303943Y124446D01*
X302958Y124038D01*
X302112Y123389D01*
X301462Y122543D01*
X301054Y121557D01*
X300915Y120500D01*
X301054Y119443D01*
X301462Y118457D01*
X302112Y117612D01*
X302958Y116962D01*
X303943Y116554D01*
X305000Y116415D01*
X306057Y116554D01*
X307043Y116962D01*
X307889Y117612D01*
X308538Y118457D01*
X308946Y119443D01*
X309085Y120500D01*
X308946Y121557D01*
X308538Y122543D01*
X307889Y123389D01*
X307043Y124038D01*
X306057Y124446D01*
X305000Y124585D01*
D02*
G37*
G36*
X294500Y124750D02*
X290750D01*
Y121000D01*
X294500D01*
Y124750D01*
D02*
G37*
G36*
X258000Y124500D02*
X254579D01*
X254649Y123968D01*
X255047Y123007D01*
X255681Y122181D01*
X256507Y121547D01*
X257468Y121149D01*
X258000Y121079D01*
Y124500D01*
D02*
G37*
G36*
X299250Y124750D02*
X295500D01*
Y121000D01*
X299250D01*
Y124750D01*
D02*
G37*
G36*
Y120000D02*
X295500D01*
Y116250D01*
X299250D01*
Y120000D01*
D02*
G37*
G36*
X130000Y118785D02*
X129020Y118656D01*
X128107Y118278D01*
X127323Y117676D01*
X126722Y116893D01*
X126344Y115980D01*
X126215Y115000D01*
X126344Y114020D01*
X126722Y113107D01*
X127323Y112323D01*
X128107Y111722D01*
X129020Y111344D01*
X130000Y111215D01*
X130980Y111344D01*
X131893Y111722D01*
X132676Y112323D01*
X133278Y113107D01*
X133656Y114020D01*
X133785Y115000D01*
X133656Y115980D01*
X133278Y116893D01*
X132676Y117676D01*
X131893Y118278D01*
X130980Y118656D01*
X130000Y118785D01*
D02*
G37*
G36*
X223921Y114500D02*
X220500D01*
Y111079D01*
X221032Y111149D01*
X221993Y111547D01*
X222819Y112181D01*
X223453Y113007D01*
X223851Y113968D01*
X223921Y114500D01*
D02*
G37*
G36*
X346253Y121753D02*
X338747D01*
Y114247D01*
X346253D01*
Y121753D01*
D02*
G37*
G36*
X294500Y120000D02*
X290750D01*
Y116250D01*
X294500D01*
Y120000D01*
D02*
G37*
G36*
X220500Y118921D02*
Y115500D01*
X223921D01*
X223851Y116032D01*
X223453Y116993D01*
X222819Y117819D01*
X221993Y118453D01*
X221032Y118851D01*
X220500Y118921D01*
D02*
G37*
G36*
X262421Y124500D02*
X259000D01*
Y121079D01*
X259532Y121149D01*
X260493Y121547D01*
X261319Y122181D01*
X261953Y123007D01*
X262351Y123968D01*
X262421Y124500D01*
D02*
G37*
G36*
X342000Y127500D02*
X338579D01*
X338649Y126968D01*
X339047Y126007D01*
X339681Y125181D01*
X340507Y124547D01*
X341468Y124149D01*
X342000Y124079D01*
Y127500D01*
D02*
G37*
G36*
X210000Y128785D02*
X209020Y128656D01*
X208107Y128278D01*
X207324Y127676D01*
X206722Y126893D01*
X206344Y125980D01*
X206215Y125000D01*
X206344Y124020D01*
X206722Y123107D01*
X207324Y122324D01*
X208107Y121722D01*
X209020Y121344D01*
X210000Y121215D01*
X210980Y121344D01*
X211893Y121722D01*
X212677Y122324D01*
X213278Y123107D01*
X213656Y124020D01*
X213785Y125000D01*
X213656Y125980D01*
X213278Y126893D01*
X212677Y127676D01*
X211893Y128278D01*
X210980Y128656D01*
X210000Y128785D01*
D02*
G37*
G36*
X346421Y127500D02*
X343000D01*
Y124079D01*
X343532Y124149D01*
X344493Y124547D01*
X345319Y125181D01*
X345953Y126007D01*
X346351Y126968D01*
X346421Y127500D01*
D02*
G37*
G36*
X259000Y128921D02*
Y125500D01*
X262421D01*
X262351Y126032D01*
X261953Y126993D01*
X261319Y127819D01*
X260493Y128453D01*
X259532Y128851D01*
X259000Y128921D01*
D02*
G37*
G36*
X258000D02*
X257468Y128851D01*
X256507Y128453D01*
X255681Y127819D01*
X255047Y126993D01*
X254649Y126032D01*
X254579Y125500D01*
X258000D01*
Y128921D01*
D02*
G37*
G36*
X200000Y128785D02*
X199020Y128656D01*
X198107Y128278D01*
X197324Y127676D01*
X196722Y126893D01*
X196344Y125980D01*
X196215Y125000D01*
X196344Y124020D01*
X196722Y123107D01*
X197324Y122324D01*
X198107Y121722D01*
X199020Y121344D01*
X200000Y121215D01*
X200980Y121344D01*
X201893Y121722D01*
X202677Y122324D01*
X203278Y123107D01*
X203656Y124020D01*
X203785Y125000D01*
X203656Y125980D01*
X203278Y126893D01*
X202677Y127676D01*
X201893Y128278D01*
X200980Y128656D01*
X200000Y128785D01*
D02*
G37*
G36*
X160000D02*
X159020Y128656D01*
X158107Y128278D01*
X157324Y127676D01*
X156722Y126893D01*
X156344Y125980D01*
X156215Y125000D01*
X156344Y124020D01*
X156722Y123107D01*
X157324Y122324D01*
X158107Y121722D01*
X159020Y121344D01*
X160000Y121215D01*
X160980Y121344D01*
X161893Y121722D01*
X162677Y122324D01*
X163278Y123107D01*
X163656Y124020D01*
X163785Y125000D01*
X163656Y125980D01*
X163278Y126893D01*
X162677Y127676D01*
X161893Y128278D01*
X160980Y128656D01*
X160000Y128785D01*
D02*
G37*
G36*
X130000D02*
X129020Y128656D01*
X128107Y128278D01*
X127323Y127676D01*
X126722Y126893D01*
X126344Y125980D01*
X126215Y125000D01*
X126344Y124020D01*
X126722Y123107D01*
X127323Y122324D01*
X128107Y121722D01*
X129020Y121344D01*
X130000Y121215D01*
X130980Y121344D01*
X131893Y121722D01*
X132676Y122324D01*
X133278Y123107D01*
X133656Y124020D01*
X133785Y125000D01*
X133656Y125980D01*
X133278Y126893D01*
X132676Y127676D01*
X131893Y128278D01*
X130980Y128656D01*
X130000Y128785D01*
D02*
G37*
G36*
X170000D02*
X169020Y128656D01*
X168107Y128278D01*
X167324Y127676D01*
X166722Y126893D01*
X166344Y125980D01*
X166215Y125000D01*
X166344Y124020D01*
X166722Y123107D01*
X167324Y122324D01*
X168107Y121722D01*
X169020Y121344D01*
X170000Y121215D01*
X170980Y121344D01*
X171893Y121722D01*
X172677Y122324D01*
X173278Y123107D01*
X173656Y124020D01*
X173785Y125000D01*
X173656Y125980D01*
X173278Y126893D01*
X172677Y127676D01*
X171893Y128278D01*
X170980Y128656D01*
X170000Y128785D01*
D02*
G37*
G36*
X190000D02*
X189020Y128656D01*
X188107Y128278D01*
X187323Y127676D01*
X186722Y126893D01*
X186344Y125980D01*
X186215Y125000D01*
X186344Y124020D01*
X186722Y123107D01*
X187323Y122324D01*
X188107Y121722D01*
X189020Y121344D01*
X190000Y121215D01*
X190980Y121344D01*
X191893Y121722D01*
X192676Y122324D01*
X193278Y123107D01*
X193656Y124020D01*
X193785Y125000D01*
X193656Y125980D01*
X193278Y126893D01*
X192676Y127676D01*
X191893Y128278D01*
X190980Y128656D01*
X190000Y128785D01*
D02*
G37*
G36*
X180000D02*
X179020Y128656D01*
X178107Y128278D01*
X177323Y127676D01*
X176722Y126893D01*
X176344Y125980D01*
X176215Y125000D01*
X176344Y124020D01*
X176722Y123107D01*
X177323Y122324D01*
X178107Y121722D01*
X179020Y121344D01*
X180000Y121215D01*
X180980Y121344D01*
X181893Y121722D01*
X182676Y122324D01*
X183278Y123107D01*
X183656Y124020D01*
X183785Y125000D01*
X183656Y125980D01*
X183278Y126893D01*
X182676Y127676D01*
X181893Y128278D01*
X180980Y128656D01*
X180000Y128785D01*
D02*
G37*
G36*
X313425Y238000D02*
X310965D01*
X311002Y237717D01*
X311305Y236987D01*
X311786Y236360D01*
X312412Y235879D01*
X313142Y235577D01*
X313425Y235540D01*
Y238000D01*
D02*
G37*
G36*
X209500Y288921D02*
X208968Y288851D01*
X208007Y288453D01*
X207181Y287819D01*
X206547Y286993D01*
X206149Y286032D01*
X206079Y285500D01*
X209500D01*
Y288921D01*
D02*
G37*
G36*
X368500Y292785D02*
X367520Y292656D01*
X366607Y292278D01*
X365824Y291676D01*
X365222Y290893D01*
X364844Y289980D01*
X364715Y289000D01*
X364844Y288020D01*
X365222Y287107D01*
X365824Y286323D01*
X366607Y285722D01*
X367520Y285344D01*
X368500Y285215D01*
X369480Y285344D01*
X370393Y285722D01*
X371177Y286323D01*
X371778Y287107D01*
X372156Y288020D01*
X372285Y289000D01*
X372156Y289980D01*
X371778Y290893D01*
X371177Y291676D01*
X370393Y292278D01*
X369480Y292656D01*
X368500Y292785D01*
D02*
G37*
G36*
X358500D02*
X357520Y292656D01*
X356607Y292278D01*
X355823Y291676D01*
X355222Y290893D01*
X354844Y289980D01*
X354715Y289000D01*
X354844Y288020D01*
X355222Y287107D01*
X355823Y286323D01*
X356607Y285722D01*
X357520Y285344D01*
X358500Y285215D01*
X359480Y285344D01*
X360393Y285722D01*
X361176Y286323D01*
X361778Y287107D01*
X362156Y288020D01*
X362285Y289000D01*
X362156Y289980D01*
X361778Y290893D01*
X361176Y291676D01*
X360393Y292278D01*
X359480Y292656D01*
X358500Y292785D01*
D02*
G37*
G36*
X292921Y290000D02*
X289500D01*
Y286579D01*
X290032Y286649D01*
X290993Y287047D01*
X291819Y287681D01*
X292453Y288507D01*
X292851Y289468D01*
X292921Y290000D01*
D02*
G37*
G36*
X288500D02*
X285079D01*
X285149Y289468D01*
X285547Y288507D01*
X286181Y287681D01*
X287007Y287047D01*
X287968Y286649D01*
X288500Y286579D01*
Y290000D01*
D02*
G37*
G36*
X210500Y288921D02*
Y285500D01*
X213921D01*
X213851Y286032D01*
X213453Y286993D01*
X212819Y287819D01*
X211993Y288453D01*
X211032Y288851D01*
X210500Y288921D01*
D02*
G37*
G36*
X220000Y288785D02*
X219020Y288656D01*
X218107Y288278D01*
X217323Y287677D01*
X216722Y286893D01*
X216344Y285980D01*
X216215Y285000D01*
X216344Y284020D01*
X216722Y283107D01*
X217323Y282324D01*
X218107Y281722D01*
X219020Y281344D01*
X220000Y281215D01*
X220980Y281344D01*
X221893Y281722D01*
X222676Y282324D01*
X223278Y283107D01*
X223656Y284020D01*
X223785Y285000D01*
X223656Y285980D01*
X223278Y286893D01*
X222676Y287677D01*
X221893Y288278D01*
X220980Y288656D01*
X220000Y288785D01*
D02*
G37*
G36*
X180000D02*
X179020Y288656D01*
X178107Y288278D01*
X177323Y287677D01*
X176722Y286893D01*
X176344Y285980D01*
X176215Y285000D01*
X176344Y284020D01*
X176722Y283107D01*
X177323Y282324D01*
X178107Y281722D01*
X179020Y281344D01*
X180000Y281215D01*
X180980Y281344D01*
X181893Y281722D01*
X182676Y282324D01*
X183278Y283107D01*
X183656Y284020D01*
X183785Y285000D01*
X183656Y285980D01*
X183278Y286893D01*
X182676Y287677D01*
X181893Y288278D01*
X180980Y288656D01*
X180000Y288785D01*
D02*
G37*
G36*
X140000D02*
X139020Y288656D01*
X138107Y288278D01*
X137323Y287677D01*
X136722Y286893D01*
X136344Y285980D01*
X136215Y285000D01*
X136344Y284020D01*
X136722Y283107D01*
X137323Y282324D01*
X138107Y281722D01*
X139020Y281344D01*
X140000Y281215D01*
X140980Y281344D01*
X141893Y281722D01*
X142676Y282324D01*
X143278Y283107D01*
X143656Y284020D01*
X143785Y285000D01*
X143656Y285980D01*
X143278Y286893D01*
X142676Y287677D01*
X141893Y288278D01*
X140980Y288656D01*
X140000Y288785D01*
D02*
G37*
G36*
X352421Y288500D02*
X349000D01*
Y285079D01*
X349532Y285149D01*
X350493Y285547D01*
X351319Y286181D01*
X351953Y287007D01*
X352351Y287968D01*
X352421Y288500D01*
D02*
G37*
G36*
X348000D02*
X344579D01*
X344649Y287968D01*
X345047Y287007D01*
X345681Y286181D01*
X346507Y285547D01*
X347468Y285149D01*
X348000Y285079D01*
Y288500D01*
D02*
G37*
G36*
X261500Y288190D02*
X260675Y288081D01*
X259905Y287762D01*
X259245Y287255D01*
X258738Y286595D01*
X258419Y285825D01*
X258311Y285000D01*
X258419Y284174D01*
X258738Y283405D01*
X259245Y282745D01*
X259905Y282238D01*
X260675Y281919D01*
X261500Y281810D01*
X262326Y281919D01*
X263095Y282238D01*
X263755Y282745D01*
X264262Y283405D01*
X264581Y284174D01*
X264689Y285000D01*
X264581Y285825D01*
X264262Y286595D01*
X263755Y287255D01*
X263095Y287762D01*
X262326Y288081D01*
X261500Y288190D01*
D02*
G37*
G36*
X190000Y298785D02*
X189020Y298656D01*
X188107Y298278D01*
X187323Y297676D01*
X186722Y296893D01*
X186344Y295980D01*
X186215Y295000D01*
X186344Y294020D01*
X186722Y293107D01*
X187323Y292323D01*
X188107Y291722D01*
X189020Y291344D01*
X190000Y291215D01*
X190980Y291344D01*
X191893Y291722D01*
X192676Y292323D01*
X193278Y293107D01*
X193656Y294020D01*
X193785Y295000D01*
X193656Y295980D01*
X193278Y296893D01*
X192676Y297676D01*
X191893Y298278D01*
X190980Y298656D01*
X190000Y298785D01*
D02*
G37*
G36*
X180000D02*
X179020Y298656D01*
X178107Y298278D01*
X177323Y297676D01*
X176722Y296893D01*
X176344Y295980D01*
X176215Y295000D01*
X176344Y294020D01*
X176722Y293107D01*
X177323Y292323D01*
X178107Y291722D01*
X179020Y291344D01*
X180000Y291215D01*
X180980Y291344D01*
X181893Y291722D01*
X182676Y292323D01*
X183278Y293107D01*
X183656Y294020D01*
X183785Y295000D01*
X183656Y295980D01*
X183278Y296893D01*
X182676Y297676D01*
X181893Y298278D01*
X180980Y298656D01*
X180000Y298785D01*
D02*
G37*
G36*
X170000D02*
X169020Y298656D01*
X168107Y298278D01*
X167324Y297676D01*
X166722Y296893D01*
X166344Y295980D01*
X166215Y295000D01*
X166344Y294020D01*
X166722Y293107D01*
X167324Y292323D01*
X168107Y291722D01*
X169020Y291344D01*
X170000Y291215D01*
X170980Y291344D01*
X171893Y291722D01*
X172677Y292323D01*
X173278Y293107D01*
X173656Y294020D01*
X173785Y295000D01*
X173656Y295980D01*
X173278Y296893D01*
X172677Y297676D01*
X171893Y298278D01*
X170980Y298656D01*
X170000Y298785D01*
D02*
G37*
G36*
X223753Y298753D02*
X216247D01*
Y291247D01*
X223753D01*
Y298753D01*
D02*
G37*
G36*
X210000Y298785D02*
X209020Y298656D01*
X208107Y298278D01*
X207324Y297676D01*
X206722Y296893D01*
X206344Y295980D01*
X206215Y295000D01*
X206344Y294020D01*
X206722Y293107D01*
X207324Y292323D01*
X208107Y291722D01*
X209020Y291344D01*
X210000Y291215D01*
X210980Y291344D01*
X211893Y291722D01*
X212677Y292323D01*
X213278Y293107D01*
X213656Y294020D01*
X213785Y295000D01*
X213656Y295980D01*
X213278Y296893D01*
X212677Y297676D01*
X211893Y298278D01*
X210980Y298656D01*
X210000Y298785D01*
D02*
G37*
G36*
X200000D02*
X199020Y298656D01*
X198107Y298278D01*
X197324Y297676D01*
X196722Y296893D01*
X196344Y295980D01*
X196215Y295000D01*
X196344Y294020D01*
X196722Y293107D01*
X197324Y292323D01*
X198107Y291722D01*
X199020Y291344D01*
X200000Y291215D01*
X200980Y291344D01*
X201893Y291722D01*
X202677Y292323D01*
X203278Y293107D01*
X203656Y294020D01*
X203785Y295000D01*
X203656Y295980D01*
X203278Y296893D01*
X202677Y297676D01*
X201893Y298278D01*
X200980Y298656D01*
X200000Y298785D01*
D02*
G37*
G36*
X348000Y292921D02*
X347468Y292851D01*
X346507Y292453D01*
X345681Y291819D01*
X345047Y290993D01*
X344649Y290032D01*
X344579Y289500D01*
X348000D01*
Y292921D01*
D02*
G37*
G36*
X160000Y298785D02*
X159020Y298656D01*
X158107Y298278D01*
X157324Y297676D01*
X156722Y296893D01*
X156344Y295980D01*
X156215Y295000D01*
X156344Y294020D01*
X156722Y293107D01*
X157324Y292323D01*
X158107Y291722D01*
X159020Y291344D01*
X160000Y291215D01*
X160980Y291344D01*
X161547Y291579D01*
X163674Y289451D01*
Y287197D01*
X163174Y287027D01*
X162677Y287677D01*
X161893Y288278D01*
X160980Y288656D01*
X160000Y288785D01*
X159020Y288656D01*
X158107Y288278D01*
X157324Y287677D01*
X156825Y287027D01*
X156325Y287197D01*
Y290000D01*
X156225Y290507D01*
X155937Y290937D01*
X153421Y293453D01*
X153656Y294020D01*
X153785Y295000D01*
X153656Y295980D01*
X153278Y296893D01*
X152676Y297676D01*
X151893Y298278D01*
X150980Y298656D01*
X150000Y298785D01*
X149020Y298656D01*
X148107Y298278D01*
X147324Y297676D01*
X146722Y296893D01*
X146344Y295980D01*
X146215Y295000D01*
X146344Y294020D01*
X146722Y293107D01*
X147324Y292323D01*
X148107Y291722D01*
X149020Y291344D01*
X150000Y291215D01*
X150980Y291344D01*
X151547Y291579D01*
X153674Y289451D01*
Y287197D01*
X153174Y287027D01*
X152676Y287677D01*
X151893Y288278D01*
X150980Y288656D01*
X150000Y288785D01*
X149020Y288656D01*
X148107Y288278D01*
X147324Y287677D01*
X146722Y286893D01*
X146344Y285980D01*
X146215Y285000D01*
X146344Y284020D01*
X146722Y283107D01*
X147324Y282324D01*
X148107Y281722D01*
X149020Y281344D01*
X150000Y281215D01*
X150980Y281344D01*
X151893Y281722D01*
X152676Y282324D01*
X153174Y282973D01*
X153674Y282803D01*
Y279500D01*
X153775Y278993D01*
X154063Y278563D01*
X157175Y275451D01*
Y168095D01*
X157275Y167587D01*
X157563Y167157D01*
X164328Y160392D01*
X164249Y160000D01*
X164428Y159103D01*
X164936Y158342D01*
X165697Y157833D01*
X166595Y157655D01*
X167492Y157833D01*
X168253Y158342D01*
X168761Y159103D01*
X168939Y160000D01*
X168761Y160897D01*
X168253Y161658D01*
X167492Y162167D01*
X166595Y162345D01*
X166202Y162267D01*
X159826Y168643D01*
Y276000D01*
X159725Y276507D01*
X159437Y276937D01*
X156325Y280049D01*
Y282803D01*
X156825Y282973D01*
X157324Y282324D01*
X158107Y281722D01*
X159020Y281344D01*
X160000Y281215D01*
X160980Y281344D01*
X161893Y281722D01*
X162677Y282324D01*
X163174Y282973D01*
X163674Y282803D01*
Y281500D01*
X163775Y280993D01*
X164063Y280563D01*
X185675Y258951D01*
Y243500D01*
X185775Y242993D01*
X186063Y242563D01*
X187233Y241392D01*
X187155Y241000D01*
X187333Y240103D01*
X187842Y239342D01*
X188603Y238833D01*
X189500Y238655D01*
X190397Y238833D01*
X190674Y239019D01*
X191174Y238751D01*
Y237549D01*
X187063Y233437D01*
X186775Y233007D01*
X186674Y232500D01*
Y164881D01*
X186342Y164658D01*
X185833Y163897D01*
X185655Y163000D01*
X185833Y162103D01*
X186342Y161342D01*
X187103Y160833D01*
X188000Y160655D01*
X188897Y160833D01*
X189658Y161342D01*
X190167Y162103D01*
X190345Y163000D01*
X190167Y163897D01*
X189658Y164658D01*
X189325Y164881D01*
Y231951D01*
X193437Y236063D01*
X193725Y236493D01*
X193825Y237000D01*
Y244555D01*
X194230Y244849D01*
X194675Y244714D01*
Y164549D01*
X185951Y155825D01*
X159380D01*
X159158Y156158D01*
X158397Y156667D01*
X157500Y156845D01*
X156603Y156667D01*
X155842Y156158D01*
X155333Y155397D01*
X155155Y154500D01*
X155333Y153603D01*
X155842Y152842D01*
X156603Y152333D01*
X157500Y152155D01*
X158397Y152333D01*
X159158Y152842D01*
X159380Y153174D01*
X186500D01*
X187007Y153275D01*
X187437Y153563D01*
X196937Y163063D01*
X197225Y163493D01*
X197326Y164000D01*
Y279000D01*
X197225Y279507D01*
X196937Y279937D01*
X193421Y283453D01*
X193656Y284020D01*
X193785Y285000D01*
X193656Y285980D01*
X193278Y286893D01*
X192676Y287677D01*
X191893Y288278D01*
X190980Y288656D01*
X190000Y288785D01*
X189020Y288656D01*
X188107Y288278D01*
X187323Y287677D01*
X186722Y286893D01*
X186344Y285980D01*
X186215Y285000D01*
X186344Y284020D01*
X186722Y283107D01*
X187323Y282324D01*
X188107Y281722D01*
X189020Y281344D01*
X190000Y281215D01*
X190980Y281344D01*
X191547Y281579D01*
X194675Y278451D01*
Y248286D01*
X194175Y248134D01*
X194158Y248158D01*
X193397Y248667D01*
X192500Y248845D01*
X191603Y248667D01*
X190842Y248158D01*
X190333Y247397D01*
X190155Y246500D01*
X190333Y245603D01*
X190842Y244842D01*
X191174Y244619D01*
Y243249D01*
X190674Y242981D01*
X190397Y243167D01*
X189500Y243345D01*
X189108Y243267D01*
X188326Y244049D01*
Y259500D01*
X188225Y260007D01*
X187937Y260437D01*
X166325Y282049D01*
Y282803D01*
X166825Y282973D01*
X167324Y282324D01*
X168107Y281722D01*
X169020Y281344D01*
X170000Y281215D01*
X170980Y281344D01*
X171893Y281722D01*
X172677Y282324D01*
X173278Y283107D01*
X173656Y284020D01*
X173785Y285000D01*
X173656Y285980D01*
X173278Y286893D01*
X172677Y287677D01*
X171893Y288278D01*
X170980Y288656D01*
X170000Y288785D01*
X169020Y288656D01*
X168107Y288278D01*
X167324Y287677D01*
X166825Y287027D01*
X166325Y287197D01*
Y290000D01*
X166225Y290507D01*
X165937Y290937D01*
X163421Y293453D01*
X163656Y294020D01*
X163785Y295000D01*
X163656Y295980D01*
X163278Y296893D01*
X162677Y297676D01*
X161893Y298278D01*
X160980Y298656D01*
X160000Y298785D01*
D02*
G37*
G36*
X304000Y296826D02*
X283000D01*
X282493Y296725D01*
X282063Y296437D01*
X273063Y287437D01*
X272775Y287007D01*
X272674Y286500D01*
Y247549D01*
X221563Y196437D01*
X221275Y196007D01*
X221175Y195500D01*
Y187945D01*
X220770Y187651D01*
X220325Y187785D01*
Y196451D01*
X226937Y203063D01*
X227225Y203493D01*
X227326Y204000D01*
Y218619D01*
X227658Y218842D01*
X228167Y219603D01*
X228345Y220500D01*
X228167Y221397D01*
X227658Y222158D01*
X226897Y222667D01*
X226000Y222845D01*
X225908Y222827D01*
X225662Y223288D01*
X228049Y225675D01*
X229119D01*
X229342Y225342D01*
X230103Y224833D01*
X231000Y224655D01*
X231897Y224833D01*
X232658Y225342D01*
X233167Y226103D01*
X233345Y227000D01*
X233167Y227897D01*
X232658Y228658D01*
X231897Y229167D01*
X231000Y229345D01*
X230103Y229167D01*
X229342Y228658D01*
X229119Y228326D01*
X227500D01*
X227384Y228302D01*
X227138Y228763D01*
X260405Y262031D01*
X260675Y261919D01*
X261500Y261810D01*
X262326Y261919D01*
X263095Y262238D01*
X263755Y262745D01*
X264262Y263405D01*
X264581Y264175D01*
X264689Y265000D01*
X264581Y265826D01*
X264262Y266595D01*
X263755Y267255D01*
X263095Y267762D01*
X262326Y268081D01*
X261500Y268190D01*
X260675Y268081D01*
X259905Y267762D01*
X259245Y267255D01*
X258738Y266595D01*
X258419Y265826D01*
X258311Y265000D01*
X258419Y264175D01*
X258531Y263905D01*
X210063Y215437D01*
X209775Y215007D01*
X209675Y214500D01*
Y201380D01*
X209342Y201158D01*
X208833Y200397D01*
X208655Y199500D01*
X208833Y198603D01*
X209342Y197842D01*
X210103Y197333D01*
X211000Y197155D01*
X211897Y197333D01*
X212658Y197842D01*
X213167Y198603D01*
X213345Y199500D01*
X213167Y200397D01*
X212658Y201158D01*
X212326Y201380D01*
Y213951D01*
X214237Y215862D01*
X214698Y215616D01*
X214674Y215500D01*
Y171000D01*
X214775Y170493D01*
X215063Y170063D01*
X219563Y165563D01*
X219993Y165275D01*
X220500Y165174D01*
X304000D01*
X304507Y165275D01*
X304937Y165563D01*
X338608Y199233D01*
X339000Y199155D01*
X339897Y199333D01*
X340658Y199842D01*
X341167Y200603D01*
X341345Y201500D01*
X341167Y202397D01*
X340658Y203158D01*
X339897Y203667D01*
X339000Y203845D01*
X338103Y203667D01*
X337342Y203158D01*
X336833Y202397D01*
X336655Y201500D01*
X336733Y201108D01*
X303451Y167825D01*
X221049D01*
X217325Y171549D01*
Y182335D01*
X217506Y182398D01*
X217826Y182418D01*
X218063Y182063D01*
X223063Y177063D01*
X223493Y176775D01*
X224000Y176674D01*
X231500D01*
X232007Y176775D01*
X232437Y177063D01*
X267549Y212175D01*
X351917D01*
X352425Y212275D01*
X352855Y212563D01*
X376100Y235808D01*
X376186Y235772D01*
X376917Y235676D01*
X377648Y235772D01*
X378329Y236054D01*
X378914Y236503D01*
X379363Y237088D01*
X379645Y237769D01*
X379742Y238500D01*
X379645Y239231D01*
X379363Y239912D01*
X378914Y240497D01*
X378329Y240946D01*
X377648Y241228D01*
X376917Y241324D01*
X376186Y241228D01*
X375505Y240946D01*
X374920Y240497D01*
X374471Y239912D01*
X374189Y239231D01*
X374093Y238500D01*
X374189Y237769D01*
X374225Y237682D01*
X351368Y214826D01*
X267000D01*
X266493Y214725D01*
X266063Y214437D01*
X230951Y179325D01*
X224549D01*
X220325Y183549D01*
Y184214D01*
X220826Y184366D01*
X220842Y184342D01*
X221603Y183833D01*
X222500Y183655D01*
X223397Y183833D01*
X224158Y184342D01*
X224667Y185103D01*
X224845Y186000D01*
X224667Y186897D01*
X224158Y187658D01*
X223826Y187881D01*
Y194951D01*
X274937Y246063D01*
X275225Y246493D01*
X275325Y247000D01*
Y285951D01*
X283549Y294175D01*
X286474D01*
X286644Y293674D01*
X286181Y293319D01*
X285547Y292493D01*
X285149Y291532D01*
X285079Y291000D01*
X289000D01*
X292921D01*
X292851Y291532D01*
X292453Y292493D01*
X291819Y293319D01*
X291356Y293674D01*
X291526Y294175D01*
X296803D01*
X296973Y293674D01*
X296323Y293177D01*
X295722Y292393D01*
X295344Y291480D01*
X295215Y290500D01*
X295344Y289520D01*
X295722Y288607D01*
X296323Y287824D01*
X297107Y287222D01*
X298020Y286844D01*
X299000Y286715D01*
X299980Y286844D01*
X300893Y287222D01*
X301677Y287824D01*
X302278Y288607D01*
X302656Y289520D01*
X302785Y290500D01*
X302656Y291480D01*
X302278Y292393D01*
X301677Y293177D01*
X301027Y293674D01*
X301197Y294175D01*
X303451D01*
X305579Y292047D01*
X305344Y291480D01*
X305215Y290500D01*
X305344Y289520D01*
X305722Y288607D01*
X306324Y287824D01*
X307107Y287222D01*
X308020Y286844D01*
X309000Y286715D01*
X309980Y286844D01*
X310893Y287222D01*
X311677Y287824D01*
X312278Y288607D01*
X312656Y289520D01*
X312785Y290500D01*
X312656Y291480D01*
X312278Y292393D01*
X311677Y293177D01*
X310893Y293778D01*
X309980Y294156D01*
X309000Y294285D01*
X308020Y294156D01*
X307453Y293921D01*
X304937Y296437D01*
X304507Y296725D01*
X304000Y296826D01*
D02*
G37*
G36*
X140000Y298785D02*
X139020Y298656D01*
X138107Y298278D01*
X137323Y297676D01*
X136722Y296893D01*
X136344Y295980D01*
X136215Y295000D01*
X136344Y294020D01*
X136722Y293107D01*
X137323Y292323D01*
X138107Y291722D01*
X139020Y291344D01*
X140000Y291215D01*
X140980Y291344D01*
X141893Y291722D01*
X142676Y292323D01*
X143278Y293107D01*
X143656Y294020D01*
X143785Y295000D01*
X143656Y295980D01*
X143278Y296893D01*
X142676Y297676D01*
X141893Y298278D01*
X140980Y298656D01*
X140000Y298785D01*
D02*
G37*
G36*
X130000D02*
X129020Y298656D01*
X128107Y298278D01*
X127323Y297676D01*
X126722Y296893D01*
X126344Y295980D01*
X126215Y295000D01*
X126344Y294020D01*
X126722Y293107D01*
X127323Y292323D01*
X128107Y291722D01*
X129020Y291344D01*
X130000Y291215D01*
X130980Y291344D01*
X131893Y291722D01*
X132676Y292323D01*
X133278Y293107D01*
X133656Y294020D01*
X133785Y295000D01*
X133656Y295980D01*
X133278Y296893D01*
X132676Y297676D01*
X131893Y298278D01*
X130980Y298656D01*
X130000Y298785D01*
D02*
G37*
G36*
X349000Y292921D02*
Y289500D01*
X352421D01*
X352351Y290032D01*
X351953Y290993D01*
X351319Y291819D01*
X350493Y292453D01*
X349532Y292851D01*
X349000Y292921D01*
D02*
G37*
G36*
X361169Y241324D02*
X360438Y241228D01*
X359757Y240946D01*
X359172Y240497D01*
X358723Y239912D01*
X358441Y239231D01*
X358345Y238500D01*
X358441Y237769D01*
X358723Y237088D01*
X359172Y236503D01*
X359757Y236054D01*
X360438Y235772D01*
X361169Y235676D01*
X361900Y235772D01*
X362581Y236054D01*
X363166Y236503D01*
X363615Y237088D01*
X363897Y237769D01*
X363993Y238500D01*
X363897Y239231D01*
X363615Y239912D01*
X363166Y240497D01*
X362581Y240946D01*
X361900Y241228D01*
X361169Y241324D01*
D02*
G37*
G36*
X353295D02*
X352564Y241228D01*
X351883Y240946D01*
X351298Y240497D01*
X350850Y239912D01*
X350567Y239231D01*
X350471Y238500D01*
X350567Y237769D01*
X350850Y237088D01*
X351298Y236503D01*
X351883Y236054D01*
X352564Y235772D01*
X353295Y235676D01*
X354026Y235772D01*
X354707Y236054D01*
X355292Y236503D01*
X355741Y237088D01*
X356023Y237769D01*
X356119Y238500D01*
X356023Y239231D01*
X355741Y239912D01*
X355292Y240497D01*
X354707Y240946D01*
X354026Y241228D01*
X353295Y241324D01*
D02*
G37*
G36*
X369043D02*
X368312Y241228D01*
X367631Y240946D01*
X367046Y240497D01*
X366598Y239912D01*
X366315Y239231D01*
X366219Y238500D01*
X366315Y237769D01*
X366598Y237088D01*
X367046Y236503D01*
X367631Y236054D01*
X368312Y235772D01*
X369043Y235676D01*
X369774Y235772D01*
X370455Y236054D01*
X371040Y236503D01*
X371489Y237088D01*
X371771Y237769D01*
X371867Y238500D01*
X371771Y239231D01*
X371489Y239912D01*
X371040Y240497D01*
X370455Y240946D01*
X369774Y241228D01*
X369043Y241324D01*
D02*
G37*
G36*
X313425Y241460D02*
X313142Y241423D01*
X312412Y241121D01*
X311786Y240640D01*
X311305Y240013D01*
X311002Y239283D01*
X310965Y239000D01*
X313425D01*
Y241460D01*
D02*
G37*
G36*
X152815Y243345D02*
X151918Y243167D01*
X151157Y242658D01*
X150648Y241897D01*
X150470Y241000D01*
X150548Y240608D01*
X144063Y234122D01*
X143775Y233692D01*
X143675Y233185D01*
Y127197D01*
X143175Y127027D01*
X142676Y127676D01*
X141893Y128278D01*
X140980Y128656D01*
X140000Y128785D01*
X139020Y128656D01*
X138107Y128278D01*
X137323Y127676D01*
X136722Y126893D01*
X136344Y125980D01*
X136215Y125000D01*
X136344Y124020D01*
X136722Y123107D01*
X137323Y122324D01*
X138107Y121722D01*
X139020Y121344D01*
X140000Y121215D01*
X140980Y121344D01*
X141893Y121722D01*
X142676Y122324D01*
X143175Y122973D01*
X143675Y122803D01*
Y117197D01*
X143175Y117027D01*
X142676Y117676D01*
X141893Y118278D01*
X140980Y118656D01*
X140000Y118785D01*
X139020Y118656D01*
X138107Y118278D01*
X137323Y117676D01*
X136722Y116893D01*
X136344Y115980D01*
X136215Y115000D01*
X136344Y114020D01*
X136722Y113107D01*
X137323Y112323D01*
X138107Y111722D01*
X139020Y111344D01*
X140000Y111215D01*
X140980Y111344D01*
X141893Y111722D01*
X142676Y112323D01*
X143250Y113071D01*
X143404Y113080D01*
X143774Y112999D01*
X143775Y112993D01*
X144063Y112563D01*
X147563Y109063D01*
X147993Y108775D01*
X148500Y108675D01*
X212500D01*
X213007Y108775D01*
X213437Y109063D01*
X215937Y111563D01*
X216225Y111993D01*
X216321Y112480D01*
X216379Y112515D01*
X216826Y112644D01*
X217181Y112181D01*
X218007Y111547D01*
X218968Y111149D01*
X219500Y111079D01*
Y115000D01*
Y118921D01*
X218968Y118851D01*
X218007Y118453D01*
X217181Y117819D01*
X216826Y117356D01*
X216325Y117526D01*
Y119451D01*
X218122Y121247D01*
X223753D01*
Y128753D01*
X216247D01*
Y123122D01*
X214063Y120937D01*
X213775Y120507D01*
X213674Y120000D01*
Y117197D01*
X213175Y117027D01*
X212677Y117676D01*
X211893Y118278D01*
X210980Y118656D01*
X210000Y118785D01*
X209020Y118656D01*
X208107Y118278D01*
X207324Y117676D01*
X206722Y116893D01*
X206344Y115980D01*
X206215Y115000D01*
X206344Y114020D01*
X206722Y113107D01*
X207324Y112323D01*
X207973Y111826D01*
X207803Y111326D01*
X202197D01*
X202027Y111826D01*
X202677Y112323D01*
X203278Y113107D01*
X203656Y114020D01*
X203785Y115000D01*
X203656Y115980D01*
X203278Y116893D01*
X202677Y117676D01*
X201893Y118278D01*
X200980Y118656D01*
X200000Y118785D01*
X199020Y118656D01*
X198107Y118278D01*
X197324Y117676D01*
X196722Y116893D01*
X196344Y115980D01*
X196215Y115000D01*
X196344Y114020D01*
X196722Y113107D01*
X197324Y112323D01*
X197973Y111826D01*
X197803Y111326D01*
X192197D01*
X192027Y111826D01*
X192676Y112323D01*
X193278Y113107D01*
X193656Y114020D01*
X193785Y115000D01*
X193656Y115980D01*
X193278Y116893D01*
X192676Y117676D01*
X191893Y118278D01*
X190980Y118656D01*
X190000Y118785D01*
X189020Y118656D01*
X188107Y118278D01*
X187323Y117676D01*
X186722Y116893D01*
X186344Y115980D01*
X186215Y115000D01*
X186344Y114020D01*
X186722Y113107D01*
X187323Y112323D01*
X187973Y111826D01*
X187803Y111326D01*
X182197D01*
X182027Y111826D01*
X182676Y112323D01*
X183278Y113107D01*
X183656Y114020D01*
X183785Y115000D01*
X183656Y115980D01*
X183278Y116893D01*
X182676Y117676D01*
X181893Y118278D01*
X180980Y118656D01*
X180000Y118785D01*
X179020Y118656D01*
X178107Y118278D01*
X177323Y117676D01*
X176722Y116893D01*
X176344Y115980D01*
X176215Y115000D01*
X176344Y114020D01*
X176722Y113107D01*
X177323Y112323D01*
X177973Y111826D01*
X177803Y111326D01*
X172197D01*
X172027Y111826D01*
X172677Y112323D01*
X173278Y113107D01*
X173656Y114020D01*
X173785Y115000D01*
X173656Y115980D01*
X173278Y116893D01*
X172677Y117676D01*
X171893Y118278D01*
X170980Y118656D01*
X170000Y118785D01*
X169020Y118656D01*
X168107Y118278D01*
X167324Y117676D01*
X166722Y116893D01*
X166344Y115980D01*
X166215Y115000D01*
X166344Y114020D01*
X166722Y113107D01*
X167324Y112323D01*
X167973Y111826D01*
X167803Y111326D01*
X162197D01*
X162027Y111826D01*
X162677Y112323D01*
X163278Y113107D01*
X163656Y114020D01*
X163785Y115000D01*
X163656Y115980D01*
X163278Y116893D01*
X162677Y117676D01*
X161893Y118278D01*
X160980Y118656D01*
X160000Y118785D01*
X159020Y118656D01*
X158107Y118278D01*
X157324Y117676D01*
X156722Y116893D01*
X156344Y115980D01*
X156215Y115000D01*
X156344Y114020D01*
X156722Y113107D01*
X157324Y112323D01*
X157973Y111826D01*
X157803Y111326D01*
X152197D01*
X152027Y111826D01*
X152676Y112323D01*
X153278Y113107D01*
X153656Y114020D01*
X153785Y115000D01*
X153656Y115980D01*
X153278Y116893D01*
X152676Y117676D01*
X151893Y118278D01*
X150980Y118656D01*
X150000Y118785D01*
X149020Y118656D01*
X148107Y118278D01*
X147324Y117676D01*
X146826Y117027D01*
X146326Y117197D01*
Y122803D01*
X146826Y122973D01*
X147324Y122324D01*
X148107Y121722D01*
X149020Y121344D01*
X150000Y121215D01*
X150980Y121344D01*
X151893Y121722D01*
X152676Y122324D01*
X153278Y123107D01*
X153656Y124020D01*
X153785Y125000D01*
X153656Y125980D01*
X153278Y126893D01*
X152676Y127676D01*
X151893Y128278D01*
X150980Y128656D01*
X150000Y128785D01*
X149020Y128656D01*
X148107Y128278D01*
X147324Y127676D01*
X146826Y127027D01*
X146326Y127197D01*
Y232636D01*
X152422Y238733D01*
X152815Y238655D01*
X153712Y238833D01*
X154473Y239342D01*
X154982Y240103D01*
X155160Y241000D01*
X154982Y241897D01*
X154473Y242658D01*
X153712Y243167D01*
X152815Y243345D01*
D02*
G37*
G36*
X345421Y241324D02*
X344690Y241228D01*
X344009Y240946D01*
X343424Y240497D01*
X342975Y239912D01*
X342693Y239231D01*
X342597Y238500D01*
X342693Y237769D01*
X342975Y237088D01*
X343424Y236503D01*
X344009Y236054D01*
X344690Y235772D01*
X345421Y235676D01*
X346152Y235772D01*
X346833Y236054D01*
X347418Y236503D01*
X347867Y237088D01*
X348149Y237769D01*
X348245Y238500D01*
X348149Y239231D01*
X347867Y239912D01*
X347418Y240497D01*
X346833Y240946D01*
X346152Y241228D01*
X345421Y241324D01*
D02*
G37*
G36*
X322753Y294253D02*
X315247D01*
Y286747D01*
X320878D01*
X326675Y280951D01*
Y267000D01*
X326775Y266493D01*
X327063Y266063D01*
X342063Y251063D01*
X342493Y250775D01*
X343000Y250675D01*
X370742D01*
X381956Y239461D01*
Y237500D01*
X382096Y236798D01*
X382494Y236202D01*
X383089Y235804D01*
X383791Y235665D01*
X385791D01*
X386494Y235804D01*
X387089Y236202D01*
X387487Y236798D01*
X387627Y237500D01*
Y239500D01*
X387487Y240202D01*
X387089Y240798D01*
X386494Y241196D01*
X385791Y241335D01*
X383831D01*
X372229Y252937D01*
X371799Y253225D01*
X371291Y253326D01*
X343549D01*
X329326Y267549D01*
Y281500D01*
X329225Y282007D01*
X328937Y282437D01*
X322753Y288622D01*
Y294253D01*
D02*
G37*
G36*
X316885Y238000D02*
X314425D01*
Y235540D01*
X314708Y235577D01*
X315438Y235879D01*
X316065Y236360D01*
X316546Y236987D01*
X316848Y237717D01*
X316885Y238000D01*
D02*
G37*
G36*
X321799Y241324D02*
X321068Y241228D01*
X320387Y240946D01*
X319802Y240497D01*
X319353Y239912D01*
X319071Y239231D01*
X318975Y238500D01*
X319071Y237769D01*
X319353Y237088D01*
X319802Y236503D01*
X320387Y236054D01*
X321068Y235772D01*
X321799Y235676D01*
X322530Y235772D01*
X323211Y236054D01*
X323796Y236503D01*
X324245Y237088D01*
X324527Y237769D01*
X324623Y238500D01*
X324527Y239231D01*
X324245Y239912D01*
X323796Y240497D01*
X323211Y240946D01*
X322530Y241228D01*
X321799Y241324D01*
D02*
G37*
G36*
X337547D02*
X336816Y241228D01*
X336135Y240946D01*
X335550Y240497D01*
X335102Y239912D01*
X334819Y239231D01*
X334723Y238500D01*
X334819Y237769D01*
X335102Y237088D01*
X335550Y236503D01*
X336135Y236054D01*
X336816Y235772D01*
X337547Y235676D01*
X338278Y235772D01*
X338959Y236054D01*
X339544Y236503D01*
X339993Y237088D01*
X340275Y237769D01*
X340371Y238500D01*
X340275Y239231D01*
X339993Y239912D01*
X339544Y240497D01*
X338959Y240946D01*
X338278Y241228D01*
X337547Y241324D01*
D02*
G37*
G36*
X329673D02*
X328942Y241228D01*
X328261Y240946D01*
X327676Y240497D01*
X327227Y239912D01*
X326945Y239231D01*
X326849Y238500D01*
X326945Y237769D01*
X327227Y237088D01*
X327676Y236503D01*
X328261Y236054D01*
X328942Y235772D01*
X329673Y235676D01*
X330404Y235772D01*
X331085Y236054D01*
X331670Y236503D01*
X332119Y237088D01*
X332401Y237769D01*
X332497Y238500D01*
X332401Y239231D01*
X332119Y239912D01*
X331670Y240497D01*
X331085Y240946D01*
X330404Y241228D01*
X329673Y241324D01*
D02*
G37*
G36*
X314425Y241460D02*
Y239000D01*
X316885D01*
X316848Y239283D01*
X316546Y240013D01*
X316065Y240640D01*
X315438Y241121D01*
X314708Y241423D01*
X314425Y241460D01*
D02*
G37*
G36*
X319000Y284285D02*
X318020Y284156D01*
X317107Y283778D01*
X316323Y283176D01*
X315722Y282393D01*
X315344Y281480D01*
X315215Y280500D01*
X315344Y279520D01*
X315579Y278953D01*
X300451Y263825D01*
X281880D01*
X281658Y264158D01*
X280897Y264667D01*
X280000Y264845D01*
X279103Y264667D01*
X278342Y264158D01*
X277833Y263397D01*
X277655Y262500D01*
X277833Y261603D01*
X278342Y260842D01*
X279103Y260333D01*
X280000Y260155D01*
X280897Y260333D01*
X281658Y260842D01*
X281880Y261175D01*
X301000D01*
X301507Y261275D01*
X301937Y261563D01*
X317453Y277079D01*
X318020Y276844D01*
X319000Y276715D01*
X319980Y276844D01*
X320893Y277222D01*
X321676Y277823D01*
X322278Y278607D01*
X322656Y279520D01*
X322785Y280500D01*
X322656Y281480D01*
X322278Y282393D01*
X321676Y283176D01*
X320893Y283778D01*
X319980Y284156D01*
X319000Y284285D01*
D02*
G37*
G36*
X309000D02*
X308020Y284156D01*
X307107Y283778D01*
X306324Y283176D01*
X305722Y282393D01*
X305344Y281480D01*
X305215Y280500D01*
X305344Y279520D01*
X305722Y278607D01*
X306324Y277823D01*
X307107Y277222D01*
X308020Y276844D01*
X309000Y276715D01*
X309980Y276844D01*
X310893Y277222D01*
X311677Y277823D01*
X312278Y278607D01*
X312656Y279520D01*
X312785Y280500D01*
X312656Y281480D01*
X312278Y282393D01*
X311677Y283176D01*
X310893Y283778D01*
X309980Y284156D01*
X309000Y284285D01*
D02*
G37*
G36*
X209500Y284500D02*
X206079D01*
X206149Y283968D01*
X206547Y283007D01*
X207181Y282181D01*
X208007Y281547D01*
X208968Y281149D01*
X209500Y281079D01*
Y284500D01*
D02*
G37*
G36*
X130000Y288785D02*
X129020Y288656D01*
X128107Y288278D01*
X127323Y287677D01*
X126722Y286893D01*
X126344Y285980D01*
X126215Y285000D01*
X126344Y284020D01*
X126722Y283107D01*
X127323Y282324D01*
X128107Y281722D01*
X129020Y281344D01*
X130000Y281215D01*
X130980Y281344D01*
X131893Y281722D01*
X132676Y282324D01*
X133278Y283107D01*
X133656Y284020D01*
X133785Y285000D01*
X133656Y285980D01*
X133278Y286893D01*
X132676Y287677D01*
X131893Y288278D01*
X130980Y288656D01*
X130000Y288785D01*
D02*
G37*
G36*
X213921Y284500D02*
X210500D01*
Y281079D01*
X211032Y281149D01*
X211993Y281547D01*
X212819Y282181D01*
X213453Y283007D01*
X213851Y283968D01*
X213921Y284500D01*
D02*
G37*
G36*
X299000Y284285D02*
X298020Y284156D01*
X297107Y283778D01*
X296323Y283176D01*
X295722Y282393D01*
X295344Y281480D01*
X295215Y280500D01*
X295344Y279520D01*
X295722Y278607D01*
X296323Y277823D01*
X297107Y277222D01*
X298020Y276844D01*
X299000Y276715D01*
X299980Y276844D01*
X300893Y277222D01*
X301677Y277823D01*
X302278Y278607D01*
X302656Y279520D01*
X302785Y280500D01*
X302656Y281480D01*
X302278Y282393D01*
X301677Y283176D01*
X300893Y283778D01*
X299980Y284156D01*
X299000Y284285D01*
D02*
G37*
G36*
X368500Y262785D02*
X367520Y262656D01*
X366607Y262278D01*
X365824Y261677D01*
X365222Y260893D01*
X364844Y259980D01*
X364715Y259000D01*
X364844Y258020D01*
X365222Y257107D01*
X365824Y256324D01*
X366607Y255722D01*
X367520Y255344D01*
X368500Y255215D01*
X369480Y255344D01*
X370393Y255722D01*
X371177Y256324D01*
X371778Y257107D01*
X372156Y258020D01*
X372285Y259000D01*
X372156Y259980D01*
X371778Y260893D01*
X371177Y261677D01*
X370393Y262278D01*
X369480Y262656D01*
X368500Y262785D01*
D02*
G37*
G36*
X358500D02*
X357520Y262656D01*
X356607Y262278D01*
X355823Y261677D01*
X355222Y260893D01*
X354844Y259980D01*
X354715Y259000D01*
X354844Y258020D01*
X355222Y257107D01*
X355823Y256324D01*
X356607Y255722D01*
X357520Y255344D01*
X358500Y255215D01*
X359480Y255344D01*
X360393Y255722D01*
X361176Y256324D01*
X361778Y257107D01*
X362156Y258020D01*
X362285Y259000D01*
X362156Y259980D01*
X361778Y260893D01*
X361176Y261677D01*
X360393Y262278D01*
X359480Y262656D01*
X358500Y262785D01*
D02*
G37*
G36*
X348500D02*
X347520Y262656D01*
X346607Y262278D01*
X345824Y261677D01*
X345222Y260893D01*
X344844Y259980D01*
X344715Y259000D01*
X344844Y258020D01*
X345222Y257107D01*
X345824Y256324D01*
X346607Y255722D01*
X347520Y255344D01*
X348500Y255215D01*
X349480Y255344D01*
X350393Y255722D01*
X351177Y256324D01*
X351778Y257107D01*
X352156Y258020D01*
X352285Y259000D01*
X352156Y259980D01*
X351778Y260893D01*
X351177Y261677D01*
X350393Y262278D01*
X349480Y262656D01*
X348500Y262785D01*
D02*
G37*
G36*
X289000Y284285D02*
X288020Y284156D01*
X287107Y283778D01*
X286323Y283176D01*
X285722Y282393D01*
X285344Y281480D01*
X285215Y280500D01*
X285344Y279520D01*
X285722Y278607D01*
X286323Y277823D01*
X287107Y277222D01*
X288020Y276844D01*
X289000Y276715D01*
X289980Y276844D01*
X290893Y277222D01*
X291676Y277823D01*
X292278Y278607D01*
X292656Y279520D01*
X292785Y280500D01*
X292656Y281480D01*
X292278Y282393D01*
X291676Y283176D01*
X290893Y283778D01*
X289980Y284156D01*
X289000Y284285D01*
D02*
G37*
G36*
X378500Y262785D02*
X377520Y262656D01*
X376607Y262278D01*
X375823Y261677D01*
X375222Y260893D01*
X374844Y259980D01*
X374715Y259000D01*
X374844Y258020D01*
X375222Y257107D01*
X375823Y256324D01*
X376607Y255722D01*
X377520Y255344D01*
X378500Y255215D01*
X379480Y255344D01*
X380393Y255722D01*
X381176Y256324D01*
X381778Y257107D01*
X382156Y258020D01*
X382285Y259000D01*
X382156Y259980D01*
X381778Y260893D01*
X381176Y261677D01*
X380393Y262278D01*
X379480Y262656D01*
X378500Y262785D01*
D02*
G37*
%LPD*%
G36*
X223673Y220591D02*
X223655Y220500D01*
X223833Y219603D01*
X224342Y218842D01*
X224675Y218619D01*
Y204549D01*
X218063Y197937D01*
X217826Y197582D01*
X217506Y197602D01*
X217325Y197665D01*
Y214951D01*
X223212Y220838D01*
X223673Y220591D01*
D02*
G37*
D20*
X163500Y482000D02*
X169500D01*
X155000Y490500D02*
X163500Y482000D01*
X123000Y490500D02*
X155000D01*
X114500Y482000D02*
X123000Y490500D01*
X224500Y482000D02*
X232000Y489500D01*
X272000D01*
X279500Y482000D01*
X177300Y446700D02*
X193500Y430500D01*
X143900Y446700D02*
X177300D01*
X152100Y403000D02*
X193500D01*
X122100Y433000D02*
X152100Y403000D01*
X122100Y433000D02*
Y446700D01*
X142500Y349299D02*
Y353000D01*
X113500Y382000D02*
X142500Y353000D01*
X113500Y400500D02*
Y402000D01*
Y400500D02*
X145500Y368500D01*
X167500Y330000D02*
X174000Y336500D01*
X233000Y330500D02*
Y361000D01*
X169500Y482000D02*
X212000Y439500D01*
X232500D01*
X213000Y330500D02*
Y361000D01*
X142500Y349299D02*
X152500Y339299D01*
Y324500D02*
Y339299D01*
X256500Y337500D02*
X268500Y325500D01*
X228000Y403000D02*
Y410500D01*
X232500Y415000D01*
X264500D01*
X253200Y409500D02*
X262000D01*
X203000Y351000D02*
X213000Y361000D01*
X145500Y368500D02*
X164000D01*
X181500Y351000D02*
X203000D01*
X174000Y336500D02*
Y358500D01*
X164000Y368500D02*
X174000Y358500D01*
X181500Y351000D01*
X244110Y410110D02*
X246500Y412500D01*
X262500D01*
X270500Y384500D02*
X272500Y382500D01*
X270500Y384500D02*
Y401000D01*
X262000Y409500D02*
X270500Y401000D01*
X262500Y412500D02*
X271500Y403500D01*
X272500D01*
X219500Y413000D02*
X228000Y421500D01*
X219500Y389000D02*
Y413000D01*
X219000Y388500D02*
X219500Y389000D01*
X224000Y399000D02*
X228000Y403000D01*
X256500Y337500D02*
Y358000D01*
X224000Y380500D02*
Y399000D01*
X187500Y330000D02*
X195500Y322000D01*
X225500D01*
X233500Y330000D01*
X220000Y376500D02*
X224000Y380500D01*
X188000Y376500D02*
X220000D01*
X197500Y331500D02*
Y346500D01*
Y331500D02*
X204000Y325000D01*
X218500D01*
X223500Y330000D01*
X152500Y324500D02*
X158000Y319000D01*
X354000D01*
X372500Y337500D01*
X278500Y325500D02*
X283500Y330500D01*
X298500Y325500D02*
X329500D01*
X353500Y349500D01*
X370500D01*
X382500Y337500D01*
X402500Y327500D02*
X407500Y332500D01*
X392500Y327500D02*
X397500Y332500D01*
X413500Y373000D02*
Y374000D01*
X398000Y368000D02*
X403000Y373000D01*
X426000Y369280D02*
X427779Y367500D01*
X438000D01*
X392000Y488000D02*
X403000D01*
X412500Y497500D01*
X432500Y337500D02*
Y354906D01*
X442500Y337500D02*
Y343150D01*
X283500Y330500D02*
X291500D01*
X293500Y332500D01*
X386500Y349000D02*
X388500D01*
X374000Y361500D02*
X386500Y349000D01*
X324500Y361500D02*
X374000D01*
X359500Y443000D02*
Y455500D01*
X392000Y488000D01*
X271000Y358500D02*
Y365500D01*
X264500Y352000D02*
X271000Y358500D01*
X223000Y361000D02*
X228000Y366000D01*
X248500D01*
X256500Y358000D01*
X184000Y358500D02*
X195000Y369500D01*
X244500Y372500D02*
Y374311D01*
X245689Y375500D01*
X262000Y378500D02*
X266000Y382500D01*
Y400500D01*
X368923Y418077D02*
X376000Y411000D01*
X368595Y400000D02*
X376000Y407406D01*
X368923Y418077D02*
Y422000D01*
X376000Y407406D02*
Y411000D01*
X195000Y369500D02*
X304221D01*
X348221Y413500D01*
X362500D01*
X252500Y372500D02*
X302500D01*
X245689Y375500D02*
X301500D01*
X363677Y437677D01*
Y447677D01*
X332500Y370000D02*
X370500D01*
X408000Y466000D02*
X412778Y461222D01*
Y458778D02*
Y461222D01*
X413500Y453000D02*
X419000D01*
X363677Y447677D02*
X382000Y466000D01*
X408000D01*
X302500Y372500D02*
X393000Y463000D01*
X403500D01*
X413500Y453000D01*
X396500Y460500D02*
X401000D01*
X408000Y453500D01*
Y379500D02*
Y453500D01*
Y379500D02*
X413500Y374000D01*
X403000Y373000D02*
X413500D01*
X323000Y416500D02*
X338500D01*
X285500Y454000D02*
X323000Y416500D01*
X357594Y403000D02*
X366685D01*
X293500Y332500D02*
Y333500D01*
X360000Y400000D02*
X368595D01*
X293500Y333500D02*
X294447Y334447D01*
X299553Y339553D02*
X321900Y361900D01*
Y362577D01*
X323423Y364100D01*
X324100D01*
X329900Y369900D01*
Y371077D01*
X331423Y372600D01*
X332600D01*
X360000Y400000D01*
X294447Y334447D02*
Y337179D01*
X296821Y339553D01*
X299553D01*
X288500Y335500D02*
X290094D01*
X357594Y403000D01*
X354000Y407000D02*
X371000D01*
X278500Y335500D02*
X282500D01*
X354000Y407000D01*
X331500Y410000D02*
X332000Y409500D01*
X286000Y445000D02*
X321500Y409500D01*
X332000D01*
X223000Y445000D02*
X286000D01*
X378500Y469000D02*
X419500D01*
X393315Y457315D02*
X396500Y460500D01*
X392815Y457315D02*
X393315D01*
X252362Y431500D02*
X257862Y437000D01*
X226500Y431500D02*
X252362D01*
X219000Y424000D02*
X226500Y431500D01*
X175500Y424000D02*
X219000D01*
X388500Y349000D02*
Y432338D01*
X402500Y446338D01*
Y451500D01*
X362500Y413500D02*
Y422370D01*
X396630Y456500D01*
X400500D01*
X395500Y449500D02*
X397120Y451121D01*
X375000Y426500D02*
Y427796D01*
X412778Y458778D02*
X418722D01*
X432500Y354906D02*
X457500Y379906D01*
Y414500D01*
X419000Y453000D02*
X457500Y414500D01*
X442500Y343150D02*
X462000Y362650D01*
Y415500D01*
X418722Y458778D02*
X462000Y415500D01*
X462500Y327500D02*
X469000Y334000D01*
Y419500D01*
X419500Y469000D02*
X469000Y419500D01*
X407500Y332500D02*
Y358057D01*
X449843Y400400D01*
X451577D01*
X453406Y402229D01*
Y408095D01*
X397500Y332500D02*
Y353000D01*
X447500Y403000D01*
X450500D01*
X230000Y395500D02*
X237000Y402500D01*
X264000D01*
X266000Y400500D01*
X192500Y237000D02*
Y246500D01*
X188000Y232500D02*
X192500Y237000D01*
X188000Y163000D02*
Y232500D01*
X196000Y164000D02*
Y279000D01*
X186500Y154500D02*
X196000Y164000D01*
X157500Y154500D02*
X186500D01*
X190000Y285000D02*
X196000Y279000D01*
X212500Y110000D02*
X215000Y112500D01*
X148500Y110000D02*
X212500D01*
X145000Y113500D02*
X148500Y110000D01*
X156500Y148000D02*
X184500D01*
X153000Y151500D02*
X156500Y148000D01*
X153000Y151500D02*
Y159500D01*
X212500Y140500D02*
X228500Y156500D01*
X150000Y140500D02*
X212500D01*
X200000Y285000D02*
X200000Y163500D01*
X184500Y148000D02*
X200000Y163500D01*
X181000Y161000D02*
Y243158D01*
X182343Y244500D01*
X176969Y243500D02*
Y259032D01*
X176000Y260000D02*
X176969Y259032D01*
X187000Y243500D02*
X189500Y241000D01*
X187000Y243500D02*
Y259500D01*
X165000Y281500D02*
X187000Y259500D01*
X215000Y112500D02*
Y120000D01*
X220000Y125000D01*
X158500Y168095D02*
X166595Y160000D01*
X160000Y295000D02*
X165000Y290000D01*
Y281500D02*
Y290000D01*
X158500Y168095D02*
Y276000D01*
X155000Y279500D02*
X158500Y276000D01*
X155000Y279500D02*
Y290000D01*
X150000Y295000D02*
X155000Y290000D01*
X145000Y113500D02*
Y233185D01*
X152815Y241000D01*
X261500Y177000D02*
Y193500D01*
X304000Y295500D02*
X309000Y290500D01*
X283000Y295500D02*
X304000D01*
X274000Y286500D02*
X283000Y295500D01*
X301000Y262500D02*
X319000Y280500D01*
X280000Y262500D02*
X301000D01*
X274000Y247000D02*
Y286500D01*
X222500Y186000D02*
Y195500D01*
X274000Y247000D01*
X226000Y204000D02*
Y220500D01*
X219000Y197000D02*
X226000Y204000D01*
X219000Y183000D02*
Y197000D01*
Y183000D02*
X224000Y178000D01*
X231500D01*
X267000Y213500D01*
X351917D01*
X376917Y238500D01*
X211000Y199500D02*
Y214500D01*
X261500Y265000D01*
X227500Y227000D02*
X231000D01*
X216000Y215500D02*
X227500Y227000D01*
X216000Y171000D02*
Y215500D01*
Y171000D02*
X220500Y166500D01*
X304000D01*
X339000Y201500D01*
X261500Y147000D02*
X267000Y141500D01*
Y123500D02*
Y141500D01*
X258500Y115000D02*
X267000Y123500D01*
X261500Y147000D02*
X293500D01*
X364500Y218000D01*
X379000D01*
X378500Y289000D02*
X379500D01*
X390500Y278000D01*
Y146500D02*
Y278000D01*
X378500Y134500D02*
X390500Y146500D01*
X372543Y134500D02*
X378500D01*
X369500Y131457D02*
X372543Y134500D01*
X369500Y122000D02*
Y131457D01*
X371291Y252000D02*
X384791Y238500D01*
X343000Y252000D02*
X371291D01*
X328000Y267000D02*
X343000Y252000D01*
X328000Y267000D02*
Y281500D01*
X319000Y290500D02*
X328000Y281500D01*
D21*
X143900Y446700D02*
D03*
X122100D02*
D03*
X135500Y439000D02*
D03*
X158500D02*
D03*
X112500D02*
D03*
D22*
X164000Y358500D02*
D03*
X184000D02*
D03*
X213500Y430500D02*
D03*
X193500D02*
D03*
X213500Y403000D02*
D03*
X193500D02*
D03*
X261500Y265000D02*
D03*
Y285000D02*
D03*
D23*
X298500Y335500D02*
D03*
Y325500D02*
D03*
X288500Y335500D02*
D03*
Y325500D02*
D03*
X278500Y335500D02*
D03*
Y325500D02*
D03*
X268500Y335500D02*
D03*
X462500Y507500D02*
D03*
X452500D02*
D03*
X442500D02*
D03*
X432500D02*
D03*
X422500D02*
D03*
X412500D02*
D03*
X402500D02*
D03*
X392500D02*
D03*
X382500D02*
D03*
X372500D02*
D03*
X462500Y497500D02*
D03*
X452500D02*
D03*
X442500D02*
D03*
X432500D02*
D03*
X422500D02*
D03*
X412500D02*
D03*
X402500D02*
D03*
X392500D02*
D03*
X382500D02*
D03*
X462500Y337500D02*
D03*
X452500D02*
D03*
X442500D02*
D03*
X432500D02*
D03*
X422500D02*
D03*
X412500D02*
D03*
X402500D02*
D03*
X392500D02*
D03*
X382500D02*
D03*
X372500D02*
D03*
X462500Y327500D02*
D03*
X452500D02*
D03*
X442500D02*
D03*
X432500D02*
D03*
X422500D02*
D03*
X412500D02*
D03*
X402500D02*
D03*
X392500D02*
D03*
X382500D02*
D03*
X210000Y295000D02*
D03*
X200000D02*
D03*
X190000D02*
D03*
X180000D02*
D03*
X170000D02*
D03*
X160000D02*
D03*
X150000D02*
D03*
X140000D02*
D03*
X130000D02*
D03*
X220000Y285000D02*
D03*
X210000D02*
D03*
X200000D02*
D03*
X190000D02*
D03*
X180000D02*
D03*
X170000D02*
D03*
X160000D02*
D03*
X150000D02*
D03*
X140000D02*
D03*
X130000D02*
D03*
X342500Y128000D02*
D03*
X348500Y259000D02*
D03*
X358500D02*
D03*
X368500D02*
D03*
X378500D02*
D03*
X348500Y289000D02*
D03*
X358500D02*
D03*
X368500D02*
D03*
X258500Y125000D02*
D03*
X210000D02*
D03*
X200000D02*
D03*
X190000D02*
D03*
X180000D02*
D03*
X170000D02*
D03*
X160000D02*
D03*
X150000D02*
D03*
X140000D02*
D03*
X130000D02*
D03*
X220000Y115000D02*
D03*
X210000D02*
D03*
X200000D02*
D03*
X190000D02*
D03*
X180000D02*
D03*
X170000D02*
D03*
X160000D02*
D03*
X150000D02*
D03*
X140000D02*
D03*
X130000D02*
D03*
X319000Y280500D02*
D03*
X309000Y290500D02*
D03*
Y280500D02*
D03*
X299000Y290500D02*
D03*
Y280500D02*
D03*
X289000Y290500D02*
D03*
Y280500D02*
D03*
D24*
X268500Y325500D02*
D03*
X372500Y497500D02*
D03*
Y327500D02*
D03*
X220000Y295000D02*
D03*
Y125000D02*
D03*
X319000Y290500D02*
D03*
D25*
X122618Y357370D02*
D03*
Y328630D02*
D03*
D26*
X137776Y346150D02*
D03*
Y339850D02*
D03*
X142500Y336701D02*
D03*
Y349299D02*
D03*
Y343000D02*
D03*
D27*
X187500Y330000D02*
D03*
X233000Y361000D02*
D03*
X233500Y330000D02*
D03*
X295000Y120500D02*
D03*
D28*
X177500Y330000D02*
D03*
X223000Y361000D02*
D03*
X223500Y330000D02*
D03*
X305000Y120500D02*
D03*
D29*
X167500Y330000D02*
D03*
X213000Y361000D02*
D03*
X213500Y330000D02*
D03*
X315000Y120500D02*
D03*
D30*
X279500Y482000D02*
D03*
X309500D02*
D03*
Y502000D02*
D03*
X224500Y482000D02*
D03*
X254500D02*
D03*
Y502000D02*
D03*
X169500Y482000D02*
D03*
X199500D02*
D03*
Y502000D02*
D03*
X114500Y482000D02*
D03*
X144500D02*
D03*
Y502000D02*
D03*
D31*
X279500D02*
D03*
X224500D02*
D03*
X169500D02*
D03*
X114500D02*
D03*
D32*
X113500Y402000D02*
D03*
D33*
Y382000D02*
D03*
D34*
X232500Y439500D02*
D03*
X228000Y421500D02*
D03*
D35*
Y403000D02*
D03*
X264500Y415000D02*
D03*
X253200Y409500D02*
D03*
X272500Y382500D02*
D03*
X362500Y413500D02*
D03*
X230000Y395500D02*
D03*
X266000Y400500D02*
D03*
X244110Y410110D02*
D03*
X272500Y403500D02*
D03*
X219000Y388500D02*
D03*
X188000Y376500D02*
D03*
X197500Y346500D02*
D03*
X453406Y408095D02*
D03*
X450500Y403000D02*
D03*
X413500Y374000D02*
D03*
X398000Y368000D02*
D03*
X426000Y369280D02*
D03*
X438000Y367500D02*
D03*
X388500Y349000D02*
D03*
X402500Y451500D02*
D03*
X324500Y361500D02*
D03*
X359500Y443000D02*
D03*
X271000Y365500D02*
D03*
X264500Y352000D02*
D03*
X252500Y372500D02*
D03*
X244500D02*
D03*
X262000Y378500D02*
D03*
X368923Y422000D02*
D03*
X332500Y370000D02*
D03*
X370500D02*
D03*
X412778Y458778D02*
D03*
X419000Y453000D02*
D03*
X338500Y416500D02*
D03*
X285500Y454000D02*
D03*
X366685Y403000D02*
D03*
X371000Y407000D02*
D03*
X331500Y410000D02*
D03*
X223000Y445000D02*
D03*
X378500Y469000D02*
D03*
X400500Y456500D02*
D03*
X392815Y457315D02*
D03*
X257862Y437000D02*
D03*
X175500Y424000D02*
D03*
X395500Y449500D02*
D03*
X374850Y420047D02*
D03*
X375000Y426500D02*
D03*
X251000Y393500D02*
D03*
X192500Y246500D02*
D03*
X188000Y163000D02*
D03*
X181000Y161000D02*
D03*
X176969Y243500D02*
D03*
X176000Y260000D02*
D03*
X189500Y241000D02*
D03*
X182343Y244500D02*
D03*
X152815Y241000D02*
D03*
X153000Y159500D02*
D03*
X157500Y154500D02*
D03*
X166595Y160000D02*
D03*
X150000Y140500D02*
D03*
X280000Y262500D02*
D03*
X222500Y186000D02*
D03*
X226000Y220500D02*
D03*
X211000Y199500D02*
D03*
X231000Y227000D02*
D03*
X339000Y201500D02*
D03*
X228500Y156500D02*
D03*
D36*
X261500Y223500D02*
D03*
Y193500D02*
D03*
Y147000D02*
D03*
Y177000D02*
D03*
X379000Y168000D02*
D03*
Y218000D02*
D03*
D37*
X342500Y118000D02*
D03*
X378500Y289000D02*
D03*
X258500Y115000D02*
D03*
D38*
X374500Y122000D02*
D03*
X364500D02*
D03*
D39*
X369500D02*
D03*
D40*
X384791Y151886D02*
D03*
X376917D02*
D03*
X369043D02*
D03*
X361169D02*
D03*
X353295D02*
D03*
X345421D02*
D03*
X337547D02*
D03*
X329673D02*
D03*
X321799D02*
D03*
X313925D02*
D03*
Y238500D02*
D03*
X321799D02*
D03*
X329673D02*
D03*
X337547D02*
D03*
X345421D02*
D03*
X353295D02*
D03*
X361169D02*
D03*
X369043D02*
D03*
X376917D02*
D03*
D41*
X384791D02*
D03*
M02*
