G04 Layer_Color=65535*
%FSLAX25Y25*%
%MOIN*%
G70*
G01*
G75*
%ADD20C,0.01000*%
%ADD42C,0.00984*%
%ADD43C,0.02362*%
%ADD44C,0.00787*%
%ADD45C,0.00600*%
%ADD46C,0.00800*%
%ADD47C,0.00700*%
D20*
X305686Y491764D02*
G03*
X305686Y491764I-10832J0D01*
G01*
X250687D02*
G03*
X250687Y491764I-10832J0D01*
G01*
X195686D02*
G03*
X195686Y491764I-10832J0D01*
G01*
X140687D02*
G03*
X140687Y491764I-10832J0D01*
G01*
X108000Y444000D02*
Y455500D01*
Y422500D02*
Y432500D01*
X163000Y422500D02*
Y434000D01*
Y445000D02*
Y455500D01*
X108000D02*
X163000D01*
X108000Y422500D02*
X163000D01*
X93000Y455500D02*
X108000D01*
X93000Y431500D02*
Y455500D01*
Y431500D02*
X108000D01*
X145000Y322000D02*
Y334000D01*
Y352500D02*
Y364000D01*
X107500D02*
X145000D01*
X107500Y322000D02*
Y364000D01*
Y322000D02*
X122500D01*
X145000D01*
X157500Y320000D02*
X197500D01*
X157500D02*
Y337000D01*
Y337500D02*
X197500D01*
Y320000D02*
Y337000D01*
X157500Y322500D02*
X197500D01*
X203000Y351000D02*
X243000D01*
X203000D02*
Y368000D01*
Y368500D02*
X243000D01*
Y351000D02*
Y368000D01*
X203000Y353500D02*
X243000D01*
X273988Y471843D02*
Y511843D01*
X315327Y471843D02*
Y511843D01*
X273988D02*
X315327D01*
X273988Y471843D02*
X315327D01*
X218988D02*
Y511843D01*
X260327Y471843D02*
Y511843D01*
X218988D02*
X260327D01*
X218988Y471843D02*
X260327D01*
X163988D02*
Y511843D01*
X205327Y471843D02*
Y511843D01*
X163988D02*
X205327D01*
X163988Y471843D02*
X205327D01*
X108988D02*
Y511843D01*
X150327Y471843D02*
Y511843D01*
X108988D02*
X150327D01*
X108988Y471843D02*
X150327D01*
X203500Y320000D02*
X243500D01*
X203500D02*
Y337000D01*
Y337500D02*
X243500D01*
Y320000D02*
Y337000D01*
X203500Y322500D02*
X243500D01*
X107999Y465491D02*
X105999D01*
X106999D01*
Y460493D01*
X105999Y459493D01*
X105000D01*
X104000Y460493D01*
X109998Y459493D02*
X111997D01*
X110998D01*
Y465491D01*
X109998Y464492D01*
X157100Y375398D02*
Y369400D01*
X159099Y371399D01*
X161099Y369400D01*
Y375398D01*
X163098Y369400D02*
X165097D01*
X164098D01*
Y375398D01*
X163098Y374398D01*
X379100Y457398D02*
Y452400D01*
X380100Y451400D01*
X382099D01*
X383099Y452400D01*
Y457398D01*
X389097Y451400D02*
X385098D01*
X389097Y455399D01*
Y456398D01*
X388097Y457398D01*
X386098D01*
X385098Y456398D01*
X458800Y440600D02*
Y446598D01*
X461799D01*
X462799Y445598D01*
Y443599D01*
X461799Y442599D01*
X458800D01*
X460799D02*
X462799Y440600D01*
X464798D02*
X466797D01*
X465798D01*
Y446598D01*
X464798Y445598D01*
X360700Y516900D02*
Y522898D01*
X363699D01*
X364699Y521898D01*
Y519899D01*
X363699Y518899D01*
X360700D01*
X366698Y515900D02*
X370697D01*
X376695Y522898D02*
X374695D01*
X375695D01*
Y517900D01*
X374695Y516900D01*
X373696D01*
X372696Y517900D01*
X382693Y516900D02*
X378694D01*
X382693Y520899D01*
Y521898D01*
X381693Y522898D01*
X379694D01*
X378694Y521898D01*
X360700Y346900D02*
Y352898D01*
X363699D01*
X364699Y351898D01*
Y349899D01*
X363699Y348899D01*
X360700D01*
X366698Y345900D02*
X370697D01*
X376695Y352898D02*
X374695D01*
X375695D01*
Y347900D01*
X374695Y346900D01*
X373696D01*
X372696Y347900D01*
X378694Y346900D02*
X380694D01*
X379694D01*
Y352898D01*
X378694Y351898D01*
X258700Y343900D02*
Y349898D01*
X261699D01*
X262699Y348898D01*
Y346899D01*
X261699Y345899D01*
X258700D01*
X264698Y343900D02*
X266697D01*
X265698D01*
Y349898D01*
X264698Y348898D01*
X409500Y371998D02*
Y366000D01*
X413499D01*
X415498D02*
X417497D01*
X416498D01*
Y371998D01*
X415498Y370998D01*
X475499Y415998D02*
X474499Y416998D01*
X472500D01*
X471500Y415998D01*
Y412000D01*
X472500Y411000D01*
X474499D01*
X475499Y412000D01*
X477498D02*
X478498Y411000D01*
X480497D01*
X481497Y412000D01*
Y415998D01*
X480497Y416998D01*
X478498D01*
X477498Y415998D01*
Y414999D01*
X478498Y413999D01*
X481497D01*
X460499Y416998D02*
X459499Y417998D01*
X457500D01*
X456500Y416998D01*
Y413000D01*
X457500Y412000D01*
X459499D01*
X460499Y413000D01*
X462498Y416998D02*
X463498Y417998D01*
X465497D01*
X466497Y416998D01*
Y415999D01*
X465497Y414999D01*
X466497Y413999D01*
Y413000D01*
X465497Y412000D01*
X463498D01*
X462498Y413000D01*
Y413999D01*
X463498Y414999D01*
X462498Y415999D01*
Y416998D01*
X463498Y414999D02*
X465497D01*
X388999Y370998D02*
X387999Y371998D01*
X386000D01*
X385000Y370998D01*
Y367000D01*
X386000Y366000D01*
X387999D01*
X388999Y367000D01*
X394997Y371998D02*
X392997Y370998D01*
X390998Y368999D01*
Y367000D01*
X391998Y366000D01*
X393997D01*
X394997Y367000D01*
Y367999D01*
X393997Y368999D01*
X390998D01*
X462799Y465298D02*
X461799Y466298D01*
X459800D01*
X458800Y465298D01*
Y461300D01*
X459800Y460300D01*
X461799D01*
X462799Y461300D01*
X467797Y460300D02*
Y466298D01*
X464798Y463299D01*
X468797D01*
X363699Y436698D02*
X362699Y437698D01*
X360700D01*
X359700Y436698D01*
Y432700D01*
X360700Y431700D01*
X362699D01*
X363699Y432700D01*
X369697Y437698D02*
X365698D01*
Y434699D01*
X367697Y435699D01*
X368697D01*
X369697Y434699D01*
Y432700D01*
X368697Y431700D01*
X366698D01*
X365698Y432700D01*
X446999Y362998D02*
X445999Y363998D01*
X444000D01*
X443000Y362998D01*
Y359000D01*
X444000Y358000D01*
X445999D01*
X446999Y359000D01*
X448998Y363998D02*
X452997D01*
Y362998D01*
X448998Y359000D01*
Y358000D01*
X281799Y393798D02*
X280799Y394798D01*
X278800D01*
X277800Y393798D01*
Y389800D01*
X278800Y388800D01*
X280799D01*
X281799Y389800D01*
X283798Y388800D02*
X285797D01*
X284798D01*
Y394798D01*
X283798Y393798D01*
X291795Y388800D02*
Y394798D01*
X288796Y391799D01*
X292795D01*
X281799Y407798D02*
X280799Y408798D01*
X278800D01*
X277800Y407798D01*
Y403800D01*
X278800Y402800D01*
X280799D01*
X281799Y403800D01*
X283798Y402800D02*
X285797D01*
X284798D01*
Y408798D01*
X283798Y407798D01*
X288796D02*
X289796Y408798D01*
X291795D01*
X292795Y407798D01*
Y406799D01*
X291795Y405799D01*
X290796D01*
X291795D01*
X292795Y404799D01*
Y403800D01*
X291795Y402800D01*
X289796D01*
X288796Y403800D01*
X241299Y433109D02*
X240299Y434109D01*
X238300D01*
X237300Y433109D01*
Y429111D01*
X238300Y428111D01*
X240299D01*
X241299Y429111D01*
X243298Y428111D02*
X245297D01*
X244298D01*
Y434109D01*
X243298Y433109D01*
X252295Y428111D02*
X248296D01*
X252295Y432110D01*
Y433109D01*
X251295Y434109D01*
X249296D01*
X248296Y433109D01*
X281999Y418604D02*
X280999Y419604D01*
X279000D01*
X278000Y418604D01*
Y414605D01*
X279000Y413605D01*
X280999D01*
X281999Y414605D01*
X283998Y413605D02*
X285997D01*
X284998D01*
Y419604D01*
X283998Y418604D01*
X288996Y413605D02*
X290996D01*
X289996D01*
Y419604D01*
X288996Y418604D01*
X261299Y432798D02*
X260299Y433798D01*
X258300D01*
X257300Y432798D01*
Y428800D01*
X258300Y427800D01*
X260299D01*
X261299Y428800D01*
X263298Y432798D02*
X264298Y433798D01*
X266297D01*
X267297Y432798D01*
Y431799D01*
X266297Y430799D01*
X265297D01*
X266297D01*
X267297Y429799D01*
Y428800D01*
X266297Y427800D01*
X264298D01*
X263298Y428800D01*
X281799Y432298D02*
X280799Y433298D01*
X278800D01*
X277800Y432298D01*
Y428300D01*
X278800Y427300D01*
X280799D01*
X281799Y428300D01*
X283798Y427300D02*
X285797D01*
X284798D01*
Y433298D01*
X283798Y432298D01*
X288796D02*
X289796Y433298D01*
X291795D01*
X292795Y432298D01*
Y428300D01*
X291795Y427300D01*
X289796D01*
X288796Y428300D01*
Y432298D01*
X108000Y367500D02*
Y373498D01*
X110999D01*
X111999Y372498D01*
Y370499D01*
X110999Y369499D01*
X108000D01*
X117997Y367500D02*
X113998D01*
X117997Y371499D01*
Y372498D01*
X116997Y373498D01*
X114998D01*
X113998Y372498D01*
X245947Y462700D02*
Y468698D01*
X248946D01*
X249946Y467698D01*
Y465699D01*
X248946Y464699D01*
X245947D01*
X247947D02*
X249946Y462700D01*
X255944Y468698D02*
X251945D01*
Y465699D01*
X253945Y466699D01*
X254944D01*
X255944Y465699D01*
Y463700D01*
X254944Y462700D01*
X252945D01*
X251945Y463700D01*
X221000Y462000D02*
Y467998D01*
X223999D01*
X224999Y466998D01*
Y464999D01*
X223999Y463999D01*
X221000D01*
X222999D02*
X224999Y462000D01*
X229997D02*
Y467998D01*
X226998Y464999D01*
X230997D01*
X196400Y462700D02*
Y468698D01*
X199399D01*
X200399Y467698D01*
Y465699D01*
X199399Y464699D01*
X196400D01*
X198399D02*
X200399Y462700D01*
X202398Y467698D02*
X203398Y468698D01*
X205397D01*
X206397Y467698D01*
Y466699D01*
X205397Y465699D01*
X204397D01*
X205397D01*
X206397Y464699D01*
Y463700D01*
X205397Y462700D01*
X203398D01*
X202398Y463700D01*
X171900Y462700D02*
Y468698D01*
X174899D01*
X175899Y467698D01*
Y465699D01*
X174899Y464699D01*
X171900D01*
X173899D02*
X175899Y462700D01*
X181897D02*
X177898D01*
X181897Y466699D01*
Y467698D01*
X180897Y468698D01*
X178898D01*
X177898Y467698D01*
X278499Y520298D02*
X277499Y521297D01*
X275500D01*
X274500Y520298D01*
Y519298D01*
X275500Y518298D01*
X277499D01*
X278499Y517299D01*
Y516299D01*
X277499Y515299D01*
X275500D01*
X274500Y516299D01*
X283497Y515299D02*
Y521297D01*
X280498Y518298D01*
X284497D01*
X223499Y520298D02*
X222499Y521298D01*
X220500D01*
X219500Y520298D01*
Y519299D01*
X220500Y518299D01*
X222499D01*
X223499Y517299D01*
Y516300D01*
X222499Y515300D01*
X220500D01*
X219500Y516300D01*
X225498Y520298D02*
X226498Y521298D01*
X228497D01*
X229497Y520298D01*
Y519299D01*
X228497Y518299D01*
X227497D01*
X228497D01*
X229497Y517299D01*
Y516300D01*
X228497Y515300D01*
X226498D01*
X225498Y516300D01*
X168499Y520298D02*
X167499Y521298D01*
X165500D01*
X164500Y520298D01*
Y519299D01*
X165500Y518299D01*
X167499D01*
X168499Y517299D01*
Y516300D01*
X167499Y515300D01*
X165500D01*
X164500Y516300D01*
X174497Y515300D02*
X170498D01*
X174497Y519299D01*
Y520298D01*
X173497Y521298D01*
X171498D01*
X170498Y520298D01*
X113499D02*
X112499Y521298D01*
X110500D01*
X109500Y520298D01*
Y519299D01*
X110500Y518299D01*
X112499D01*
X113499Y517299D01*
Y516300D01*
X112499Y515300D01*
X110500D01*
X109500Y516300D01*
X115498Y515300D02*
X117497D01*
X116498D01*
Y521298D01*
X115498Y520298D01*
X158000Y346998D02*
Y342000D01*
X159000Y341000D01*
X160999D01*
X161999Y342000D01*
Y346998D01*
X166997Y341000D02*
Y346998D01*
X163998Y343999D01*
X167997D01*
X203500Y377998D02*
Y373000D01*
X204500Y372000D01*
X206499D01*
X207499Y373000D01*
Y377998D01*
X209498Y376998D02*
X210498Y377998D01*
X212497D01*
X213497Y376998D01*
Y375999D01*
X212497Y374999D01*
X211497D01*
X212497D01*
X213497Y373999D01*
Y373000D01*
X212497Y372000D01*
X210498D01*
X209498Y373000D01*
X204000Y346998D02*
Y342000D01*
X205000Y341000D01*
X206999D01*
X207999Y342000D01*
Y346998D01*
X213997D02*
X209998D01*
Y343999D01*
X211997Y344999D01*
X212997D01*
X213997Y343999D01*
Y342000D01*
X212997Y341000D01*
X210998D01*
X209998Y342000D01*
X113099Y417198D02*
X112099Y418198D01*
X110100D01*
X109100Y417198D01*
Y416199D01*
X110100Y415199D01*
X112099D01*
X113099Y414199D01*
Y413200D01*
X112099Y412200D01*
X110100D01*
X109100Y413200D01*
X115098Y412200D02*
X117097D01*
X116098D01*
Y418198D01*
X115098Y417198D01*
X190599Y418898D02*
X189599Y419898D01*
X187600D01*
X186600Y418898D01*
Y414900D01*
X187600Y413900D01*
X189599D01*
X190599Y414900D01*
X192598Y413900D02*
X194597D01*
X193598D01*
Y419898D01*
X192598Y418898D01*
X190599Y446398D02*
X189599Y447398D01*
X187600D01*
X186600Y446398D01*
Y442400D01*
X187600Y441400D01*
X189599D01*
X190599Y442400D01*
X196597Y441400D02*
X192598D01*
X196597Y445399D01*
Y446398D01*
X195597Y447398D01*
X193598D01*
X192598Y446398D01*
X239300Y415257D02*
Y410259D01*
X240300Y409259D01*
X242299D01*
X243299Y410259D01*
Y415257D01*
X245298Y409259D02*
X247297D01*
X246298D01*
Y415257D01*
X245298Y414257D01*
X285000Y130500D02*
X325000D01*
Y113500D02*
Y130500D01*
X285000Y113000D02*
X325000D01*
X285000Y113500D02*
Y130500D01*
Y128000D02*
X325000D01*
X384791Y247870D02*
X410500Y217988D01*
X280815Y142516D02*
X384791D01*
X384807D01*
X384791D02*
X410500Y172398D01*
Y217988D01*
X280815Y142516D02*
Y247870D01*
X384791D01*
X301791Y142516D02*
Y247870D01*
X189999Y164998D02*
X188999Y165998D01*
X187000D01*
X186000Y164998D01*
Y161000D01*
X187000Y160000D01*
X188999D01*
X189999Y161000D01*
X195997Y165998D02*
X193997Y164998D01*
X191998Y162999D01*
Y161000D01*
X192998Y160000D01*
X194997D01*
X195997Y161000D01*
Y161999D01*
X194997Y162999D01*
X191998D01*
X115900Y304400D02*
Y310398D01*
X118899D01*
X119899Y309398D01*
Y307399D01*
X118899Y306399D01*
X115900D01*
X121898Y303400D02*
X125897D01*
X131895Y310398D02*
X129895D01*
X130895D01*
Y305400D01*
X129895Y304400D01*
X128896D01*
X127896Y305400D01*
X133894Y304400D02*
X135893D01*
X134894D01*
Y310398D01*
X133894Y309398D01*
X224199Y210683D02*
X223199Y211683D01*
X221200D01*
X220200Y210683D01*
Y206685D01*
X221200Y205685D01*
X223199D01*
X224199Y206685D01*
X229197Y205685D02*
Y211683D01*
X226198Y208684D01*
X230197D01*
X121551Y181798D02*
X120551Y182798D01*
X118552D01*
X117552Y181798D01*
Y177800D01*
X118552Y176800D01*
X120551D01*
X121551Y177800D01*
X127549Y182798D02*
X123550D01*
Y179799D01*
X125549Y180799D01*
X126549D01*
X127549Y179799D01*
Y177800D01*
X126549Y176800D01*
X124550D01*
X123550Y177800D01*
X188251Y264298D02*
X187252Y265298D01*
X185252D01*
X184253Y264298D01*
Y260300D01*
X185252Y259300D01*
X187252D01*
X188251Y260300D01*
X190251Y265298D02*
X194249D01*
Y264298D01*
X190251Y260300D01*
Y259300D01*
X154699Y269198D02*
X153699Y270198D01*
X151700D01*
X150700Y269198D01*
Y265200D01*
X151700Y264200D01*
X153699D01*
X154699Y265200D01*
X156698Y269198D02*
X157698Y270198D01*
X159697D01*
X160697Y269198D01*
Y268199D01*
X159697Y267199D01*
X160697Y266199D01*
Y265200D01*
X159697Y264200D01*
X157698D01*
X156698Y265200D01*
Y266199D01*
X157698Y267199D01*
X156698Y268199D01*
Y269198D01*
X157698Y267199D02*
X159697D01*
X141699Y269198D02*
X140699Y270198D01*
X138700D01*
X137700Y269198D01*
Y265200D01*
X138700Y264200D01*
X140699D01*
X141699Y265200D01*
X143698D02*
X144698Y264200D01*
X146697D01*
X147697Y265200D01*
Y269198D01*
X146697Y270198D01*
X144698D01*
X143698Y269198D01*
Y268199D01*
X144698Y267199D01*
X147697D01*
X166400Y265398D02*
Y259400D01*
X170399D01*
X172398D02*
X174397D01*
X173398D01*
Y265398D01*
X172398Y264398D01*
X279900Y298900D02*
Y304898D01*
X282899D01*
X283899Y303898D01*
Y301899D01*
X282899Y300899D01*
X279900D01*
X285898Y298900D02*
X287897D01*
X286898D01*
Y304898D01*
X285898Y303898D01*
X254100Y133400D02*
Y139398D01*
X257099D01*
X258099Y138398D01*
Y136399D01*
X257099Y135399D01*
X254100D01*
X264097Y133400D02*
X260098D01*
X264097Y137399D01*
Y138398D01*
X263097Y139398D01*
X261098D01*
X260098Y138398D01*
X338100Y136400D02*
Y142398D01*
X341099D01*
X342099Y141398D01*
Y139399D01*
X341099Y138399D01*
X338100D01*
X344098Y141398D02*
X345098Y142398D01*
X347097D01*
X348097Y141398D01*
Y140399D01*
X347097Y139399D01*
X346097D01*
X347097D01*
X348097Y138399D01*
Y137400D01*
X347097Y136400D01*
X345098D01*
X344098Y137400D01*
X115900Y134400D02*
Y140398D01*
X118899D01*
X119899Y139398D01*
Y137399D01*
X118899Y136399D01*
X115900D01*
X121898Y133400D02*
X125897D01*
X131895Y140398D02*
X129895D01*
X130895D01*
Y135400D01*
X129895Y134400D01*
X128896D01*
X127896Y135400D01*
X137893Y134400D02*
X133894D01*
X137893Y138399D01*
Y139398D01*
X136893Y140398D01*
X134894D01*
X133894Y139398D01*
X364299Y132300D02*
Y136298D01*
X363299Y137298D01*
X361300D01*
X360300Y136298D01*
Y132300D01*
X361300Y131300D01*
X363299D01*
X362299Y133299D02*
X364299Y131300D01*
X363299D02*
X364299Y132300D01*
X366298Y131300D02*
X368297D01*
X367298D01*
Y137298D01*
X366298Y136298D01*
X116800Y204100D02*
Y210098D01*
X119799D01*
X120799Y209098D01*
Y207099D01*
X119799Y206099D01*
X116800D01*
X118799D02*
X120799Y204100D01*
X122798D02*
X124797D01*
X123798D01*
Y210098D01*
X122798Y209098D01*
X259150Y183150D02*
Y189148D01*
X262149D01*
X263149Y188148D01*
Y186149D01*
X262149Y185149D01*
X259150D01*
X261149D02*
X263149Y183150D01*
X265148Y188148D02*
X266148Y189148D01*
X268147D01*
X269147Y188148D01*
Y187149D01*
X268147Y186149D01*
X267147D01*
X268147D01*
X269147Y185149D01*
Y184150D01*
X268147Y183150D01*
X266148D01*
X265148Y184150D01*
X259100Y229700D02*
Y235698D01*
X262099D01*
X263099Y234698D01*
Y232699D01*
X262099Y231699D01*
X259100D01*
X261099D02*
X263099Y229700D01*
X268097D02*
Y235698D01*
X265098Y232699D01*
X269097D01*
X343800Y301398D02*
Y296400D01*
X344800Y295400D01*
X346799D01*
X347799Y296400D01*
Y301398D01*
X349798Y295400D02*
X351797D01*
X350798D01*
Y301398D01*
X349798Y300398D01*
X139100Y244898D02*
Y239900D01*
X140100Y238900D01*
X142099D01*
X143099Y239900D01*
Y244898D01*
X149097Y238900D02*
X145098D01*
X149097Y242899D01*
Y243898D01*
X148097Y244898D01*
X146098D01*
X145098Y243898D01*
X281300Y257398D02*
Y252400D01*
X282300Y251400D01*
X284299D01*
X285299Y252400D01*
Y257398D01*
X287298Y256398D02*
X288298Y257398D01*
X290297D01*
X291297Y256398D01*
Y255399D01*
X290297Y254399D01*
X289297D01*
X290297D01*
X291297Y253399D01*
Y252400D01*
X290297Y251400D01*
X288298D01*
X287298Y252400D01*
X285500Y139998D02*
Y135000D01*
X286500Y134000D01*
X288499D01*
X289499Y135000D01*
Y139998D01*
X294497Y134000D02*
Y139998D01*
X291498Y136999D01*
X295497D01*
X254650Y301848D02*
Y295850D01*
X256649Y297849D01*
X258649Y295850D01*
Y301848D01*
X260648Y295850D02*
X262647D01*
X261648D01*
Y301848D01*
X260648Y300848D01*
D42*
X386614Y384177D02*
G03*
X386614Y384177I-492J0D01*
G01*
X113996Y373256D02*
G03*
X113996Y373256I-492J0D01*
G01*
X381134Y127315D02*
G03*
X381134Y127315I-492J0D01*
G01*
X384110Y289000D02*
G03*
X384110Y289000I-492J0D01*
G01*
X199370Y231323D02*
G03*
X199370Y231323I-492J0D01*
G01*
D43*
X392815Y393134D02*
G03*
X392815Y393134I-1181J0D01*
G01*
X381020Y280496D02*
G03*
X381020Y280496I-1181J0D01*
G01*
X194547Y222366D02*
G03*
X194547Y222366I-1181J0D01*
G01*
D44*
X387697Y389197D02*
X437303D01*
X387697Y438803D02*
X437303D01*
X387697Y389197D02*
Y438803D01*
X437303Y389197D02*
Y438803D01*
X156500Y351000D02*
Y366000D01*
X191500D01*
Y351000D02*
Y366000D01*
X156500Y351000D02*
X191500D01*
X263500Y320500D02*
X303500D01*
X263500Y340500D02*
X303500D01*
X263500Y320500D02*
Y340500D01*
X303500Y320500D02*
Y340500D01*
X458776Y427925D02*
Y431075D01*
X468224Y427925D02*
Y431075D01*
X367500Y512500D02*
X467500D01*
X367500Y492500D02*
Y512500D01*
Y492500D02*
X467500D01*
Y512500D01*
X367500Y342500D02*
X467500D01*
X367500Y322500D02*
Y342500D01*
Y322500D02*
X467500D01*
Y342500D01*
X251425Y449276D02*
X254575D01*
X251425Y458724D02*
X254575D01*
X201925Y449276D02*
X205075D01*
X201925Y458724D02*
X205075D01*
X177425Y449276D02*
X180575D01*
X177425Y458724D02*
X180575D01*
X226925Y458724D02*
X230075D01*
X226925Y449276D02*
X230075D01*
X108500Y375150D02*
X118500D01*
Y408850D01*
X108500D02*
X118500D01*
X108500Y375150D02*
Y408850D01*
X414468Y357638D02*
Y362362D01*
X186000Y423000D02*
X221000D01*
Y438000D01*
X186000D02*
X221000D01*
X186000Y423000D02*
Y438000D01*
Y395500D02*
X221000D01*
Y410500D01*
X186000D02*
X221000D01*
X186000Y395500D02*
Y410500D01*
X361705Y127905D02*
G03*
X377295Y127905I7795J-5906D01*
G01*
X383776Y276500D02*
G03*
X383776Y271500I0J-2500D01*
G01*
X125000Y280000D02*
Y300000D01*
X225000D01*
Y280000D02*
Y300000D01*
X125000Y280000D02*
X225000D01*
X261500Y197600D02*
Y198500D01*
Y218500D02*
Y219400D01*
X258500Y198500D02*
X261500D01*
X258500D02*
Y218500D01*
X264500D01*
Y198500D02*
Y218500D01*
X261500Y198500D02*
X264500D01*
X337500Y113000D02*
Y133000D01*
Y113000D02*
X347500D01*
Y133000D01*
X337500D02*
X347500D01*
X261500Y172000D02*
Y172900D01*
Y151100D02*
Y152000D01*
Y172000D02*
X264500D01*
Y152000D02*
Y172000D01*
X258500Y152000D02*
X264500D01*
X258500D02*
Y172000D01*
X261500D01*
X361705Y127905D02*
X377295D01*
X343224Y263567D02*
Y284433D01*
X383776Y263567D02*
Y271500D01*
Y276500D02*
Y284433D01*
X343224Y263567D02*
X383776D01*
X343224Y284433D02*
X383776D01*
X253500Y110000D02*
Y130000D01*
Y110000D02*
X263500D01*
Y130000D01*
X253500D02*
X263500D01*
X125000Y110000D02*
Y130000D01*
X225000D01*
Y110000D02*
Y130000D01*
X125000Y110000D02*
X225000D01*
X116776Y191425D02*
Y194575D01*
X126224Y191425D02*
Y194575D01*
X284000Y275500D02*
Y295500D01*
X324000Y275500D02*
Y295500D01*
X284000Y275500D02*
X324000D01*
X284000Y295500D02*
X324000D01*
X172500Y250138D02*
Y254862D01*
X254000Y257500D02*
Y292500D01*
Y257500D02*
X269000D01*
Y292500D01*
X254000D02*
X269000D01*
X147697Y176697D02*
Y226303D01*
X197303Y176697D02*
Y226303D01*
X147697Y176697D02*
X197303D01*
X147697Y226303D02*
X197303D01*
D45*
X239862Y382362D02*
Y384747D01*
Y404638D02*
X242249D01*
X262138Y382362D02*
Y384747D01*
X259751Y404638D02*
X262138D01*
X239862Y402253D02*
Y404638D01*
Y382362D02*
X242249D01*
X259751D02*
X262138D01*
Y402253D02*
Y404638D01*
D46*
X261832Y333500D02*
X258500D01*
X261832Y336832D01*
Y337665D01*
X260999Y338498D01*
X259333D01*
X258500Y337665D01*
X260500Y323500D02*
X262166D01*
X261333D01*
Y328498D01*
X260500Y327665D01*
X304500Y328498D02*
X307832D01*
Y327665D01*
X304500Y324333D01*
Y323500D01*
Y337665D02*
X305333Y338498D01*
X306999D01*
X307832Y337665D01*
Y336832D01*
X306999Y335999D01*
X307832Y335166D01*
Y334333D01*
X306999Y333500D01*
X305333D01*
X304500Y334333D01*
Y335166D01*
X305333Y335999D01*
X304500Y336832D01*
Y337665D01*
X305333Y335999D02*
X306999D01*
X471832Y505500D02*
X468500D01*
X471832Y508832D01*
Y509665D01*
X470999Y510498D01*
X469333D01*
X468500Y509665D01*
X473498D02*
X474331Y510498D01*
X475998D01*
X476831Y509665D01*
Y506333D01*
X475998Y505500D01*
X474331D01*
X473498Y506333D01*
Y509665D01*
X468500Y495500D02*
X470166D01*
X469333D01*
Y500498D01*
X468500Y499665D01*
X472665D02*
X473498Y500498D01*
X475165D01*
X475998Y499665D01*
Y496333D01*
X475165Y495500D01*
X473498D01*
X472665Y496333D01*
Y499665D01*
X364500Y505500D02*
X366166D01*
X365333D01*
Y510498D01*
X364500Y509665D01*
X360500Y505500D02*
X362166D01*
X361333D01*
Y510498D01*
X360500Y509665D01*
X364500Y493500D02*
X366166D01*
X365333D01*
Y498498D01*
X364500Y497665D01*
X471832Y335500D02*
X468500D01*
X471832Y338832D01*
Y339665D01*
X470999Y340498D01*
X469333D01*
X468500Y339665D01*
X473498D02*
X474331Y340498D01*
X475998D01*
X476831Y339665D01*
Y336333D01*
X475998Y335500D01*
X474331D01*
X473498Y336333D01*
Y339665D01*
X468500Y325500D02*
X470166D01*
X469333D01*
Y330498D01*
X468500Y329665D01*
X472665D02*
X473498Y330498D01*
X475165D01*
X475998Y329665D01*
Y326333D01*
X475165Y325500D01*
X473498D01*
X472665Y326333D01*
Y329665D01*
X364500Y335500D02*
X366166D01*
X365333D01*
Y340498D01*
X364500Y339665D01*
X360500Y335500D02*
X362166D01*
X361333D01*
Y340498D01*
X360500Y339665D01*
X364500Y323500D02*
X366166D01*
X365333D01*
Y328498D01*
X364500Y327665D01*
X228000Y299000D02*
X226334D01*
X227167D01*
Y294002D01*
X228000Y294835D01*
X232000Y287000D02*
X230334D01*
X231167D01*
Y282002D01*
X232000Y282835D01*
X228000Y287000D02*
X226334D01*
X227167D01*
Y282002D01*
X228000Y282835D01*
X124000Y297000D02*
X122334D01*
X123167D01*
Y292002D01*
X124000Y292835D01*
X119835D02*
X119002Y292002D01*
X117335D01*
X116502Y292835D01*
Y296167D01*
X117335Y297000D01*
X119002D01*
X119835Y296167D01*
Y292835D01*
X120668Y287000D02*
X124000D01*
X120668Y283668D01*
Y282835D01*
X121501Y282002D01*
X123167D01*
X124000Y282835D01*
X119002D02*
X118169Y282002D01*
X116502D01*
X115669Y282835D01*
Y286167D01*
X116502Y287000D01*
X118169D01*
X119002Y286167D01*
Y282835D01*
X228000Y129000D02*
X226334D01*
X227167D01*
Y124002D01*
X228000Y124835D01*
X232000Y117000D02*
X230334D01*
X231167D01*
Y112002D01*
X232000Y112835D01*
X228000Y117000D02*
X226334D01*
X227167D01*
Y112002D01*
X228000Y112835D01*
X124000Y127000D02*
X122334D01*
X123167D01*
Y122002D01*
X124000Y122835D01*
X119835D02*
X119002Y122002D01*
X117335D01*
X116502Y122835D01*
Y126167D01*
X117335Y127000D01*
X119002D01*
X119835Y126167D01*
Y122835D01*
X120668Y117000D02*
X124000D01*
X120668Y113668D01*
Y112835D01*
X121501Y112002D01*
X123167D01*
X124000Y112835D01*
X119002D02*
X118169Y112002D01*
X116502D01*
X115669Y112835D01*
Y116167D01*
X116502Y117000D01*
X118169D01*
X119002Y116167D01*
Y112835D01*
X283000Y278335D02*
X282167Y277502D01*
X280501D01*
X279668Y278335D01*
Y279168D01*
X280501Y280001D01*
X279668Y280834D01*
Y281667D01*
X280501Y282500D01*
X282167D01*
X283000Y281667D01*
Y280834D01*
X282167Y280001D01*
X283000Y279168D01*
Y278335D01*
X282167Y280001D02*
X280501D01*
X283000Y287502D02*
X279668D01*
Y288335D01*
X283000Y291667D01*
Y292500D01*
X327000D02*
X325334D01*
X326167D01*
Y287502D01*
X327000Y288335D01*
X325668Y282500D02*
X329000D01*
X325668Y279168D01*
Y278335D01*
X326501Y277502D01*
X328167D01*
X329000Y278335D01*
D47*
X381291Y146334D02*
Y149000D01*
X383957Y146334D01*
X384624D01*
X385290Y147001D01*
Y148334D01*
X384624Y149000D01*
Y145001D02*
X385290Y144335D01*
Y143002D01*
X384624Y142335D01*
X381958D01*
X381291Y143002D01*
Y144335D01*
X381958Y145001D01*
X384624D01*
X305291Y149500D02*
Y148167D01*
Y148834D01*
X309290D01*
X308624Y149500D01*
X305291Y146168D02*
Y144835D01*
Y145501D01*
X309290D01*
X308624Y146168D01*
X305791Y246000D02*
Y244667D01*
Y245334D01*
X309790D01*
X309124Y246000D01*
Y242668D02*
X309790Y242001D01*
Y240668D01*
X309124Y240002D01*
X306458D01*
X305791Y240668D01*
Y242001D01*
X306458Y242668D01*
X309124D01*
X382291Y244500D02*
Y243167D01*
Y243834D01*
X386290D01*
X385624Y244500D01*
X287790Y209000D02*
X283791Y206334D01*
X287790D02*
X283791Y209000D01*
X287790Y205001D02*
X283791D01*
Y203002D01*
X284458Y202336D01*
X285124D01*
X285791Y203002D01*
Y205001D01*
Y203002D01*
X286457Y202336D01*
X287124D01*
X287790Y203002D01*
Y205001D01*
Y198337D02*
Y201003D01*
X283791D01*
Y198337D01*
X285791Y201003D02*
Y199670D01*
X287790Y194338D02*
Y197004D01*
X283791D01*
Y194338D01*
X285791Y197004D02*
Y195671D01*
X283125Y193005D02*
Y190339D01*
X283791Y189006D02*
X287790D01*
Y187007D01*
X287124Y186341D01*
X285791D01*
X285124Y187007D01*
Y189006D01*
X283791Y185008D02*
X287790D01*
Y183008D01*
X287124Y182342D01*
X285791D01*
X285124Y183008D01*
Y185008D01*
Y183675D02*
X283791Y182342D01*
X287790Y179010D02*
Y180343D01*
X287124Y181009D01*
X284458D01*
X283791Y180343D01*
Y179010D01*
X284458Y178343D01*
X287124D01*
X287790Y179010D01*
X307790Y201500D02*
X303791Y198834D01*
X307790D02*
X303791Y201500D01*
X307790Y197501D02*
X303791D01*
Y195502D01*
X304458Y194835D01*
X305124D01*
X305791Y195502D01*
Y197501D01*
Y195502D01*
X306457Y194835D01*
X307124D01*
X307790Y195502D01*
Y197501D01*
Y190837D02*
Y193503D01*
X303791D01*
Y190837D01*
X305791Y193503D02*
Y192170D01*
X307790Y186838D02*
Y189504D01*
X303791D01*
Y186838D01*
X305791Y189504D02*
Y188171D01*
M02*
