G04 Layer_Color=16711935*
%FSLAX25Y25*%
%MOIN*%
G70*
G01*
G75*
%ADD81C,0.00500*%
%ADD82C,0.00394*%
D81*
X392244Y382583D02*
G03*
X392284Y382543I39J0D01*
G01*
X393268D02*
G03*
X393307Y382583I0J39D01*
G01*
X381004Y406697D02*
G03*
X380965Y406657I0J-39D01*
G01*
Y405673D02*
G03*
X381004Y405634I39J-0D01*
G01*
Y428350D02*
G03*
X380965Y428311I0J-39D01*
G01*
Y427327D02*
G03*
X381004Y427287I39J-0D01*
G01*
X432677Y445496D02*
G03*
X432638Y445535I-39J0D01*
G01*
X431653D02*
G03*
X431614Y445496I0J-39D01*
G01*
X420866D02*
G03*
X420827Y445535I-39J0D01*
G01*
X419842D02*
G03*
X419803Y445496I0J-39D01*
G01*
X399213D02*
G03*
X399173Y445535I-39J0D01*
G01*
X398189D02*
G03*
X398150Y445496I0J-39D01*
G01*
X443917Y421382D02*
G03*
X443957Y421421I0J39D01*
G01*
Y422405D02*
G03*
X443917Y422445I-39J-0D01*
G01*
Y399728D02*
G03*
X443957Y399768I0J39D01*
G01*
Y400752D02*
G03*
X443917Y400791I-39J0D01*
G01*
X425709Y382583D02*
G03*
X425748Y382543I39J0D01*
G01*
X426732D02*
G03*
X426772Y382583I0J39D01*
G01*
X404055D02*
G03*
X404095Y382543I39J0D01*
G01*
X405079D02*
G03*
X405118Y382583I0J39D01*
G01*
X381004Y394886D02*
G03*
X380965Y394846I0J-39D01*
G01*
Y393862D02*
G03*
X381004Y393823I39J-0D01*
G01*
Y416539D02*
G03*
X380965Y416500I0J-39D01*
G01*
Y415516D02*
G03*
X381004Y415476I39J-0D01*
G01*
Y438193D02*
G03*
X380965Y438154I0J-39D01*
G01*
Y437169D02*
G03*
X381004Y437130I39J0D01*
G01*
X443917Y433193D02*
G03*
X443957Y433232I0J39D01*
G01*
Y434216D02*
G03*
X443917Y434256I-39J0D01*
G01*
X409055Y445496D02*
G03*
X409016Y445535I-39J0D01*
G01*
X408032D02*
G03*
X407992Y445496I0J-39D01*
G01*
X443917Y411539D02*
G03*
X443957Y411579I0J39D01*
G01*
Y412563D02*
G03*
X443917Y412602I-39J0D01*
G01*
Y389886D02*
G03*
X443957Y389925I0J39D01*
G01*
Y390909D02*
G03*
X443917Y390949I-39J0D01*
G01*
X415866Y382583D02*
G03*
X415906Y382543I39J0D01*
G01*
X416890D02*
G03*
X416929Y382583I0J39D01*
G01*
X394213D02*
G03*
X394252Y382543I39J0D01*
G01*
X395236D02*
G03*
X395276Y382583I0J39D01*
G01*
X381004Y404728D02*
G03*
X380965Y404689I0J-39D01*
G01*
Y403705D02*
G03*
X381004Y403665I39J-0D01*
G01*
Y426382D02*
G03*
X380965Y426342I0J-39D01*
G01*
Y425358D02*
G03*
X381004Y425319I39J-0D01*
G01*
X430709Y445496D02*
G03*
X430669Y445535I-39J0D01*
G01*
X429685D02*
G03*
X429646Y445496I0J-39D01*
G01*
X418898D02*
G03*
X418858Y445535I-39J0D01*
G01*
X417874D02*
G03*
X417835Y445496I0J-39D01*
G01*
X397244D02*
G03*
X397205Y445535I-39J0D01*
G01*
X396220D02*
G03*
X396181Y445496I0J-39D01*
G01*
X443917Y423350D02*
G03*
X443957Y423390I0J39D01*
G01*
Y424374D02*
G03*
X443917Y424413I-39J-0D01*
G01*
Y401697D02*
G03*
X443957Y401736I0J39D01*
G01*
Y402720D02*
G03*
X443917Y402760I-39J0D01*
G01*
X427677Y382583D02*
G03*
X427716Y382543I39J0D01*
G01*
X428701D02*
G03*
X428740Y382583I0J39D01*
G01*
X406024D02*
G03*
X406063Y382543I39J0D01*
G01*
X407047D02*
G03*
X407087Y382583I0J39D01*
G01*
X381004Y392917D02*
G03*
X380965Y392878I0J-39D01*
G01*
Y391894D02*
G03*
X381004Y391854I39J0D01*
G01*
Y414571D02*
G03*
X380965Y414531I0J-39D01*
G01*
Y413547D02*
G03*
X381004Y413508I39J-0D01*
G01*
Y436224D02*
G03*
X380965Y436185I0J-39D01*
G01*
Y435201D02*
G03*
X381004Y435161I39J0D01*
G01*
X443917D02*
G03*
X443957Y435201I0J39D01*
G01*
Y436185D02*
G03*
X443917Y436224I-39J0D01*
G01*
X407087Y445496D02*
G03*
X407047Y445535I-39J0D01*
G01*
X406063D02*
G03*
X406024Y445496I0J-39D01*
G01*
X443917Y413508D02*
G03*
X443957Y413547I0J39D01*
G01*
Y414531D02*
G03*
X443917Y414571I-39J0D01*
G01*
Y391854D02*
G03*
X443957Y391894I0J39D01*
G01*
Y392878D02*
G03*
X443917Y392917I-39J0D01*
G01*
X417835Y382583D02*
G03*
X417874Y382543I39J0D01*
G01*
X418858D02*
G03*
X418898Y382583I0J39D01*
G01*
X396181D02*
G03*
X396220Y382543I39J0D01*
G01*
X397205D02*
G03*
X397244Y382583I0J39D01*
G01*
X381004Y402760D02*
G03*
X380965Y402720I0J-39D01*
G01*
Y401736D02*
G03*
X381004Y401697I39J-0D01*
G01*
Y424413D02*
G03*
X380965Y424374I0J-39D01*
G01*
Y423390D02*
G03*
X381004Y423350I39J-0D01*
G01*
X428740Y445496D02*
G03*
X428701Y445535I-39J0D01*
G01*
X427716D02*
G03*
X427677Y445496I0J-39D01*
G01*
X416929D02*
G03*
X416890Y445535I-39J0D01*
G01*
X415906D02*
G03*
X415866Y445496I0J-39D01*
G01*
X395276D02*
G03*
X395236Y445535I-39J0D01*
G01*
X394252D02*
G03*
X394213Y445496I0J-39D01*
G01*
X443917Y425319D02*
G03*
X443957Y425358I0J39D01*
G01*
Y426342D02*
G03*
X443917Y426382I-39J-0D01*
G01*
Y403665D02*
G03*
X443957Y403705I0J39D01*
G01*
Y404689D02*
G03*
X443917Y404728I-39J0D01*
G01*
X429646Y382583D02*
G03*
X429685Y382543I39J0D01*
G01*
X430669D02*
G03*
X430709Y382583I0J39D01*
G01*
X407992D02*
G03*
X408032Y382543I39J0D01*
G01*
X409016D02*
G03*
X409055Y382583I0J39D01*
G01*
X381004Y390949D02*
G03*
X380965Y390909I0J-39D01*
G01*
Y389925D02*
G03*
X381004Y389886I39J0D01*
G01*
Y412602D02*
G03*
X380965Y412563I0J-39D01*
G01*
Y411579D02*
G03*
X381004Y411539I39J-0D01*
G01*
Y434256D02*
G03*
X380965Y434216I0J-39D01*
G01*
Y433232D02*
G03*
X381004Y433193I39J0D01*
G01*
X443917Y437130D02*
G03*
X443957Y437169I0J39D01*
G01*
Y438154D02*
G03*
X443917Y438193I-39J0D01*
G01*
X405118Y445496D02*
G03*
X405079Y445535I-39J0D01*
G01*
X404095D02*
G03*
X404055Y445496I0J-39D01*
G01*
X443917Y415476D02*
G03*
X443957Y415516I0J39D01*
G01*
Y416500D02*
G03*
X443917Y416539I-39J0D01*
G01*
X413898Y382583D02*
G03*
X413937Y382543I39J0D01*
G01*
X414921D02*
G03*
X414961Y382583I0J39D01*
G01*
X443917Y393823D02*
G03*
X443957Y393862I0J39D01*
G01*
Y394846D02*
G03*
X443917Y394886I-39J0D01*
G01*
X419803Y382583D02*
G03*
X419842Y382543I39J0D01*
G01*
X420827D02*
G03*
X420866Y382583I0J39D01*
G01*
X398150D02*
G03*
X398189Y382543I39J0D01*
G01*
X399173D02*
G03*
X399213Y382583I0J39D01*
G01*
X381004Y400791D02*
G03*
X380965Y400752I0J-39D01*
G01*
Y399768D02*
G03*
X381004Y399728I39J-0D01*
G01*
Y422445D02*
G03*
X380965Y422405I0J-39D01*
G01*
Y421421D02*
G03*
X381004Y421382I39J-0D01*
G01*
X426772Y445496D02*
G03*
X426732Y445535I-39J0D01*
G01*
X425748D02*
G03*
X425709Y445496I0J-39D01*
G01*
X414961D02*
G03*
X414921Y445535I-39J0D01*
G01*
X413937D02*
G03*
X413898Y445496I0J-39D01*
G01*
X393307D02*
G03*
X393268Y445535I-39J0D01*
G01*
X392284D02*
G03*
X392244Y445496I0J-39D01*
G01*
X443917Y427287D02*
G03*
X443957Y427327I0J39D01*
G01*
Y428311D02*
G03*
X443917Y428350I-39J-0D01*
G01*
Y405634D02*
G03*
X443957Y405673I0J39D01*
G01*
Y406657D02*
G03*
X443917Y406697I-39J0D01*
G01*
X431614Y382583D02*
G03*
X431653Y382543I39J0D01*
G01*
X432638D02*
G03*
X432677Y382583I0J39D01*
G01*
X409961D02*
G03*
X410000Y382543I39J0D01*
G01*
X410984D02*
G03*
X411024Y382583I0J39D01*
G01*
X388307D02*
G03*
X388347Y382543I39J0D01*
G01*
X389331D02*
G03*
X389370Y382583I0J39D01*
G01*
X381004Y410634D02*
G03*
X380965Y410594I0J-39D01*
G01*
Y409610D02*
G03*
X381004Y409571I39J-0D01*
G01*
Y432287D02*
G03*
X380965Y432248I0J-39D01*
G01*
Y431264D02*
G03*
X381004Y431224I39J0D01*
G01*
X436614Y445496D02*
G03*
X436575Y445535I-39J0D01*
G01*
X435591D02*
G03*
X435551Y445496I0J-39D01*
G01*
X403150D02*
G03*
X403110Y445535I-39J0D01*
G01*
X402126D02*
G03*
X402087Y445496I0J-39D01*
G01*
X443917Y417445D02*
G03*
X443957Y417484I0J39D01*
G01*
Y418469D02*
G03*
X443917Y418508I-39J-0D01*
G01*
Y395791D02*
G03*
X443957Y395831I0J39D01*
G01*
Y396815D02*
G03*
X443917Y396854I-39J0D01*
G01*
X421772Y382583D02*
G03*
X421811Y382543I39J0D01*
G01*
X422795D02*
G03*
X422835Y382583I0J39D01*
G01*
X400118D02*
G03*
X400157Y382543I39J0D01*
G01*
X401142D02*
G03*
X401181Y382583I0J39D01*
G01*
X381004Y398823D02*
G03*
X380965Y398783I0J-39D01*
G01*
Y397799D02*
G03*
X381004Y397760I39J-0D01*
G01*
Y420476D02*
G03*
X380965Y420437I0J-39D01*
G01*
Y419453D02*
G03*
X381004Y419413I39J-0D01*
G01*
X424803Y445496D02*
G03*
X424764Y445535I-39J0D01*
G01*
X423779D02*
G03*
X423740Y445496I0J-39D01*
G01*
X391339D02*
G03*
X391299Y445535I-39J0D01*
G01*
X390315D02*
G03*
X390276Y445496I0J-39D01*
G01*
X443917Y429256D02*
G03*
X443957Y429295I0J39D01*
G01*
Y430279D02*
G03*
X443917Y430319I-39J-0D01*
G01*
X412992Y445496D02*
G03*
X412953Y445535I-39J0D01*
G01*
X411969D02*
G03*
X411929Y445496I0J-39D01*
G01*
X443917Y407602D02*
G03*
X443957Y407642I0J39D01*
G01*
Y408626D02*
G03*
X443917Y408665I-39J0D01*
G01*
X433583Y382583D02*
G03*
X433622Y382543I39J0D01*
G01*
X434606D02*
G03*
X434646Y382583I0J39D01*
G01*
X411929D02*
G03*
X411969Y382543I39J0D01*
G01*
X412953D02*
G03*
X412992Y382583I0J39D01*
G01*
X390276D02*
G03*
X390315Y382543I39J0D01*
G01*
X391299D02*
G03*
X391339Y382583I0J39D01*
G01*
X381004Y408665D02*
G03*
X380965Y408626I0J-39D01*
G01*
Y407642D02*
G03*
X381004Y407602I39J-0D01*
G01*
Y430319D02*
G03*
X380965Y430279I0J-39D01*
G01*
Y429295D02*
G03*
X381004Y429256I39J0D01*
G01*
X434646Y445496D02*
G03*
X434606Y445535I-39J0D01*
G01*
X433622D02*
G03*
X433583Y445496I0J-39D01*
G01*
X422835D02*
G03*
X422795Y445535I-39J0D01*
G01*
X421811D02*
G03*
X421772Y445496I0J-39D01*
G01*
X401181D02*
G03*
X401142Y445535I-39J0D01*
G01*
X400157D02*
G03*
X400118Y445496I0J-39D01*
G01*
X443917Y419413D02*
G03*
X443957Y419453I0J39D01*
G01*
Y420437D02*
G03*
X443917Y420476I-39J-0D01*
G01*
Y397760D02*
G03*
X443957Y397799I0J39D01*
G01*
Y398783D02*
G03*
X443917Y398823I-39J0D01*
G01*
X423740Y382583D02*
G03*
X423779Y382543I39J0D01*
G01*
X424764D02*
G03*
X424803Y382583I0J39D01*
G01*
X402087D02*
G03*
X402126Y382543I39J0D01*
G01*
X403110D02*
G03*
X403150Y382583I0J39D01*
G01*
X381004Y396854D02*
G03*
X380965Y396815I0J-39D01*
G01*
Y395831D02*
G03*
X381004Y395791I39J-0D01*
G01*
Y418508D02*
G03*
X380965Y418469I0J-39D01*
G01*
Y417484D02*
G03*
X381004Y417445I39J-0D01*
G01*
X389370Y445496D02*
G03*
X389331Y445535I-39J0D01*
G01*
X388347D02*
G03*
X388307Y445496I0J-39D01*
G01*
X443917Y431224D02*
G03*
X443957Y431264I0J39D01*
G01*
Y432248D02*
G03*
X443917Y432287I-39J-0D01*
G01*
X411024Y445496D02*
G03*
X410984Y445535I-39J0D01*
G01*
X410000D02*
G03*
X409961Y445496I0J-39D01*
G01*
X443917Y409571D02*
G03*
X443957Y409610I0J39D01*
G01*
Y410594D02*
G03*
X443917Y410634I-39J0D01*
G01*
X435551Y382583D02*
G03*
X435591Y382543I39J0D01*
G01*
X436575D02*
G03*
X436614Y382583I0J39D01*
G01*
X390807Y394354D02*
G03*
X390807Y390417I0J-1969D01*
G01*
D02*
G03*
X390807Y394354I0J1969D01*
G01*
X393307Y384404D02*
Y384968D01*
Y385690D01*
Y386480D01*
X392284Y382543D02*
X393268D01*
X392244Y384968D02*
Y385690D01*
Y382583D02*
Y384013D01*
Y384404D02*
Y384968D01*
X393307Y384013D02*
Y384404D01*
Y382583D02*
Y384013D01*
X392244D02*
Y384404D01*
Y385690D02*
Y386480D01*
X382826Y405634D02*
X383389D01*
X384112D01*
X384902D01*
X380965Y405673D02*
Y406657D01*
X383389Y406697D02*
X384112D01*
X381004D02*
X382434D01*
X382826D02*
X383389D01*
X382434Y405634D02*
X382826D01*
X381004D02*
X382434D01*
Y406697D02*
X382826D01*
X384112D02*
X384902D01*
X382826Y427287D02*
X383389D01*
X384112D01*
X384902D01*
X380965Y427327D02*
Y428311D01*
X383389Y428350D02*
X384112D01*
X381004D02*
X382434D01*
X382826D02*
X383389D01*
X382434Y427287D02*
X382826D01*
X381004D02*
X382434D01*
Y428350D02*
X382826D01*
X384112D02*
X384902D01*
X431614Y443111D02*
Y443674D01*
Y442388D02*
Y443111D01*
Y441598D02*
Y442388D01*
X431653Y445535D02*
X432638D01*
X432677Y442388D02*
Y443111D01*
Y444066D02*
Y445496D01*
Y443111D02*
Y443674D01*
X431614D02*
Y444066D01*
Y445496D01*
X432677Y443674D02*
Y444066D01*
Y441598D02*
Y442388D01*
X419803Y443111D02*
Y443674D01*
Y442388D02*
Y443111D01*
Y441598D02*
Y442388D01*
X419842Y445535D02*
X420827D01*
X420866Y442388D02*
Y443111D01*
Y444066D02*
Y445496D01*
Y443111D02*
Y443674D01*
X419803D02*
Y444066D01*
Y445496D01*
X420866Y443674D02*
Y444066D01*
Y441598D02*
Y442388D01*
X398150Y443111D02*
Y443674D01*
Y442388D02*
Y443111D01*
Y441598D02*
Y442388D01*
X398189Y445535D02*
X399173D01*
X399213Y442388D02*
Y443111D01*
Y444066D02*
Y445496D01*
Y443111D02*
Y443674D01*
X398150D02*
Y444066D01*
Y445496D01*
X399213Y443674D02*
Y444066D01*
Y441598D02*
Y442388D01*
X441532Y422445D02*
X442096D01*
X440810D02*
X441532D01*
X440020D02*
X440810D01*
X443957Y421421D02*
Y422405D01*
X440810Y421382D02*
X441532D01*
X442487D02*
X443917D01*
X441532D02*
X442096D01*
Y422445D02*
X442487D01*
X443917D01*
X442096Y421382D02*
X442487D01*
X440020D02*
X440810D01*
X441532Y400791D02*
X442096D01*
X440810D02*
X441532D01*
X440020D02*
X440810D01*
X443957Y399768D02*
Y400752D01*
X440810Y399728D02*
X441532D01*
X442487D02*
X443917D01*
X441532D02*
X442096D01*
Y400791D02*
X442487D01*
X443917D01*
X442096Y399728D02*
X442487D01*
X440020D02*
X440810D01*
X426772Y384404D02*
Y384968D01*
Y385690D01*
Y386480D01*
X425748Y382543D02*
X426732D01*
X425709Y384968D02*
Y385690D01*
Y382583D02*
Y384013D01*
Y384404D02*
Y384968D01*
X426772Y384013D02*
Y384404D01*
Y382583D02*
Y384013D01*
X425709D02*
Y384404D01*
Y385690D02*
Y386480D01*
X405118Y384404D02*
Y384968D01*
Y385690D01*
Y386480D01*
X404095Y382543D02*
X405079D01*
X404055Y384968D02*
Y385690D01*
Y382583D02*
Y384013D01*
Y384404D02*
Y384968D01*
X405118Y384013D02*
Y384404D01*
Y382583D02*
Y384013D01*
X404055D02*
Y384404D01*
Y385690D02*
Y386480D01*
X382826Y393823D02*
X383389D01*
X384112D01*
X384902D01*
X380965Y393862D02*
Y394846D01*
X383389Y394886D02*
X384112D01*
X381004D02*
X382434D01*
X382826D02*
X383389D01*
X382434Y393823D02*
X382826D01*
X381004D02*
X382434D01*
Y394886D02*
X382826D01*
X384112D02*
X384902D01*
X382826Y415476D02*
X383389D01*
X384112D01*
X384902D01*
X380965Y415516D02*
Y416500D01*
X383389Y416539D02*
X384112D01*
X381004D02*
X382434D01*
X382826D02*
X383389D01*
X382434Y415476D02*
X382826D01*
X381004D02*
X382434D01*
Y416539D02*
X382826D01*
X384112D02*
X384902D01*
X382826Y437130D02*
X383389D01*
X384112D01*
X384902D01*
X380965Y437169D02*
Y438154D01*
X383389Y438193D02*
X384112D01*
X381004D02*
X382434D01*
X382826D02*
X383389D01*
X382434Y437130D02*
X382826D01*
X381004D02*
X382434D01*
Y438193D02*
X382826D01*
X384112D02*
X384902D01*
X441532Y434256D02*
X442096D01*
X440810D02*
X441532D01*
X440020D02*
X440810D01*
X443957Y433232D02*
Y434216D01*
X440810Y433193D02*
X441532D01*
X442487D02*
X443917D01*
X441532D02*
X442096D01*
Y434256D02*
X442487D01*
X443917D01*
X442096Y433193D02*
X442487D01*
X440020D02*
X440810D01*
X407992Y443111D02*
Y443674D01*
Y442388D02*
Y443111D01*
Y441598D02*
Y442388D01*
X408032Y445535D02*
X409016D01*
X409055Y442388D02*
Y443111D01*
Y444066D02*
Y445496D01*
Y443111D02*
Y443674D01*
X407992D02*
Y444066D01*
Y445496D01*
X409055Y443674D02*
Y444066D01*
Y441598D02*
Y442388D01*
X441532Y412602D02*
X442096D01*
X440810D02*
X441532D01*
X440020D02*
X440810D01*
X443957Y411579D02*
Y412563D01*
X440810Y411539D02*
X441532D01*
X442487D02*
X443917D01*
X441532D02*
X442096D01*
Y412602D02*
X442487D01*
X443917D01*
X442096Y411539D02*
X442487D01*
X440020D02*
X440810D01*
X441532Y390949D02*
X442096D01*
X440810D02*
X441532D01*
X440020D02*
X440810D01*
X443957Y389925D02*
Y390909D01*
X440810Y389886D02*
X441532D01*
X442487D02*
X443917D01*
X441532D02*
X442096D01*
Y390949D02*
X442487D01*
X443917D01*
X442096Y389886D02*
X442487D01*
X440020D02*
X440810D01*
X416929Y384404D02*
Y384968D01*
Y385690D01*
Y386480D01*
X415906Y382543D02*
X416890D01*
X415866Y384968D02*
Y385690D01*
Y382583D02*
Y384013D01*
Y384404D02*
Y384968D01*
X416929Y384013D02*
Y384404D01*
Y382583D02*
Y384013D01*
X415866D02*
Y384404D01*
Y385690D02*
Y386480D01*
X395276Y384404D02*
Y384968D01*
Y385690D01*
Y386480D01*
X394252Y382543D02*
X395236D01*
X394213Y384968D02*
Y385690D01*
Y382583D02*
Y384013D01*
Y384404D02*
Y384968D01*
X395276Y384013D02*
Y384404D01*
Y382583D02*
Y384013D01*
X394213D02*
Y384404D01*
Y385690D02*
Y386480D01*
X382826Y403665D02*
X383389D01*
X384112D01*
X384902D01*
X380965Y403705D02*
Y404689D01*
X383389Y404728D02*
X384112D01*
X381004D02*
X382434D01*
X382826D02*
X383389D01*
X382434Y403665D02*
X382826D01*
X381004D02*
X382434D01*
Y404728D02*
X382826D01*
X384112D02*
X384902D01*
X382826Y425319D02*
X383389D01*
X384112D01*
X384902D01*
X380965Y425358D02*
Y426342D01*
X383389Y426382D02*
X384112D01*
X381004D02*
X382434D01*
X382826D02*
X383389D01*
X382434Y425319D02*
X382826D01*
X381004D02*
X382434D01*
Y426382D02*
X382826D01*
X384112D02*
X384902D01*
X429646Y443111D02*
Y443674D01*
Y442388D02*
Y443111D01*
Y441598D02*
Y442388D01*
X429685Y445535D02*
X430669D01*
X430709Y442388D02*
Y443111D01*
Y444066D02*
Y445496D01*
Y443111D02*
Y443674D01*
X429646D02*
Y444066D01*
Y445496D01*
X430709Y443674D02*
Y444066D01*
Y441598D02*
Y442388D01*
X417835Y443111D02*
Y443674D01*
Y442388D02*
Y443111D01*
Y441598D02*
Y442388D01*
X417874Y445535D02*
X418858D01*
X418898Y442388D02*
Y443111D01*
Y444066D02*
Y445496D01*
Y443111D02*
Y443674D01*
X417835D02*
Y444066D01*
Y445496D01*
X418898Y443674D02*
Y444066D01*
Y441598D02*
Y442388D01*
X396181Y443111D02*
Y443674D01*
Y442388D02*
Y443111D01*
Y441598D02*
Y442388D01*
X396220Y445535D02*
X397205D01*
X397244Y442388D02*
Y443111D01*
Y444066D02*
Y445496D01*
Y443111D02*
Y443674D01*
X396181D02*
Y444066D01*
Y445496D01*
X397244Y443674D02*
Y444066D01*
Y441598D02*
Y442388D01*
X441532Y424413D02*
X442096D01*
X440810D02*
X441532D01*
X440020D02*
X440810D01*
X443957Y423390D02*
Y424374D01*
X440810Y423350D02*
X441532D01*
X442487D02*
X443917D01*
X441532D02*
X442096D01*
Y424413D02*
X442487D01*
X443917D01*
X442096Y423350D02*
X442487D01*
X440020D02*
X440810D01*
X441532Y402760D02*
X442096D01*
X440810D02*
X441532D01*
X440020D02*
X440810D01*
X443957Y401736D02*
Y402720D01*
X440810Y401697D02*
X441532D01*
X442487D02*
X443917D01*
X441532D02*
X442096D01*
Y402760D02*
X442487D01*
X443917D01*
X442096Y401697D02*
X442487D01*
X440020D02*
X440810D01*
X428740Y384404D02*
Y384968D01*
Y385690D01*
Y386480D01*
X427716Y382543D02*
X428701D01*
X427677Y384968D02*
Y385690D01*
Y382583D02*
Y384013D01*
Y384404D02*
Y384968D01*
X428740Y384013D02*
Y384404D01*
Y382583D02*
Y384013D01*
X427677D02*
Y384404D01*
Y385690D02*
Y386480D01*
X407087Y384404D02*
Y384968D01*
Y385690D01*
Y386480D01*
X406063Y382543D02*
X407047D01*
X406024Y384968D02*
Y385690D01*
Y382583D02*
Y384013D01*
Y384404D02*
Y384968D01*
X407087Y384013D02*
Y384404D01*
Y382583D02*
Y384013D01*
X406024D02*
Y384404D01*
Y385690D02*
Y386480D01*
X382826Y391854D02*
X383389D01*
X384112D01*
X384902D01*
X380965Y391894D02*
Y392878D01*
X383389Y392917D02*
X384112D01*
X381004D02*
X382434D01*
X382826D02*
X383389D01*
X382434Y391854D02*
X382826D01*
X381004D02*
X382434D01*
Y392917D02*
X382826D01*
X384112D02*
X384902D01*
X382826Y413508D02*
X383389D01*
X384112D01*
X384902D01*
X380965Y413547D02*
Y414531D01*
X383389Y414571D02*
X384112D01*
X381004D02*
X382434D01*
X382826D02*
X383389D01*
X382434Y413508D02*
X382826D01*
X381004D02*
X382434D01*
Y414571D02*
X382826D01*
X384112D02*
X384902D01*
X382826Y435161D02*
X383389D01*
X384112D01*
X384902D01*
X380965Y435201D02*
Y436185D01*
X383389Y436224D02*
X384112D01*
X381004D02*
X382434D01*
X382826D02*
X383389D01*
X382434Y435161D02*
X382826D01*
X381004D02*
X382434D01*
Y436224D02*
X382826D01*
X384112D02*
X384902D01*
X441532D02*
X442096D01*
X440810D02*
X441532D01*
X440020D02*
X440810D01*
X443957Y435201D02*
Y436185D01*
X440810Y435161D02*
X441532D01*
X442487D02*
X443917D01*
X441532D02*
X442096D01*
Y436224D02*
X442487D01*
X443917D01*
X442096Y435161D02*
X442487D01*
X440020D02*
X440810D01*
X406024Y443111D02*
Y443674D01*
Y442388D02*
Y443111D01*
Y441598D02*
Y442388D01*
X406063Y445535D02*
X407047D01*
X407087Y442388D02*
Y443111D01*
Y444066D02*
Y445496D01*
Y443111D02*
Y443674D01*
X406024D02*
Y444066D01*
Y445496D01*
X407087Y443674D02*
Y444066D01*
Y441598D02*
Y442388D01*
X441532Y414571D02*
X442096D01*
X440810D02*
X441532D01*
X440020D02*
X440810D01*
X443957Y413547D02*
Y414531D01*
X440810Y413508D02*
X441532D01*
X442487D02*
X443917D01*
X441532D02*
X442096D01*
Y414571D02*
X442487D01*
X443917D01*
X442096Y413508D02*
X442487D01*
X440020D02*
X440810D01*
X441532Y392917D02*
X442096D01*
X440810D02*
X441532D01*
X440020D02*
X440810D01*
X443957Y391894D02*
Y392878D01*
X440810Y391854D02*
X441532D01*
X442487D02*
X443917D01*
X441532D02*
X442096D01*
Y392917D02*
X442487D01*
X443917D01*
X442096Y391854D02*
X442487D01*
X440020D02*
X440810D01*
X418898Y384404D02*
Y384968D01*
Y385690D01*
Y386480D01*
X417874Y382543D02*
X418858D01*
X417835Y384968D02*
Y385690D01*
Y382583D02*
Y384013D01*
Y384404D02*
Y384968D01*
X418898Y384013D02*
Y384404D01*
Y382583D02*
Y384013D01*
X417835D02*
Y384404D01*
Y385690D02*
Y386480D01*
X397244Y384404D02*
Y384968D01*
Y385690D01*
Y386480D01*
X396220Y382543D02*
X397205D01*
X396181Y384968D02*
Y385690D01*
Y382583D02*
Y384013D01*
Y384404D02*
Y384968D01*
X397244Y384013D02*
Y384404D01*
Y382583D02*
Y384013D01*
X396181D02*
Y384404D01*
Y385690D02*
Y386480D01*
X382826Y401697D02*
X383389D01*
X384112D01*
X384902D01*
X380965Y401736D02*
Y402720D01*
X383389Y402760D02*
X384112D01*
X381004D02*
X382434D01*
X382826D02*
X383389D01*
X382434Y401697D02*
X382826D01*
X381004D02*
X382434D01*
Y402760D02*
X382826D01*
X384112D02*
X384902D01*
X382826Y423350D02*
X383389D01*
X384112D01*
X384902D01*
X380965Y423390D02*
Y424374D01*
X383389Y424413D02*
X384112D01*
X381004D02*
X382434D01*
X382826D02*
X383389D01*
X382434Y423350D02*
X382826D01*
X381004D02*
X382434D01*
Y424413D02*
X382826D01*
X384112D02*
X384902D01*
X427677Y443111D02*
Y443674D01*
Y442388D02*
Y443111D01*
Y441598D02*
Y442388D01*
X427716Y445535D02*
X428701D01*
X428740Y442388D02*
Y443111D01*
Y444066D02*
Y445496D01*
Y443111D02*
Y443674D01*
X427677D02*
Y444066D01*
Y445496D01*
X428740Y443674D02*
Y444066D01*
Y441598D02*
Y442388D01*
X415866Y443111D02*
Y443674D01*
Y442388D02*
Y443111D01*
Y441598D02*
Y442388D01*
X415906Y445535D02*
X416890D01*
X416929Y442388D02*
Y443111D01*
Y444066D02*
Y445496D01*
Y443111D02*
Y443674D01*
X415866D02*
Y444066D01*
Y445496D01*
X416929Y443674D02*
Y444066D01*
Y441598D02*
Y442388D01*
X394213Y443111D02*
Y443674D01*
Y442388D02*
Y443111D01*
Y441598D02*
Y442388D01*
X394252Y445535D02*
X395236D01*
X395276Y442388D02*
Y443111D01*
Y444066D02*
Y445496D01*
Y443111D02*
Y443674D01*
X394213D02*
Y444066D01*
Y445496D01*
X395276Y443674D02*
Y444066D01*
Y441598D02*
Y442388D01*
X441532Y426382D02*
X442096D01*
X440810D02*
X441532D01*
X440020D02*
X440810D01*
X443957Y425358D02*
Y426342D01*
X440810Y425319D02*
X441532D01*
X442487D02*
X443917D01*
X441532D02*
X442096D01*
Y426382D02*
X442487D01*
X443917D01*
X442096Y425319D02*
X442487D01*
X440020D02*
X440810D01*
X441532Y404728D02*
X442096D01*
X440810D02*
X441532D01*
X440020D02*
X440810D01*
X443957Y403705D02*
Y404689D01*
X440810Y403665D02*
X441532D01*
X442487D02*
X443917D01*
X441532D02*
X442096D01*
Y404728D02*
X442487D01*
X443917D01*
X442096Y403665D02*
X442487D01*
X440020D02*
X440810D01*
X430709Y384404D02*
Y384968D01*
Y385690D01*
Y386480D01*
X429685Y382543D02*
X430669D01*
X429646Y384968D02*
Y385690D01*
Y382583D02*
Y384013D01*
Y384404D02*
Y384968D01*
X430709Y384013D02*
Y384404D01*
Y382583D02*
Y384013D01*
X429646D02*
Y384404D01*
Y385690D02*
Y386480D01*
X409055Y384404D02*
Y384968D01*
Y385690D01*
Y386480D01*
X408032Y382543D02*
X409016D01*
X407992Y384968D02*
Y385690D01*
Y382583D02*
Y384013D01*
Y384404D02*
Y384968D01*
X409055Y384013D02*
Y384404D01*
Y382583D02*
Y384013D01*
X407992D02*
Y384404D01*
Y385690D02*
Y386480D01*
X382826Y389886D02*
X383389D01*
X384112D01*
X384902D01*
X380965Y389925D02*
Y390909D01*
X383389Y390949D02*
X384112D01*
X381004D02*
X382434D01*
X382826D02*
X383389D01*
X382434Y389886D02*
X382826D01*
X381004D02*
X382434D01*
Y390949D02*
X382826D01*
X384112D02*
X384902D01*
X382826Y411539D02*
X383389D01*
X384112D01*
X384902D01*
X380965Y411579D02*
Y412563D01*
X383389Y412602D02*
X384112D01*
X381004D02*
X382434D01*
X382826D02*
X383389D01*
X382434Y411539D02*
X382826D01*
X381004D02*
X382434D01*
Y412602D02*
X382826D01*
X384112D02*
X384902D01*
X382826Y433193D02*
X383389D01*
X384112D01*
X384902D01*
X380965Y433232D02*
Y434216D01*
X383389Y434256D02*
X384112D01*
X381004D02*
X382434D01*
X382826D02*
X383389D01*
X382434Y433193D02*
X382826D01*
X381004D02*
X382434D01*
Y434256D02*
X382826D01*
X384112D02*
X384902D01*
X441532Y438193D02*
X442096D01*
X440810D02*
X441532D01*
X440020D02*
X440810D01*
X443957Y437169D02*
Y438154D01*
X440810Y437130D02*
X441532D01*
X442487D02*
X443917D01*
X441532D02*
X442096D01*
Y438193D02*
X442487D01*
X443917D01*
X442096Y437130D02*
X442487D01*
X440020D02*
X440810D01*
X404055Y443111D02*
Y443674D01*
Y442388D02*
Y443111D01*
Y441598D02*
Y442388D01*
X404095Y445535D02*
X405079D01*
X405118Y442388D02*
Y443111D01*
Y444066D02*
Y445496D01*
Y443111D02*
Y443674D01*
X404055D02*
Y444066D01*
Y445496D01*
X405118Y443674D02*
Y444066D01*
Y441598D02*
Y442388D01*
X441532Y416539D02*
X442096D01*
X440810D02*
X441532D01*
X440020D02*
X440810D01*
X443957Y415516D02*
Y416500D01*
X440810Y415476D02*
X441532D01*
X442487D02*
X443917D01*
X441532D02*
X442096D01*
Y416539D02*
X442487D01*
X443917D01*
X442096Y415476D02*
X442487D01*
X440020D02*
X440810D01*
X414961Y384404D02*
Y384968D01*
Y385690D01*
Y386480D01*
X413937Y382543D02*
X414921D01*
X413898Y384968D02*
Y385690D01*
Y382583D02*
Y384013D01*
Y384404D02*
Y384968D01*
X414961Y384013D02*
Y384404D01*
Y382583D02*
Y384013D01*
X413898D02*
Y384404D01*
Y385690D02*
Y386480D01*
X441532Y394886D02*
X442096D01*
X440810D02*
X441532D01*
X440020D02*
X440810D01*
X443957Y393862D02*
Y394846D01*
X440810Y393823D02*
X441532D01*
X442487D02*
X443917D01*
X441532D02*
X442096D01*
Y394886D02*
X442487D01*
X443917D01*
X442096Y393823D02*
X442487D01*
X440020D02*
X440810D01*
X420866Y384404D02*
Y384968D01*
Y385690D01*
Y386480D01*
X419842Y382543D02*
X420827D01*
X419803Y384968D02*
Y385690D01*
Y382583D02*
Y384013D01*
Y384404D02*
Y384968D01*
X420866Y384013D02*
Y384404D01*
Y382583D02*
Y384013D01*
X419803D02*
Y384404D01*
Y385690D02*
Y386480D01*
X399213Y384404D02*
Y384968D01*
Y385690D01*
Y386480D01*
X398189Y382543D02*
X399173D01*
X398150Y384968D02*
Y385690D01*
Y382583D02*
Y384013D01*
Y384404D02*
Y384968D01*
X399213Y384013D02*
Y384404D01*
Y382583D02*
Y384013D01*
X398150D02*
Y384404D01*
Y385690D02*
Y386480D01*
X382826Y399728D02*
X383389D01*
X384112D01*
X384902D01*
X380965Y399768D02*
Y400752D01*
X383389Y400791D02*
X384112D01*
X381004D02*
X382434D01*
X382826D02*
X383389D01*
X382434Y399728D02*
X382826D01*
X381004D02*
X382434D01*
Y400791D02*
X382826D01*
X384112D02*
X384902D01*
X382826Y421382D02*
X383389D01*
X384112D01*
X384902D01*
X380965Y421421D02*
Y422405D01*
X383389Y422445D02*
X384112D01*
X381004D02*
X382434D01*
X382826D02*
X383389D01*
X382434Y421382D02*
X382826D01*
X381004D02*
X382434D01*
Y422445D02*
X382826D01*
X384112D02*
X384902D01*
X425709Y443111D02*
Y443674D01*
Y442388D02*
Y443111D01*
Y441598D02*
Y442388D01*
X425748Y445535D02*
X426732D01*
X426772Y442388D02*
Y443111D01*
Y444066D02*
Y445496D01*
Y443111D02*
Y443674D01*
X425709D02*
Y444066D01*
Y445496D01*
X426772Y443674D02*
Y444066D01*
Y441598D02*
Y442388D01*
X413898Y443111D02*
Y443674D01*
Y442388D02*
Y443111D01*
Y441598D02*
Y442388D01*
X413937Y445535D02*
X414921D01*
X414961Y442388D02*
Y443111D01*
Y444066D02*
Y445496D01*
Y443111D02*
Y443674D01*
X413898D02*
Y444066D01*
Y445496D01*
X414961Y443674D02*
Y444066D01*
Y441598D02*
Y442388D01*
X392244Y443111D02*
Y443674D01*
Y442388D02*
Y443111D01*
Y441598D02*
Y442388D01*
X392284Y445535D02*
X393268D01*
X393307Y442388D02*
Y443111D01*
Y444066D02*
Y445496D01*
Y443111D02*
Y443674D01*
X392244D02*
Y444066D01*
Y445496D01*
X393307Y443674D02*
Y444066D01*
Y441598D02*
Y442388D01*
X441532Y428350D02*
X442096D01*
X440810D02*
X441532D01*
X440020D02*
X440810D01*
X443957Y427327D02*
Y428311D01*
X440810Y427287D02*
X441532D01*
X442487D02*
X443917D01*
X441532D02*
X442096D01*
Y428350D02*
X442487D01*
X443917D01*
X442096Y427287D02*
X442487D01*
X440020D02*
X440810D01*
X441532Y406697D02*
X442096D01*
X440810D02*
X441532D01*
X440020D02*
X440810D01*
X443957Y405673D02*
Y406657D01*
X440810Y405634D02*
X441532D01*
X442487D02*
X443917D01*
X441532D02*
X442096D01*
Y406697D02*
X442487D01*
X443917D01*
X442096Y405634D02*
X442487D01*
X440020D02*
X440810D01*
X432677Y384404D02*
Y384968D01*
Y385690D01*
Y386480D01*
X431653Y382543D02*
X432638D01*
X431614Y384968D02*
Y385690D01*
Y382583D02*
Y384013D01*
Y384404D02*
Y384968D01*
X432677Y384013D02*
Y384404D01*
Y382583D02*
Y384013D01*
X431614D02*
Y384404D01*
Y385690D02*
Y386480D01*
X411024Y384404D02*
Y384968D01*
Y385690D01*
Y386480D01*
X410000Y382543D02*
X410984D01*
X409961Y384968D02*
Y385690D01*
Y382583D02*
Y384013D01*
Y384404D02*
Y384968D01*
X411024Y384013D02*
Y384404D01*
Y382583D02*
Y384013D01*
X409961D02*
Y384404D01*
Y385690D02*
Y386480D01*
X389370Y384404D02*
Y384968D01*
Y385690D01*
Y386480D01*
X388347Y382543D02*
X389331D01*
X388307Y384968D02*
Y385690D01*
Y382583D02*
Y384013D01*
Y384404D02*
Y384968D01*
X389370Y384013D02*
Y384404D01*
Y382583D02*
Y384013D01*
X388307D02*
Y384404D01*
Y385690D02*
Y386480D01*
X382826Y409571D02*
X383389D01*
X384112D01*
X384902D01*
X380965Y409610D02*
Y410594D01*
X383389Y410634D02*
X384112D01*
X381004D02*
X382434D01*
X382826D02*
X383389D01*
X382434Y409571D02*
X382826D01*
X381004D02*
X382434D01*
Y410634D02*
X382826D01*
X384112D02*
X384902D01*
X382826Y431224D02*
X383389D01*
X384112D01*
X384902D01*
X380965Y431264D02*
Y432248D01*
X383389Y432287D02*
X384112D01*
X381004D02*
X382434D01*
X382826D02*
X383389D01*
X382434Y431224D02*
X382826D01*
X381004D02*
X382434D01*
Y432287D02*
X382826D01*
X384112D02*
X384902D01*
X435551Y443111D02*
Y443674D01*
Y442388D02*
Y443111D01*
Y441598D02*
Y442388D01*
X435591Y445535D02*
X436575D01*
X436614Y442388D02*
Y443111D01*
Y444066D02*
Y445496D01*
Y443111D02*
Y443674D01*
X435551D02*
Y444066D01*
Y445496D01*
X436614Y443674D02*
Y444066D01*
Y441598D02*
Y442388D01*
X402087Y443111D02*
Y443674D01*
Y442388D02*
Y443111D01*
Y441598D02*
Y442388D01*
X402126Y445535D02*
X403110D01*
X403150Y442388D02*
Y443111D01*
Y444066D02*
Y445496D01*
Y443111D02*
Y443674D01*
X402087D02*
Y444066D01*
Y445496D01*
X403150Y443674D02*
Y444066D01*
Y441598D02*
Y442388D01*
X441532Y418508D02*
X442096D01*
X440810D02*
X441532D01*
X440020D02*
X440810D01*
X443957Y417484D02*
Y418469D01*
X440810Y417445D02*
X441532D01*
X442487D02*
X443917D01*
X441532D02*
X442096D01*
Y418508D02*
X442487D01*
X443917D01*
X442096Y417445D02*
X442487D01*
X440020D02*
X440810D01*
X441532Y396854D02*
X442096D01*
X440810D02*
X441532D01*
X440020D02*
X440810D01*
X443957Y395831D02*
Y396815D01*
X440810Y395791D02*
X441532D01*
X442487D02*
X443917D01*
X441532D02*
X442096D01*
Y396854D02*
X442487D01*
X443917D01*
X442096Y395791D02*
X442487D01*
X440020D02*
X440810D01*
X422835Y384404D02*
Y384968D01*
Y385690D01*
Y386480D01*
X421811Y382543D02*
X422795D01*
X421772Y384968D02*
Y385690D01*
Y382583D02*
Y384013D01*
Y384404D02*
Y384968D01*
X422835Y384013D02*
Y384404D01*
Y382583D02*
Y384013D01*
X421772D02*
Y384404D01*
Y385690D02*
Y386480D01*
X401181Y384404D02*
Y384968D01*
Y385690D01*
Y386480D01*
X400157Y382543D02*
X401142D01*
X400118Y384968D02*
Y385690D01*
Y382583D02*
Y384013D01*
Y384404D02*
Y384968D01*
X401181Y384013D02*
Y384404D01*
Y382583D02*
Y384013D01*
X400118D02*
Y384404D01*
Y385690D02*
Y386480D01*
X382826Y397760D02*
X383389D01*
X384112D01*
X384902D01*
X380965Y397799D02*
Y398783D01*
X383389Y398823D02*
X384112D01*
X381004D02*
X382434D01*
X382826D02*
X383389D01*
X382434Y397760D02*
X382826D01*
X381004D02*
X382434D01*
Y398823D02*
X382826D01*
X384112D02*
X384902D01*
X382826Y419413D02*
X383389D01*
X384112D01*
X384902D01*
X380965Y419453D02*
Y420437D01*
X383389Y420476D02*
X384112D01*
X381004D02*
X382434D01*
X382826D02*
X383389D01*
X382434Y419413D02*
X382826D01*
X381004D02*
X382434D01*
Y420476D02*
X382826D01*
X384112D02*
X384902D01*
X423740Y443111D02*
Y443674D01*
Y442388D02*
Y443111D01*
Y441598D02*
Y442388D01*
X423779Y445535D02*
X424764D01*
X424803Y442388D02*
Y443111D01*
Y444066D02*
Y445496D01*
Y443111D02*
Y443674D01*
X423740D02*
Y444066D01*
Y445496D01*
X424803Y443674D02*
Y444066D01*
Y441598D02*
Y442388D01*
X390276Y443111D02*
Y443674D01*
Y442388D02*
Y443111D01*
Y441598D02*
Y442388D01*
X390315Y445535D02*
X391299D01*
X391339Y442388D02*
Y443111D01*
Y444066D02*
Y445496D01*
Y443111D02*
Y443674D01*
X390276D02*
Y444066D01*
Y445496D01*
X391339Y443674D02*
Y444066D01*
Y441598D02*
Y442388D01*
X441532Y430319D02*
X442096D01*
X440810D02*
X441532D01*
X440020D02*
X440810D01*
X443957Y429295D02*
Y430279D01*
X440810Y429256D02*
X441532D01*
X442487D02*
X443917D01*
X441532D02*
X442096D01*
Y430319D02*
X442487D01*
X443917D01*
X442096Y429256D02*
X442487D01*
X440020D02*
X440810D01*
X411929Y443111D02*
Y443674D01*
Y442388D02*
Y443111D01*
Y441598D02*
Y442388D01*
X411969Y445535D02*
X412953D01*
X412992Y442388D02*
Y443111D01*
Y444066D02*
Y445496D01*
Y443111D02*
Y443674D01*
X411929D02*
Y444066D01*
Y445496D01*
X412992Y443674D02*
Y444066D01*
Y441598D02*
Y442388D01*
X441532Y408665D02*
X442096D01*
X440810D02*
X441532D01*
X440020D02*
X440810D01*
X443957Y407642D02*
Y408626D01*
X440810Y407602D02*
X441532D01*
X442487D02*
X443917D01*
X441532D02*
X442096D01*
Y408665D02*
X442487D01*
X443917D01*
X442096Y407602D02*
X442487D01*
X440020D02*
X440810D01*
X434646Y384404D02*
Y384968D01*
Y385690D01*
Y386480D01*
X433622Y382543D02*
X434606D01*
X433583Y384968D02*
Y385690D01*
Y382583D02*
Y384013D01*
Y384404D02*
Y384968D01*
X434646Y384013D02*
Y384404D01*
Y382583D02*
Y384013D01*
X433583D02*
Y384404D01*
Y385690D02*
Y386480D01*
X412992Y384404D02*
Y384968D01*
Y385690D01*
Y386480D01*
X411969Y382543D02*
X412953D01*
X411929Y384968D02*
Y385690D01*
Y382583D02*
Y384013D01*
Y384404D02*
Y384968D01*
X412992Y384013D02*
Y384404D01*
Y382583D02*
Y384013D01*
X411929D02*
Y384404D01*
Y385690D02*
Y386480D01*
X391339Y384404D02*
Y384968D01*
Y385690D01*
Y386480D01*
X390315Y382543D02*
X391299D01*
X390276Y384968D02*
Y385690D01*
Y382583D02*
Y384013D01*
Y384404D02*
Y384968D01*
X391339Y384013D02*
Y384404D01*
Y382583D02*
Y384013D01*
X390276D02*
Y384404D01*
Y385690D02*
Y386480D01*
X382826Y407602D02*
X383389D01*
X384112D01*
X384902D01*
X380965Y407642D02*
Y408626D01*
X383389Y408665D02*
X384112D01*
X381004D02*
X382434D01*
X382826D02*
X383389D01*
X382434Y407602D02*
X382826D01*
X381004D02*
X382434D01*
Y408665D02*
X382826D01*
X384112D02*
X384902D01*
X382826Y429256D02*
X383389D01*
X384112D01*
X384902D01*
X380965Y429295D02*
Y430279D01*
X383389Y430319D02*
X384112D01*
X381004D02*
X382434D01*
X382826D02*
X383389D01*
X382434Y429256D02*
X382826D01*
X381004D02*
X382434D01*
Y430319D02*
X382826D01*
X384112D02*
X384902D01*
X433583Y443111D02*
Y443674D01*
Y442388D02*
Y443111D01*
Y441598D02*
Y442388D01*
X433622Y445535D02*
X434606D01*
X434646Y442388D02*
Y443111D01*
Y444066D02*
Y445496D01*
Y443111D02*
Y443674D01*
X433583D02*
Y444066D01*
Y445496D01*
X434646Y443674D02*
Y444066D01*
Y441598D02*
Y442388D01*
X421772Y443111D02*
Y443674D01*
Y442388D02*
Y443111D01*
Y441598D02*
Y442388D01*
X421811Y445535D02*
X422795D01*
X422835Y442388D02*
Y443111D01*
Y444066D02*
Y445496D01*
Y443111D02*
Y443674D01*
X421772D02*
Y444066D01*
Y445496D01*
X422835Y443674D02*
Y444066D01*
Y441598D02*
Y442388D01*
X400118Y443111D02*
Y443674D01*
Y442388D02*
Y443111D01*
Y441598D02*
Y442388D01*
X400157Y445535D02*
X401142D01*
X401181Y442388D02*
Y443111D01*
Y444066D02*
Y445496D01*
Y443111D02*
Y443674D01*
X400118D02*
Y444066D01*
Y445496D01*
X401181Y443674D02*
Y444066D01*
Y441598D02*
Y442388D01*
X441532Y420476D02*
X442096D01*
X440810D02*
X441532D01*
X440020D02*
X440810D01*
X443957Y419453D02*
Y420437D01*
X440810Y419413D02*
X441532D01*
X442487D02*
X443917D01*
X441532D02*
X442096D01*
Y420476D02*
X442487D01*
X443917D01*
X442096Y419413D02*
X442487D01*
X440020D02*
X440810D01*
X441532Y398823D02*
X442096D01*
X440810D02*
X441532D01*
X440020D02*
X440810D01*
X443957Y397799D02*
Y398783D01*
X440810Y397760D02*
X441532D01*
X442487D02*
X443917D01*
X441532D02*
X442096D01*
Y398823D02*
X442487D01*
X443917D01*
X442096Y397760D02*
X442487D01*
X440020D02*
X440810D01*
X424803Y384404D02*
Y384968D01*
Y385690D01*
Y386480D01*
X423779Y382543D02*
X424764D01*
X423740Y384968D02*
Y385690D01*
Y382583D02*
Y384013D01*
Y384404D02*
Y384968D01*
X424803Y384013D02*
Y384404D01*
Y382583D02*
Y384013D01*
X423740D02*
Y384404D01*
Y385690D02*
Y386480D01*
X403150Y384404D02*
Y384968D01*
Y385690D01*
Y386480D01*
X402126Y382543D02*
X403110D01*
X402087Y384968D02*
Y385690D01*
Y382583D02*
Y384013D01*
Y384404D02*
Y384968D01*
X403150Y384013D02*
Y384404D01*
Y382583D02*
Y384013D01*
X402087D02*
Y384404D01*
Y385690D02*
Y386480D01*
X382826Y395791D02*
X383389D01*
X384112D01*
X384902D01*
X380965Y395831D02*
Y396815D01*
X383389Y396854D02*
X384112D01*
X381004D02*
X382434D01*
X382826D02*
X383389D01*
X382434Y395791D02*
X382826D01*
X381004D02*
X382434D01*
Y396854D02*
X382826D01*
X384112D02*
X384902D01*
X382826Y417445D02*
X383389D01*
X384112D01*
X384902D01*
X380965Y417484D02*
Y418469D01*
X383389Y418508D02*
X384112D01*
X381004D02*
X382434D01*
X382826D02*
X383389D01*
X382434Y417445D02*
X382826D01*
X381004D02*
X382434D01*
Y418508D02*
X382826D01*
X384112D02*
X384902D01*
X388307Y443111D02*
Y443674D01*
Y442388D02*
Y443111D01*
Y441598D02*
Y442388D01*
X388347Y445535D02*
X389331D01*
X389370Y442388D02*
Y443111D01*
Y444066D02*
Y445496D01*
Y443111D02*
Y443674D01*
X388307D02*
Y444066D01*
Y445496D01*
X389370Y443674D02*
Y444066D01*
Y441598D02*
Y442388D01*
X441532Y432287D02*
X442096D01*
X440810D02*
X441532D01*
X440020D02*
X440810D01*
X443957Y431264D02*
Y432248D01*
X440810Y431224D02*
X441532D01*
X442487D02*
X443917D01*
X441532D02*
X442096D01*
Y432287D02*
X442487D01*
X443917D01*
X442096Y431224D02*
X442487D01*
X440020D02*
X440810D01*
X409961Y443111D02*
Y443674D01*
Y442388D02*
Y443111D01*
Y441598D02*
Y442388D01*
X410000Y445535D02*
X410984D01*
X411024Y442388D02*
Y443111D01*
Y444066D02*
Y445496D01*
Y443111D02*
Y443674D01*
X409961D02*
Y444066D01*
Y445496D01*
X411024Y443674D02*
Y444066D01*
Y441598D02*
Y442388D01*
X441532Y410634D02*
X442096D01*
X440810D02*
X441532D01*
X440020D02*
X440810D01*
X443957Y409610D02*
Y410594D01*
X440810Y409571D02*
X441532D01*
X442487D02*
X443917D01*
X441532D02*
X442096D01*
Y410634D02*
X442487D01*
X443917D01*
X442096Y409571D02*
X442487D01*
X440020D02*
X440810D01*
X436614Y384404D02*
Y384968D01*
Y385690D01*
Y386480D01*
X435591Y382543D02*
X436575D01*
X435551Y384968D02*
Y385690D01*
Y382583D02*
Y384013D01*
Y384404D02*
Y384968D01*
X436614Y384013D02*
Y384404D01*
Y382583D02*
Y384013D01*
X435551D02*
Y384404D01*
Y385690D02*
Y386480D01*
X387115Y387071D02*
X437807D01*
X385492Y439385D02*
X387115Y441008D01*
X437807Y387071D02*
X438051Y386480D01*
Y441598D02*
X440020Y439630D01*
X386870Y386480D02*
X438051D01*
X386870Y441598D02*
X438051D01*
X384902Y439630D02*
X386870Y441598D01*
X437807Y387071D02*
X439429Y388693D01*
Y439385D01*
X437807Y441008D02*
X439429Y439385D01*
Y388693D02*
X440020Y388449D01*
X384902D02*
X386870Y386480D01*
X385492Y388693D02*
X387115Y387071D01*
X439429Y439385D02*
X440020Y439630D01*
X386870Y386480D02*
X387115Y387071D01*
X440020Y388449D02*
Y439630D01*
X384902D02*
X385492Y439385D01*
X384902Y388449D02*
Y439630D01*
X385492Y388693D02*
Y439385D01*
X437807Y441008D02*
X438051Y441598D01*
X384902Y388449D02*
X385492Y388693D01*
X387115Y441008D02*
X437807D01*
X438051Y386480D02*
X440020Y388449D01*
X386870Y441598D02*
X387115Y441008D01*
X194193Y225083D02*
G03*
X194193Y221146I0J-1969D01*
G01*
D02*
G03*
X194193Y225083I0J1969D01*
G01*
X148425Y232957D02*
G03*
X148386Y232917I-0J-39D01*
G01*
X149449D02*
G03*
X149409Y232957I-39J-0D01*
G01*
X141043Y204906D02*
G03*
X141083Y204866I39J0D01*
G01*
Y205929D02*
G03*
X141043Y205890I0J-39D01*
G01*
X175000Y169965D02*
G03*
X175039Y170004I0J39D01*
G01*
X173976D02*
G03*
X174016Y169965I39J-0D01*
G01*
X141043Y183252D02*
G03*
X141083Y183213I39J0D01*
G01*
Y184276D02*
G03*
X141043Y184236I-0J-39D01*
G01*
X196653Y169965D02*
G03*
X196693Y170004I0J39D01*
G01*
X195630D02*
G03*
X195669Y169965I39J0D01*
G01*
X204035Y198016D02*
G03*
X203996Y198055I-39J0D01*
G01*
Y196992D02*
G03*
X204035Y197031I0J39D01*
G01*
Y219669D02*
G03*
X203996Y219709I-39J0D01*
G01*
Y218646D02*
G03*
X204035Y218685I-0J39D01*
G01*
X181890Y232957D02*
G03*
X181850Y232917I-0J-39D01*
G01*
X182913D02*
G03*
X182874Y232957I-39J-0D01*
G01*
X160236D02*
G03*
X160197Y232917I-0J-39D01*
G01*
X161260D02*
G03*
X161221Y232957I-39J0D01*
G01*
X141043Y216717D02*
G03*
X141083Y216677I39J0D01*
G01*
Y217740D02*
G03*
X141043Y217701I0J-39D01*
G01*
Y195063D02*
G03*
X141083Y195024I39J0D01*
G01*
Y196087D02*
G03*
X141043Y196047I0J-39D01*
G01*
X184843Y169965D02*
G03*
X184882Y170004I0J39D01*
G01*
X183819D02*
G03*
X183858Y169965I39J0D01*
G01*
X163189D02*
G03*
X163228Y170004I-0J39D01*
G01*
X162165D02*
G03*
X162205Y169965I39J-0D01*
G01*
X151378D02*
G03*
X151417Y170004I-0J39D01*
G01*
X150354D02*
G03*
X150394Y169965I39J0D01*
G01*
X204035Y186205D02*
G03*
X203996Y186244I-39J0D01*
G01*
Y185181D02*
G03*
X204035Y185221I0J39D01*
G01*
Y207858D02*
G03*
X203996Y207898I-39J0D01*
G01*
Y206835D02*
G03*
X204035Y206874I-0J39D01*
G01*
X193701Y232957D02*
G03*
X193661Y232917I-0J-39D01*
G01*
X194724D02*
G03*
X194685Y232957I-39J-0D01*
G01*
X172047D02*
G03*
X172008Y232917I0J-39D01*
G01*
X173071D02*
G03*
X173031Y232957I-39J-0D01*
G01*
X150394D02*
G03*
X150354Y232917I-0J-39D01*
G01*
X151417D02*
G03*
X151378Y232957I-39J0D01*
G01*
X141043Y206874D02*
G03*
X141083Y206835I39J0D01*
G01*
Y207898D02*
G03*
X141043Y207858I0J-39D01*
G01*
X173031Y169965D02*
G03*
X173071Y170004I0J39D01*
G01*
X172008D02*
G03*
X172047Y169965I39J-0D01*
G01*
X141043Y185221D02*
G03*
X141083Y185181I39J0D01*
G01*
Y186244D02*
G03*
X141043Y186205I-0J-39D01*
G01*
X194685Y169965D02*
G03*
X194724Y170004I0J39D01*
G01*
X193661D02*
G03*
X193701Y169965I39J0D01*
G01*
X161221D02*
G03*
X161260Y170004I-0J39D01*
G01*
X160197D02*
G03*
X160236Y169965I39J0D01*
G01*
X204035Y196047D02*
G03*
X203996Y196087I-39J0D01*
G01*
Y195024D02*
G03*
X204035Y195063I0J39D01*
G01*
Y217701D02*
G03*
X203996Y217740I-39J0D01*
G01*
Y216677D02*
G03*
X204035Y216717I-0J39D01*
G01*
X183858Y232957D02*
G03*
X183819Y232917I-0J-39D01*
G01*
X184882D02*
G03*
X184843Y232957I-39J-0D01*
G01*
X162205D02*
G03*
X162165Y232917I0J-39D01*
G01*
X163228D02*
G03*
X163189Y232957I-39J0D01*
G01*
X141043Y218685D02*
G03*
X141083Y218646I39J0D01*
G01*
Y219709D02*
G03*
X141043Y219669I0J-39D01*
G01*
Y197031D02*
G03*
X141083Y196992I39J0D01*
G01*
Y198055D02*
G03*
X141043Y198016I0J-39D01*
G01*
X182874Y169965D02*
G03*
X182913Y170004I0J39D01*
G01*
X181850D02*
G03*
X181890Y169965I39J0D01*
G01*
X149409D02*
G03*
X149449Y170004I0J39D01*
G01*
X148386D02*
G03*
X148425Y169965I39J0D01*
G01*
X204035Y184236D02*
G03*
X203996Y184276I-39J0D01*
G01*
Y183213D02*
G03*
X204035Y183252I0J39D01*
G01*
Y205890D02*
G03*
X203996Y205929I-39J0D01*
G01*
Y204866D02*
G03*
X204035Y204906I-0J39D01*
G01*
X195669Y232957D02*
G03*
X195630Y232917I-0J-39D01*
G01*
X196693D02*
G03*
X196653Y232957I-39J-0D01*
G01*
X174016D02*
G03*
X173976Y232917I0J-39D01*
G01*
X175039D02*
G03*
X175000Y232957I-39J-0D01*
G01*
X152362D02*
G03*
X152323Y232917I-0J-39D01*
G01*
X153386D02*
G03*
X153347Y232957I-39J0D01*
G01*
X141043Y208843D02*
G03*
X141083Y208803I39J0D01*
G01*
Y209866D02*
G03*
X141043Y209827I0J-39D01*
G01*
Y187189D02*
G03*
X141083Y187150I39J0D01*
G01*
Y188213D02*
G03*
X141043Y188173I0J-39D01*
G01*
X192717Y169965D02*
G03*
X192756Y170004I0J39D01*
G01*
X191693D02*
G03*
X191732Y169965I39J0D01*
G01*
X171063D02*
G03*
X171102Y170004I0J39D01*
G01*
X170039D02*
G03*
X170079Y169965I39J-0D01*
G01*
X159252D02*
G03*
X159291Y170004I-0J39D01*
G01*
X158228D02*
G03*
X158268Y169965I39J0D01*
G01*
X204035Y194079D02*
G03*
X203996Y194118I-39J0D01*
G01*
Y193055D02*
G03*
X204035Y193095I0J39D01*
G01*
Y215732D02*
G03*
X203996Y215772I-39J0D01*
G01*
Y214709D02*
G03*
X204035Y214748I-0J39D01*
G01*
X185827Y232957D02*
G03*
X185787Y232917I-0J-39D01*
G01*
X186850D02*
G03*
X186811Y232957I-39J-0D01*
G01*
X164173D02*
G03*
X164134Y232917I0J-39D01*
G01*
X165197D02*
G03*
X165157Y232957I-39J0D01*
G01*
X141043Y220654D02*
G03*
X141083Y220614I39J0D01*
G01*
Y221677D02*
G03*
X141043Y221638I0J-39D01*
G01*
X170079Y232957D02*
G03*
X170039Y232917I0J-39D01*
G01*
X171102D02*
G03*
X171063Y232957I-39J-0D01*
G01*
X141043Y199000D02*
G03*
X141083Y198961I39J0D01*
G01*
Y200024D02*
G03*
X141043Y199984I0J-39D01*
G01*
X180905Y169965D02*
G03*
X180945Y170004I0J39D01*
G01*
X179882D02*
G03*
X179921Y169965I39J0D01*
G01*
X141043Y177347D02*
G03*
X141083Y177307I39J0D01*
G01*
Y178370D02*
G03*
X141043Y178331I-0J-39D01*
G01*
X204035Y182268D02*
G03*
X203996Y182307I-39J0D01*
G01*
Y181244D02*
G03*
X204035Y181283I-0J39D01*
G01*
Y203921D02*
G03*
X203996Y203961I-39J0D01*
G01*
Y202898D02*
G03*
X204035Y202937I-0J39D01*
G01*
Y225575D02*
G03*
X203996Y225614I-39J0D01*
G01*
Y224551D02*
G03*
X204035Y224591I-0J39D01*
G01*
X175984Y232957D02*
G03*
X175945Y232917I-0J-39D01*
G01*
X177008D02*
G03*
X176969Y232957I-39J-0D01*
G01*
X154331D02*
G03*
X154291Y232917I-0J-39D01*
G01*
X155354D02*
G03*
X155315Y232957I-39J0D01*
G01*
X141043Y210811D02*
G03*
X141083Y210772I39J0D01*
G01*
Y211835D02*
G03*
X141043Y211795I0J-39D01*
G01*
Y189157D02*
G03*
X141083Y189118I39J0D01*
G01*
Y190181D02*
G03*
X141043Y190142I0J-39D01*
G01*
X190748Y169965D02*
G03*
X190787Y170004I0J39D01*
G01*
X189724D02*
G03*
X189764Y169965I39J0D01*
G01*
X169095D02*
G03*
X169134Y170004I0J39D01*
G01*
X168071D02*
G03*
X168110Y169965I39J-0D01*
G01*
X157283D02*
G03*
X157323Y170004I-0J39D01*
G01*
X156260D02*
G03*
X156299Y169965I39J0D01*
G01*
X204035Y192110D02*
G03*
X203996Y192150I-39J0D01*
G01*
Y191087D02*
G03*
X204035Y191126I0J39D01*
G01*
Y213764D02*
G03*
X203996Y213803I-39J0D01*
G01*
Y212740D02*
G03*
X204035Y212780I-0J39D01*
G01*
X187795Y232957D02*
G03*
X187756Y232917I-0J-39D01*
G01*
X188819D02*
G03*
X188779Y232957I-39J-0D01*
G01*
X166142D02*
G03*
X166102Y232917I0J-39D01*
G01*
X167165D02*
G03*
X167126Y232957I-39J-0D01*
G01*
X141043Y222622D02*
G03*
X141083Y222583I39J0D01*
G01*
Y223646D02*
G03*
X141043Y223606I-0J-39D01*
G01*
Y200969D02*
G03*
X141083Y200929I39J0D01*
G01*
Y201992D02*
G03*
X141043Y201953I0J-39D01*
G01*
X178937Y169965D02*
G03*
X178976Y170004I0J39D01*
G01*
X177913D02*
G03*
X177953Y169965I39J0D01*
G01*
X141043Y179315D02*
G03*
X141083Y179276I39J0D01*
G01*
Y180339D02*
G03*
X141043Y180299I-0J-39D01*
G01*
X204035D02*
G03*
X203996Y180339I-39J0D01*
G01*
Y179276D02*
G03*
X204035Y179315I-0J39D01*
G01*
Y201953D02*
G03*
X203996Y201992I-39J0D01*
G01*
Y200929D02*
G03*
X204035Y200969I-0J39D01*
G01*
Y223606D02*
G03*
X203996Y223646I-39J0D01*
G01*
Y222583D02*
G03*
X204035Y222622I-0J39D01*
G01*
X177953Y232957D02*
G03*
X177913Y232917I-0J-39D01*
G01*
X178976D02*
G03*
X178937Y232957I-39J-0D01*
G01*
X156299D02*
G03*
X156260Y232917I-0J-39D01*
G01*
X157323D02*
G03*
X157283Y232957I-39J0D01*
G01*
X141043Y212780D02*
G03*
X141083Y212740I39J0D01*
G01*
Y213803D02*
G03*
X141043Y213764I0J-39D01*
G01*
Y191126D02*
G03*
X141083Y191087I39J0D01*
G01*
Y192150D02*
G03*
X141043Y192110I0J-39D01*
G01*
X188779Y169965D02*
G03*
X188819Y170004I0J39D01*
G01*
X187756D02*
G03*
X187795Y169965I39J0D01*
G01*
X167126D02*
G03*
X167165Y170004I0J39D01*
G01*
X166102D02*
G03*
X166142Y169965I39J-0D01*
G01*
X155315D02*
G03*
X155354Y170004I-0J39D01*
G01*
X154291D02*
G03*
X154331Y169965I39J0D01*
G01*
X204035Y190142D02*
G03*
X203996Y190181I-39J0D01*
G01*
Y189118D02*
G03*
X204035Y189157I0J39D01*
G01*
Y211795D02*
G03*
X203996Y211835I-39J0D01*
G01*
Y210772D02*
G03*
X204035Y210811I-0J39D01*
G01*
X189764Y232957D02*
G03*
X189724Y232917I-0J-39D01*
G01*
X190787D02*
G03*
X190748Y232957I-39J-0D01*
G01*
X168110D02*
G03*
X168071Y232917I0J-39D01*
G01*
X169134D02*
G03*
X169095Y232957I-39J-0D01*
G01*
X141043Y224591D02*
G03*
X141083Y224551I39J0D01*
G01*
Y225614D02*
G03*
X141043Y225575I-0J-39D01*
G01*
Y202937D02*
G03*
X141083Y202898I39J0D01*
G01*
Y203961D02*
G03*
X141043Y203921I0J-39D01*
G01*
X176969Y169965D02*
G03*
X177008Y170004I0J39D01*
G01*
X175945D02*
G03*
X175984Y169965I39J0D01*
G01*
X141043Y181283D02*
G03*
X141083Y181244I39J0D01*
G01*
Y182307D02*
G03*
X141043Y182268I-0J-39D01*
G01*
X204035Y178331D02*
G03*
X203996Y178370I-39J0D01*
G01*
Y177307D02*
G03*
X204035Y177347I-0J39D01*
G01*
Y199984D02*
G03*
X203996Y200024I-39J0D01*
G01*
Y198961D02*
G03*
X204035Y199000I-0J39D01*
G01*
Y221638D02*
G03*
X203996Y221677I-39J0D01*
G01*
Y220614D02*
G03*
X204035Y220654I-0J39D01*
G01*
X179921Y232957D02*
G03*
X179882Y232917I-0J-39D01*
G01*
X180945D02*
G03*
X180905Y232957I-39J-0D01*
G01*
X158268D02*
G03*
X158228Y232917I-0J-39D01*
G01*
X159291D02*
G03*
X159252Y232957I-39J0D01*
G01*
X141043Y214748D02*
G03*
X141083Y214709I39J0D01*
G01*
Y215772D02*
G03*
X141043Y215732I0J-39D01*
G01*
Y193095D02*
G03*
X141083Y193055I39J0D01*
G01*
Y194118D02*
G03*
X141043Y194079I0J-39D01*
G01*
X186811Y169965D02*
G03*
X186850Y170004I0J39D01*
G01*
X185787D02*
G03*
X185827Y169965I39J0D01*
G01*
X165157D02*
G03*
X165197Y170004I-0J39D01*
G01*
X164134D02*
G03*
X164173Y169965I39J-0D01*
G01*
X153347D02*
G03*
X153386Y170004I-0J39D01*
G01*
X152323D02*
G03*
X152362Y169965I39J0D01*
G01*
X204035Y188173D02*
G03*
X203996Y188213I-39J0D01*
G01*
Y187150D02*
G03*
X204035Y187189I0J39D01*
G01*
Y209827D02*
G03*
X203996Y209866I-39J0D01*
G01*
Y208803D02*
G03*
X204035Y208843I-0J39D01*
G01*
X191732Y232957D02*
G03*
X191693Y232917I-0J-39D01*
G01*
X192756D02*
G03*
X192717Y232957I-39J-0D01*
G01*
X197885Y174492D02*
X198130Y173902D01*
X144980Y227051D02*
X146949Y229020D01*
X147193Y174492D02*
X197885D01*
X199508Y226807D02*
X200098Y227051D01*
X146949Y173902D02*
X147193Y174492D01*
X199508Y176115D02*
Y226807D01*
X200098Y175870D02*
Y227051D01*
X199508Y176115D02*
X200098Y175870D01*
X144980D02*
Y227051D01*
X197885Y228429D02*
X198130Y229020D01*
X144980Y175870D02*
X145571Y176115D01*
X197885Y228429D02*
X199508Y226807D01*
X198130Y229020D02*
X200098Y227051D01*
X144980D02*
X145571Y226807D01*
Y176115D02*
X147193Y174492D01*
X145571Y176115D02*
Y226807D01*
X147193Y228429D01*
X198130Y173902D02*
X200098Y175870D01*
X146949Y173902D02*
X198130D01*
X146949Y229020D02*
X198130D01*
X144980Y175870D02*
X146949Y173902D01*
Y229020D02*
X147193Y228429D01*
X197885Y174492D02*
X199508Y176115D01*
X147193Y228429D02*
X197885D01*
X149449Y229020D02*
Y229810D01*
Y231096D02*
Y231487D01*
X148386D02*
Y232917D01*
Y231096D02*
Y231487D01*
X149449Y230532D02*
Y231096D01*
Y231487D02*
Y232917D01*
Y229810D02*
Y230532D01*
X148425Y232957D02*
X149409D01*
X148386Y229020D02*
Y229810D01*
Y230532D01*
Y231096D01*
X144190Y205929D02*
X144980D01*
X142513D02*
X142904D01*
X141083Y204866D02*
X142513D01*
X142904D01*
Y205929D02*
X143468D01*
X141083D02*
X142513D01*
X143468D02*
X144190D01*
X141043Y204906D02*
Y205890D01*
X144190Y204866D02*
X144980D01*
X143468D02*
X144190D01*
X142904D02*
X143468D01*
X173976Y173112D02*
Y173902D01*
Y171434D02*
Y171826D01*
X175039Y170004D02*
Y171434D01*
Y171826D01*
X173976D02*
Y172389D01*
Y170004D02*
Y171434D01*
Y172389D02*
Y173112D01*
X174016Y169965D02*
X175000D01*
X175039Y173112D02*
Y173902D01*
Y172389D02*
Y173112D01*
Y171826D02*
Y172389D01*
X144190Y184276D02*
X144980D01*
X142513D02*
X142904D01*
X141083Y183213D02*
X142513D01*
X142904D01*
Y184276D02*
X143468D01*
X141083D02*
X142513D01*
X143468D02*
X144190D01*
X141043Y183252D02*
Y184236D01*
X144190Y183213D02*
X144980D01*
X143468D02*
X144190D01*
X142904D02*
X143468D01*
X195630Y173112D02*
Y173902D01*
Y171434D02*
Y171826D01*
X196693Y170004D02*
Y171434D01*
Y171826D01*
X195630D02*
Y172389D01*
Y170004D02*
Y171434D01*
Y172389D02*
Y173112D01*
X195669Y169965D02*
X196653D01*
X196693Y173112D02*
Y173902D01*
Y172389D02*
Y173112D01*
Y171826D02*
Y172389D01*
X200098Y196992D02*
X200888D01*
X202174D02*
X202566D01*
Y198055D02*
X203996D01*
X202174D02*
X202566D01*
X201611Y196992D02*
X202174D01*
X202566D02*
X203996D01*
X200888D02*
X201611D01*
X204035Y197031D02*
Y198016D01*
X200098Y198055D02*
X200888D01*
X201611D01*
X202174D01*
X200098Y218646D02*
X200888D01*
X202174D02*
X202566D01*
Y219709D02*
X203996D01*
X202174D02*
X202566D01*
X201611Y218646D02*
X202174D01*
X202566D02*
X203996D01*
X200888D02*
X201611D01*
X204035Y218685D02*
Y219669D01*
X200098Y219709D02*
X200888D01*
X201611D01*
X202174D01*
X182913Y229020D02*
Y229810D01*
Y231096D02*
Y231487D01*
X181850D02*
Y232917D01*
Y231096D02*
Y231487D01*
X182913Y230532D02*
Y231096D01*
Y231487D02*
Y232917D01*
Y229810D02*
Y230532D01*
X181890Y232957D02*
X182874D01*
X181850Y229020D02*
Y229810D01*
Y230532D01*
Y231096D01*
X161260Y229020D02*
Y229810D01*
Y231096D02*
Y231487D01*
X160197D02*
Y232917D01*
Y231096D02*
Y231487D01*
X161260Y230532D02*
Y231096D01*
Y231487D02*
Y232917D01*
Y229810D02*
Y230532D01*
X160236Y232957D02*
X161221D01*
X160197Y229020D02*
Y229810D01*
Y230532D01*
Y231096D01*
X144190Y217740D02*
X144980D01*
X142513D02*
X142904D01*
X141083Y216677D02*
X142513D01*
X142904D01*
Y217740D02*
X143468D01*
X141083D02*
X142513D01*
X143468D02*
X144190D01*
X141043Y216717D02*
Y217701D01*
X144190Y216677D02*
X144980D01*
X143468D02*
X144190D01*
X142904D02*
X143468D01*
X144190Y196087D02*
X144980D01*
X142513D02*
X142904D01*
X141083Y195024D02*
X142513D01*
X142904D01*
Y196087D02*
X143468D01*
X141083D02*
X142513D01*
X143468D02*
X144190D01*
X141043Y195063D02*
Y196047D01*
X144190Y195024D02*
X144980D01*
X143468D02*
X144190D01*
X142904D02*
X143468D01*
X183819Y173112D02*
Y173902D01*
Y171434D02*
Y171826D01*
X184882Y170004D02*
Y171434D01*
Y171826D01*
X183819D02*
Y172389D01*
Y170004D02*
Y171434D01*
Y172389D02*
Y173112D01*
X183858Y169965D02*
X184843D01*
X184882Y173112D02*
Y173902D01*
Y172389D02*
Y173112D01*
Y171826D02*
Y172389D01*
X162165Y173112D02*
Y173902D01*
Y171434D02*
Y171826D01*
X163228Y170004D02*
Y171434D01*
Y171826D01*
X162165D02*
Y172389D01*
Y170004D02*
Y171434D01*
Y172389D02*
Y173112D01*
X162205Y169965D02*
X163189D01*
X163228Y173112D02*
Y173902D01*
Y172389D02*
Y173112D01*
Y171826D02*
Y172389D01*
X150354Y173112D02*
Y173902D01*
Y171434D02*
Y171826D01*
X151417Y170004D02*
Y171434D01*
Y171826D01*
X150354D02*
Y172389D01*
Y170004D02*
Y171434D01*
Y172389D02*
Y173112D01*
X150394Y169965D02*
X151378D01*
X151417Y173112D02*
Y173902D01*
Y172389D02*
Y173112D01*
Y171826D02*
Y172389D01*
X200098Y185181D02*
X200888D01*
X202174D02*
X202566D01*
Y186244D02*
X203996D01*
X202174D02*
X202566D01*
X201611Y185181D02*
X202174D01*
X202566D02*
X203996D01*
X200888D02*
X201611D01*
X204035Y185221D02*
Y186205D01*
X200098Y186244D02*
X200888D01*
X201611D01*
X202174D01*
X200098Y206835D02*
X200888D01*
X202174D02*
X202566D01*
Y207898D02*
X203996D01*
X202174D02*
X202566D01*
X201611Y206835D02*
X202174D01*
X202566D02*
X203996D01*
X200888D02*
X201611D01*
X204035Y206874D02*
Y207858D01*
X200098Y207898D02*
X200888D01*
X201611D01*
X202174D01*
X194724Y229020D02*
Y229810D01*
Y231096D02*
Y231487D01*
X193661D02*
Y232917D01*
Y231096D02*
Y231487D01*
X194724Y230532D02*
Y231096D01*
Y231487D02*
Y232917D01*
Y229810D02*
Y230532D01*
X193701Y232957D02*
X194685D01*
X193661Y229020D02*
Y229810D01*
Y230532D01*
Y231096D01*
X173071Y229020D02*
Y229810D01*
Y231096D02*
Y231487D01*
X172008D02*
Y232917D01*
Y231096D02*
Y231487D01*
X173071Y230532D02*
Y231096D01*
Y231487D02*
Y232917D01*
Y229810D02*
Y230532D01*
X172047Y232957D02*
X173031D01*
X172008Y229020D02*
Y229810D01*
Y230532D01*
Y231096D01*
X151417Y229020D02*
Y229810D01*
Y231096D02*
Y231487D01*
X150354D02*
Y232917D01*
Y231096D02*
Y231487D01*
X151417Y230532D02*
Y231096D01*
Y231487D02*
Y232917D01*
Y229810D02*
Y230532D01*
X150394Y232957D02*
X151378D01*
X150354Y229020D02*
Y229810D01*
Y230532D01*
Y231096D01*
X144190Y207898D02*
X144980D01*
X142513D02*
X142904D01*
X141083Y206835D02*
X142513D01*
X142904D01*
Y207898D02*
X143468D01*
X141083D02*
X142513D01*
X143468D02*
X144190D01*
X141043Y206874D02*
Y207858D01*
X144190Y206835D02*
X144980D01*
X143468D02*
X144190D01*
X142904D02*
X143468D01*
X172008Y173112D02*
Y173902D01*
Y171434D02*
Y171826D01*
X173071Y170004D02*
Y171434D01*
Y171826D01*
X172008D02*
Y172389D01*
Y170004D02*
Y171434D01*
Y172389D02*
Y173112D01*
X172047Y169965D02*
X173031D01*
X173071Y173112D02*
Y173902D01*
Y172389D02*
Y173112D01*
Y171826D02*
Y172389D01*
X144190Y186244D02*
X144980D01*
X142513D02*
X142904D01*
X141083Y185181D02*
X142513D01*
X142904D01*
Y186244D02*
X143468D01*
X141083D02*
X142513D01*
X143468D02*
X144190D01*
X141043Y185221D02*
Y186205D01*
X144190Y185181D02*
X144980D01*
X143468D02*
X144190D01*
X142904D02*
X143468D01*
X193661Y173112D02*
Y173902D01*
Y171434D02*
Y171826D01*
X194724Y170004D02*
Y171434D01*
Y171826D01*
X193661D02*
Y172389D01*
Y170004D02*
Y171434D01*
Y172389D02*
Y173112D01*
X193701Y169965D02*
X194685D01*
X194724Y173112D02*
Y173902D01*
Y172389D02*
Y173112D01*
Y171826D02*
Y172389D01*
X160197Y173112D02*
Y173902D01*
Y171434D02*
Y171826D01*
X161260Y170004D02*
Y171434D01*
Y171826D01*
X160197D02*
Y172389D01*
Y170004D02*
Y171434D01*
Y172389D02*
Y173112D01*
X160236Y169965D02*
X161221D01*
X161260Y173112D02*
Y173902D01*
Y172389D02*
Y173112D01*
Y171826D02*
Y172389D01*
X200098Y195024D02*
X200888D01*
X202174D02*
X202566D01*
Y196087D02*
X203996D01*
X202174D02*
X202566D01*
X201611Y195024D02*
X202174D01*
X202566D02*
X203996D01*
X200888D02*
X201611D01*
X204035Y195063D02*
Y196047D01*
X200098Y196087D02*
X200888D01*
X201611D01*
X202174D01*
X200098Y216677D02*
X200888D01*
X202174D02*
X202566D01*
Y217740D02*
X203996D01*
X202174D02*
X202566D01*
X201611Y216677D02*
X202174D01*
X202566D02*
X203996D01*
X200888D02*
X201611D01*
X204035Y216717D02*
Y217701D01*
X200098Y217740D02*
X200888D01*
X201611D01*
X202174D01*
X184882Y229020D02*
Y229810D01*
Y231096D02*
Y231487D01*
X183819D02*
Y232917D01*
Y231096D02*
Y231487D01*
X184882Y230532D02*
Y231096D01*
Y231487D02*
Y232917D01*
Y229810D02*
Y230532D01*
X183858Y232957D02*
X184843D01*
X183819Y229020D02*
Y229810D01*
Y230532D01*
Y231096D01*
X163228Y229020D02*
Y229810D01*
Y231096D02*
Y231487D01*
X162165D02*
Y232917D01*
Y231096D02*
Y231487D01*
X163228Y230532D02*
Y231096D01*
Y231487D02*
Y232917D01*
Y229810D02*
Y230532D01*
X162205Y232957D02*
X163189D01*
X162165Y229020D02*
Y229810D01*
Y230532D01*
Y231096D01*
X144190Y219709D02*
X144980D01*
X142513D02*
X142904D01*
X141083Y218646D02*
X142513D01*
X142904D01*
Y219709D02*
X143468D01*
X141083D02*
X142513D01*
X143468D02*
X144190D01*
X141043Y218685D02*
Y219669D01*
X144190Y218646D02*
X144980D01*
X143468D02*
X144190D01*
X142904D02*
X143468D01*
X144190Y198055D02*
X144980D01*
X142513D02*
X142904D01*
X141083Y196992D02*
X142513D01*
X142904D01*
Y198055D02*
X143468D01*
X141083D02*
X142513D01*
X143468D02*
X144190D01*
X141043Y197031D02*
Y198016D01*
X144190Y196992D02*
X144980D01*
X143468D02*
X144190D01*
X142904D02*
X143468D01*
X181850Y173112D02*
Y173902D01*
Y171434D02*
Y171826D01*
X182913Y170004D02*
Y171434D01*
Y171826D01*
X181850D02*
Y172389D01*
Y170004D02*
Y171434D01*
Y172389D02*
Y173112D01*
X181890Y169965D02*
X182874D01*
X182913Y173112D02*
Y173902D01*
Y172389D02*
Y173112D01*
Y171826D02*
Y172389D01*
X148386Y173112D02*
Y173902D01*
Y171434D02*
Y171826D01*
X149449Y170004D02*
Y171434D01*
Y171826D01*
X148386D02*
Y172389D01*
Y170004D02*
Y171434D01*
Y172389D02*
Y173112D01*
X148425Y169965D02*
X149409D01*
X149449Y173112D02*
Y173902D01*
Y172389D02*
Y173112D01*
Y171826D02*
Y172389D01*
X200098Y183213D02*
X200888D01*
X202174D02*
X202566D01*
Y184276D02*
X203996D01*
X202174D02*
X202566D01*
X201611Y183213D02*
X202174D01*
X202566D02*
X203996D01*
X200888D02*
X201611D01*
X204035Y183252D02*
Y184236D01*
X200098Y184276D02*
X200888D01*
X201611D01*
X202174D01*
X200098Y204866D02*
X200888D01*
X202174D02*
X202566D01*
Y205929D02*
X203996D01*
X202174D02*
X202566D01*
X201611Y204866D02*
X202174D01*
X202566D02*
X203996D01*
X200888D02*
X201611D01*
X204035Y204906D02*
Y205890D01*
X200098Y205929D02*
X200888D01*
X201611D01*
X202174D01*
X196693Y229020D02*
Y229810D01*
Y231096D02*
Y231487D01*
X195630D02*
Y232917D01*
Y231096D02*
Y231487D01*
X196693Y230532D02*
Y231096D01*
Y231487D02*
Y232917D01*
Y229810D02*
Y230532D01*
X195669Y232957D02*
X196653D01*
X195630Y229020D02*
Y229810D01*
Y230532D01*
Y231096D01*
X175039Y229020D02*
Y229810D01*
Y231096D02*
Y231487D01*
X173976D02*
Y232917D01*
Y231096D02*
Y231487D01*
X175039Y230532D02*
Y231096D01*
Y231487D02*
Y232917D01*
Y229810D02*
Y230532D01*
X174016Y232957D02*
X175000D01*
X173976Y229020D02*
Y229810D01*
Y230532D01*
Y231096D01*
X153386Y229020D02*
Y229810D01*
Y231096D02*
Y231487D01*
X152323D02*
Y232917D01*
Y231096D02*
Y231487D01*
X153386Y230532D02*
Y231096D01*
Y231487D02*
Y232917D01*
Y229810D02*
Y230532D01*
X152362Y232957D02*
X153347D01*
X152323Y229020D02*
Y229810D01*
Y230532D01*
Y231096D01*
X144190Y209866D02*
X144980D01*
X142513D02*
X142904D01*
X141083Y208803D02*
X142513D01*
X142904D01*
Y209866D02*
X143468D01*
X141083D02*
X142513D01*
X143468D02*
X144190D01*
X141043Y208843D02*
Y209827D01*
X144190Y208803D02*
X144980D01*
X143468D02*
X144190D01*
X142904D02*
X143468D01*
X144190Y188213D02*
X144980D01*
X142513D02*
X142904D01*
X141083Y187150D02*
X142513D01*
X142904D01*
Y188213D02*
X143468D01*
X141083D02*
X142513D01*
X143468D02*
X144190D01*
X141043Y187189D02*
Y188173D01*
X144190Y187150D02*
X144980D01*
X143468D02*
X144190D01*
X142904D02*
X143468D01*
X191693Y173112D02*
Y173902D01*
Y171434D02*
Y171826D01*
X192756Y170004D02*
Y171434D01*
Y171826D01*
X191693D02*
Y172389D01*
Y170004D02*
Y171434D01*
Y172389D02*
Y173112D01*
X191732Y169965D02*
X192717D01*
X192756Y173112D02*
Y173902D01*
Y172389D02*
Y173112D01*
Y171826D02*
Y172389D01*
X170039Y173112D02*
Y173902D01*
Y171434D02*
Y171826D01*
X171102Y170004D02*
Y171434D01*
Y171826D01*
X170039D02*
Y172389D01*
Y170004D02*
Y171434D01*
Y172389D02*
Y173112D01*
X170079Y169965D02*
X171063D01*
X171102Y173112D02*
Y173902D01*
Y172389D02*
Y173112D01*
Y171826D02*
Y172389D01*
X158228Y173112D02*
Y173902D01*
Y171434D02*
Y171826D01*
X159291Y170004D02*
Y171434D01*
Y171826D01*
X158228D02*
Y172389D01*
Y170004D02*
Y171434D01*
Y172389D02*
Y173112D01*
X158268Y169965D02*
X159252D01*
X159291Y173112D02*
Y173902D01*
Y172389D02*
Y173112D01*
Y171826D02*
Y172389D01*
X200098Y193055D02*
X200888D01*
X202174D02*
X202566D01*
Y194118D02*
X203996D01*
X202174D02*
X202566D01*
X201611Y193055D02*
X202174D01*
X202566D02*
X203996D01*
X200888D02*
X201611D01*
X204035Y193095D02*
Y194079D01*
X200098Y194118D02*
X200888D01*
X201611D01*
X202174D01*
X200098Y214709D02*
X200888D01*
X202174D02*
X202566D01*
Y215772D02*
X203996D01*
X202174D02*
X202566D01*
X201611Y214709D02*
X202174D01*
X202566D02*
X203996D01*
X200888D02*
X201611D01*
X204035Y214748D02*
Y215732D01*
X200098Y215772D02*
X200888D01*
X201611D01*
X202174D01*
X186850Y229020D02*
Y229810D01*
Y231096D02*
Y231487D01*
X185787D02*
Y232917D01*
Y231096D02*
Y231487D01*
X186850Y230532D02*
Y231096D01*
Y231487D02*
Y232917D01*
Y229810D02*
Y230532D01*
X185827Y232957D02*
X186811D01*
X185787Y229020D02*
Y229810D01*
Y230532D01*
Y231096D01*
X165197Y229020D02*
Y229810D01*
Y231096D02*
Y231487D01*
X164134D02*
Y232917D01*
Y231096D02*
Y231487D01*
X165197Y230532D02*
Y231096D01*
Y231487D02*
Y232917D01*
Y229810D02*
Y230532D01*
X164173Y232957D02*
X165157D01*
X164134Y229020D02*
Y229810D01*
Y230532D01*
Y231096D01*
X144190Y221677D02*
X144980D01*
X142513D02*
X142904D01*
X141083Y220614D02*
X142513D01*
X142904D01*
Y221677D02*
X143468D01*
X141083D02*
X142513D01*
X143468D02*
X144190D01*
X141043Y220654D02*
Y221638D01*
X144190Y220614D02*
X144980D01*
X143468D02*
X144190D01*
X142904D02*
X143468D01*
X171102Y229020D02*
Y229810D01*
Y231096D02*
Y231487D01*
X170039D02*
Y232917D01*
Y231096D02*
Y231487D01*
X171102Y230532D02*
Y231096D01*
Y231487D02*
Y232917D01*
Y229810D02*
Y230532D01*
X170079Y232957D02*
X171063D01*
X170039Y229020D02*
Y229810D01*
Y230532D01*
Y231096D01*
X144190Y200024D02*
X144980D01*
X142513D02*
X142904D01*
X141083Y198961D02*
X142513D01*
X142904D01*
Y200024D02*
X143468D01*
X141083D02*
X142513D01*
X143468D02*
X144190D01*
X141043Y199000D02*
Y199984D01*
X144190Y198961D02*
X144980D01*
X143468D02*
X144190D01*
X142904D02*
X143468D01*
X179882Y173112D02*
Y173902D01*
Y171434D02*
Y171826D01*
X180945Y170004D02*
Y171434D01*
Y171826D01*
X179882D02*
Y172389D01*
Y170004D02*
Y171434D01*
Y172389D02*
Y173112D01*
X179921Y169965D02*
X180905D01*
X180945Y173112D02*
Y173902D01*
Y172389D02*
Y173112D01*
Y171826D02*
Y172389D01*
X144190Y178370D02*
X144980D01*
X142513D02*
X142904D01*
X141083Y177307D02*
X142513D01*
X142904D01*
Y178370D02*
X143468D01*
X141083D02*
X142513D01*
X143468D02*
X144190D01*
X141043Y177347D02*
Y178331D01*
X144190Y177307D02*
X144980D01*
X143468D02*
X144190D01*
X142904D02*
X143468D01*
X200098Y181244D02*
X200888D01*
X202174D02*
X202566D01*
Y182307D02*
X203996D01*
X202174D02*
X202566D01*
X201611Y181244D02*
X202174D01*
X202566D02*
X203996D01*
X200888D02*
X201611D01*
X204035Y181283D02*
Y182268D01*
X200098Y182307D02*
X200888D01*
X201611D01*
X202174D01*
X200098Y202898D02*
X200888D01*
X202174D02*
X202566D01*
Y203961D02*
X203996D01*
X202174D02*
X202566D01*
X201611Y202898D02*
X202174D01*
X202566D02*
X203996D01*
X200888D02*
X201611D01*
X204035Y202937D02*
Y203921D01*
X200098Y203961D02*
X200888D01*
X201611D01*
X202174D01*
X200098Y224551D02*
X200888D01*
X202174D02*
X202566D01*
Y225614D02*
X203996D01*
X202174D02*
X202566D01*
X201611Y224551D02*
X202174D01*
X202566D02*
X203996D01*
X200888D02*
X201611D01*
X204035Y224591D02*
Y225575D01*
X200098Y225614D02*
X200888D01*
X201611D01*
X202174D01*
X177008Y229020D02*
Y229810D01*
Y231096D02*
Y231487D01*
X175945D02*
Y232917D01*
Y231096D02*
Y231487D01*
X177008Y230532D02*
Y231096D01*
Y231487D02*
Y232917D01*
Y229810D02*
Y230532D01*
X175984Y232957D02*
X176969D01*
X175945Y229020D02*
Y229810D01*
Y230532D01*
Y231096D01*
X155354Y229020D02*
Y229810D01*
Y231096D02*
Y231487D01*
X154291D02*
Y232917D01*
Y231096D02*
Y231487D01*
X155354Y230532D02*
Y231096D01*
Y231487D02*
Y232917D01*
Y229810D02*
Y230532D01*
X154331Y232957D02*
X155315D01*
X154291Y229020D02*
Y229810D01*
Y230532D01*
Y231096D01*
X144190Y211835D02*
X144980D01*
X142513D02*
X142904D01*
X141083Y210772D02*
X142513D01*
X142904D01*
Y211835D02*
X143468D01*
X141083D02*
X142513D01*
X143468D02*
X144190D01*
X141043Y210811D02*
Y211795D01*
X144190Y210772D02*
X144980D01*
X143468D02*
X144190D01*
X142904D02*
X143468D01*
X144190Y190181D02*
X144980D01*
X142513D02*
X142904D01*
X141083Y189118D02*
X142513D01*
X142904D01*
Y190181D02*
X143468D01*
X141083D02*
X142513D01*
X143468D02*
X144190D01*
X141043Y189157D02*
Y190142D01*
X144190Y189118D02*
X144980D01*
X143468D02*
X144190D01*
X142904D02*
X143468D01*
X189724Y173112D02*
Y173902D01*
Y171434D02*
Y171826D01*
X190787Y170004D02*
Y171434D01*
Y171826D01*
X189724D02*
Y172389D01*
Y170004D02*
Y171434D01*
Y172389D02*
Y173112D01*
X189764Y169965D02*
X190748D01*
X190787Y173112D02*
Y173902D01*
Y172389D02*
Y173112D01*
Y171826D02*
Y172389D01*
X168071Y173112D02*
Y173902D01*
Y171434D02*
Y171826D01*
X169134Y170004D02*
Y171434D01*
Y171826D01*
X168071D02*
Y172389D01*
Y170004D02*
Y171434D01*
Y172389D02*
Y173112D01*
X168110Y169965D02*
X169095D01*
X169134Y173112D02*
Y173902D01*
Y172389D02*
Y173112D01*
Y171826D02*
Y172389D01*
X156260Y173112D02*
Y173902D01*
Y171434D02*
Y171826D01*
X157323Y170004D02*
Y171434D01*
Y171826D01*
X156260D02*
Y172389D01*
Y170004D02*
Y171434D01*
Y172389D02*
Y173112D01*
X156299Y169965D02*
X157283D01*
X157323Y173112D02*
Y173902D01*
Y172389D02*
Y173112D01*
Y171826D02*
Y172389D01*
X200098Y191087D02*
X200888D01*
X202174D02*
X202566D01*
Y192150D02*
X203996D01*
X202174D02*
X202566D01*
X201611Y191087D02*
X202174D01*
X202566D02*
X203996D01*
X200888D02*
X201611D01*
X204035Y191126D02*
Y192110D01*
X200098Y192150D02*
X200888D01*
X201611D01*
X202174D01*
X200098Y212740D02*
X200888D01*
X202174D02*
X202566D01*
Y213803D02*
X203996D01*
X202174D02*
X202566D01*
X201611Y212740D02*
X202174D01*
X202566D02*
X203996D01*
X200888D02*
X201611D01*
X204035Y212780D02*
Y213764D01*
X200098Y213803D02*
X200888D01*
X201611D01*
X202174D01*
X188819Y229020D02*
Y229810D01*
Y231096D02*
Y231487D01*
X187756D02*
Y232917D01*
Y231096D02*
Y231487D01*
X188819Y230532D02*
Y231096D01*
Y231487D02*
Y232917D01*
Y229810D02*
Y230532D01*
X187795Y232957D02*
X188779D01*
X187756Y229020D02*
Y229810D01*
Y230532D01*
Y231096D01*
X167165Y229020D02*
Y229810D01*
Y231096D02*
Y231487D01*
X166102D02*
Y232917D01*
Y231096D02*
Y231487D01*
X167165Y230532D02*
Y231096D01*
Y231487D02*
Y232917D01*
Y229810D02*
Y230532D01*
X166142Y232957D02*
X167126D01*
X166102Y229020D02*
Y229810D01*
Y230532D01*
Y231096D01*
X144190Y223646D02*
X144980D01*
X142513D02*
X142904D01*
X141083Y222583D02*
X142513D01*
X142904D01*
Y223646D02*
X143468D01*
X141083D02*
X142513D01*
X143468D02*
X144190D01*
X141043Y222622D02*
Y223606D01*
X144190Y222583D02*
X144980D01*
X143468D02*
X144190D01*
X142904D02*
X143468D01*
X144190Y201992D02*
X144980D01*
X142513D02*
X142904D01*
X141083Y200929D02*
X142513D01*
X142904D01*
Y201992D02*
X143468D01*
X141083D02*
X142513D01*
X143468D02*
X144190D01*
X141043Y200969D02*
Y201953D01*
X144190Y200929D02*
X144980D01*
X143468D02*
X144190D01*
X142904D02*
X143468D01*
X177913Y173112D02*
Y173902D01*
Y171434D02*
Y171826D01*
X178976Y170004D02*
Y171434D01*
Y171826D01*
X177913D02*
Y172389D01*
Y170004D02*
Y171434D01*
Y172389D02*
Y173112D01*
X177953Y169965D02*
X178937D01*
X178976Y173112D02*
Y173902D01*
Y172389D02*
Y173112D01*
Y171826D02*
Y172389D01*
X144190Y180339D02*
X144980D01*
X142513D02*
X142904D01*
X141083Y179276D02*
X142513D01*
X142904D01*
Y180339D02*
X143468D01*
X141083D02*
X142513D01*
X143468D02*
X144190D01*
X141043Y179315D02*
Y180299D01*
X144190Y179276D02*
X144980D01*
X143468D02*
X144190D01*
X142904D02*
X143468D01*
X200098D02*
X200888D01*
X202174D02*
X202566D01*
Y180339D02*
X203996D01*
X202174D02*
X202566D01*
X201611Y179276D02*
X202174D01*
X202566D02*
X203996D01*
X200888D02*
X201611D01*
X204035Y179315D02*
Y180299D01*
X200098Y180339D02*
X200888D01*
X201611D01*
X202174D01*
X200098Y200929D02*
X200888D01*
X202174D02*
X202566D01*
Y201992D02*
X203996D01*
X202174D02*
X202566D01*
X201611Y200929D02*
X202174D01*
X202566D02*
X203996D01*
X200888D02*
X201611D01*
X204035Y200969D02*
Y201953D01*
X200098Y201992D02*
X200888D01*
X201611D01*
X202174D01*
X200098Y222583D02*
X200888D01*
X202174D02*
X202566D01*
Y223646D02*
X203996D01*
X202174D02*
X202566D01*
X201611Y222583D02*
X202174D01*
X202566D02*
X203996D01*
X200888D02*
X201611D01*
X204035Y222622D02*
Y223606D01*
X200098Y223646D02*
X200888D01*
X201611D01*
X202174D01*
X178976Y229020D02*
Y229810D01*
Y231096D02*
Y231487D01*
X177913D02*
Y232917D01*
Y231096D02*
Y231487D01*
X178976Y230532D02*
Y231096D01*
Y231487D02*
Y232917D01*
Y229810D02*
Y230532D01*
X177953Y232957D02*
X178937D01*
X177913Y229020D02*
Y229810D01*
Y230532D01*
Y231096D01*
X157323Y229020D02*
Y229810D01*
Y231096D02*
Y231487D01*
X156260D02*
Y232917D01*
Y231096D02*
Y231487D01*
X157323Y230532D02*
Y231096D01*
Y231487D02*
Y232917D01*
Y229810D02*
Y230532D01*
X156299Y232957D02*
X157283D01*
X156260Y229020D02*
Y229810D01*
Y230532D01*
Y231096D01*
X144190Y213803D02*
X144980D01*
X142513D02*
X142904D01*
X141083Y212740D02*
X142513D01*
X142904D01*
Y213803D02*
X143468D01*
X141083D02*
X142513D01*
X143468D02*
X144190D01*
X141043Y212780D02*
Y213764D01*
X144190Y212740D02*
X144980D01*
X143468D02*
X144190D01*
X142904D02*
X143468D01*
X144190Y192150D02*
X144980D01*
X142513D02*
X142904D01*
X141083Y191087D02*
X142513D01*
X142904D01*
Y192150D02*
X143468D01*
X141083D02*
X142513D01*
X143468D02*
X144190D01*
X141043Y191126D02*
Y192110D01*
X144190Y191087D02*
X144980D01*
X143468D02*
X144190D01*
X142904D02*
X143468D01*
X187756Y173112D02*
Y173902D01*
Y171434D02*
Y171826D01*
X188819Y170004D02*
Y171434D01*
Y171826D01*
X187756D02*
Y172389D01*
Y170004D02*
Y171434D01*
Y172389D02*
Y173112D01*
X187795Y169965D02*
X188779D01*
X188819Y173112D02*
Y173902D01*
Y172389D02*
Y173112D01*
Y171826D02*
Y172389D01*
X166102Y173112D02*
Y173902D01*
Y171434D02*
Y171826D01*
X167165Y170004D02*
Y171434D01*
Y171826D01*
X166102D02*
Y172389D01*
Y170004D02*
Y171434D01*
Y172389D02*
Y173112D01*
X166142Y169965D02*
X167126D01*
X167165Y173112D02*
Y173902D01*
Y172389D02*
Y173112D01*
Y171826D02*
Y172389D01*
X154291Y173112D02*
Y173902D01*
Y171434D02*
Y171826D01*
X155354Y170004D02*
Y171434D01*
Y171826D01*
X154291D02*
Y172389D01*
Y170004D02*
Y171434D01*
Y172389D02*
Y173112D01*
X154331Y169965D02*
X155315D01*
X155354Y173112D02*
Y173902D01*
Y172389D02*
Y173112D01*
Y171826D02*
Y172389D01*
X200098Y189118D02*
X200888D01*
X202174D02*
X202566D01*
Y190181D02*
X203996D01*
X202174D02*
X202566D01*
X201611Y189118D02*
X202174D01*
X202566D02*
X203996D01*
X200888D02*
X201611D01*
X204035Y189157D02*
Y190142D01*
X200098Y190181D02*
X200888D01*
X201611D01*
X202174D01*
X200098Y210772D02*
X200888D01*
X202174D02*
X202566D01*
Y211835D02*
X203996D01*
X202174D02*
X202566D01*
X201611Y210772D02*
X202174D01*
X202566D02*
X203996D01*
X200888D02*
X201611D01*
X204035Y210811D02*
Y211795D01*
X200098Y211835D02*
X200888D01*
X201611D01*
X202174D01*
X190787Y229020D02*
Y229810D01*
Y231096D02*
Y231487D01*
X189724D02*
Y232917D01*
Y231096D02*
Y231487D01*
X190787Y230532D02*
Y231096D01*
Y231487D02*
Y232917D01*
Y229810D02*
Y230532D01*
X189764Y232957D02*
X190748D01*
X189724Y229020D02*
Y229810D01*
Y230532D01*
Y231096D01*
X169134Y229020D02*
Y229810D01*
Y231096D02*
Y231487D01*
X168071D02*
Y232917D01*
Y231096D02*
Y231487D01*
X169134Y230532D02*
Y231096D01*
Y231487D02*
Y232917D01*
Y229810D02*
Y230532D01*
X168110Y232957D02*
X169095D01*
X168071Y229020D02*
Y229810D01*
Y230532D01*
Y231096D01*
X144190Y225614D02*
X144980D01*
X142513D02*
X142904D01*
X141083Y224551D02*
X142513D01*
X142904D01*
Y225614D02*
X143468D01*
X141083D02*
X142513D01*
X143468D02*
X144190D01*
X141043Y224591D02*
Y225575D01*
X144190Y224551D02*
X144980D01*
X143468D02*
X144190D01*
X142904D02*
X143468D01*
X144190Y203961D02*
X144980D01*
X142513D02*
X142904D01*
X141083Y202898D02*
X142513D01*
X142904D01*
Y203961D02*
X143468D01*
X141083D02*
X142513D01*
X143468D02*
X144190D01*
X141043Y202937D02*
Y203921D01*
X144190Y202898D02*
X144980D01*
X143468D02*
X144190D01*
X142904D02*
X143468D01*
X175945Y173112D02*
Y173902D01*
Y171434D02*
Y171826D01*
X177008Y170004D02*
Y171434D01*
Y171826D01*
X175945D02*
Y172389D01*
Y170004D02*
Y171434D01*
Y172389D02*
Y173112D01*
X175984Y169965D02*
X176969D01*
X177008Y173112D02*
Y173902D01*
Y172389D02*
Y173112D01*
Y171826D02*
Y172389D01*
X144190Y182307D02*
X144980D01*
X142513D02*
X142904D01*
X141083Y181244D02*
X142513D01*
X142904D01*
Y182307D02*
X143468D01*
X141083D02*
X142513D01*
X143468D02*
X144190D01*
X141043Y181283D02*
Y182268D01*
X144190Y181244D02*
X144980D01*
X143468D02*
X144190D01*
X142904D02*
X143468D01*
X200098Y177307D02*
X200888D01*
X202174D02*
X202566D01*
Y178370D02*
X203996D01*
X202174D02*
X202566D01*
X201611Y177307D02*
X202174D01*
X202566D02*
X203996D01*
X200888D02*
X201611D01*
X204035Y177347D02*
Y178331D01*
X200098Y178370D02*
X200888D01*
X201611D01*
X202174D01*
X200098Y198961D02*
X200888D01*
X202174D02*
X202566D01*
Y200024D02*
X203996D01*
X202174D02*
X202566D01*
X201611Y198961D02*
X202174D01*
X202566D02*
X203996D01*
X200888D02*
X201611D01*
X204035Y199000D02*
Y199984D01*
X200098Y200024D02*
X200888D01*
X201611D01*
X202174D01*
X200098Y220614D02*
X200888D01*
X202174D02*
X202566D01*
Y221677D02*
X203996D01*
X202174D02*
X202566D01*
X201611Y220614D02*
X202174D01*
X202566D02*
X203996D01*
X200888D02*
X201611D01*
X204035Y220654D02*
Y221638D01*
X200098Y221677D02*
X200888D01*
X201611D01*
X202174D01*
X180945Y229020D02*
Y229810D01*
Y231096D02*
Y231487D01*
X179882D02*
Y232917D01*
Y231096D02*
Y231487D01*
X180945Y230532D02*
Y231096D01*
Y231487D02*
Y232917D01*
Y229810D02*
Y230532D01*
X179921Y232957D02*
X180905D01*
X179882Y229020D02*
Y229810D01*
Y230532D01*
Y231096D01*
X159291Y229020D02*
Y229810D01*
Y231096D02*
Y231487D01*
X158228D02*
Y232917D01*
Y231096D02*
Y231487D01*
X159291Y230532D02*
Y231096D01*
Y231487D02*
Y232917D01*
Y229810D02*
Y230532D01*
X158268Y232957D02*
X159252D01*
X158228Y229020D02*
Y229810D01*
Y230532D01*
Y231096D01*
X144190Y215772D02*
X144980D01*
X142513D02*
X142904D01*
X141083Y214709D02*
X142513D01*
X142904D01*
Y215772D02*
X143468D01*
X141083D02*
X142513D01*
X143468D02*
X144190D01*
X141043Y214748D02*
Y215732D01*
X144190Y214709D02*
X144980D01*
X143468D02*
X144190D01*
X142904D02*
X143468D01*
X144190Y194118D02*
X144980D01*
X142513D02*
X142904D01*
X141083Y193055D02*
X142513D01*
X142904D01*
Y194118D02*
X143468D01*
X141083D02*
X142513D01*
X143468D02*
X144190D01*
X141043Y193095D02*
Y194079D01*
X144190Y193055D02*
X144980D01*
X143468D02*
X144190D01*
X142904D02*
X143468D01*
X185787Y173112D02*
Y173902D01*
Y171434D02*
Y171826D01*
X186850Y170004D02*
Y171434D01*
Y171826D01*
X185787D02*
Y172389D01*
Y170004D02*
Y171434D01*
Y172389D02*
Y173112D01*
X185827Y169965D02*
X186811D01*
X186850Y173112D02*
Y173902D01*
Y172389D02*
Y173112D01*
Y171826D02*
Y172389D01*
X164134Y173112D02*
Y173902D01*
Y171434D02*
Y171826D01*
X165197Y170004D02*
Y171434D01*
Y171826D01*
X164134D02*
Y172389D01*
Y170004D02*
Y171434D01*
Y172389D02*
Y173112D01*
X164173Y169965D02*
X165157D01*
X165197Y173112D02*
Y173902D01*
Y172389D02*
Y173112D01*
Y171826D02*
Y172389D01*
X152323Y173112D02*
Y173902D01*
Y171434D02*
Y171826D01*
X153386Y170004D02*
Y171434D01*
Y171826D01*
X152323D02*
Y172389D01*
Y170004D02*
Y171434D01*
Y172389D02*
Y173112D01*
X152362Y169965D02*
X153347D01*
X153386Y173112D02*
Y173902D01*
Y172389D02*
Y173112D01*
Y171826D02*
Y172389D01*
X200098Y187150D02*
X200888D01*
X202174D02*
X202566D01*
Y188213D02*
X203996D01*
X202174D02*
X202566D01*
X201611Y187150D02*
X202174D01*
X202566D02*
X203996D01*
X200888D02*
X201611D01*
X204035Y187189D02*
Y188173D01*
X200098Y188213D02*
X200888D01*
X201611D01*
X202174D01*
X200098Y208803D02*
X200888D01*
X202174D02*
X202566D01*
Y209866D02*
X203996D01*
X202174D02*
X202566D01*
X201611Y208803D02*
X202174D01*
X202566D02*
X203996D01*
X200888D02*
X201611D01*
X204035Y208843D02*
Y209827D01*
X200098Y209866D02*
X200888D01*
X201611D01*
X202174D01*
X192756Y229020D02*
Y229810D01*
Y231096D02*
Y231487D01*
X191693D02*
Y232917D01*
Y231096D02*
Y231487D01*
X192756Y230532D02*
Y231096D01*
Y231487D02*
Y232917D01*
Y229810D02*
Y230532D01*
X191732Y232957D02*
X192717D01*
X191693Y229020D02*
Y229810D01*
Y230532D01*
Y231096D01*
D82*
X364854Y418669D02*
Y427331D01*
X359146Y418669D02*
Y427331D01*
X364854D01*
X359146Y418669D02*
X364854D01*
X459169Y451146D02*
X467831D01*
X459169Y456854D02*
X467831D01*
Y451146D02*
Y456854D01*
X459169Y451146D02*
Y456854D01*
X458303Y422905D02*
X468697D01*
X458303Y436095D02*
X468697D01*
X458303Y422905D02*
Y436095D01*
X468697Y422905D02*
Y436095D01*
X278169Y379646D02*
Y385354D01*
X286831Y379646D02*
Y385354D01*
X278169D02*
X286831D01*
X278169Y379646D02*
X286831D01*
X278169Y393646D02*
Y399354D01*
X286831Y393646D02*
Y399354D01*
X278169D02*
X286831D01*
X278169Y393646D02*
X286831D01*
X237669Y418957D02*
Y424665D01*
X246331Y418957D02*
Y424665D01*
X237669D02*
X246331D01*
X237669Y418957D02*
X246331D01*
X266331Y418646D02*
Y424354D01*
X257669Y418646D02*
Y424354D01*
Y418646D02*
X266331D01*
X257669Y424354D02*
X266331D01*
X278169Y418146D02*
Y423854D01*
X286831Y418146D02*
Y423854D01*
X278169D02*
X286831D01*
X278169Y418146D02*
X286831D01*
X246406Y448803D02*
X259594D01*
X246406Y459197D02*
X259594D01*
Y448803D02*
Y459197D01*
X246406Y448803D02*
Y459197D01*
X196906Y448803D02*
X210094D01*
X196906Y459197D02*
X210094D01*
Y448803D02*
Y459197D01*
X196906Y448803D02*
Y459197D01*
X172406Y448803D02*
X185594D01*
X172406Y459197D02*
X185594D01*
Y448803D02*
Y459197D01*
X172406Y448803D02*
Y459197D01*
X278169Y406346D02*
Y412054D01*
X286831Y406346D02*
Y412054D01*
X278169D02*
X286831D01*
X278169Y406346D02*
X286831D01*
X221905Y459197D02*
X235094D01*
X221905Y448803D02*
X235094D01*
X221905D02*
Y459197D01*
X235094Y448803D02*
Y459197D01*
X481354Y398169D02*
Y406831D01*
X475646Y398169D02*
Y406831D01*
X481354D01*
X475646Y398169D02*
X481354D01*
X459646Y398169D02*
Y406831D01*
X465354Y398169D02*
Y406831D01*
X459646Y398169D02*
X465354D01*
X459646Y406831D02*
X465354D01*
X398331Y357646D02*
Y363354D01*
X389669Y357646D02*
Y363354D01*
Y357646D02*
X398331D01*
X389669Y363354D02*
X398331D01*
X410236Y357244D02*
X418701D01*
X410236Y362756D02*
X418701D01*
Y357244D02*
Y362756D01*
X410236Y357244D02*
Y362756D01*
X431169Y357646D02*
Y363354D01*
X439831Y357646D02*
Y363354D01*
X431169D02*
X439831D01*
X431169Y357646D02*
X439831D01*
X361705Y127905D02*
G03*
X377295Y127905I7795J-5906D01*
G01*
X382201Y284630D02*
G03*
X382201Y284630I-1969J0D01*
G01*
X194378Y150646D02*
Y156354D01*
X185716Y150646D02*
Y156354D01*
Y150646D02*
X194378D01*
X185716Y156354D02*
X194378D01*
X361705Y127905D02*
X377295D01*
X343224Y259827D02*
Y288173D01*
X383776Y259827D02*
Y288173D01*
X343224Y259827D02*
X383776D01*
X343224Y288173D02*
X383776D01*
X116303Y186406D02*
Y199594D01*
X126697Y186406D02*
Y199594D01*
X116303Y186406D02*
X126697D01*
X116303Y199594D02*
X126697D01*
X150146Y251169D02*
X155854D01*
X150146Y259831D02*
X155854D01*
X150146Y251169D02*
Y259831D01*
X155854Y251169D02*
Y259831D01*
X137146D02*
X142854D01*
X137146Y251169D02*
X142854D01*
Y259831D01*
X137146Y251169D02*
Y259831D01*
X168268Y255256D02*
X176732D01*
X168268Y249744D02*
X176732D01*
X168268D02*
Y255256D01*
X176732Y249744D02*
Y255256D01*
X219646Y201331D02*
X225354D01*
X219646Y192669D02*
X225354D01*
Y201331D01*
X219646Y192669D02*
Y201331D01*
X126583Y167646D02*
Y173354D01*
X117921Y167646D02*
Y173354D01*
Y167646D02*
X126583D01*
X117921Y173354D02*
X126583D01*
X184622Y250146D02*
Y255854D01*
X193283Y250146D02*
Y255854D01*
X184622D02*
X193283D01*
X184622Y250146D02*
X193283D01*
M02*
