G04 Layer_Color=8421504*
%FSLAX25Y25*%
%MOIN*%
G70*
G01*
G75*
%ADD10O,0.01181X0.06890*%
%ADD11O,0.06890X0.01181*%
%ADD12R,0.05512X0.04331*%
%ADD13R,0.04331X0.05512*%
%ADD14R,0.10236X0.04331*%
%ADD15R,0.04331X0.10236*%
%ADD16R,0.04724X0.05512*%
%ADD48R,0.00100X0.00100*%
G36*
X249056Y391000D02*
Y389801D01*
X248499Y389244D01*
X247301D01*
X246744Y389801D01*
Y391000D01*
X247301Y391556D01*
X248499D01*
X249056Y391000D01*
D02*
G37*
G36*
X252156D02*
Y389801D01*
X251600Y389244D01*
X250400D01*
X249844Y389801D01*
Y391000D01*
X250400Y391556D01*
X251600D01*
X252156Y391000D01*
D02*
G37*
G36*
X255256D02*
Y389801D01*
X254699Y389244D01*
X253501D01*
X252944Y389801D01*
Y391000D01*
X253501Y391556D01*
X254699D01*
X255256Y391000D01*
D02*
G37*
G36*
X245956D02*
Y389801D01*
X245399Y389244D01*
X244504D01*
Y391556D01*
X245399D01*
X245956Y391000D01*
D02*
G37*
G36*
X257496Y387004D02*
X256044D01*
Y387899D01*
X256600Y388456D01*
X257496D01*
Y387004D01*
D02*
G37*
G36*
X242831Y388124D02*
X239681D01*
Y389031D01*
X242831D01*
Y388124D01*
D02*
G37*
G36*
X262319D02*
X259169D01*
Y389031D01*
X262319D01*
Y388124D01*
D02*
G37*
G36*
Y392062D02*
X259169D01*
Y392969D01*
X262319D01*
Y392062D01*
D02*
G37*
G36*
X245956Y394099D02*
Y392900D01*
X245399Y392344D01*
X244504D01*
Y394656D01*
X245399D01*
X245956Y394099D01*
D02*
G37*
G36*
X249056D02*
Y392900D01*
X248499Y392344D01*
X247301D01*
X246744Y392900D01*
Y394099D01*
X247301Y394656D01*
X248499D01*
X249056Y394099D01*
D02*
G37*
G36*
X242831Y392062D02*
X239681D01*
Y392969D01*
X242831D01*
Y392062D01*
D02*
G37*
G36*
X257496Y389244D02*
X256600D01*
X256044Y389801D01*
Y391000D01*
X256600Y391556D01*
X257496D01*
Y389244D01*
D02*
G37*
G36*
X242831Y390093D02*
X239681D01*
Y391000D01*
X242831D01*
Y390093D01*
D02*
G37*
G36*
X262319D02*
X259169D01*
Y391000D01*
X262319D01*
Y390093D01*
D02*
G37*
G36*
X252437Y382181D02*
X251531D01*
Y385331D01*
X252437D01*
Y382181D01*
D02*
G37*
G36*
X254406D02*
X253500D01*
Y385331D01*
X254406D01*
Y382181D01*
D02*
G37*
G36*
X256374D02*
X255468D01*
Y385331D01*
X256374D01*
Y382181D01*
D02*
G37*
G36*
X250469D02*
X249563D01*
Y385331D01*
X250469D01*
Y382181D01*
D02*
G37*
G36*
X244563D02*
X243657D01*
Y385331D01*
X244563D01*
Y382181D01*
D02*
G37*
G36*
X246532D02*
X245626D01*
Y385331D01*
X246532D01*
Y382181D01*
D02*
G37*
G36*
X248500D02*
X247594D01*
Y385331D01*
X248500D01*
Y382181D01*
D02*
G37*
G36*
X249056Y387899D02*
Y387004D01*
X246744D01*
Y387899D01*
X247301Y388456D01*
X248499D01*
X249056Y387899D01*
D02*
G37*
G36*
X252156D02*
Y387004D01*
X249844D01*
Y387899D01*
X250400Y388456D01*
X251600D01*
X252156Y387899D01*
D02*
G37*
G36*
X255256D02*
Y387004D01*
X252944D01*
Y387899D01*
X253501Y388456D01*
X254699D01*
X255256Y387899D01*
D02*
G37*
G36*
X245956D02*
Y387004D01*
X244504D01*
Y388456D01*
X245399D01*
X245956Y387899D01*
D02*
G37*
G36*
X258343Y382181D02*
X257437D01*
Y385331D01*
X258343D01*
Y382181D01*
D02*
G37*
G36*
X242831Y386155D02*
X239681D01*
Y387062D01*
X242831D01*
Y386155D01*
D02*
G37*
G36*
X262319D02*
X259169D01*
Y387062D01*
X262319D01*
Y386155D01*
D02*
G37*
G36*
X252156Y394099D02*
Y392900D01*
X251600Y392344D01*
X250400D01*
X249844Y392900D01*
Y394099D01*
X250400Y394656D01*
X251600D01*
X252156Y394099D01*
D02*
G37*
G36*
X242831Y399938D02*
X239681D01*
Y400845D01*
X242831D01*
Y399938D01*
D02*
G37*
G36*
X262319D02*
X259169D01*
Y400845D01*
X262319D01*
Y399938D01*
D02*
G37*
G36*
X244563Y401669D02*
X243657D01*
Y404819D01*
X244563D01*
Y401669D01*
D02*
G37*
G36*
X257496Y398544D02*
X256600D01*
X256044Y399100D01*
Y399996D01*
X257496D01*
Y398544D01*
D02*
G37*
G36*
X249056Y399100D02*
X248499Y398544D01*
X247301D01*
X246744Y399100D01*
Y399996D01*
X249056D01*
Y399100D01*
D02*
G37*
G36*
X252156D02*
X251600Y398544D01*
X250400D01*
X249844Y399100D01*
Y399996D01*
X252156D01*
Y399100D01*
D02*
G37*
G36*
X255256D02*
X254699Y398544D01*
X253501D01*
X252944Y399100D01*
Y399996D01*
X255256D01*
Y399100D01*
D02*
G37*
G36*
X254406Y401669D02*
X253500D01*
Y404819D01*
X254406D01*
Y401669D01*
D02*
G37*
G36*
X256374D02*
X255468D01*
Y404819D01*
X256374D01*
Y401669D01*
D02*
G37*
G36*
X258343D02*
X257437D01*
Y404819D01*
X258343D01*
Y401669D01*
D02*
G37*
G36*
X252437D02*
X251531D01*
Y404819D01*
X252437D01*
Y401669D01*
D02*
G37*
G36*
X246532D02*
X245626D01*
Y404819D01*
X246532D01*
Y401669D01*
D02*
G37*
G36*
X248500D02*
X247594D01*
Y404819D01*
X248500D01*
Y401669D01*
D02*
G37*
G36*
X250469D02*
X249563D01*
Y404819D01*
X250469D01*
Y401669D01*
D02*
G37*
G36*
X245956Y397200D02*
Y396001D01*
X245399Y395444D01*
X244504D01*
Y397756D01*
X245399D01*
X245956Y397200D01*
D02*
G37*
G36*
X249056D02*
Y396001D01*
X248499Y395444D01*
X247301D01*
X246744Y396001D01*
Y397200D01*
X247301Y397756D01*
X248499D01*
X249056Y397200D01*
D02*
G37*
G36*
X252156D02*
Y396001D01*
X251600Y395444D01*
X250400D01*
X249844Y396001D01*
Y397200D01*
X250400Y397756D01*
X251600D01*
X252156Y397200D01*
D02*
G37*
G36*
X262319Y394031D02*
X259169D01*
Y394938D01*
X262319D01*
Y394031D01*
D02*
G37*
G36*
X255256Y394099D02*
Y392900D01*
X254699Y392344D01*
X253501D01*
X252944Y392900D01*
Y394099D01*
X253501Y394656D01*
X254699D01*
X255256Y394099D01*
D02*
G37*
G36*
X257496Y392344D02*
X256600D01*
X256044Y392900D01*
Y394099D01*
X256600Y394656D01*
X257496D01*
Y392344D01*
D02*
G37*
G36*
X242831Y394031D02*
X239681D01*
Y394938D01*
X242831D01*
Y394031D01*
D02*
G37*
G36*
Y397969D02*
X239681D01*
Y398876D01*
X242831D01*
Y397969D01*
D02*
G37*
G36*
X262319D02*
X259169D01*
Y398876D01*
X262319D01*
Y397969D01*
D02*
G37*
G36*
X245956Y399100D02*
X245399Y398544D01*
X244504D01*
Y399996D01*
X245956D01*
Y399100D01*
D02*
G37*
G36*
X262319Y396000D02*
X259169D01*
Y396907D01*
X262319D01*
Y396000D01*
D02*
G37*
G36*
X255256Y397200D02*
Y396001D01*
X254699Y395444D01*
X253501D01*
X252944Y396001D01*
Y397200D01*
X253501Y397756D01*
X254699D01*
X255256Y397200D01*
D02*
G37*
G36*
X257496Y395444D02*
X256600D01*
X256044Y396001D01*
Y397200D01*
X256600Y397756D01*
X257496D01*
Y395444D01*
D02*
G37*
G36*
X242831Y396000D02*
X239681D01*
Y396907D01*
X242831D01*
Y396000D01*
D02*
G37*
D10*
X388878Y384177D02*
D03*
X390846D02*
D03*
X392815D02*
D03*
X394783D02*
D03*
X396752D02*
D03*
X398721D02*
D03*
X400689D02*
D03*
X402658D02*
D03*
X404626D02*
D03*
X406595D02*
D03*
X408563D02*
D03*
X410532D02*
D03*
X412500D02*
D03*
X414468D02*
D03*
X416437D02*
D03*
X418405D02*
D03*
X420374D02*
D03*
X422342D02*
D03*
X424311D02*
D03*
X426279D02*
D03*
X428248D02*
D03*
X430217D02*
D03*
X432185D02*
D03*
X434154D02*
D03*
X436122D02*
D03*
Y443823D02*
D03*
X434154D02*
D03*
X432185D02*
D03*
X430217D02*
D03*
X428248D02*
D03*
X426279D02*
D03*
X424311D02*
D03*
X422342D02*
D03*
X420374D02*
D03*
X418405D02*
D03*
X416437D02*
D03*
X414468D02*
D03*
X412500D02*
D03*
X410532D02*
D03*
X408563D02*
D03*
X406595D02*
D03*
X404626D02*
D03*
X402658D02*
D03*
X400689D02*
D03*
X398721D02*
D03*
X396752D02*
D03*
X394783D02*
D03*
X392815D02*
D03*
X390846D02*
D03*
X388878D02*
D03*
X196122Y171677D02*
D03*
X194153D02*
D03*
X192185D02*
D03*
X190217D02*
D03*
X188248D02*
D03*
X186279D02*
D03*
X184311D02*
D03*
X182343D02*
D03*
X180374D02*
D03*
X178405D02*
D03*
X176437D02*
D03*
X174469D02*
D03*
X172500D02*
D03*
X170531D02*
D03*
X168563D02*
D03*
X166595D02*
D03*
X164626D02*
D03*
X162657D02*
D03*
X160689D02*
D03*
X158721D02*
D03*
X156752D02*
D03*
X154783D02*
D03*
X152815D02*
D03*
X150847D02*
D03*
X148878D02*
D03*
Y231323D02*
D03*
X150847D02*
D03*
X152815D02*
D03*
X154783D02*
D03*
X156752D02*
D03*
X158721D02*
D03*
X160689D02*
D03*
X162657D02*
D03*
X164626D02*
D03*
X166595D02*
D03*
X168563D02*
D03*
X170531D02*
D03*
X172500D02*
D03*
X174469D02*
D03*
X176437D02*
D03*
X178405D02*
D03*
X180374D02*
D03*
X182343D02*
D03*
X184311D02*
D03*
X186279D02*
D03*
X188248D02*
D03*
X190217D02*
D03*
X192185D02*
D03*
X194153D02*
D03*
X196122D02*
D03*
D11*
X442323Y390378D02*
D03*
Y392347D02*
D03*
Y394315D02*
D03*
Y396284D02*
D03*
Y398252D02*
D03*
Y400220D02*
D03*
Y402189D02*
D03*
Y404157D02*
D03*
Y406126D02*
D03*
Y408095D02*
D03*
Y410063D02*
D03*
Y412032D02*
D03*
Y414000D02*
D03*
Y415969D02*
D03*
Y417937D02*
D03*
Y419906D02*
D03*
Y421874D02*
D03*
Y423842D02*
D03*
Y425811D02*
D03*
Y427779D02*
D03*
Y429748D02*
D03*
Y431716D02*
D03*
Y433685D02*
D03*
Y435653D02*
D03*
Y437622D02*
D03*
X382677D02*
D03*
Y435653D02*
D03*
Y433685D02*
D03*
Y431716D02*
D03*
Y429748D02*
D03*
Y427779D02*
D03*
Y425811D02*
D03*
Y423842D02*
D03*
Y421874D02*
D03*
Y419906D02*
D03*
Y417937D02*
D03*
Y415969D02*
D03*
Y414000D02*
D03*
Y412032D02*
D03*
Y410063D02*
D03*
Y408095D02*
D03*
Y406126D02*
D03*
Y404157D02*
D03*
Y402189D02*
D03*
Y400220D02*
D03*
Y398252D02*
D03*
Y396284D02*
D03*
Y394315D02*
D03*
Y392347D02*
D03*
Y390378D02*
D03*
X202323Y225122D02*
D03*
Y223153D02*
D03*
Y221185D02*
D03*
Y219216D02*
D03*
Y217248D02*
D03*
Y215280D02*
D03*
Y213311D02*
D03*
Y211343D02*
D03*
Y209374D02*
D03*
Y207405D02*
D03*
Y205437D02*
D03*
Y203468D02*
D03*
Y201500D02*
D03*
Y199531D02*
D03*
Y197563D02*
D03*
Y195595D02*
D03*
Y193626D02*
D03*
Y191657D02*
D03*
Y189689D02*
D03*
Y187721D02*
D03*
Y185752D02*
D03*
Y183783D02*
D03*
Y181815D02*
D03*
Y179847D02*
D03*
Y177878D02*
D03*
X142677D02*
D03*
Y179847D02*
D03*
Y181815D02*
D03*
Y183783D02*
D03*
Y185752D02*
D03*
Y187721D02*
D03*
Y189689D02*
D03*
Y191657D02*
D03*
Y193626D02*
D03*
Y195595D02*
D03*
Y197563D02*
D03*
Y199531D02*
D03*
Y201500D02*
D03*
Y203468D02*
D03*
Y205437D02*
D03*
Y207405D02*
D03*
Y209374D02*
D03*
Y211343D02*
D03*
Y213311D02*
D03*
Y215280D02*
D03*
Y217248D02*
D03*
Y219216D02*
D03*
Y221185D02*
D03*
Y223153D02*
D03*
Y225122D02*
D03*
D12*
X362000Y425953D02*
D03*
Y420047D02*
D03*
X478500Y405453D02*
D03*
Y399547D02*
D03*
X462500Y399547D02*
D03*
Y405453D02*
D03*
X153000Y252547D02*
D03*
Y258453D02*
D03*
X140000D02*
D03*
Y252547D02*
D03*
X222500Y199953D02*
D03*
Y194047D02*
D03*
D13*
X466453Y454000D02*
D03*
X460547D02*
D03*
X279547Y382500D02*
D03*
X285453D02*
D03*
X279547Y396500D02*
D03*
X285453D02*
D03*
X239047Y421811D02*
D03*
X244953D02*
D03*
X264953Y421500D02*
D03*
X259047D02*
D03*
X279547Y421000D02*
D03*
X285453D02*
D03*
X279547Y409200D02*
D03*
X285453D02*
D03*
X396953Y360500D02*
D03*
X391047D02*
D03*
X432547Y360500D02*
D03*
X438453D02*
D03*
X193000Y153500D02*
D03*
X187094D02*
D03*
X125205Y170500D02*
D03*
X119299D02*
D03*
X186000Y253000D02*
D03*
X191905D02*
D03*
D14*
X463500Y424185D02*
D03*
Y434815D02*
D03*
X121500Y187685D02*
D03*
Y198315D02*
D03*
D15*
X258315Y454000D02*
D03*
X247685D02*
D03*
X208815D02*
D03*
X198185D02*
D03*
X184315D02*
D03*
X173685D02*
D03*
X223185Y454000D02*
D03*
X233815D02*
D03*
D16*
X418012Y360000D02*
D03*
X410925D02*
D03*
X168957Y252500D02*
D03*
X176043D02*
D03*
D48*
X251000Y393500D02*
D03*
M02*
