M48
;Layer_Color=9474304
;FILE_FORMAT=2:5
INCH,LZ
;TYPE=PLATED
T1F00S00C0.01500
T2F00S00C0.02500
T3F00S00C0.02756
T4F00S00C0.02800
T5F00S00C0.03000
T6F00S00C0.03346
T7F00S00C0.03543
T8F00S00C0.03940
T9F00S00C0.04331
T10F00S00C0.06650
T11F00S00C0.07874
%
T01
X015Y01405
X01575Y01545
X0339Y02015
X028Y02625
X0231Y0227
X0226Y02205
X0211Y01995
X02225Y0186
X02285Y01565
X0188Y0163
X0181Y0161
X0166595Y016
X0176969Y02435
X0182343Y02445
X01895Y0241
X01925Y02465
X0176Y026
X0152815Y0241
X0153Y01595
X01975Y03465
X0188Y03765
X0219Y03885
X023Y03955
X0228Y0403
X024411Y041011
X02532Y04095
X02645Y0415
X0266Y04005
X02725Y04035
Y03825
X0262Y03785
X02525Y03725
X02445
X0251Y03935
X0271Y03655
X02645Y0352
X0257862Y0437
X0223Y0445
X01755Y0424
X02855Y0454
X03595Y0443
X0368923Y0422
X037485Y0420047
X0375Y04265
X0371Y0407
X0366685Y0403
X03625Y04135
X03385Y04165
X03315Y041
X03325Y037
X03245Y03615
X03705Y037
X0398Y0368
X04135Y0374
X0426Y036928
X0438Y03675
X04505Y0403
X0453406Y0408095
X0419Y0453
X0412778Y0458778
X04005Y04565
X04025Y04515
X03955Y04495
X0392815Y0457315
X03885Y0349
X03785Y0469
T02
X0313925Y0151886
X0321799
X0329673
X0337547
X0345421
X0353295
X0361169
X0369043
X0376917
X0384791
Y02385
X0376917
X0369043
X0361169
X0353295
X0345421
X0337547
X0329673
X0321799
X0313925
T03
X02615Y0265
Y0285
X01425Y0336701
Y0343
Y0349299
X0137776Y034615
Y033985
X0164Y03585
X0184
X01935Y0403
X02135
Y04305
X01935
T04
X0228Y04215
X02325Y04395
T05
X01695Y0482
Y0502
X01995
Y0482
X02245
Y0502
X02545
Y0482
X02795
Y0502
X03095
Y0482
X01445
Y0502
X01145
Y0482
T06
X02615Y0147
X0379Y0168
Y0218
X02615Y02235
Y01935
Y0177
T07
X013Y0115
Y0125
X014
X015
Y0115
X014
X016
Y0125
X017
X018
X019
X02
X021
X022
Y0115
X021
X02
X019
X018
X017
X02585
Y0125
X03425Y0128
Y0118
X03645Y0122
X03695
X03745
X03785Y0259
X03685
X03585
X03485
Y0289
X03585
X03685
X03785
X0319Y02905
Y02805
X0309
Y02905
X0299
Y02805
X0289
Y02905
X022Y0295
X021
X02
X019
X018
X017
X016
Y0285
X017
X018
X019
X02
X021
X022
X015
Y0295
X014
X013
Y0285
X014
X02685Y03255
X02785
X02885
X02985
Y03355
X02885
X02785
X02685
X03725Y03375
X03825
X03925
X04025
X04125
X04225
X04325
X04425
X04525
X04625
Y03275
X04525
X04425
X04325
X04225
X04125
X04025
X03925
X03825
X03725
Y04975
Y05075
X03825
X03925
X04025
X04125
X04225
X04325
X04425
X04525
X04625
Y04975
X04525
X04425
X04325
X04225
X04125
X04025
X03925
X03825
T08
X0295Y01205
X0305
X0315
X02335Y033
X02235
X02135
X01875
X01775
X01675
X0213Y0361
X0223
X0233
T09
X01135Y0382
Y0402
T10
X01125Y0439
X01221Y04467
X01355Y0439
X01439Y04467
X01585Y0439
T11
X0122618Y032863
Y035737
M30
