G04 Layer_Color=16711935*
%FSLAX25Y25*%
%MOIN*%
G70*
G01*
G75*
%ADD59C,0.11450*%
%ADD60C,0.05524*%
%ADD61C,0.06706*%
%ADD62R,0.06706X0.06706*%
G04:AMPARAMS|DCode=63|XSize=114.3mil|YSize=114.3mil|CornerRadius=30.58mil|HoleSize=0mil|Usage=FLASHONLY|Rotation=90.000|XOffset=0mil|YOffset=0mil|HoleType=Round|Shape=RoundedRectangle|*
%AMROUNDEDRECTD63*
21,1,0.11430,0.05315,0,0,90.0*
21,1,0.05315,0.11430,0,0,90.0*
1,1,0.06115,0.02658,0.02658*
1,1,0.06115,0.02658,-0.02658*
1,1,0.06115,-0.02658,-0.02658*
1,1,0.06115,-0.02658,0.02658*
%
%ADD63ROUNDEDRECTD63*%
G04:AMPARAMS|DCode=64|XSize=47.37mil|YSize=47.37mil|CornerRadius=13.84mil|HoleSize=0mil|Usage=FLASHONLY|Rotation=90.000|XOffset=0mil|YOffset=0mil|HoleType=Round|Shape=RoundedRectangle|*
%AMROUNDEDRECTD64*
21,1,0.04737,0.01969,0,0,90.0*
21,1,0.01969,0.04737,0,0,90.0*
1,1,0.02769,0.00984,0.00984*
1,1,0.02769,0.00984,-0.00984*
1,1,0.02769,-0.00984,-0.00984*
1,1,0.02769,-0.00984,0.00984*
%
%ADD64ROUNDEDRECTD64*%
%ADD65R,0.07300X0.07300*%
%ADD66C,0.07300*%
%ADD67C,0.07000*%
%ADD68O,0.10800X0.06800*%
%ADD69R,0.10800X0.06800*%
%ADD70C,0.08083*%
%ADD71R,0.08083X0.08083*%
%ADD72C,0.05800*%
%ADD73C,0.03800*%
%ADD74C,0.06312*%
%ADD75R,0.06706X0.06706*%
%ADD76O,0.04737X0.08674*%
%ADD77O,0.04737X0.08674*%
%ADD78C,0.04800*%
G04:AMPARAMS|DCode=79|XSize=48mil|YSize=48mil|CornerRadius=14mil|HoleSize=0mil|Usage=FLASHONLY|Rotation=270.000|XOffset=0mil|YOffset=0mil|HoleType=Round|Shape=RoundedRectangle|*
%AMROUNDEDRECTD79*
21,1,0.04800,0.02000,0,0,270.0*
21,1,0.02000,0.04800,0,0,270.0*
1,1,0.02800,-0.01000,-0.01000*
1,1,0.02800,-0.01000,0.01000*
1,1,0.02800,0.01000,0.01000*
1,1,0.02800,0.01000,-0.01000*
%
%ADD79ROUNDEDRECTD79*%
D59*
X143900Y446700D02*
D03*
X122100D02*
D03*
X135500Y439000D02*
D03*
X158500D02*
D03*
X112500D02*
D03*
D60*
X164000Y358500D02*
D03*
X184000D02*
D03*
X213500Y430500D02*
D03*
X193500D02*
D03*
X213500Y403000D02*
D03*
X193500D02*
D03*
X261500Y265000D02*
D03*
Y285000D02*
D03*
D61*
X298500Y335500D02*
D03*
Y325500D02*
D03*
X288500Y335500D02*
D03*
Y325500D02*
D03*
X278500Y335500D02*
D03*
Y325500D02*
D03*
X268500Y335500D02*
D03*
X462500Y507500D02*
D03*
X452500D02*
D03*
X442500D02*
D03*
X432500D02*
D03*
X422500D02*
D03*
X412500D02*
D03*
X402500D02*
D03*
X392500D02*
D03*
X382500D02*
D03*
X372500D02*
D03*
X462500Y497500D02*
D03*
X452500D02*
D03*
X442500D02*
D03*
X432500D02*
D03*
X422500D02*
D03*
X412500D02*
D03*
X402500D02*
D03*
X392500D02*
D03*
X382500D02*
D03*
X462500Y337500D02*
D03*
X452500D02*
D03*
X442500D02*
D03*
X432500D02*
D03*
X422500D02*
D03*
X412500D02*
D03*
X402500D02*
D03*
X392500D02*
D03*
X382500D02*
D03*
X372500D02*
D03*
X462500Y327500D02*
D03*
X452500D02*
D03*
X442500D02*
D03*
X432500D02*
D03*
X422500D02*
D03*
X412500D02*
D03*
X402500D02*
D03*
X392500D02*
D03*
X382500D02*
D03*
X210000Y295000D02*
D03*
X200000D02*
D03*
X190000D02*
D03*
X180000D02*
D03*
X170000D02*
D03*
X160000D02*
D03*
X150000D02*
D03*
X140000D02*
D03*
X130000D02*
D03*
X220000Y285000D02*
D03*
X210000D02*
D03*
X200000D02*
D03*
X190000D02*
D03*
X180000D02*
D03*
X170000D02*
D03*
X160000D02*
D03*
X150000D02*
D03*
X140000D02*
D03*
X130000D02*
D03*
X342500Y128000D02*
D03*
X348500Y259000D02*
D03*
X358500D02*
D03*
X368500D02*
D03*
X378500D02*
D03*
X348500Y289000D02*
D03*
X358500D02*
D03*
X368500D02*
D03*
X258500Y125000D02*
D03*
X210000D02*
D03*
X200000D02*
D03*
X190000D02*
D03*
X180000D02*
D03*
X170000D02*
D03*
X160000D02*
D03*
X150000D02*
D03*
X140000D02*
D03*
X130000D02*
D03*
X220000Y115000D02*
D03*
X210000D02*
D03*
X200000D02*
D03*
X190000D02*
D03*
X180000D02*
D03*
X170000D02*
D03*
X160000D02*
D03*
X150000D02*
D03*
X140000D02*
D03*
X130000D02*
D03*
X319000Y280500D02*
D03*
X309000Y290500D02*
D03*
Y280500D02*
D03*
X299000Y290500D02*
D03*
Y280500D02*
D03*
X289000Y290500D02*
D03*
Y280500D02*
D03*
D62*
X268500Y325500D02*
D03*
X372500Y497500D02*
D03*
Y327500D02*
D03*
X220000Y295000D02*
D03*
Y125000D02*
D03*
X319000Y290500D02*
D03*
D63*
X122618Y357370D02*
D03*
Y328630D02*
D03*
D64*
X137776Y346150D02*
D03*
Y339850D02*
D03*
X142500Y336701D02*
D03*
Y349299D02*
D03*
Y343000D02*
D03*
D65*
X187500Y330000D02*
D03*
X233000Y361000D02*
D03*
X233500Y330000D02*
D03*
X295000Y120500D02*
D03*
D66*
X177500Y330000D02*
D03*
X223000Y361000D02*
D03*
X223500Y330000D02*
D03*
X305000Y120500D02*
D03*
D67*
X167500Y330000D02*
D03*
X213000Y361000D02*
D03*
X213500Y330000D02*
D03*
X315000Y120500D02*
D03*
D68*
X279500Y482000D02*
D03*
X309500D02*
D03*
Y502000D02*
D03*
X224500Y482000D02*
D03*
X254500D02*
D03*
Y502000D02*
D03*
X169500Y482000D02*
D03*
X199500D02*
D03*
Y502000D02*
D03*
X114500Y482000D02*
D03*
X144500D02*
D03*
Y502000D02*
D03*
D69*
X279500D02*
D03*
X224500D02*
D03*
X169500D02*
D03*
X114500D02*
D03*
D70*
X113500Y402000D02*
D03*
D71*
Y382000D02*
D03*
D72*
X232500Y439500D02*
D03*
X228000Y421500D02*
D03*
D73*
Y403000D02*
D03*
X264500Y415000D02*
D03*
X253200Y409500D02*
D03*
X272500Y382500D02*
D03*
X362500Y413500D02*
D03*
X230000Y395500D02*
D03*
X266000Y400500D02*
D03*
X244110Y410110D02*
D03*
X272500Y403500D02*
D03*
X219000Y388500D02*
D03*
X188000Y376500D02*
D03*
X197500Y346500D02*
D03*
X453406Y408095D02*
D03*
X450500Y403000D02*
D03*
X413500Y374000D02*
D03*
X398000Y368000D02*
D03*
X426000Y369280D02*
D03*
X438000Y367500D02*
D03*
X388500Y349000D02*
D03*
X402500Y451500D02*
D03*
X324500Y361500D02*
D03*
X359500Y443000D02*
D03*
X271000Y365500D02*
D03*
X264500Y352000D02*
D03*
X252500Y372500D02*
D03*
X244500D02*
D03*
X262000Y378500D02*
D03*
X368923Y422000D02*
D03*
X332500Y370000D02*
D03*
X370500D02*
D03*
X412778Y458778D02*
D03*
X419000Y453000D02*
D03*
X338500Y416500D02*
D03*
X285500Y454000D02*
D03*
X366685Y403000D02*
D03*
X371000Y407000D02*
D03*
X331500Y410000D02*
D03*
X223000Y445000D02*
D03*
X378500Y469000D02*
D03*
X400500Y456500D02*
D03*
X392815Y457315D02*
D03*
X257862Y437000D02*
D03*
X175500Y424000D02*
D03*
X395500Y449500D02*
D03*
X374850Y420047D02*
D03*
X375000Y426500D02*
D03*
X251000Y393500D02*
D03*
X192500Y246500D02*
D03*
X188000Y163000D02*
D03*
X181000Y161000D02*
D03*
X176969Y243500D02*
D03*
X176000Y260000D02*
D03*
X189500Y241000D02*
D03*
X182343Y244500D02*
D03*
X152815Y241000D02*
D03*
X153000Y159500D02*
D03*
X157500Y154500D02*
D03*
X166595Y160000D02*
D03*
X150000Y140500D02*
D03*
X280000Y262500D02*
D03*
X222500Y186000D02*
D03*
X226000Y220500D02*
D03*
X211000Y199500D02*
D03*
X231000Y227000D02*
D03*
X339000Y201500D02*
D03*
X228500Y156500D02*
D03*
D74*
X261500Y223500D02*
D03*
Y193500D02*
D03*
Y147000D02*
D03*
Y177000D02*
D03*
X379000Y168000D02*
D03*
Y218000D02*
D03*
D75*
X342500Y118000D02*
D03*
X378500Y289000D02*
D03*
X258500Y115000D02*
D03*
D76*
X374500Y122000D02*
D03*
X364500D02*
D03*
D77*
X369500D02*
D03*
D78*
X384791Y151886D02*
D03*
X376917D02*
D03*
X369043D02*
D03*
X361169D02*
D03*
X353295D02*
D03*
X345421D02*
D03*
X337547D02*
D03*
X329673D02*
D03*
X321799D02*
D03*
X313925D02*
D03*
Y238500D02*
D03*
X321799D02*
D03*
X329673D02*
D03*
X337547D02*
D03*
X345421D02*
D03*
X353295D02*
D03*
X361169D02*
D03*
X369043D02*
D03*
X376917D02*
D03*
D79*
X384791D02*
D03*
M02*
