G04 Layer_Color=8388736*
%FSLAX25Y25*%
%MOIN*%
G70*
G01*
G75*
%ADD49O,0.01581X0.07290*%
%ADD50O,0.07290X0.01581*%
%ADD51R,0.06312X0.05131*%
%ADD52R,0.05131X0.06312*%
%ADD53R,0.11036X0.05131*%
%ADD54R,0.05131X0.11036*%
%ADD55R,0.05524X0.06312*%
%ADD56R,0.01902X0.04147*%
%ADD57R,0.04147X0.01902*%
%ADD58R,0.00083X0.00083*%
%ADD59C,0.11450*%
%ADD60C,0.05524*%
%ADD61C,0.06706*%
%ADD62R,0.06706X0.06706*%
G04:AMPARAMS|DCode=63|XSize=114.3mil|YSize=114.3mil|CornerRadius=30.58mil|HoleSize=0mil|Usage=FLASHONLY|Rotation=90.000|XOffset=0mil|YOffset=0mil|HoleType=Round|Shape=RoundedRectangle|*
%AMROUNDEDRECTD63*
21,1,0.11430,0.05315,0,0,90.0*
21,1,0.05315,0.11430,0,0,90.0*
1,1,0.06115,0.02658,0.02658*
1,1,0.06115,0.02658,-0.02658*
1,1,0.06115,-0.02658,-0.02658*
1,1,0.06115,-0.02658,0.02658*
%
%ADD63ROUNDEDRECTD63*%
G04:AMPARAMS|DCode=64|XSize=47.37mil|YSize=47.37mil|CornerRadius=13.84mil|HoleSize=0mil|Usage=FLASHONLY|Rotation=90.000|XOffset=0mil|YOffset=0mil|HoleType=Round|Shape=RoundedRectangle|*
%AMROUNDEDRECTD64*
21,1,0.04737,0.01969,0,0,90.0*
21,1,0.01969,0.04737,0,0,90.0*
1,1,0.02769,0.00984,0.00984*
1,1,0.02769,0.00984,-0.00984*
1,1,0.02769,-0.00984,-0.00984*
1,1,0.02769,-0.00984,0.00984*
%
%ADD64ROUNDEDRECTD64*%
%ADD65R,0.07300X0.07300*%
%ADD66C,0.07300*%
%ADD67C,0.07000*%
%ADD68O,0.10800X0.06800*%
%ADD69R,0.10800X0.06800*%
%ADD70C,0.08083*%
%ADD71R,0.08083X0.08083*%
%ADD72C,0.05800*%
%ADD73C,0.03800*%
%ADD74C,0.06312*%
%ADD75R,0.06706X0.06706*%
%ADD76O,0.04737X0.08674*%
%ADD77O,0.04737X0.08674*%
%ADD78C,0.04800*%
G04:AMPARAMS|DCode=79|XSize=48mil|YSize=48mil|CornerRadius=14mil|HoleSize=0mil|Usage=FLASHONLY|Rotation=270.000|XOffset=0mil|YOffset=0mil|HoleType=Round|Shape=RoundedRectangle|*
%AMROUNDEDRECTD79*
21,1,0.04800,0.02000,0,0,270.0*
21,1,0.02000,0.04800,0,0,270.0*
1,1,0.02800,-0.01000,-0.01000*
1,1,0.02800,-0.01000,0.01000*
1,1,0.02800,0.01000,0.01000*
1,1,0.02800,0.01000,-0.01000*
%
%ADD79ROUNDEDRECTD79*%
G36*
X262691Y387752D02*
X258797D01*
Y389403D01*
X262691D01*
Y387752D01*
D02*
G37*
G36*
X243203Y389721D02*
X239309D01*
Y391372D01*
X243203D01*
Y389721D01*
D02*
G37*
G36*
X258041Y398937D02*
Y397363D01*
Y395837D01*
Y394263D01*
Y392737D01*
Y391163D01*
Y389637D01*
Y388063D01*
Y386459D01*
X243959D01*
Y388063D01*
Y389637D01*
Y391163D01*
Y392737D01*
Y394263D01*
Y395837D01*
Y397363D01*
Y398937D01*
Y400541D01*
X258041D01*
Y398937D01*
D02*
G37*
G36*
X243203Y387752D02*
X239309D01*
Y389403D01*
X243203D01*
Y387752D01*
D02*
G37*
G36*
X262691Y389721D02*
X258797D01*
Y391372D01*
X262691D01*
Y389721D01*
D02*
G37*
G36*
X243203Y393659D02*
X239309D01*
Y395310D01*
X243203D01*
Y393659D01*
D02*
G37*
G36*
X262691D02*
X258797D01*
Y395310D01*
X262691D01*
Y393659D01*
D02*
G37*
G36*
X243203Y391690D02*
X239309D01*
Y393341D01*
X243203D01*
Y391690D01*
D02*
G37*
G36*
X262691D02*
X258797D01*
Y393341D01*
X262691D01*
Y391690D01*
D02*
G37*
G36*
Y385783D02*
X258797D01*
Y387434D01*
X262691D01*
Y385783D01*
D02*
G37*
G36*
X248872Y381809D02*
X247222D01*
Y385703D01*
X248872D01*
Y381809D01*
D02*
G37*
G36*
X250841D02*
X249191D01*
Y385703D01*
X250841D01*
Y381809D01*
D02*
G37*
G36*
X244935D02*
X243285D01*
Y385703D01*
X244935D01*
Y381809D01*
D02*
G37*
G36*
X246904D02*
X245254D01*
Y385703D01*
X246904D01*
Y381809D01*
D02*
G37*
G36*
X252809D02*
X251159D01*
Y385703D01*
X252809D01*
Y381809D01*
D02*
G37*
G36*
X258715D02*
X257065D01*
Y385703D01*
X258715D01*
Y381809D01*
D02*
G37*
G36*
X243203Y385783D02*
X239309D01*
Y387434D01*
X243203D01*
Y385783D01*
D02*
G37*
G36*
X254778Y381809D02*
X253128D01*
Y385703D01*
X254778D01*
Y381809D01*
D02*
G37*
G36*
X256746D02*
X255096D01*
Y385703D01*
X256746D01*
Y381809D01*
D02*
G37*
G36*
X244935Y401297D02*
X243285D01*
Y405191D01*
X244935D01*
Y401297D01*
D02*
G37*
G36*
X246904D02*
X245254D01*
Y405191D01*
X246904D01*
Y401297D01*
D02*
G37*
G36*
X248872D02*
X247222D01*
Y405191D01*
X248872D01*
Y401297D01*
D02*
G37*
G36*
X262691Y399566D02*
X258797D01*
Y401217D01*
X262691D01*
Y399566D01*
D02*
G37*
G36*
X243203Y397597D02*
X239309D01*
Y399248D01*
X243203D01*
Y397597D01*
D02*
G37*
G36*
X262691D02*
X258797D01*
Y399248D01*
X262691D01*
Y397597D01*
D02*
G37*
G36*
X243203Y399566D02*
X239309D01*
Y401217D01*
X243203D01*
Y399566D01*
D02*
G37*
G36*
X254778Y401297D02*
X253128D01*
Y405191D01*
X254778D01*
Y401297D01*
D02*
G37*
G36*
X256746D02*
X255096D01*
Y405191D01*
X256746D01*
Y401297D01*
D02*
G37*
G36*
X258715D02*
X257065D01*
Y405191D01*
X258715D01*
Y401297D01*
D02*
G37*
G36*
X252809D02*
X251159D01*
Y405191D01*
X252809D01*
Y401297D01*
D02*
G37*
G36*
X250841D02*
X249191D01*
Y405191D01*
X250841D01*
Y401297D01*
D02*
G37*
G36*
X262691Y395628D02*
X258797D01*
Y397279D01*
X262691D01*
Y395628D01*
D02*
G37*
G36*
X243203D02*
X239309D01*
Y397279D01*
X243203D01*
Y395628D01*
D02*
G37*
%LPC*%
G36*
X247137Y389637D02*
X245563D01*
Y388063D01*
X247137D01*
Y389637D01*
D02*
G37*
G36*
X256437Y398937D02*
X254863D01*
Y397363D01*
X256437D01*
Y398937D01*
D02*
G37*
G36*
X247137D02*
X245563D01*
Y397363D01*
X247137D01*
Y398937D01*
D02*
G37*
G36*
X256437Y392737D02*
X254863D01*
Y391163D01*
X256437D01*
Y392737D01*
D02*
G37*
G36*
X253337D02*
X251763D01*
Y391163D01*
X253337D01*
Y392737D01*
D02*
G37*
G36*
X256437Y395837D02*
X254863D01*
Y394263D01*
X256437D01*
Y395837D01*
D02*
G37*
G36*
X253337D02*
X251763D01*
Y394263D01*
X253337D01*
Y395837D01*
D02*
G37*
G36*
X250237D02*
X248663D01*
Y394263D01*
X250237D01*
Y395837D01*
D02*
G37*
G36*
X247137D02*
X245563D01*
Y394263D01*
X247137D01*
Y395837D01*
D02*
G37*
G36*
X256437Y389637D02*
X254863D01*
Y388063D01*
X256437D01*
Y389637D01*
D02*
G37*
G36*
X253337D02*
X251763D01*
Y388063D01*
X253337D01*
Y389637D01*
D02*
G37*
G36*
X250237D02*
X248663D01*
Y388063D01*
X250237D01*
Y389637D01*
D02*
G37*
G36*
X253337Y398937D02*
X251763D01*
Y397363D01*
X253337D01*
Y398937D01*
D02*
G37*
G36*
X250237Y392737D02*
X248663D01*
Y391163D01*
X250237D01*
Y392737D01*
D02*
G37*
G36*
X247137D02*
X245563D01*
Y391163D01*
X247137D01*
Y392737D01*
D02*
G37*
G36*
X250237Y398937D02*
X248663D01*
Y397363D01*
X250237D01*
Y398937D01*
D02*
G37*
%LPD*%
D49*
X388878Y384177D02*
D03*
X390846D02*
D03*
X392815D02*
D03*
X394783D02*
D03*
X396752D02*
D03*
X398721D02*
D03*
X400689D02*
D03*
X402658D02*
D03*
X404626D02*
D03*
X406595D02*
D03*
X408563D02*
D03*
X410532D02*
D03*
X412500D02*
D03*
X414468D02*
D03*
X416437D02*
D03*
X418405D02*
D03*
X420374D02*
D03*
X422342D02*
D03*
X424311D02*
D03*
X426279D02*
D03*
X428248D02*
D03*
X430217D02*
D03*
X432185D02*
D03*
X434154D02*
D03*
X436122D02*
D03*
Y443823D02*
D03*
X434154D02*
D03*
X432185D02*
D03*
X430217D02*
D03*
X428248D02*
D03*
X426279D02*
D03*
X424311D02*
D03*
X422342D02*
D03*
X420374D02*
D03*
X418405D02*
D03*
X416437D02*
D03*
X414468D02*
D03*
X412500D02*
D03*
X410532D02*
D03*
X408563D02*
D03*
X406595D02*
D03*
X404626D02*
D03*
X402658D02*
D03*
X400689D02*
D03*
X398721D02*
D03*
X396752D02*
D03*
X394783D02*
D03*
X392815D02*
D03*
X390846D02*
D03*
X388878D02*
D03*
X196122Y171677D02*
D03*
X194153D02*
D03*
X192185D02*
D03*
X190217D02*
D03*
X188248D02*
D03*
X186279D02*
D03*
X184311D02*
D03*
X182343D02*
D03*
X180374D02*
D03*
X178405D02*
D03*
X176437D02*
D03*
X174469D02*
D03*
X172500D02*
D03*
X170531D02*
D03*
X168563D02*
D03*
X166595D02*
D03*
X164626D02*
D03*
X162657D02*
D03*
X160689D02*
D03*
X158721D02*
D03*
X156752D02*
D03*
X154783D02*
D03*
X152815D02*
D03*
X150847D02*
D03*
X148878D02*
D03*
Y231323D02*
D03*
X150847D02*
D03*
X152815D02*
D03*
X154783D02*
D03*
X156752D02*
D03*
X158721D02*
D03*
X160689D02*
D03*
X162657D02*
D03*
X164626D02*
D03*
X166595D02*
D03*
X168563D02*
D03*
X170531D02*
D03*
X172500D02*
D03*
X174469D02*
D03*
X176437D02*
D03*
X178405D02*
D03*
X180374D02*
D03*
X182343D02*
D03*
X184311D02*
D03*
X186279D02*
D03*
X188248D02*
D03*
X190217D02*
D03*
X192185D02*
D03*
X194153D02*
D03*
X196122D02*
D03*
D50*
X442323Y390378D02*
D03*
Y392347D02*
D03*
Y394315D02*
D03*
Y396284D02*
D03*
Y398252D02*
D03*
Y400220D02*
D03*
Y402189D02*
D03*
Y404157D02*
D03*
Y406126D02*
D03*
Y408095D02*
D03*
Y410063D02*
D03*
Y412032D02*
D03*
Y414000D02*
D03*
Y415969D02*
D03*
Y417937D02*
D03*
Y419906D02*
D03*
Y421874D02*
D03*
Y423842D02*
D03*
Y425811D02*
D03*
Y427779D02*
D03*
Y429748D02*
D03*
Y431716D02*
D03*
Y433685D02*
D03*
Y435653D02*
D03*
Y437622D02*
D03*
X382677D02*
D03*
Y435653D02*
D03*
Y433685D02*
D03*
Y431716D02*
D03*
Y429748D02*
D03*
Y427779D02*
D03*
Y425811D02*
D03*
Y423842D02*
D03*
Y421874D02*
D03*
Y419906D02*
D03*
Y417937D02*
D03*
Y415969D02*
D03*
Y414000D02*
D03*
Y412032D02*
D03*
Y410063D02*
D03*
Y408095D02*
D03*
Y406126D02*
D03*
Y404157D02*
D03*
Y402189D02*
D03*
Y400220D02*
D03*
Y398252D02*
D03*
Y396284D02*
D03*
Y394315D02*
D03*
Y392347D02*
D03*
Y390378D02*
D03*
X202323Y225122D02*
D03*
Y223153D02*
D03*
Y221185D02*
D03*
Y219216D02*
D03*
Y217248D02*
D03*
Y215280D02*
D03*
Y213311D02*
D03*
Y211343D02*
D03*
Y209374D02*
D03*
Y207405D02*
D03*
Y205437D02*
D03*
Y203468D02*
D03*
Y201500D02*
D03*
Y199531D02*
D03*
Y197563D02*
D03*
Y195595D02*
D03*
Y193626D02*
D03*
Y191657D02*
D03*
Y189689D02*
D03*
Y187721D02*
D03*
Y185752D02*
D03*
Y183783D02*
D03*
Y181815D02*
D03*
Y179847D02*
D03*
Y177878D02*
D03*
X142677D02*
D03*
Y179847D02*
D03*
Y181815D02*
D03*
Y183783D02*
D03*
Y185752D02*
D03*
Y187721D02*
D03*
Y189689D02*
D03*
Y191657D02*
D03*
Y193626D02*
D03*
Y195595D02*
D03*
Y197563D02*
D03*
Y199531D02*
D03*
Y201500D02*
D03*
Y203468D02*
D03*
Y205437D02*
D03*
Y207405D02*
D03*
Y209374D02*
D03*
Y211343D02*
D03*
Y213311D02*
D03*
Y215280D02*
D03*
Y217248D02*
D03*
Y219216D02*
D03*
Y221185D02*
D03*
Y223153D02*
D03*
Y225122D02*
D03*
D51*
X362000Y425953D02*
D03*
Y420047D02*
D03*
X478500Y405453D02*
D03*
Y399547D02*
D03*
X462500Y399547D02*
D03*
Y405453D02*
D03*
X153000Y252547D02*
D03*
Y258453D02*
D03*
X140000D02*
D03*
Y252547D02*
D03*
X222500Y199953D02*
D03*
Y194047D02*
D03*
D52*
X466453Y454000D02*
D03*
X460547D02*
D03*
X279547Y382500D02*
D03*
X285453D02*
D03*
X279547Y396500D02*
D03*
X285453D02*
D03*
X239047Y421811D02*
D03*
X244953D02*
D03*
X264953Y421500D02*
D03*
X259047D02*
D03*
X279547Y421000D02*
D03*
X285453D02*
D03*
X279547Y409200D02*
D03*
X285453D02*
D03*
X396953Y360500D02*
D03*
X391047D02*
D03*
X432547Y360500D02*
D03*
X438453D02*
D03*
X193000Y153500D02*
D03*
X187094D02*
D03*
X125205Y170500D02*
D03*
X119299D02*
D03*
X186000Y253000D02*
D03*
X191905D02*
D03*
D53*
X463500Y424185D02*
D03*
Y434815D02*
D03*
X121500Y187685D02*
D03*
Y198315D02*
D03*
D54*
X258315Y454000D02*
D03*
X247685D02*
D03*
X208815D02*
D03*
X198185D02*
D03*
X184315D02*
D03*
X173685D02*
D03*
X223185Y454000D02*
D03*
X233815D02*
D03*
D55*
X418012Y360000D02*
D03*
X410925D02*
D03*
X168957Y252500D02*
D03*
X176043D02*
D03*
D56*
X244110Y383756D02*
D03*
X246079D02*
D03*
X248047D02*
D03*
X250016D02*
D03*
X251984D02*
D03*
X253953D02*
D03*
X255921D02*
D03*
X257890D02*
D03*
Y403244D02*
D03*
X255921D02*
D03*
X253953D02*
D03*
X251984D02*
D03*
X250016D02*
D03*
X248047D02*
D03*
X246079D02*
D03*
X244110D02*
D03*
D57*
X260744Y386609D02*
D03*
Y388578D02*
D03*
Y390546D02*
D03*
Y392515D02*
D03*
Y394484D02*
D03*
Y396453D02*
D03*
Y398423D02*
D03*
Y400391D02*
D03*
X241256D02*
D03*
Y398423D02*
D03*
Y396453D02*
D03*
Y394484D02*
D03*
Y392515D02*
D03*
Y390546D02*
D03*
Y388578D02*
D03*
Y386609D02*
D03*
D58*
X251000Y393500D02*
D03*
D59*
X143900Y446700D02*
D03*
X122100D02*
D03*
X135500Y439000D02*
D03*
X158500D02*
D03*
X112500D02*
D03*
D60*
X164000Y358500D02*
D03*
X184000D02*
D03*
X213500Y430500D02*
D03*
X193500D02*
D03*
X213500Y403000D02*
D03*
X193500D02*
D03*
X261500Y265000D02*
D03*
Y285000D02*
D03*
D61*
X298500Y335500D02*
D03*
Y325500D02*
D03*
X288500Y335500D02*
D03*
Y325500D02*
D03*
X278500Y335500D02*
D03*
Y325500D02*
D03*
X268500Y335500D02*
D03*
X462500Y507500D02*
D03*
X452500D02*
D03*
X442500D02*
D03*
X432500D02*
D03*
X422500D02*
D03*
X412500D02*
D03*
X402500D02*
D03*
X392500D02*
D03*
X382500D02*
D03*
X372500D02*
D03*
X462500Y497500D02*
D03*
X452500D02*
D03*
X442500D02*
D03*
X432500D02*
D03*
X422500D02*
D03*
X412500D02*
D03*
X402500D02*
D03*
X392500D02*
D03*
X382500D02*
D03*
X462500Y337500D02*
D03*
X452500D02*
D03*
X442500D02*
D03*
X432500D02*
D03*
X422500D02*
D03*
X412500D02*
D03*
X402500D02*
D03*
X392500D02*
D03*
X382500D02*
D03*
X372500D02*
D03*
X462500Y327500D02*
D03*
X452500D02*
D03*
X442500D02*
D03*
X432500D02*
D03*
X422500D02*
D03*
X412500D02*
D03*
X402500D02*
D03*
X392500D02*
D03*
X382500D02*
D03*
X210000Y295000D02*
D03*
X200000D02*
D03*
X190000D02*
D03*
X180000D02*
D03*
X170000D02*
D03*
X160000D02*
D03*
X150000D02*
D03*
X140000D02*
D03*
X130000D02*
D03*
X220000Y285000D02*
D03*
X210000D02*
D03*
X200000D02*
D03*
X190000D02*
D03*
X180000D02*
D03*
X170000D02*
D03*
X160000D02*
D03*
X150000D02*
D03*
X140000D02*
D03*
X130000D02*
D03*
X342500Y128000D02*
D03*
X348500Y259000D02*
D03*
X358500D02*
D03*
X368500D02*
D03*
X378500D02*
D03*
X348500Y289000D02*
D03*
X358500D02*
D03*
X368500D02*
D03*
X258500Y125000D02*
D03*
X210000D02*
D03*
X200000D02*
D03*
X190000D02*
D03*
X180000D02*
D03*
X170000D02*
D03*
X160000D02*
D03*
X150000D02*
D03*
X140000D02*
D03*
X130000D02*
D03*
X220000Y115000D02*
D03*
X210000D02*
D03*
X200000D02*
D03*
X190000D02*
D03*
X180000D02*
D03*
X170000D02*
D03*
X160000D02*
D03*
X150000D02*
D03*
X140000D02*
D03*
X130000D02*
D03*
X319000Y280500D02*
D03*
X309000Y290500D02*
D03*
Y280500D02*
D03*
X299000Y290500D02*
D03*
Y280500D02*
D03*
X289000Y290500D02*
D03*
Y280500D02*
D03*
D62*
X268500Y325500D02*
D03*
X372500Y497500D02*
D03*
Y327500D02*
D03*
X220000Y295000D02*
D03*
Y125000D02*
D03*
X319000Y290500D02*
D03*
D63*
X122618Y357370D02*
D03*
Y328630D02*
D03*
D64*
X137776Y346150D02*
D03*
Y339850D02*
D03*
X142500Y336701D02*
D03*
Y349299D02*
D03*
Y343000D02*
D03*
D65*
X187500Y330000D02*
D03*
X233000Y361000D02*
D03*
X233500Y330000D02*
D03*
X295000Y120500D02*
D03*
D66*
X177500Y330000D02*
D03*
X223000Y361000D02*
D03*
X223500Y330000D02*
D03*
X305000Y120500D02*
D03*
D67*
X167500Y330000D02*
D03*
X213000Y361000D02*
D03*
X213500Y330000D02*
D03*
X315000Y120500D02*
D03*
D68*
X279500Y482000D02*
D03*
X309500D02*
D03*
Y502000D02*
D03*
X224500Y482000D02*
D03*
X254500D02*
D03*
Y502000D02*
D03*
X169500Y482000D02*
D03*
X199500D02*
D03*
Y502000D02*
D03*
X114500Y482000D02*
D03*
X144500D02*
D03*
Y502000D02*
D03*
D69*
X279500D02*
D03*
X224500D02*
D03*
X169500D02*
D03*
X114500D02*
D03*
D70*
X113500Y402000D02*
D03*
D71*
Y382000D02*
D03*
D72*
X232500Y439500D02*
D03*
X228000Y421500D02*
D03*
D73*
Y403000D02*
D03*
X264500Y415000D02*
D03*
X253200Y409500D02*
D03*
X272500Y382500D02*
D03*
X362500Y413500D02*
D03*
X230000Y395500D02*
D03*
X266000Y400500D02*
D03*
X244110Y410110D02*
D03*
X272500Y403500D02*
D03*
X219000Y388500D02*
D03*
X188000Y376500D02*
D03*
X197500Y346500D02*
D03*
X453406Y408095D02*
D03*
X450500Y403000D02*
D03*
X413500Y374000D02*
D03*
X398000Y368000D02*
D03*
X426000Y369280D02*
D03*
X438000Y367500D02*
D03*
X388500Y349000D02*
D03*
X402500Y451500D02*
D03*
X324500Y361500D02*
D03*
X359500Y443000D02*
D03*
X271000Y365500D02*
D03*
X264500Y352000D02*
D03*
X252500Y372500D02*
D03*
X244500D02*
D03*
X262000Y378500D02*
D03*
X368923Y422000D02*
D03*
X332500Y370000D02*
D03*
X370500D02*
D03*
X412778Y458778D02*
D03*
X419000Y453000D02*
D03*
X338500Y416500D02*
D03*
X285500Y454000D02*
D03*
X366685Y403000D02*
D03*
X371000Y407000D02*
D03*
X331500Y410000D02*
D03*
X223000Y445000D02*
D03*
X378500Y469000D02*
D03*
X400500Y456500D02*
D03*
X392815Y457315D02*
D03*
X257862Y437000D02*
D03*
X175500Y424000D02*
D03*
X395500Y449500D02*
D03*
X374850Y420047D02*
D03*
X375000Y426500D02*
D03*
X251000Y393500D02*
D03*
X192500Y246500D02*
D03*
X188000Y163000D02*
D03*
X181000Y161000D02*
D03*
X176969Y243500D02*
D03*
X176000Y260000D02*
D03*
X189500Y241000D02*
D03*
X182343Y244500D02*
D03*
X152815Y241000D02*
D03*
X153000Y159500D02*
D03*
X157500Y154500D02*
D03*
X166595Y160000D02*
D03*
X150000Y140500D02*
D03*
X280000Y262500D02*
D03*
X222500Y186000D02*
D03*
X226000Y220500D02*
D03*
X211000Y199500D02*
D03*
X231000Y227000D02*
D03*
X339000Y201500D02*
D03*
X228500Y156500D02*
D03*
D74*
X261500Y223500D02*
D03*
Y193500D02*
D03*
Y147000D02*
D03*
Y177000D02*
D03*
X379000Y168000D02*
D03*
Y218000D02*
D03*
D75*
X342500Y118000D02*
D03*
X378500Y289000D02*
D03*
X258500Y115000D02*
D03*
D76*
X374500Y122000D02*
D03*
X364500D02*
D03*
D77*
X369500D02*
D03*
D78*
X384791Y151886D02*
D03*
X376917D02*
D03*
X369043D02*
D03*
X361169D02*
D03*
X353295D02*
D03*
X345421D02*
D03*
X337547D02*
D03*
X329673D02*
D03*
X321799D02*
D03*
X313925D02*
D03*
Y238500D02*
D03*
X321799D02*
D03*
X329673D02*
D03*
X337547D02*
D03*
X345421D02*
D03*
X353295D02*
D03*
X361169D02*
D03*
X369043D02*
D03*
X376917D02*
D03*
D79*
X384791D02*
D03*
M02*
