G04 Layer_Color=32768*
%FSLAX25Y25*%
%MOIN*%
G70*
G01*
G75*
%ADD45C,0.00600*%
%ADD82C,0.00394*%
D45*
X238583Y381083D02*
Y405917D01*
D82*
X378248Y379748D02*
X446752D01*
X378248Y448252D02*
X446752D01*
X378248Y379748D02*
Y448252D01*
X446752Y379748D02*
Y448252D01*
X412500Y412032D02*
Y415969D01*
X410532Y414000D02*
X414468D01*
X360032Y423000D02*
X363968D01*
X362000Y421032D02*
Y424968D01*
X365150Y417488D02*
Y428512D01*
X358850Y417488D02*
Y428512D01*
X365150D01*
X358850Y417488D02*
X365150D01*
X463500Y452032D02*
Y455969D01*
X461531Y454000D02*
X465469D01*
X457988Y450850D02*
X469012D01*
X457988Y457150D02*
X469012D01*
Y450850D02*
Y457150D01*
X457988Y450850D02*
Y457150D01*
X457988Y421626D02*
X469012D01*
X457988Y437374D02*
X469012D01*
X457988Y421626D02*
Y437374D01*
X469012Y421626D02*
Y437374D01*
X463500Y427531D02*
Y431468D01*
X461531Y429500D02*
X465469D01*
X276988Y379350D02*
Y385650D01*
X288012Y379350D02*
Y385650D01*
X276988D02*
X288012D01*
X276988Y379350D02*
X288012D01*
X280532Y382500D02*
X284469D01*
X282500Y380532D02*
Y384469D01*
X276988Y393350D02*
Y399650D01*
X288012Y393350D02*
Y399650D01*
X276988D02*
X288012D01*
X276988Y393350D02*
X288012D01*
X280532Y396500D02*
X284469D01*
X282500Y394531D02*
Y398468D01*
X236488Y418661D02*
Y424961D01*
X247512Y418661D02*
Y424961D01*
X236488D02*
X247512D01*
X236488Y418661D02*
X247512D01*
X240032Y421811D02*
X243969D01*
X242000Y419842D02*
Y423780D01*
X267512Y418350D02*
Y424650D01*
X256488Y418350D02*
Y424650D01*
Y418350D02*
X267512D01*
X256488Y424650D02*
X267512D01*
X260032Y421500D02*
X263968D01*
X262000Y419531D02*
Y423468D01*
X276988Y417850D02*
Y424150D01*
X288012Y417850D02*
Y424150D01*
X276988D02*
X288012D01*
X276988Y417850D02*
X288012D01*
X280532Y421000D02*
X284469D01*
X282500Y419031D02*
Y422968D01*
X253000Y452032D02*
Y455969D01*
X251031Y454000D02*
X254969D01*
X245126Y448488D02*
X260874D01*
X245126Y459512D02*
X260874D01*
Y448488D02*
Y459512D01*
X245126Y448488D02*
Y459512D01*
X203500Y452032D02*
Y455969D01*
X201532Y454000D02*
X205469D01*
X195626Y448488D02*
X211374D01*
X195626Y459512D02*
X211374D01*
Y448488D02*
Y459512D01*
X195626Y448488D02*
Y459512D01*
X179000Y452032D02*
Y455969D01*
X177032Y454000D02*
X180968D01*
X171126Y448488D02*
X186874D01*
X171126Y459512D02*
X186874D01*
Y448488D02*
Y459512D01*
X171126Y448488D02*
Y459512D01*
X276988Y406050D02*
Y412350D01*
X288012Y406050D02*
Y412350D01*
X276988D02*
X288012D01*
X276988Y406050D02*
X288012D01*
X280532Y409200D02*
X284469D01*
X282500Y407232D02*
Y411168D01*
X228500Y452032D02*
Y455969D01*
X226532Y454000D02*
X230469D01*
X220626Y459512D02*
X236374D01*
X220626Y448488D02*
X236374D01*
X220626D02*
Y459512D01*
X236374Y448488D02*
Y459512D01*
X476532Y402500D02*
X480469D01*
X478500Y400531D02*
Y404468D01*
X481650Y396988D02*
Y408012D01*
X475350Y396988D02*
Y408012D01*
X481650D01*
X475350Y396988D02*
X481650D01*
X460532Y402500D02*
X464468D01*
X462500Y400531D02*
Y404468D01*
X459350Y396988D02*
Y408012D01*
X465650Y396988D02*
Y408012D01*
X459350Y396988D02*
X465650D01*
X459350Y408012D02*
X465650D01*
X399512Y357350D02*
Y363650D01*
X388488Y357350D02*
Y363650D01*
Y357350D02*
X399512D01*
X388488Y363650D02*
X399512D01*
X392032Y360500D02*
X395969D01*
X394000Y358531D02*
Y362469D01*
X414468Y358032D02*
Y361968D01*
X412500Y360000D02*
X416437D01*
X407579Y356260D02*
X421358D01*
X407579Y363740D02*
X421358D01*
Y356260D02*
Y363740D01*
X407579Y356260D02*
Y363740D01*
X429988Y357350D02*
Y363650D01*
X441012Y357350D02*
Y363650D01*
X429988D02*
X441012D01*
X429988Y357350D02*
X441012D01*
X433532Y360500D02*
X437468D01*
X435500Y358531D02*
Y362469D01*
X195559Y150350D02*
Y156650D01*
X184535Y150350D02*
Y156650D01*
Y150350D02*
X195559D01*
X184535Y156650D02*
X195559D01*
X188079Y153500D02*
X192016D01*
X190047Y151532D02*
Y155468D01*
X367531Y122000D02*
X371468D01*
X369500Y120031D02*
Y123969D01*
X361531Y274000D02*
X365469D01*
X363500Y272031D02*
Y275969D01*
X119532Y193000D02*
X123468D01*
X121500Y191032D02*
Y194968D01*
X115988Y185126D02*
Y200874D01*
X127012Y185126D02*
Y200874D01*
X115988Y185126D02*
X127012D01*
X115988Y200874D02*
X127012D01*
X149850Y249988D02*
X156150D01*
X149850Y261012D02*
X156150D01*
X149850Y249988D02*
Y261012D01*
X156150Y249988D02*
Y261012D01*
X153000Y253532D02*
Y257469D01*
X151031Y255500D02*
X154969D01*
X136850Y261012D02*
X143150D01*
X136850Y249988D02*
X143150D01*
Y261012D01*
X136850Y249988D02*
Y261012D01*
X140000Y253532D02*
Y257469D01*
X138031Y255500D02*
X141969D01*
X172500Y250532D02*
Y254468D01*
X170531Y252500D02*
X174469D01*
X165610Y256240D02*
X179390D01*
X165610Y248760D02*
X179390D01*
X165610D02*
Y256240D01*
X179390Y248760D02*
Y256240D01*
X219350Y202512D02*
X225650D01*
X219350Y191488D02*
X225650D01*
Y202512D01*
X219350Y191488D02*
Y202512D01*
X222500Y195031D02*
Y198969D01*
X220532Y197000D02*
X224468D01*
X127764Y167350D02*
Y173650D01*
X116740Y167350D02*
Y173650D01*
Y167350D02*
X127764D01*
X116740Y173650D02*
X127764D01*
X120283Y170500D02*
X124221D01*
X122252Y168532D02*
Y172468D01*
X183441Y249850D02*
Y256150D01*
X194465Y249850D02*
Y256150D01*
X183441D02*
X194465D01*
X183441Y249850D02*
X194465D01*
X186984Y253000D02*
X190921D01*
X188953Y251031D02*
Y254969D01*
X170531Y201500D02*
X174469D01*
X172500Y199531D02*
Y203468D01*
X138248Y167248D02*
Y235752D01*
X206752Y167248D02*
Y235752D01*
X138248Y167248D02*
X206752D01*
X138248Y235752D02*
X206752D01*
M02*
